<svg viewBox="0 0 200 40" xmlns="http://www.w3.org/2000/svg"><path d="m67.167 35.02h-3.72l-.78 4.53h-5.7l3.3-18.75h9c3.4 0 5.1 1.58 5.1 4.74 0 1.5-.21 2.853-.63 4.06-.42 1.213-.883 2.177-1.39 2.89-.513.707-1.217 1.307-2.11 1.8-.887.487-1.91.73-3.07.73zm-.75-9.42h-1.32l-.81 4.62h1.32c.68 0 1.193-.073 1.54-.22.353-.153.58-.5.68-1.04.26-1.48.39-2.29.39-2.43 0-.38-.15-.63-.45-.75-.3-.12-.75-.18-1.35-.18zm19.98 9.15-.84 4.8h-11.4l3.3-18.75h5.7l-2.46 13.95zm4.47 1.83-1.17 2.97h-6l7.89-18.75h8.82l1.32 18.75h-6.03l-.12-2.97zm4.26-10.02h-.3l-2.1 5.25h2.4zm7.89-5.76h6.3l.39 6.6h.21l2.76-6.6h6.3l-7.56 13.65-.87 5.1h-5.7l.87-5.1zm19.23 18.75h-5.7l3.3-18.75h5.7zm19.38 0h-5.369l-3.06-6.66c-.08-.14-.121-.337-.121-.59 0-.247.021-.53.06-.85h-.239l-1.411 8.1h-5.7l3.3-18.75h5.371l3.059 6.66c.06.14.09.337.09.59 0 .247-.019.53-.06.85h.241l1.44-8.1h5.7zm14.01-5.52.151-.81h-1.44l.809-4.59h6.87l-1.769 10.02c-2.44.9-4.89 1.35-7.351 1.35-2.459 0-4.237-.49-5.33-1.47-1.086-.98-1.629-2.49-1.629-4.53 0-.86.14-2.13.42-3.81.599-3.48 1.659-5.99 3.179-7.53 1.521-1.54 4.041-2.31 7.56-2.31.741 0 1.683.08 2.83.24 1.153.16 2 .34 2.541.54l-1.651 4.59c-1.5-.28-2.877-.42-4.129-.42-1.248 0-2.14.1-2.681.3-.539.2-.86.6-.959 1.2l-1.47 8.49h1.89c.679 0 1.183-.073 1.509-.22.334-.153.551-.5.65-1.04z" fill="#fff"/><path d="m76.459 19.2h-5.37l-3.06-6.66c-.08-.14-.12-.337-.12-.59 0-.247.02-.53.06-.85h-.24l-1.41 8.1h-5.7l3.3-18.75h5.37l3.06 6.66c.06.14.09.337.09.59 0 .247-.02.53-.06.85h.24l1.44-8.1h5.7zm11.28-12.48-1.38 7.8h2.37c.78 0 1.36-.093 1.74-.28.38-.193.63-.63.75-1.31l1.38-7.8h-2.4c-.76 0-1.33.093-1.71.28-.38.193-.63.63-.75 1.31zm3.45-6.72c2.54 0 4.35.497 5.43 1.49 1.08.987 1.62 2.51 1.62 4.57 0 2.06-.327 4.217-.98 6.47-.647 2.247-1.677 3.993-3.09 5.24-1.407 1.253-3.467 1.88-6.18 1.88-2.707 0-4.6-.493-5.68-1.48-1.08-.993-1.62-2.52-1.62-4.58 0-.98.14-2.273.42-3.88.28-1.613.65-3.003 1.11-4.17.46-1.173 1.08-2.19 1.86-3.05 1.5-1.66 3.87-2.49 7.11-2.49zm23.76 10.92 3.21-10.47h5.97l-6.09 18.75h-7.56v-6.9h-.33l-2.49 6.9h-6.93v-18.75h5.97l-.54 10.47h.18l3.9-10.47h4.53v10.47z" fill="#fff"/><path d="m49.491 19.648-3.738-2.717c-.137-.1-.319-.114-.469-.037-.152.077-.247.232-.247.401v5.432c0 .17.095.325.247.402.064.032.134.048.205.048.092 0 .185-.03.264-.087l3.738-2.715c.118-.087.186-.221.186-.363.001-.145-.069-.279-.186-.364z" fill="#4bbad0"/><path d="m46.522 11.001c-4.972 0-9 4.028-9 9 0 4.97 4.028 8.997 9 8.997 4.971 0 9-4.027 9-8.997.001-4.972-4.029-9-9-9zm0 16.496c-4.14 0-7.497-3.355-7.497-7.496 0-4.139 3.357-7.498 7.497-7.498s7.496 3.359 7.496 7.498c.001 4.141-3.356 7.496-7.496 7.496z" fill="#ccc"/></svg>