<svg xmlns="http://www.w3.org/2000/svg"><g fill="#fff"><path d="m426.971 53.017-4.855-17.052v11.934c-.13 11.02.133 12.2 2.887 14.037 2.752 1.968 2.098 2.097-9.577 2.097-11.671 0-12.329-.129-9.441-2.097 2.884-1.967 2.884-2.492 2.884-30.038 0-26.756-.132-27.938-2.622-28.726-5.117-1.572-.92-3.41 7.345-3.147l8.261.262 1.968 6.69c1.05 3.672 3.28 11.412 4.855 17.184 1.572 5.769 2.884 10.624 3.147 10.884.13.133 1.575-4.59 3.147-10.492 1.575-6.034 3.805-13.771 4.855-17.443l1.835-6.56h28.33 28.334l2.622 3.147c2.23 2.888 2.492 4.593 1.837 13.117-.395 5.51-.658 11.149-.525 12.591.788 24.399.393 31.086-2.1 32.923-2.097 1.443-8.787 1.838-33.445 1.705-28.463 0-30.693-.129-27.938-2.097 2.622-1.837 2.885-3.017 2.755-14.037l-.133-11.934-1.967 7.215c-1.05 3.935-3.28 11.671-4.852 17.051l-2.885 9.837zm36.725-20.857-.393-28.988h-3.937-3.935l-.392 28.201c-.263 24.399 0 28.463 1.705 29.643 1.179.92 3.279 1.312 4.722.92 2.492-.658 2.492-1.837 2.23-29.776zm24.921 13.38-.393-10.887-5.51-.393-5.639-.395v11.149 11.28h5.902 6.032zm.262-27.939v-8.524h-5.902-5.902v8.524 8.528h5.902 5.902z"/><path d="m26.919 67.443c-.392-.788-2.36-7.737-4.46-15.739l-3.802-14.429-.395 11.149c-.392 10.232-.13 11.282 2.625 13.379 2.885 2.23 2.752 2.363-9.444 2.23-11.675 0-12.329-.129-9.445-2.097 2.885-1.967 2.885-2.492 2.885-30.038 0-26.756-.13-27.938-2.622-28.726-4.985-1.572-1.313-3.014 6.952-2.752l8.132.13 2.884 9.182c1.576 5.114 3.935 12.984 5.248 17.444l2.359 8.394 4.723-17.576 4.722-17.444 8.79-.13c8.524-.133 12.458 1.18 7.344 2.493-2.492.654-2.622 1.834-2.622 28.985 0 24.003.259 28.593 1.967 29.118 4.852 1.967 1.047 3.15-9.444 3.15h-11.412l2.884-2.625c2.626-2.493 2.888-3.935 2.755-14.164l-.129-11.412-1.968 6.557c-1.05 3.672-3.15 11.02-4.855 16.397-1.572 5.377-3.147 9.182-3.672 8.524z"/><path d="m61.284 62.853c-2.884-1.704-3.672-55.743-.917-59.548 1.572-2.23 3.672-2.493 19.149-2.622 15.741-.133 17.576.129 19.281 2.359 2.888 3.935 2.625 56.139-.263 59.024-1.572 1.705-5.244 2.1-18.623 2.1-9.182 0-17.577-.658-18.627-1.313zm24.921-10.099c.263-28.333.133-42.367-.392-43.285-.395-.654-3.41-.917-6.69-.654l-6.034.525v23.475 23.479h6.559c6.295 0 6.557-.13 6.557-3.54z"/><path d="m104.569 62.983c0-.655.917-1.442 1.968-1.967 1.704-.525 1.967-5.115 1.967-28.985 0-23.874-.263-28.464-1.967-28.989-5.51-2.23-.133-2.884 17.443-2.492 24.266.655 23.874.395 23.874 19.151 0 11.934-.263 13.377-3.017 16.002l-2.885 2.884 6.557 10.887c5.114 8.527 7.344 11.017 10.232 11.675 6.819 1.442 4.982 3.017-3.28 3.017-5.115 0-9.312-.788-11.02-1.967-1.572-1.05-5.902-6.952-9.836-13.117-5.507-8.657-7.737-11.149-9.704-10.887-2.363.392-2.626 1.442-2.626 11.149 0 9.179.396 11.017 2.626 12.722 2.359 1.838 1.704 1.967-8.79 2.1-6.427 0-11.542-.525-11.542-1.183zm29.118-42.364c.392-5.248.392-9.97.13-10.495-.263-.655-3.147-1.047-6.427-1.047h-5.769v10.492 10.494h5.769 5.772z"/><path d="m169.887 61.936c2.888-1.967 2.888-2.625 2.888-27.413v-25.446h-5.64c-5.642 0-10.102 2.752-10.102 6.294 0 .918-.655 1.576-1.442 1.576-.918 0-1.047-1.838-.525-5.51 1.967-11.675.262-10.887 24.398-10.887h21.512l.784 5.247c.395 2.885 1.183 6.557 1.705 8.262 1.312 3.935-1.572 3.805-3.014-.263-1.443-3.539-3.805-4.719-10.1-4.719h-4.459v25.183c0 21.512.262 25.446 2.229 27.543 1.968 2.23 1.705 2.363-9.577 2.23-11.016 0-11.541-.129-8.657-2.097z"/><path d="m194.811 61.803c2.36-1.834 4.982-8.657 11.409-29.905 7.477-24.659 8.132-27.543 6.164-28.985-1.179-.921-1.834-1.708-1.442-1.838 3.147-.392 19.544-.525 19.544-.13 0 .392-.788 1.31-1.835 2.097-1.575 1.18-.92 4.59 4.065 21.119 10.494 35.675 11.016 36.725 15.476 36.725h3.935l.395-27.546c.263-26.101.263-27.676-2.23-29.643-1.442-1.18-2.362-2.36-2.1-2.622.658-.788 21.644-.263 22.431.525.393.392-.525 1.05-1.967 1.572-2.625.788-2.755 1.708-2.755 27.021v26.101h8.395c7.607 0 9.049-.393 14.426-4.59 3.28-2.492 6.035-3.935 6.035-3.28 0 .658-1.575 4.46-3.543 8.527l-3.539 7.215h-30.168c-27.546 0-30.039-.133-28.071-2.1 1.705-1.705 1.837-2.885.395-7.477l-1.575-5.507h-7.607-7.607l-1.705 5.769c-1.575 5.248-1.445 6.035.522 7.477 1.838 1.443.525 1.705-8.916 1.705-11.02.133-11.149 0-8.132-2.23zm30.298-22.82c0-.921-1.18-4.593-2.363-8.265l-2.359-6.557-2.101 7.474c-1.309 4.068-2.229 7.74-2.229 8.132 0 .395 2.1.788 4.592.788 2.885 0 4.59-.655 4.46-1.572z"/><path d="m303.939 62.983c0-.655.917-1.442 1.967-1.967 1.705-.525 1.967-4.985 1.967-28.068 0-22.824-.395-27.806-1.967-29.118-3.41-2.885-2.23-3.41 8.262-3.28 13.116.262 13.116.262 9.707 2.755-2.622 1.837-2.885 3.147-2.885 12.721v10.757l7.212-11.149c7.477-11.542 8.264-13.117 5.642-13.117-.787 0-1.05-.392-.657-.917 1.312-1.18 21.906-1.442 22.561-.263.392.525-.788 1.313-2.622 1.705-2.363.655-5.905 4.723-11.937 13.772l-8.527 12.854 9.444 15.346c7.74 12.725 10.099 15.477 13.117 16.135 6.427 1.309 4.197 3.017-3.935 3.017-9.574 0-12.592-2.23-20.069-14.692l-5.377-9.182-2.359 3.147c-3.151 3.938-3.413 16.53-.525 17.577 4.722 1.837 1.179 3.15-8.528 3.15-5.769 0-10.491-.525-10.491-1.183z"/><path d="m361.387 62.721c-2.097-1.18-2.359-4.065-2.359-29.906 0-25.05.262-28.855 2.23-30.428 2.754-2.362 33.577-2.229 36.462.13 1.575 1.313 1.967 6.69 1.967 30.039 0 20.328-.392 28.855-1.575 30.035-1.967 1.967-33.445 2.097-36.725.13zm25.184-30.036v-23.608h-7.215-7.212v22.691c0 12.592.393 23.216.918 23.608.392.525 3.672.918 7.214.918h6.295z"/><path d="m503.308 62.853c0-.654.918-1.312 1.968-1.312 2.752 0 3.539-1.967 12.329-30.823 7.344-24.133 7.869-26.363 5.769-27.805-1.18-.921-1.967-1.708-1.572-1.838 3.017-.525 19.544-.655 19.544-.13 0 .392-.788 1.31-1.838 2.097-2.622 2.1 13.642 55.481 17.969 58.761 2.755 2.23 2.492 2.363-8.262 2.23-9.707 0-10.887-.129-8.789-1.705 2.229-1.704 2.229-2.229.525-7.606l-1.968-5.64-7.214-.395-7.212-.393-1.967 5.77c-1.838 5.38-1.708 6.035.129 8.002 1.968 1.967 1.313 2.1-8.657 2.1-6.294 0-10.754-.525-10.754-1.313zm32.791-23.086c0-.392-.918-4.064-2.101-8.132l-2.229-7.474-2.36 7.212c-3.147 9.444-3.147 9.182 2.097 9.182 2.492 0 4.593-.393 4.593-.788z"/><path d="m564.954 62.983c0-.655.917-1.442 1.967-1.967 1.705-.525 1.968-4.722 1.968-26.363v-25.576h-5.247c-5.115 0-9.312 2.622-10.755 6.69-1.704 4.589-1.967-.263-.525-7.348l1.576-7.869h21.511 21.508l1.05 5.247c.525 2.885 1.312 6.557 1.705 8.262 1.05 4.067-.918 3.542-3.54-1.047-1.967-3.413-2.887-3.935-8.264-3.935h-5.903v25.446c0 24.788 0 25.446 3.018 27.413 2.755 1.968 2.23 2.097-8.527 2.097-6.427.133-11.542-.392-11.542-1.05z"/></g></svg>