<svg xmlns="http://www.w3.org/2000/svg"><g fill="#1e1e1e"><path d="m239.79 120.791c-32.697 0-59.217 26.505-59.217 59.202 0 32.698 26.519 59.216 59.216 59.216 12.908 0 24.845-4.125 34.576-11.138l.014-.014 1.219-.932v-.014h.014c1.958-1.564 4.435-2.494 7.138-2.494h21.847 30.806 21.846c2.705 0 5.181.93 7.139 2.494h.015v.014l1.218.932.014.014c9.73 7.013 21.669 11.138 34.576 11.138 32.698 0 59.216-26.519 59.216-59.216s-26.52-59.202-59.216-59.202h-64.363-11.912-.458v.459.602h-6.824v-.602-.459h-.458-12.041-64.364zm0 .918h64.363 11.582v.602.459h.459 7.74.459v-.459-.602h11.453 64.363c32.202 0 58.298 26.084 58.298 58.284 0 32.202-26.098 58.298-58.298 58.298-12.707 0-24.453-4.066-34.032-10.966h-.014l-1.204-.931c-2.115-1.689-4.796-2.695-7.712-2.695h-21.846-30.805-21.847c-2.917 0-5.597 1.006-7.713 2.695l-1.204.931h-.013c-9.574 6.904-21.318 10.968-34.029 10.968-32.201 0-58.298-26.096-58.298-58.298 0-32.201 26.098-58.285 58.299-58.285z" transform="matrix(.965926 -.258819 .258819 .965926 -35.683696 88.95547)"/><path d="m242.752 168.703c-17.555 0-31.794 14.241-31.794 31.795s14.24 31.795 31.794 31.795c17.555 0 31.809-14.241 31.809-31.795 0-17.555-14.254-31.795-31.809-31.795zm0 .918c17.059 0 30.892 13.818 30.892 30.877 0 17.057-13.833 30.876-30.892 30.876s-30.877-13.819-30.877-30.876c0-17.059 13.819-30.877 30.877-30.877z" transform="matrix(.965926 -.258819 .258819 .965926 -43.620822 69.662475)"/><path d="m236.443 175.799c-1.477 0-2.68 1.203-2.68 2.681v12.5c0 .244-.036.298 0 .259.035-.042 0 .013-.301.013h-12.471c-1.478 0-2.695 1.217-2.695 2.696v13.1c0 1.479 1.217 2.695 2.695 2.695l12.428.001c.218 0 .289.046.301.057s.044.04.044.23v12.484c0 1.48 1.202 2.682 2.68 2.682h12.63c1.477 0 2.68-1.202 2.68-2.682v-12.513c0-.14.023-.182.043-.2.02-.02.087-.058.273-.058h12.456c1.477 0 2.695-1.217 2.695-2.695v-13.101c0-1.478-1.218-2.696-2.695-2.696h-12.472c-.152 0-.215-.03-.244-.057-.028-.029-.057-.074-.057-.215v-12.5c0-1.478-1.203-2.681-2.68-2.681zm0 .918h12.63c.982 0 1.763.78 1.763 1.763v12.5c0 .322.101.648.33.874.229.224.561.315.889.315h12.471c.982 0 1.777.796 1.777 1.778v13.101c0 .982-.795 1.777-1.777 1.777h-12.456c-.341 0-.669.09-.904.316-.233.227-.329.552-.329.86v12.514c0 .982-.781 1.763-1.763 1.763h-12.63c-.981 0-1.763-.781-1.763-1.763v-12.486c0-.335-.091-.686-.344-.917-.252-.232-.578-.287-.918-.287h-12.428c-.982 0-1.777-.795-1.777-1.778v-13.1c0-.983.795-1.778 1.777-1.778h12.472c.393 0 .747-.052.989-.33.241-.278.228-.578.228-.86v-12.5c0-.982.782-1.763 1.763-1.762z" transform="matrix(.965926 -.258819 .258819 .965926 -43.620893 69.662302)"/><path d="m303.978 185.223c-1.074-.095-2.193.229-3.082.975l-11.997 10.063c-1.779 1.491-2.022 4.158-.532 5.935 1.491 1.778 4.158 2.006 5.936.516l12.013-10.064c1.778-1.49 2.005-4.156.516-5.935-.745-.889-1.778-1.396-2.853-1.49zm-.086.918c.839.074 1.651.462 2.237 1.161 1.172 1.398.996 3.473-.402 4.644l-12.012 10.063c-1.399 1.171-3.473.997-4.645-.4-1.172-1.399-.983-3.474.416-4.645l12.013-10.064c.7-.586 1.555-.834 2.394-.76z" transform="matrix(.965926 -.25882 .25882 .965926 -40.187181 83.651203)"/><path d="m302.931 182.97c-1.242.129-2.457.616-3.484 1.477l-12.014 10.077c-2.738 2.297-3.097 6.38-.802 9.118s6.393 3.098 9.131.802l12.013-10.062c2.738-2.296 3.097-6.379.803-9.117-1.435-1.712-3.579-2.508-5.648-2.294zm1.161.904c1.417.124 2.796.799 3.784 1.978 1.977 2.358 1.655 5.85-.702 7.826l-11.998 10.063c-2.359 1.976-5.865 1.671-7.842-.687-1.976-2.359-1.67-5.851.688-7.827l12.013-10.064c1.18-.987 2.641-1.414 4.057-1.289z" transform="matrix(.965926 -.258819 .258819 .965926 -40.185796 83.651174)"/><path d="m332.974 177.454c-1.076-.095-2.179.229-3.068.975l-12.013 10.062c-1.775 1.488-2.012 4.142-.531 5.92v.015c1.49 1.778 4.157 2.006 5.935.515l12.013-10.062c1.778-1.491 2.006-4.157.516-5.935-.745-.888-1.778-1.396-2.852-1.49zm-.086.917c.838.074 1.65.462 2.236 1.161 1.172 1.398.997 3.473-.402 4.645l-12.013 10.063c-1.397 1.171-3.472.997-4.644-.401-1.172-1.399-.983-3.474.416-4.645l12.013-10.063c.699-.586 1.555-.834 2.394-.76z" transform="matrix(.965926 -.258819 .258819 .965926 -37.188119 90.891146)"/><path d="m331.927 175.201c-1.242.129-2.457.616-3.484 1.477l-12.013 10.077c-2.738 2.296-3.099 6.38-.803 9.118 2.294 2.738 6.393 3.097 9.131.802l12.009-10.064c2.739-2.295 3.097-6.379.803-9.117-1.434-1.711-3.579-2.507-5.648-2.293zm1.161.904c1.416.124 2.796.798 3.784 1.978 1.976 2.358 1.656 5.85-.703 7.826l-11.998 10.063c-2.359 1.977-5.865 1.67-7.841-.687-1.976-2.359-1.671-5.851.688-7.827l12.013-10.063c1.179-.988 2.641-1.415 4.057-1.29z" transform="matrix(.965926 -.258819 .258819 .965926 -37.186904 90.89067)"/><path d="m397.699 106.391c-29.078 0-52.665 23.589-52.665 52.664 0 29.079 23.588 52.653 52.665 52.653 16.508 0 31.242-7.59 40.897-19.481l.043-.057.029-.057.101-.244.229-.545-.588-.087c-.329-.045-.588-.313-.588-.659 0-.379.296-.674.674-.674.316 0 .582.204.66.487l.272 1.018.559-.888.258-.43.014-.029c6.348-8.698 10.093-19.416 10.093-31.007 0-29.077-23.575-52.665-52.652-52.665v.001zm0 .917c28.582 0 51.734 23.169 51.734 51.747 0 11.364-3.669 21.856-9.877 30.391-.286-.269-.64-.459-1.061-.459-.874 0-1.591.718-1.591 1.591 0 .565.354.98.802 1.262-9.49 11.563-23.88 18.951-40.008 18.951-28.582 0-51.749-23.152-51.749-51.735 0-28.581 23.168-51.747 51.749-51.747z" transform="matrix(.965926 -.258819 .258819 .965926 -27.613841 108.349915)"/><path d="m371.914 155.544c-5.986 0-10.851 4.865-10.851 10.851s4.865 10.852 10.851 10.852c5.987 0 10.852-4.866 10.852-10.852s-4.865-10.851-10.852-10.851zm0 .916c5.491 0 9.934 4.445 9.934 9.935 0 5.491-4.443 9.934-9.934 9.934-5.49 0-9.934-4.443-9.934-9.934 0-5.49 4.444-9.935 9.934-9.935z" transform="matrix(.965926 -.258819 .258819 .965926 -30.393641 101.92831)"/><path d="m392.052 128.894c-5.987 0-10.837 4.865-10.837 10.852 0 5.986 4.851 10.851 10.837 10.851s10.852-4.865 10.852-10.851c0-5.987-4.866-10.852-10.852-10.852zm0 .917c5.49 0 9.934 4.444 9.934 9.935 0 5.49-4.444 9.933-9.934 9.933s-9.92-4.443-9.92-9.933c0-5.491 4.429-9.935 9.92-9.935z" transform="matrix(.965926 -.258819 .258819 .965926 -22.80969 106.234147)"/><path d="m394.194 128.974c-2.633.178-5.234 1.11-7.473 2.853l-26.348 20.528c-5.962 4.643-7.038 13.26-2.393 19.222 4.643 5.962 13.26 7.023 19.223 2.38l26.349-20.519c5.963-4.642 7.036-13.257 2.394-19.22-2.904-3.727-7.367-5.544-11.753-5.247zm.071.903c4.092-.278 8.241 1.42 10.952 4.903 4.34 5.572 3.336 13.594-2.236 17.933l-26.347 20.527c-5.572 4.339-13.594 3.335-17.933-2.237-4.34-5.571-3.335-13.592 2.236-17.932l26.347-20.514c2.089-1.627 4.527-2.514 6.981-2.68z" transform="matrix(.965926 -.258819 .258819 .965926 -26.556793 104.068826)"/><path d="m403.392 167.858c-5.986 0-10.851 4.866-10.851 10.853 0 5.986 4.865 10.837 10.851 10.837 5.987 0 10.837-4.852 10.837-10.837 0-5.987-4.85-10.853-10.837-10.853zm0 .918c5.491 0 9.92 4.444 9.92 9.935s-4.429 9.919-9.92 9.919-9.934-4.428-9.934-9.919c.001-5.491 4.444-9.935 9.934-9.935z" transform="matrix(.965926 -.258819 .258819 .965926 -32.506735 110.492905)"/><path d="m423.532 141.209c-5.986 0-10.852 4.865-10.852 10.852 0 5.986 4.867 10.851 10.852 10.851 5.987 0 10.851-4.865 10.851-10.851 0-5.987-4.864-10.852-10.851-10.852zm0 .918c5.491 0 9.934 4.443 9.934 9.933 0 5.491-4.443 9.934-9.934 9.934-5.49 0-9.934-4.443-9.934-9.934 0-5.49 4.444-9.933 9.934-9.933z" transform="matrix(.965926 -.258819 .258819 .965926 -24.924663 114.799314)"/><path d="m425.674 141.29c-2.632.178-5.247 1.111-7.482 2.853l-26.348 20.527c-5.963 4.644-7.038 13.26-2.394 19.223 4.643 5.961 13.26 7.022 19.224 2.379l26.347-20.514c5.962-4.643 7.038-13.26 2.394-19.223-2.903-3.725-7.354-5.541-11.741-5.245zm.058.903c4.091-.278 8.24 1.419 10.951 4.902 4.34 5.572 3.35 13.594-2.222 17.934l-26.348 20.527c-5.572 4.339-13.594 3.335-17.932-2.236-4.339-5.572-3.349-13.594 2.222-17.933l26.362-20.513c2.089-1.629 4.511-2.515 6.967-2.681z" transform="matrix(.965926 -.258819 .258819 .965926 -28.672383 112.633561)"/></g></svg>