<svg xmlns="http://www.w3.org/2000/svg"><g fill="#fff"><path d="m438.72 66.222h-8.472v-28.65h31.194c5.391 0 9.6 3.822 9.747 9.219v19.431h-7.998s0-12.345 0-17.808c0-2.649-1.56-4.482-4.185-4.725-1.443-.132-2.901-.024-4.464-.024v22.557h-8.37s0-15.114 0-22.713c-2.511 0-4.92 0-7.452 0z"/><path d="m567.528 66.222h-8.472v-28.65h31.194c5.391 0 9.6 3.822 9.75 9.219v19.431h-8.001s0-12.345 0-17.808c0-2.649-1.557-4.482-4.185-4.725-1.44-.132-2.901-.024-4.461-.024v22.557h-8.373s0-15.114 0-22.713c-2.511 0-4.92 0-7.452 0z"/><path d="m336.168 55.293c2.706 3.57 5.517 7.269 8.289 10.929-3.183 0-9.513 0-9.513 0l-7.287-10.623h-8.103v10.623c-2.844 0-5.556 0-8.346 0 0-9.441 0-19.116 0-28.65h1.212c7.296 0 14.589-.003 21.885 0 5.946.003 10.203 5.361 9.009 11.139-.66 3.192-2.712 5.151-5.739 6.171-.42.141-.846.252-1.407.411zm-16.593-4.836h11.007c.576-.009 1.176-.258 1.719-.489 1.212-.516 2.052-1.344 2.058-2.784.003-1.524-.555-2.739-2.025-3.294-.822-.312-1.734-.504-2.61-.519h-10.152c.003 0 .003 4.761.003 7.086z"/><path d="m425.508 66.21h-21.273c-1.581-.021-3.213-.306-4.719-.78-3.924-1.233-5.976-4.329-5.745-8.331.237-4.095 2.823-7.239 6.708-8.07.906-.195 1.851-.291 2.778-.297h13.572c-.048-3.126-2.628-5.655-5.931-5.667h-14.838v-5.493h17.361c6.669 0 11.883 4.989 12.087 11.637v17.004zm-8.412-12.087c-3.498 0-6.954 0-10.41 0-2.208 0-3.705 1.32-3.741 3.288-.03 1.911 1.413 3.177 3.657 3.18h10.494s0-4.167 0-6.468z"/><path d="m174.711 66.21v-5.625h18.738c1.728 0 2.784-.861 3.156-2.559.273-1.251-.513-2.535-2.022-3.093-.687-.255-1.449-.399-2.178-.408h-11.556c-4.716-.069-7.47-2.874-7.893-7.86-.33-3.882 2.529-8.316 6.402-9.09h24.648v5.772c-.393 0-.789 0-1.188 0-5.496 0-10.998-.006-16.494.003-.519.003-1.047.045-1.557.138-1.293.243-2.253 1.038-2.487 2.286-.234 1.224.312 2.367 1.335 3.141.315.237.825.351 1.248.354h12.453c3.087.087 5.988.879 7.557 3.915 2.736 5.298.627 12.909-7.431 13.026z"/><path d="m537.417 36.918c3.201.105 6.309.471 9.219 1.812 4.05 1.863 7.074 4.797 7.935 9.249 1.077 5.604.09 10.842-4.401 14.844-2.547 2.274-5.769 3.273-9.066 3.84-5.124.882-10.029.054-14.676-2.292-4.347-2.19-6.168-5.985-6.663-10.584-.246-2.313-.195-4.629.525-6.876 1.704-5.292 5.652-8.004 10.812-9.165 2.061-.462 3.249-.759 6.315-.828zm9.327 14.976c-.024-.522-.045-1.044-.075-1.566-.243-3.912-2.538-6.861-6.12-7.8-2.097-.552-4.23-.489-6.327-.048-3.048.636-5.04 2.505-5.91 5.478-.696 2.367-.693 4.806-.288 7.218.471 2.793 2.163 4.695 4.86 5.442 1.62.45 3.378.618 5.064.579 5.751-.141 8.934-3.576 8.796-9.303z"/><path d="m306.699 49.062v5.445c-6.657 0-13.266 0-19.875 0 .051 3.435 2.475 5.88 5.76 5.883 4.263.006 13.968.003 13.968.003v5.802h-16.068c-7.992-.369-12.858-6.003-12.591-13.404.087-2.439.249-4.842 1.158-7.143 1.962-4.977 6.48-8.073 11.805-8.073h15.849v5.793s-10.848-.033-13.464-.021c-3.192.015-5.847 2.394-6.27 5.715z"/><path d="m231.12 60.363s0-15.315 0-22.788h8.166v28.638l-21.498.009c-2.655.009-4.794-1.017-6.459-3.033-1.581-1.917-2.553-3.987-2.481-6.63.156-5.718.045-18.984.045-18.984h8.193l-.033 18.306c-.06 2.691 1.434 4.26 3.918 4.482z"/><path d="m252.156 56.538v9.675c-2.688 0-5.292 0-7.968 0 0-9.411 0-28.638 0-28.638h21.744c3.849-.105 7.713 2.763 8.856 7.023 1.671 6.216-2.667 11.91-9.144 11.937-4.116.018-8.232.003-12.348.003-.33 0-.657 0-1.14 0zm.27-5.574h11.022c.444-.006.933-.288 1.32-.549 1.206-.81 2.043-3.03 1.656-4.248-.606-1.899-1.818-2.814-3.819-2.82h-10.179z"/><path d="m391.533 37.575v5.493h-13.98c-2.373.066-4.404 1.188-5.793 3.141-.474.669-.765 1.515-.831 2.661h20.25v6.063c-6.744 0-13.464 0-20.325 0v11.292c-2.802 0-8.256 0-8.256 0s0-11.7 0-16.935c0-6.123 4.644-11.514 10.782-11.712z"/><path d="m517.233 60.603v5.619h-15.108c-6.261 0-11.025-3.681-12.549-9.774-1.188-4.755-.639-9.561 2.052-13.704 2.238-3.444 5.52-5.16 9.645-5.169h16.122v5.667h-13.689c-2.685 0-4.413 1.242-5.304 3.777-1.038 2.958-1.218 6.255-.246 9.279.9 2.802 3.042 4.305 5.979 4.305z"/><path d="m335.889 92.316c0-1.731 0-3.399 0-5.169h19.914c0-2.88 0-5.658 0-8.547-6.525 0-13.011 0-19.551 0 0-1.704 0-3.294 0-4.95h23.853v18.666c-8.073 0-16.131 0-24.216 0z"/><path d="m173.628 78.474c0-1.791 0-3.387 0-5.046h19.899c.51 3.627.267 7.134-.951 10.542-.111.315-.306.873-.306.873s3.693 5.193 5.361 7.512c-1.887 0-5.568 0-5.568 0s-1.899-2.565-2.64-3.621c-.381.303-.726.576-1.068.846-2.319 1.854-4.884 2.946-7.932 2.82 0 0-4.926 0-7.467 0v-5.109s3.489.018 5.232-.003c2.208-.027 4.389-.189 6.486-1.014 3.24-1.275 5.163-4.179 4.992-7.8-5.319 0-10.644 0-16.038 0z"/><path d="m476.28 37.575h8.835v28.665h-8.835z"/><path d="m264.6 92.328v-5.145h10.284c4.188.213 7.473-2.439 7.365-7.608-.006-.33-.048-.66-.081-1.071-6.261 0-12.492 0-18.813 0 0-1.668 0-3.249 0-4.875h22.755v9.204c-.021.873-.297 1.779-.606 2.61-1.545 4.122-4.674 6.525-8.925 6.888z"/><path d="m288.03 82.35c0-1.545 0-2.985 0-4.437h20.028v6.525c0 2.607-1.833 3.735-9.249 3.735 0 0-.066 1.167-.3 1.494-.783 1.941-2.301 2.742-4.512 2.742h-4.875c0-1.521 0-2.979 0-4.566h4.782c1.593 0 2.004-.351 2.265-1.95.078-.48.135-.963.219-1.533 2.055 0 4.104.009 6.153-.003 1.389-.006 1.806-.444 1.863-2.004-5.439-.003-10.878-.003-16.374-.003z"/><path d="m386.427 73.809v10.521c-.852 5.868-6.147 8.106-10.038 7.986h-13.734v-5.169h14.127c2.907.147 5.862-2.571 5.817-5.97-.027-2.13-.003-4.263-.003-6.396 0-.294 0-.594 0-.972z"/><path d="m227.073 73.413h4.356v6.153c0 .411.024.825-.003 1.233-.315 4.848 3.078 6.273 6.24 6.273h1.281v5.151c-7.005.405-11.58-2.715-11.856-9.597-.111-2.685-.021-5.382-.021-8.073.003-.366.003-.732.003-1.14z"/><path d="m333.633 86.433-23.502-2.97v-4.554l23.502 2.808z"/><path d="m333.633 80.238-23.502-2.967v-4.557l23.502 2.811z"/><path d="m333.651 88.038v4.698c-7.86-.993-15.663-1.977-23.535-2.97 0-1.389 0-3.063 0-4.623 7.818.858 15.648 2.028 23.535 2.895z"/><path d="m213.351 92.184c0-1.797 0-3.459 0-5.124 1.029-.078 2.034-.084 3.018-.237 2.868-.453 4.539-2.442 4.548-5.34.012-2.574.003-5.151.003-7.812h4.377c0 2.106.03 4.224 0 6.342-.021 1.416.048 2.865-.228 4.239-.975 4.857-3.936 7.344-9.024 7.776-.879.078-1.764.105-2.694.156z"/><path d="m213.702 80.484v4.782c-6.012 0-11.976 0-18 0 0-1.599 0-3.153 0-4.782z"/><path d="m239.166 80.307h18.018v4.701c-6 0-11.979 0-18.018 0 0-1.539 0-3.093 0-4.701z"/><path d="m376.896 73.65v4.95c-4.743 0-9.447 0-14.223 0 0-1.545 0-3.312 0-4.95z"/><path d="m239.367 76.659c-.003 1.938-1.569 3.495-3.492 3.474-1.866-.024-3.411-1.557-3.441-3.429-.033-1.917 1.524-3.501 3.45-3.51 1.944-.006 3.486 1.527 3.483 3.465zm-2.109-.045c-.027-.789-.729-1.473-1.467-1.47-.78.006-1.512.783-1.419 1.566.102.873.657 1.383 1.503 1.35.864-.036 1.302-.636 1.383-1.446z"/></g><path d="m68.439 68.859c0 9.45-15.318 17.112-34.218 17.112-18.897 0-34.221-7.659-34.221-17.109 0 0 0 0 0-.003 0-9.447 15.318-17.109 34.215-17.109s34.221 7.659 34.221 17.106c.003.003.003.003.003.003z" fill="#ccc"/><path d="m127.368 95.898c.003 9.447-15.315 17.109-34.212 17.109-18.9 0-34.221-7.659-34.224-17.106 0-.003 0-.003 0-.003-.003-9.45 15.318-17.109 34.215-17.109 18.9 0 34.218 7.656 34.221 17.106z" fill="#ccc"/><path d="m69.696 0c-17.25 0-31.266 13.785-31.674 30.951.717-.051 1.431-.081 2.157-.081 17.505 0 31.695 14.205 31.695 31.725 0 .261-.012.516-.018.774 16.5-1.107 29.532-14.847 29.532-31.644 0-17.52-14.187-31.725-31.692-31.725z" fill="#ccc"/><path d="m129.693 27.789c-17.499 0-31.683 14.193-31.683 31.704 0 .39.006.783.021 1.167.42-.015.837-.036 1.266-.036 17.103 0 31.044 13.569 31.665 30.534 16.914-.663 30.414-14.577 30.414-31.662.003-17.514-14.184-31.707-31.683-31.707z" fill="#ccc"/></svg>