<svg xmlns="http://www.w3.org/2000/svg"><g fill="#1e1e1e"><path d="m279.385 117.459c-.082 0-.084.009-.144.015s-.144.017-.245.029c-.2.023-.487.043-.849.086-.723.086-1.749.214-3.052.375-2.605.322-6.286.786-10.682 1.338-8.787 1.106-20.443 2.587-32.086 4.074-11.645 1.487-23.284 2.974-32.059 4.118-4.387.572-8.056 1.06-10.653 1.411-1.298.174-2.334.314-3.051.417-.361.051-.637.098-.837.13-.1.016-.183.031-.245.043-.03.006-.046.009-.071.014-.026.006-.036-.005-.116.029-2.25.96-3.829 3.206-3.829 5.802v100.909c0 3.473 2.821 6.292 6.291 6.292h264.471c3.47 0 6.306-2.821 6.306-6.291v-100.909c0-2.493-1.461-4.655-3.57-5.672-.081-.04-.086-.036-.115-.043s-.069-.022-.101-.029c-.065-.013-.143-.026-.245-.043-.203-.034-.487-.076-.849-.129-.728-.107-1.764-.253-3.068-.432-2.613-.358-6.293-.847-10.697-1.426-8.808-1.157-20.484-2.663-32.171-4.16-11.688-1.497-23.379-2.977-32.205-4.088-4.413-.556-8.117-1.03-10.74-1.353-1.31-.162-2.35-.289-3.08-.375-.365-.043-.645-.063-.849-.086-.102-.012-.183-.023-.245-.029-.063-.006-.082-.015-.159-.015v.922c-.048 0 .003-.005.057 0 .055.005.146.017.245.029.201.022.472.058.836.1.727.087 1.771.213 3.081.375 2.621.323 6.325.783 10.739 1.339 8.825 1.111 20.516 2.592 32.203 4.088 11.685 1.496 23.366 3.003 32.173 4.161 4.403.578 8.089 1.082 10.695 1.439 1.304.179 2.336.312 3.052.418.359.053.644.097.835.13.095.015.169.033.216.043.004.001.01-.002.013 0 .015.002.026.013.03.014 1.767.879 2.994 2.711 2.994 4.823v100.91c0 2.972-2.412 5.37-5.384 5.37h-264.472c-2.974 0-5.371-2.395-5.371-5.372v-100.911c0-2.212 1.337-4.112 3.24-4.938.009-.002.012.003.028 0 .048-.009.12-.028.216-.043.191-.03.479-.064.835-.116.714-.101 1.741-.256 3.037-.431 2.594-.349 6.252-.825 10.639-1.397 8.773-1.143 20.415-2.644 32.059-4.131s23.3-2.954 32.087-4.059c4.393-.553 8.062-1.018 10.667-1.339 1.302-.161 2.346-.289 3.067-.375.359-.043.638-.079.834-.101.098-.011.177-.023.231-.029.053-.005.113 0 .057 0v-.921z" transform="matrix(.965926 -.25882 .25882 .965926 -35.683775 88.955779)"/><path d="m273.6 113.132c-.601 0-1.115.281-1.411.691s-.403.921-.403 1.425v36.42c0 22.609 18.331 40.956 40.94 40.956 22.611 0 40.956-18.347 40.956-40.956v-36.419c0-.528-.11-1.044-.417-1.454-.308-.409-.825-.661-1.442-.661h-78.224zm0 .922h78.224c.399 0 .569.106.706.288.136.182.23.504.23.907v36.42c0 22.112-17.923 40.033-40.034 40.033-22.112 0-40.019-17.922-40.019-40.033v-36.42c0-.363.088-.695.23-.893.143-.197.313-.301.664-.301z" transform="matrix(.965926 -.258819 .258819 .965926 -28.911572 86.150651)"/><path d="m230.718 200.967c-2.067 0-4.079.254-6.003.72-9.169 2.221-16.394 9.418-18.656 18.57-.484 1.958-.735 3.997-.735 6.104 0 2.024.229 4 .677 5.888 2.193 9.244 9.437 16.53 18.656 18.785 1.941.476 3.975.72 6.061.72 2.06 0 4.07-.243 5.989-.705 9.34-2.256 16.662-9.668 18.785-19.059.409-1.809.62-3.696.62-5.629 0-2.094-.257-4.127-.734-6.075-2.247-9.146-9.438-16.34-18.586-18.584-1.946-.477-3.983-.735-6.075-.735zm0 .922c2.017.001 3.97.246 5.845.705 8.812 2.163 15.757 9.096 17.921 17.908.461 1.876.706 3.84.706 5.859 0 1.864-.211 3.684-.605 5.428-2.045 9.048-9.095 16.194-18.095 18.368-1.848.446-3.786.677-5.772.677-2.012 0-3.961-.234-5.83-.691-8.883-2.174-15.868-9.203-17.98-18.11-.432-1.818-.662-3.72-.662-5.672 0-2.032.239-4 .705-5.886 2.179-8.819 9.145-15.755 17.979-17.895 1.855-.449 3.795-.69 5.788-.691z" transform="matrix(.965926 -.258819 .258819 .965926 -50.724875 67.427234)"/><path d="m230.718 200.967c-2.066 0-4.079.254-6.003.721h-.014-.029c-.415.141-.784.397-1.022.776-.239.382-.332.85-.332 1.426v13.949c0 .448-.077.728-.187.865-.109.135-.304.258-.864.258h-14.021c-.5 0-.931.029-1.324.216-.393.189-.68.56-.849 1.038v.013l-.014.03c-.484 1.957-.735 3.996-.735 6.103 0 2.024.229 4 .677 5.889h.014c.125.483.34.917.735 1.18.394.262.886.331 1.497.331h14.006c.448 0 .688.085.821.215.133.131.244.39.244.922v13.935c0 .666.122 1.164.375 1.525.253.362.617.549.921.662h.029l.015.015c1.941.475 3.975.72 6.06.72 2.06 0 4.07-.243 5.989-.706h.014c.376-.104.749-.328 1.007-.705.259-.377.389-.885.389-1.511v-13.949c0-.429.107-.691.259-.85.153-.158.406-.273.893-.273h13.92c.72 0 1.267-.185 1.641-.532.374-.348.553-.795.662-1.223v-.014c.41-1.809.619-3.696.619-5.628 0-2.095-.255-4.129-.734-6.076v-.014c-.13-.472-.367-.87-.763-1.08-.397-.209-.84-.231-1.425-.231h-13.906c-.547 0-.802-.117-.936-.258s-.23-.398-.23-.864v-13.949c0-.555-.035-1.004-.245-1.396-.21-.393-.606-.659-1.065-.792h-.015c-1.946-.477-3.983-.735-6.075-.735zm0 .923c2.012 0 3.96.247 5.83.705.004.001.01-.001.015 0 .299.089.404.172.489.331.087.162.144.471.144.964v13.949c0 .581.107 1.125.475 1.512s.933.533 1.612.533h13.907c.546 0 .857.057.993.129.133.069.208.151.303.49 0 .004-.001.009 0 .013.458 1.873.705 3.83.705 5.845 0 1.863-.211 3.684-.605 5.428-.091.346-.201.601-.374.762-.178.165-.453.288-1.022.288h-13.921c-.643 0-1.187.18-1.554.562-.368.381-.518.907-.518 1.482v13.95c0 .494-.103.807-.231.992-.127.185-.289.272-.504.33-1.84.443-3.766.677-5.744.677-1.996 0-3.929-.226-5.787-.677-.007-.003-.006-.01-.014-.013-.214-.082-.352-.163-.46-.317-.112-.16-.216-.443-.216-.992v-13.936c0-.662-.144-1.202-.518-1.569-.375-.367-.901-.489-1.469-.489h-14.007c-.525 0-.817-.08-.979-.188-.161-.108-.265-.251-.36-.619-.432-1.818-.662-3.72-.662-5.671 0-2.018.231-3.97.691-5.845h.014c.12-.34.212-.441.375-.519.161-.077.459-.115.921-.115h14.021c.707 0 1.254-.18 1.584-.59.329-.409.388-.929.388-1.454v-13.949c0-.473.076-.756.188-.936.108-.173.265-.279.532-.374.009-.002.006-.011.014-.014 1.841-.442 3.767-.675 5.744-.675z" transform="matrix(.965926 -.25882 .25882 .965926 -50.725286 67.427381)"/><path d="m230.718 219.496c-3.785 0-6.866 3.081-6.866 6.866 0 3.786 3.081 6.867 6.866 6.867 3.786 0 6.867-3.082 6.867-6.867s-3.082-6.866-6.867-6.866zm0 .92c3.287 0 5.946 2.658 5.946 5.946 0 3.287-2.659 5.945-5.946 5.945s-5.945-2.658-5.945-5.945c0-3.288 2.658-5.946 5.945-5.946z" transform="matrix(.965926 -.258819 .258819 .965926 -50.725369 67.427434)"/><path d="m208.796 138.507c-3.47 0-6.291 2.822-6.291 6.291v26.805c0 1.503.311 2.601.835 3.383.524.781 1.267 1.207 2.029 1.381 1.52.347 3.077-.2 3.902-.705.004-.002.01.003.014 0 4.211-2.353 9.055-3.699 14.223-3.699 16.136 0 29.208 13.071 29.208 29.208 0 9.755-4.776 18.39-12.121 23.695l-.043.029-.029.043-.864.965-.029.029c-.869.884-1.41 2.105-1.41 3.441 0 2.699 2.194 4.894 4.894 4.894h3.801 160.219.461 13.359c12.199 0 22.096-9.898 22.096-22.097 0-4.395-1.283-8.492-3.497-11.934-.003-.005.002-.01 0-.014-.213-.359-.303-.454-.303-1.411v-54.013c0-3.469-2.821-6.291-6.291-6.291h-53.161c-2.064 0-3.716.825-4.81 2.146-1.092 1.321-1.64 3.115-1.64 5.081v4.232c0 28.507-23.101 51.594-51.607 51.594-28.507 0-51.608-23.087-51.608-51.593v-4.233c0-2.085-.377-3.867-1.324-5.167-.949-1.299-2.473-2.057-4.523-2.057h-55.495zm0 .922h55.495c1.838 0 3.011.604 3.787 1.67.775 1.066 1.137 2.663 1.137 4.634v4.233c0 29.005 23.524 52.515 52.528 52.515s52.528-23.511 52.528-52.516v-4.232c0-1.795.5-3.386 1.425-4.506.926-1.117 2.28-1.797 4.104-1.797h53.164c2.971 0 5.369 2.397 5.369 5.369v54.012c0 1.061.209 1.523.432 1.9h.014v.014c2.126 3.301 3.354 7.224 3.354 11.444 0 11.701-9.474 21.176-21.176 21.176h-12.899-.46-160.679-3.801c-2.201 0-3.973-1.771-3.973-3.972 0-1.101.446-2.086 1.166-2.808l.014-.014v-.014l.806-.922c.011-.008.018-.021.029-.028 7.557-5.474 12.481-14.373 12.481-24.415 0-16.635-13.496-30.13-30.13-30.13-5.332 0-10.352 1.397-14.697 3.829h-.014c-.606.373-2.07.868-3.225.605-.578-.132-1.077-.423-1.469-1.007-.391-.585-.676-1.485-.676-2.865v-26.803c-.003-2.971 2.394-5.368 5.367-5.368z" transform="matrix(.965926 -.258819 .258819 .965926 -37.24212 89.891916)"/><path d="m394.824 180.704c-7.649 0-13.863 6.213-13.863 13.863 0 7.647 6.213 13.863 13.863 13.863 7.647 0 13.847-6.214 13.847-13.863.001-7.648-6.199-13.863-13.847-13.863zm0 .921c7.15 0 12.927 5.792 12.927 12.942s-5.777 12.942-12.927 12.942c-7.151 0-12.942-5.792-12.942-12.942s5.791-12.942 12.942-12.942z" transform="matrix(.965926 -.258819 .258819 .965926 -36.904605 108.815564)"/><path d="m394.823 182.816c-6.481 0-11.746 5.266-11.746 11.747 0 6.48 5.265 11.746 11.746 11.746s11.746-5.266 11.746-11.746c0-6.481-5.265-11.747-11.746-11.747zm0 .921c5.982 0 10.824 4.841 10.824 10.825 0 5.983-4.842 10.825-10.824 10.825-5.983 0-10.825-4.842-10.825-10.825s4.842-10.825 10.825-10.825z" transform="matrix(.965926 -.258819 .258819 .965926 -36.903194 108.817171)"/><path d="m394.274 172.939c-9.631 0-17.447 7.817-17.447 17.447 0 9.632 7.816 17.448 17.447 17.448h32.289c9.631 0 17.447-7.816 17.447-17.448 0-9.63-7.816-17.447-17.447-17.447zm0 .921h32.289c9.134 0 16.526 7.392 16.526 16.526 0 9.135-7.391 16.526-16.526 16.526h-32.289c-9.133 0-16.526-7.39-16.526-16.526.001-9.134 7.393-16.526 16.526-16.526z" transform="matrix(.965926 -.25882 .25882 .965926 -35.291042 112.711737)"/><path d="m426.01 172.347c-7.647 0-13.863 6.214-13.863 13.863 0 7.647 6.215 13.863 13.863 13.863 7.649 0 13.849-6.214 13.849-13.863 0-7.648-6.201-13.863-13.849-13.863zm0 .921c7.151 0 12.927 5.792 12.927 12.942s-5.776 12.942-12.927 12.942c-7.15 0-12.941-5.792-12.941-12.942s5.791-12.942 12.941-12.942z" transform="matrix(.965926 -.258819 .258819 .965926 -33.678985 116.602603)"/><path d="m426.01 174.459c-6.481 0-11.746 5.267-11.746 11.747 0 6.481 5.265 11.747 11.746 11.747 6.482 0 11.748-5.266 11.748-11.747 0-6.48-5.266-11.747-11.748-11.747zm0 .922c5.983 0 10.826 4.841 10.826 10.825 0 5.983-4.843 10.824-10.826 10.824-5.982 0-10.825-4.841-10.825-10.824s4.843-10.825 10.825-10.825z" transform="matrix(.965926 -.25882 .25882 .965926 -33.677739 116.604928)"/><path d="m306.686 212.1c-2.372 0-4.304 1.946-4.304 4.32 0 2.373 1.932 4.304 4.304 4.304h12.006c2.373 0 4.304-1.933 4.304-4.304 0-2.374-1.931-4.32-4.304-4.32zm0 .922h12.006c1.875 0 3.383 1.522 3.383 3.398 0 1.875-1.508 3.382-3.383 3.382h-12.006c-1.875 0-3.383-1.507-3.383-3.382s1.508-3.398 3.383-3.398z" transform="matrix(.965926 -.258819 .258819 .965926 -45.35692 88.3039)"/><path d="m306.687 209.699c-3.703 0-6.708 3.02-6.708 6.723s3.005 6.709 6.708 6.709h12.006c3.704 0 6.723-3.006 6.723-6.709s-3.019-6.723-6.723-6.723zm0 .922h12.006c3.205 0 5.801 2.596 5.801 5.801s-2.596 5.787-5.801 5.787h-12.006c-3.206 0-5.786-2.582-5.786-5.787s2.581-5.801 5.786-5.801z" transform="matrix(.965926 -.258819 .258819 .965926 -45.357405 88.306204)"/><path d="m338.777 203.501c-2.373 0-4.304 1.946-4.304 4.32 0 2.373 1.932 4.304 4.304 4.304h12.006c2.373 0 4.304-1.933 4.304-4.304 0-2.374-1.931-4.32-4.304-4.32zm0 .922h12.006c1.874 0 3.383 1.523 3.383 3.398s-1.508 3.382-3.383 3.382h-12.006c-1.875 0-3.383-1.507-3.383-3.382s1.508-3.398 3.383-3.398z" transform="matrix(.965926 -.25882 .25882 .965926 -42.037953 96.316986)"/><path d="m338.779 201.104c-3.704 0-6.723 3.02-6.723 6.723s3.019 6.709 6.723 6.709h12.006c3.704 0 6.708-3.006 6.708-6.709s-3.004-6.723-6.708-6.723zm0 .922h12.006c3.207 0 5.786 2.596 5.786 5.801s-2.579 5.787-5.786 5.787h-12.006c-3.206 0-5.801-2.582-5.801-5.787s2.595-5.801 5.801-5.801z" transform="matrix(.965926 -.25882 .25882 .965926 -42.039954 96.315806)"/><path d="m229.564 187.529c-6.465 0-12.555 1.681-17.835 4.621l-1.325.734-.403.231.216.403 1.483 2.649.23.402.403-.215 1.325-.749c4.711-2.622 10.127-4.103 15.906-4.103 9.054.001 17.229 3.656 23.163 9.587 5.931 5.934 9.601 14.108 9.601 23.162-.001 10.444-4.889 19.735-12.495 25.739l-1.195.937-.359.288.288.36 1.886 2.39.288.359.359-.287 1.195-.936c8.519-6.72 13.993-17.158 13.993-28.85-.002-20.275-16.447-36.721-36.724-36.722zm0 .921c19.779.001 35.801 16.023 35.802 35.801 0 11.403-5.342 21.576-13.647 28.129l-.835.647-1.31-1.67.835-.647c7.818-6.172 12.84-15.73 12.841-26.459-.001-9.304-3.779-17.713-9.876-23.811-6.099-6.096-14.508-9.86-23.81-9.861-5.939 0-11.509 1.538-16.354 4.233l-.92.518-1.037-1.857.921-.518c5.148-2.865 11.084-4.505 17.39-4.505z" transform="matrix(.965926 -.258819 .258819 .965926 -49.065394 69.164188)"/></g></svg>