<svg xmlns="http://www.w3.org/2000/svg"><g fill="#fff"><path d="m446.44 8.699c6.736.891 4.896-6.354 8.238-8.68h2.461c1.427.183 3.379-.731 3.694 1.772-.101 2.442.034 4.922-.349 7.32-.854 5.387 1.3 7.601 6.639 6.87 0 0-.072-.172-.072-.172.589 2.506-1.753 6.537 3.484 6.615 5.223.079 3.286-3.783 3.582-6.42 1.004-13.445 1.004-13.445 14.048-13.625-.079 11.212-.199 22.424-.232 33.636-.042 13.985-.012 13.985-13.666 14.505 0 0 .003.079.003.079.045-2.439-.176-4.915.184-7.305.865-5.709-1.169-8.447-7.133-7.679-.771-2.331 1.173-6.44-3.768-6.065-4.818.363-2.668 4.203-2.949 6.627-.326 2.824-.277 5.727-.03 8.567.364 4.169-1.067 5.945-5.484 5.687-4.671-.274-9.38.104-14.074.198-.472.019-.944.034-1.416.053 0 0 .146-.015.146-.015.06-9.916.082-19.836.213-29.752.023-1.667-.764-4.511 1.66-4.529 6.151-.034 4.259-4.503 4.821-7.687z"/><path d="m26.8 362.941c-2.584-7.065-17.08-4.901-18.38-5.662-9.799-5.743-10.251-5.412-5.411-14.582 1.135-1.008 23.041-21.734 23.185-24.021 1.218-19.338 5.871-69.555 1.337-76.114-.983-1.421-3.023-6.076-4.143-6.701-2.293-1.285-4.664-2.469-7.103-3.447-7.747-3.098-11.193-13.212-2.06-18.457 3.705-2.128 7.263-4.507 10.864-6.811 1.869-1.195 4.967-2.206 5.3-3.768 1.574-7.384 3.964-59.384 5.339-62.984 2.704-7.095 4.398-14.928 10.152-20.686 4.341-4.342 8.421-8.961 12.474-13.576 1.326-1.51 2.559-3.33 1.484-5.586-1.079-2.262-3.184-2.311-5.267-2.326-7.302-.049-14.112 2.214-20.934 4.439-6.99 2.278-13.965 4.623-21.432 4.728-6.244.09-7.166-1.738-6.109-7.867.974-5.66 13.534-19.076 17.827-20.784 9.958-3.961 45.457-14.797 50.75-14.696 3.207-1.873 36.911-.978 51.602 3.271 11.778 3.406 66.244 30.272 63.145 38.91-5.333 14.863-3.774 28.234-16.16 38.043-10.209 8.085-20.746 15.694-31.801 23.076-5.188 3.464-54.062 33.096-64.868 41.005-1.759 1.287-3.076 2.922-3.368 5.192-.011.626-.023 1.252-.034 1.877-1.367 3.915 1.526 6.484 4.113 7.002 10.378 2.075 79.655 29.016 80.569 34.352 12.44 24.661-13.921 58.859-19.98 61.695-13.745 6.434-62.556 32.005-77.93 33.681-6.495-1.116-11.197.652-12.931 7.687-.431 1.75-1.323 3.481-2.36 4.964-2.462 3.514-6.144 4.634-10.231 4.338-3.889-.285-6.41-2.836-7.639-6.192zm44.254-114.576c-4.762-2.555-12.831 13.704-12.539 15.367-.045.554-1.839 13.939-2.195 16.753-.105 4.162-1.828 30.347-3.911 39.124-.749 3.154.836 4.544 4.256 3.537 5.046-1.488 10.111-3.02 15.269-4.005 3.555-.678 29.999-11.343 39.792-15.659 1.131-.498 21.757-13.006 22.795-17.995 1.071-5.151 1.892-8.921-1.603-11.172-10.512-6.77-21.908-11.714-33.633-15.996-9.381-3.421-19.353-5.192-28.231-9.954zm2.929-64.197c5.295 5.353 58.24-32.429 63.295-37.904 3.592-3.89 19.26-25.967 14.056-35.217-6.468-11.496-51.085-19.955-62.186-13.396-1.98 1.169-3.529 2.779-4.406 4.888-1.333 3.196-2.538 6.469-3.649 9.725-4.809 14.101-12.049 57.023-10.732 64.194.583 3.18.028 4.076 3.622 7.71z"/><path d="m508.293 142.863c-10.299 24.21 75.305 152.959 78.208 149.534 1.831-2.159 7.415 8.695 9.058 11.752 2.334 4.338-.673 3.964-3.656 7.279-7.874 8.75-88.859 45.714-96.223 48.572-10.988 4.259-39.972-5.151-41.261-7.814-3.008-6.23 26.588-26.469 32.27-31.348 6.812-5.85 18.63-9.508 29.358-13.415 4.953-1.804 8.852-3.409 13.483-.539.476.314.37 1.87-.012 2.307-3.856 4.335-11.016 5.679-14.109 9.974-.995 1.381-2.928 2.512-1.182 5.108 1.464 2.173 3.795.457 5.36-.715 5.181-3.881 9.494-6.536 14.191-11.521 2.203-3.05 2.433-5.815 5.167-8.726 0 0 3.466-5.833 3.47-5.833 10.075-13.677-59.725-95.626-69.954-102.821-4.101-2.885-4.51-8.972-5.672-14.033-4.862-21.177 3.001-39.32 14.168-56.125 12.007-18.067 29.617-30.171 47.928-41.282 4.934-2.993 28.775-14.726 33.15-16.907 6.222-3.094 12.437-6.271 19.169-8.046 11.584-3.061 14.766 2.813 18.693 14.104 2.966 8.527-59.233 66.643-66.88 60.493-3.787-8.163-3.281-10.505 3.806-16.749 2.593-2.286 5.331-4.402 7.965-6.642 1.217-1.034 1.491-2.398.891-3.863-.37-.906-1.204-1.046-2.015-.719-10.48 4.228-33.847 34.393-35.371 37.975z"/><path d="m257.174 135.127c1.476-.236 15.119-.948 18.936-1.154 1.905-.488 6.648 1.542 7.144 2.99 1.248 3.056 2.019 6.143 1.671 9.537-.824 8.032-13.254 6.732-14.625 6.856-9.575.88-19.195 1.494-28.692 2.922-9.02 1.356-18.457 3.746-21.39 13.725-2.57 8.744-4.931 36.65-4.672 39.342.491 5.092 36.533.595 48.861-4.008.84-.313 10.029-2.76 13.443-4.184 2.696-1.124 4.717-2.595 8.18-5.541l-.052.056c4.012-.824 5.915 2.079 8.623 6.268.694-3.991 5.293-10.555-2.914-11.228-1.55-.127-1.652-2.041-1.472-3.555.801-6.72.149-13.759 4.416-19.701 1.813-.291 13.055-11.149 13.557-13.463 2.71-12.486 26.546-63.119 25.647-66.786-1.78-7.26-1.562-7.972 5.735-10.31 1.322-.423 13.906-12.089 19.113-17.082 3.896-2.169 7.826-5.001 11.287.625-.03 1.136-2.648 9.815-3.064 10.636-3.117 7.204 7.874 13.284 9.848 14.726 1.937 1.416 4.825 1.85 5.421 4.611 1.892 8.733.94 60.549 5.593 63.846 4.098 2.903 3.398 6.068.273 8.44-3.169 2.405-9.652 68.689-12.744 70.997-1.871 1.397-3.54 3.105-5.941 2.255-2.398-.851-2.211-3.229-2.113-5.256.12-2.435.172-35.349 2.195-49.322.521-3.592.585-8.171-2.023-10.534-3.526-3.196-52.549 12.051-54.509 18.83-1.51 5.218-14.798 47.893-16.847 51.44-1.862 3.229-5.002 3.439-8.077 2.667-3.046-.764-3.154-3.607-2.84-6.038.525-4.039 5.62-21.975 5.957-28.419-6.085 5.885-12.401 10.424-18.269 11.528 0 0-50.106 14.435-60.539 10.833-4.124-1.423-13.722-12.467-13.636-16.041.397-16.535 1.455-33.068 4.196-49.344 2.121-12.597 1.648-23.594 4.836-37.948 1.102-4.963 2.439-9.931 3.409-14.951 1.742-9.04 4.581-17.316 10.291-24.991 5.203-6.994 12.805-12.913 18.667-16.565 7.44-4.636 29.235-9.732 31.898-9.899 7.265-.457 19.101-3.099 24.125 7.914.112.245-.914 9.286-2.378 13.658-1.252 3.742-4.309 5.271-7.804 3.038-9.758-6.241-20.012-4.211-30.388-2.559-9.283 1.48-16.768 4.957-19.068 15.086-.678 2.978-.989 6.046-1.757 8.998-2.784 10.699-5.724 21.357-8.534 32.052-.614 2.334-1.491 4.953.712 6.871 1.865 1.622 3.544.097 4.791-1.21 6.968-7.305 16.157-9.156 25.523-10.658zm89.469-25.863c-4.87 11.568-22.305 50.269-21.93 51.947.333 1.484 1.772 1.547 2.989 1.446 11.471-.959 39.541-4.952 39.904-8.811 1-10.612-.984-20.91-1.842-31.47-.401-4.923-7.763-15.39-8.43-16.004-3.828-3.511-8.297-2.799-10.691 2.892z"/><path d="m437.449 227.181c-1.869 2.873-14.171 5.971-13.755 1.783.584-5.934-1.922-11.557-1.124-17.408-1.057-3.945-.06-7.92.033-11.876.274-11.774-.277-23.555 1.364-35.311 1.528-10.95 5.117-52.674 6.256-58.829 1.012-5.458 1.551-11.044 1.791-16.592.176-4.098-2.342-6.057-6.414-5.042-5.952 1.48-12.126 2.592-17.663 5.072-4.016 1.798-8.208 1.714-12.193 3.061-3.691 1.247-1.581-9.805-1.252-12.939 1.561-14.843 77.358-17.588 79.872-14.43 3.458 4.341 1.633 10.789 1.011 16.112-.46 3.948-22.514-.135-27.886.992-2.997.63.521 17.808-1.101 26.26-3.694 19.206-2.486 35.546-5.914 54.802-1.641 9.211-1.875 22.058-2.785 31.36-1.071 10.954-1.577 21.982-.24 32.985z"/><path d="m151.933 2.458c.847-.158 1.693-.311 2.536-.472 7.762.011 15.52.026 23.283.041.648.434 1.865.865 1.865 1.296-.004 6.009 3.761 6.024 8.084 5.252l-.101-.022c-.075 9.196-.146 18.393-.225 27.586-.03 3.536 1.079 7.755-5.031 7.238-1.858-.158-2.109 1.704-1.981 3.165.314 3.626-1.888 3.836-4.638 3.829-10.017-.034-20.031.056-30.048.097l.03.094c-.026-3.368 1.94-7.751-4.342-7.755-1.892 0-1.858-1.858-1.862-3.281-.018-6.729-.015-13.457.004-20.185.004-1.476.191-2.719 2.06-3.154 4.035-.939 3.787-4.219 3.724-7.3 3.331-1.214 7.833-.211 6.642-6.429zm15.607 40.469c1.09-.397 6.6-.659 6.507-3.413-.263-7.874-.345-15.756-.495-23.634 1.206-5.514-.682-7.245-6.574-7.402-6.526-.173-8.066 2.015-7.59 7.998.498 6.289.109 12.65.112 18.981.008 8.081.008 8.081 8.04 7.47z"/><path d="m352.407 2.121c9.792 1.094 19.919-.252 29.723.056 2.296.071 5.151-.787 5.211 3.221.06 4.031-2.772 3.289-5.106 3.312-5.526.056-11.085.416-16.566-.094-5.551-.517-5.963 2.368-5.724 6.575.218 3.809-.936 8.387 5.582 7.256.6-.105 11.059.231 15.689.558 0 0-.247.041-.247.045.655 5.451-1.888 7.155-7.069 6.503-3.199-.4-6.496-.093-9.748-.056-1.386.015-3.514-.296-3.701 1.27-.434 3.596-1.446 7.664-.022 10.845.997 2.231 4.535 1.045 6.986 1.315 6.725.741 13.528.082 20.293.127l-.12-.041c1.248 5.466-.427 7.725-6.496 7.466-10.833-.464-21.701-.221-32.55-.071-2.963.041-9.179.387-9.108-.066-.063-11.655-.456-22.804-.519-34.455l-.03.057c3.37.678 5.728.282 6.694-1.508.719-1.334.794-3.363.82-5.842l-.105.071c1.745-.776 3.845.017 5.814-1.536.189-1.581.067-2.675.299-5.008z"/><path d="m239.342 16.064c4.151.34 7.417.093 7.601-5.62.082-2.521 7.211-7.84 8.447-8.417 7.74-.012 15.483-.023 23.227-.034 1.374 4.244.924 7.401 8.747 6.724.371 3.384-.023 5.728.048 8.586.072 2.81.177 5.474-3.925 5.185-1.892-.131-3.185.903-3.136 2.926.067 2.712-.813 4.312-3.84 4.124-1.326-.082-2.735.514-2.641 1.933.408 6.238-3.656 5.174-7.339 4.616-4.997-.757-7.372 1.045-6.488 6.282 1.049 6.203-1.06 8.036-7.784 8.099-4.147.039-8.572.008-12.865.067-.018-11.496-.037-22.986-.052-34.471zm20.697 2.966h.023c0 2.443.007 4.882-.004 7.324-.007 1.854.543 3.151 2.731 3.177 1.993.022 3.866-.15 3.791-2.727-.101-3.436 1.667-4.144 4.788-4.773 4.424-.891 1.903-5.005 2.255-7.653.255-1.911 1.142-4.548-2.049-5.571-7.631-2.442-11.531.349-11.535 8.392z"/></g><path d="m313.126 305.404c.824.718 6.469 9.498 9.144 12.238 1.091 1.51 2.428 5.515 4.151 1.623 3.439-7.759 7.174-15.524 8.759-24.006 2.925-7.278 5.847-14.561 8.773-21.84 1.236-.992 9.455-5.787 12.104-.981 1.3 3.105 2.6 6.211 3.9 9.317 3.75 12.942 8.563 25.469 14.565 37.536.674 2.191 3.289 5.495.09 6.297-3.308.828-7.92 2.589-10.891-1.326-1.472-1.937-2.161-4.469-3.206-6.736-.21-3.424-1.806-5.001-5.443-4.746-3.818.27-7.669.041-11.509.075-1.562.015-3.964.064-4.11 2.506 0 0-3.063 6.428-3.146 9.534-8.129-.045-16.258-.09-24.391-.135-3.829-6.095-7.68-12.175-11.471-18.292-1.318-2.124-2.846-2.085-5.533-2.413-3.371-.505-2.217 2.117-2.259 3.555-.176 5.814-.15 11.64-.202 17.457-3.75 1.72-7.526 1.465-11.317.139.075-16.393.139-32.786.24-49.176.015-2.18-.626-4.559 1.472-6.271 1.004-.105 2.008-.206 3.012-.311 6.541-.007 13.081-.011 19.622-.018 2.941.397 5.998.427 8.369 2.641 5.346 3.75 7.65 8.803 6.683 15.329-.64 4.342-12.892 13.22-7.406 18.004zm41.601-4.068c.1-2.726-2.075-12.7-4.473-13.164-2.57-.499-4.237 8.691-5.065 11.099-2.198 5.828 9.386 6.227 9.538 2.065zm-62.167-14.093c1.194 3.714-2.566 8.081 4.66 7.837 7.592-.258 11.692-3.05 11.519-8.748-.15-4.948-3.581-6.821-10.654-7.361-7.189-.543-4.938 4.278-5.525 8.272z" fill="#fbfbfb"/><path d="m175.204 271.812c12.044-6.66 28.579-3.742 34.723 6.129 7.241 13.175 6.477 26.332-.075 39.477-6.406 7.96-15.121 9.45-24.816 9.162-1.825-.285-11.028-3.758-12.076-5.439-.497.205-4.279-4.514-4.933-5.342-4.661-5.895-3.726-12.637-3.634-19.641.049-3.773 4.14-21.659 10.811-24.346zm22.38 40.878 1.225-1.217c4.261-3.69 3.894-15.763 3.678-17.933-1.864-18.721-18.476-17.169-23.26-9.47-3.894 6.267-3.884 20.779.42 26.871 4.125 5.84 11.823 6.589 17.937 1.749z" fill="#fbfbfb"/><path d="m417.542 280.417c-4.072-.101-8.144-.195-12.22-.303-6.308-.165-11.699 1.596-14.179 7.938-2.985 7.634-3.705 15.183 2.229 22.057 4.256 4.93 9.418 6.488 15.644 4.81 6.942-1.645 4.02-5.9 2.585-9.759l.03.034c-2.296-2.735-5.608-1.689-8.455-2.087-2.592-.359-3.484-1.374-3.409-3.899.075-2.469 1.33-3.076 3.495-3.053 5.102.06 10.208.052 15.311 0 2.142-.023 3.566.532 3.461 3.038-.318 7.709.835 15.468-.798 23.132l-.026-.161c-2.64 2.63-4.235 2.602-6.05 2.679l.045-.023c-7.043 1.626-14.565-.094-21.653.741-6.93-3.558-12.621-7.544-15.161-15.385-2.412-11.661-2.292-22.948 4.942-33.175.449-1.762 17.325-7.649 24.433-7.796 11.147-.229 11.058 1.884 9.776 11.212z" fill="#fbfbfb"/><path d="m464.38 293.225c.004 2.652.008 5.308.008 7.961-5.814 1.419-11.74.771-17.581.565-6.102-.217-4.349 3.878-4.469 6.953-.12 3.117-1.015 6.481 4.496 6.32 6.645-.191 13.381-1.004 19.996.584.004 2.967.008 5.938.008 8.905-11.83.116-23.657.228-35.487.341-.401-18.386-.573-36.772.09-55.155 11.388-.026 22.776-.056 34.168-.082 2.019 9.77 1.712 10.182-7.646 10.186-4.053.004-8.11-.049-12.16.03-1.472.03-3.514-.517-3.364 2.165.008 2.439.015 4.877.023 7.312-.307 3.885 2.645 2.656 4.581 2.851 5.769.585 11.67-1.109 17.337 1.064z" fill="#fbfbfb"/><path d="m234.401 325.888c-3.683.007-7.425.996-10.999-.697.019-18.39.034-36.776.053-55.158 11.77-.094 23.54-.184 35.314-.277.375 10.058.375 10.058-9.721 10.058-1.839 0-3.679 0-5.518 0-9.893 0-9.77-.007-9.193 9.71.157 2.66.967 3.619 3.57 3.563 5.106-.109 10.227.153 15.326-.072 4.341-.191 3.633 2.679 3.757 5.29.127 2.742-.094 4.799-3.791 4.555-4.068-.269-8.193.214-12.254-.131-4.667-.397-6.638.94-6.297 6.024.386 5.675-.124 11.418-.247 17.135z" fill="#fbfbfb"/></svg>