<svg preserveAspectRatio="none" xmlns="http://www.w3.org/2000/svg"><g fill="#1e1e1e"><path d="m481.572 154.263c-3.825 0-6.942 3.117-6.942 6.942v243.601c0 3.824 3.117 6.923 6.942 6.923h184.35c3.824 0 6.942-3.099 6.942-6.923v-.615-242.986c0-3.823-3.115-6.942-6.942-6.942zm0 1.231h184.35c3.159 0 5.711 2.552 5.711 5.711v243.601c0 3.158-2.553 5.693-5.711 5.693h-184.35c-3.158.005-5.711-2.531-5.711-5.693v-243.601c0-3.159 2.553-5.711 5.711-5.711z" transform="matrix(.965926 -.258819 .258819 .965926 -53.694794 158.139498)"/><path d="m488.939 189.56c-6.399 0-11.597 5.199-11.597 11.596v40.309.616h.616 52.866.615v-.616-51.289-.616h-.615zm0 1.231h41.269v50.059h-51.635v-39.694c0-5.732 4.633-10.365 10.366-10.365z" transform="matrix(.965926 -.258819 .258819 .965926 -38.671766 137.899754)"/><path d="m552.114 173.92v.615 52.751h-54.405-.616v.617 151.289c0 6.398 5.199 11.595 11.596 11.595h129.776c6.399 0 11.597-5.197 11.597-11.595v-193.679c0-6.398-5.198-11.596-11.597-11.596h-85.731-.615zm1.231 1.231h85.116c5.734 0 10.366 4.632 10.366 10.365v193.679c0 5.733-4.632 10.367-10.366 10.367h-129.776c-5.732 0-10.365-4.634-10.365-10.367v-150.674h54.405.616v-.616-52.751z" transform="matrix(.965926 -.258819 .258819 .965926 -53.533891 158.073687)"/><path d="m512.087 230.157c-4.193.002-7.596 3.405-7.596 7.597v91.024c.001 4.192 3.403 7.596 7.596 7.596h123.461c4.192 0 7.596-3.403 7.597-7.596v-91.024c-.001-4.192-3.405-7.595-7.597-7.597zm0 1.232 123.461-.001c3.521.001 6.356 2.847 6.366 6.366v.02 91.004c0 3.528-2.839 6.366-6.366 6.366h-123.461c-3.528 0-6.364-2.838-6.365-6.366v-91.004-.02c.01-3.519 2.843-6.365 6.365-6.365zm0 1.441c-2.72.006-4.937 2.203-4.942 4.924v91.024c.006 2.72 2.222 4.937 4.942 4.942h123.461c2.72-.005 4.938-2.222 4.944-4.942l-.001-91.024c-.005-2.721-2.222-4.918-4.943-4.924zm0 1.231h123.461c2.051.004 3.698 1.644 3.713 3.693v.02 91.004c-.006 2.058-1.655 3.709-3.713 3.713h-123.461c-2.057-.006-3.707-1.655-3.711-3.713v-91.004c0-.008 0-.014 0-.02.013-2.049 1.659-3.689 3.711-3.693z" transform="matrix(.965926 -.258819 .258819 .965926 -53.762077 158.166766)"/><path d="m573.264 245.349c-1.863 0-3.719.718-5.136 2.135l-3.327 3.308c-2.149 2.248-3.348 2.923-7.173 2.923h-4.577c-4.008 0-7.269 3.261-7.269 7.269v4.327c0 1.896-.096 3.055-.442 4.02-.345.963-.962 1.811-2.173 3.095l-3.631 3.631c-2.835 2.834-2.835 7.455 0 10.289l3.48 3.481h.02v.019c1.115.986 1.765 1.755 2.173 2.883.408 1.131.577 2.683.577 5.193v3.5c0 4.01 3.262 7.269 7.27 7.269h4.326c4.056 0 5.369.914 7.404 2.885l3.347 3.346c2.834 2.835 7.434 2.835 10.27 0l3.153-3.134c1.303-1.311 2.103-2.069 3.039-2.501.935-.434 2.098-.596 4.231-.596h4.655c4.009 0 7.269-3.261 7.269-7.269v-4.25c0-2.444.309-3.919.903-5.076.594-1.158 1.515-2.051 2.885-3.289l.019-.018 2.442-2.443c2.835-2.834 2.835-7.455 0-10.289l-2.654-2.655-.019-.019c-1.306-1.131-2.175-1.95-2.73-3.077-.558-1.125-.847-2.621-.847-5.154v-4.172c0-4.009-3.262-7.268-7.269-7.268h-4.654c-2.11 0-3.368-.279-4.404-.809-1.037-.53-1.892-1.348-3.115-2.538l-2.904-2.885c-1.418-1.416-3.273-2.134-5.135-2.134zm0 1.231c1.543 0 3.086.587 4.268 1.77l2.904 2.884v.019c1.223 1.19 2.176 2.112 3.423 2.751 1.248.637 2.744.941 4.962.941h4.654c3.343 0 6.039 2.696 6.039 6.04v4.173c0 2.626.306 4.324.982 5.692.668 1.352 1.673 2.308 2.98 3.442.012.01.027.01.039.019l2.616 2.616c2.364 2.363 2.364 6.192 0 8.556l-2.424 2.404-.019.02c-1.372 1.24-2.428 2.255-3.135 3.634-.711 1.387-1.039 3.088-1.039 5.634v4.25c0 3.344-2.694 6.04-6.038 6.04h-4.655c-2.194 0-3.566.162-4.75.71-1.183.549-2.076 1.434-3.384 2.752l-3.145 3.126c-2.365 2.365-6.174 2.365-8.539 0l-3.347-3.346h-.019v-.02c-2.107-2.039-3.985-3.23-8.25-3.23h-4.327c-3.343 0-6.038-2.695-6.038-6.04v-3.499c0-2.563-.163-4.253-.654-5.616-.489-1.354-1.312-2.329-2.481-3.366l-.019-.019-3.462-3.442c-2.364-2.364-2.364-6.194 0-8.557l3.655-3.636.019-.018c1.252-1.327 2.014-2.325 2.442-3.519.429-1.195.501-2.513.501-4.444v-4.326c0-3.344 2.694-6.038 6.038-6.038h4.577c3.996 0 5.814-.942 8.058-3.289l3.307-3.308c1.182-1.183 2.725-1.769 4.27-1.769z" transform="matrix(.965926 -.258819 .258819 .965926 -53.24555 157.954074)"/><path d="m573.268 249.235c-1.675 0-3.343.629-4.617 1.903l-2.961 2.962c-1.909 1.995-2.951 2.577-6.346 2.577h-4.058c-3.603 0-6.539 2.934-6.539 6.539v3.846c0 1.686-.081 2.712-.385 3.558-.303.845-.847 1.591-1.922 2.731l-3.231 3.231c-2.548 2.548-2.548 6.702 0 9.25l3.096 3.096v.019h.019c.99.875 1.546 1.546 1.905 2.537.358.994.518 2.365.518 4.598v3.115c0 3.604 2.935 6.538 6.539 6.538h3.846c3.597 0 4.733.809 6.539 2.559l2.981 2.98c2.547 2.55 6.683 2.55 9.23 0l2.809-2.807c1.158-1.169 1.853-1.833 2.672-2.211.819-.38 1.856-.521 3.751-.521h4.154c3.603 0 6.52-2.934 6.52-6.538v-3.77c0-2.17.266-3.463.789-4.48.521-1.017 1.338-1.823 2.557-2.924l.02-.018 2.173-2.174c2.547-2.548 2.547-6.702 0-9.25l-2.346-2.346-.019-.019-.019-.019c-1.161-1.007-1.916-1.723-2.404-2.712-.487-.988-.75-2.308-.75-4.556v-3.712c0-3.604-2.915-6.539-6.519-6.539h-4.154c-1.871 0-2.976-.247-3.885-.711-.907-.466-1.668-1.198-2.75-2.251h-.019l-2.558-2.577h-.019c-1.275-1.275-2.944-1.904-4.617-1.904zm0 1.211c1.356 0 2.71.518 3.75 1.557l2.577 2.597h.019c1.087 1.058 1.935 1.887 3.057 2.46 1.122.575 2.464.848 4.443.847h4.154c2.937 0 5.289 2.37 5.289 5.307v3.713c0 2.339.258 3.866.864 5.096.604 1.22 1.525 2.062 2.692 3.076.009.008.013.014.019.019l2.333 2.328c2.077 2.076 2.077 5.44 0 7.519l-2.154 2.135c-1.233 1.113-2.187 2.023-2.826 3.27-.64 1.247-.924 2.786-.924 5.057v3.77c0 2.939-2.35 5.308-5.288 5.308h-4.154c-1.955 0-3.184.141-4.25.634-1.067.493-1.873 1.289-3.039 2.463l-2.809 2.807c-2.078 2.078-5.422 2.078-7.499 0l-2.981-3h-.019c-1.878-1.817-3.578-2.904-7.385-2.904h-3.846c-2.938 0-5.307-2.369-5.307-5.308v-3.115c0-2.284-.155-3.793-.596-5.02-.437-1.212-1.176-2.079-2.211-3l-.02-.018-3.077-3.077c-2.078-2.077-2.078-5.441 0-7.52l3.25-3.231v-.019c1.117-1.184 1.807-2.078 2.193-3.154.385-1.076.461-2.262.461-3.981v-3.845c0-2.938 2.369-5.309 5.308-5.309h4.058c3.559 0 5.213-.876 7.212-2.962h.019l2.943-2.941c1.038-1.039 2.393-1.558 3.75-1.558h-.006z" transform="matrix(.965926 -.258819 .258819 .965926 -53.249072 157.954585)"/><path d="m573.266 263.388c-9.829 0-17.808 7.999-17.808 17.828 0 9.828 7.978 17.809 17.808 17.809 9.829 0 17.808-7.979 17.808-17.809 0-9.829-7.979-17.828-17.808-17.828zm0 1.23c9.163 0 16.577 7.433 16.577 16.598 0 9.164-7.414 16.578-16.577 16.578s-16.577-7.414-16.577-16.578 7.413-16.598 16.577-16.598z" transform="matrix(.965926 -.258819 .258819 .965926 -53.247972 157.953747)"/><path d="m573.266 269.387c-6.52 0-11.827 5.308-11.827 11.828 0 6.521 5.306 11.808 11.827 11.808 6.52 0 11.828-5.288 11.828-11.808s-5.306-11.828-11.828-11.828zm0 1.232c5.855 0 10.596 4.741 10.596 10.596s-4.741 10.578-10.596 10.578-10.597-4.723-10.597-10.578 4.742-10.596 10.597-10.596z" transform="matrix(.965926 -.258819 .258819 .965926 -53.247576 157.953821)"/><path d="m552.958 179.074c-.34.016-.603.302-.588.643.015.34.303.604.643.589h.003 84.119c3.344 0 6.04 2.695 6.04 6.038v192.021c0 3.344-2.695 6.041-6.04 6.041h-127.117c-3.344 0-6.04-2.697-6.04-6.041v-150.426c.005-.34-.267-.62-.607-.626-.339-.004-.619.268-.624.608v.018 150.426c0 4.01 3.261 7.271 7.27 7.271h127.116c4.009 0 7.27-3.263 7.27-7.271v-192.021c0-4.009-3.261-7.27-7.27-7.27h-84.118c-.018 0-.037 0-.057 0z" transform="matrix(.965926 -.258819 .258819 .965926 -53.534745 158.073137)"/><path d="m491.011 193.88c-4.009 0-7.27 3.261-7.27 7.27v39.501c-.005.34.267.618.607.624.339.005.619-.267.624-.608 0-.005 0-.011 0-.016v-39.501c0-3.344 2.696-6.038 6.039-6.038h40.309c.339.004.619-.267.624-.608.004-.34-.267-.619-.608-.624-.005 0-.011 0-.016 0z" transform="matrix(.965926 -.258819 .258819 .965926 -39.008905 138.853131)"/></g></svg>