<svg viewBox="0 0 200 40" xmlns="http://www.w3.org/2000/svg"><path d="m46.99 26.23-1.17 2.97h-6l7.89-18.75h8.82l1.32 18.75h-6.03l-.12-2.97zm4.26-10.02h-.3l-2.1 5.25h2.4zm20.82 8.19-.84 4.8h-11.4l3.3-18.75h5.7l-2.46 13.95zm12.78 0-.84 4.8h-11.4l3.3-18.75h5.7l-2.46 13.95zm16.74-.72.15-.81h-1.44l.81-4.59h6.87l-1.77 10.02c-2.44.9-4.89 1.35-7.35 1.35-2.46 0-4.237-.49-5.33-1.47-1.087-.98-1.63-2.49-1.63-4.53 0-.86.14-2.13.42-3.81.6-3.48 1.66-5.99 3.18-7.53 1.52-1.54 4.04-2.31 7.56-2.31.74 0 1.683.08 2.83.24 1.153.16 2 .34 2.54.54l-1.65 4.59c-1.5-.28-2.877-.42-4.13-.42-1.247 0-2.14.1-2.68.3-.54.2-.86.6-.96 1.2l-1.47 8.49h1.89c.68 0 1.183-.073 1.51-.22.333-.153.55-.5.65-1.04zm12.81 2.55-1.17 2.97h-6l7.89-18.75h8.82l1.32 18.75h-6.03l-.12-2.97zm4.26-10.02h-.3l-2.1 5.25h2.4zm15.93 3.9-1.95 9.09h-5.94l4.38-18.75h7.44l.54 9.54h.21l3.9-9.54h7.44l-2.22 18.75h-5.97l1.26-9.09h-.21l-3.75 9.09h-4.35l-.63-9.09zm30.39-2.34-.78 4.35h-5.7l-.39 2.28h6.99l-.84 4.8h-12.69l3.3-18.75h12.54l-1.56 4.8h-6.15l-.42 2.52zm1.95 11.1 1.68-4.95c1.68.46 3.22.69 4.62.69 1.4 0 2.53-.06 3.39-.18l.24-1.5-2.49-.24c-1.9-.18-3.247-.61-4.04-1.29-.787-.68-1.18-1.64-1.18-2.88 0-.54.06-1.14.18-1.8.46-2.56 1.293-4.32 2.5-5.28 1.213-.96 3.09-1.44 5.63-1.44 2.54 0 4.78.25 6.72.75l-1.56 4.8c-1.74-.3-3.14-.45-4.2-.45-1.06 0-1.96.05-2.7.15l-.24 1.47 2.01.21c2.04.22 3.49.707 4.35 1.46.86.747 1.29 1.75 1.29 3.01 0 1.28-.28 2.6-.84 3.96-.28.7-.587 1.287-.92 1.76-.327.467-.747.863-1.26 1.19-.507.333-.97.583-1.39.75-.42.173-.95.3-1.59.38-.94.14-2.09.21-3.45.21-2.48 0-4.73-.26-6.75-.78z" fill="#fff"/><path d="m34.759 23.013c-.119-.447-.384-.783-.791-1.009l-3.539-2.005 3.539-2.006c.407-.224.672-.562.791-1.008.12-.447.064-.872-.166-1.269l-.852-1.434c-.23-.398-.574-.657-1.031-.774-.457-.116-.888-.064-1.297.164l-3.538 1.992v-3.999c0-.451-.169-.841-.506-1.172-.336-.329-.736-.493-1.197-.493h-1.703c-.461 0-.859.164-1.197.493-.337.331-.506.721-.506 1.172v3.999l-3.539-1.993c-.408-.227-.84-.279-1.297-.163-.456.117-.799.376-1.031.774l-.851 1.434c-.231.397-.286.822-.166 1.269.121.446.383.784.791 1.008l3.54 2.006-3.54 2.005c-.408.226-.671.562-.791 1.009s-.065.871.166 1.269l.851 1.433c.232.4.574.658 1.031.776.457.116.889.062 1.297-.163l3.539-1.994v3.998c0 .452.169.841.506 1.173.338.329.736.495 1.197.495h1.703c.461 0 .861-.166 1.197-.495.337-.332.506-.721.506-1.173v-3.996l3.538 1.992c.408.225.84.28 1.297.163.457-.118.801-.376 1.031-.776l.852-1.433c.23-.398.286-.822.166-1.269z" fill="#ccc"/></svg>