<svg xmlns="http://www.w3.org/2000/svg"><g fill="#fff"><path d="m13.119 46.69c-.088 0-.18-.022-.262-.063-8.606-4.179-13.049-9.044-12.851-14.08.164-4.144 3.546-8.058 9.785-11.32 5.918-3.091 14.266-5.546 24.143-7.096.327-.051.636.173.69.504.05.327-.174.636-.505.687-20.001 3.145-32.609 9.763-32.906 17.275-.173 4.453 4.147 9.051 12.171 12.949.299.145.425.501.28.804-.107.214-.321.34-.545.34z"/><path d="m88.13 15.763c-.035 0-.066-.003-.098-.01-6.356-1.043-13.068-1.739-19.944-2.067-.334-.016-.59-.299-.574-.633.016-.331.306-.586.63-.574 6.924.331 13.68 1.034 20.084 2.083.327.054.551.366.498.694-.051.296-.306.507-.596.507z"/><path d="m69.14 56.967c-.17 0-.337 0-.507 0-.334 0-.602-.271-.599-.606 0-.33.268-.601.602-.601h.504c32.285 0 57.761-8.389 58.098-19.176.117-3.776-2.912-7.604-8.77-11.074-5.83-3.457-14.187-6.4-24.168-8.515-.324-.072-.532-.391-.463-.715.069-.328.388-.536.715-.467 10.104 2.143 18.587 5.137 24.53 8.66 6.256 3.706 9.492 7.907 9.363 12.149-.18 5.735-6.517 10.963-17.843 14.723-10.951 3.627-25.658 5.622-41.462 5.622z"/><path d="m80.066 25.557 15.927-12.139-18.707 7.469-5.259-5.474 1.676 7.582-15.927 12.142 18.71-7.472 5.256 5.474z"/><path d="m60.118 40.715c.227-1.122.646-.961 1.784-1.144l1.062-.164-.331 1.768-1.059.17c-1.141.18-1.642.486-1.456-.63zm-2.301-1.62-.825 4.444c-.227 1.213.142 1.601 1.308 1.418l6.759-1.075 1.45-7.79-6.76 1.072c-1.169.186-1.708.718-1.932 1.931zm42.906-7.011-.079.428 6.971-1.106c.551-.091 1.087-.646 1.197-1.248.11-.599-.242-1.018-.794-.929l-1.79.283-2.855.454-.725.113c-.838.136-1.755 1.088-1.925 2.005zm-48.912 20.089.057-.312c.239.019.561.114.838.07l7.248-1.135c-.271 1.444-2.181 1.806-5.093 2.269l-3.318.526-1.777 9.562 4.355-.691c10.727-1.058 14.808-6.602 16.119-13.21l13.069-2.073 2.108-11.336 1.062-.167c1.166-.186.992-.397.769.813l-1.929 10.368 9.385-1.487.129-.687c.706.312 1.535.422 2.411.283l16.229-2.571 1.513-8.146-1.053-.75c.911-1.078 1.623-2.399 1.828-3.508l.255-1.286c.81-4.802-3.621-6.078-5.641-5.757l-9.312 1.478c-1.648.261-3.466 1.409-4.787 2.934-1.223-1.21-3.11-1.68-4.207-1.507l-10.365 1.645 1.16 2.566 9.35-1.481c1.346-.218 2.25.321 2.496 1.389-.098.284-2.496 13.047-2.496 13.047l-3.356.532 1.799-9.662c.224-1.21-.141-1.601-1.307-1.415l-6.426 1.018-2.108 11.336-3.684.586 2.411-12.974-3.032-3.58-10.922 3.945 5.177-.819.082-.013-3.293 17.708c-.835 4.497-5.635 8.798-9.892 9.476l-4.355.69.659-3.542 3.315-.527c2.912-.463 6.192-3.378 6.759-6.425l.356-1.919-8.628 1.367c-1.85.294-2.855-.832-2.489-2.785l1.547-8.326c.274-1.478 1.194-2.704 2.429-3.347l.023-.22 4.329-3.331-2.53.425c-1.343.211-3.838 1.22-5.427 3.243-1.197-1.428-3.293-1.989-4.475-1.803l-9.302 1.478 1.519-8.149 6.785-1.075c3.611-.57 7.61-4.635 8.319-8.448l1.021-5.49c.709-3.823-1.976-6.823-5.587-6.249l-14.834 2.351-3.16 17.001-13.655 2.168c-1.157.183-2.282 1.324-2.505 2.547l-5.105 27.448c-.227 1.222.526 2.064 1.682 1.884l26.059-4.134 2.108-11.336 1.059-.17c1.169-.183.996-.391.769.819l-1.926 10.368zm-19.337-6.214-8.713 1.38.328-1.768 7.037-1.118 1.714-9.209-7.04 1.116.328-1.768 8.713-1.383zm-.529 2.833-.722 3.895-15.416 2.445 4.806-25.856 12.734-2.02-.658 3.542-9.051 1.437-1.38 7.437 7.371-1.169-.659 3.539-7.371 1.172-1.383 7.44zm17.71.974-3.687.583 1.797-9.659c.223-1.213-.142-1.604-1.308-1.421l-6.426 1.021-2.105 11.335-3.687.586 2.764-14.874.085-.016 12.233-1.938c1.85-.296 2.856.826 2.49 2.786zm23.96-18.24 3.605-.571-2.767 14.878-3.684.583 2.761-14.874zm22.359 7.012 1.279-6.883c.407-2.177 2.745-4.314 4.737-4.629l8.622-1.368c1.452-.23 2.461 1.393 2.165 2.981l-.423 2.212c-.296 1.592-1.919 3.278-3.368 3.508l-8.95 1.421-.126.804c-.174.914.435 1.626 1.273 1.493l9.999-1.594-.674 3.63-11.282 1.79c-1.992.312-3.653-1.188-3.252-3.365zm-53.333-19.287 1.251-6.731 4.692-.74c.615-.098.93.252.807.901l-.857 4.607c-.12.649-.587 1.122-1.201 1.223z"/><path d="m72.629 22.4-.996-3.943-.561.07-.18.97c-.126.675-.668 1.223-1.304 1.327l-3.854.611c-.637.101-1.003-.309-.877-.98l1.942-10.45c.126-.671.668-1.219 1.304-1.32l3.858-.611c.633-.101.999.305.872.977l-.248 1.329 7.793-1.238.296-1.591c.747-4.022-1.985-7.075-5.792-6.473l-7.456 1.182c-3.801.605-7.872 4.739-8.619 8.76l-2.074 11.156c-.746 4.021 1.986 7.075 5.793 6.47l2.492-.391z"/><path d="m78.153 20.02c.205-.545.343-.753.451-1.314l.264-1.418-3.101.492z"/><path d="m210.846 57.219s-25.334 0-40.712 0c-13.573 0-22.62-9.123-22.62-18.095s9.047-18.095 22.62-18.095h40.712v-9.048s-25.334 0-40.712 0c-18.098 0-31.668 11.761-31.668 27.143 0 15.381 13.57 27.142 31.668 27.142h40.712z"/><path d="m449.603 11.981h-27.142c-18.095 0-31.668 11.761-31.668 27.143 0 15.381 13.573 27.142 31.668 27.142h27.142c18.095 0 31.668-11.761 31.668-27.142 0-15.382-13.573-27.143-31.668-27.143zm0 45.238h-27.142c-13.57 0-22.621-9.123-22.621-18.095s9.051-18.095 22.621-18.095h27.142c13.573 0 22.617 9.123 22.617 18.095s-9.044 18.095-22.617 18.095z"/><path d="m260.608 11.981c-20.505 0-40.715 0-40.715 0v54.285h40.715c18.095 0 31.668-11.761 31.668-27.142 0-15.382-13.573-27.143-31.668-27.143zm0 45.238c-8.322 0-18.28 0-31.664 0v-36.19h31.664c13.573 0 22.621 9.123 22.621 18.095s-9.048 18.095-22.621 18.095z"/><path d="m373.703 39.124c4.522 0 9.048-6.533 9.048-11.058 0-9.048-4.522-16.085-13.57-16.085-9.047 0-54.288 0-54.288 0v54.288h9.051v-22.62h40.712c4.525 0 9.05 4.525 9.05 9.047v13.573h9.048s0-4.522 0-13.573c0-9.047-9.051-13.572-9.051-13.572zm-9.047-4.522c-9.048 0-40.712 0-40.712 0v-13.573h40.712c4.525 0 9.05 2.511 9.05 7.037-.003 4.525-4.525 6.536-9.05 6.536z"/><path d="m302.077 43.646c-2.499 0-4.522-2.023-4.522-4.522 0-2.496 2.026-4.522 4.522-4.522h3.394c2.499 0 4.522 2.026 4.522 4.522 0 2.499-2.023 4.522-4.522 4.522z"/><path d="m521.986 21.029v45.237h9.047v-45.237h9.051c4.519 0 13.569 0 13.569 9.047v36.19h9.048v-40.712c0-9.051-9.048-13.573-18.095-13.573-4.522 0-31.668 0-36.19 0-9.05 0-18.095 4.522-18.095 13.573v40.712h9.048s0-27.142 0-36.19c0-9.047 9.047-9.047 13.572-9.047z"/><path d="m586.244 19.623h3.366c6.028 0 10.39-3.079 10.39-10.005 0-4.45-2.82-9.618-8.903-9.618-4.452 0-14.348 0-18.797 0v6.923h13.636c1.944 0 4.125.325 4.125 2.695 0 2.247-1.734 3.079-3.738 3.079h-5.638c-10.118 0-11.344 7.223-11.344 12.86v4.456h30.158v-7.431h-20.068c-.003-3.46 3.845-2.959 6.813-2.959z"/></g></svg>