<svg viewBox="0 0 200 40" xmlns="http://www.w3.org/2000/svg"><g fill="#777" transform="matrix(.0010300214 0 0 .0010300214 .00000105223 11.84223252949)"><path d="m3960 13860v-990h495 495v-495-495h495 495v1485 1485h-990-990z"/><path d="m8910 13365v-1485h495 495v495 495h495 495v990 990h-990-990z"/><path d="m0 8910v-990h495 495v990 990h-495-495z"/><path d="m2970 9405v-495h495 495v-495-495h495 495v495 495h-495-495v495 495h-495-495z"/><path d="m10890 9405v-495h-495-495v-495-495h495 495v495 495h495 495v495 495h-495-495z"/><path d="m13860 8910v-990h495 495v990 990h-495-495z"/><path d="m2970 5940v-990h495 495v990 990h-495-495z"/><path d="m10890 5940v-990h495 495v990 990h-495-495z"/></g><path d="m0 12870v-2970h495 495v990 990h495 495v-495-495h495 495v-495-495h495 495v-495-495h-495-495v-990-990h495 495v990 990h495 495v-990-990h495 495v-1980-1980h495 495v-1485-1485h495 495v1485 1485h495 495v1980 1980h495 495v990 990h495 495v-990-990h495 495v990 990h-495-495v495 495h495 495v495 495h495 495v495 495h495 495v-990-990h495 495v2970 2970h-495-495v-495-495h-495-495v-495-495h-495-495v-495-495h-990-990v-495-495h-495-495v990 990h-495-495v990 990h-495-495v-990-990h-495-495v-990-990h-495-495v495 495h-990-990v495 495h-495-495v495 495h-495-495v495 495h-495-495zm6930-2475v-495h495 495v495 495h495 495v-990-990h-495-495v-495-495h-495-495v495 495h-495-495v990 990h495 495z" fill="#ccc" transform="matrix(.0010300214 0 0 .0010300214 .00000105223 11.84223252949)"/><path d="m20.217 28.97 1.68-4.95c1.68.46 3.22.69 4.62.69 1.4 0 2.53-.06 3.39-.18l.24-1.5-2.49-.24c-1.9-.18-3.247-.61-4.04-1.29-.787-.68-1.18-1.64-1.18-2.88 0-.54.06-1.14.18-1.8.46-2.56 1.293-4.32 2.5-5.28 1.213-.96 3.09-1.44 5.63-1.44 2.54 0 4.78.25 6.72.75l-1.56 4.8c-1.74-.3-3.14-.45-4.2-.45-1.06 0-1.96.05-2.7.15l-.24 1.47 2.01.21c2.04.22 3.49.707 4.35 1.46.86.747 1.29 1.75 1.29 3.01 0 1.28-.28 2.6-.84 3.96-.28.7-.587 1.287-.92 1.76-.327.467-.747.863-1.26 1.19-.507.333-.97.583-1.39.75-.42.173-.95.3-1.59.38-.94.14-2.09.21-3.45.21-2.48 0-4.73-.26-6.75-.78zm33.479.33h-5.7l1.14-6.63h-4.29l-1.14 6.63h-5.7l3.3-18.75h5.7l-1.17 6.63h4.29l1.17-6.63h5.7zm11.279-12.48-1.38 7.8h2.37c.78 0 1.36-.093 1.74-.28.38-.193.63-.63.75-1.31l1.38-7.8h-2.4c-.76 0-1.33.093-1.71.28-.38.193-.63.63-.75 1.31zm3.45-6.72c2.54 0 4.35.497 5.43 1.49 1.08.987 1.62 2.51 1.62 4.57 0 2.06-.326 4.217-.98 6.47-.646 2.247-1.676 3.993-3.09 5.24-1.406 1.253-3.466 1.88-6.18 1.88-2.706 0-4.6-.493-5.68-1.48-1.08-.993-1.62-2.52-1.62-4.58 0-.98.14-2.273.42-3.88.28-1.613.65-3.003 1.11-4.17.46-1.173 1.08-2.19 1.86-3.05 1.5-1.66 3.87-2.49 7.11-2.49zm15.45 6.72-1.38 7.8h2.37c.78 0 1.36-.093 1.74-.28.38-.193.63-.63.75-1.31l1.38-7.8h-2.4c-.76 0-1.33.093-1.71.28-.38.193-.63.63-.75 1.31zm3.45-6.72c2.54 0 4.35.497 5.43 1.49 1.08.987 1.62 2.51 1.62 4.57 0 2.06-.327 4.217-.98 6.47-.647 2.247-1.677 3.993-3.09 5.24-1.407 1.253-3.467 1.88-6.18 1.88-2.707 0-4.6-.493-5.68-1.48-1.08-.993-1.62-2.52-1.62-4.58 0-.98.14-2.273.42-3.88.28-1.613.65-3.003 1.11-4.17.46-1.173 1.08-2.19 1.86-3.05 1.5-1.66 3.87-2.49 7.11-2.49zm23.879.45-.87 4.8h-4.14l-2.43 13.95h-5.7l2.43-13.95h-4.11l.87-4.8zm7.169-.12-.33 1.92c-.02.08-.97 2.73-2.85 7.95h-2.85v-6.93c0-.72.1-1.64.3-2.76.08-.54.48-.81 1.2-.81h3.6c.62 0 .93.21.93.63zm13.2 7.44-.78 4.35h-5.7l-.39 2.28h6.99l-.84 4.8h-12.69l3.3-18.75h12.54l-1.56 4.8h-6.15l-.42 2.52zm9.838 2.34-1.949 9.09h-5.94l4.38-18.75h7.44l.539 9.54h.211l3.9-9.54h7.44l-2.22 18.75h-5.97l1.259-9.09h-.209l-3.75 9.09h-4.351l-.629-9.09zm25.86-9.66h5.7l-2.491 14.07h2.041c.7 0 1.2-.093 1.5-.28.299-.193.51-.63.63-1.31l2.22-12.48h5.699l-1.859 10.53c-.3 1.7-.647 3.07-1.04 4.11-.387 1.04-.93 1.92-1.631 2.64-.699.72-1.566 1.22-2.599 1.5-1.027.28-2.33.42-3.91.42-2.42 0-4.117-.367-5.09-1.1-.967-.727-1.45-1.98-1.45-3.76 0-.98.14-2.25.42-3.81zm25.528 14.22h-3.72l-.78 4.53h-5.699l3.3-18.75h9c3.399 0 5.1 1.58 5.1 4.74 0 1.5-.21 2.853-.63 4.06-.42 1.213-.883 2.177-1.39 2.89-.513.707-1.216 1.307-2.11 1.8-.886.487-1.91.73-3.071.73zm-.75-9.42h-1.319l-.81 4.62h1.32c.68 0 1.194-.073 1.54-.22.354-.153.579-.5.68-1.04.26-1.48.39-2.29.39-2.43 0-.38-.15-.63-.45-.75-.3-.12-.75-.18-1.351-.18z" fill="#fff"/></svg>