<svg preserveAspectRatio="none" xmlns="http://www.w3.org/2000/svg"><g fill="#1e1e1e"><path d="m354.9 249.853c.432-.688 2.036-3.333 2.925-4.59 2.301-3.458 6.237-5.737 10.702-5.737h18.668v.966h-18.668c-4.132-.001-7.767 2.106-9.906 5.316-.857 1.214-2.467 3.862-2.901 4.557v.001z" transform="matrix(.965926 -.258819 .258819 .965926 -50.753583 104.380576)"/><path d="m396.084 351.494c-4.465 0-8.4-2.278-10.693-5.725-.897-1.268-2.502-3.913-2.932-4.602l.819-.512c.434.696 2.043 3.344 2.908 4.568 2.13 3.199 5.766 5.306 9.898 5.305l18.67.001v.966z" transform="matrix(.965926 -.258819 .258819 .965926 -75.988532 114.958998)"/><path d="m592.937 189.67c-2.13-3.199-5.765-5.306-9.898-5.306h-18.668v-.966h18.668c4.467 0 8.402 2.28 10.695 5.726.896 1.268 2.502 3.913 2.932 4.601v.001l-.818.512c-.436-.696-2.045-3.344-2.911-4.568z" transform="matrix(.965926 -.258819 .258819 .965926 -29.089002 156.683012)"/><path d="m408.642 310.764c-.84 0-1.522-.68-1.522-1.521v-90.649c0-.841.682-1.521 1.522-1.521h159.49c.84 0 1.52.681 1.521 1.521v90.648h-.001c0 .841-.681 1.521-1.52 1.521h-159.49zm-.556-92.17v90.648c.001.308.248.555.556.555l159.49.001c.306-.001.554-.249.555-.556v-90.648c-.001-.307-.25-.555-.555-.556h-159.49c-.307.001-.555.249-.556.556z" transform="matrix(.965926 -.258819 .258819 .965926 -51.665799 135.39664)"/><path d="m390.255 262.584c-1.096 0-1.984-.889-1.984-1.985s.888-1.984 1.984-1.984h3.264c1.096 0 1.984.888 1.984 1.984s-.888 1.985-1.984 1.985z" transform="matrix(.965926 -.258819 .258819 .965926 -54.094917 110.307625)"/><path d="m568.893 214.718c-1.096 0-1.984-.889-1.984-1.985s.888-1.984 1.984-1.984h3.264c1.096 0 1.984.888 1.984 1.984s-.888 1.985-1.984 1.985z" transform="matrix(.965926 -.258819 .258819 .965926 -35.619321 154.911589)"/><path d="m476.77 324.332c-.505 0-.915-.41-.915-.914 0-.507.41-.916.915-.916h2.151c.505 0 .915.41.915.916 0 .504-.409.914-.915.914z" transform="matrix(.965926 -.258819 .258819 .965926 -67.424326 134.695805)"/><path d="m382.876 324.663c.001-5.686 4.609-10.294 10.294-10.295 5.685.001 10.293 4.609 10.294 10.295-.001 5.684-4.609 10.293-10.294 10.295-5.685-.002-10.293-4.611-10.294-10.295zm.967 0c.009 5.151 4.176 9.318 9.327 9.327 5.151-.009 9.318-4.176 9.327-9.327-.009-5.152-4.176-9.32-9.327-9.328-5.151.008-9.318 4.176-9.327 9.328z" transform="matrix(.965926 -.258819 .258819 .965926 -70.632072 112.8226)"/><path d="m368.992 322.007c0 .839-.681 1.52-1.52 1.52-.84 0-1.521-.681-1.521-1.52 0-.841.681-1.521 1.521-1.521.839 0 1.52.68 1.52 1.521z" transform="matrix(.965926 -.258819 .258819 .965926 -70.820045 106.080565)"/><g transform="matrix(.466454 -.124986 .124986 .466454 327.490723 219.121384)"><path d="m71.049 163.092c-1.24 0-2.392-.439-3.282-1.172l-.043-.035-9.49-9.753c-.796-.907-1.281-2.106-1.281-3.41v-16.369c0-.866.351-1.659.942-2.258.361-.345.893-.731 1.599-.908 3.708-1.014 7.604-1.381 11.555-1.381h.152c3.954 0 7.85.368 11.547 1.377.714.181 1.248.566 1.638.94.563.571.911 1.365.911 2.229v16.369c0 1.302-.482 2.502-1.315 3.451l-9.451 9.708-.045.039c-.893.731-2.042 1.172-3.284 1.172v-1-1c.757-.002 1.44-.26 1.988-.698l9.323-9.578c.491-.561.784-1.287.784-2.094v-16.369c0-.329-.125-.612-.306-.796-.252-.228-.404-.341-.759-.439-3.479-.953-7.201-1.312-11.03-1.312h-.152c-3.829 0-7.548.359-11.038 1.313-.347.097-.499.208-.718.407-.211.217-.339.501-.339.827v16.369c0 .805.296 1.534.75 2.055l9.369 9.626c.544.432 1.227.689 1.977.689h.152v1 1h-.154z"/><path d="m59.5 208.407c-.712-.182-1.243-.565-1.639-.941-.558-.569-.908-1.362-.908-2.228v-16.369c0-1.303.485-2.502 1.317-3.45l9.451-9.709.048-.039c.89-.729 2.04-1.17 3.28-1.17v1.001 1c-.751 0-1.433.256-1.978.688l-9.331 9.586c-.492.562-.787 1.288-.787 2.094v16.369c0 .326.128.611.305.797.252.228.407.341.762.442 3.48.949 7.199 1.309 11.028 1.309h.153c3.828 0 7.548-.359 11.037-1.312.347-.099.502-.212.719-.406.212-.219.338-.504.34-.83v-16.369c-.002-.806-.295-1.532-.75-2.053l-9.369-9.628c-.543-.432-1.229-.688-1.977-.688h-.153v-1-.999l.153-.002c1.241 0 2.391.442 3.283 1.17l.043.035 9.489 9.752c.797.909 1.282 2.108 1.282 3.411l-.002 16.369c.002.865-.349 1.658-.941 2.261-.361.345-.892.727-1.598.906-3.706 1.014-7.604 1.379-11.555 1.379l-.153.002c-3.952-.001-7.849-.366-11.549-1.378z"/><path d="m91.199 182.966c-1.303.002-2.5-.481-3.451-1.313l-9.714-9.459-.034-.039c-.73-.891-1.171-2.042-1.171-3.282v-.152c0-1.241.44-2.391 1.171-3.282l.033-.041 9.756-9.493c.909-.796 2.107-1.28 3.41-1.28h16.37c.866 0 1.658.35 2.261.942.344.362.727.893.903 1.597 1.015 3.708 1.383 7.604 1.383 11.557v.152c0 3.953-.368 7.848-1.378 11.545-.181.715-.566 1.247-.938 1.639-.574.565-1.369.911-2.23.911zm-2.095-2.782c.562.488 1.288.782 2.095.782l16.37.002c.329-.002.613-.128.796-.305.228-.255.339-.405.44-.764.951-3.479 1.311-7.197 1.311-11.027v-.152c0-3.83-.36-7.548-1.313-11.038-.099-.348-.21-.5-.405-.72-.216-.209-.504-.337-.829-.337h-16.37c-.805 0-1.531.294-2.056.749l-9.625 9.369c-.433.545-.687 1.225-.688 1.978v.152c.002.752.255 1.434.688 1.977z"/><path d="m34.683 182.966c-.864.002-1.656-.346-2.261-.94-.342-.36-.727-.893-.903-1.597-1.015-3.708-1.383-7.604-1.383-11.556v-.152c0-3.953.368-7.848 1.378-11.546.181-.716.566-1.247.94-1.64.57-.562 1.364-.91 2.229-.91h16.37c1.303 0 2.5.483 3.449 1.315l9.713 9.456.037.043c.73.891 1.171 2.04 1.169 3.282l.002.152c0 1.241-.44 2.391-1.171 3.282l-.035.041-9.754 9.492c-.91.795-2.107 1.28-3.41 1.28zm-.799-26.035c-.227.251-.337.403-.438.759-.951 3.482-1.311 7.2-1.311 11.03v.152c0 3.83.358 7.547 1.313 11.038.097.346.209.5.405.72.216.21.502.336.829.336h16.37c.805 0 1.531-.294 2.054-.747l9.618-9.36c.437-.545.695-1.231.697-1.986v-.152c-.002-.75-.258-1.433-.691-1.98l-9.585-9.332c-.562-.49-1.288-.784-2.093-.784h-16.37c-.327 0-.611.127-.798.306z"/></g><path d="m359.769 288.968c.001-12.148 9.849-21.995 21.996-21.995 12.148 0 21.995 9.847 21.995 21.995 0 12.147-9.848 21.995-21.995 21.996-12.147-.001-21.995-9.849-21.996-21.996zm7.126-14.871c-3.806 3.808-6.159 9.062-6.159 14.87 0 5.809 2.353 11.063 6.159 14.87 3.807 3.807 9.062 6.16 14.87 6.16 5.808 0 11.062-2.353 14.87-6.16 3.806-3.807 6.159-9.061 6.159-14.87 0-5.808-2.353-11.063-6.159-14.87-3.808-3.806-9.062-6.158-14.87-6.159-5.808.001-11.063 2.353-14.87 6.159z" transform="matrix(.965926 -.258819 .258819 .965926 -61.782176 108.654132)"/><g transform="matrix(.466454 -.124986 .124986 .466454 327.490723 219.121384)"><path d="m490.574 185.438 1.812-.844c3.477 7.489 9.425 13.603 16.792 17.281h.002l-.896 1.79c-7.774-3.884-14.045-10.327-17.71-18.227z"/><path d="m540.75 202.306c7.43-3.46 13.503-9.361 17.18-16.671v.003l1.785.896c-3.879 7.711-10.279 13.931-18.119 17.585z"/><path d="m541.691 136.767h.002l.894-1.788c7.785 3.903 14.056 10.371 17.705 18.301l-1.818.835c-3.456-7.513-9.407-13.651-16.783-17.348z"/><path d="m491.033 152.227c3.895-7.824 10.377-14.125 18.332-17.792l.835 1.816c-7.537 3.473-13.687 9.454-17.377 16.868z"/></g><path d="m581.496 216.754c0-4.583 3.713-8.297 8.296-8.297 4.582 0 8.296 3.714 8.297 8.297-.001 4.583-3.715 8.296-8.297 8.296-4.584 0-8.296-3.713-8.296-8.296zm.966 0c.007 4.049 3.281 7.323 7.33 7.33 4.048-.007 7.324-3.281 7.33-7.33-.006-4.049-3.282-7.324-7.33-7.331-4.049.007-7.323 3.282-7.33 7.331z" transform="matrix(.965926 -.258819 .258819 .965926 -36.003223 160.034994)"/><path d="m601.107 228.488c.001-4.582 3.715-8.297 8.297-8.297 4.583 0 8.297 3.714 8.298 8.297-.001 4.582-3.715 8.296-8.298 8.297-4.581-.001-8.296-3.715-8.297-8.297zm.967 0c.008 4.049 3.283 7.323 7.33 7.331 4.05-.008 7.324-3.282 7.331-7.331-.007-4.048-3.281-7.324-7.331-7.331-4.047.007-7.322 3.283-7.33 7.331z" transform="matrix(.965926 -.258819 .258819 .965926 -38.372106 165.511183)"/><path d="m589.374 248.101c0-4.583 3.713-8.298 8.297-8.298 4.582 0 8.296 3.715 8.296 8.298h.001c-.001 4.581-3.715 8.296-8.297 8.296-4.584 0-8.297-3.715-8.297-8.296zm.966 0c.007 4.049 3.282 7.323 7.331 7.33 4.049-.007 7.323-3.281 7.33-7.33h.001c-.008-4.05-3.282-7.324-7.331-7.331-4.049.007-7.324 3.281-7.331 7.331z" transform="matrix(.965926 -.258819 .258819 .965926 -43.847827 163.142206)"/><path d="m569.763 236.367c0-4.583 3.713-8.297 8.296-8.297 4.582 0 8.296 3.714 8.296 8.297h.001c-.001 4.581-3.715 8.296-8.297 8.297-4.583-.001-8.296-3.716-8.296-8.297zm.966 0c.006 4.048 3.281 7.323 7.33 7.33 4.047-.007 7.323-3.282 7.33-7.33-.007-4.049-3.283-7.324-7.33-7.331-4.05.007-7.325 3.282-7.33 7.331z" transform="matrix(.965926 -.258819 .258819 .965926 -41.479403 157.666944)"/><path d="m444.985 335.733v-.483-.484h2.499c1.535-.002 2.778-1.244 2.781-2.781-.003-1.536-1.246-2.778-2.781-2.78h-2.499c-1.535.002-2.777 1.244-2.781 2.78.003 1.536 1.247 2.779 2.781 2.781v.484.483c-2.069-.001-3.746-1.678-3.747-3.748.001-2.07 1.679-3.746 3.747-3.746h2.499c2.07 0 3.746 1.676 3.747 3.746-.001 2.069-1.677 3.747-3.747 3.748z" transform="matrix(.965926 -.258819 .258819 .965926 -70.71931 126.806326)"/><path d="m462.541 331.029v-.484-.483h2.498c1.535-.002 2.779-1.244 2.781-2.781-.002-1.536-1.246-2.778-2.781-2.78h-2.498c-1.536.002-2.778 1.244-2.782 2.78.003 1.537 1.246 2.779 2.782 2.781v.483.484c-2.07-.001-3.747-1.679-3.747-3.748 0-2.07 1.678-3.746 3.747-3.746h2.498c2.07 0 3.747 1.676 3.747 3.746 0 2.069-1.678 3.747-3.747 3.748z" transform="matrix(.965926 -.258819 .258819 .965926 -68.903511 131.189429)"/><path d="m542.076 309.717v-.483-.483h2.499c1.534-.002 2.777-1.245 2.78-2.781-.003-1.536-1.244-2.778-2.78-2.78h-2.499c-1.536.002-2.779 1.244-2.781 2.78.002 1.535 1.246 2.779 2.781 2.781v.483.483c-2.069 0-3.747-1.677-3.747-3.747 0-2.07 1.679-3.747 3.747-3.747h2.499c2.068 0 3.746 1.677 3.747 3.747-.001 2.069-1.678 3.747-3.747 3.747z" transform="matrix(.965926 -.258819 .258819 .965926 -60.677435 151.048435)"/><path d="m530.612 312.789v-.483-.483h2.498c1.536-.003 2.779-1.246 2.781-2.782-.002-1.535-1.245-2.778-2.781-2.78h-2.498c-1.537.002-2.779 1.245-2.782 2.78.003 1.537 1.245 2.779 2.782 2.782v.483.483c-2.07-.001-3.748-1.678-3.748-3.748 0-2.069 1.678-3.746 3.748-3.746h2.498c2.068 0 3.747 1.677 3.747 3.746 0 2.071-1.679 3.747-3.747 3.748z" transform="matrix(.965926 -.25882 .25882 .965926 -61.863375 148.186437)"/><circle cx="560.803" cy="255.362" r="3.149" transform="matrix(.466454 -.124986 .124987 .466456 327.49057 219.120789)"/><circle cx="34.889" cy="255.408" r="3.149" transform="matrix(.466453 -.124986 .124986 .466452 327.490906 219.121933)"/><circle cx="570.738" cy="229.094" r="3.149" transform="matrix(.466454 -.124986 .124987 .466456 327.49057 219.12085)"/><path d="m399.062 325.476c-1.684-.004-3.101-.613-3.944-1.458-1.049-1.063-2.311-2.558-3.393-3.868-1.073-1.3-2.005-2.448-2.26-2.681-1.43-1.344-3.321-2.193-5.423-2.193s-13.667.037-18.026.037c-.59 0-1.187-.21-1.586-.689-8.94-10.868-14.704-31.5-14.718-45.18v-3.945c.014-13.68 5.778-34.312 14.718-45.18.398-.478.996-.689 1.586-.69 4.359 0 18.026.039 18.025.039 2.103-.001 3.994-.85 5.424-2.194.255-.234 1.187-1.382 2.26-2.681 1.082-1.309 2.344-2.806 3.393-3.869.843-.845 2.26-1.454 3.944-1.458h180.798c1.684.004 3.102.612 3.945 1.458 1.05 1.063 2.31 2.559 3.392 3.869 1.073 1.299 2.005 2.447 2.26 2.681 1.429 1.344 3.321 2.193 5.424 2.194s13.668-.039 18.027-.039c.588.001 1.186.212 1.583.69 8.942 10.868 14.705 31.5 14.719 45.18v3.945c-.014 13.68-5.778 34.312-14.719 45.18-.397.479-.995.689-1.583.689-4.36 0-18.027-.037-18.026-.037-2.104 0-3.996.849-5.425 2.193-.255.233-1.187 1.38-2.26 2.681-1.082 1.31-2.342 2.805-3.393 3.868-.842.845-2.26 1.454-3.944 1.458zm180.798-.966c1.444.003 2.645-.546 3.258-1.171 1.005-1.017 2.259-2.502 3.335-3.804 1.087-1.312 1.959-2.404 2.342-2.77 1.59-1.495 3.719-2.455 6.089-2.455.017 0 13.667.038 18.024.038.363 0 .676-.135.838-.338 8.728-10.556 14.512-31.145 14.498-44.565v-3.945c.014-13.421-5.77-34.009-14.498-44.566-.162-.202-.475-.339-.838-.338-4.356 0-18.007.038-18.026.038-2.368.001-4.497-.959-6.087-2.454-.383-.367-1.255-1.459-2.342-2.77-1.076-1.302-2.33-2.788-3.335-3.805-.614-.626-1.814-1.174-3.258-1.171h-180.798c-1.444-.003-2.644.545-3.256 1.171-1.006 1.017-2.26 2.503-3.336 3.805-1.087 1.311-1.959 2.404-2.342 2.77-1.59 1.495-3.72 2.455-6.088 2.454-.018 0-13.668-.038-18.024-.038-.363-.001-.677.136-.84.338-8.727 10.557-14.511 31.145-14.497 44.566v3.945c-.014 13.42 5.77 34.009 14.497 44.565.162.203.475.338.84.337 4.356.001 18.006-.037 18.025-.037 2.368 0 4.497.96 6.087 2.455.383.367 1.254 1.459 2.342 2.77 1.076 1.302 2.33 2.787 3.336 3.804.611.625 1.812 1.174 3.256 1.171z" transform="matrix(.965926 -.258819 .258819 .965926 -52.548641 135.795794)"/><path d="m422.563 341.822v-.001-.482-.483h8.382c2.047-.004 3.704-1.661 3.709-3.709-.004-2.048-1.661-3.705-3.709-3.708l-8.382-.001c-2.048.004-3.705 1.661-3.708 3.709.003 2.048 1.66 3.705 3.708 3.709v.483.482c-2.581 0-4.674-2.092-4.674-4.674 0-2.581 2.093-4.674 4.674-4.674h8.382c2.582 0 4.674 2.093 4.675 4.674-.001 2.582-2.093 4.674-4.675 4.675z" transform="matrix(.965926 -.258819 .258819 .965926 -72.71893 121.94032)"/><path d="m574.181 301.196v-.482-.483h8.383c2.047-.005 3.705-1.661 3.709-3.709-.004-2.048-1.661-3.705-3.709-3.709h-8.383c-2.046.004-3.704 1.661-3.707 3.709.003 2.047 1.66 3.704 3.707 3.709v.483.482c-2.581 0-4.673-2.093-4.673-4.674 0-2.582 2.092-4.675 4.673-4.675h8.383c2.581 0 4.674 2.092 4.675 4.675-.001 2.581-2.094 4.674-4.675 4.674z" transform="matrix(.965926 -.258819 .258819 .965926 -57.037754 159.797576)"/><path d="m556.269 305.996v-.484-.483l8.382.001c2.047-.004 3.704-1.661 3.708-3.709-.004-2.047-1.661-3.705-3.708-3.708h-8.382c-2.049.003-3.705 1.661-3.709 3.708.004 2.048 1.66 3.705 3.709 3.708v.483.484c-2.582 0-4.675-2.093-4.675-4.675 0-2.582 2.093-4.674 4.675-4.674h8.382c2.581 0 4.673 2.092 4.674 4.674-.001 2.582-2.093 4.675-4.674 4.675z" transform="matrix(.965926 -.258819 .258819 .965926 -58.890492 155.324641)"/></g></svg>