<svg xmlns="http://www.w3.org/2000/svg"><g fill="#fff"><path d="m109.269 170.297c5.643 0 9.027-1.149 9.027-6.513 0-3.972-2.46-6.096-8.103-6.096h-7.797v12.609zm-9.849 16.569v-31.734h11.595c8.205 0 10.362 4.104 10.362 8.865 0 7.089-6.363 8.853-12.21 8.853h-6.771v14.016z"/><path d="m125.376 186.866h2.565v-31.734h-2.565z"/><path d="m149.487 174.872c-2.256.924-4.617 1.107-6.873 1.284-4.002.306-6.462 1.764-6.462 4.842 0 2.79 2.463 4.104 4.926 4.104 4.206 0 8.412-2.031 8.412-6.66zm-4.512-1.314c1.023-.093 2.667-.357 3.486-.759.924-.39 1.026-1.581 1.026-2.37 0-2.688-1.641-4.626-5.745-4.626-3.591 0-6.153 1.188-6.669 5.151h-2.667c.411-5.379 4.41-7.542 9.438-7.542 4.617 0 8.208 1.815 8.208 7.098v12.426c0 2.073.615 2.556 2.772 1.764v2.073c-.309.135-1.233.441-2.052.441-.411 0-.72-.039-1.128-.132-1.848-.255-2.157-1.806-2.157-3.399-2.154 2.475-5.232 3.798-8.514 3.798-4.002 0-7.593-2.166-7.593-6.564 0-3.828 2.667-6.168 8.001-6.876z"/><path d="m158.619 193.073c.717.132 1.434.276 2.154.276 3.078 0 3.489-4.326 4.515-6.309l-8.928-23.001h2.976l7.389 19.617 7.284-19.617h2.871l-8.514 22.518c-2.157 5.724-3.591 9.297-7.287 9.297-.921 0-1.743-.132-2.46-.306z"/><path d="m183.138 177.386c.516 5.685 4.209 7.755 9.132 7.755 5.643 0 8.004-3.075 8.004-6.564 0-9.831-19.29-3.303-19.29-15.768 0-4.413 3.591-8.508 10.773-8.508 7.08 0 10.671 4.308 10.569 9.483h-2.772c0-4.854-3.795-6.927-7.797-6.927-6.156 0-8.31 3.744-7.797 7.008 1.332 8.187 19.392 2.286 19.392 14.577 0 5.829-4.311 9.258-11.595 9.258-6.669 0-11.595-3.429-11.595-10.314z"/><path d="m217.101 186.95c-.615.132-1.743.534-3.078.534-2.565 0-4.002-1.149-4.002-4.545v-16.704h-3.285v-2.196h3.285v-6.351h2.667v6.351h4.209v2.196h-4.209v15.648c0 2.256 0 3.219 2.256 3.219.72 0 1.437-.132 2.157-.306z"/><path d="m236.901 174.872c-2.256.924-4.512 1.107-6.771 1.284-4.002.306-6.465 1.764-6.465 4.842 0 2.79 2.463 4.104 4.929 4.104 4.203 0 8.307-2.031 8.307-6.66zm-4.413-1.314c.924-.093 2.568-.357 3.492-.759.819-.39.921-1.581.921-2.37 0-2.688-1.539-4.626-5.643-4.626-3.693 0-6.156 1.188-6.669 5.151h-2.667c.411-5.379 4.41-7.542 9.336-7.542 4.617 0 8.31 1.815 8.31 7.098v12.426c0 2.073.516 2.556 2.772 1.764v2.073c-.411.135-1.335.441-2.052.441-.411 0-.819-.039-1.233-.132-1.743-.255-2.052-1.806-2.052-3.399-2.256 2.475-5.229 3.798-8.514 3.798-4.002 0-7.695-2.166-7.695-6.564 0-3.828 2.667-6.168 8.004-6.876z"/><path d="m255.165 186.95c-.615.132-1.746.534-3.078.534-2.565 0-4.002-1.149-4.002-4.545v-16.704h-3.18v-2.196h3.18v-6.351h2.67v6.351h4.206v2.196h-4.206v15.648c0 2.256 0 3.219 2.256 3.219.717 0 1.437-.132 2.154-.306z"/><path d="m263.067 186.866h-2.568v-22.827h2.568zm-2.772-27.816v-3.918h2.976v3.918z"/><path d="m278.661 165.803c-5.541 0-7.695 4.707-7.695 9.642 0 5.685 2.667 9.657 7.695 9.657 5.538 0 7.797-4.761 7.797-9.657 0-5.376-2.154-9.642-7.797-9.642zm-10.569 9.642c0-6.648 3.591-12.033 10.569-12.033 7.179 0 10.668 5.334 10.668 12.033 0 7.236-4.206 12.036-10.668 12.036-5.745-.09-10.569-4.053-10.569-12.036"/><path d="m295.692 186.866h-2.667v-22.827h2.667v3.168c2.052-2.244 4.206-3.795 7.284-3.795 2.871 0 5.337.882 6.978 3.264 1.125 1.641 1.23 3.354 1.23 5.241v14.949h-2.67v-14.898c0-4.092-1.743-6.165-5.949-6.165-3.285 0-5.541 2.112-6.363 4.44-.513 1.458-.513 2.742-.513 4.332v12.291"/><path d="m321.546 179.45c-.309-.144-.717-.216-1.332-.216h-.822v2.112h.924c.411 0 .819-.039 1.026-.12.408-.165.615-.471.615-.924 0-.423-.207-.711-.411-.852zm-1.128-.936c.72 0 1.233.063 1.641.204.615.258.822.75.822 1.5 0 .522-.105.903-.513 1.149-.207.132-.513.228-.819.288.408.069.717.276.921.585.204.318.309.627.309.924v.429c0 .144 0 .297.102.444v.315.072h-.924c0-.021 0-.042 0-.051 0-.024 0-.054 0-.084l-.102-.183v-.471c0-.699-.204-1.152-.513-1.365-.204-.135-.615-.195-1.128-.195h-.819v2.349h-1.026v-5.91zm-3.18-.306c-.924.903-1.335 2.001-1.335 3.27 0 1.305.411 2.403 1.335 3.306.924.912 1.95 1.365 3.285 1.365s2.358-.453 3.285-1.365c.921-.903 1.335-2.001 1.335-3.306 0-1.269-.414-2.367-1.335-3.27-.924-.903-1.95-1.356-3.285-1.356s-2.361.45-3.285 1.356zm7.08 7.077c-1.026 1.047-2.358 1.581-3.795 1.581-1.44 0-2.772-.534-3.795-1.581-1.029-1.044-1.539-2.316-1.539-3.807 0-1.467.51-2.739 1.539-3.774 1.023-1.056 2.355-1.569 3.795-1.569 1.434 0 2.769.51 3.795 1.569 1.026 1.026 1.539 2.298 1.539 3.774 0 1.491-.516 2.763-1.539 3.807"/><path d="m343.914 170.297c5.643 0 9.129-1.149 9.129-6.513 0-3.972-2.562-6.096-8.205-6.096h-7.8v12.609zm-9.849 16.569v-31.734h11.595c8.208 0 10.359 4.104 10.359 8.865 0 7.089-6.258 8.853-12.207 8.853h-6.774v14.016z"/><path d="m367.818 165.803c-5.538 0-7.794 4.707-7.794 9.642 0 5.685 2.769 9.657 7.794 9.657 5.541 0 7.8-4.761 7.8-9.657-.102-5.376-2.157-9.642-7.8-9.642zm-10.566 9.642c0-6.648 3.489-12.033 10.566-12.033 7.185 0 10.569 5.334 10.569 12.033 0 7.236-4.206 12.036-10.569 12.036-5.847-.09-10.566-4.053-10.566-12.036"/><path d="m384.954 186.866h-2.667v-22.827h2.667v4.281h.105c1.434-3.666 3.591-4.908 7.386-4.908v2.877c-5.952-.135-7.488 4.266-7.488 9.375v11.202"/><path d="m407.22 186.95c-.618.132-1.746.534-2.979.534-2.667 0-4.104-1.149-4.104-4.545v-16.704h-3.18v-2.196h3.18v-6.351h2.667v6.351h4.311v2.196h-4.311v15.648c0 2.256.105 3.219 2.259 3.219.72 0 1.539-.132 2.154-.306v2.154"/><path d="m426.198 174.872c-2.256.924-4.515 1.107-6.771 1.284-4.002.306-6.462 1.764-6.462 4.842 0 2.79 2.463 4.104 4.923 4.104 4.209 0 8.313-2.031 8.313-6.66v-3.57zm-4.413-1.314c.921-.093 2.565-.357 3.489-.759.822-.39.924-1.581.924-2.37 0-2.688-1.539-4.626-5.643-4.626-3.69 0-6.156 1.188-6.669 5.151h-2.667c.408-5.379 4.413-7.542 9.336-7.542 4.617 0 8.313 1.815 8.313 7.098v12.426c0 2.073.51 2.556 2.769 1.764v2.073c-.411.135-1.335.441-2.052.441-.411 0-.822-.039-1.23-.132-1.743-.255-2.052-1.806-2.052-3.399-2.259 2.475-5.232 3.798-8.52 3.798-3.999 0-7.695-2.166-7.695-6.564 0-3.828 2.667-6.168 8.004-6.876z"/><path d="m447.129 185.102c4.413 0 7.695-3.222 7.8-8.946.201-5.727-2.361-10.353-7.8-10.353-4.821 0-7.695 4.401-7.695 9.552-.003 5.52 2.67 9.747 7.695 9.747zm-7.698 1.764h-2.667v-31.734h2.667v12.558c1.647-2.772 4.926-4.278 8.109-4.278 6.972 0 10.158 5.694 10.158 12.084 0 6.732-2.874 11.985-10.26 11.985-2.976 0-6.36-1.632-8.001-4.626v4.011"/><path d="m463.545 186.866h2.667v-31.734h-2.667z"/><path d="m489.195 173.858c0-4.443-2.463-8.055-7.182-8.055s-7.182 3.744-7.695 8.055zm-14.877 2.214c0 4.926 2.667 9.03 7.695 9.03 3.384 0 6.156-1.899 6.873-5.241h2.976c-1.335 4.305-4.002 7.623-9.849 7.623-7.287 0-10.467-5.202-10.467-11.94 0-6.66 3.9-12.132 10.467-12.132 6.258 0 10.053 4.464 10.053 12.66z"/><path d="m0 .002h186.936v55.434h-179.55v48.048h-7.386v-55.437h179.55v-40.662h-179.55z"/><path d="m420.453 55.436v48.048h-7.386v-55.437h179.547v-40.662h-179.547v-7.386h186.933v55.437z"/><path d="m282.252.002v96.093h-95.316v7.389h103.113v-96.099h95.316v-7.386h-103.113"/></g></svg>