<svg preserveAspectRatio="none" xmlns="http://www.w3.org/2000/svg"><g fill="#1e1e1e"><path d="m547.676 169.314v-48.518h.972v48.518z" transform="matrix(.258819 .965926 -.965926 .258819 546.399476 -421.971827)"/><path d="m549.139 174.075v-49.004h.971v49.004z" transform="matrix(.258819 .965926 -.965926 .258819 551.84752 -420.035839)"/><path d="m549.848 177.125v-47.627h.972v47.627z" transform="matrix(.258818 .965926 -.965926 .258818 555.985161 -417.950231)"/><path d="m551.152 182.579v-49.411h.972v49.411z" transform="matrix(.258819 .965926 -.965926 .258819 561.357609 -415.828577)"/><path d="m552.022 185.33v-49.206h.972v49.206z" transform="matrix(.258819 .965926 -.965926 .258819 564.758686 -414.553957)"/><path d="m553.211 189.477v-48.315h.972v48.315z" transform="matrix(.258818 .965926 -.965926 .258818 570.076669 -412.298552)"/><path d="m554.096 193.27v-48.518h.971v48.518z" transform="matrix(.258818 .965926 -.965926 .258818 574.297985 -410.41688)"/><path d="m555.461 198.159v-49.206h.97v49.206z" transform="matrix(.258819 .965926 -.965926 .258819 579.698763 -408.366234)"/><path d="m556.267 201.17v-49.206h.971v49.206z" transform="matrix(.258819 .965926 -.965926 .258819 583.20491 -406.913529)"/><path d="m557.554 205.188v-48.111h.972v48.111z" transform="matrix(.258819 .965926 -.965926 .258819 588.569123 -404.773299)"/><path d="m558.34 209.11v-48.518h.972v48.518z" transform="matrix(.258819 .965926 -.965926 .258819 592.743505 -402.776487)"/><path d="m559.567 213.691v-48.517h.972v48.517z" transform="matrix(.258819 .965926 -.965926 .258819 598.078228 -400.565896)"/><path d="m560.68 217.144v-49.004h.971v49.004z" transform="matrix(.258819 .965926 -.965926 .258819 602.002982 -399.261725)"/><path d="m561.672 221.545v-48.518h.971v48.518z" transform="matrix(.258819 .965926 -.965926 .258819 607.22397 -396.777776)"/><path d="m562.753 225.083v-48.315h.972v48.315z" transform="matrix(.258819 .965926 -.965926 .258819 611.541103 -395.124988)"/><path d="m564.019 230.101v-49.207h.971v49.207z" transform="matrix(.258819 .965926 -.965926 .258819 616.895191 -392.958658)"/><path d="m564.693 233.109v-49.411h.97v49.411z" transform="matrix(.258819 .965926 -.965926 .258819 620.201403 -391.455287)"/><path d="m565.843 236.818v-47.627h.972v47.627z" transform="matrix(.258819 .965926 -.965926 .258819 625.498734 -389.156928)"/><path d="m566.863 240.919v-48.517h.972v48.517z" transform="matrix(.258819 .965926 -.965926 .258819 629.78616 -387.432415)"/><path d="m568.092 245.502v-48.517h.97v48.517z" transform="matrix(.258819 .965926 -.965926 .258819 635.123191 -385.221742)"/><path d="m568.964 249.06v-48.642h.972v48.642z" transform="matrix(.258819 .965926 -.965926 .258819 639.146563 -383.474183)"/><path d="m570.185 252.53v-47.423h.972v47.423z" transform="matrix(.258819 .965926 -.965926 .258819 643.99212 -381.629997)"/><path d="m571.244 257.067v-49.206h.972v49.206z" transform="matrix(.258818 .965926 -.965926 .258818 648.298964 -379.950785)"/><path d="m572.433 261.213v-48.315h.972v48.315z" transform="matrix(.258818 .965926 -.965926 .258818 653.615307 -377.696128)"/><path d="m573.318 265.007v-48.518h.971v48.518z" transform="matrix(.258818 .965926 -.965926 .258818 657.837554 -375.813681)"/><path d="m574.681 269.896v-49.207h.973v49.207z" transform="matrix(.258819 .965926 -.965926 .258819 663.237469 -373.763004)"/><path d="m575.686 272.562v-47.219h.972v47.219z" transform="matrix(.258819 .965926 -.965926 .258819 667.517316 -372.020586)"/><path d="m576.335 277.751v-49.128h.972v49.128z" transform="matrix(.258819 .965926 -.965926 .258819 672.08858 -369.50896)"/><path d="m577.429 280.844v-48.722h.971v48.722z" transform="matrix(.258819 .965926 -.965926 .258819 676.08275 -368.122286)"/><path d="m578.754 285.298v-48.518h.972v48.518z" transform="matrix(.258819 .965926 -.965926 .258819 681.465784 -366.025753)"/><path d="m579.835 288.835v-48.314h.972v48.314z" transform="matrix(.258818 .965926 -.965926 .258818 685.782874 -364.372679)"/><path d="m581.101 293.853v-49.207h.972v49.207z" transform="matrix(.258819 .965926 -.965926 .258819 691.136197 -362.207347)"/><path d="m581.908 296.863v-49.206h.972v49.206z" transform="matrix(.258819 .965926 -.965926 .258819 694.642267 -360.75553)"/><path d="m583.098 301.01v-48.315h.971v48.315z" transform="matrix(.258819 .965926 -.965926 .258819 699.959772 -358.500568)"/><path d="m584.177 304.75v-48.518h.972v48.518z" transform="matrix(.258819 .965926 -.965926 .258819 704.274468 -356.846491)"/><path d="m585.208 309.385v-48.518h.972v48.518z" transform="matrix(.258818 .965926 -.965926 .258818 709.516385 -354.406868)"/><path d="m586.282 312.808v-48.924h.972v48.924z" transform="matrix(.258819 .965926 -.965926 .258819 713.422054 -353.057842)"/><path d="m587.608 317.262v-48.722h.972v48.722z" transform="matrix(.258818 .965926 -.965926 .258818 718.8054 -350.962391)"/><path d="m588.522 320.703v-48.519h.972v48.519z" transform="matrix(.258818 .965926 -.965926 .258818 722.904508 -349.219671)"/><path d="m589.552 325.541v-48.924h.972v48.924z" transform="matrix(.258819 .965926 -.965926 .258819 728.144659 -346.77894)"/><path d="m590.4 328.76.001-48.519h.971v48.519z" transform="matrix(.258819 .965926 -.965926 .258819 732.07827 -345.062097)"/><path d="m591.764 333.649v-49.207h.971v49.207z" transform="matrix(.258819 .965926 -.965926 .258819 737.478998 -343.010524)"/><path d="m592.505 336.614v-48.518h.971v48.518z" transform="matrix(.258819 .965926 -.965926 .258819 741.22492 -341.273248)"/><path d="m593.733 341.195v-48.518h.971v48.518z" transform="matrix(.258818 .965926 -.965926 .258818 746.560689 -339.063905)"/><path d="m696.325 229.484c.006-2.449 1.2-5.039 2.869-7.056.85-1.018 1.824-1.898 2.855-2.52-23.304 0-164.5 0-201.558 0-5.324 0-8.49 0-8.864 0-.012.002-.032.005-.066.011-.064.014-.16.036-.275.076-.234.079-.549.223-.865.478-.579.478-1.194 1.323-1.282 3.028 4.751.987 7.833 1.852 8.956 1.839l.083.965c-1.287.221-2.746.314-4.271.314-2.839 0-5.905-.323-8.465-.767-2.573-.453-4.582-.985-5.495-1.548l.518-.82c.607.397 2.646.986 5.143 1.411 2.51.435 5.533.752 8.299.751.138 0 .275-.001.411-.002-1.529-.349-3.442-.801-5.773-1.275l-.389-.079v-.396c-.007-2.196.802-3.496 1.654-4.176.849-.685 1.677-.773 1.73-.78l.027-.002h.023 213.556v.971c-.015 0-.031 0-.048 0-1.632.01-3.621 1.277-5.157 3.141-1.559 1.871-2.651 4.311-2.646 6.436h.001z" transform="matrix(.258818 .965926 -.965926 .258818 655.755083 -406.175749)"/><path d="m576.554 130.343c.001-2.823 2.289-5.11 5.111-5.111 2.823.001 5.11 2.288 5.111 5.111-.001 2.823-2.288 5.11-5.111 5.11-2.822-.001-5.11-2.287-5.111-5.11zm.972 0c.004 2.286 1.853 4.134 4.139 4.139 2.286-.005 4.134-1.853 4.139-4.139-.005-2.286-1.854-4.136-4.139-4.139-2.286.003-4.135 1.853-4.139 4.139z" transform="matrix(.258818 .965926 -.965926 .258818 557.020816 -465.237933)"/><path d="m627.854 321.794c0-2.822 2.287-5.11 5.111-5.11 2.822 0 5.11 2.287 5.11 5.11 0 2.825-2.288 5.111-5.11 5.111-2.822 0-5.111-2.286-5.111-5.111zm.971 0c.004 2.287 1.853 4.136 4.14 4.139 2.286-.003 4.135-1.852 4.139-4.139-.004-2.285-1.853-4.135-4.139-4.138-2.286.003-4.137 1.853-4.14 4.138z" transform="matrix(.258819 .965926 -.965926 .258819 779.970735 -372.888793)"/><path d="m653.633 257.151c-.991.005-1.637-.623-2.063-1.232-.438-.619-.777-1.28-1.174-1.646-.265-.244-.507-.371-.89-.375-.558.005-.879.292-1.275.827-.383.524-.722 1.236-1.293 1.785-.378.366-.911.646-1.558.641-.992.005-1.638-.623-2.064-1.232-.439-.619-.778-1.28-1.174-1.646-.266-.244-.508-.371-.89-.375-.557.005-.879.292-1.274.827-.384.524-.722 1.236-1.294 1.785-.379.366-.911.646-1.559.641-.99.005-1.635-.623-2.063-1.232-.437-.619-.776-1.28-1.171-1.646-.267-.244-.509-.371-.892-.375-.557.005-.878.292-1.274.827-.383.524-.722 1.236-1.293 1.785-.378.366-.911.646-1.559.641-.99.005-1.637-.623-2.062-1.232-.439-.619-.777-1.28-1.174-1.646-.265-.244-.507-.371-.891-.375-.557.005-.878.292-1.274.827-.383.524-.721 1.236-1.293 1.785-.377.366-.911.646-1.558.641-.991.005-1.637-.623-2.063-1.232-.438-.619-.777-1.28-1.172-1.646-.266-.244-.507-.371-.891-.375-.556.005-.878.292-1.273.827-.384.524-.722 1.236-1.294 1.785-.379.366-.911.646-1.559.641-.99.005-1.636-.623-2.063-1.232-.438-.619-.776-1.28-1.172-1.646-.267-.244-.508-.371-.892-.375-.557.005-.878.292-1.274.827-.383.524-.722 1.236-1.293 1.785-.378.366-.91.646-1.558.641-.991.005-1.638-.623-2.064-1.232-.438-.619-.776-1.28-1.172-1.646-.266-.244-.507-.371-.89-.375-.558.005-.88.292-1.276.827-.382.524-.722 1.236-1.293 1.785-.379.366-.911.646-1.558.641-.991.005-1.637-.623-2.063-1.232-.438-.619-.777-1.28-1.172-1.646-.267-.244-.507-.371-.891-.375-.556.005-.878.292-1.274.827-.383.524-.723 1.236-1.293 1.785-.379.366-.912.646-1.559.641-.991.005-1.636-.623-2.063-1.232-.438-.619-.778-1.28-1.172-1.646-.267-.244-.508-.371-.892-.375-.556.005-.877.292-1.272.827-.385.524-.723 1.236-1.294 1.785-.378.366-.912.646-1.559.641-.99.005-1.636-.623-2.062-1.232-.439-.619-.778-1.28-1.173-1.646-.265-.244-.507-.371-.89-.375-.558.005-.879.292-1.275.827-.384.524-.722 1.236-1.294 1.785-.377.366-.91.646-1.558.641-.991.005-1.637-.623-2.062-1.232-.439-.619-.777-1.28-1.173-1.646-.266-.244-.507-.371-.89-.375-.558.005-.879.292-1.274.827-.384.524-.723 1.236-1.294 1.785-.379.366-.911.646-1.559.641-.99.005-1.636-.623-2.062-1.232-.438-.619-.776-1.28-1.171-1.646-.267-.244-.508-.371-.892-.375-.557.005-.878.292-1.273.827-.384.524-.723 1.236-1.294 1.785-.378.366-.91.646-1.558.641-.991.005-1.637-.623-2.063-1.232-.437-.619-.777-1.28-1.173-1.646-.265-.244-.507-.371-.89-.375-.557.005-.879.292-1.275.827-.383.524-.721 1.236-1.293 1.785-.377.366-.91.646-1.557.641-.992.005-1.637-.623-2.064-1.232-.438-.619-.776-1.28-1.171-1.646-.267-.244-.509-.371-.892-.375-.556.005-.878.292-1.273.827-.384.524-.723 1.236-1.293 1.785-.379.366-.911.646-1.559.641-.99.005-1.637-.623-2.063-1.232-.437-.619-.776-1.28-1.172-1.646-.266-.244-.507-.371-.891-.375-.556.005-.877.292-1.274.827-.383.524-.721 1.236-1.293 1.785-.379.366-.91.646-1.558.641-.991.005-1.636-.623-2.062-1.232-.439-.619-.777-1.28-1.173-1.646-.266-.244-.507-.371-.89-.375-.557.005-.877.292-1.274.827-.383.524-.721 1.236-1.293 1.785-.379.366-.911.646-1.558.641-.991.005-1.636-.623-2.063-1.232-.439-.619-.776-1.28-1.172-1.646-.266-.244-.507-.371-.891-.375-.556.005-.877.292-1.273.827-.384.524-.722 1.236-1.293 1.785-.379.366-.912.646-1.559.641-.991.005-1.636-.623-2.062-1.232-.439-.619-.776-1.28-1.173-1.646-.265-.244-.506-.371-.89-.375-.557.005-.878.292-1.274.827-.383.524-.722 1.236-1.293 1.785-.378.366-.91.646-1.558.641-.99.005-1.637-.623-2.062-1.232-.439-.619-.777-1.28-1.173-1.646-.266-.244-.507-.371-.891-.375-.556.005-.877.292-1.274.827-.383.524-.721 1.236-1.293 1.785-.378.366-.911.646-1.558.641-.991.005-1.637-.623-2.064-1.232-.437-.619-.776-1.28-1.171-1.646-.267-.244-.508-.371-.892-.375-.556.005-.877.292-1.273.827-.384.524-.723 1.236-1.293 1.785-.379.366-.911.646-1.559.641-.991.005-1.637-.623-2.063-1.232-.439-.619-.776-1.28-1.173-1.646-.265-.244-.506-.371-.89-.375-.557.005-.878.292-1.274.827-.384.524-.722 1.236-1.294 1.785-.378.366-.91.646-1.558.641-.542.001-1.286-.07-1.886-.639-.596-.572-.938-1.528-.938-3.065 0-2.949 0-17.788 0-17.788v-9.047c0-.001 0-14.84 0-17.788 0-1.537.342-2.494.938-3.066.6-.569 1.344-.638 1.886-.638.991-.005 1.636.623 2.062 1.231.439.619.776 1.281 1.172 1.646.266.244.507.37.891.375.557-.005.878-.292 1.274-.827.384-.524.722-1.235 1.294-1.784.377-.365.91-.646 1.558-.641.991-.005 1.636.623 2.062 1.231.439.619.776 1.28 1.173 1.646.265.244.507.37.89.375.557-.005.878-.292 1.274-.827.384-.524.722-1.235 1.294-1.784.378-.365.91-.646 1.558-.641.991-.005 1.636.623 2.062 1.231.439.619.776 1.281 1.173 1.646.265.244.507.37.89.375.557-.005.878-.292 1.274-.827.384-.524.722-1.235 1.294-1.784.378-.365.91-.646 1.558-.641.991-.005 1.636.623 2.061 1.231.439.619.777 1.281 1.173 1.646.266.244.507.37.89.375.557-.005.878-.292 1.274-.827.384-.524.723-1.235 1.293-1.784.379-.365.911-.646 1.558-.641.991-.005 1.636.623 2.063 1.231.438.619.776 1.281 1.172 1.646.266.244.508.37.891.375.557-.005.877-.292 1.273-.827.384-.524.722-1.235 1.293-1.784.379-.365.911-.646 1.559-.641.99-.005 1.636.623 2.062 1.231.439.619.776 1.281 1.173 1.646.265.244.507.37.89.375.557-.005.878-.292 1.273-.827.385-.524.723-1.235 1.293-1.784.379-.365.912-.646 1.559-.641.991-.005 1.636.623 2.063 1.231.438.619.776 1.281 1.172 1.646.266.244.507.37.89.375.557-.005.879-.292 1.275-.827.383-.524.722-1.235 1.293-1.784.379-.365.911-.646 1.559-.641.99-.005 1.636.623 2.062 1.231.439.619.776 1.281 1.172 1.646.266.244.507.37.891.375.557-.005.878-.292 1.274-.827.383-.524.722-1.235 1.294-1.784.377-.365.91-.646 1.558-.641.99-.005 1.635.623 2.061 1.231.439.619.778 1.28 1.173 1.646.266.244.507.37.892.375.556-.005.877-.292 1.273-.827.384-.524.722-1.235 1.294-1.784.378-.365.911-.646 1.558-.641.991-.005 1.636.623 2.061 1.231.439.619.778 1.28 1.173 1.646.267.244.507.37.892.375.556-.005.878-.292 1.273-.827.384-.524.723-1.235 1.293-1.784.379-.365.911-.646 1.559-.641.99-.005 1.637.623 2.062 1.231.438.619.778 1.28 1.172 1.646.267.244.508.37.892.375.557-.005.877-.292 1.273-.827.384-.524.722-1.235 1.294-1.784.378-.365.911-.646 1.559-.641.989-.005 1.636.623 2.062 1.231.439.619.777 1.28 1.171 1.646.268.244.508.37.893.375.556-.005.877-.292 1.274-.827.383-.524.721-1.235 1.293-1.784.379-.365.911-.646 1.559-.641.99-.005 1.637.623 2.062 1.231.438.619.777 1.281 1.172 1.646.267.244.508.37.89.375.557-.005.879-.292 1.275-.827.383-.524.722-1.235 1.294-1.784.378-.365.91-.646 1.559-.641.99-.005 1.636.623 2.062 1.231.438.619.776 1.28 1.173 1.646.265.244.507.37.891.375.556-.005.877-.292 1.273-.827.383-.524.722-1.235 1.293-1.784.378-.365.911-.646 1.559-.641.99-.005 1.636.623 2.062 1.231.439.619.777 1.28 1.173 1.646.266.244.508.37.892.375.557-.005.878-.292 1.273-.827.384-.524.722-1.235 1.294-1.784.378-.365.911-.646 1.56-.641.989-.005 1.636.623 2.061 1.231.438.619.777 1.28 1.172 1.646.267.244.508.37.892.375.557-.005.878-.292 1.274-.827.383-.524.723-1.235 1.295-1.784.377-.365.91-.646 1.558-.641.99-.005 1.637.623 2.062 1.231.438.619.777 1.28 1.173 1.646.266.244.507.37.891.375.556-.005.877-.292 1.273-.827.383-.524.722-1.235 1.294-1.784.377-.365.911-.646 1.558-.641.991-.005 1.636.623 2.062 1.231.439.619.777 1.281 1.173 1.646.266.244.507.37.891.375.556-.005.878-.291 1.274-.827.384-.524.722-1.235 1.294-1.784.378-.365.911-.646 1.559-.641.99-.005 1.636.623 2.063 1.231.437.619.776 1.28 1.171 1.646.267.244.508.37.892.375.557-.005.878-.291 1.273-.827.384-.524.723-1.235 1.294-1.784.379-.365.911-.646 1.559-.641.99-.005 1.637.623 2.062 1.231.438.619.777 1.28 1.173 1.646.266.244.507.37.891.375.557-.005.878-.291 1.274-.827.383-.524.722-1.235 1.295-1.784.378-.365.911-.646 1.559-.641.99-.005 1.636.623 2.062 1.231.439.619.777 1.28 1.173 1.646.266.244.508.37.892.375.556-.005.878-.291 1.273-.827.384-.524.722-1.235 1.294-1.784.379-.365.911-.646 1.56-.641.99-.005 1.636.623 2.063 1.231.437.619.776 1.28 1.173 1.646.265.244.507.37.89.375.558-.005.879-.291 1.275-.827.385-.524.722-1.235 1.295-1.784.378-.365.911-.646 1.559-.641.926-.004 1.774.355 2.349 1.047.575.689.874 1.664.874 2.861v20.836 2.541 20.837c0 1.196-.299 2.171-.874 2.862-.575.692-1.423 1.052-2.349 1.046-.991.006-1.638-.622-2.064-1.231-.438-.619-.777-1.281-1.174-1.646-.265-.244-.507-.371-.891-.376-.557.005-.878.293-1.273.828-.384.524-.723 1.235-1.294 1.784-.375.363-.901.641-1.542.641-.003.001-.009.001-.015.001zm-2.064-2.993c.438.619.777 1.281 1.173 1.646.265.244.508.371.891.376.557-.006.878-.293 1.274-.828.384-.524.722-1.235 1.294-1.785.378-.366.911-.645 1.559-.64.99-.005 1.636.622 2.063 1.231.438.619.777 1.281 1.173 1.646.267.244.508.371.893.375 1.34-.032 2.204-.848 2.251-2.936 0-2.237 0-20.837 0-20.837v-2.541s0-18.601 0-20.837c-.047-2.088-.911-2.904-2.251-2.936-.558.005-.879.292-1.276.827-.384.525-.722 1.235-1.294 1.784-.379.366-.911.646-1.559.641-.991.005-1.636-.623-2.064-1.231-.437-.619-.776-1.279-1.172-1.645-.266-.245-.508-.371-.891-.376-.557.005-.879.292-1.274.827-.384.525-.723 1.235-1.294 1.784-.379.366-.911.646-1.559.641-.991.005-1.637-.623-2.063-1.231-.438-.619-.777-1.279-1.172-1.645-.268-.245-.508-.371-.891-.376-.558.005-.88.292-1.276.827-.383.525-.722 1.235-1.294 1.784-.379.365-.911.646-1.558.641-.991.005-1.636-.623-2.063-1.231-.438-.619-.777-1.279-1.172-1.645-.267-.245-.508-.371-.892-.376-.556.005-.878.292-1.273.827-.384.525-.723 1.235-1.294 1.784-.379.365-.911.646-1.559.641-.99.005-1.636-.623-2.063-1.231-.439-.619-.776-1.279-1.171-1.645-.267-.245-.508-.371-.892-.376-.557.005-.878.292-1.274.827-.384.525-.722 1.235-1.294 1.784-.378.366-.911.646-1.559.641-.99.005-1.636-.623-2.062-1.231-.439-.619-.777-1.279-1.172-1.645-.267-.245-.508-.371-.891-.376-.557.005-.879.292-1.274.827-.384.525-.722 1.235-1.294 1.784-.377.365-.91.646-1.558.641-.99.005-1.635-.623-2.062-1.231-.438-.619-.777-1.279-1.172-1.645-.267-.245-.508-.371-.892-.376-.556.005-.878.292-1.274.827-.383.525-.723 1.235-1.293 1.784-.379.365-.912.646-1.56.641-.99.005-1.637-.623-2.063-1.231-.439-.619-.776-1.279-1.172-1.645-.266-.245-.507-.371-.89-.376-.558.005-.88.292-1.275.827-.384.525-.722 1.235-1.293 1.784-.378.365-.911.646-1.558.641-.992.005-1.638-.623-2.065-1.231-.438-.619-.776-1.279-1.172-1.645-.266-.245-.508-.371-.89-.376-.557.005-.879.291-1.274.827-.384.525-.722 1.235-1.294 1.784-.377.365-.91.646-1.558.641-.99.005-1.637-.623-2.063-1.231-.438-.619-.776-1.279-1.172-1.645-.267-.245-.508-.371-.891-.376-.557.005-.878.292-1.274.827-.384.525-.723 1.235-1.294 1.784-.378.365-.911.646-1.559.641-.99.005-1.636-.623-2.061-1.231-.438-.619-.777-1.279-1.173-1.645-.266-.245-.507-.371-.891-.376-.557.005-.878.292-1.274.827-.383.525-.722 1.235-1.294 1.784-.377.365-.91.646-1.557.641-.992.005-1.637-.623-2.063-1.231-.439-.619-.777-1.279-1.173-1.645-.266-.245-.507-.371-.891-.376-.556.005-.878.292-1.274.827-.383.525-.721 1.235-1.293 1.784-.379.365-.911.646-1.558.641-.991.005-1.637-.623-2.063-1.231-.439-.619-.777-1.279-1.172-1.645-.267-.245-.508-.371-.892-.376-.556.005-.877.291-1.273.827-.383.524-.721 1.235-1.293 1.784-.379.365-.911.646-1.559.641-.99.005-1.637-.623-2.063-1.231-.437-.619-.776-1.279-1.171-1.645-.267-.245-.508-.371-.891-.376-.557.005-.878.292-1.275.827-.383.525-.721 1.235-1.293 1.784-.378.365-.91.646-1.558.641-.992.005-1.637-.623-2.063-1.231-.438-.619-.777-1.279-1.172-1.645-.267-.245-.508-.371-.89-.376-.557.005-.878.292-1.275.827-.383.525-.721 1.235-1.293 1.784-.379.365-.911.646-1.559.641-.99.005-1.636-.623-2.061-1.231-.439-.619-.777-1.279-1.173-1.645-.266-.245-.508-.371-.89-.376-.557.005-.879.292-1.274.827-.384.525-.723 1.235-1.294 1.784-.378.365-.911.646-1.559.641-.99.005-1.636-.623-2.062-1.231-.439-.619-.776-1.279-1.173-1.645-.265-.245-.506-.371-.89-.376-.556.005-.877.291-1.274.827-.383.525-.721 1.235-1.293 1.784-.378.365-.911.646-1.558.641-.991.005-1.636-.623-2.063-1.231-.438-.619-.776-1.279-1.172-1.645-.266-.245-.508-.371-.89-.376-.558.005-.878.291-1.274.827-.383.524-.722 1.235-1.293 1.784-.379.365-.911.646-1.559.641-.99.005-1.636-.623-2.062-1.231-.438-.619-.776-1.279-1.171-1.645-.267-.245-.508-.371-.892-.376-.556.005-.877.291-1.273.827-.383.524-.722 1.235-1.293 1.784-.378.365-.91.646-1.559.641-.99.005-1.636-.623-2.062-1.231-.438-.619-.776-1.279-1.172-1.645-.267-.245-.507-.371-.89-.376-.557.005-.878.291-1.274.827-.384.525-.723 1.235-1.294 1.784-.378.365-.911.646-1.559.641-.99.005-1.635-.623-2.061-1.231-.439-.619-.777-1.279-1.173-1.645-.266-.245-.508-.371-.891-.376-.557.005-.878.292-1.273.827-.385.525-.723 1.235-1.294 1.784-.379.365-.912.646-1.559.641-.99.005-1.636-.623-2.062-1.231-.439-.619-.778-1.279-1.173-1.645-.265-.245-.507-.371-.89-.376-.557.005-.878.292-1.274.827-.384.525-.722 1.235-1.293 1.784-.379.365-.912.646-1.559.641-.991.005-1.637-.623-2.062-1.231-.439-.619-.778-1.279-1.173-1.645-.265-.245-.507-.371-.89-.376-.474.001-.9.067-1.216.37-.318.299-.636.952-.636 2.362-.001 2.948-.001 17.787 0 17.788v9.047c-.001.017-.001 14.84 0 17.788 0 1.41.318 2.062.636 2.362.316.304.742.37 1.216.37.556-.005.877-.292 1.274-.827.383-.524.721-1.235 1.293-1.785.379-.366.911-.646 1.558-.641.991-.005 1.636.624 2.063 1.232.438.618.777 1.281 1.172 1.646.267.244.508.371.892.375.556-.005.877-.292 1.273-.827.383-.524.722-1.235 1.293-1.785.379-.366.911-.646 1.559-.641.99-.005 1.637.624 2.063 1.232.438.618.776 1.281 1.172 1.646.267.244.507.371.891.375.557-.005.877-.292 1.274-.827.384-.524.723-1.235 1.293-1.785.379-.366.911-.646 1.558-.641.991-.005 1.637.624 2.064 1.232.437.618.776 1.281 1.171 1.646.267.244.508.371.892.375.556-.005.877-.292 1.272-.827.385-.524.723-1.235 1.293-1.785.379-.366.911-.646 1.559-.64.99-.006 1.637.623 2.062 1.231.439.618.777 1.281 1.173 1.646.265.244.507.371.89.375.557-.005.877-.292 1.273-.827.385-.524.723-1.235 1.293-1.785.379-.366.912-.646 1.559-.64.991-.006 1.636.623 2.063 1.231.438.618.776 1.281 1.172 1.646.266.244.507.371.89.375.557-.005.878-.292 1.274-.827.384-.524.723-1.235 1.293-1.785.379-.366.911-.646 1.559-.641.99-.005 1.636.624 2.062 1.232.438.618.776 1.281 1.173 1.646.265.244.507.371.89.376.557-.006.877-.293 1.274-.828.383-.524.721-1.235 1.293-1.785.379-.366.91-.646 1.558-.641.991-.005 1.637.624 2.063 1.232.439.618.776 1.281 1.173 1.646.265.244.506.371.891.376.557-.006.877-.293 1.273-.828.383-.524.722-1.235 1.293-1.785.378-.366.91-.646 1.558-.641.991-.005 1.636.623 2.062 1.232.439.618.778 1.281 1.173 1.646.267.244.507.371.892.375.556-.005.877-.292 1.272-.827.384-.524.723-1.235 1.293-1.785.379-.366.911-.646 1.56-.641.99-.005 1.635.624 2.062 1.232.438.618.777 1.281 1.172 1.646.267.244.508.371.892.375.556-.005.877-.292 1.272-.827.384-.524.723-1.235 1.294-1.785.378-.366.911-.646 1.559-.641.99-.005 1.636.624 2.063 1.232.438.618.776 1.281 1.171 1.646.266.244.507.371.891.375.557-.005.879-.292 1.273-.827.385-.524.723-1.235 1.295-1.785.378-.366.911-.646 1.559-.64.99-.006 1.636.623 2.062 1.231.438.619.777 1.281 1.172 1.646.266.244.508.371.891.375.557-.005.878-.292 1.274-.827.383-.524.722-1.235 1.293-1.785.379-.366.911-.646 1.56-.641.99-.005 1.636.624 2.062 1.232.438.619.776 1.281 1.172 1.646.266.244.508.371.891.375.557-.005.878-.292 1.274-.827.383-.524.722-1.235 1.294-1.785.377-.366.909-.645 1.557-.641.992-.004 1.637.623 2.063 1.232.438.619.778 1.281 1.173 1.646.265.244.507.371.891.375.556-.005.878-.292 1.274-.827.383-.524.721-1.235 1.294-1.785.377-.366.91-.645 1.558-.641.991-.004 1.636.624 2.063 1.232.438.619.776 1.281 1.171 1.646.267.244.507.371.892.375.556-.005.877-.292 1.273-.827.384-.524.722-1.235 1.294-1.785.379-.366.911-.645 1.56-.641.989-.004 1.635.624 2.061 1.232.438.619.776 1.281 1.172 1.646.267.244.509.371.893.375.556-.005.877-.292 1.272-.827.384-.524.723-1.235 1.295-1.785.378-.366.91-.645 1.558-.641.992-.004 1.637.623 2.063 1.232.438.619.777 1.281 1.173 1.646.266.244.507.371.891.375.557-.005.879-.292 1.274-.827.384-.524.722-1.235 1.294-1.785.378-.366.911-.645 1.558-.641.991-.004 1.636.624 2.063 1.232.437.619.776 1.281 1.171 1.646.267.244.507.371.892.375.556-.005.878-.292 1.273-.827.384-.524.722-1.235 1.293-1.785.379-.366.911-.645 1.559-.64.99-.005 1.636.622 2.063 1.231.438.619.777 1.281 1.172 1.646.267.244.509.371.892.375.557-.005.878-.292 1.275-.827.382-.524.721-1.235 1.292-1.785.378-.366.911-.645 1.559-.641.99-.004 1.637.623 2.062 1.232.438.619.778 1.281 1.173 1.646.267.244.507.371.891.375.557-.005.879-.292 1.274-.827.384-.524.723-1.235 1.294-1.785.378-.366.911-.645 1.559-.641.99-.004 1.635.624 2.062 1.232.438.619.777 1.281 1.173 1.646.266.244.508.371.893.375.556-.005.877-.292 1.273-.827.383-.524.722-1.235 1.293-1.785.379-.366.912-.645 1.56-.64h.012c.983-.001 1.624.624 2.05 1.231z" transform="matrix(.258819 .965926 -.965926 .258819 646.707791 -380.535199)"/><path d="m590.034 351.085v-.971c.696 0 1.406.012 2.114.011 2.514.006 4.976-.172 6.752-1.481 1.772-1.3 3.043-3.781 3.048-8.767 0-11.526 0-11.526.001-11.538v-6.607c-.001 0-.001 0 0-11.535-.006-4.986-1.277-7.47-3.049-8.769-1.775-1.309-4.239-1.487-6.753-1.483-.708 0-1.417.013-2.113.013v-.972c.683 0 1.393-.012 2.113-.012 2.542.004 5.224.139 7.327 1.67 2.109 1.542 3.452 4.427 3.447 9.553v11.535 6.607 11.538c.006 5.124-1.338 8.008-3.447 9.55-2.103 1.53-4.784 1.666-7.326 1.67-.719.001-1.428-.012-2.114-.012zm0 0v.002z" transform="matrix(.258818 .965926 -.965926 .258818 756.05857 -335.242758)"/><path d="m457.412 241.026c-5.669-.001-8.892-.001-8.901 0h-.021l-.028-.003c-.054-.007-.882-.095-1.73-.779-.852-.681-1.661-1.98-1.654-4.176v-.397l.388-.079c2.333-.474 4.249-.927 5.78-1.275-.139-.002-.277-.003-.417-.003-2.766 0-5.79.316-8.3.752-2.496.425-4.535 1.014-5.142 1.413l-.52-.821c.914-.563 2.924-1.095 5.496-1.549 2.561-.444 5.626-.766 8.466-.766 1.525 0 2.984.093 4.27.314l-.083.965c-1.123-.013-4.204.852-8.955 1.839.172 3.049 1.985 3.452 2.42 3.582.028.006.046.01.059.011h210.429c-1.03-.622-2.004-1.502-2.854-2.52-1.67-2.017-2.864-4.608-2.87-7.057h.972c-.006 2.125 1.086 4.565 2.645 6.437 1.536 1.863 3.525 3.13 5.158 3.14h.046v.972c-5.87 0-164.97 0-204.654 0z" transform="matrix(.258819 .965926 -.965926 .258819 634.972395 -356.009407)"/><path d="m483.225 274.326c-3.143-.006-6.683.02-9.608-2.21-2.871-2.2-4.977-6.467-5.584-14.664-2.624 0-6.967 0-6.967 0h-.17l-.132-.106c-.193-.172-4.142-3.476-4.147-22.843v-10.265c.005-19.368 3.953-22.671 4.147-22.844l.132-.106h.17 6.967c.607-8.197 2.713-12.463 5.584-14.664 2.925-2.23 6.465-2.205 9.608-2.209h186.619c5.354 0 8.78 1.21 10.929 2.969 2.15 1.758 2.965 4.037 3.174 6.002.41 3.801 1.12 17.105 1.12 28.615l.002 14.738c-.002 11.51-.712 24.814-1.122 28.615-.21 1.966-1.024 4.244-3.174 6.002-2.149 1.758-5.575 2.969-10.929 2.969-10.571 0-180.318 0-186.619.001zm-14.739-17.845h.454l.031.454c.556 8.379 2.645 12.432 5.236 14.41 2.588 1.988 5.859 2.014 9.019 2.009h186.618c5.217 0 8.397-1.178 10.314-2.748 1.915-1.571 2.626-3.561 2.824-5.357.402-3.72 1.116-17.047 1.115-28.509v-14.739c.001-11.461-.713-24.787-1.115-28.509-.198-1.795-.908-3.784-2.823-5.355-1.918-1.571-5.098-2.749-10.314-2.749-10.572-.001-180.318-.001-186.619 0-3.16-.005-6.431.021-9.019 2.009-2.591 1.977-4.68 6.031-5.236 14.41l-.029.453h-.456c-2.233 0-6.273 0-7.218 0-.002.003-.005.005-.007.008-.089.103-.229.28-.402.558-.345.556-.825 1.514-1.311 3.082-.971 3.136-1.96 8.708-1.96 18.331v10.265c-.006 16.884 3.054 21.273 3.677 21.978.94-.001 4.984-.001 7.221-.001z" transform="matrix(.258819 .965926 -.965926 .258819 644.652797 -381.387013)"/><path d="m506.846 149.021c0-2.823 2.288-5.11 5.111-5.11 2.822 0 5.11 2.288 5.11 5.11 0 2.823-2.288 5.11-5.11 5.11-2.823 0-5.111-2.287-5.111-5.11zm.971 0c.005 2.287 1.854 4.135 4.139 4.139 2.287-.004 4.135-1.852 4.139-4.139-.004-2.286-1.852-4.136-4.139-4.139-2.285.004-4.134 1.854-4.139 4.139z" transform="matrix(.258819 .965926 -.965926 .258819 523.395581 -384.060481)"/><path d="m558.145 340.474c0-2.824 2.289-5.111 5.111-5.111 2.822 0 5.111 2.287 5.111 5.111 0 2.823-2.289 5.11-5.111 5.11-2.822 0-5.111-2.287-5.111-5.11zm.971 0c.005 2.286 1.853 4.135 4.14 4.138 2.286-.004 4.135-1.853 4.139-4.138-.004-2.286-1.853-4.135-4.139-4.139-2.287.004-4.136 1.853-4.14 4.139z" transform="matrix(.258819 .965926 -.965926 .258819 746.346684 -291.71106)"/><path d="m524.789 138.016-.022-.044-.012-.045c-2.07-7.524-2.794-17.148-2.795-26.991.003-22.036 3.639-45.122 4.21-47.845.356-1.687.698-2.763 1.044-3.461.338-.676.728-1.099 1.297-1.117.143 0 .275.033.389.082 4.06.852 5.771 2.152 6.64 4.671.879 2.485 1.134 6.056 2.888 11.916 3.452 11.565 12.887 15.14 15.53 15.937 1.331.4 2.993.773 4.443 1.222 1.448.468 2.698.923 3.288 1.84l.001.001-.834.499c-.223-.438-1.345-1-2.743-1.413-1.396-.433-3.055-.805-4.434-1.218-2.777-.829-12.587-4.572-16.182-16.589-1.77-5.93-2.057-9.61-2.872-11.868-.822-2.213-1.946-3.15-5.98-4.06l-.061-.013-.055-.027c-.017-.01-.017-.007-.017-.008l-.004.003c-.01.005-.037.019-.077.056-.08.071-.207.236-.347.519-.283.565-.618 1.586-.962 3.229-.552 2.616-4.192 25.726-4.19 47.644-.001 9.773.725 19.317 2.748 26.688.342.637 1.347 1.419 3.173 1.419 1.713.003 4.156-.698 7.347-2.866 3.218-2.183 3.971-5.375 5.345-8.793 1.358-3.4 3.428-6.944 9.266-9.289 1.137-.386 3.282-.325 5.412-.566 2.129-.217 4.076-.783 4.621-1.912l.861.451c-.947 1.717-3.201 2.168-5.375 2.426-2.173.232-4.432.226-5.174.51-5.566 2.269-7.358 5.434-8.71 8.743-1.338 3.293-2.143 6.808-5.7 9.233-3.298 2.241-5.915 3.034-7.892 3.036-2.152 0-3.538-.951-4.065-2z" transform="matrix(.258819 .965926 -.965926 .258819 497.477996 -449.797088)"/><path d="m531.625 106.349c-5.018-5.196-9.234-13.052-9.232-23.587 0-2.269.196-4.663.62-7.181 2.246-13.341 6.469-23.223 10.462-29.998 4.003-6.781 7.729-10.425 9.123-11.386 1.022-.692 1.733-1.047 2.415-1.06.558-.015 1.025.333 1.267.754.258.421.412.931.583 1.522v.001l-.934.266c-.162-.574-.317-1.028-.475-1.277-.175-.25-.232-.28-.441-.294-.279-.012-.91.224-1.867.89-1.181.8-4.909 4.408-8.834 11.077-3.935 6.678-8.114 16.446-10.341 29.667-.415 2.466-.606 4.806-.606 7.019.002 10.271 4.091 17.864 8.96 22.914 4.853 5.05 10.553 7.514 13.484 7.497.239 0 .456-.015.653-.045l.14.962c-.249.036-.514.053-.793.054-3.387-.019-9.151-2.599-14.184-7.795z" transform="matrix(.258818 .965926 -.965926 .258818 467.38763 -461.830275)"/></g></svg>