<svg xmlns="http://www.w3.org/2000/svg"><g fill="#fff"><path d="m516.746 107.505c-16.942-.003-33.36-2.71-41.261-4.345-4.064-.834-7.901-2.243-10.946-5.368-3.043-3.121-5.112-7.738-6.225-14.555-1.138-7.003-1.806-20.405-1.81-33.545.015-12.485.588-24.512 2.115-30.697.791-3.186 2.154-6.12 4.452-8.599 2.295-2.481 5.457-4.457 9.687-5.977 8.469-3.032 21.311-4.409 41.57-4.419h27.855c15.192.001 26.217.791 34.346 2.45 8.115 1.659 13.446 4.217 16.907 7.946 2.298 2.479 3.662 5.413 4.454 8.599 1.525 6.185 2.096 18.212 2.11 30.697-.004 13.14-.673 26.544-1.808 33.545-1.112 6.817-3.182 11.434-6.225 14.555-3.045 3.125-6.88 4.533-10.944 5.368-7.902 1.634-24.318 4.342-41.262 4.345v-2.015-2.017c16.514.003 32.758-2.667 40.443-4.259 3.731-.777 6.613-1.92 8.876-4.239 2.263-2.319 4.092-6.033 5.132-12.388 1.068-6.514 1.76-19.929 1.754-32.895.012-12.287-.64-24.392-1.988-29.719-.687-2.727-1.744-4.932-3.502-6.838-1.762-1.902-4.292-3.553-8.093-4.923-7.589-2.747-20.146-4.192-40.202-4.181h-27.855c-15.047-.001-25.868.797-33.544 2.369-7.694 1.572-12.127 3.889-14.753 6.735-1.759 1.906-2.814 4.111-3.502 6.838-1.35 5.329-2.005 17.432-1.99 29.719-.005 12.965.686 26.38 1.757 32.895 1.038 6.356 2.868 10.069 5.13 12.388 2.266 2.319 5.147 3.462 8.876 4.239 7.688 1.59 23.931 4.262 40.445 4.259h23.017v2.017 2.015z"/><path d="m504.134 11.49v84.661h20.022v-32.117h28.22v-17.873h-28.22v-16.798h27.953v-18.007z"/><path d="m128.385 82.704v-67.721h-19.35v29.824h-23.374v-29.824h-20.158v78.202h20.158v-29.832h24.18v29.833h34.671c8.417-16.118 8.619-16.722 16.126-29.833 5.523.072 10.498-.056 15.311 0v29.833h20.157v-78.203h-30.639c-13.134 21.803-23.753 46.112-37.082 67.721zm45.347-48.839h2.419v10.474h-6.451c1.436-3.402 2.713-6.174 4.032-10.474zm-173.531 15.781-.201 4.709.201 4.966c3.532 25.439 28.52 42.217 57.239 32.252v-24.189c-4.048 3.057-8.466 7.959-16.933 8.062-29.308.346-25.301-40.822-.805-41.112 8.796-.113 12.151 2.991 17.738 8.861v-24.986c-27.285-11.781-54.19 6.143-57.239 31.437zm249.918 5.643c-11.255-14.771-19.181-26.333-30.63-40.306h-16.932v78.202h20.157v-39.508c11.813 11.562 18.803 27.955 30.631 39.508h16.933v-78.202h-20.157v40.306zm170.105 20.964v-61.27h-20.15v78.202h42.726v-16.932zm-70.132 16.932h44.339v-17.737h-23.384v-11.289h23.383v-19.351h-23.383v-11.28h23.383v-18.545h-44.34v78.202zm-26.608-37.896c-12.191-15.311-18.77-24.986-30.639-40.306h-16.924v78.202h20.15v-39.508c11.732 13.715 18.85 25.406 30.639 39.508h16.932v-78.202h-20.158z"/></g></svg>