<svg xmlns="http://www.w3.org/2000/svg"><path d="m68.607 118.395h462.786c12.483 0 22.599 10.116 22.599 22.599v3.51c0 12.477-10.116 22.596-22.599 22.596h-462.786c-12.483 0-22.599-10.119-22.599-22.596v-3.51c0-12.483 10.116-22.599 22.599-22.599z" fill="#141414" fill-rule="evenodd"/><g fill="#fff"><path d="m149.388 139.149c0 .969-.171 1.92-.51 2.85-.339.921-.822 1.698-1.452 2.325-.861.852-1.827 1.497-2.892 1.935-1.056.435-2.373.654-3.957.654h-3.471v7.047h-5.58v-21.642h9.186c1.374 0 2.535.12 3.471.363.951.231 1.791.585 2.517 1.062.873.573 1.533 1.305 1.989 2.193.468.891.699 1.965.699 3.213zm-5.769.132c0-.609-.168-1.134-.495-1.569-.33-.447-.714-.759-1.149-.933-.582-.234-1.149-.357-1.704-.378-.546-.027-1.284-.042-2.205-.042h-.96v6.483h1.599c.951 0 1.728-.06 2.34-.174.618-.117 1.137-.348 1.557-.699.357-.309.612-.678.771-1.104.162-.438.246-.966.246-1.584z"/><path d="m174.492 153.96h-15.612v-21.642h5.58v17.457h10.032z"/><path d="m210.165 153.96h-5.772l-1.848-4.374h-10.977l-1.953 4.374h-5.625l9.873-21.642h6.429zm-9.288-8.343-3.873-7.758-3.84 7.758z"/><path d="m231.471 132.318-8.331 13.272v8.37h-5.583v-8.109l-8.532-13.533h6.339l5.103 8.37 4.866-8.37z"/><path d="m271.131 146.769c0 2.127-.909 3.864-2.718 5.202-1.803 1.326-4.254 1.989-7.353 1.989-1.797 0-3.36-.153-4.695-.465-1.329-.321-2.577-.72-3.738-1.206l1.791-4.182c.702.402 1.902.843 2.688 1.116 1.431.495 2.808.741 4.125.741.342 0 .783-.03 1.338-.087.552-.06 1.005-.153 1.353-.291.426-.174.774-.393 1.047-.657.282-.258.42-.648.42-1.158 0-.474-.204-.882-.609-1.221-.399-.348-.984-.618-1.758-.801-.816-.192-1.677-.375-2.589-.54-.9-.174-1.749-.39-2.544-.651-1.821-.594-3.135-1.389-3.939-2.397-.792-1.02-1.191-2.277-1.191-3.783 0-2.013.9-3.654 2.703-4.926 1.812-1.281 4.14-1.917 6.975-1.917 1.425 0 2.832.141 4.218.417 1.395.273 2.604.618 3.618 1.035l-2.352 3.867c-.453-.228-.939-.438-1.458-.627-1.257-.474-2.547-.711-3.864-.711-.468 0-.933.033-1.395.102-.456.057-.897.177-1.323.348-.378.147-.702.369-.975.669-.27.291-.408.624-.408 1.002 0 .573.219 1.014.654 1.323.438.303 1.263.579 2.472.831.795.162 1.554.321 2.283.477.738.156 1.527.369 2.367.639 1.659.543 2.883 1.287 3.663 2.226.795.93 1.194 2.139 1.194 3.636z"/><path d="m350.055 136.503h-6.759v17.457h-5.58v-17.457h-6.762v-4.185h19.101z"/><path d="m373.782 153.96h-16.647v-21.642h16.647v4.185h-11.094v3.735h10.368v4.185h-10.368v5.352h11.094z"/><path d="m411.009 153.96h-5.85l-.498-10.431-6.039 10.428h-3.852l-6.045-10.428-.495 10.431h-5.559l.792-21.642h5.442l7.941 14.958 7.929-14.958h5.439z"/><path d="m299.955 132.318-8.328 13.272v8.37h-5.586v-8.109l-8.529-13.533h6.339l5.1 8.37 4.872-8.37z"/><path d="m323.733 146.769c0 2.127-.906 3.864-2.715 5.202-1.803 1.326-4.257 1.989-7.356 1.989-1.791 0-3.357-.153-4.695-.465-1.329-.321-2.574-.72-3.735-1.206l1.791-4.182c.702.402 1.902.843 2.685 1.116 1.434.495 2.811.741 4.131.741.339 0 .783-.03 1.335-.087.552-.06 1.002-.153 1.353-.291.426-.174.774-.393 1.047-.657.282-.258.42-.648.42-1.158 0-.474-.204-.882-.612-1.221-.396-.348-.984-.618-1.758-.801-.813-.192-1.674-.375-2.586-.54-.903-.174-1.749-.39-2.547-.651-1.818-.594-3.132-1.389-3.936-2.397-.795-1.02-1.194-2.277-1.194-3.783 0-2.013.903-3.654 2.706-4.926 1.812-1.281 4.137-1.917 6.975-1.917 1.425 0 2.832.141 4.215.417 1.398.273 2.604.618 3.618 1.035l-2.349 3.867c-.453-.228-.939-.438-1.455-.627-1.26-.474-2.55-.711-3.87-.711-.465 0-.93.033-1.392.102-.456.057-.897.177-1.323.348-.378.147-.705.369-.975.669-.273.291-.408.624-.408 1.002 0 .573.219 1.014.654 1.323.438.303 1.26.579 2.469.831.798.162 1.56.321 2.286.477.735.156 1.527.369 2.367.639 1.659.543 2.88 1.287 3.663 2.226.795.93 1.191 2.139 1.191 3.636z"/><path d="m429.993 132.372v1.152h.03c.096 0 4.404.078 4.404 1.89v15.558c0 1.044-1.965 1.884-4.404 1.884h-.03v1.152h5.829 1.56 5.829v-1.152h-.03c-2.442 0-4.407-.84-4.407-1.884v-15.558c0-1.812 4.311-1.89 4.407-1.89h.03v-1.152h-5.829-1.56z" fill-rule="evenodd"/></g><path clip-rule="evenodd" d="m106.074 26.892-28.365 29.967-18.738-12.849s6.165-5.88.54-10.164c-4.386-3.342-16.686 3.744-16.152 17.658.627 16.053 10.545 25.149 21.501 25.149 10.176 0 12.849-8.202 12.849-8.202h22.797v18.912l32.046-84.552h36.663l29.436 75.996s2.139 4.005 4.278 5.073c0 0 .123-49.845.123-51.249 0-1.395-.186-2.937-1.059-3.939-1.434-1.653-3.882-2.337-3.882-2.337v-23.544h51.369c26.649 0 33.483 7.224 41.208 21.141 10.668-14.361 25.353-23.82 46.293-23.82 21.54 0 36.786 7.944 45.492 21.138 12.159-14.535 31.728-21.27 49.635-21.27 22.008 0 40.386 10.665 49.899 27.159v-24.348h49.497l5.214 13.239 3.888-13.239h51.102v23.007s-2.946.807-3.759 2.136c-.795 1.311-.657 5.496-.657 5.496l7.131 45.477c.297 1.479.825 3.024 2.1 4.155 1.479 1.32 3.477 1.074 3.477 1.074v26.217h-51.369v-19.803h-29.433v19.854h-48.294v-12.906s-17.655 15.525-40.404 15.525c-29.115 0-48.567-21.405-48.567-21.405v18.729s-2.139 0-34.242 0c-30.477 0-56.643-16.677-63.951-47.091-3.465 3.315-18.738 14.22-37.062 18.33-1.422.318-2.133.852-2.133 2.397 0 2.817 6.018 3.819 6.018 3.819v22.542s-158.4 0-187.827 0c-34.791.009-62.736-23.805-62.736-54.039 0-30.237 21.789-55.926 57.909-55.926 34.518 0 48.168 26.493 48.168 26.493z" fill="#141414" fill-rule="evenodd"/><path clip-rule="evenodd" d="m92.556 27.363-15.111 15.843s-.801.408-1.47.408c-.672 0-1.611-.675-1.611-.675l-1.872-1.596s-.537-.129-.537-.672c0-.528 1.476-1.875 1.476-4.416 0-2.544-.534-13.113-16.857-13.113-16.317 0-23.544 15.252-23.544 27.831 0 12.576 7.755 35.586 33.183 35.586 14.787 0 17.916-8.304 17.916-8.304h5.085v21.678h-27.825c-33.174 0-51.639-25.959-51.639-44.685 0-28.719 24.966-44.652 47.628-44.652 21.939.003 35.178 16.767 35.178 16.767z" fill="#fff" fill-rule="evenodd"/><path clip-rule="evenodd" d="m139.389 12.981h22.875l27.828 72.78c.798 1.998 2.139 3.882 3.474 5.478 1.332 1.608 4.545 2.685 4.545 2.685v6.279h-33.57v-6.42s2.136.276 3.21-1.605c1.068-1.872 1.068-3.342.27-5.211-.804-1.878-6.435-16.725-6.435-16.725h-27.42s-5.613 14.982-6.156 16.32c-.534 1.335-.534 3.48 0 4.812.891 2.226 4.017 2.553 4.017 2.553v6.279h-26.895v-6.279s2.445-.843 4.281-2.685c2.007-2.004 2.673-4.146 2.673-4.146zm-.675 43.611h17.664l-9.096-25.419z" fill="#fff" fill-rule="evenodd"/><path clip-rule="evenodd" d="m208.815 12.981h42.813c15.786 0 31.566 5.613 31.566 23.805 0 18.195-11.502 24.624-21.399 29.175-11.43 5.247-26.487 9.363-26.487 9.363v13.911s.135.939 1.47 2.532c1.338 1.608 2.811 2.013 2.811 2.013v6.42h-31.038v-6.276s1.869-.408 3.216-1.746c1.329-1.338 1.602-2.943 1.602-2.943v-62.88s.123-2.679-.936-3.741c-1.068-1.08-3.615-2.547-3.615-2.547v-7.086zm26.757 13.107v37.188s25.152-10.428 25.152-25.146c0-18.195-25.152-12.042-25.152-12.042z" fill="#fff" fill-rule="evenodd"/><path clip-rule="evenodd" d="m375.912 27.516-15.114 15.846s-.804.402-1.476.402c-.663 0-1.599-.672-1.599-.672l-1.878-1.608s-.534-.123-.534-.657c0-.54 1.467-1.887 1.467-4.416 0-2.544-.528-13.116-16.854-13.116s-23.547 15.246-23.547 27.825c0 12.57 7.761 35.589 33.186 35.589 14.787 0 17.922-8.298 17.922-8.298h5.085v21.669h-27.834c-33.171 0-51.639-25.947-51.639-44.682 0-28.71 24.966-44.652 47.628-44.652 21.942 0 35.187 16.77 35.187 16.77z" fill="#fff" fill-rule="evenodd"/><path clip-rule="evenodd" d="m430.098 102.714c-28.902 0-49.674-21.105-49.674-46.785 0-25.698 21.309-45.6 49.674-45.6 28.353 0 49.665 19.902 49.665 45.6 0 25.677-20.775 46.785-49.665 46.785zm-25.692-46.389c0 25.689 13.11 32.106 25.692 32.106 12.567 0 25.953-8.025 25.953-32.106 0-24.078-14.985-32.109-25.953-32.109-10.971 0-25.692 6.414-25.692 32.109z" fill="#fff" fill-rule="evenodd"/><path clip-rule="evenodd" d="m492.699 13.035h31.848l11.505 35.532 12.303-35.586h33.309v5.214s-2.217.936-3.201 2.142c-1.203 1.473-1.203 2.538-.939 4.689.267 2.133 8.826 60.198 9.096 62.34.273 2.142.534 3.345 1.068 4.818.534 1.458 3.081 2.67 3.081 2.67v5.397h-31.98v-5.796s2.808-.399 3.753-1.743c.936-1.341 1.332-2.142 1.068-4.281-.27-2.139-7.89-50.835-7.89-50.835l-13.914 43.077h-16.857l-13.785-40.41-6.954 47.631s-.27 2.859.804 4.419c1.47 2.142 4.155 2.142 4.155 2.142v5.748h-27.705v-6.144s2.208-.339 3.81-2.22c1.602-1.866 1.875-4.281 1.875-4.281l10.104-62.808s.606-2.349-.066-3.411c-.705-1.128-4.485-2.076-4.485-2.076v-6.228z" fill="#fff" fill-rule="evenodd"/><path d="m443.22 132.372v1.152h.03c.096 0 4.404.078 4.404 1.89v15.558c0 1.044-1.965 1.884-4.404 1.884h-.03v1.152h5.826 1.56 5.829v-1.152h-.03c-2.439 0-4.404-.84-4.404-1.884v-15.558c0-1.812 4.308-1.89 4.404-1.89h.03v-1.152h-5.829-1.56z" fill="#fff" fill-rule="evenodd"/><path d="m456.444 132.372v1.152h.03c.096 0 4.404.078 4.404 1.89v15.558c0 1.044-1.962 1.884-4.404 1.884h-.03v1.152h5.829 1.56 5.826v-1.152h-.027c-2.442 0-4.407-.84-4.407-1.884v-15.558c0-1.812 4.308-1.89 4.407-1.89h.027v-1.152h-5.826-1.56z" fill="#fff" fill-rule="evenodd"/></svg>