<svg viewBox="0 0 200 40" xmlns="http://www.w3.org/2000/svg"><path d="m55.916 24.22h-3.72l-.78 4.53h-5.7l3.3-18.75h9c3.4 0 5.1 1.58 5.1 4.74 0 1.5-.21 2.853-.63 4.06-.42 1.213-.883 2.177-1.39 2.89-.513.707-1.217 1.307-2.11 1.8-.887.487-1.91.73-3.07.73zm-.75-9.42h-1.32l-.81 4.62h1.32c.68 0 1.193-.073 1.54-.22.353-.153.58-.5.68-1.04.26-1.48.39-2.29.39-2.43 0-.38-.15-.63-.45-.75-.3-.12-.75-.18-1.35-.18zm13.2 13.95h-5.7l3.3-18.75h5.7zm19.38 0h-5.37l-3.06-6.66c-.08-.14-.12-.337-.12-.59 0-.247.02-.53.06-.85h-.24l-1.41 8.1h-5.7l3.3-18.75h5.37l3.06 6.66c.06.14.09.337.09.59 0 .247-.02.53-.06.85h.24l1.44-8.1h5.7zm14.07 0h-10.26l3.3-18.75h9.24c1.44 0 2.483.25 3.13.75.653.5.98 1.27.98 2.31 0 1.52-.337 2.77-1.01 3.75-.667.98-1.48 1.59-2.44 1.83l-.03.18c1.8.34 2.7 1.53 2.7 3.57 0 1.8-.49 3.31-1.47 4.53-.98 1.22-2.36 1.83-4.14 1.83zm-1.02-7.47h-2.25l-.54 3.06h2.22c.5 0 .88-.2 1.14-.6.26-.4.39-.91.39-1.53 0-.62-.32-.93-.96-.93zm.84-7.17h-1.8l-.51 2.79h1.77c.92 0 1.38-.65 1.38-1.95 0-.56-.28-.84-.84-.84zm12.69 11.67-1.17 2.97h-6l7.89-18.75h8.82l1.32 18.75h-6.03l-.12-2.97zm4.26-10.02h-.3l-2.1 5.25h2.4zm20.82 8.19-.84 4.8h-11.4l3.3-18.75h5.7l-2.46 13.95zm12.78 0-.84 4.8h-11.4l3.3-18.75h5.7l-2.46 13.95z" fill="#fff"/><path d="m52.224 32.074c-.225-.032-.362-.068-1.574-.415-4.047-1.154-8.644-2.55-10.539-3.199-1.203-.412-1.511-.541-1.912-.808-.268-.178-.433-.314-.658-.54-.629-.628-1.016-1.38-1.177-2.281-.033-.193-.034-.207-.034-.658 0-.383.004-.484.022-.603.114-.735.396-1.38.862-1.979.126-.162.441-.486.602-.619.638-.529 1.389-.851 2.215-.95.233-.029.689-.029.923 0 .498.06.932.19 1.379.413.41.204 1.075.644 2.383 1.577 1.805 1.29 5.121 3.77 7.612 5.695.149.115.357.276.462.357.104.081.307.238.448.349.716.562 1.128 1.138 1.243 1.742.03.151.03.419.001.564-.041.208-.125.405-.243.574-.089.128-.338.373-.466.458-.261.171-.542.277-.859.322-.167.023-.524.024-.69.001zm-11.375-6.441c.473-.128.834-.441 1.027-.891.241-.558.096-1.232-.354-1.66-.298-.282-.736-.445-1.122-.416-.784.058-1.385.671-1.416 1.446-.031.767.524 1.433 1.293 1.554.021.002.132.003.246.001.178-.003.226-.007.326-.034z" fill="#ccc"/><path d="m117.794 22.03c-.347-.033-.785-.131-1.117-.251-1.323-.48-2.36-1.543-2.803-2.874-.337-1.015-.309-2.127.083-3.114.232-.584.548-1.068.99-1.524.365-.373.736-.648 1.191-.883 1.514-.781 3.349-.648 4.738.341.218.157.383.297.589.504.722.721 1.169 1.624 1.31 2.648.026.198.037.772.019.984-.122 1.346-.82 2.555-1.93 3.347-.643.458-1.438.752-2.227.823-.162.013-.685.013-.843-.001zm-2.01-2.847c-.051-.15-.105-.379-.133-.55-.028-.19-.028-.653 0-.848.117-.769.452-1.426.996-1.956.546-.531 1.205-.849 1.957-.945.186-.024.614-.02.79.007.177.027.405.081.55.131.062.021.113.036.117.033.007-.009-.176-.141-.289-.21-.353-.214-.746-.349-1.184-.408-.154-.019-.582-.019-.732.002-.903.124-1.675.606-2.176 1.359-.098.146-.26.47-.323.642-.322.88-.204 1.884.314 2.67.053.081.141.194.145.188.003-.003-.012-.054-.032-.115z" fill="#141414"/><path d="m161.39 20.017c-.225.032-.362.068-1.574.415-4.047 1.154-8.644 2.55-10.539 3.199-1.203.412-1.511.541-1.912.808-.268.178-.433.314-.658.54-.629.628-1.016 1.38-1.177 2.281-.033.193-.034.207-.034.658 0 .383.004.484.022.603.114.735.396 1.38.862 1.979.126.162.441.486.602.619.638.529 1.389.851 2.215.95.233.029.689.029.923 0 .498-.06.932-.19 1.379-.413.41-.204 1.075-.644 2.383-1.577 1.805-1.29 5.121-3.77 7.612-5.695.149-.115.357-.276.462-.357.104-.081.307-.238.448-.349.716-.562 1.128-1.138 1.243-1.742.03-.151.03-.419.001-.564-.041-.208-.125-.405-.243-.574-.089-.128-.338-.373-.466-.458-.261-.171-.542-.277-.859-.322-.167-.023-.524-.024-.69-.001zm-11.375 6.441c.473.128.834.441 1.027.891.241.558.096 1.232-.354 1.66-.298.282-.736.445-1.122.416-.784-.058-1.385-.671-1.416-1.446-.031-.767.524-1.433 1.293-1.554.021-.002.132-.003.246-.001.178.003.226.007.326.034z" fill="#ccc" transform="matrix(-1 0 0 -1 309.165644 52.090991)"/></svg>