<svg xmlns="http://www.w3.org/2000/svg"><g fill="#fff"><path d="m42.527 140.618c10.758-.004 21.47-.661 31.576-4.508 27.03-9.314 44.938-37.878 44.044-66.076-.784-13.822-5.467-27.499-13.822-38.577-12.442-17.588-34.112-27.563-55.488-27.03l-48.083-.021v40.63l-.128.558.128-.008v148.453h19.566v-53.421m-.192-118.688c11.018-.021 22.032-.256 33.029.252 16.374 1.086 32.284 10.23 40.298 24.733 10.039 17.163 8.893 40.388-3.485 56.063-8.636 11.632-22.693 19.076-37.218 19.31-10.805.149-21.389.068-32.432.068z"/><path d="m330.801 113.477v-36.852h-28.786c1.956 6.958 3.025 14.291 3.025 21.875 0 5.122-.498 10.12-1.41 14.977z"/><path d="m296.591 134.444c-13.221 26.527-40.6 44.755-72.254 44.755-44.571 0-80.703-36.131-80.703-80.703 0-44.568 36.132-80.703 80.703-80.703 28.829 0 54.108 15.126 68.381 37.861h20.294c-15.935-32.927-49.637-55.654-88.679-55.654-54.397 0-98.496 44.099-98.496 98.496 0 54.401 44.099 98.5 98.496 98.5 41.709 0 77.333-25.935 91.696-62.552z"/><path d="m441.087 42.003v-37.597h-58.846-16.591-19.438v189.697h36.029v-80.626h56.136v-36.852h-56.136v-34.622z"/><path d="m592.143 194.103-56.357-98.564 52.105-91.133h-43.362l-30.426 53.212-30.422-53.212h-43.361l52.104 91.133-56.357 98.564h43.362l34.674-60.643 34.678 60.643z"/><path d="m20.643 231.64v-19.599l-8.283 19.599h-1.904l-8.253-19.599v19.599h-2.203v-22.015h3.426l8.014 18.739 7.981-18.739h3.429v22.015z"/><path d="m34.657 232.028c-4.435 0-7.478-2.68-7.478-8.666v-13.737h2.207v13.737c0 4.495 1.85 6.642 5.301 6.642 3.396 0 5.275-2.143 5.275-6.642v-13.737h2.202v13.737c0 5.986-3.037 8.666-7.507 8.666z"/><path d="m46.502 231.64v-22.015h2.207v20.017h9.114v1.998z"/><path d="m63.924 211.623v20.017h-2.203v-20.017h-5.036v-1.994h12.275v1.994z"/><path d="m71.244 231.64v-22.015h2.207v22.015z"/><path d="m98.441 231.64v-19.599l-8.283 19.599h-1.905l-8.253-19.599v19.599h-2.203v-22.015h3.426l8.01 18.739 7.985-18.739h3.425v22.015z"/><path d="m104.981 231.64v-22.015h12.032v1.994h-9.829v7.895h9.501v1.994h-9.501v8.134h9.829v1.998z"/><path d="m126.689 231.64h-5.931v-22.015h5.186c3.992 0 6.314.477 8.402 1.73 3.276 1.934 5.002 5.211 5.002 9.352 0 6.349-4.052 10.933-12.659 10.933zm6.434-18.589c-1.67-1.01-3.754-1.428-7.09-1.428h-3.068v18.023h3.068c3.903 0 6.166-.566 7.925-1.964 2.024-1.64 3.157-4.171 3.157-7.06 0-3.281-1.461-6.05-3.992-7.571z"/><path d="m142.731 231.64v-22.015h2.207v22.015z"/><path d="m166.323 231.64-3.191-7.418h-10.247l-3.217 7.418h-2.322l9.441-22.015h2.476l9.472 22.015zm-8.283-19.51-4.32 10.098h8.551z"/><path d="m179.203 231.64v-22.015h12.037v1.994h-9.834v7.895h9.506v1.994h-9.506v8.134h9.834v1.998z"/><path d="m210.298 231.64-13.11-19.361v19.361h-2.207v-22.015h2.982l12.331 18.262v-18.262h2.207v22.015z"/><path d="m222.02 211.623v20.017h-2.203v-20.017h-5.036v-1.994h12.275v1.994z"/><path d="m229.34 231.64v-22.015h12.036v1.994h-9.829v7.895h9.501v1.994h-9.501v8.134h9.829v1.998z"/><path d="m253.553 223.417 6.166 8.223h-2.74l-7.418-9.978c6.165 0 8.249-1.07 8.249-5.032 0-3.665-2.262-5.007-7.388-5.007h-3.098v20.017h-2.203v-22.015h5.45c6.911 0 9.472 2.505 9.472 7.09.004 3.903-2.263 6.259-6.49 6.702z"/><path d="m268.202 211.623v20.017h-2.207v-20.017h-5.032v-1.994h12.271v1.994z"/><path d="m291.074 231.64-3.187-7.418h-10.252l-3.217 7.418h-2.322l9.442-22.015h2.476l9.471 22.015zm-8.283-19.51-4.321 10.098h8.547z"/><path d="m295.884 231.64v-22.015h2.207v22.015z"/><path d="m317.746 231.64-13.106-19.361v19.361h-2.207v-22.015h2.978l12.335 18.262v-18.262h2.207v22.015z"/><path d="m344.934 231.64v-19.599l-8.283 19.599h-1.905l-8.253-19.599v19.599h-2.202v-22.015h3.425l8.015 18.739 7.98-18.739h3.426v22.015z"/><path d="m351.474 231.64v-22.015h12.033v1.994h-9.83v7.895h9.502v1.994h-9.502v8.134h9.83v1.998z"/><path d="m382.565 231.64-13.11-19.361v19.361h-2.203v-22.015h2.978l12.335 18.262v-18.262h2.203v22.015z"/><path d="m394.291 211.623v20.017h-2.207v-20.017h-5.032v-1.994h12.271v1.994z"/><path d="m416.114 222.735h-4.231v8.905h-2.207v-22.015h6.08c6.046 0 8.488 2.054 8.488 6.672.004 4.172-2.143 6.438-8.13 6.438zm-1.103-11.112h-3.128v9.114h4.078c4.38 0 6.05-1.248 6.05-4.44 0-4.465-2.799-4.674-7-4.674z"/><path d="m427.124 231.64v-22.015h2.207v20.017h9.118v1.998z"/><path d="m458.786 231.64-3.192-7.418h-10.247l-3.217 7.418h-2.322l9.442-22.015h2.476l9.471 22.015zm-8.283-19.51-4.321 10.098h8.552z"/><path d="m468.99 224.282v7.358h-2.203v-7.358l-7.626-14.657h2.441l6.255 12.335 6.408-12.335h2.412z"/><path d="m478.811 231.64v-22.015h12.037v1.994h-9.834v7.895h9.506v1.994h-9.506v8.134h9.834v1.998z"/><path d="m503.021 223.417 6.165 8.223h-2.739l-7.418-9.978c6.165 0 8.253-1.07 8.253-5.032 0-3.665-2.263-5.007-7.389-5.007h-3.097v20.017h-2.207v-22.015h5.449c6.911 0 9.476 2.505 9.476 7.09.005 3.903-2.262 6.259-6.493 6.702z"/><path d="m526.988 222.735h-4.231v8.905h-2.203v-22.015h6.076c6.046 0 8.491 2.054 8.491 6.672 0 4.172-2.143 6.438-8.133 6.438zm-1.1-11.112h-3.131v9.114h4.082c4.38 0 6.05-1.248 6.05-4.44 0-4.465-2.804-4.674-7.001-4.674z"/><path d="m548.607 232.028c-6.583 0-11.56-4.887-11.56-11.321 0-6.583 4.858-11.47 11.411-11.47 4.559 0 8.432 2.327 10.127 6.11h-2.475c-1.875-2.952-4.465-4.082-7.567-4.082-5.241 0-9.263 4.052-9.263 9.353 0 5.155 4.201 9.382 9.293 9.382 3.221 0 5.334-1.219 7.656-4.141h2.442c-2.199 4.086-5.595 6.169-10.064 6.169z"/><path d="m572.301 211.623v7.955h8.641v1.994h-8.641v10.068h-2.203v-22.015h11.172v1.994h-8.969z"/><path d="m597.405 231.64-6.225-9.412-6.255 9.412h-2.59l7.478-11.261-7.061-10.754h2.591l5.842 8.82 5.807-8.82h2.561l-7.06 10.754 7.507 11.261z"/><path d="m563.656 222.616c-.895 0-1.607-.711-1.607-1.606 0-.891.712-1.607 1.607-1.607.865 0 1.606.716 1.606 1.607 0 .895-.741 1.606-1.606 1.606z"/></g></svg>