<svg xmlns="http://www.w3.org/2000/svg"><g fill="#fff"><path d="m84.453 80.481c8.799-10.287 21.867-16.812 36.465-16.812 2.928 0 5.793.279 8.577.777 1.878-5.133 2.901-10.677 2.901-16.464 0-26.499-21.489-47.982-47.988-47.982-26.505 0-47.988 21.483-47.988 47.985 0 5.793 1.032 11.343 2.913 16.479 2.808-.51 5.697-.795 8.655-.795 14.598.003 27.663 6.528 36.465 16.812zm45.042-16.032c-5.76 15.768-19.554 27.657-36.423 30.738 1.875 5.136 2.904 10.689 2.904 16.47 0 11.907-4.344 22.791-11.523 31.176 8.802 10.287 21.867 16.815 36.465 16.815 26.505 0 47.988-21.486 47.988-47.991 0-23.574-17.001-43.161-39.411-47.208zm-53.661 30.747c-16.905-3.051-30.729-14.952-36.501-30.729-22.368 4.074-39.333 23.646-39.333 47.19 0 26.505 21.486 47.991 47.988 47.991 14.598 0 27.663-6.528 36.465-16.812-7.176-8.388-11.52-19.272-11.52-31.176 0-5.784 1.026-11.331 2.901-16.464zm0 0c2.784.504 5.646.774 8.574.774 2.961 0 5.853-.273 8.664-.786-1.983-5.433-4.932-10.392-8.619-14.706-3.69 4.314-6.636 9.288-8.619 14.718z"/><path d="m267.966 59.187c0 9.423-3.201 16.647-9.6 21.672-6.402 5.022-15.468 7.533-27.204 7.533h-15.066v40.269h-6.801v-97.476h23.868c23.202 0 34.803 9.333 34.803 28.002zm-51.87 23.337h13.401c10.977 0 18.912-1.812 23.802-5.436 4.887-3.621 7.332-9.501 7.332-17.634 0-7.512-2.31-13.077-6.933-16.701-4.623-3.621-11.778-5.433-21.468-5.433h-16.134z"/><path d="m371.109 79.791c0 15.468-3.864 27.702-11.601 36.702-7.737 9.006-18.402 13.506-32.001 13.506-13.56 0-24.204-4.5-31.938-13.506-7.734-9-11.601-21.276-11.601-36.837 0-15.51 3.9-27.723 11.7-36.636 7.803-8.913 18.459-13.368 31.971-13.368 13.605 0 24.246 4.479 31.938 13.434 7.686 8.958 11.532 21.192 11.532 36.705zm-79.74 0c0 13.956 3.111 24.744 9.333 32.37 6.222 7.623 15.159 11.436 26.805 11.436 11.733 0 20.703-3.777 26.901-11.337 6.198-7.557 9.3-18.375 9.3-32.469 0-14.046-3.102-24.813-9.3-32.301-6.198-7.491-15.123-11.235-26.769-11.235-11.601 0-20.547 3.777-26.835 11.334-6.291 7.554-9.435 18.291-9.435 32.202z"/><path d="m400.314 86.19v42.471h-6.804v-97.476h23.202c12.093 0 21.027 2.232 26.808 6.699 5.778 4.467 8.667 11.193 8.667 20.169 0 6.537-1.722 12.048-5.166 16.536-3.447 4.491-8.676 7.713-15.702 9.669l26.469 44.406h-8.133l-25.14-42.474zm0-5.868h18.6c8.223 0 14.601-1.83 19.137-5.499 4.533-3.666 6.804-9.075 6.804-16.236 0-7.422-2.226-12.819-6.669-16.2-4.446-3.378-11.694-5.067-21.741-5.067h-16.131z"/><path d="m500.055 128.661h-6.864v-91.074h-31.674v-6.402h70.209v6.402h-31.671z"/><path d="m600 103.524c0 8.139-2.991 14.583-8.97 19.338s-13.923 7.134-23.835 7.134c-11.913 0-21.048-1.314-27.405-3.939v-6.801c7.026 2.979 15.978 4.47 26.868 4.47 8.004 0 14.349-1.833 19.038-5.496 4.689-3.672 7.032-8.484 7.032-14.439 0-3.687-.777-6.744-2.337-9.168-1.554-2.421-4.086-4.632-7.596-6.633-3.516-2.001-8.667-4.158-15.471-6.468-9.954-3.42-16.833-7.122-20.634-11.097-3.804-3.981-5.703-9.282-5.703-15.903 0-7.29 2.856-13.233 8.571-17.835 5.712-4.602 13.053-6.9 22.032-6.9 9.156 0 17.757 1.734 25.803 5.199l-2.466 5.868c-8.091-3.378-15.825-5.07-23.202-5.07-7.2 0-12.933 1.668-17.199 5.004-4.272 3.333-6.402 7.869-6.402 13.602 0 3.6.651 6.558 1.962 8.868 1.308 2.313 3.459 4.389 6.432 6.237 2.979 1.842 8.091 4.056 15.336 6.633 7.599 2.625 13.311 5.166 17.133 7.635 3.816 2.466 6.609 5.268 8.364 8.4 1.77 3.129 2.649 6.918 2.649 11.361z"/></g></svg>