<svg enable-background="new 0 0 598.189 350.26" preserveAspectRatio="none" xmlns="http://www.w3.org/2000/svg"><g fill="#1e1e1e"><path d="m634.928 344.006c-1.143 0-2.442-.236-3.858-.702-2.951-.972-5.69-1.731-7.707-2.138-3.24-.651-8.27-1.618-13.835-2.52-2.277-.368-17.282-1.794-22.997-1.794l-.135.001c-7.112.03-13.57.225-15.188.327-1.782.112-3.807.168-6.019.168-26.09 0-73.291-7.531-80.041-11.835-1.327-.459-24.825-8.572-34.668-12.082-1.91-.682-9.581-2.948-15.145-4.061-9.018-1.803-21.481-3.981-26.816-4.469-.249-.021-.556-.041-.882-.061-.83-.052-1.772-.111-2.298-.245-1.476-.371-4.147-1.422-5.428-4.29-1.674-3.749-2.982-37.95-3.037-39.405.006-.138.141-2.222.685-3.389 3.375-8.412 17.206-37.071 53.005-51.654.262-.106.716-.296 1.19-.496.589-.247 1.209-.507 1.536-.638 1.024-.411 2.589-.9 4.233-.9 2.111 0 3.758.793 4.895 2.358.349.478 1 2.482 1.106 3.402l.016.139c.078.684.166 1.46.272 2.169.36 2.415 1.477 5.869 4.758 8.608.168.149 15.657 13.857 30.628 13.857.537 0 1.074-.019 1.597-.053.472-.031 1.993-.38 2.779-.695 1.94-.779 5.801-2.091 9.852-2.124l66.181-3.124c.37-.026 38.226-2.668 49.618-5.762.333-.091 1.024-.255 1.747-.425.761-.181 1.557-.369 1.988-.485 1.027-.277 2.436-.657 3.735-.657 2.552 0 3.986 1.443 4.265 4.289.031.513 2.938 50.256.002 112.748-.002.052-.235 5.937-6.034 5.938zm-48.398-8.146c5.625 0 20.441 1.367 23.155 1.807 5.58.904 10.623 1.872 13.872 2.526 2.056.415 4.834 1.185 7.823 2.168 1.315.433 2.51.652 3.547.652 4.827 0 5.035-4.779 5.041-4.983 2.934-62.444.031-112.137.001-112.632-.228-2.327-1.239-3.373-3.276-3.373-1.168 0-2.449.345-3.478.623-.437.118-1.244.309-2.016.491-.709.168-1.388.329-1.715.417-11.486 3.119-49.438 5.769-49.82 5.795l-66.211 3.126c-3.908.032-7.634 1.3-9.509 2.053-.86.344-2.466.723-3.083.764-.545.037-1.104.055-1.663.055-15.354 0-31.12-13.958-31.277-14.099-3.508-2.927-4.706-6.627-5.092-9.213-.107-.725-.197-1.51-.276-2.202l-.015-.139c-.102-.877-.731-2.668-.922-2.93-.941-1.294-2.317-1.95-4.093-1.95-1.485 0-2.921.451-3.863.83-.325.129-.939.387-1.521.632-.479.201-.936.393-1.2.5-35.437 14.435-49.12 42.784-52.47 51.129-.476 1.021-.603 2.986-.604 3.006.463 12.202 1.675 36.128 2.952 38.987 1.109 2.486 3.462 3.406 4.766 3.733.438.113 1.368.17 2.115.217.336.021.652.041.909.064 5.371.49 17.88 2.676 26.923 4.484 5.61 1.123 13.354 3.41 15.283 4.098 10.075 3.594 34.471 12.014 34.716 12.099l.111.054c6.3 4.135 54.119 11.707 79.548 11.707 2.192 0 4.196-.056 5.958-.167 1.627-.102 8.113-.3 15.246-.329z" transform="matrix(.965926 .258819 -.258819 .965926 88.598191 -125.142003)"/><path d="m447.348 230.252.167-.038c.264-.061.537-.032.819.086.242.098.479.263.708.496.176.175.33.371.457.585.125.213.207.402.245.569.068.298.083.536.043.713-.04.178-.11.309-.211.394s-.211.141-.329.168c-.152.035-.299.012-.437-.07-.139-.082-.216-.196-.228-.347-.015-.129.014-.236.085-.321.072-.086.173-.15.301-.195.153-.035.273-.037.36-.006-.173-.406-.425-.724-.755-.955-.331-.232-.673-.307-1.029-.226l-.063.015c-.207.047-.407.185-.598.411-.207.254-.416.507-.628.757-.25.058-.55-.154-.902-.637-.543-.737-.896-1.179-1.061-1.324-.499-.447-1.049-.603-1.655-.465-.847.194-1.136.878-.867 2.051.127.556.361 1.081.701 1.576.34.496.807.978 1.404 1.448.482.379 1.022.726 1.621 1.043.598.316 1.196.568 1.796.761.599.191 1.135.299 1.608.322.309.009.578-.012.806-.064.271-.062.501-.144.689-.247.42-.242.579-.581.479-1.018-.048-.208-.149-.39-.306-.548s-.366-.298-.628-.42c-.44-.199-1-.363-1.681-.492l-1.635-.306-.429-.1c-.756-.207-1.273-.362-1.553-.466-.679-.253-1.145-.519-1.399-.797-.133-.146-.253-.304-.359-.471-.103-.163-.17-.31-.201-.442-.028-.125-.008-.199.059-.222.054-.019.201.095.441.345.17.171.383.318.638.441.451.213 1.311.448 2.582.699l.535.128 1.1.22c.219.05.438.099.658.146.351.09.693.21 1.024.356.218.089.417.197.6.324.286.197.512.41.678.639.166.228.279.476.339.738.088.382.062.758-.075 1.13-.138.371-.366.677-.683.918-.228.176-.491.299-.771.363l-.261.06-.433.022c-.267.002-.534-.012-.798-.041-.269-.03-.537-.078-.8-.142-1.489-.346-2.836-1.123-4.039-2.324-1.137-1.139-1.85-2.336-2.139-3.596-.197-.862-.195-1.57.008-2.121.204-.552.621-.9 1.253-1.044.78-.179 1.463.063 2.055.724l1.374 2.271.083-.02c.12-.377.265-.692.436-.949.172-.253.438-.422.801-.505zm-3.666-6.207c-.561-.175-1.129-.327-1.704-.453-.669-.146-1.105-.196-1.305-.15-.084.019-.118.057-.106.112.028.125.274.312.736.56s.904.431 1.325.545c.421.116.731.195.931.237.341.073.687.129 1.035.168.434.046.887.048 1.36.006-.55-.327-1.061-.582-1.534-.766zm-.31-2.547c-.329-.087-.662-.164-.995-.232-.413-.081-.686-.107-.817-.076-.104.023-.148.074-.131.15.026.111.243.263.652.454.36.165.76.319 1.201.458l.707.167c.237.049.456.078.656.091s.452.01.755-.009c-.267-.209-.531-.386-.79-.53-.257-.144-.526-.262-.804-.353zm1.139-3.586 1.654.385 2.454.563c.255.059.436.119.546.182.142.077.225.171.251.282.01.049.008.101-.009.156-.052.158-.147.252-.285.284-.112.025-.249.017-.412-.027l-2.362-.64-.385-.111c.162.103.312.232.45.39.19.221.305.423.349.611.044.194.014.362-.093.504-.078.104-.204.207-.379.305.164.08.341.197.529.351.145.126.27.261.372.401.102.142.169.285.202.431.065.284-.001.552-.2.802-.062.08-.145.164-.248.254.065.035.13.072.195.109.072.042.131.087.178.135.191.16.363.346.517.555.154.21.252.408.296.596.042.187.033.362-.029.522s-.165.311-.308.454l-.152.145.222.156c.455.327.728.693.82 1.094.043.188.032.362-.033.523-.065.162-.17.309-.314.445l-.166.137.23.145c.191.131.337.265.438.403s.172.3.215.487c.075.326-.017.581-.274.764-.162.125-.367.216-.617.273-.229.053-.527.048-.891-.014-.301-.064-.596-.156-.879-.277-.287-.12-.57-.276-.848-.468-.339-.237-.626-.501-.861-.795-.234-.293-.394-.617-.474-.971-.099-.429.025-.684.372-.765.129-.043.263-.016.403.083.078.055.131.127.159.216.027.118.037.212.032.283-.006.07-.023.131-.051.182-.03.05-.077.089-.143.12-.066.029-.1.057-.101.083-.002.027.002.056.01.091.038.167.187.355.447.566.225.183.488.343.79.482s.611.236.926.292c.317.056.6.055.849-.002.112-.026.205-.063.281-.114.076-.05.1-.138.071-.263-.035-.153-.207-.315-.516-.485-.243-.134-.562-.269-.959-.406-.205-.07-.412-.135-.62-.196-.177-.053-.355-.104-.534-.152-.056-.024-.109-.147-.16-.369-.032-.139-.047-.256-.043-.352s.032-.142.083-.139l1.043.198c.245.047.408.075.491.085.129.022.29.04.483.053.059.001.099 0 .119-.005.07-.016.113-.057.131-.123s.016-.148-.006-.245c-.024-.104-.14-.249-.349-.435-.208-.186-.357-.299-.442-.337l-.299.068c-.093.022-.197.038-.311.05-.245.056-.486.082-.725.078-.239-.003-.516-.024-.833-.062-.151-.023-.307-.048-.462-.074-.156-.027-.319-.057-.489-.092-.924-.204-1.768-.507-2.527-.91-.835-.445-1.3-.875-1.395-1.292-.047-.201-.022-.358.072-.471s.246-.193.454-.241c.355-.081.836-.071 1.443.03.441.075.921.195 1.442.36.14.044.281.091.421.14.162.058.323.118.484.179.305.121.596.249.872.387.277.138.572.305.889.504l.649.442c.174-.039.319-.131.435-.274.117-.144.152-.32.104-.528-.032-.139-.142-.3-.33-.484-.151-.148-.302-.266-.454-.355l-.663.074c-.51.036-1.038-.007-1.586-.13l-.477-.121c-.685-.186-1.344-.469-1.98-.85-.635-.38-.982-.703-1.043-.966-.04-.174-.02-.308.061-.403.08-.096.218-.165.412-.21.299-.068.681-.066 1.146.006.469.072.928.185 1.376.337.299.106.593.226.882.357.344.162.634.326.869.491.191.132.376.286.555.465.029 0 .072-.006.128-.019.132-.031.234-.093.308-.186.073-.093.088-.234.046-.421-.038-.167-.158-.322-.359-.466s-.504-.268-.907-.373l-.139-.034c-.275-.064-.548-.136-.818-.218-.238-.073-.475-.15-.71-.232l-.796-.267c-.023-.009-.057-.058-.099-.147-.043-.089-.073-.175-.093-.258-.03-.132-.041-.238-.035-.321.007-.082.045-.116.114-.103.022.002.076.016.163.04.18.051.36.105.54.161.269.085.54.166.811.241.345.096.627.167.848.211.346.075.599.093.758.056.132-.03.186-.1.16-.211-.038-.167-.137-.312-.297-.437-.16-.124-.444-.263-.853-.418-.279-.106-.562-.202-.848-.287-.273-.082-.549-.158-.825-.228l-.67-.153c-.049-.019-.087-.068-.116-.149-.032-.087-.057-.176-.078-.267-.032-.138-.045-.253-.04-.341.005-.089.035-.125.09-.108l.614.146z" transform="matrix(.965926 .258819 -.258819 .965926 74.11348 -107.584499)"/><path d="m445.599 240.484c-6.957 0-12.617-5.66-12.617-12.617s5.66-12.618 12.617-12.618c6.958 0 12.618 5.661 12.618 12.618s-5.66 12.617-12.618 12.617zm0-24.242c-6.409 0-11.624 5.215-11.624 11.625s5.215 11.625 11.624 11.625c6.41 0 11.625-5.215 11.625-11.625s-5.215-11.625-11.625-11.625z" transform="matrix(.965926 .258819 -.258819 .965926 74.159694 -107.565353)"/><path d="m520.853 226.467-.211-.97c.366-.211 1.052-1.919 1.32-10.926l.007-.219c.027-.892.042-1.262.05-1.448.007-.165.008-.165.004-.301-.018-.712-.165-1.643-.76-2.032-.599-.391-1.425-.103-1.664-.005-.414.168-1.576.625-1.975.704-12.498 2.481-27.826-1.523-32.007-4.529-.22-.158-.912-.673-1.422-1.053l-.534-.396c-1.938-1.431-5.242-.197-5.277-.184l-.352-.928c.155-.059 3.848-1.436 6.219.313l.537.399c.505.376 1.19.886 1.408 1.043 3.443 2.475 18.221 6.944 31.233 4.363.237-.047 1.119-.375 1.795-.651.45-.185 1.605-.545 2.582.093.768.501 1.174 1.456 1.21 2.838.004.165.005.165-.005.368-.007.183-.022.551-.049 1.435l-.007.22c-.25 8.372-.818 11.588-2.102 11.866z" transform="matrix(.965926 .258819 -.258819 .965926 72.711038 -122.218362)"/><path d="m396.356 267.037h-3.815l-.084-.393c-.017-.078-1.659-7.936-1.541-19.349l.992.01c-.101 9.86 1.12 17.027 1.443 18.74h2.76c.042-.033.083-.076.078-.105-.389-2.285-1.276-8.677-1.111-18.649l.992.016c-.167 10.166.798 16.705 1.098 18.468.111.654-.396 1.074-.713 1.218z" transform="matrix(.965926 .258819 -.258819 .965926 79.985832 -93.224223)"/><path d="m393.122 262.157c-.021-.016-2.115-1.665-5.821-2.138-3.436-.442-21.302-.674-24.849-.716-.861-.013-1.567-.6-1.891-1.569-.737-2.203-2.445-8.1-2.382-15.285l.993.009c-.062 7.034 1.609 12.807 2.33 14.961.11.33.381.882.963.892 4.994.059 21.559.287 24.962.724 4.003.511 6.225 2.275 6.318 2.351z" transform="matrix(.965926 .258819 -.258819 .965926 78.11127 -88.708776)"/><path d="m400.083 248.357c-.165-9.965.722-16.361 1.111-18.649.005-.03-.038-.072-.08-.104h-2.76c-.323 1.697-1.544 8.792-1.441 18.74l-.993.01c-.113-11.011 1.425-19.345 1.674-19.596l.146-.147h3.621l.099.045c.317.145.824.564.712 1.219-.384 2.26-1.261 8.584-1.097 18.466z" transform="matrix(.965926 .258819 -.258819 .965926 75.321604 -95.155911)"/><path d="m363.177 243.507c-.063-7.185 1.644-13.084 2.381-15.286.325-.971 1.032-1.557 1.892-1.567 3.547-.043 21.415-.278 24.849-.716 3.706-.473 5.8-2.123 5.821-2.14l.623.772c-.093.075-2.315 1.842-6.318 2.352-3.4.435-19.967.664-24.963.724-.581.007-.852.56-.962.89-.721 2.155-2.392 7.927-2.33 14.962z" transform="matrix(.965926 .258819 -.258819 .965926 73.454656 -90.638039)"/><path d="m390.423 263.233c-.036-.17-3.546-17.133 0-34.263l.972.201c-3.502 16.92-.036 33.689 0 33.856z" transform="matrix(.965926 .258819 -.258819 .965926 76.988739 -92.58407)"/><path d="m399.125 268.074h-.54c-1.215 0-2.375-.973-2.587-2.168-.014-.073-1.297-7.443-1.272-17.78l.993.003c-.025 10.25 1.243 17.531 1.256 17.604.13.732.867 1.35 1.61 1.35h.54c.246 0 .469-.071.645-.202l.596.794c-.349.261-.778.399-1.241.399z" transform="matrix(.965926 .258819 -.258819 .965926 80.34717 -94.097829)"/><path d="m399.723 248.922c-.025-10.336 1.259-17.705 1.272-17.778.103-.583.428-1.128.914-1.537l.639.76c-.309.259-.513.596-.576.949-.012.073-1.281 7.362-1.256 17.604z" transform="matrix(.965926 .258819 -.258819 .965926 75.594445 -95.668603)"/><path d="m186.762 205.269h26.605v.993h-26.605z" transform="matrix(.965927 .258819 -.258811 .965939 233.540545 7.726602)"/><path d="m7.549 106.312h27.598v.993h-27.598z" transform="matrix(.965926 .258819 -.258811 .965923 380.323197 147.292858)"/><path d="m7.371 104.184h27.598v.993h-27.598z" transform="matrix(.965926 .258819 -.258815 .965907 380.322983 147.296871)"/><path d="m6.874 102.034h28.095v.993h-28.095z" transform="matrix(.965926 .258819 -.258811 .965923 380.323169 147.292926)"/><path d="m184.458 196.714h28.095v.993h-28.095z" transform="matrix(.965926 .258819 -.258811 .965923 233.540555 7.72991)"/><path d="m6.253 97.379h28.095v.993h-28.095z" transform="matrix(.965926 .258819 -.258813 .965931 380.342504 147.702946)"/><path d="m5.882 95.616h28.591v.993h-28.591z" transform="matrix(.965926 .258819 -.258815 .965923 380.323222 147.294514)"/><path d="m6.06 93.475h28.095v.993h-28.095z" transform="matrix(.965925 .258819 -.258817 .96593 380.322339 147.297633)"/><path d="m5.882 91.353h28.095v.993h-28.095z" transform="matrix(.965926 .258819 -.258815 .965923 380.323217 147.294538)"/><path d="m5.882 89.199h28.095v.993h-28.095z" transform="matrix(.965926 .258819 -.258811 .965923 380.322429 147.295791)"/><path d="m6.06 87.061h28.095v.993h-28.095z" transform="matrix(.965926 .258819 -.258809 .965916 380.322269 147.296413)"/><path d="m184.28 181.757h28.095v.993h-28.095z" transform="matrix(.965925 .258819 -.258842 .965923 233.54645 7.729882)"/><path d="m184.776 179.602h27.598v.993h-27.598z" transform="matrix(.965926 .258819 -.258846 .965923 233.546359 7.732645)"/><path d="m7.549 80.647h27.598v.993h-27.598z" transform="matrix(.965927 .258819 -.258815 .965923 380.323219 147.29458)"/><path d="m185.769 175.338h27.598v.993h-27.598z" transform="matrix(.965926 .25882 -.258815 .965938 233.540954 7.729897)"/><path d="m186.762 173.188h26.605v.993h-26.605z" transform="matrix(.965927 .258819 -.258811 .965923 233.54074 7.729957)"/><path d="m611.209 333.808-.763-.078c-.638-.11-1.148-.216-1.658-.321-.591-.122-1.204-.249-1.956-.371-2.478-.401-16.365-1.794-22.004-1.794l-.135.001c-7.112.03-13.571.225-15.188.327-1.782.112-3.807.168-6.02.168-26.087 0-73.284-7.53-80.038-11.834-1.039-.35-15.333-5.159-26.241-8.965-.696-.244-1.849-1.441-2.142-2.84-.431-2.052-.414-2.856-.413-2.889v-62.609c-.011-.141-.306-4.375 1.546-6.371 1.258-1.355 3.185-1.386 5.625-.029.141.094 10.262 7.019 19.023 11.644 2.461 1.299 7.074 1.957 13.71 1.957 8.876 0 19.272-1.15 26.152-1.91 2.77-.307 4.958-.548 6.059-.599 1.705-.077 7.611-.294 15.091-.57 16.852-.62 42.32-1.558 53.565-2.126 4.048-.205 16.337-2.46 16.46-2.483l.056-.011.543.024.037.49c-.002.084-.004.168-.004.253 0 4.555 3.706 8.261 8.262 8.261 1.512 0 2.99-.412 4.276-1.191l.754-.457v.967l-1.202 75.946-.752-.486c-1.327-.859-2.869-1.313-4.461-1.313-4.538 0-8.229 3.691-8.229 8.227 0 .135.001.266.01.398zm-26.382-3.557c5.68 0 19.667 1.402 22.163 1.808.774.126 1.396.254 1.998.378.38.079.76.157 1.181.237.082-5.015 4.187-9.069 9.221-9.069 1.49 0 2.942.356 4.249 1.036l1.161-73.433c-1.25.603-2.624.919-4.025.919-4.996 0-9.08-3.981-9.248-8.937-2.45.444-12.383 2.215-16.056 2.4-11.251.569-36.723 1.507-53.579 2.128-7.476.276-13.382.493-15.083.57-1.069.049-3.242.289-5.994.593-6.902.763-17.33 1.916-26.261 1.916-6.895 0-11.531-.677-14.173-2.072-8.812-4.651-18.98-11.608-19.082-11.678-1.921-1.064-3.425-1.162-4.374-.14-1.559 1.678-1.287 5.621-1.283 5.66l.001 62.66c0 .019-.009.765.392 2.671.233 1.11 1.168 1.991 1.498 2.106 11.264 3.931 26.14 8.932 26.289 8.982l.114.056c6.301 4.135 54.119 11.707 79.548 11.707 2.192 0 4.197-.056 5.958-.167 1.628-.102 8.114-.3 15.246-.329z" transform="matrix(.965926 .258819 -.258819 .965926 92.042402 -130.123987)"/></g></svg>