<svg xmlns="http://www.w3.org/2000/svg"><g fill="#fff"><path d="m378.807 21.061v-2.644h18.318v23.421h-13.005v4.611h-4.474v5.171h-5.156v22.499h4.456v4.751h4.894v5.031h13.285v23.71h-18.179v-2.917h-5.594v-2.734h-4.474v-3.827h-4.056v-5.075h-4.754v-4.998h-4.472v-6.011h-4.338v-38.342h4.338v-5.782h4.333v-5.228h5.035v-4.998h3.914v-3.607h4.056v-3.031z"/><path d="m428.499 20.625v-2.32h19.575v2.32h5.594v2.936h4.198v4.196h4.474v4.476h4.615v5.172h4.755v70.149h-21.606v-60.781h-4.684v-4.332h-11.325v4.053h-5.034v4.896h-5.177v22.654h4.893v5.032h4.477v4.055h12.025v24.423h-16.78v-1.908h-5.873v-2.937h-3.777v-4.055h-4.473v-4.754h-4.338v-5.454h-4.334v-6.013h-4.755v-38.595h4.056v-5.913h4.896v-5.134h4.475v-5.174h4.194v-3.777h4.335v-3.222z"/><path d="m27.549 20.625v-2.32h19.576v2.32h5.594v2.936h4.196v4.196h4.475v4.476h4.616v5.173h4.755v70.148h-21.606v-60.78h-4.685v-4.333h-11.325v4.053h-5.034v4.897h-5.178v22.652h4.895v5.033h4.476v4.056h12.025v24.422h-16.78v-1.907h-5.873v-2.938h-3.776v-4.055h-4.475v-4.752h-4.335v-5.456h-4.335v-6.012h-4.755v-38.596h4.055v-5.913h4.898v-5.134h4.472v-5.174h4.196v-3.777h4.334v-3.222z"/><path d="m520.349 41.506v-23.202h-16.997v2.435l-5.367.014v2.862h-4.649v3.937h-4.652v5.008h-4.115v5.01h-4.474v6.261h-4.65v38.286h4.83v6.083h4.294v5.545h4.475v5.189h4.471v3.936h4.47v2.682h6.085v2.003h20.392v-1.823h5.548v-3.221h3.757v-4.472h4.117v-5.188h5.007v-5.01h4.473v-87.841h-23.081v79.075h-3.934v4.116h-12.167v-4.116h-4.112v-5.367h-4.832v-22.361h5.188v-4.653h4.474v-5.188z"/><path d="m556.546 43.241v-5.63h3.897v-4.908h4.62v-5.054h4.045v-4.043h4.619v-3.32h5.197v-1.982h21.076v23.638h-14.725v3.609h-4.763v2.743h-4.334v3.177h23.822v22.088h-23.677v3.465h4.478v2.741h4.185v3.467h15.014v24.323h-21.076v-1.949h-4.912v-3.029h-4.476v-4.043h-4.182v-4.477h-4.911v-5.773h-3.897v-6.353h-5.198v-38.706z"/><path d="m142.447 52.029v-14.346h-4.427v-5.31h-4.557v-4.882h-4.115v-3.782h-4.335v-2.981h-5.35v-2.423h-22.138v2.423h-5.904v2.981h-3.967v3.782h-4.15v4.882h-4.797v5.031h-3.968v23.383h4.427v4.565h4.521v4.192h31.087v4.658h4.612v4.566h-4.797v4.751h-11.899v-4.937h-4.243v-4.659h-23.708v14.254h4.427v4.844h4.613v4.846h4.614v3.819h4.057v2.98h5.535v2.889h21.955v-2.889h4.982v-2.98h4.426v-3.819h4.428v-4.752h4.336v-4.845h4.335v-22.358h-5.349v-4.38h-4.521v-5.217h-29.98v-4.658h-4.519v-4.565h4.519v-4.937h11.9v5.31h4.428v4.564z"/><path d="m192.156 84.167v-4.93h-4.511v-4.648h-4.142v-32.274h13.716v-8.277h-5.339v-5.116h-4.972v-3.905h-3.405v-14.602h-23.569v14.602h-3.039v3.905h-4.603v5.116h-5.799v8.277h13.441v39.712h4.603v5.579h3.867v5.396h4.51v5.486h3.96v4.092h3.958v2.977h5.984v1.953h16.665v-23.343z"/><path d="m255.625 69.154h5.022v-5.029h4.192v-5.681h2.515v-20.955h-3.075v-4.657h-3.912v-4.936h-4.565v-3.912h-5.031v-2.979h-4.844v-2.701h-14.998v2.701h-4.191v2.979h-4.658v3.912h-5.03v4.936h-4.472v4.563h-5.03v70.131h22.916v-65.381h15.463v12.481h-4.75v3.352h-7.174v16.671l13.973 32.877h23.662z"/><path d="m343.428 43.738v-5.963h-4.611v-5.035h-4.699v-5.031h-4.15v-3.617h-4.239v-2.995h-5.351v-2.793h-22.214v2.795h-5.248v2.794h-4.609v3.82h-3.778v5.03h-4.886v5.035h-4.239v5.963h-4.517v.094 38.191.097h4.517v5.961h4.239v5.037h4.886v5.03h3.778v3.82h4.609v2.795h5.254v2.794h.092 21.751.37v-2.794h5.347v-2.795h4.239v-3.82h4.153v-5.03h4.7v-5.037h4.611v-6.031h4.146v-.099-38.123-.093zm-23.687 30.091v5.036h-4.609v4.658h-11.792v-4.658h-4.242v-5.036h-4.977v-21.801h4.977v-5.037h4.242v-4.651h11.792v4.657h4.609v5.038h4.609v21.794z"/></g></svg>