<svg xmlns="http://www.w3.org/2000/svg"><g fill="#fff"><path d="m0 140.746 7.76-45.147-6.428-6.506 14.187-15.44 29.863 36.133 7.76-36.133 14.265 7.759-11.679 6.427-10.346 51.574-33.703-37.387-3.919 23.201 7.759 7.759z"/><path d="m93.351 81.02h6.662c4.781 0 7.995.235 9.641.784 2.821.862 3.527 2.273 4.781 4.233 1.254 1.881 3.135 5.094 3.135 9.405l4.311-17.949h-52.044l-.314 1.568h2.116c2.038 0 2.273.392 3.292 1.254.706.548 1.098 1.411 1.254 2.43 0 .627-.235 2.351-.862 5.094l-3.605 16.852c-.549.941-1.568 1.489-2.43 2.116-1.646 1.098-3.214 1.646-3.214 1.646s1.411.235 2.509 1.333c.705.705 1.254 1.567 1.567 1.881l-3.292 16.146c-.627 3.057-1.254 4.938-1.724 5.644-.627 1.018-1.411 1.724-2.352 2.194-1.254.627-2.9.941-2.9.941l-.313 1.567h49.771l3.527-18.105c-2.665 5.329-3.135 8.229-7.289 10.816s-7.916 3.919-13.873 3.919h-3.841c-1.803 0-3.057-.235-3.762-.705-.706-.471-1.176-1.098-1.254-1.803-.157-.706.157-2.743.862-6.114l3.605-15.754c3.057 0 5.252.392 6.741 1.175 1.411.784 2.273.863 3.684 2.665 1.646 2.195 3.841 3.292 3.449 6.819l4.703-24.376c-1.49 4.703-4.233 5.252-7.447 6.976-2.978 1.568-5.173 2.195-9.17 2.195h-1.254z"/><path d="m161.933 138.159 10.346-21.946s-11.208 7.054-20.692 6.505c-9.092-.548-16.46-8.621-15.284-17.792 2.273-18.654 21.711-23.592 21.711-23.592l7.76 11.6 9.092-2.587-6.349-16.93s-11.914.706-23.749 7.211c-12.149 6.663-24.219 19.36-22.965 32.92 2.821 31.587 28.452 27.198 31.117 27.119 2.586 0 9.013-2.508 9.013-2.508z"/><path d="m266.963 66.99h-8.074l6.506-13.168c-1.803 0-6.662-.94-8.465-2.508-2.273-2.116-4.154-6.27-2.9-11.287 1.411-5.486 7.603-9.719 14.422-7.994 4.859 1.254 7.681 3.684 8.465 8.935.392 2.43.235 4.781-1.411 8.387zm-6.036-23.749c0 5.722 8.857 5.879 8.857.235 0-5.957-8.857-5.957-8.857-.235z"/><path d="m288.36 31.954c7.76-1.019 14.579 5.095 12.149 13.09-.392 1.254-2.508 3.919-2.508 3.919s3.292 2.978 3.606 4.938c1.489 8.151-4.625 12.854-10.817 13.089-6.584.157-13.795-4.232-12.384-12.619.157-1.097.941-2.195 1.333-2.9.391-.705 2.194-2.508 2.194-2.508s-2.43-3.841-2.665-5.487c-.784-5.878 2.744-10.66 9.092-11.522zm-1.489 9.719c0 4.233 6.427 4.233 6.427.236 0-4.468-6.427-4.546-6.427-.236zm3.292 18.655c5.016 0 5.016-7.525-.078-7.525-5.173 0-5.017 7.525.078 7.525z"/><path d="m315.402 31.954c3.919-.392 7.367 1.019 9.327 2.9 5.8 5.487 6.74 23.671-.235 29.706-2.822 2.509-8.779 3.763-13.325 1.568-4.311-2.116-6.897-7.838-7.289-14.422-.706-10.346 2.273-18.811 11.522-19.752zm1.332 28.374c6.897-.157 6.662-23.279-1.097-21.241-5.487 1.332-5.409 21.319 1.097 21.241z"/><path d="m342.835 31.719c3.919-.392 7.367 1.019 9.327 2.9 5.8 5.487 6.74 23.671-.235 29.706-2.822 2.508-8.779 3.763-13.325 1.568-4.311-2.116-6.897-7.838-7.289-14.422-.706-10.346 2.273-18.811 11.522-19.752zm1.332 28.374c6.897-.157 6.662-23.279-1.097-21.241-5.487 1.332-5.409 21.319 1.097 21.241z"/><path d="m233.259 32.268v6.897c-18.811-5.094-18.654 25.395-.235 20.301v6.897c-28.53 7.054-28.687-40.679.235-34.095z"/><path d="m197.988 52.803v-6.819c3.292 0 5.33-1.175 5.33-3.527 0-1.959-.314-3.919-7.054-3.919v28.452h-7.211l.157-35.428h6.975c13.403.079 14.971 5.409 14.971 10.66 0 7.446-5.251 10.581-13.168 10.581z"/><path d="m376.538 34.149v6.662h-15.519v-6.662z"/><path d="m478.354 66.677h-7.368c-.862-3.527-5.643-9.798-5.643-9.798l-8.073 8.308c-1.49 1.49-4.155 1.49-6.898 1.49h-2.273v-6.271h1.568c1.646 0 3.135-.156 4.389-1.411l14.108-14.892c1.49-1.489.706-3.605-1.881-3.605l-18.184.078v-6.427h18.263c8.857 0 11.443 9.484 8.23 12.933l-4.625 4.781c.078 0 7.916 11.287 8.387 14.814z"/><path d="m401.384 34.149v15.519h-7.132v-15.519z"/><path d="m419.098 34.149v20.222c0 6.819-5.094 11.914-11.443 11.914h-13.325v-6.663h12.384c3.449 0 5.33-1.802 5.33-5.486s0-19.987 0-19.987z"/><path d="m390.411 35.952v18.341c0 6.975-6.348 11.992-12.07 11.992h-17.322v-7.054h17.243c2.9 0 5.173-1.568 5.173-4.782v-18.419z"/><path d="m376.538 51.001h-15.519v-6.584h15.519z"/><path d="m233.494 47.003h17.244v5.33h-17.244z"/><path d="m449.667 47.238v6.428h-27.747v-6.428z"/><circle cx="480.784" cy="36.892" r="2.9"/><circle cx="487.995" cy="36.892" r="2.9"/><path d="m392.763 174.763h-22.887l18.497-37.309c-5.016 0-18.811-2.665-23.827-7.211-6.506-5.879-11.836-17.792-8.152-31.979 4.076-15.598 21.633-27.433 40.68-22.574 13.638 3.449 21.633 10.347 23.984 25.317 1.097 6.898.627 13.56-3.919 23.749zm-16.93-67.015c0 16.225 25.081 16.695 25.081.627 0-16.773-25.081-16.93-25.081-.627z"/><path d="m456.721 75.847c22.025-2.822 41.228 14.5 34.487 36.996-1.019 3.527-7.054 11.051-7.054 11.051s9.17 8.544 10.189 14.03c4.233 22.966-13.089 36.447-30.725 36.996-18.654.548-39.111-12.071-35.114-35.742.549-3.213 2.665-6.27 3.762-8.151 1.098-1.881 6.192-7.133 6.192-7.133s-6.819-10.816-7.446-15.441c-2.273-16.773 7.681-30.333 25.709-32.606zm-4.389 27.512c0 12.07 18.184 11.913 18.184.627 0-12.776-18.184-12.933-18.184-.627zm9.405 52.593c14.187 0 14.265-21.32-.235-21.32-14.579.079-14.187 21.32.235 21.32z"/><path d="m533.141 75.847c11.13-1.097 20.85 2.9 26.336 8.152 16.303 15.597 18.968 66.858-.627 83.945-8.073 7.054-24.846 10.659-37.622 4.389-12.228-6.035-19.439-22.103-20.693-40.679-1.881-29.236 6.506-53.142 32.606-55.807zm3.763 80.105c19.595-.392 18.811-65.761-3.136-60.118-15.519 3.997-15.284 60.588 3.136 60.118z"/><path d="m320.183 76.631v19.438c-53.22-14.343-52.828 71.718-.706 57.453v19.438c-80.731 20.144-81.123-114.984.706-96.329z"/><path d="m214.056 134.867.078-19.36c9.406 0 15.049-3.291 15.049-10.111 0-5.643-.94-11.208-19.987-11.208l.079 80.575h-20.457l.235-100.092h19.752c37.936.157 42.403 15.363 42.403 30.098-.078 21.163-14.814 30.098-37.152 30.098z"/><path d="m322.848 85.121h23.592v13.325h-23.592z" transform="matrix(1.000001 0 0 1 -.000418 31.562393)"/><path d="m580.64 75.612h19.36v99.151h-19.36z"/></g></svg>