<svg preserveAspectRatio="none" xmlns="http://www.w3.org/2000/svg"><path d="m469.209 446.88c-.299-.299-7.817-.573-16.705-.611-11.168-.049-16.477-.33-17.179-.914-.964-.799-8.789-1.082-13.979-.506-3.455.384-20.331-1.395-18.642-1.963 1.372-.464 7.498-1.462 14.987-2.44 1.886-.246 3.429-.693 3.429-.991 0-.299.895-.779 1.986-1.066 1.827-.48 1.87-.569.541-1.11-.833-.341-1.011-.61-.42-.641 4.748-.234-10.777-3.013-16.371-2.929-1.292.019-2.348-.257-2.348-.615 0-.747 4.159-1.542 8.136-1.554 1.495-.003 3.405-.414 4.247-.91 1.224-.723 1.594-.723 1.856 0 .18.496 1.106.903 2.056.903 2.156 0 3.978-2.639 4.156-6.019.073-1.383.243-2.41.375-2.281.617.602 5.108-1.535 7.824-3.721 1.657-1.333 3.503-2.424 4.104-2.424.602 0 1.294-.629 1.538-1.399.245-.769 1.401-1.822 2.571-2.34 1.65-.732 2.022-1.265 1.666-2.387-.395-1.242-.301-1.314.665-.514.678.564 1.292.658 1.553.238.235-.385.05-.823-.412-.977-.631-.211-.638-.634-.027-1.687.449-.773.826-.991.839-.487.015.716.38.694 1.646-.099.894-.561 2.863-1.413 4.375-1.893 2.52-.798 2.642-.952 1.446-1.832-1.219-.896-1.172-1.011.726-1.736 2.552-.973 7.813-.994 12.799-.049 4.3.816 5.059 1.25 3.676 2.106-.677.417-.384.73 1.016 1.081 2.754.692 6.458 3.437 6.565 4.867.08 1.074-.147 1.055-2.167-.178-2.379-1.451-4.783-1.82-4.783-.735 0 .354.487.831 1.082 1.06.598.229 1.085.913 1.085 1.521 0 1.247-1.127 1.484-1.808.386-.588-.959-3.971-.935-3.971.028 0 .412-.712.087-1.58-.723-1.939-1.808-2.861-1.892-2.246-.21.403 1.107.243 1.085-1.287-.18-.961-.794-1.935-1.697-2.164-2.006-.23-.309-1.53-.491-2.89-.404-2.359.152-3.37.863-9.802 6.891-2.504 2.349-2.295 5.65.468 7.33 2.742 1.667 7.715 1.875 11.091.464 2.972-1.241 5.696-5.674 5.036-8.195-.235-.903-.068-1.551.402-1.551 1.062 0 .973 2.605-.203 5.894-.789 2.211-.784 2.583.032 2.27.538-.206.981-.746.988-1.2.009-.606.154-.602.547.014.646 1.02 2.345-.05 3.625-2.284.749-1.306.83-1.214.851.945.015 1.598.293 2.221.843 1.882.451-.279 1.345.182 1.986 1.025 1.634 2.152 3.747 1.375 6.093-2.242 2.439-3.763 2.514-2.659.108 1.553-1.12 1.957-1.567 3.471-1.175 3.971.349.447.838 1.662 1.086 2.705 1.11 4.668 9.732 3.934 10.67-.906.276-1.434-.774-9.279-1.595-11.896-.813-2.594-3.827-5.702-4.891-5.046-.4.247-.915.142-1.147-.234-.233-.375.288-.787 1.157-.915 2.819-.414 2.157-1.713-1.55-3.047-1.995-.718-4.843-2.399-6.331-3.742-1.488-1.34-2.949-2.443-3.246-2.452-.299-.011-.543-.337-.543-.728 0-.702 3.723 1.143 7.223 3.581 3.354 2.337 8.253 2.908 9.994 1.169.969-.97.938-1.427-.276-4.19-1.909-4.341-7.983-9.956-10.794-9.978-1.196-.007-2.986-.652-3.98-1.427-2.324-1.818-2.621-1.797-5.187.36-2.327 1.959-4.418 2.242-7.586 1.025-3.019-1.16-13.071-2.824-17.199-2.85-3.161-.019-4.006-.372-6.785-2.845-3.063-2.726-3.157-2.937-2.733-6.048.414-3.012.142-3.726-4.224-11.056-4.974-8.35-5.876-10.753-2.607-6.934 1.105 1.292 2.34 2.347 2.745 2.347.863 0 2.408 3.143 2.413 4.909 0 .677.613 2.232 1.359 3.458.747 1.224 1.584 3.246 1.856 4.493.584 2.649 7.008 8.807 9.19 8.807.778 0 1.886.468 2.458 1.04.571.573 2.58 1.226 4.462 1.453 1.883.226 5.644 1.12 8.362 1.984 4.929 1.568 7.338 1.326 7.338-.742 0-.44 1.136-1.76 2.527-2.936 3.087-2.605 2.727-3.522-2.936-7.507-4.568-3.213-7.06-4.025-7.963-2.597-.496.781-.636.793-.645.054-.007-.52-.3-.768-.651-.55-.353.218-1.043-.087-1.533-.679-.491-.592-1.34-1.076-1.886-1.076-1.783 0-7.497-6.294-7.497-8.258 0-.226.326-.409.723-.409.396 0 .641.287.541.636-.311 1.091 5.938 7.277 7.832 7.752 2.279.572 3.25-.304 1.451-1.31-2.713-1.519-6.936-5.833-6.936-7.087 0-.707-1.83-3.676-4.069-6.596-4.849-6.33-5.658-7.584-2.972-4.617 4.298 4.747 7.645 9.5 7.879 11.191.154 1.109 1.462 2.652 3.495 4.126 1.788 1.292 3.779 2.812 4.423 3.372.646.561 3.086 2.038 5.424 3.285 2.337 1.245 5.222 3.1 6.409 4.125 2.539 2.186 6.769 4.09 8.019 3.61.484-.185 1.319-1.252 1.853-2.37.584-1.219 1.904-2.335 3.301-2.789 3.363-1.09 5.239-3.411 5.239-6.479 0-1.43-.297-2.417-.662-2.191-.672.415-2.227-5.545-2.227-8.54 0-1.69-3.01-5.145-3.798-4.357-.243.243-1.549-.405-2.904-1.437-2.595-1.981-7.039-2.601-6.998-.975.028 1.123 1.735 3.43 2.538 3.43.328 0 1.296.657 2.151 1.46l1.555 1.46 1.959-1.544c2.24-1.76 3.089-1.46 1.94.686-.644 1.205-.461 1.815 1.025 3.418 2.099 2.267 2.183 2.698.755 3.884-.868.719-1.137.543-1.527-1.015-.578-2.307-2.282-3.293-5.677-3.293-1.556 0-2.504-.329-2.394-.828.258-1.182-4.343-2.263-7.932-1.862-1.682.187-2.88.058-2.667-.29.217-.347 1.591-.667 3.058-.709l2.665-.078-1.986-.783c-1.093-.433-1.985-1.067-1.985-1.411s.342-.413.763-.153c1.226.758 4.291-.315 4.291-1.502 0-1.202-3.341-2.754-4.759-2.209-.494.188-1.09-.157-1.325-.77-.351-.915.089-1.066 2.467-.839 3.397.325 3.486.002 1.469-5.308-.786-2.066-1.273-3.912-1.083-4.101.189-.188.344.07.344.577 0 .506.445.749.992.539.926-.356 3.042 2.735 2.747 4.011-.213.921 7.331 5.543 9.875 6.053 4.23.844 2.494-1.863-3.992-6.227-3.246-2.185-6.898-5.021-8.115-6.304-1.217-1.28-3.08-2.548-4.142-2.815-3.004-.755-11.969 1.718-13.424 3.702-.334.454-.534.403-.541-.138-.007-.475.71-1.368 1.592-1.988l1.607-1.124-1.787.031c-.983.018-3.073.491-4.647 1.052-2.904 1.033-4.458.815-2.554-.36 1.796-1.113.476-1.368-2.896-.563-3.84.919-9.875 3.677-11.919 5.446-3.618 3.131-10.471 15.584-10.427 18.951.014.992.679 2.942 1.483 4.332.801 1.39 1.273 1.928 1.049 1.198-.225-.731-.587-2.195-.805-3.251l-.394-1.918 1.04 1.804c.571.994 1.424 3.676 1.893 5.96.472 2.283 1.125 4.151 1.455 4.151.63 0 2.382 4.378 1.931 4.829-.143.143-.763.068-1.379-.168-.695-.267-1.474-2.216-2.059-5.164-.517-2.603-1.055-4.393-1.193-3.976-.138.414.262 3.239.889 6.278 1.371 6.636 1.315 6.25 1.135 7.591-.078.596-.606-1.065-1.17-3.69-.564-2.626-1.594-6.562-2.287-8.749l-1.265-3.974v9.108c0 8.421.138 9.342 1.808 12.167 1.928 3.266 2.881 3.978 4.219 3.152.595-.368.459-.925-.481-1.931-1.611-1.733-2.511-4.675-1.283-4.205.468.179 2.062 1.72 3.543 3.422l2.693 3.098 5.814-.159c3.841-.104 6.471.184 7.752.847 1.065.554 2.478.833 3.139.626.662-.21 1.413-.044 1.668.37s1.258.751 2.227.751c.971 0 1.764.325 1.764.723 0 .396.487.721 1.082.721.597 0 1.085-.264 1.085-.587 0-.325 1.299-1.283 2.888-2.13 3.784-2.021 3.709-.776-.119 1.999-2.839 2.056-3.269 2.152-7.664 1.701l-4.658-.477.442 2.094c.414 1.975-.798 6.827-2.01 8.039-.52.522-.108-2.012.854-5.222.58-1.937.194-4.212-.822-4.863-.455-.292-2.127-.545-3.717-.563-1.589-.017-5.164-.663-7.945-1.435s-6.453-1.413-8.161-1.424c-2.944-.019-3.177-.178-4.497-3.09-1.163-2.561-1.397-4.759-1.409-13.253-.016-9.635-.121-10.375-1.933-13.723-1.055-1.945-2.37-4.416-2.924-5.49-1.084-2.1-3.108-3.931-8.377-7.583-2.394-1.659-3.997-3.599-5.667-6.861-2.081-4.064-2.357-5.318-2.577-11.771-.136-3.972-.611-8.432-1.058-9.913-.734-2.433-.631-2.953 1.072-5.416 2.544-3.686 2.99-7.441 1.633-13.787-1.354-6.325-1.424-16.131-.142-19.634.842-2.303 3.643-6.966 5.526-9.203 1.926-2.286 3.856-8.286 4.36-13.546.739-7.696 1.266-9.626 3.489-12.754 1.988-2.794 8.606-7.34 15.279-10.49 3.395-1.603 4.219-2.389 5.328-5.069.721-1.745 1.683-3.563 2.139-4.041 2.78-2.924 3.46-5.009 3.063-9.425-.263-2.945-.187-3.835.226-2.639.422 1.221.647-1.016.696-6.91.07-8.442.133-8.77 1.946-10.346 2.473-2.149 2.748-1.669 1.004 1.75-1.154 2.265-1.418 4.151-1.357 9.701l.075 6.889 1.048-3.611c.574-1.986 1.69-5.814 2.478-8.506 2.289-7.827 7.588-11.799 14.924-11.189 3.947.327 3.952.325 2.248-.987-1.934-1.486-8.879-1.879-9.701-.548-.304.494-.667.534-.947.106-.248-.384-1.626-.911-3.059-1.175-2.433-.447-2.814-.253-5.597 2.859-1.645 1.835-2.988 3.072-2.988 2.749 0-1.356 6.173-6.781 7.715-6.781 1.001 0 2.132-.774 2.904-1.988.695-1.091 1.567-2.198 1.937-2.46.677-.477 2.659 0 3.332.801.199.236 1.329 1.046 2.511 1.801l2.151 1.372-1.178-1.8c-1.108-1.689-1.095-1.851.187-2.651 1.686-1.053 2.34-1.093 1.727-.1-.531.858.993 3.009 1.784 2.522.287-.178 1.212 1.261 2.056 3.196 1.994 4.568 3.313 5.469 2.623 1.792-.28-1.492-.948-3.556-1.486-4.584-.851-1.632-.985-1.687-1.039-.43-.044 1.037-.173 1.139-.46.361-.218-.595-.894-1.652-1.5-2.347-.99-1.138-.981-1.264.096-1.264.657 0 1.2.407 1.205.905.009.662.175.642.632-.079.451-.711.762-.751 1.134-.152.281.458 1.098.645 1.812.417 1.506-.478 5.8 2.793 5.8 4.415 0 .811.316.877 1.397.297 2.34-1.252 2.88-.896 4.9 3.226 1.9 3.869 2.026 3.972 4.965 3.972 3.875 0 5.896-1.088 11.76-6.33 2.632-2.352 5.894-5.251 7.249-6.442l2.462-2.164-1.2-4.778c-1.468-5.847-1.482-5.361.192-6.259 1.108-.592 1.832-.375 3.537 1.059 1.177.992 2.462 1.804 2.853 1.804s2.047-1.769 3.678-3.93c3.084-4.084 5.807-6.444 10.364-8.974 2.023-1.121 3.891-1.474 7.583-1.423 2.695.035 5.316.396 5.824.801 1.493 1.19 5.492-2.738 8.845-8.688 1.004-1.781 2.113-3.281 2.464-3.332.959-.141 2.454 4.565 2.517 7.918.043 2.255-.598 3.971-2.691 7.223-2.042 3.166-2.636 4.729-2.311 6.07.39 1.614.124 1.902-2.488 2.698-3.889 1.184-5.309 1.139-9.801-.311-3.712-1.199-3.815-1.192-5.01.282-1.584 1.957-3.648.934-3.632-1.801.007-1.432.183-1.68.658-.929.381.604 1.696.983 3.213.926 1.411-.053 3.909.377 5.55.957 2.377.838 3.636.888 6.177.249 4.224-1.063 4.546-1.832.767-1.832-4.335 0-6.988-1.903-6.988-5.017 0-1.608-.345-2.445-1.007-2.445-1.271 0-1.98 1.783-1.364 3.432.403 1.072.304 1.125-.658.342-.943-.765-1.218-.707-1.621.341-.414 1.077-.582 1.109-1.154.199-.935-1.474-.889-1.666.786-3.465 1.556-1.671 1.342-3.014-.481-3.014-2.225 0-7.764 3.098-10.465 5.855-3.456 3.523-4.726 6.046-4.667 9.259.041 2.092.365 2.561 2.103 3.025 2.179.583 5.527-.304 5.527-1.463 0-.381-.333-1.572-.742-2.646-1.032-2.717-.32-3.06 1.013-.486 1.098 2.126.857 5.171-.479 6.055-1.004.662-6.316-.129-8.602-1.284-2.852-1.437-3.212-1.21-1.301.823.934.994 2.24 1.806 2.904 1.806s1.795.649 2.515 1.444c.717.794 1.103 1.444.854 1.444-.828 0-5.892-3.012-7.403-4.404-1.416-1.305-3.203-1.844-3.203-.964 0 .225.384 1.117.854 1.985s.788 2.51.706 3.648c-.117 1.612.099 1.976.978 1.637.74-.283 1.327.105 1.704 1.123.383 1.032.753 1.271 1.099.71.558-.904 3.494-1.159 4.283-.37.262.26.171.84-.199 1.287-.389.468-.41 1.244-.049 1.827.535.866.811.863 1.9-.025 1.141-.929 1.221-.899.777.285-.274.728-.497 1.46-.497 1.626s-1.069.302-2.374.302c-1.721 0-3.237-.76-5.523-2.766-2.683-2.358-3.276-3.4-4.017-7.043-.993-4.89-.768-6.079 1.158-6.079 1.968 0 1.689-1.125-.891-3.592-3.892-3.718-4.35-1.939-2.123 8.246 1.245 5.703 1.725 6.722 4.483 9.531 1.818 1.853 3.751 3.147 4.699 3.147.889 0 1.781.273 1.986.603.571.922 4.769.08 4.769-.955 0-.503.539-1.361 1.201-1.906.949-.782 1.265-.8 1.509-.077.168.505.805 1.413 1.413 2.023 1.453 1.453.536 2.308-1.268 1.182-1.219-.761-1.411-.69-1.411.526 0 .775-.281 1.582-.625 1.795-.695.429-.419 3.068.726 6.955.522 1.773 1.425 2.857 2.934 3.526 1.238.549 2.379.683 2.642.315.254-.357 1.946-1.032 3.759-1.501 2.671-.691 3.866-.658 6.291.179 5.711 1.968 8.283 2.057 10.438.361 1.095-.861 2.307-2.813 2.735-4.397.931-3.456 1.605-3.702 1.385-.503-.269 3.912-.009 4.876 1.311 4.851 2.639-.047 4.034-1.952 4.034-5.509 0-2.971-.304-3.645-2.441-5.43-2.777-2.319-5.33-2.626-6.409-.773-.529.908-.742.974-.758.241-.012-.563-.236-.811-.496-.549-.264.262-.847.168-1.299-.208-.548-.455-1.511-.094-2.883 1.085-1.741 1.498-5.88 3.204-7.801 3.218-1.329.009-.379-1.868.995-1.971 2.033-.154 5.976-2.052 7.116-3.428.502-.603 1.321-1.097 1.818-1.097.5 0 1.319-.496 1.82-1.1.819-.989 1.041-.989 2.132 0 1.628 1.47 5.437 1.395 7.235-.143 1.624-1.392 1.9-3.799.585-5.112-1.355-1.355-5.017-1.02-6.761.622-.872.817-2.843 1.626-4.382 1.792-6.983.761-8.814 1.192-10.092 2.382-.754.698-1.952 1.494-2.665 1.765-.711.271-1.755 1.554-2.317 2.852-.908 2.088-1.029 2.162-1.055.646-.023-1.441-.201-1.57-1.111-.816-1.685 1.399-1.407-.848.357-2.881.791-.913 1.737-2.742 2.102-4.062.365-1.322 1.341-3.356 2.171-4.523.831-1.163 1.509-2.31 1.509-2.548 0-.848-4.219-.408-4.535.473-.177.496-.587.655-.912.351-.325-.302.148-1.545 1.048-2.764 1.622-2.193 1.554-3.877-.091-2.233-1.039 1.04-3.454 1.133-3.454.132 0-.396.793-.721 1.763-.721s1.986-.363 2.26-.807c.33-.532 1.626-.627 3.835-.279 4.703.742 8.054.756 10.485.043 1.642-.48 1.97-.41 1.514.327-.4.644-.298.763.323.381.517-.32.772-1.448.597-2.641-.363-2.48-.162-2.598.937-.548.67 1.252.543 1.902-.697 3.582-1.472 1.99-1.481 2.121-.253 4.589 1.529 3.073 2.118 3.182 3.23.588.47-1.093.943-2.114 1.051-2.27.442-.634 2.398 1.631 2.398 2.779 0 .677.809 1.666 1.795 2.193.985.529 1.986 1.565 2.22 2.305.58 1.827-.264 5.354-1.533 6.407-.57.474-1.036 1.109-1.036 1.415 0 .304 1.813 2.396 4.031 4.649 4.531 4.605 7.544 10.373 9.556 18.298 1.231 4.844 1.566 5.384 4.523 7.299 6.389 4.132 11.387 10.094 13.953 16.641.689 1.762 2.095 4.198 3.124 5.417 2.556 3.028 4.5 7.504 4.519 10.41.009 1.329.64 3.29 1.403 4.361 2.183 3.068 4.184 10.034 4.71 16.413.447 5.4.337 6.165-1.424 9.75-1.13 2.302-3.077 4.769-4.762 6.035-2.19 1.647-3.105 3.02-3.945 5.908-1.135 3.9-2.702 6.36-6.316 9.921-2.014 1.982-2.337 2.061-6.799 1.643-2.577-.241-5.118-.798-5.651-1.24-.74-.614-1.692-.241-4.069 1.598-1.708 1.321-3.22 2.468-3.362 2.548-.143.081.355 1.058 1.106 2.173.753 1.116 1.954 3.318 2.672 4.895 1.149 2.528 1.388 2.712 2.039 1.549.564-1.01.381-1.803-.785-3.38-2.145-2.9-1.899-3.398.356-.719 1.041 1.236 1.694 2.714 1.463 3.311-.227.594-.115 1.863.25 2.824.487 1.282.382 1.977-.4 2.623-.583.485-1.177.754-1.32.597-.143-.155-1.778-3.208-3.631-6.783-1.854-3.574-3.145-5.85-2.871-5.055.274.794 1.183 3.719 2.017 6.499.833 2.781 1.925 5.486 2.426 6.011 1.196 1.254 1.118 3.764-.168 5.461-2.165 2.861-2.256 10.852-.157 13.724 1.956 2.672 7.012-1.7 7.012-6.063 0-.892-.318-1.325-.769-1.048-.52.322-.611-.361-.283-2.113.371-1.97.116-3.215-1.067-5.218-1.987-3.368-1.608-3.824.556-.669 2.294 3.352 2.935 9.9 1.269 12.995-.681 1.264-2.216 2.878-3.412 3.583-1.523.901-2.035 1.64-1.708 2.477.255.658.775 2.869 1.156 4.916.58 3.11.449 4.43-.807 8.054l-1.498 4.332 1.476 4.382c1.706 5.064 1.88 11.213.393 13.815-1.455 2.546-1.345 2.89.908 2.89 1.212 0 2.348.566 2.895 1.444.662 1.059 1.685 1.445 3.833 1.445 1.612 0 3.629.373 4.481.831l1.551.829-1.766.653c-1.157.428-1.854.39-2.02-.108-.14-.419-.898-.761-1.685-.761-1.53 0-4.329-1.272-4.984-2.264-.217-.331-1.979-.661-3.912-.735-2.309-.087-3.973-.588-4.841-1.456-1.423-1.425-1.776-2.412-.601-1.684.399.245.723.102.723-.317 0-.421-.324-.807-.723-.856-.396-.051-1.046-.171-1.444-.271-.396-.099-1.29-.232-1.985-.293-1.167-.103-1.17-.166-.058-.816.791-.461 1.881-.449 3.159.037 1.409.536 2.237.503 2.99-.122.878-.728.966-.559.557 1.067-.313 1.245-.194 1.933.333 1.933 2.541 0 3.102-11.198.751-15.052-1.21-1.984-1.657-2.256-2.525-1.536-1.479 1.227-1.383.916 1.586-5.108 1.886-3.83 2.625-6.266 2.591-8.545-.052-3.4-2.148-8.966-3.143-8.349-.33.202-1.081-.781-1.668-2.187-1.172-2.801-1.334-2.892-3.309-1.835-1.078.576-1.439.431-1.806-.723-.658-2.075-1.886-1.802-5.675 1.264-3.372 2.73-4.27 4.514-2.269 4.514 1.554 0 1.336 1.981-.314 2.864-.768.411-2.15.723-3.07.692-1.231-.042-.912-.32 1.217-1.055l2.888-1-3.085.172c-2.258.128-2.99-.073-2.73-.749.227-.595-.277-.924-1.418-.924-.976 0-3.295-.406-5.153-.902-2.705-.723-3.442-.723-3.683 0-.61 1.828-1.427.798-2.696-3.394-.909-3.001-1.16-5.333-.83-7.734.363-2.656.276-3.243-.388-2.581-.955.957-1.748 12.095-1.056 14.852.518 2.068 2.581 3.104 3.526 1.769.415-.586.476-.132.167 1.24-.269 1.193-.538 3.065-.599 4.162-.07 1.268-.438 1.868-1.013 1.647-.496-.191-.902 0-.902.422 0 .501 1.321.62 3.791.339 2.085-.236 5.417-.533 7.402-.658 1.986-.126 4.668-.784 5.961-1.464 1.29-.679 2.347-.91 2.347-.511 0 1.199 4.507-.02 7.041-1.904 1.29-.959 2.345-2.216 2.345-2.791 0-.576.327-1.047.723-1.047 1.458 0 .655 1.673-1.945 4.056-1.469 1.343-3.025 2.445-3.458 2.445-.953 0-5.429 5.69-5.429 6.903 0 1.513 2.083 2.662 4.252 2.342 1.519-.222 1.998-.045 1.734.641-.23.601-1.641.947-3.863.947h-3.499l-.215 4.458-.215 4.457-3.943 2.036c-2.602 1.341-4.186 1.792-4.659 1.318-1.029-1.028-1.871-.878-1.871.336 0 2.397-1.784 4.708-4.469 5.782-1.589.635-2.622 1.46-2.362 1.882.255.412-.143 1.303-.884 1.977-1.986 1.804-3.583 4.553-4.153 7.144-.407 1.855-.228 2.433.942 3.06 1.823.974 9.248 1.013 9.844.051.244-.399 1.039-.723 1.763-.723.725 0 2.435-1.237 3.8-2.747 3.049-3.378 6.987-6.251 7.653-5.583.272.27-.154.85-.945 1.287-.791.436-2.55 1.896-3.906 3.244-3.979 3.95-8.479 6.704-11.411 6.984-3.798.36-6.666 1.615-7.149 3.122-.226.702-.708 1.926-1.073 2.719-1.351 2.936-2.677 9.406-2.127 10.387.311.558.444 1.698.292 2.536-.15.838-.066 1.072.187.521.3-.65 1.063.305 2.169 2.708 1.746 3.804 2.525 4.214 7.055 3.732.749-.08 1.643.286 1.985.819.51.791.751.77 1.335-.119.475-.724.714-.784.721-.18.009.519.932.903 2.178.903 1.239 0 2.175-.387 2.189-.903.013-.511.336-.365.744.339.54.922 1.321 1.137 3.049.84 4.061-.7 4.679-1.067 3.046-1.807-1.226-.556-1.147-.615.52-.39 1.08.147 1.78-.033 1.553-.398-.227-.368.248-.84 1.056-1.051 1.253-.328 1.356-.634.701-2.073-.423-.929-.561-2.232-.306-2.899.381-.992.662-1.048 1.558-.304.601.5 1.294.704 1.542.456s1.041.229 1.762 1.06c1.221 1.409 1.392 1.428 2.509.307 1.122-1.119 1.294-1.102 2.557.254.744.799 1.353 1.954 1.353 2.567s.358 1.112.793 1.112c.437 0 1.757 1.032 2.934 2.291s2.695 2.332 3.372 2.382c.678.049 1.635.341 2.127.643.519.321 1.053.143 1.27-.423.436-1.138 3.005-1.502 3.616-.513.73 1.182 4.667.801 4.667-.449 0-.62.286-.95.637-.733.351.218 1.467-.259 2.482-1.057 1.496-1.177 1.957-1.264 2.432-.468.323.543 1.319 1.17 2.213 1.395 1.348.339 1.624.112 1.624-1.329 0-2.013 1.07-2.312 1.767-.494.362.943.615 1.022 1.046.322.763-1.233 2.293-.816 3.823 1.04.69.839 2.757 1.946 4.596 2.459 3.551.996 3.119 1.12 11.301-3.259.742-.398 2.097-2.221 3.009-4.053 1.508-3.023 1.783-3.237 2.993-2.354.733.536 1.069 1.223.744 1.523-.323.302-.732.141-.912-.356-.178-.5-.623-.723-.99-.496-.854.527 1.079 2.485 2.455 2.485.575 0 1.397.422 1.825.939.828.996.786 5.859-.057 6.703-.276.276-3.474.473-7.106.438-3.633-.033-6.378.166-6.1.444.515.515.911.616 3.032.775.663.051 1.014.279.784.51-.231.23-5.159.386-10.953.346-6.739-.047-10.534.192-10.534.663 0 .405.649.737 1.444.737 1.837 0 1.863 1.17.047 2.141-1.519.814-7.898 1.017-9.737.311-.629-.241-1.142-.877-1.142-1.413 0-1.213-3.633-1.891-8.072-1.505-1.858.161-4.684.054-6.28-.237-1.596-.292-3.197-.238-3.555.12-.358.36-5.821.94-12.137 1.287-11.62.644-18.036 1.97-20.769 4.296-1.107.941-3.425 1.135-13.361 1.109-6.612-.018-13.571-.304-15.464-.638-2.483-.436-4.495-.3-7.221.493-6.914 2.006-29.737 3.59-31.165 2.162zm-15.942-7.707c1.088-.564 2.424-.854 2.97-.644.561.215.994-.075.994-.664 0-1.486-2.838-2.586-5.62-2.177-1.746.256-2.694-.023-3.609-1.064-1.225-1.392-1.268-1.381-2.922.638l-1.68 2.048h1.86c1.023 0 1.86-.339 1.86-.751 0-.433.426-.356 1.007.182.861.793.833 1.004-.18 1.421-.962.398-.983.503-.104.554.962.054.962.14 0 .761-1.796 1.16 3.134.884 5.424-.304zm4.355-6.739c.183-.892.5-2.436.707-3.429.205-.992.067-1.806-.31-1.806-.376 0-1.125-.439-1.661-.975-1.457-1.458-8.339-1.971-8.842-.661-.744 1.938-.398 5.645.667 7.166.884 1.261 1.755 1.504 5.087 1.425 3.554-.082 4.06-.282 4.352-1.72zm6.379 1.176c1.23-.561 2.421-.592 3.832-.1 2.611.912 6.727.321 7.249-1.039.576-1.504-2.637-7.979-4.158-8.377-.706-.185-2.684-.079-4.397.234-4.075.744-6.408 3.383-6.408 7.245 0 3.098.723 3.476 3.882 2.037zm37.468-4.123c-.543-.135-1.535-.032-2.206.223-1.056.407-.979.648.584 1.834 1.784 1.351 1.805 1.35 2.205-.226.257-1.012.046-1.678-.583-1.831zm124.618 2.303c2.392-.639 1.681-2.634-1.144-3.212-1.892-.385-2.511-.207-3.1.889-1.313 2.457.348 3.367 4.244 2.323zm-186.55-.81c1.701-1.247 2.77-4.478 2.028-6.121-.407-.898-.484-2.281-.17-3.076.311-.794.592-1.019.618-.501.028.521.372.749.762.508.442-.274.56.468.311 1.942-.362 2.147-.301 2.258.627 1.127 1.11-1.357.902-8.259-.288-9.54-.397-.427-.638-.362-.638.171 0 .469-1.49 1.231-3.311 1.69-1.821.458-3.482 1.275-3.69 1.816-.206.54-.815.98-1.353.98-1.046 0-3.02 5.48-2.251 6.248.63.631 2.652-1.136 2.457-2.148-.088-.447.574-.927 1.467-1.063.896-.136 1.625.089 1.625.501 0 .414-.406.594-.904.404-1.402-.538-2.855 2.404-2.342 4.743.512 2.336 3.292 3.611 5.052 2.319zm-2.506-1.975c0-.397.315-1.209.7-1.806.385-.596.701-.758.701-.362 0 .399-.316 1.211-.701 1.808-.385.595-.7.758-.7.36zm-11.099-.542c-.2-.496-.364-.091-.364.903s.164 1.399.364.903c.2-.498.2-1.308 0-1.806zm6.613 1.42c1.472-1.773-.203-2.377-1.97-.711-1.657 1.56-1.669 1.638-.269 1.638.809 0 1.818-.415 2.239-.927zm83.186-.955c0-.157-.894-.28-1.986-.273-1.445.007-1.709.187-.969.655.921.582 2.955.32 2.955-.382zm3.973.438c-.246-.398-1.078-.721-1.848-.721-.772 0-1.402.323-1.402.721s.831.723 1.848.723c1.047 0 1.655-.314 1.402-.723zm-89.431-2.265c-.194-.74-.126-1.346.15-1.346s.55-.65.61-1.445c.061-.794-.332-1.444-.87-1.444-1.799 0-3.266.866-3.266 1.926 0 .629.362.844.903.538.683-.384.702-.291.084.381-1.292 1.401-.393 3.554 1.301 3.11.98-.255 1.327-.807 1.088-1.72zm70.302-2.791c1.612 0 3.697.503 4.636 1.118 1.277.838 2.634.995 5.391.63 2.026-.268 3.685-.773 3.685-1.119s1.282-.629 2.846-.629c1.565 0 3.046-.324 3.292-.723.246-.396 1.008-.721 1.692-.721 1.087 0 1.209-.641.961-5.031-.253-4.451-.026-5.581 1.963-9.83 1.234-2.64 2.246-5.215 2.246-5.717 0-.505-1.095-1.752-2.433-2.774-2.417-1.844-2.433-1.893-2.111-6.765.31-4.738.237-5.007-2.082-7.623-1.32-1.493-2.943-2.712-3.606-2.71-.662.004-1.836-.863-2.609-1.924l-1.404-1.93-1.003 2.057c-1.323 2.717-2.378 2.958-3.374.772-.448-.983-1.804-2.3-3.014-2.927-2.121-1.095-2.614-2.328-2.296-5.747.071-.772-.094-1.177-.369-.903-.469.47-.782 2.174-.916 5.01-.034.695-.304 1.226-.603 1.179-3.349-.529-4.975.248-6.901 3.295-1.647 2.606-1.935 3.692-1.542 5.784.265 1.418.77 2.756 1.122 2.974.353.217.641 2.262.641 4.544 0 3.315-.412 4.796-2.041 7.361-1.123 1.765-2.936 3.685-4.027 4.264-2.237 1.188-2.246 1.057.609 9.418 1.017 2.98 2.03 6.954 2.251 8.832l.402 3.412 2.834-1.788c1.81-1.142 3.888-1.789 5.76-1.789zm-33.065-15.888c.496-.796 1.493-1.446 2.216-1.446.721 0 1.109-.328.859-.733-.25-.403-.744-.554-1.098-.335-.357.22-1.319-.273-2.14-1.094-2.107-2.104-7.987-2.546-8.485-.635-.196.745-.805 1.353-1.353 1.353-.55 0-.999.325-.999.723 0 .397.754.721 1.676.721s2.953.638 4.514 1.417c3.566 1.779 3.717 1.781 4.81.029zm-29.419-15.168c-.244-.397-.77-.721-1.168-.721-.397 0-.52.324-.274.721.244.398.77.723 1.168.723.396 0 .52-.325.274-.723zm-15.526-4.694c-.419-1.102-.928-1.839-1.132-1.637-.201.201.023 1.223.499 2.271 1.127 2.469 1.623 1.973.633-.634zm21.23-4.031c-1.233-.358-3.753-2.265-5.597-4.236-1.846-1.974-3.358-3.196-3.36-2.716s1.542 2.403 3.43 4.273c2.6 2.573 3.962 3.392 5.602 3.364l2.167-.033zm78.384-5.53c.873-1.916.936-1.935 1.929-.575.893 1.221 1.153 1.268 1.998.354 1.659-1.795 3.348-7.069 3.348-10.455 0-5.078 2.104-3.81 2.218 1.338.027 1.259.289 2.895.581 3.639.487 1.242.634 1.196 1.771-.541.995-1.519 1.811-1.893 4.123-1.893 1.584 0 3.608-.376 4.497-.835s2.102-1.072 2.7-1.364c.728-.36 1.026-1.42.909-3.251-.094-1.493-.272-2.819-.398-2.945-.124-.124-2.322.411-4.883 1.19-6.117 1.859-8.029 1.797-10.029-.33-1.412-1.506-1.65-2.527-1.65-7.124 0-6.309.741-11.34 1.668-11.34.363 0 .658-.687.658-1.523 0-1.158-.3-1.403-1.262-1.022-.695.274-2.402.681-3.792.9-3.95.625-4.949 1.44-5.789 4.725-.429 1.682-.964 3.545-1.182 4.141-.629 1.699-1.394 8.841-1.582 14.77-.088 2.749-.311 3.377-.966 2.721-1.666-1.666-3.255-20.271-2.092-24.484.349-1.264.466-2.467.258-2.673-.63-.632-2.383 1.545-3.253 4.039-1.47 4.221-6.392 7.691-7.354 5.187-.532-1.389-1.874-1.263-1.874.176 0 1.727-3.669 4.596-5.881 4.596-2.138 0-2.896-1.227-2.258-3.662.337-1.29.183-1.544-.727-1.192-.632.242-1.309.052-1.505-.421-.723-1.769-1.884 1.327-1.895 5.054-.007 2.062-.368 3.969-.803 4.238-.842.52-.606 2.867.849 8.398.777 2.963.731 3.629-.364 5.3-1.437 2.192-1.156 2.841.943 2.174 1.177-.372 1.565-1.32 1.955-4.776.642-5.676 1.742-6.215 1.742-.854 0 4.561.797 5.964 3.381 5.964 1.118 0 1.764-.521 2.012-1.624.32-1.436 2.551-17.397 2.551-18.262 0-.183.488-.335 1.083-.335 1.212 0 1.238.339.419 5.337-.319 1.942-.318 4.704.002 6.136.323 1.436.667 3.991.765 5.679.108 1.838.533 3.069 1.062 3.069.485 0 .99.283 1.123.628.131.344.993.86 1.915 1.148 1.333.414 1.757.211 2.071-.989.217-.829.634-1.509.928-1.509.845 0 4.353 3.465 4.353 4.3 0 .416 1.087.756 2.414.756 1.928 0 2.591-.396 3.313-1.978zm-101.123-21.204c.915-3.051.728-4.036-.61-3.208-.424.262-.77 1.432-.77 2.6s-.346 2.123-.765 2.123c-.421 0-.564.325-.319.722.85 1.374 1.58.71 2.464-2.237zm110.535-3.638c-.814-2.841-1.416-3.489-1.416-1.526 0 1.947.716 3.791 1.472 3.791.327 0 .302-1.02-.056-2.265zm-113.916-1.025c-.515-.92-.828-1.004-1.242-.334-.314.509-.132 1.156.421 1.497 1.315.816 1.657.33.821-1.163zm-2.317-1.757c-1.345-.831-1.768-.408-1.165 1.163.37.966.665 1.045 1.348.363.681-.682.643-1.016-.183-1.526zm9.323-1.814c.002-.398-.635.042-1.414.978-.779.934-1.209 2.034-.957 2.445.459.74 2.368-2.019 2.371-3.423zm-4.525.387c0-1.889-.104-1.996-.902-.904-.633.864-.678 1.505-.152 2.139 1.025 1.235 1.054 1.2 1.054-1.235zm86.866-3.663c.849-2.795 1.856-4.888 2.239-4.653.381.236.693.086.693-.335 0-.892-.192-.924-1.802-.306-.66.254-1.49 1.23-1.846 2.168-.358.939-1.065 1.702-1.57 1.695-.637-.007-.588-.225.163-.71.922-.598.894-.702-.196-.711-1.278-.012-3.301 3.232-2.511 4.022.227.228 1.093.054 1.923-.39 1.177-.628 1.505-.595 1.505.159 0 .529-.362 1.326-.803 1.767-.68.68-.383 2.375.415 2.375.136 0 .941-2.287 1.79-5.081zm-96.474 3.276c.409-1.067-.096-3.25-.751-3.25-.185 0-.833.496-1.439 1.102-.88.882-.925 1.318-.221 2.167 1.124 1.355 1.886 1.35 2.411-.019zm5.925-1.631c-1.273-1.198-1.315-1.197-.873.064.255.728.465 1.687.465 2.131 0 .56.267.541.871-.065.681-.681.58-1.145-.463-2.13zm14.105-5.952c.36 0 .652-.651.652-1.446 0-2.237-1.427-1.704-2.323.866-.649 1.864-.894 2.061-1.259 1.022-.396-1.133-.794-.983-3.293 1.24-2.117 1.882-2.871 3.133-2.962 4.898l-.117 2.37 4.324-4.476c2.38-2.46 4.619-4.474 4.978-4.474zm-6.569 3.61c1.673-1.45 2.167-1.71 2.167-1.135 0 .635-2.3 2.579-3.051 2.579-.429 0-.033-.65.884-1.444zm49.199 3.124c-.629-1.083-.77-1.114-.787-.175-.025 1.216.735 2.311 1.246 1.801.17-.171-.036-.901-.459-1.626zm58.622.485c.208-.794.083-1.262-.277-1.04-.36.223-.655.873-.655 1.446 0 1.494.491 1.281.932-.406zm21.445-2.027c.007-.929-.307-1.47-.71-1.221-.397.247-.718 1.485-.711 2.753.009 1.751.178 2.044.711 1.218.386-.595.705-1.831.71-2.75zm-138.677-.578c.012-.44 1.35-2.309 2.972-4.153 2.733-3.105 2.829-3.351 1.306-3.351-1.449 0-1.507-.107-.489-.903.87-.679.992-1.325.493-2.611-.528-1.358-.868-1.536-1.673-.869-1.828 1.517-3.475 5.897-3.039 8.076.308 1.544.14 2.086-.649 2.086-.746 0-1.066.796-1.066 2.664 0 2.499.067 2.58 1.062 1.265.582-.772 1.069-1.762 1.083-2.204zm135.44 1.161c-.282-.882-.13-1.442.389-1.442.466 0 .662-.487.433-1.083-.695-1.811.224-3.121 1.933-2.747 1.134.248 1.307.152.613-.34-.782-.558-.747-.769.182-1.125 1.159-.445 1.477.494 1.159 3.435-.146 1.364-.11 1.366 1.902.04 1.13-.742 2.95-1.8 4.045-2.349 1.095-.548 2.348-1.666 2.785-2.483 1.135-2.12.18-6.989-1.664-8.482-1.409-1.142-1.471-1.519-.72-4.432.708-2.747.655-3.309-.382-4.088-1.645-1.237-2.192-1.139-3.093.541-.608 1.137-.55 1.446.276 1.446.576 0 1.179-.391 1.338-.868.223-.672.41-.67.829.007.323.524.018 1.086-.772 1.408-.719.295-1.343.941-1.381 1.439-.26 3.251-.105 3.162-4.596 2.654-5.14-.583-16.349.992-15.206 2.136.404.403.734 1.385.734 2.179 0 1.125.194 1.252.868.578 1.091-1.093 2.88-1.103 5.239-.028 2.336 1.066 2.363 2.051.049 2.051-1.134 0-2.192.661-2.889 1.804-.604.995-1.643 2.692-2.305 3.773l-1.207 1.967-.953-2.508-.954-2.509.444 3.251c.908 6.634 1.064 6.743 10.244 7.099 2.812.11 3.072-.019 2.66-1.322zm-2.529-2.165c0-.397.344-.721.765-.721s.564.324.318.721c-.245.398-.589.723-.763.723-.175 0-.32-.325-.32-.723zm-139.048-.99c.842.323.997.11.629-.854-.342-.891-.23-1.12.37-.748.477.294.776 1.045.666 1.67-.11.621.141 1.254.557 1.4.417.147 1.447-1.931 2.291-4.62.843-2.686 1.748-5.432 2.01-6.097.372-.955.155-1.128-1.029-.819-.924.243-1.502.049-1.502-.501 0-.711-.221-.711-1.075-.002-1.263 1.048-.678 2.447.787 1.883.655-.25 1.011.111 1.011 1.034 0 1.69-.923 1.838-2.162.345-.775-.936-1.051-.864-2.111.542-1.706 2.263-3.727 7.806-3.173 8.703.257.416.714.058 1.037-.81.374-1.011.966-1.406 1.694-1.126zm1.104-3.343c0-.398.325-.723.721-.723.398 0 .723.325.723.723 0 .397-.325.723-.723.723-.396 0-.721-.326-.721-.723zm10.832 4.338c0-.302-.501-.967-1.114-1.474-1.351-1.123-2.913.065-2.275 1.726.415 1.082 3.389.86 3.389-.252zm-15.166-1.629c.001-.498.995-3.004 2.21-5.573 2.297-4.855 5.866-8.646 9.888-10.499 4.532-2.088 7.057-3.138 8.665-3.601 1.232-.354 1.626-1.005 1.626-2.677 0-2.195-.021-2.207-3.07-1.725-3.079.489-14.985 5.897-14.985 6.811 0 .267.65.892 1.444 1.388 1.733 1.081 1.891 2.333.294 2.333-.634 0-1.322-.65-1.528-1.444-.524-1.996-1.211-1.82-3.507.903-2.347 2.778-4.628 7.54-4.586 9.569.026 1.289.103 1.261.704-.235.597-1.495.791-1.561 1.76-.594 1.373 1.376 1.373 1.912.002 1.912-1.133 0-1.388 1.256-.645 3.191.521 1.358 1.728 1.526 1.728.241zm-.963-7.523c-.689-.69-.593-1.686.165-1.686.354 0 .831.488 1.06 1.083.422 1.1-.348 1.479-1.225.603zm2.564-3.149c-.585-.936-.625-1.427-.121-1.427.425 0 .572-.325.325-.723-.244-.394-.09-.721.341-.721 1.126 0 1.696 1.884.966 3.189-.535.955-.743.913-1.511-.318zm6.832-6.049c-.226-.589.159-1.156.915-1.352.988-.26 1.217-.014.948 1.011-.417 1.598-1.317 1.764-1.863.341zm4.206-1.878c-.246-.396-.103-.721.318-.721s.765.325.765.721c0 .399-.143.723-.318.723-.176 0-.52-.324-.765-.723zm1.806-1.444c0-.396.487-.723 1.083-.723.595 0 1.083.327 1.083.723 0 .397-.488.723-1.083.723-.596 0-1.083-.326-1.083-.723zm3.664-1.018c-.545-.658-.59-1.177-.124-1.465.396-.245 1.072.213 1.505 1.018.891 1.666-.103 1.987-1.381.447zm-.286 20.338c1.784-1.968 3.608-3.392 6.419-5.01 1.167-.671 2.038-1.401 1.939-1.625-.1-.225-.182-1.075-.182-1.894 0-.818-.323-1.286-.721-1.041-.397.246-.722 1.042-.722 1.771 0 1.453-2.345 2.748-2.755 1.521-.44-1.32-1.577-.83-1.577.681 0 .794-.327 1.444-.723 1.444-.398 0-.723-.344-.723-.765s-.351-.546-.781-.283c-.429.266-.587 1.261-.347 2.209.323 1.291.136 1.729-.741 1.729-.819 0-1.03-.384-.696-1.264.441-1.172.389-1.179-.72-.082-.774.765-1.027 1.723-.712 2.708.614 1.94 1.213 1.921 3.042-.099zm110.65-2.527c-.082-4.109-.089-4.123-.681-1.265-.821 3.963-.808 5.418.042 5.418.407 0 .686-1.811.639-4.153zm32.52.845c.84-1.421 1.832-3.94 2.206-5.597.805-3.566.119-12.437-.789-10.205-.386.951-.54.277-.467-2.07.067-2.101-.244-3.702-.786-4.037-.492-.304-.948-1.256-1.012-2.113-.131-1.728-1.225-2.024-2.555-.694-1.043 1.043-1.146 3.931-.163 4.539.393.243.516 1.804.281 3.526-.314 2.289-.052 3.824 1.013 5.927 2.681 5.291 2.669 9.481-.033 11.241-.608.398-.176 2.068.535 2.068.134 0 .932-1.163 1.77-2.585zm.926-10.055c.016-1.191.178-1.591.36-.887.183.702.171 1.676-.028 2.165-.196.489-.348-.086-.332-1.278zm-132.352 6.791c.777 1.258 2.279.363 1.741-1.035-.507-1.322-1.657-1.319-3.413.01-.909.69-1.182 1.453-.829 2.324.464 1.151.602 1.095 1.21-.489.521-1.351.835-1.549 1.291-.81zm51.181 1.21c2.502-.538 4.778-1.206 5.056-1.487.553-.561-3.476-.032-10.693 1.407-4.139.824-4.352.943-1.804.997 1.587.033 4.937-.379 7.441-.917zm-63.806-1.32c.524-.496 1.583-1.39 2.351-1.985 3.542-2.742 12.628-7.223 14.65-7.223.644 0 1.8-.477 2.572-1.06 1.293-.978 1.301-1.062.112-1.085-1.048-.017-1.149-.281-.541-1.418 1.033-1.931.951-2.216-.638-2.216-2.324 0-3.602.781-3.162 1.928.314.821.55.868.967.189.33-.535.508-.122.442 1.023-.15 2.602-1.69 2.427-2.279-.257-.299-1.358-.784-1.983-1.294-1.667-.449.277-1.917.431-3.262.34-1.771-.12-2.325.091-2.012.765.236.512.637 1.528.891 2.258.326.933.972 1.233 2.169 1.004 2.31-.442 2.163.779-.201 1.678-2.216.844-1.991 1.015-2.892-2.203-.611-2.189-.973-2.499-2.681-2.316-2.698.292-6.206 2.349-7.921 4.645-1.352 1.811-1.364 2.033-.234 4.411.653 1.378 1.187 2.863 1.187 3.299 0 1.039.605 1.003 1.776-.11zm1.134-4.125c-.583-.37-.842-.892-.571-1.161.66-.66 2.719.18 2.719 1.111 0 .917-.749.934-2.148.05zm2.148-5.443c0-.664.347-1.09.775-.946.426.143.776.567.776.946 0 .375-.35.802-.776.943-.428.143-.775-.283-.775-.943zm6.859-1.807c.245-.397.591-.722.765-.722.175 0 .32.325.32.722 0 .398-.346.723-.767.723s-.562-.325-.318-.723zm-26.301 1.019c.788-.838 3.535-2.754 6.103-4.255 3.105-1.817 4.67-3.184 4.67-4.081 0-.743-.361-1.349-.807-1.349-.449 0-.639-.637-.426-1.446.437-1.678.253-1.746-1.598-.59-1.034.646-1.276 1.416-.997 3.144.28 1.725.066 2.406-.87 2.766-1.044.4-1.166.162-.777-1.52.255-1.096.212-1.669-.099-1.271-.309.396-1.052.721-1.647.721-.653 0-1.062.636-1.03 1.598.047 1.34-.276 1.558-2.009 1.355-2.341-.272-3.835 1.598-3.106 3.893.253.8-.334 2.888-1.404 5.003-1.012 1.998-1.836 4.211-1.832 4.919.007.71.997-.658 2.202-3.035 1.207-2.378 2.838-5.012 3.627-5.852zm88.051 8.33c1.39-.33 3.666-.925 5.056-1.323 1.39-.397 3.666-1.045 5.056-1.438 7.773-2.202 11.67-2.928 15.846-2.951 2.556-.014 6.458-.34 8.667-.726 2.207-.386 6.452-1.085 9.432-1.555 2.979-.471 5.726-1.131 6.101-1.466.379-.336 1.375-.612 2.213-.612s2.155-.578 2.925-1.281c.768-.708 2.756-1.726 4.415-2.265 3.835-1.249 7.465-4.523 7.432-6.705-.073-4.982-1.47-16.747-2.076-17.477-.39-.468-.453-1.257-.143-1.76.31-.501.473-3.253.361-6.114-.112-2.862-.22-6.936-.243-9.053l-.042-3.849-2.135.47-2.138.468 1.137-2.277c.836-1.677.924-2.492.332-3.086-.594-.592-.805-.576-.805.063 0 .477-.814.866-1.808.866-.992 0-1.804.344-1.804.765s.288.587.639.37c.353-.218.793.412.984 1.401.241 1.259.024 1.797-.723 1.797-.77 0-.978.595-.746 2.167.494 3.367-.681 2.549-1.296-.903-.793-4.455-.492-8.913.765-11.346 1.607-3.108 1.404-4.362-.707-4.362-.992 0-1.827-.407-1.851-.903-.025-.496-.411-.091-.856.903-.739 1.648-.85 1.427-1.278-2.529-.468-4.336.581-8.305 2.198-8.305.921 0 .893 1.185-.069 2.986-.591 1.104-.502 1.86.377 3.201 1.692 2.583 4.404 2.324 6.183-.59 1.665-2.726 3.182-6.98 2.672-7.489-.193-.193-1.446.315-2.78 1.128-2.597 1.583-4.958 1.948-4.958.764 0-.397.764-.722 1.696-.722 2.742 0 4.343-2.371 3.889-5.761-.391-2.902.51-4.779 1.139-2.373.183.7.37-1.387.415-4.638.048-3.252-.262-6.82-.682-7.929-.544-1.425-.544-2.093 0-2.275.42-.14.766-.894.766-1.675 0-1.702-1.959-5.682-2.797-5.682-.325 0-.977-.732-1.443-1.626-.761-1.453-.805-1.357-.424.903.236 1.39.557 4.315.717 6.5l.289 3.972-.984-2.888-.984-2.888-.076 5.059c-.041 2.783-.377 6.115-.747 7.402-.416 1.445-.416 2.344 0 2.344.37 0 .697-.407.728-.903.04-.622.163-.644.395-.077.297.72-2.235 7.04-6.984 17.43-.777 1.7-1.412 3.708-1.412 4.464 0 .758-1.001 4.079-2.224 7.383-1.224 3.304-3.3 9.125-4.615 12.934-1.317 3.808-2.913 7.932-3.549 9.161-.635 1.231-.976 2.714-.752 3.293.223.582.061 1.27-.357 1.528-.476.294-.607-.019-.35-.829.314-.987.05-.891-1.092.403-1.491 1.691-2.113 4.174-.847 3.392.363-.226-.085 1.137-.995 3.026-.91 1.89-1.701 4.328-1.757 5.421-.187 3.602-.307 4.091-.915 3.716-.332-.204-.604-.11-.606.213-.002.321-.838 1.559-1.86 2.75-1.319 1.539-1.528 1.649-.72.381 1.878-2.946 1.37-4.266-.703-1.825-8.271 9.739-18.157 17.766-24.52 19.907-1.588.534-3.196 1.231-3.573 1.547-.379.316-1.415.574-2.306.574-.89 0-1.819.325-2.065.722-.245.396-1.158.728-2.028.733-.871.005-2.069.33-2.665.718-1.189.775 4.174.298 8.665-.769zm16.921-6.377c.489-.788 4.746-1.472 4.746-.765 0 .533-2.541 1.378-4.195 1.394-.52.007-.768-.276-.551-.629zm29.301-17.629c0-.678.569-1.803 1.265-2.501 1.098-1.104 2.961-3.917 7.245-10.939.906-1.486 1.153-1.572 1.696-.599 1.035 1.849-.715 8.583-2.34 9.008-.75.195-1.364.698-1.364 1.115 0 .418-.224.535-.496.262-.273-.274-1.736.713-3.252 2.194-2.02 1.973-2.754 2.361-2.754 1.46zm12.025-63.884c.243-1.888.765-3.757 1.163-4.153.482-.482.575.239.276 2.167-.246 1.587-.45 3.458-.455 4.153-.004.695-.327 1.264-.717 1.264-.426 0-.532-1.371-.267-3.431zm-111.691 87.131c0-.825-1.958-.844-2.466-.023-.211.342-.197.805.03 1.032.562.564 2.436-.213 2.436-1.009zm45.5.126c.994-.332 3.191-1.02 4.887-1.53 2.579-.774 3.005-1.156 2.624-2.36-.354-1.114-.195-1.334.711-.986.838.321 1.167.036 1.167-1.017 0-.854.321-1.266.77-.988.424.262 1.227-.126 1.783-.859.873-1.153 1.016-1.174 1.035-.161.013.646.477 1.553 1.034 2.014.795.658 1.453.455 3.07-.943l2.057-1.782-2.654.205c-2.115.162-2.637-.042-2.564-1.01.049-.667.535-1.627 1.08-2.135.812-.758 1.058-.65 1.386.611.321 1.226.606 1.364 1.42.69.798-.664 1.226-.561 1.982.475.919 1.255 1.015 1.232 1.928-.435.529-.966.877-2.454.774-3.311-.102-.856.206-1.797.684-2.094.636-.393.741-.019.39 1.376-.371 1.477-.215 1.912.684 1.912.641 0 1.331-.632 1.533-1.406.201-.771.743-1.503 1.198-1.624 1.425-.375 7.459-7.294 9.008-10.331 1.745-3.412 3.99-13.798 3.252-15.031-.395-.658-.269-.658.55.006 1.798 1.453 2.951-.054 3.071-4.015.062-2.038.297-3.708.524-3.708.224 0 .891 1.015 1.479 2.258l1.071 2.258 3.129-9.662c1.722-5.312 3.385-10.31 3.692-11.105.842-2.158 4.424-14.873 4.83-17.144.586-3.267-.335-5.607-2.203-5.607-.907 0-1.984-.335-2.393-.744-1.135-1.135-11.592-1.257-16.878-.197-5.56 1.116-5.985 1.14-5.466.302.216-.351 2.593-1.216 5.277-1.919 2.686-.704 5.147-1.507 5.468-1.787.323-.279 2.11-.206 3.973.161 11.63 2.298 17.027.321 18.822-6.896.985-3.958.553-6.383-1.027-5.777-.681.26-1.05-.067-1.057-.94-.005-.737-.211-2.09-.455-3.009-.353-1.313-.107-1.757 1.159-2.088 1.464-.381 1.563-.716 1.12-3.75-.268-1.83-.811-4.863-1.205-6.739l-.72-3.41-2.101 1.554c-1.156.854-3.365 1.621-4.91 1.706-1.546.084-5.044 1.243-7.775 2.576-2.729 1.332-5.29 2.455-5.686 2.494-1.558.155-4.42 1.711-6.138 3.337-.994.939-3.425 2.464-5.403 3.388-1.981.925-4.131 2.294-4.78 3.044-.65.749-1.956 1.365-2.903 1.369-1.002.003-2.722 1.041-4.126 2.483-1.322 1.362-2.833 2.31-3.357 2.11-.523-.201-1.168-.02-1.428.406-.264.425-1.442.771-2.62.771-1.805 0-2.212.342-2.579 2.182-.241 1.2-.719 2.356-1.065 2.571-.346.213-.629 1.486-.629 2.826 0 1.341-.304 3.237-.674 4.212-1.028 2.708-5.085 6.987-6.622 6.987-.754 0-1.371.325-1.371.723s-.438.721-.972.721c-.861 0-1.834 1.821-4.19 7.864-.372.946-.461 3.14-.203 4.868.811 5.4-.125 8.027-4.337 12.171-2.103 2.069-3.958 4.159-4.118 4.643-.163.486-1.748 1.067-3.528 1.292-1.779.227-3.627.723-4.107 1.101-.599.473-1.46.101-2.742-1.181-1.027-1.027-2.492-1.869-3.255-1.869-1.811 0-2.881-2.099-2.881-5.652 0-1.806-.378-3.006-1.027-3.254-.564-.216-1.134-1.145-1.265-2.064-.204-1.453-.581-1.638-2.923-1.435-4.182.365-8.693-2.602-11.157-7.342-1.23-2.366-.849-3.327.592-1.497.536.683 2.207 2.492 3.712 4.02 2.323 2.358 3.201 2.779 5.779 2.768 3.655-.012 5.04-.768 4.76-2.596-.321-2.092.771-5.512 2.059-6.453.64-.468 1.155-1.87 1.155-3.143 0-1.469.213-1.962.592-1.366.457.721.594.728.602.028.005-.496.028-1.146.053-1.444.022-.297-.678-.711-1.556-.919-1.511-.356-1.532-.447-.364-1.615 1.169-1.169 1.322-1.158 2.777.197 1.821 1.698 6.666 1.916 11.828.536 4.015-1.076 5.606-3.122 5.19-6.68-.288-2.481.877-3.538 1.963-1.779.265.428 1.671-.618 3.269-2.434 1.694-1.923 3.66-3.357 4.961-3.617 3.009-.602 4.609-3.269 3.978-6.631-.274-1.463-.7-2.364-.946-2.005-.264.388-1.712.399-3.522.028-2.372-.482-3.332-1.126-4.206-2.816-.623-1.205-.971-2.355-.771-2.552.199-.199.881.643 1.515 1.872.636 1.23 1.446 2.234 1.801 2.234.354 0 1.09.171 1.631.379.543.208 1.72-.304 2.616-1.139 1.46-1.36 1.58-1.954 1.156-5.71-.295-2.609-.147-5.189.393-6.822 1.147-3.482.372-8.115-1.443-8.588-1.91-.501-3.805 2.67-3.887 6.503-.047 2.29-.358 3.1-1.184 3.1-.615 0-1.551.407-2.078.903-.772.728-.877.695-.545-.182.225-.595.802-2.5 1.28-4.236 1.109-4.015 5.353-8.515 6.856-7.268.854.707 1.022.356 1.022-2.129 0-2.166-.295-2.978-1.083-2.978-.595 0-1.083.271-1.083.601 0 .962-7.708 8.063-8.752 8.066-.245 0-.631 1.369-.856 3.044-.223 1.673-.948 3.44-1.61 3.924-.664.486-.98 1.245-.704 1.689.718 1.163-2.588 5.749-4.504 6.245-.89.23-1.44.71-1.22 1.067.222.356 1.243.436 2.27.178 1.282-.322 1.713-.217 1.373.335-.505.816-8.386.971-8.386.163 0-.238-1.327-.306-2.952-.151-2.827.269-5.09-.745-4.03-1.807.279-.28.891-.122 1.36.347 1.507 1.507 3.013.915 6.704-2.635 3.439-3.304 5.524-4.669 7.307-4.785 1.687-.11 3.196-2.13 3.636-4.868.299-1.883 1.043-3.229 2.195-3.984.957-.629 1.579-1.565 1.381-2.083-.22-.568.023-.791.613-.566.947.365 2.613-1.104 5.423-4.78 1.254-1.636 1.488-1.701 2.527-.681.875.859 1.184 2.896 1.309 8.643l.166 7.516 3.217 3.053c1.769 1.676 4.045 3.466 5.054 3.976 1.013.51 2.607 1.5 3.547 2.197l1.706 1.269-1.935.737c-2.545.968-4.245.928-5.293-.12-1.472-1.472-1.837-.039-.872 3.414.826 2.942 1.122 3.273 2.597 2.902 2.89-.724 5.082-1.695 6.13-2.717 2.041-1.984 5.525-4.134 5.972-3.686.253.253.461.092.461-.358 0-.453.487-.634 1.083-.406.595.229 1.084.084 1.084-.323s1.478-1.306 3.285-1.996c1.806-.69 3.839-1.952 4.513-2.806.676-.854 1.797-1.767 2.492-2.031.697-.266 1.264-.835 1.264-1.27 0-.433-.297-.602-.662-.377-1.013.625-3.208-6.751-3.159-10.616l.044-3.431h-3.166c-2.031 0-3.18.325-3.207.903-.021.497-.49 3.34-1.046 6.319-2.348 12.604-2.282 12.499-3.958 6.301-.512-1.896-1.212-3.622-1.556-3.835-1.144-.707-.641-3.119 1.456-6.997 2.99-5.526 4.331-14.278 2.487-16.232-1.399-1.485-3.121-1.076-3.121.742 0 .904-.506 2.368-1.125 3.25-.62.885-.923 1.933-.677 2.333.248.4-.14.91-.861 1.135-.72.225-1.874.711-2.564 1.077-.69.371-1.695.671-2.235.671s-2.008.512-3.26 1.137c-2.395 1.194-4.555 1.168-4.471-.054.026-.397.952-1.046 2.059-1.444 3.472-1.247 6.414-3.835 9.507-8.367 3.985-5.838 3.657-8.003-.536-3.554-1.684 1.785-3.06 3.626-3.06 4.088 0 1.453-5.277 3.624-16.562 6.816-2.953.835-6.133 2.019-7.069 2.634l-1.701 1.112 1.519 1.416c2.175 2.026 1.191 2.44-1.404.592-1.669-1.189-2.509-1.386-3.541-.834-.949.508-1.612.466-2.216-.14-.669-.667-1.015-.62-1.544.215-.536.848-.685.868-.693.085-.007-.74-.252-.791-.97-.194-.529.437-1.583.902-2.347 1.029-4.537.758-11.136 6.991-10.142 9.58.691 1.803 3.939 2.917 5.558 1.906.877-.547 1.39-.592 1.39-.123 0 .411-.861 1.074-1.915 1.474-1.588.604-2.389.414-4.693-1.11-2.239-1.483-2.78-1.617-2.78-.699 0 1.881 1.359 3.842 3.449 4.977 1.111.601 1.49 1.079.868 1.095-.604.016-2.31-.969-3.793-2.19-1.479-1.219-2.733-1.87-2.782-1.444s-.131 1.1-.18 1.497c-.05.398-.276.64-.503.541-.227-.098-.992.398-1.697 1.104-1.032 1.032-1.111 1.494-.402 2.348 1.078 1.298 2.869 1.397 2.883.161.007-.561.213-.629.543-.182.779 1.062 3.594 2.529 4.854 2.529.6 0 1.093.323 1.093.721 0 .399-.812.722-1.806.722-2.141 0-2.22.529-.402 2.708 1.666 2 2.34 2.029 4.013.182.718-.795 2.089-1.444 3.044-1.444.973 0 1.541-.318 1.289-.723-.244-.397.061-.723.681-.723.618 0 1.125.136 1.125.302s.194.899.429 1.626c.358 1.1.299 1.14-.349.239-.531-.737-.782-.795-.791-.18-.005.496-.43.903-.941.903-.514 0-2.201.646-3.753 1.439-2.817 1.435-2.822 1.435-4.352 0-1.91-1.796-2.52-1.816-2.52-.079 0 .782.69 1.57 1.624 1.853.915.278 1.249.653.762.854-.474.197-1.509.012-2.299-.409-1.824-.978-5.142-1-5.142-.038 0 .403.3 1.297.668 1.987.369.688.83 1.781 1.027 2.428.196.644 1.275 1.353 2.4 1.571 3.772.739 8.539 2.279 8.988 2.906.246.344 1.495.082 2.773-.58 1.282-.661 2.763-1.037 3.294-.833.541.206 2.308-1.086 4.009-2.932 2.885-3.129 3.018-3.192 2.553-1.22-.569 2.42-3.541 5.331-5.443 5.331-.725 0-2.481.486-3.905 1.081-2.272.95-3.129.955-7.022.047-2.439-.569-4.62-1.22-4.844-1.446-.227-.225-1.16.079-2.073.678-1.486.976-1.615.973-1.233-.025.234-.611-.057-1.667-.646-2.348-1.425-1.642-2.164-6.661-1.158-7.873.433-.522 1.408-.948 2.166-.948.759 0 1.573-.508 1.812-1.128.587-1.533-.916-4.649-2.244-4.649-1.047 0-2.568-2.08-2.568-3.514 0-.394.412-1.147.913-1.671 1.596-1.671 3.477-4.926 2.845-4.926-.847 0-6.65 6.505-7.569 8.485-.414.893-.987 1.626-1.273 1.626-.765 0-2.122 3.753-1.937 5.363.1.863-.707 1.986-2.122 2.953-1.651 1.13-2.102 1.842-1.634 2.581.454.72.648.755.655.115.007-.496.499-.902 1.095-.902 1.722 0 1.259 1.133-.856 2.097-1.816.826-6.608 4.315-8.766 6.379-.524.503-1.281.914-1.679.914-.562 0 1.972-2.384 4.378-4.118.168-.119.107-.412-.132-.65-.24-.239-1.165.075-2.058.7-1.194.839-1.872.929-2.57.351-.7-.581-1.425-.476-2.758.399-1.999 1.308-2.198 1.917-1.014 3.101 1.042 1.043.131 3.828-1.256 3.828-.599 0-1.577-.492-2.177-1.09-.599-.599-1.418-.889-1.817-.642-.414.255.22 1.428 1.467 2.717l2.195 2.265-2.282 6.728c-1.743 5.135-2.73 6.993-4.167 7.843-1.668.983-6.48 7.137-6.48 8.283 0 .239 2.031.419 4.514.398 5.165-.045 8.103 1.149 9.788 3.982 1.404 2.361.849 3.168-1.366 1.982-2.434-1.303-9.999-1.151-12.692.257-3.891 2.032-5.396 4.591-5.152 8.763.199 3.429.357 3.695 2.559 4.343 1.891.557 2.349 1.067 2.349 2.618 0 1.061.211 2.987.471 4.283.459 2.297.416 2.347-1.76 2.028l-2.232-.329.389 4.192c.348 3.761.194 4.42-1.489 6.423-3.119 3.707-2.258 5.106.973 1.58 2.652-2.894 4.355-4.078 3.216-2.235-.311.504-.199.637.288.339.442-.273.655-.893.477-1.377-.37-1 3.685-3.842 6.484-4.544 1.024-.258 2.036-.747 2.248-1.091.538-.87 5.202-3.019 5.894-2.717.312.138-.381 1.226-1.541 2.417-1.159 1.192-1.873 1.762-1.584 1.264.29-.498.184-.903-.237-.903-1.233 0-.877 2.029.499 2.84 1.102.649 1.125.836.182 1.458-.753.494-1.172.442-1.373-.168-.431-1.313-1.514-1.828-3.017-1.435-2.14.559-3.067 2.08-2.19 3.587.691 1.187.76 1.157.78-.323.014-1.137.456-1.624 1.466-1.624.794 0 1.444.324 1.444.721 0 .398-.292.641-.65.541-.358-.099-.683.063-.723.362-.115.866.522.787 3.833-.477 2.927-1.12 3.112-1.355 3.037-3.86l-.08-2.668 7.57-1.497c4.162-.826 7.199-1.728 6.745-2.01-.453-.279-1.26-.345-1.792-.146-.599.223-1.492-.735-2.347-2.527-.76-1.586-1.652-2.885-1.986-2.885-.333 0-.594-1.057-.574-2.347l.031-2.347 1.409 2.67c1.611 3.046 5.583 6.358 7.63 6.358.761 0 1.741.573 2.179 1.275.439.702 2.47 2.187 4.513 3.297 3.257 1.773 3.77 1.877 4.165.845.821-2.135-.379-8.403-2.202-11.515-1.008-1.72-1.631-3.683-1.423-4.481.323-1.236.062-1.385-2.023-1.149-1.95.222-2.921-.211-5.233-2.342-1.562-1.437-3.746-3.148-4.853-3.803-2.01-1.19-3.301-3.072-2.103-3.072.349 0 2.455 1.484 4.68 3.297 2.428 1.977 5.077 3.463 6.615 3.713 2.415.393 2.822.145 6.93-4.199 3.37-3.566 4.098-4.091 3.201-2.305-1.591 3.17-1.473 4.244.827 7.461 2.386 3.34 3.355 3.656 8.697 2.841 3.685-.561 5.202-.964 9.718-2.579.695-.25 1.265-.741 1.265-1.092s.347-.637.773-.637c1.141 0 6.502-3.828 9.252-6.607 1.319-1.332 4.197-5.183 6.395-8.56 3.629-5.573 9.048-11.515 10.526-11.543.777-.016-.062 1.281-2.723 4.21-2.047 2.251-6.18 7.909-10.106 13.833-5.944 8.967-16.129 15.252-29.284 18.074l-3.971.851.248 7.175c.232 6.659.426 7.468 2.7 11.247 1.405 2.331 2.647 5.546 2.911 7.53.464 3.508 2.357 5.679 4.947 5.679.611 0 1.109.326 1.109.725 0 .398 1.509 1.128 3.353 1.622 1.844.492 4.465 1.916 5.826 3.159 2.244 2.057 2.816 2.237 6.217 1.956 2.058-.171 4.556-.582 5.549-.913zm17.355-13.59c.039-.87 2.15-3.43 2.829-3.43.341 0 1.63-1.057 2.863-2.349 2.254-2.358 4.746-3.425 2.954-1.264-.737.887-.688 1.084.273 1.084.643 0 1.17.325 1.17.721 0 .591-1.642.875-4.003.692-.214-.016-1.51 1.123-2.876 2.529-2.48 2.553-3.252 3.038-3.21 2.017zm12.211-9.57c-.039-.992-.233-1.399-.433-.903-.199.496-.673.903-1.052.903-.419 0-.436-.494-.042-1.265 1.165-2.277.952-7.273-.342-7.996-1.376-.772-.677-2.413.789-1.849.592.227 1.195-.252 1.494-1.188.595-1.881 1.5-1.14 2.228 1.827.466 1.896.395 2.052-.583 1.247-.94-.772-1.184-.659-1.555.723-.241.902-.438 2.451-.438 3.445.002 1.429.148 1.581.702.723.524-.814.699-.452.699 1.444 0 3.07-1.359 5.747-1.467 2.889zm3.711-5.779c.007-.595.469-2.057 1.032-3.25l1.02-2.165-.428 2.165c-.536 2.714-1.64 4.921-1.624 3.25zm-106.544-4.512c-1.47-4.771-.779-7.765 1.792-7.765.781 0 1.42-.324 1.42-.722 0-.399.426-.722.946-.722.521 0 1.645-.651 2.498-1.444 3.358-3.128 3.908-1.425 1.287 3.971-2.912 5.987-7.078 9.491-7.943 6.682zm3.711-2.529c1.935-2.193 4.094-5.939 3.669-6.364-.15-.15-1.819.439-3.707 1.308-2.803 1.289-3.364 1.851-3.042 3.048.216.807.398 2.036.403 2.731.014 1.755.643 1.586 2.677-.723zm106.149 1.505c-.266-.265-.482-.819-.482-1.227 0-.454.337-.411.856.106.469.472.686 1.024.48 1.23-.204.206-.589.155-.854-.109zm-8.245-4.269c.696-.826 1.268-2.288 1.275-3.25.009-1.396.152-1.53.711-.666.396.613.706.718.711.245.017-1.338 2.382-.624 2.977.899.931 2.372.699 2.74-.843 1.343-.873-.789-1.694-1.06-1.987-.653-.273.382-1.309 1.343-2.304 2.137l-1.804 1.445zm-1.962-1.191c.202-.53-.126-1.602-.732-2.384-1.093-1.416-1.104-1.416-1.979.019-.831 1.366-.901 1.325-1.283-.721-.365-1.947-.669-2.16-2.986-2.094-2.527.072-2.552.045-1.216-1.291.749-.749 1.671-1.171 2.05-.937s1.871-.137 3.313-.821c2.684-1.273 4.614-4.45 4.614-7.593 0-.873.223-1.366.494-1.093.273.27.517 2.357.541 4.634l.048 4.139h-2.512c-1.95 0-2.561.321-2.745 1.444-.174 1.06-.061 1.188.425.481.53-.776.747-.73 1.115.227.252.655.785.988 1.184.74.442-.272.727.683.727 2.44 0 1.589-.321 3.087-.713 3.33-.393.243-.548.009-.345-.52zm-106.207-3.472c-.235-.384-1.056-.697-1.819-.697-1.712 0-2.681-3.17-1.431-4.677.477-.576 2.669-1.721 4.869-2.544 3.294-1.233 4.42-1.359 6.378-.712 3.297 1.087 4.058 2.177 2.995 4.283-1.404 2.782-9.886 6.135-10.992 4.347zm8.255-3.587c.435 0 .788-.65.788-1.444 0-1.27-.458-1.436-3.791-1.373-2.747.052-3.296.21-1.986.571 2.214.613 3.005 3.685.952 3.702-1.113.009-1.149.119-.231.718.791.517 1.408.318 2.283-.733.66-.793 1.554-1.441 1.985-1.441zm-8.27-2.003c-.442-.709-2.498.955-2.498 2.02 0 2.092 1.761 2.133 2.213.051.224-1.03.353-1.963.285-2.071zm3.642 2.003c.245-.397-.223-.723-1.04-.723-.819 0-1.488.326-1.488.723 0 .398.468.723 1.041.723.572 0 1.241-.325 1.487-.723zm112.481-.234c-1.769-4.06-2.024-5.932-.897-6.627.396-.245.721.197.721.981s.407 1.563.903 1.731c.714.239.705.543-.04 1.446-.788.955-.748 1.252.241 1.804.742.417 1.093 1.358.943 2.533-.212 1.642-.44 1.413-1.871-1.868zm-7.401 1.215c-.567-.737-.745-1.096-.393-.799.353.3 1.31-.025 2.131-.722.955-.81 1.205-.875.697-.183-.437.597-.931 1.526-1.097 2.066-.23.746-.554.658-1.338-.362zm11.023-5.281c-.106-4.194.049-4.952.952-4.606.595.228 1.767-.194 2.605-.936 1.516-1.347 1.518-1.345.587.454-.515.993-1.131 1.968-1.369 2.165-.239.199-.92.992-1.517 1.762-.985 1.271-.968 1.355.181.924 1.455-.545 1.638.569.559 3.407-1.193 3.14-1.863 2.075-1.998-3.17zm-9.095.931c-.883-.885-.494-2.893.784-4.049 1.183-1.071 1.27-.961 1.359 1.692.087 2.656-.831 3.667-2.143 2.357zm-4.813-7.422c0-1.742.4-1.919.973-.426.225.584.096 1.252-.283 1.486-.38.236-.69-.241-.69-1.06zm12.052-.393c-.718-.525-.997-1.145-.622-1.377.376-.233 1.092.069 1.591.67 1.221 1.471.648 1.888-.969.707zm-9.165-1.012c0-.351-1.112-1.167-2.473-1.813-2.336-1.109-2.438-1.306-1.805-3.508.831-2.903.857-2.704-.332-2.704-1.478 0-3.561-4.778-2.731-6.26.581-1.041.742-.97 1.22.544.301.959 1.471 2.866 2.599 4.237 1.496 1.823 1.811 2.646 1.163 3.058-.7.445-.697.567.014.576.496.005.901.692.901 1.523 0 .905.581 1.664 1.444 1.889 1.45.379 2.083 3.098.723 3.098-.396 0-.723-.288-.723-.64zm11.178-.858c-.688-2.171-.183-2.251 1.596-.255 1.452 1.629 1.467 1.753.222 1.753-.738 0-1.556-.674-1.818-1.498zm-32.811-3.014c-.021-1.298.906-3.044 2.675-5.047 3.823-4.322 4.719-5.415 8.126-9.896.99-1.303 5.09-3.655 6.37-3.655.8 0 1.644-.407 1.876-.903.337-.721.506-.721.843.001.297.636 1.203.261 3.053-1.264 1.737-1.432 3.435-2.169 4.994-2.169 2.391 0 3.437 1.413 1.099 1.483-1.06.031-1.003.22.361 1.172 1.946 1.357 2.101 2.397.362 2.411-2.883.025-4.813 1.733-4.904 4.342-.077 2.247.267 2.752 3.084 4.507 3.182 1.98 3.529 3.419.826 3.419-1.121 0-1.346.329-.992 1.444.61 1.92-1.039 1.906-3.114-.027-2.072-1.93-1.999-2.861.226-2.861.992 0 1.805-.325 1.805-.723 0-.396-.263-.723-.586-.723s-1.298-.662-2.167-1.47c-.868-.811-1.581-1.135-1.581-.723 0 1.243-1.252.843-1.603-.514-.456-1.757.092-3.068 1.28-3.068.55 0 .849-.407.662-.905-.189-.503.946-1.634 2.569-2.56 2.715-1.547 2.829-1.737 1.704-2.86-1.125-1.125-1.329-1.057-3.089 1.034-1.505 1.788-2.607 2.317-5.494 2.635-1.987.218-3.694.419-3.793.443-.1.025-.18.858-.18 1.851 0 1.338-.384 1.804-1.477 1.804-.887 0-1.972.867-2.709 2.162-.677 1.191-1.75 2.166-2.384 2.169-1.54.006-3.548 2.309-3.512 4.033.023 1.079.283.918 1.174-.73l1.147-2.117 1.08 2.062 1.081 2.059.969-1.748c.532-.964.979-2.284.993-2.937s.465-1.353.999-1.559c.741-.283.957.483.903 3.204-.059 3.033-.263 3.529-1.334 3.253-1.142-.293-1.65.69-1.35 2.608.154.962-.864.58-2.466-.926-1.28-1.201-1.908-1.336-3.477-.74-1.053.401-1.942.492-1.975.204-.031-.288-.504.452-1.049 1.643l-.992 2.168zm23.409.131c-.26-.423-.319-.924-.131-1.114.189-.189.536.157.772.77.489 1.273.072 1.497-.641.344zm-97.108-7.197c0-.41.47-1.872 1.046-3.25.797-1.908 1.476-2.504 2.847-2.504.99 0 2.032.376 2.315.837.355.572.025.705-1.058.422-1.283-.335-1.84.112-3.016 2.414-1.437 2.817-2.134 3.498-2.134 2.081zm-2.167-.845c0-1.551 1.505-4.909 2.199-4.909.286 0 .691-.651.899-1.444.405-1.551 2.544-1.909 4.675-.782.691.363 2.366 1.075 3.727 1.582 1.358.506 2.106 1.044 1.659 1.193-.447.148-2.341-.406-4.211-1.232-3.143-1.391-3.494-1.414-4.69-.331-.715.644-1.963 2.518-2.777 4.161-.814 1.645-1.479 2.438-1.481 1.762zm13.875-3.032c.511-.555 1.044-.901 1.184-.77.427.407-.657 1.782-1.408 1.782-.389 0-.288-.456.224-1.012zm20.877-3.808c-.947-.907-1.956-1.502-2.242-1.324-.289.176-1.3-.561-2.253-1.638-1.292-1.463-1.35-1.642-.227-.7.824.693 2.45 1.264 3.609 1.269 1.628.009 1.864.171 1.029.713-.941.608-.927.7.101.711.653.007 1.392.544 1.642 1.198.651 1.692.297 1.645-1.659-.229zm-22.47-1.214c-4.401-1.505-6.214-3.28-4.458-4.364.373-.231.635.11.581.758-.058.683.662 1.402 1.706 1.71.992.293 3.187.948 4.878 1.458 3.442 1.039 4.767.496 2.652-1.083-1.339-1.001-1.329-1.025.234-.632 1.712.433 1.899.856 1.186 2.71-.553 1.444-1.058 1.402-6.779-.557zm-.004-3.334c0-.384.488-.511 1.083-.283.596.227 1.083.544 1.083.699 0 .157-.487.285-1.083.285-.595 0-1.083-.315-1.083-.701zm98.638-2.294c-1.367-1.317-1.357-1.338.541-1.338 1.976 0 2.32.468 1.38 1.879-.361.545-.973.372-1.921-.541zm-93.22.372c-3.788-.821-7.585-1.93-7.585-2.213 0-2.174 6.53-8.548 7.384-7.207.51.802.616.688.831-.898.051-.365.388-.932.749-1.262.383-.351.44-.224.138.3-.786 1.366.355 1.081 1.45-.361.527-.695.96-.94.962-.542.005 1.076-5.066 6.327-5.597 5.796-.252-.251.01-.747.585-1.102.573-.352.789-.894.482-1.201-.615-.615-5.54 4.254-5.54 5.473 0 .416.895.953 1.988 1.191 1.091.239 2.928.732 4.079 1.097 2.674.845 3.323.834 3.323-.06 0-.398-.731-.731-1.625-.745-1.539-.021-4.153-1.49-4.153-2.334 0-.214 1.545.161 3.431.837 4.967 1.778 4.249 4.35-.902 3.231zm108.389-10.557c-.184-.894-.529-2.845-.77-4.334l-.435-2.709h2.64c2.641 0 2.641.002 2.155 2.592-.999 5.321-2.923 7.706-3.59 4.451zm2.46-5.056c.006-.298-.476-.541-1.072-.541-1.222 0-1.266.126-.622 1.806.369.96.585 1.007 1.073.239.335-.529.614-1.207.621-1.504zm-44.044 4.824c0-.229.458-.872 1.018-1.432.561-.561 1.128-1.308 1.265-1.659.134-.351.976-.866 1.87-1.146 2.291-.712 2.15 1.235-.182 2.482-.992.532-1.805 1.236-1.805 1.566s-.488.601-1.083.601c-.596 0-1.083-.185-1.083-.412zm-25.999-3.046c0-.358.695-1.271 1.549-2.027 1.538-1.368 1.544-1.366.718.209-.921 1.755-2.267 2.836-2.267 1.818zm-19.863-1.598c-1.131-.487-.81-.632 1.49-.672 1.613-.028 4.319-.719 6.011-1.537 2.663-1.287 2.951-1.64 2.137-2.623-.835-1.004-.672-1.075 1.42-.614 1.509.33 2.745.202 3.417-.357.799-.662 1.054-.667 1.054-.021 0 .47.244.711.541.535.779-.458 3.793.786 3.793 1.566 0 .362-1.383.508-3.07.328-2.37-.254-4.179.177-7.928 1.893-5.051 2.311-6.436 2.545-8.865 1.502zm62.012-4.631c2.69-2.2 7.478-3.809 8.449-2.836.482.48-.309 1.055-2.368 1.724-1.701.552-3.905 1.416-4.897 1.922-2.845 1.453-3.447 1.041-1.184-.81zm16.892.472c-1.093-.676-1.987-1.445-1.987-1.703 0-.793 5.023-2.911 5.786-2.438.393.243.714 1.56.714 2.927 0 2.874-1.28 3.218-4.513 1.214zm3.069-2.04c0-.629-.386-1.016-.858-.858-1.339.448-1.561 2.002-.284 2.002.627 0 1.142-.515 1.142-1.144zm4.196 2.209c-.691-.692.313-4.067 1.326-4.457 1.28-.49 3.152 1.055 3.122 2.578-.019.985-.194.948-1.088-.232-.802-1.062-1.266-1.202-1.895-.571-.63.628-.607 1.105.091 1.947.761.917.739 1.114-.127 1.114-.578 0-1.221-.169-1.429-.379zm-67.029-1.699c0-.349.494-1.044 1.098-1.547.636-.528.921-1.48.674-2.255-.234-.739-.078-1.343.346-1.343.423 0 .77 1.301.77 2.889 0 2.408-.241 2.89-1.444 2.89-.794 0-1.444-.285-1.444-.634zm8.634-1.933c-.648-.783-.692-1.331-.149-1.874.545-.545 1.001-.337 1.56.709.967 1.806-.128 2.71-1.411 1.165zm56.45-4.113c.132-3.617.936-6.69 1.729-6.606.393.042 1.446 1.505 2.34 3.251l1.626 3.173-1.525 1.265c-.84.695-2.139 1.262-2.89 1.262-1.076 0-1.347-.496-1.28-2.345zm3.26-1.446c-.239-.894-.44-1.888-.445-2.209-.007-.321-.335-.384-.732-.138-1.219.754-.859 3.971.445 3.971.858 0 1.052-.429.732-1.624zm-60.852 1.479c-.229-.372-.87-.499-1.427-.286-.697.267-1.009-.164-1.009-1.395 0-.982.324-1.783.721-1.783.398 0 .723.298.723.665 0 .365.971.877 2.158 1.137 2.835.623 3.336 1.556 1.065 1.991-.997.19-2.001.041-2.231-.329zm-25.207-2.052c-.234-.38.243-.691 1.06-.691 1.745 0 1.921.401.428.974-.583.225-1.252.096-1.488-.283zm75.854-.691c-.247-.397.078-.721.723-.721.642 0 .967.324.721.721-.245.398-.571.723-.721.723-.152 0-.479-.325-.723-.723zm3.751.258c.475-.192.656-.899.407-1.568-.399-1.062-.301-1.09.763-.227 1.687 1.374 1.523 2.27-.407 2.204-.894-.033-1.238-.217-.763-.409zm-75.613-1.542c0-.606 2.436-2.96 4.183-4.039 1.931-1.193.709.76-1.654 2.646-1.392 1.11-2.529 1.737-2.529 1.393zm23.834-1.561c0-.375.36-.903.8-1.174.501-.31.632-1.608.349-3.473-.316-2.103-.236-2.66.274-1.897.811 1.218.968 4.352.304 6.079-.473 1.237-1.727 1.572-1.727.465zm-17.065-4.163c.854-.856 3.929-1.017 4.415-.231.281.454-.582.739-2.234.739-1.479 0-2.462-.229-2.181-.508zm21.759-5.992c.245-.396.772-.723 1.169-.723.398 0 .522.327.276.723-.245.397-.772.723-1.169.723-.398 0-.522-.326-.276-.723zm-56.392 127.396c1.165-.449 1.638-3.896.534-3.896-.333 0-.981.828-1.442 1.841-1.228 2.691-1.16 2.848.908 2.055zm10.848-1.798c-.288-.467-.808-.421-1.465.122-1.54 1.28-1.221 2.273.445 1.381.807-.431 1.265-1.109 1.02-1.503zm-5.675-.023c.218-.353.185-1.308-.074-2.122-.707-2.227-2.672-1.404-2.96 1.242-.215 1.97-.054 2.225 1.195 1.898.793-.208 1.62-.667 1.839-1.018zm14.585.412c-.732-.732-6.306-.955-6.73-.269-.236.381 1.211.672 3.358.672 2.076 0 3.594-.181 3.372-.403zm57.412-.793c-.489-.199-1.465-.211-2.167-.026-.702.182-.304.344.889.36 1.191.014 1.767-.137 1.278-.334zm-93.821-1.839c.422-.676.548-1.451.276-1.723-.622-.62-4.15 1.639-4.15 2.658 0 1.17 3.009.443 3.874-.935zm25.737-.216c0-2.512-2.487-2.512-2.632.001-.076 1.328.259 1.804 1.263 1.804.978 0 1.369-.515 1.369-1.805zm2.761-.121c-.341-1.753-1.729-1.954-1.729-.248 0 .798.44 1.453.982 1.453.539 0 .876-.543.747-1.205zm7.899.325c-.194-.587-4.701-2.19-7.59-2.698-.419-.075-.108 1.13.552 2.132.632.964.791.964 1.423 0 .632-.962.713-.962.725 0 .01.734.847 1.128 2.583 1.217 1.575.081 2.467-.171 2.307-.651zm45.284-.815c.838-.613 1.047-1.15.564-1.448-1.099-.678-3.063.229-3.063 1.414 0 1.268.796 1.279 2.499.034zm-96.389-1.916c0-1.408-.766-1.883-1.634-1.013-.578.58.178 2.457.99 2.457.354 0 .644-.65.644-1.444zm48.571-1.2c-.498-.201-.903-1.14-.903-2.087 0-1.31.286-1.613 1.201-1.262.835.319 1.034.19.655-.425-.508-.822-9.079-.962-9.079-.15 0 .175.569.966 1.264 1.76.695.795.858 1.209.362.917-.498-.29-.903-.201-.903.198s1.544.846 3.43.995c1.888.15 3.754.304 4.153.346.398.038.316-.093-.18-.292zm-4.032-1.448c-.692-.691-.594-1.685.162-1.685.356 0 .833.487 1.062 1.083.421 1.1-.348 1.479-1.224.602zm127.35-.558c0-.177-.325-.521-.721-.765-.398-.247-.723-.103-.723.316 0 .421.325.766.723.766.396 0 .721-.145.721-.317zm-170.755-3.374c.534-.865-1.071-2.211-1.97-1.654-.676.417.047 2.455.871 2.455.332 0 .826-.361 1.099-.801zm25.95.08c-.246-.398-.101-.723.32-.723.419 0 .763.325.763.723s.595.721 1.323.721c.991 0 1.326-.546 1.326-2.165 0-1.795-.292-2.167-1.703-2.167-1.163 0-1.926.586-2.408 1.852-.882 2.32-.878 2.48.061 2.48.421 0 .564-.323.318-.721zm13.969-.407c.134-.113.033-.882-.229-1.706-.311-.975-1.09-1.498-2.233-1.498-1.927 0-2.227.684-.891 2.022.676.674.595.866-.36.866-.747 0-1.229-.566-1.229-1.444 0-1.031-.481-1.444-1.684-1.444-1.379 0-1.685.382-1.685 2.102v2.103l4.032-.398c2.218-.217 4.143-.489 4.279-.603zm4.448-2.429c0-1.399-.428-2.232-1.265-2.462-.695-.191.119-.173 1.806.04 1.689.213 3.07.14 3.07-.163 0-.3-.667-1.625-1.481-2.942-1.793-2.904-3.782-3.692-9.741-3.854-1.694-.047-2.219-.409-2.308-1.588-.152-2.024-.315-2.123-2.475-1.519-1.491.419-1.738.796-1.278 1.963.314.794.593.999.621.452.042-.822.245-.829 1.197-.038 1.03.854.988 1.011-.407 1.526-.887.328-1.34.922-1.057 1.381.351.566.683.514 1.12-.174.487-.772.621-.72.63.241.019 2.022-1.294 2.188-2.522.316-1.88-2.871-3.55-1.982-3.58 1.907l-.024 3.314 7.516-.424c5.606-.32 7.385-.213 6.999.412-.286.459-.174.837.247.837.42 0 .765.649.765 1.444 0 .803.482 1.444 1.084 1.444.716 0 1.083-.714 1.083-2.113zm-7.944-4.436c0-.464.628-.569 1.589-.265 1.563.496 1.568.471.344-1.397-.685-1.043-.964-1.898-.622-1.898.536 0 2.3 3.07 2.3 4.006 0 .178-.814.326-1.806.326-.993 0-1.805-.347-1.805-.772zm6.5.128c0-.356.487-.833 1.082-1.062.66-.253 1.083 0 1.083.644 0 .585-.487 1.062-1.083 1.062-.595 0-1.082-.29-1.082-.644zm5.055 5.054c0-.751-.505-1.56-1.121-1.797-.669-.257-.936-.13-.66.316.253.41.068 1.219-.412 1.797-.718.864-.599 1.051.66 1.051 1.023 0 1.533-.454 1.533-1.367zm-46.361-1.474c-.479-.769-1.128-1.24-1.443-1.046-.314.193-.167.812.325 1.371 1.331 1.512 2.122 1.283 1.118-.325zm15.364.676c.365 0 .663-1.06.663-2.356 0-1.568.481-2.653 1.441-3.254 1.271-.792 1.415-.728 1.217.559-.12.802-.607 1.844-1.079 2.316-1.621 1.619-.852 2.198 2.429 1.828 3.881-.436 3.795-.372 4.382-3.299.365-1.826.218-2.294-.716-2.294-.646 0-1.174-.325-1.174-.723 0-.397-1.117-.721-2.485-.721-1.367 0-2.686.324-2.932.721-.244.398-1.014.723-1.709.723-.696 0-1.895.466-2.665 1.039-1.188.878-1.266 1.264-.512 2.499.489.803.678 2.017.416 2.698-.369.96-.193 1.128.794.751.697-.269 1.567-.487 1.93-.487zm-12.336-2.108c0-.365-.201-1.186-.446-1.825-.338-.88-.681-.966-1.414-.356-.761.63-.781 1.016-.096 1.797 1.013 1.152 1.956 1.337 1.956.384zm2.888-1.916c0-.538-1.94-2.476-2.476-2.476-.227 0-.412.649-.412 1.442 0 .964.482 1.446 1.444 1.446.795 0 1.444-.185 1.444-.412zm156.967-6.991c1.811-2.409 4.811-8.558 4.811-9.858 0-.399-1.123-1.26-2.497-1.912-1.373-.651-3.318-2.006-4.322-3.01-1.714-1.714-1.86-1.742-2.377-.474-.646 1.576-.573 13.1.099 15.775.624 2.483 2.171 2.295 4.286-.521zm-143.658.42c.475-1.239-.823-2.561-2.115-2.157-.396.124-.826.932-.953 1.793-.17 1.156.143 1.569 1.187 1.569.781 0 1.626-.544 1.881-1.205zm8.358.242c0-1.556-.782-1.901-2.244-.988-1.884 1.177-1.71 1.951.438 1.951 1.024 0 1.806-.418 1.806-.963zm9.39-1.247c0-.373-.652-.679-1.446-.679-1.593 0-1.966 1.137-.541 1.649 1.093.391 1.987-.044 1.987-.97zm-15.167-.295c0-.646.423-.897 1.083-.646.595.231 1.082.056 1.082-.382 0-.44-.812-.8-1.805-.8-1.322 0-1.804.386-1.804 1.444 0 .795.325 1.444.721 1.444s.723-.478.723-1.06zm157.454-.48c.602-.648 1.739-1.297 2.529-1.446 1.454-.272 4.713-5.714 5.645-9.428.268-1.066 1.93-3.119 3.696-4.567 4.325-3.543 6.176-6.854 6.176-11.045 0-7.965-3.396-17.783-7.607-21.994-1.886-1.886-1.907-1.98-.436-1.98 1.937 0 1.968-1.519.117-5.597-.973-2.144-1.834-3.07-2.859-3.07-1 0-1.617-.629-1.944-1.986-1.147-4.755-4.984-10.832-9.803-15.528-5.454-5.312-7.792-6.177-7.817-2.888-.023 2.628-2.038 5.139-4.696 5.845-1.725.457-2.193 1.014-2.373 2.82-.173 1.752.36 2.895 2.405 5.16 2.605 2.884 2.616 2.92 1.309 4.653-1.25 1.657-4.006 3.801-8.099 6.306-1.216.742-2.047 2.093-2.434 3.955-.324 1.556-1.425 3.704-2.452 4.774-1.251 1.305-1.988 3.037-2.239 5.252-.204 1.818-.655 3.304-1.001 3.304-.344 0-.627.326-.627.723 0 .396.65.721 1.445.721.794 0 1.444-.325 1.444-.721 0-.397.672-.723 1.493-.723 1.193 0 1.395.309 1.006 1.536-.315.987-.217 1.368.269 1.067.414-.256 1.089.11 1.498.812.686 1.178.747 1.162.767-.207.012-.818.499-2.119 1.082-2.889.584-.772 1.071-2.018 1.083-2.771.023-1.334 4.624-6.732 9.107-10.684 1.528-1.348 2.712-1.832 3.79-1.551 1.395.365.918 1.036-4.338 6.105-3.248 3.131-6.156 5.693-6.465 5.693-.307 0-.774 1.219-1.036 2.709-.26 1.489-.908 3.402-1.439 4.25-.925 1.479-.73 2.431.503 2.431.318 0 .392-.487.163-1.082-.229-.598-.077-1.085.335-1.085.414 0 .959.655 1.212 1.453.447 1.408.592 1.383 4.427-.721 2.181-1.196 4.858-2.176 5.951-2.176 1.96 0 4.681-1.914 5.335-3.751.186-.521.57-.728.856-.465 1.186 1.099-3.342 7.104-5.359 7.104-.645 0-1.483.304-1.86.676-.377.374-2.148.779-3.935.903-2.844.199-3.283.454-3.505 2.033-.137.993-.557 1.994-.93 2.226-1.076.669.621 4.261 2.069 4.377 3.8.302 5.12.181 7.411-.676 1.385-.517 2.788-1.42 3.114-2.005.328-.585.915-.866 1.305-.625.391.241 1.191.038 1.779-.451 1.27-1.053 1.495-.889 2.098 1.512.378 1.509.19 1.848-1.085 1.944-1.428.108-3.929 2.297-4.467 3.91-.129.391-1.38.208-2.902-.429-4.11-1.715-4.53-1.518-4.501 2.125.03 3.576.264 3.927 4.003 5.997 2.466 1.365 4.355 1.185 5.723-.545.197-.252 1.496-1.23 2.886-2.171 2.272-1.538 2.181-1.357-.901 1.794-3.816 3.897-4.334 6.262-2.279 10.383 1.272 2.548 3.388 2.828 5.358.704zm1.685-15.67c.655-.724 1.195-1.641 1.195-2.034s.529-2.48 1.177-4.638c.902-3.009 1.294-3.601 1.676-2.54.744 2.068-2.834 10.534-4.453 10.534-.437 0-.253-.595.405-1.322zm-12.98-10.57c-.224-.583-.268-1.478-.096-1.988.169-.509.48-.033.688 1.06.41 2.133.073 2.66-.592.928zm15.369-2.429c-1.31-1.448-1.528-2.29-.588-2.29.333 0 .976.812 1.428 1.806.98 2.146.772 2.265-.84.484zm-5.096-4.747c.467-1.214 2.457-2.153 2.457-1.158 0 .371-.644 1.018-1.428 1.439-1.147.613-1.35.557-1.029-.281zm5.204-3.458c-.658-1.713-1.222-2.544-1.25-1.849-.065 1.521-2.22 1.718-2.22.203 0-.697-.431-.91-1.264-.617-1.032.363-1.098.267-.361-.527.497-.535.902-1.565.902-2.288s.83-2.626 1.843-4.229c1.977-3.133 1.898-4.447-.445-7.426-1.354-1.72-1.708-1.797-6.443-1.4l-5.008.419.41-2.524c.323-1.991.14-2.626-.875-3.016-.747-.286-1.528-.104-1.872.435-.435.69-.588.615-.597-.293-.023-2.359 1.409-2.056 4.291.915 2.513 2.59 3.23 2.949 5.261 2.64 2.966-.454 5.838 1.158 7.471 4.188 1.149 2.136 1.153 2.452.044 4.677-1.526 3.058-1.498 3.877.286 8.571.811 2.132 1.371 4.184 1.247 4.558-.122.373-.763-.723-1.42-2.437zm-19.09.421c-.268-.752-.956-1.914-1.528-2.581-.93-1.086-.888-1.173.399-.838.835.218 1.593 1.182 1.808 2.298.443 2.307.003 3.035-.679 1.121zm-14.352-6.784c-.253-.411.355-.723 1.403-.723 1.016 0 1.847.326 1.847.723 0 .396-.63.721-1.402.721-.77 0-1.603-.325-1.848-.721zm-122.779 41.889c.247-.398-.078-.723-.723-.723-.64 0-.965.325-.721.723.246.398.571.721.721.721.152 0 .479-.323.723-.721zm95.971-4.01c.247-.642.126-.932-.284-.679-.391.243-.714.746-.714 1.119 0 1.04.518.811.998-.44zm-123.191-2.31c-.179-2.174-.544-2.754-1.849-2.939-1.27-.18-1.624.122-1.624 1.386 0 1.654 1.863 4.262 3.044 4.262.36 0 .552-1.219.429-2.709zm162.922-7.822c.732-1.912.494-3.192-.595-3.192-.57 0-1.242.648-1.492 1.437-.782 2.464 1.182 4.113 2.087 1.755zm-101.973-9.547c.808-.809-1.383-3.246-2.37-2.635-.365.223-.662-.178-.658-.898.007-1.383 2.946-3.112 5.295-3.112.771 0 1.793.536 2.272 1.19 1.519 2.078 4.509.714 5.391-2.459 1.117-4.02.974-4.509-1.321-4.509-1.634 0-2.273-.468-2.989-2.199-1.048-2.53-.053-5.745 1.781-5.745.628 0 .913-.423.686-1.017-1.018-2.651-9.537-3.557-9.103-.969.248 1.474-.746 1.619-2.706.395-1.094-.683-1.769-.664-3.171.085-.98.524-2.186.704-2.684.397-.58-.36-.721-.264-.393.267.28.452-.185 1.559-1.034 2.459-1.315 1.392-1.463 2.113-1.004 4.884.295 1.787.494 4.453.442 5.927-.054 1.472.22 2.873.606 3.112.398.245.735-.604.775-1.956.04-1.315.334-3.201.652-4.196.555-1.731.579-1.738.649-.18.075 1.682 1.472 2.323 1.576.723.11-1.699 2.043 3.426 2.074 5.504.028 1.745-.134 1.935-1.028 1.195-.839-.695-1.521-.678-3.249.087-2.156.955-2.547 1.731-1.821 3.626.428 1.122 10.214 1.142 11.332.024zm-8.033-1.289c.036-.84.206-1.011.436-.436.21.522.185 1.144-.056 1.384-.239.24-.412-.186-.38-.948zm4.699-8.125c-1.872-3.622-.424-5.213 4.148-4.564 1.231.177 2.289.903 2.663 1.827.587 1.453.622 1.436.665-.307.026-1.013-.36-2.272-.856-2.798-.728-.772-.7-.896.14-.641.575.177 1.28 1.198 1.568 2.276.289 1.077 1.28 2.588 2.208 3.36 1.776 1.48 1.697 1.545-2.291 1.858-1.391.108-3.559.419-4.819.691-2.041.439-2.413.255-3.426-1.702zm-5.782-6.036c-1.386-1.978-1.119-2.258 1.282-1.346 1.044.396 2.389.534 2.988.304 1.928-.739 1.161.384-1.038 1.523-2.004 1.035-2.189 1.007-3.232-.481zm-50.802 14.582c1.947-.939 4.467-1.444 7.23-1.444 4.76 0 4.938-.716.536-2.167-2.454-.811-3.428-.819-5.634-.042-2.689.946-5.915 3.402-5.915 4.502 0 .862.452.761 3.783-.849zm70.494-16.697c.513-.824.55-1.449.097-1.727-.389-.241-.707-.056-.707.411 0 .494-.606.691-1.444.471-.871-.227-1.444-.021-1.444.517 0 2.026 2.301 2.241 3.498.328zm-63.38-3.532c.233-1.783.676-4.46.983-5.95.428-2.078.33-2.709-.424-2.709-1.065.002-3.512 7.317-3.512 10.494 0 1.411.322 1.828 1.265 1.649.897-.173 1.386-1.183 1.688-3.484zm4.27-7.63c0-.428-.812-1.54-1.806-2.473-1.996-1.875-2.488-1.231-.63.823.995 1.102 1.051 1.788.36 4.53-.446 1.776-.797 3.656-.779 4.175.038 1.083 2.853-5.874 2.855-7.055zm62.866 2.855c.465-1.217.473-2.193.024-2.733-.433-.52-.441-1.241-.026-1.896.369-.584.664-1.385.659-1.783-.034-2.197-1.647 2.565-1.757 5.183-.15 3.604.094 3.877 1.1 1.229zm82.388-6.515c.882-1.064.796-1.13-.815-.643-2.534.77-3.504 1.83-1.672 1.83.825 0 1.946-.534 2.487-1.187zm-143.087-2.381c0-.854-1.409-1.765-1.926-1.246-.519.516.395 1.924 1.245 1.924.376 0 .681-.306.681-.678zm141.082-4.351c.517-2.595-.506-9.238-1.592-10.325-.617-.616-.823.933-.823 6.16 0 5.659.19 6.91 1.003 6.599.551-.213 1.185-1.308 1.412-2.434zm-75.781.955c.663-1.729.146-1.862-.875-.225-.486.775-.589 1.411-.233 1.411.358 0 .858-.535 1.108-1.186zm3.171-3.528c-.224-.222-.627.178-.898.891-.393 1.028-.309 1.112.405.405.493-.491.715-1.074.493-1.296zm-60.166-.751c1.191-1.014 1.678-1.664 1.082-1.44-.595.223-1.629.599-2.298.836-1.222.437-2.436 2.461-1.472 2.454.287-.002 1.495-.833 2.688-1.85zm3.971-.312c.994-.777 1.381-1.42.861-1.429-.521-.008-.744-.342-.5-.738.245-.397.121-.723-.276-.723-.396 0-.922.326-1.168.723-.244.396-.021.73.5.738.518.009.132.652-.861 1.429-.992.777-1.481 1.413-1.083 1.413s1.535-.636 2.527-1.413zm118.148-12.817c-.788-.789-1.329.467-.764 1.771.536 1.237.577 1.237.875-.024.173-.727.123-1.514-.111-1.747zm19.137 1.78c1.546-1.188 2.243-6.102 1.333-9.395-.59-2.136-1.092-2.679-2.464-2.679-1.944 0-3.192-2.527-1.891-3.83.436-.436.792-1.208.792-1.716 0-.727-.389-.746-1.831-.09-1.495.682-2.045.624-2.983-.317-1.055-1.055-1.015-1.376.484-3.802 1.636-2.646 1.636-2.651.197-4.09s-1.441-1.437-1.898 1.422c-.519 3.253-1.661 3.845-6.23 3.232-2.231-.299-2.979-.122-3.328.786-.248.646-.754.985-1.126.756-.626-.388-.42 1.284.637 5.12.55 2.001 4.82 7.223 9.568 11.704 4.094 3.863 6.462 4.647 8.74 2.899zm-17.377-5.58c-.374-1.596-.62-1.947-.667-.957-.074 1.574.639 4.101 1.044 3.697.119-.12-.051-1.353-.377-2.74zm-79.935-.289c.905-1.38.945-1.815.199-2.101-1.582-.606-2.813.635-2.284 2.305.611 1.923.697 1.916 2.085-.204zm-3.138.415c0-.941-.861-1.566-1.558-1.135-.747.463-.103 1.736.877 1.736.374 0 .681-.271.681-.601zm57.966-4.568c.889-.458 2.055-1.031 2.59-1.272 1.035-.466 2.97-5.324 2.988-7.503.017-2.044-1.197-.786-1.707 1.769-.268 1.341-1.673 3.452-3.373 5.069-3.06 2.911-3.163 3.316-.498 1.937zm-70.639-11.495c-.77-1.246-1.628-.679-2.424 1.605-1.13 3.242-.976 3.402 1.044 1.104.987-1.121 1.609-2.34 1.38-2.709zm109.449.774c0-.793-.15-1.442-.335-1.442s-.683.649-1.109 1.442c-.616 1.153-.548 1.446.335 1.446.627 0 1.109-.627 1.109-1.446zm-50.428-5.616c.665-.108 1.414.134 1.667.541.708 1.148 2.976.879 4.076-.478.763-.941.772-1.092.044-.652-1.649.991-3.748-1.664-3.748-4.739 0-1.528-.258-2.777-.576-2.777-1.1 0-2.312 1.74-2.312 3.317 0 .871-.487 1.77-1.083 1.999-.595.229-1.083 1.023-1.083 1.764 0 1.563.798 2.581 1.394 1.778.227-.304.955-.643 1.621-.753zm-61.957-4.855c2.056-1.851 4.698-2.659 7.022-2.148 2.18.479 2.323.414 1.441-.648-1.163-1.4-5.216-1.55-7.467-.274-2.136 1.21-6.296 5.733-6.315 6.867-.016.779 1.203-.091 5.319-3.797zm16.692 2.527c-.246-.396-.915-.721-1.488-.721s-1.041.325-1.041.721c0 .398.669.723 1.488.723.817 0 1.287-.325 1.041-.723zm-.18-1.923c-.498-.199-1.31-.199-1.806 0-.497.201-.092.365.903.365.992 0 1.399-.164.903-.365zm52.397-1.11c1.124-1.123 1.103-2.023-.044-2.023-.499 0-1.315.65-1.811 1.446-.73 1.167-.723 1.443.042 1.443.52 0 1.334-.39 1.813-.866zm-42.015-3.069c-.665-1.012-1.769-1.866-2.455-1.9-.755-.033-.891-.2-.344-.42 1.196-.482 1.161-2.41-.046-2.41-1.123 0-4.107 2.644-4.107 3.637 0 .955.978.872 2.022-.171.564-.564.866-.595.866-.089 0 .428-.501 1.195-1.114 1.703-1.558 1.294-.197 2.507 1.683 1.502 1.115-.596 1.656-.523 2.358.324 1.547 1.865 2.539-.035 1.137-2.176zm-7.675-3.286c0-2.029-1.018-3.468-1.67-2.359-.56.953.355 5.253 1.029 4.837.353-.218.641-1.333.641-2.478zm66.793-2.162c1.75-.796 3.879-1.45 4.728-1.45 2.024 0 1.465-1.728-.659-2.041-.883-.129-2.064.141-2.621.604-.555.461-1.343.634-1.75.383-1.282-.791-3.599.999-5.099 3.939-1.897 3.718-1.825 4.061.386 1.85 1.007-1.01 3.265-2.487 5.015-3.285zm-69.329.309c-.276-4.366-1.074-5.047-1.074-.917 0 2.745.39 4.214 1.121 4.214.089 0 .067-1.484-.047-3.297zm-17.503-.494c.239-.711.698-.692 2.155.084 1.018.541 2.291.824 2.827.628.622-.23.281-.635-.941-1.124-1.055-.419-2.143-1.13-2.421-1.577-.525-.852-3.248 1.06-3.248 2.28 0 .95 1.289.718 1.628-.291zm98.4-2.709c.246-.396-.059-.721-.679-.721s-1.127.325-1.127.721c0 .397.306.721.681.721.374 0 .88-.324 1.125-.721zm-9.512-1.785c1.283-.356 2.654-.237 3.697.32.908.487 2.265.768 3.012.625 1.853-.352 2.186-3.344.515-4.612-1.524-1.154-6.341-1.432-5.656-.325.388.626-.465 1.006-1.884.84-.241-.028-1.366.917-2.501 2.101-2.208 2.305-1.995 2.384 2.817 1.051zm14.919-.95c-.007-.282-.276-.93-.598-1.438-.424-.668-.821-.411-1.433.937-1.143 2.508-1.083 2.691.597 1.792.794-.426 1.439-1.006 1.434-1.291zm-16.73-4.367c.3-2.049-1.769-2.864-3.325-1.31-1.085 1.086-1.067 1.258.237 2.242 1.799 1.357 2.794 1.057 3.088-.932zm3.042-12.759c.979-1.336.964-1.371-.204-.454-.697.547-1.265 1.331-1.265 1.747 0 .413.093.618.204.454.114-.168.682-.952 1.265-1.747zm7.067-5.881c1.476-2.894 1.902-4.92 1.687-8.021-.162-2.353-1.111-2-2.511.939-.672 1.411-3.032 4.256-5.243 6.32-2.21 2.064-4.348 4.354-4.75 5.087-.642 1.17-.525 1.268.956.805.927-.29 1.849-.728 2.048-.971.197-.244 1.174-1.095 2.166-1.889 1.807-1.444 1.807-1.444.67 0-.623.794-1.191 2.419-1.261 3.611l-.127 2.167 2.439-2.57c1.343-1.413 3.109-3.879 3.926-5.478zm-151.537 273.181c0-.685 2.162-1.029 2.548-.407.235.381-.241.691-1.06.691-.818 0-1.488-.127-1.488-.284zm18.899-5.106c.871-1.916 3.249-2.919 3.249-1.371 0 .541-.433.983-.962.983s-.962.291-.962.646c0 .354-.475.826-1.053 1.048-.864.332-.912.098-.272-1.306zm210.407-1.109c-.244-.399-.101-.723.32-.723s.765.324.765.723c0 .396-.143.721-.32.721-.175 0-.519-.325-.765-.721zm-205.111-2.891c.246-.396.772-.721 1.168-.721.399 0 .523.325.276.721-.244.399-.77.723-1.168.723-.396 0-.52-.324-.276-.723zm201.28-3.249c.016-1.191.178-1.591.361-.888.182.702.17 1.677-.028 2.166-.199.489-.347-.086-.333-1.278zm-18.345-2.575c1.306-.867 2.209-1.746 2.003-1.95-.206-.206-.884.049-1.507.566-.956.792-1.31.688-2.267-.681-.816-1.165-1.357-1.399-1.919-.837-.949.948-1.939 1.02-1.939.138 0-.353.814-.847 1.806-1.095 2.136-.538 2.377-1.856.433-2.366-.77-.201-1.535-1.203-1.743-2.279-.426-2.223.033-3.041.912-1.621.387.627 1.348.84 2.665.587 2.015-.386 2.029-.367.588.805-1.362 1.107-1.39 1.343-.389 3.122 1.704 3.025 6.267 3.093 10.911.166 3.299-2.079 3.805-2.195 6.477-1.482 2.895.772 3.533 1.44 2.174 2.28-.398.245-.723 1.195-.723 2.108 0 1.588-.131 1.628-2.895.891-2.351-.629-3.271-.559-4.876.368-1.088.627-3.28 1.357-4.867 1.619-1.589.264-3.865.65-5.056.859l-2.167.379zm9.938-3.316 2.014-2.642-2.339 1.378c-1.285.758-2.855 1.945-3.485 2.64-1.059 1.167-1.033 1.265.323 1.265.845 0 2.329-1.125 3.487-2.641zm4.294-.969c.246-.398.103-.723-.318-.723-.42 0-.764.325-.764.723 0 .396.143.721.317.721.177 0 .521-.325.765-.721zm-46.583 0c-.492-1.193-1.182-2.167-1.532-2.167-.349 0-.635-.325-.635-.723 0-1.345 1.578-.732 1.968.763.213.817.782 1.334 1.264 1.149.585-.225.765.241.543 1.404-.422 2.216-.524 2.19-1.608-.426zm5.531.955c-1.032-1.032-.372-1.678 1.716-1.678 1.205 0 2.992-.524 3.968-1.163s2.244-.981 2.817-.763c.573.22 1.201.085 1.395-.299.194-.386.262-.286.152.22-.11.508-.737.826-1.39.709-1.381-.246-1.624 1.02-.285 1.497.494.178.687.557.421.842-.264.284-1.198.134-2.076-.338-1.244-.663-1.72-.658-2.148.035-.302.489-.926.657-1.385.374-.459-.285-1.257-.166-1.773.262-.515.428-1.15.564-1.412.302zm13.247-.529c0-.145.486-1.193 1.078-2.331 1.049-2.01 1.079-2.019 1.084-.332.004 1.673.056 1.69 1.404.471 1.43-1.294 2.979-1 2.876.544-.038.59-.172.567-.431-.074-.253-.63-.651-.702-1.229-.222-.959.797-4.782 2.349-4.782 1.944zm-26.282-1.02c-.201-.326.201-1.079.892-1.671 2.576-2.206 3.147-2.209 1.52-.005-1.851 2.5-1.886 2.525-2.412 1.676zm-.802-4.462c-.483-1.526-2.137-1.94-2.888-.723-.529.854-1.806.968-1.806.159 0-.311 1.01-.944 2.243-1.411 2.004-.756 2.282-.697 2.612.564.203.776.657 1.411 1.008 1.411.349 0 .637.325.637.722 0 1.294-1.336.759-1.806-.722zm16.25-2.801c0-1.067-.452-1.533-1.486-1.533-.819 0-1.305-.297-1.079-.658.431-.699 4.732.62 4.732 1.449 0 .264-.487.88-1.084 1.376-.905.751-1.083.648-1.083-.634zm-23.111-.001c0-.399.327-.926.723-1.171.397-.246.723-.12.723.276 0 .399-.326.922-.723 1.169-.396.246-.723.12-.723-.274zm37.375-1.591c-1.079-1.183-1.1-1.385-.15-1.385.613 0 1.811.649 2.665 1.444 1.474 1.373 1.481 1.441.15 1.385-.77-.033-1.97-.683-2.665-1.444zm-43.129.317c.07-1.79 2.892-3.869 5.251-3.869 1.628 0 2.67-.404 2.953-1.142.77-2.005.496-3.168-.644-2.73-1.966.754-1.127-1.055 1.264-2.726 1.291-.901 2.873-2.223 3.516-2.937 1.271-1.413 2.802-1.727 2.802-.577 0 .399-.307.723-.684.723-.376 0-1.561.812-2.632 1.806-1.072.992-1.577 1.806-1.123 1.806.456 0 .83.487.83 1.082 0 .596-.407 1.092-.903 1.099-.496.01-1.39 1.065-1.987 2.349-.683 1.472-1.701 2.418-2.763 2.569-1.105.157-1.546.588-1.287 1.264.255.662-.089 1.025-.969 1.025-.75 0-1.876.197-2.505.438-.628.241-1.131.159-1.119-.18zm39.699-2.469c0-.419.325-.562.723-.316.397.245.721.589.721.765 0 .175-.324.318-.721.318-.398 0-.723-.344-.723-.767zm-.939-2.597c.256-.67-.268-.978-1.692-.993-2.108-.023-5.184-1.792-4.427-2.546.228-.231 1.018-.102 1.751.284.734.388 2.716 1.074 4.404 1.525 3.425.913 3.959 1.867 1.329 2.369-1.245.238-1.633.056-1.365-.639zm-18.469-2.146c-.847-.955-.825-1.29.148-2.263s1.573-1.011 4.062-.266c1.605.481 2.92 1.136 2.92 1.453 0 .472-4.874 2.323-5.861 2.225-.152-.016-.725-.532-1.269-1.149zm-16.702-8.213c0-.396.342-.721.763-.721s.566.325.319.721c-.246.398-.59.723-.764.723-.177 0-.318-.325-.318-.723zm-126.391-8.087c0-.847.243-1.249.542-.889.298.36.814.857 1.144 1.104.331.246.089.648-.542.889-.824.316-1.144.007-1.144-1.104zm14.67-1.855-.739-2.361 2.204 1.699c2.808 2.166 3.079 3.02.959 3.02-1.272 0-1.867-.58-2.424-2.358zm3.206-3.084c-2.878-3.138-2.442-4.231.534-1.339 1.385 1.346 2.524 2.693 2.527 2.99.016 1.081-1.118.469-3.061-1.651zm-6.138-.377c-1.066-1.154-1.155-1.764-.259-1.764.615 0 1.769 2.174 1.357 2.559-.107.101-.603-.255-1.098-.795zm27.625-2.485c-.247-.398-.023-.728.499-.733.686-.009.648-.203-.138-.711-1.416-.915-2.371-.915-1.807 0 .246.396.122.721-.274.721-1.13 0-1.644-1.287-.648-1.617.658-.22.565-.796-.357-2.204-1.713-2.614-1.601-3.943.196-2.317.795.717 1.444 1.722 1.444 2.226 0 .505.858 1.591 1.904 2.416 1.046.822 1.514 1.496 1.039 1.496-.474 0-.66.325-.414.723.246.397.12.721-.276.721-.398 0-.924-.324-1.168-.721zm-32.444-2.303c-1.377-1.968-.684-2.915.723-.989.564.77 1.025 1.013 1.025.54 0-.472.325-.859.722-.859.398 0 .723.649.723 1.444 0 1.917-1.808 1.839-3.193-.136zm5.18.38c.496-.2 1.308-.2 1.804 0 .498.199.091.365-.901.365-.996 0-1.401-.166-.903-.365zm20.596-.022c.702-.184 1.677-.171 2.167.026.489.199-.087.347-1.278.333s-1.591-.176-.889-.359zm-1.64-3.91c0-.44.489-.613 1.085-.385 1.895.727 1.207-1.732-1.085-3.871-1.191-1.114-2.16-2.462-2.155-2.999.007-.604.213-.695.542-.235.293.407 1.383 1.28 2.424 1.942 1.828 1.163 2.855 3.658 2.251 5.471-.365 1.097-3.062 1.163-3.062.077zm-7.221-8.589c0-.398.975-.723 2.166-.723 1.193 0 2.167.325 2.167.723 0 .397-.974.721-2.167.721-1.191 0-2.166-.324-2.166-.721zm118.883-13.422c-.917-2.387-.417-3.529.65-1.483 1.259 2.416 1.294 2.627.435 2.627-.357 0-.844-.515-1.085-1.144zm-133.936-134.635c0-.993.164-1.399.365-.903s.201 1.31 0 1.806-.365.089-.365-.903zm-.705-8.759c-.091-2.857.19-4.331.951-4.963 1.174-.971 1.521-.009.407 1.119-.374.377-.803 2.312-.955 4.298l-.274 3.611zm93.435-1.31c-.699-.772-1.095-1.828-.884-2.347.248-.603.573-.335.898.739.365 1.208.899 1.58 1.895 1.32 1.129-.295 1.229-.173.534.663-1.06 1.279-.927 1.3-2.443-.375zm-82.212-7.301c.884-.928 1.746-1.544 1.916-1.368.171.177-.552.938-1.605 1.689l-1.916 1.369zm80.369-9.576c0-.52.477-1.576 1.061-2.347.913-1.21 1.063-1.236 1.082-.197.012.664.217 1.801.453 2.529.356 1.1.298 1.14-.35.239-.531-.737-.782-.795-.791-.18-.005.496-.335.903-.733.903s-.722-.426-.722-.947zm5.054-1.22c0-.398.346-.723.767-.723s.562.325.318.723c-.246.396-.59.721-.765.721s-.32-.325-.32-.721z" fill="#1e1e1e"/></svg>