<svg xmlns="http://www.w3.org/2000/svg"><path d="m442.942 179.277c-1.166-.689-4.005-3.074-6.304-5.301-5.003-4.849-6.587-5.385-9.399-3.179-1.75 1.371-2.027 2.023-1.883 4.394.092 1.531-.099 2.786-.416 2.786-1.248 0-5.03-4.553-6.715-8.087-3.443-7.219-4.003-14.113-1.326-16.268.75-.604 2.74-.86 5.927-.767 6.752.198 10.262 2.224 18.071 10.43 6.511 6.844 7.479 7.354 11.28 5.954 2.496-.919 2.733-2.874 1.182-9.794-1.506-6.703-2.945-10.467-4.481-11.7-.83-.668-1.266-.415-2.425 1.402-.779 1.216-2.355 3.087-3.507 4.152l-2.092 1.939-7.148-4.28c-3.932-2.356-9.618-5.245-12.633-6.424-3.014-1.178-5.76-2.411-6.1-2.741-.896-.868-.833-2.964.351-11.659 1.436-10.588 1.468-38.964.07-42.786-.548-1.483-1.007-2.911-1.012-3.173-.07-.773 3.265-3.619 12.149-10.538 7.751-6.033 16.532-13.971 19.256-17.404 1.861-2.343 3.801-1.296 6.166 3.326 3.021 5.899 6.421 10.253 14.048 17.991 3.728 3.781 6.779 7.424 6.779 8.092s-.831 1.742-1.845 2.385l-1.848 1.173.471 14.236c.26 7.828.767 17.265 1.127 20.971 1.057 10.917.867 23.805-.408 28.01-3.948 12.965-13.996 25.119-22.698 27.445-2.028.542-2.88.437-4.609-.582zm5.822-68.346c0-24.004-.069-24.29-1.613-27.427-1.558-3.065-5.69-7.274-7.14-7.274-.387 0-1.222 1.138-1.851 2.528-.973 2.145-1.185 6.076-1.409 26.108l-.267 23.585 1.816 2.353c2.254 2.918 5.629 4.747 8.374 4.542l2.087-.161zm-385.404 51.18c-.845-.57-2.541-2.467-3.768-4.212-2.331-3.3-6.802-7.868-10.772-11.181-1.61-1.343-3.135-2.482-4.401-3.247-6.149-3.707-16.069-6.56-19.724-5.67-3.991.971-5.479 4.577-3.983 9.641.787 2.653-.343 3.291-2.917 1.653-5.818-3.697-12.315-16.402-12.317-24.081 0-6.629.896-8.222 5.846-10.397 8.018-3.523 14.155-3.982 27.117-2.026 5.822.876 6.889.597 8.724-2.278 2.616-4.104 2.217-4.619-6.05-7.806-22.483-8.667-36.728-19.721-40.077-31.097-1.543-5.239-1.419-7.373.733-12.584 4.494-10.893 13.15-22.866 37.59-52l4.805-5.725 4.601-.204c3.749-.161 5.929.23 11.772 2.122 3.945 1.276 8.588 2.915 10.314 3.643 10.154 4.282 19.406 6.034 22.74 4.304.819-.421 5.869-7.454 6.686-8.567 2.037-2.772 5.205-3.456 8.007-.365 5.059 7.685-6.148 33.298-14.83 45.191-2.166 2.847-2.217 4.362-.19 5.735 13.683 9.275 17.619 12.214 22.095 16.506 2.908 2.789 6.609 7.231 8.224 9.868 4.015 6.561 4.779 10.847 3.683 20.657-1.521 13.608-4.895 22.183-10.672 27.124-16.347 13.981-38.622 30.259-46.953 34.314-4.138 2.012-4.285 2.03-6.283.675zm32.001-28.977c2.893-2.058 5.439-4.199 5.663-4.76.526-1.338-1.324-4.747-3.649-6.708-1.017-.857-3.731-2.457-6.033-3.551-3.991-1.898-7.21-2.92-22.842-7.242l-6.862-1.897-2.699 2.805c-2.757 2.863-3.46 5.456-1.831 6.752.477.38 2.527 1.215 4.553 1.856 5.393 1.702 18.232 10.221 22.675 15.045 2.288 2.486 5.128 1.895 11.025-2.3zm18.87-23.279c1.085-6.573-1.756-12.346-9.924-20.167-6.781-6.494-15.046-11.638-20.651-12.855-4.526-.981-5.352-.682-7.569 2.719-2.502 3.842-2.329 5.603.689 6.997 1.351.626 3.034 1.135 3.738 1.135 2.813 0 16.268 6.313 21.277 9.981 2.701 1.976 4.176 3.871 6.812 8.738 1.849 3.417 3.771 6.211 4.269 6.211.52 0 1.097-1.169 1.359-2.759zm-52.079-28.749c2.073-1.476 5.213-5.81 5.213-7.198 0-2.094-4.382-4.198-11.287-5.417-6.708-1.186-10.233-2.328-16.728-5.42-6.707-3.195-16.323-10.583-18.131-13.931-1.803-3.334-3.542-2.542-4.17 1.901-.591 4.162 1.203 7.163 8.038 13.454 4.54 4.178 15.255 11.061 17.221 11.061.409 0 1.282.289 1.947.64 3.838 2.038 12.969 4.989 16.503 5.334.381.07 1.009-.155 1.394-.428zm18.924-34.019c2.008-2.112 4.368-6.608 4.368-8.313 0-1.342-.458-1.448-7.824-1.836-9.118-.48-10.855-.956-23.722-6.497-11.421-4.919-15.184-5.605-18.814-3.432-4.426 2.653-4.235 6.768.443 9.553 5.273 3.138 15.753 6.155 34.862 10.033 3.386.688 6.333 1.421 6.547 1.631.854.827 2.772.302 4.139-1.139zm238.401 110.963c-.569-.549-3.651-4.253-6.85-8.226-10.891-13.526-12.298-16.261-9.595-18.631 1.423-1.247 1.446-1.747 1.446-30.855 0-19.107-.253-30.049-.72-30.89-.464-.84-1.455-1.303-2.78-1.303-4.2 0-2.624-2.629 12.183-20.312 2.682-3.205 5.786-7.108 6.896-8.674l2.018-2.85 1.207 1.551c1.54 1.978 2.057 5.726 2.057 14.904 0 8.115.084 8.28 5.562 11.576 3.482 2.094 4.883 5.368 5.361 12.535.48 7.172.086 7.458-5.483 3.996-5.689-3.537-5.52-4.324-5.291 24.493l.198 24.89 1.952 1.624c1.072.893 2.714 1.627 3.649 1.627 1.052 0 1.7.385 1.7 1.015 0 .892-2.712 7.036-8.831 20.008-1.985 4.207-3.102 5.05-4.679 3.521zm-167.683-2.143c-1.076-1.39-2.14-2.677-2.361-2.863-.922-.77-9.599-11.973-10.963-14.157-2.937-4.698-3.132-5.922-1.21-7.539l1.725-1.457v-28.346c0-17.572-.282-29.307-.728-30.874-.662-2.297-.941-2.526-3.124-2.526-1.321 0-2.402-.191-2.402-.423 0-1.383 5.048-8.453 11.268-15.777 3.948-4.651 8.25-10.071 9.559-12.049l2.382-3.597 1.607 1.811c1.522 1.715 1.608 2.335 1.608 11.762 0 11.13-.148 10.76 5.824 14.229 3.479 2.019 5.009 5.462 5.62 12.64.584 6.874-.092 7.404-5.375 4.222-5.962-3.594-5.72-4.58-5.72 23.374 0 19.361.196 24.6.961 25.99.867 1.569 2.015 2.248 5.816 3.43 1.14.352 1.128.606-.212 4.087-.787 2.04-2.61 6.068-4.052 8.949-1.438 2.883-3.219 6.681-3.955 8.439-1.696 4.062-3.485 4.256-6.257.675zm416.228-1.451c-4.983-5.029-8.074-6.083-12.007-4.095-1.454.736-2.937 1.336-3.292 1.336-1.04 0-3.566-2.852-4.608-5.201-.937-2.116-.81-2.462 5.175-14.151 3.377-6.589 6.321-12.673 6.547-13.518.535-2-1.219-3.122-7.129-4.561-6.504-1.587-6.574-1.701-5.092-8.453 1.342-6.126 1.784-24.074.688-27.979-.688-2.448-.626-2.518 5.804-6.484 5.406-3.33 13.921-11.438 15.228-14.493 1.222-2.862 2.266-2.762 4.907.464 1.523 1.864 3.339 3.081 6.088 4.078 4.746 1.719 7.256 1.561 8.197-.523 1.095-2.416 2.563-1.494 5.053 3.17 1.784 3.338 2.204 4.792 1.849 6.395-.345 1.566-7.785 17.315-9.809 20.764-.162.276.745 1.104 2.005 1.851 1.739 1.028 3.51 1.356 7.334 1.357h5.04l-.069 2.191c-.07 1.204-.478 2.777-1.041 3.498-.776.994-1.023 3.407-1.023 10.061 0 4.815-.353 11.445-.791 14.736-.59 4.475-.59 6.177 0 6.751 2.364 2.29-.443 6.282-8.197 11.661-3.231 2.243-7.506 6.121-10.422 9.458-2.72 3.111-5.304 5.657-5.742 5.657-.434 0-2.57-1.791-4.738-3.979zm9.434-21.986c.775-1.795.981-4.645.835-11.552-.163-7.872-.366-9.274-1.411-9.911-.853-.521-1.559-.535-2.37-.07-1.074.655-5.126 7.526-6.029 10.219-.218.654-1.509 3.169-2.864 5.577-1.355 2.409-2.464 5.049-2.467 5.867 0 1.375.373 1.504 5.039 1.72 2.774.127 5.76.287 6.64.365 1.234.106 1.838-.415 2.627-2.248zm-4.419-36.195c1.889-1.426 8.19-12.803 8.19-14.789 0-1.657-.536-2.108-4.615-3.901-4.733-2.079-6.192-2.41-6.744-1.524-.168.274-.533 4.62-.813 9.648-.443 8.077-.364 9.274.669 10.276 1.397 1.356 1.848 1.395 3.311.289zm-323.751 57.761c-2.125-1.676-4.11-3.465-4.409-3.975-.303-.513-2.202-2.647-4.224-4.75-4.668-4.847-5.013-6.492-5.018-23.859-.001-7.269-.332-14.343-.722-15.717-.47-1.661-1.761-3.332-3.82-4.966-3.09-2.456-4.205-5.421-2.234-5.945.479-.127 2.589-.613 4.694-1.078 7.52-1.664 7.901-3.187 1.285-5.156-3.091-.919-4.433-1.707-5.147-3.024-.883-1.629-.787-2.13 1.09-5.728 5.434-10.427 21.31-27.191 25.75-27.191 2.625 0 9.38 4.604 14.919 10.165 5.094 5.117 11.93 9.891 15.034 10.499 2.595.507 5.103 4.967 4.417 7.851-.281 1.179-.731 11.998-1.001 24.041-.267 12.045-.734 22.582-1.033 23.416-.472 1.31-.309 1.515 1.2 1.515 4.22 0 2.665 4.086-5.647 14.825-6.223 8.041-9.359 11.15-10.538 10.444-.443-.267-1.889-2.119-3.207-4.117-1.385-2.097-2.902-3.628-3.593-3.624-.655 0-3.821 2.125-7.03 4.716-3.21 2.59-6.074 4.708-6.368 4.708-.296 0-2.273-1.37-4.398-3.05zm16.53-18.066 2.156-2.589.204-21.271c.112-11.699-.069-21.524-.379-21.832-.802-.777-9.47 2.56-11.052 4.252-1.16 1.241-1.313 2.918-1.521 16.628-.303 19.426-.07 21.386 3.14 25.002 3.015 3.413 4.479 3.375 7.452-.19zm-8.18-53.296c3.837-1.762 6.511-3.393 6.511-3.972-2.631-5.378-13.625-10.233-18.059-7.201-2.65 1.828-3.202 3.934-2.083 7.958 1.071 3.859 3.117 6.203 5.409 6.203.939 0 4.641-1.343 8.222-2.988zm107.327 72.74c-1.335-.92-5.055-4.436-8.267-7.809-4.616-4.85-5.957-6.724-6.4-8.941-.309-1.541-.576-8.865-.591-16.278-.069-7.412-.359-14.609-.756-15.994-.443-1.544-2.074-3.809-4.217-5.853-3.053-2.91-3.397-3.511-2.726-4.726.421-.764 1.413-1.389 2.201-1.389s3.125-.479 5.19-1.059c5.338-1.506 5.171-3.103-.497-4.751-2.749-.797-4.637-1.791-5.319-2.8-.972-1.438-.923-1.85.612-5.051 3.322-6.948 15.501-21.502 21.653-25.878 2.783-1.981 3.75-2.32 5.58-1.966 3.286.639 7.073 3.357 14.221 10.215 5.893 5.651 13.012 10.402 15.591 10.402 1.531 0 4.344 5.753 3.695 7.561-.303.843-.777 11.389-1.052 23.433-.274 12.045-.722 22.707-.996 23.697-.421 1.542-.26 1.828 1.139 2.022 3.046.421 2.514 3.344-1.728 9.511-4.853 7.057-12.841 16.134-13.902 15.799-.443-.141-2.001-1.903-3.452-3.913s-3.092-3.754-3.646-3.872c-1.161-.254-3.531 1.295-9.182 5.981-2.203 1.826-4.164 3.322-4.359 3.326-.198 0-1.447-.747-2.784-1.667zm13.714-18.036c3.598-3.812 3.679-4.399 3.679-26.375 0-11.299-.26-20.704-.597-20.9-.689-.415-8.898 2.587-10.696 3.906-1.813 1.33-2.891 12.681-2.376 25.008.507 12.217 1.067 14.654 4.014 17.602 2.667 2.665 4.013 2.837 5.973.759zm-12.477-52.323c.662-.338 3.465-1.606 6.226-2.824 2.759-1.219 5.16-2.576 5.336-3.021-1.782-6.197-14.311-10.561-18.299-7.301-2.392 1.953-2.745 4.325-1.239 8.364 1.645 4.411 2.499 5.389 4.696 5.389 1.141 0 2.615-.273 3.28-.611zm-174.163 69.843c-1.905-2.02-14.808-20.776-14.808-21.523 0-.324.67-2.472 1.486-4.778 1.368-3.859 1.513-5.973 1.83-26.811l.346-22.623-1.831-1.395c-1.005-.767-1.83-1.763-1.83-2.212 0-.763 5.862-9.259 11.955-17.328 1.512-2.002 3.04-3.371 3.549-3.182.492.183 1.505 1.88 2.256 3.773 1.634 4.134 5.882 9.054 7.345 8.509 1.412-.526 4.747-5.328 5.842-8.414.499-1.408 1.27-2.561 1.712-2.561.859 0 12.475 20.909 12.514 22.524.07.53-1.765 3.229-3.953 5.997-6.156 7.789-6.634 8.088-7.992 5.001-.444-1.02-2.364-3.919-4.254-6.443-2.456-3.275-3.654-4.38-4.188-3.864-.507.493-.756 9.514-.773 28.173l-.069 27.447 1.912 2.684c2.656 3.727 2.459 5.143-1.109 7.975-2.264 1.797-3.408 3.422-4.557 6.482-1.706 4.534-3.001 5.145-5.429 2.569zm307.833-3.784c-2.869-2.829-7.986-7.57-11.374-10.535l-6.157-5.391.107-25.605c.07-14.083.394-26.818.741-28.299.536-2.252.421-2.902-.647-3.949-1.079-1.056-1.173-1.645-.583-3.707 2.174-7.643 11.047-20.422 13.316-19.179 1.475.809 7.041 5.162 9.646 7.543 3.161 2.888 3.3 4.686.689 8.847l-1.904 3.031-.196 26.775c-.148 18.743.069 27.196.568 28.177.934 1.688 6.711 5.355 8.436 5.355.675 0 1.556-.583 1.952-1.303.463-.843.713-11.727.702-30.827l-.069-29.524-2.067-1.965c-3.317-3.154-2.831-4.686 3.442-10.836 3.023-2.965 5.82-5.391 6.214-5.391.708 0 8.549 9.139 13.126 15.299 1.818 2.447 2.2 3.444 1.685 4.378-1.308 2.37-2.197 16.2-2.197 34.202 0 16.723.113 18.487 1.343 20.823 1.326 2.519 1.326 2.594 0 5.57-1.754 3.965-6.513 11.789-9.971 16.392l-2.763 3.678-2.297-4.689c-1.264-2.579-2.93-5.106-3.702-5.617-1.276-.844-1.618-.712-3.659 1.388-1.238 1.274-3.191 4.179-4.339 6.452-1.545 3.062-2.447 4.124-3.477 4.093-.779-.069-3.689-2.307-6.607-5.186z" fill="#fff" fill-rule="evenodd"/></svg>