<svg preserveAspectRatio="none" xmlns="http://www.w3.org/2000/svg"><g fill="#1e1e1e"><path d="m480.001 167.619c-1.926 0-3.502 1.577-3.502 3.502v112.557c0 1.926 1.577 3.503 3.502 3.503l150.612.001c1.925 0 3.483-1.578 3.483-3.504v-112.557c0-1.925-1.558-3.502-3.483-3.502zm0 1.167 150.612.001c1.294 0 2.315 1.039 2.315 2.334v112.557c0 1.295-1.021 2.334-2.315 2.334h-150.612c-1.295 0-2.335-1.039-2.335-2.334v-112.557c0-1.294 1.04-2.335 2.335-2.335z" transform="matrix(.965926 -.258819 .258819 .965926 -39.934319 151.47032)"/><path d="m478.439 152.405c-1.926 0-3.502 1.576-3.502 3.502v206.323c0 1.927 1.576 3.503 3.502 3.503h170.692c1.924 0 3.502-1.576 3.502-3.503v-206.324c0-1.925-1.578-3.502-3.502-3.502h-170.692zm0 1.166h170.692c1.296 0 2.334 1.04 2.334 2.335v206.324c0 1.297-1.038 2.334-2.334 2.334h-170.692c-1.295 0-2.335-1.037-2.335-2.334v-206.324c0-1.294 1.04-2.335 2.335-2.335z" transform="matrix(.965926 -.258819 .258819 .965926 -47.841354 154.745843)"/><path d="m476.267 143.435c-4.608 0-8.352 3.744-8.352 8.352v209.248c0 4.608 3.744 8.352 8.352 8.352h173.61c4.609 0 8.352-3.744 8.352-8.352v-209.242c0-4.613-3.74-8.357-8.351-8.357h-173.61zm0 1.168h173.61c3.978 0 7.185 3.206 7.185 7.184v209.243c0 3.979-3.209 7.185-7.185 7.185h-173.61c-3.976.005-7.184-3.205-7.184-7.178v-209.249c0-3.977 3.208-7.185 7.184-7.185z" transform="matrix(.965926 -.258819 .258819 .965926 -47.177865 154.47088)"/><path d="m507.479 344.162c-.852 0-1.55.717-1.55 1.569v10.924c0 .851.698 1.55 1.55 1.55h11.014c.853 0 1.551-.699 1.551-1.55v-10.924c0-.852-.699-1.569-1.551-1.569zm0 1.167h11.014c.221 0 .383.181.383.402v10.924c0 .22-.162.383-.383.383h-11.014c-.221 0-.383-.163-.383-.383v-10.924c0-.222.162-.402.383-.402z" transform="matrix(.965926 -.258819 .258819 .965926 -73.413426 144.737088)"/><path d="m639.471 359.549c-1.57 0-2.845 1.296-2.845 2.863v12.219c0 1.567 1.275 2.846 2.844 2.846h26.279c1.568 0 2.843-1.279 2.843-2.846l.001-12.219c0-1.567-1.276-2.863-2.844-2.863zm0 1.167h26.278c.937 0 1.678.76 1.678 1.696v12.219c0 .936-.741 1.678-1.678 1.678h-26.279c-.936 0-1.678-.741-1.678-1.678v-12.219c0-.936.741-1.696 1.679-1.696z" transform="matrix(.965926 -.258819 .258819 .965926 -73.141094 181.464693)"/><path d="m654.884 360.237c-.673 0-1.223.549-1.223 1.222v9.447c0 .675.55 1.222 1.223 1.222h8.662c.673 0 1.24-.547 1.24-1.222v-9.447c0-.673-.569-1.222-1.24-1.222zm0 1.169h8.662c.044 0 .073.012.073.053v9.447c0 .043-.031.055-.073.055h-8.662c-.043 0-.055-.014-.055-.055v-9.447c-.001-.042.012-.053.055-.053z" transform="matrix(.965926 -.258819 .258819 .965926 -72.312462 183.096785)"/><path d="m628.243 298.45c-2.103 0-3.829 1.725-3.829 3.831v.527c0 .183-.041.307-.092.364-.05.059-.127.129-.456.129h-49.383c-1.389 0-2.535 1.145-2.535 2.534v5.416c0 1.39 1.147 2.535 2.535 2.535h49.383c.368 0 .446.057.475.091.027.034.073.187.073.509v1.076c0 2.105 1.726 3.83 3.829 3.83h27.045c2.103 0 3.829-1.725 3.829-3.83v-13.184c0-2.106-1.724-3.83-3.829-3.83h-27.045zm0 1.167h27.045c1.475 0 2.662 1.191 2.662 2.664v13.185c0 1.474-1.187 2.663-2.662 2.663h-27.045c-1.474 0-2.663-1.189-2.663-2.663v-1.076c0-.432-.036-.869-.347-1.239-.309-.371-.817-.53-1.367-.53h-49.384c-.758 0-1.367-.608-1.367-1.368v-5.416c0-.758.609-1.368 1.367-1.368h49.384c.562 0 1.055-.184 1.35-.528.293-.345.363-.773.363-1.131v-.528c.001-1.476 1.19-2.665 2.664-2.665z" transform="matrix(.965926 -.258819 .258819 .965926 -58.967738 169.83632)"/><path d="m580.768 305.637c-.674 0-1.222.548-1.222 1.222v3.027c0 .672.548 1.222 1.222 1.222h49.985c.199 0 .208.046.2.037-.007-.011.037.046.037.255v4.796c0 .672.55 1.24 1.222 1.24h19.223c.671 0 1.221-.568 1.221-1.24v-9.337c0-.674-.55-1.222-1.221-1.222h-70.665zm0 1.168h70.664c.043 0 .054.012.054.054v9.337c0 .042-.013.072-.054.072h-19.223c-.041 0-.054-.029-.054-.072v-4.796c0-.358-.063-.742-.328-1.04-.263-.3-.682-.42-1.076-.42h-49.985c-.041 0-.055-.014-.055-.054v-3.027c0-.043.014-.054.055-.054z" transform="matrix(.965926 -.258819 .258819 .965926 -59.638414 170.073862)"/><path d="m655.045 300.599c-.829 0-1.514.667-1.514 1.494 0 .83.685 1.515 1.514 1.515.828 0 1.513-.686 1.513-1.515 0-.827-.684-1.494-1.513-1.494z" transform="matrix(.965926 -.258819 .258819 .965926 -55.870014 179.83174)"/><path d="m513.565 383.561-.984.639c2.011 3.181 5.555 5.289 9.592 5.289 4.035 0 7.599-2.111 9.612-5.289l-.985-.62c-1.806 2.851-4.998 4.74-8.626 4.74-3.631 0-6.803-1.904-8.609-4.759z" transform="matrix(.965926 -.258819 .258819 .965926 -82.247023 148.321269)"/><path d="m516.91 384.071c1.316 1.083 2.996 1.732 4.833 1.732 1.858 0 3.565-.663 4.887-1.77" transform="matrix(.965926 -.258819 .258819 .965926 -81.845277 148.159902)"/><path d="m505.835 363.414v32.88c0 1.925 1.577 3.483 3.502 3.483l174.578.001c1.926 0 3.501-1.558 3.501-3.483v-32.551l-1.165-.001v32.552c0 1.294-1.041 2.315-2.335 2.315l-174.579-.001c-1.295 0-2.336-1.02-2.336-2.315v-32.88z" transform="matrix(.965926 -.258819 .258819 .965926 -78.434741 167.420443)"/><path d="m556.191 170.626c-20.151.033-40.61 1.122-62.126 3.173h-.018c-6.592.775-11.781 6.193-11.781 12.912v81.355c0 6.719 5.19 12.152 11.781 12.93h.018c43.037 4.102 81.797 4.36 122.496 0 6.606-.708 11.781-6.212 11.781-12.93v-81.355c0-6.718-5.175-12.204-11.781-12.912-20.349-2.181-40.206-3.206-60.363-3.174zm0 1.167c20.113-.032 39.928.998 60.234 3.174 6.038.647 10.742 5.625 10.742 11.744v81.355c0 6.119-4.704 11.115-10.742 11.762-40.607 4.352-79.271 4.093-122.238 0-.006-.001-.013 0-.018 0-6.029-.718-10.742-5.649-10.742-11.762v-81.355c0-6.113 4.712-11.027 10.742-11.744h.018c21.481-2.048 41.894-3.141 62.004-3.174z" transform="matrix(.965926 -.258819 .258819 .965926 -39.933161 151.471462)"/></g></svg>