<svg xmlns="http://www.w3.org/2000/svg"><g fill="#fff"><path d="m188.001 109.716c0-1.651 1.512-2.065 5.089-2.476 4.402-.414 4.676-2.338 4.676-8.667 0-14.854-.961-42.09-1.513-56.807-.135-2.064-.135-2.751-.687-2.751-.549 0-.687.825-1.24 2.064-2.613 6.878-6.875 20.355-17.468 54.193-3.85 12.793-3.439 15.407-6.053 15.407-1.65 0-2.061-1.101-3.439-6.878-4.537-17.057-15.13-51.858-18.569-62.587-.414-1.236-.687-1.923-1.378-1.923-.546 0-.546 1.098-.822 3.025-.963 12.928-1.785 35.074-1.785 47.042 0 9.077-.141 17.192 4.537 17.882 2.476.411 6.053.549 6.053 2.476 0 1.098-.822 1.926-2.752 1.926-2.752 0-4.948-.552-10.179-.552-4.813 0-7.562.552-9.489.552-1.377 0-2.199-.276-2.199-1.926 0-2.065 2.061-1.789 4.399-2.338 3.991-.828 4.54-3.991 4.951-10.731.826-14.717 2.338-46.904 2.338-58.323.138-7.427 0-8.801-4.675-9.488-2.338-.276-4.538-.55-4.538-2.203 0-1.927 1.786-2.062 3.712-2.062 2.89 0 6.74.411 9.768.411 2.338 0 5.912-.411 8.115-.411 1.512 0 2.064.411 2.752 2.476 5.092 16.781 10.182 33.559 15.133 50.205 1.098 3.991 1.924 7.154 2.887 7.154.825 0 1.512-1.926 2.749-5.918 5.23-16.778 10.455-33.559 15.682-50.205.823-2.613 1.651-3.715 3.163-3.715 2.062 0 5.501.411 8.115.411 2.752 0 6.737-.411 9.63-.411 1.515 0 2.887.55 2.887 1.927 0 1.788-1.786 2.203-5.777 2.476-2.476.273-3.163 2.061-3.163 8.252 0 13.618 1.653 45.803 2.064 62.722 0 5.089 1.237 7.016 3.989 7.292 3.439.825 4.951 1.101 4.951 2.614 0 1.512-1.236 1.788-3.16 1.788-2.887 0-6.191-.552-12.517-.552-5.503 0-10.041.552-13.068.552-1.789 0-3.163-.552-3.163-1.788v-.135z"/><path d="m253.612 60.336c0-6.464-1.515-9.081-5.777-9.081-6.604 0-9.629 4.955-11.832 11.695-.963 2.887-2.614 5.224-4.675 6.602-1.516 1.098-3.439 1.923-5.501 1.923-2.614 0-3.577-1.101-3.577-3.577 0-7.976 11.829-20.493 28.886-20.493 5.09 0 9.078.687 11.413 2.752 2.341 1.789 2.893 4.402 2.893 8.667v39.338c0 3.439 1.098 5.915 3.85 5.915 2.203 0 3.439-1.236 4.126-2.476.552-1.239 1.098-2.613 1.924-2.613.825 0 1.101.687 1.101 2.337 0 3.025-4.675 11.14-12.658 11.14-5.776 0-7.427-4.676-8.528-7.428-.414-1.101-.823-1.926-1.51-1.926-1.104 0-3.304 2.617-6.743 5.092-3.163 2.476-7.427 4.676-12.928 4.676-6.467 0-11.556-4.4-11.556-12.379 0-7.289 5.089-12.244 16.232-19.119 4.402-2.89 7.7-4.813 10.179-6.464 3.712-2.199 4.675-3.442 4.675-6.602v-7.979zm-18.71 37.685c0 5.093 2.889 7.707 6.878 7.707 3.028 0 5.914-1.789 8.531-4.406 2.476-2.472 3.301-4.399 3.301-7.838v-14.029c0-1.654-.276-2.065-.963-2.065-.684 0-1.374.276-3.163 1.378-2.89 1.923-5.642 4.123-7.979 6.463-3.851 3.578-6.602 7.701-6.602 12.655z"/><path d="m274.931 82.207c0-20.082 13.065-34.802 29.708-34.802 3.716 0 8.667.687 11.83 2.614 2.89 1.65 3.166 2.2 3.304 5.504v4.951c0 1.236-.138 3.301-.414 4.537-.279 2.479-1.239 3.304-3.025 3.304-2.479 0-3.166-3.577-5.78-9.353-1.923-4.541-3.715-6.878-7.7-6.878-7.976 0-14.996 10.452-14.996 25.168 0 19.536 7.431 28.2 16.643 28.2 4.958 0 8.667-2.062 11.419-6.053 1.65-2.476 2.752-5.912 3.853-5.912.822 0 1.374.822 1.374 1.924 0 6.466-6.875 17.471-20.769 17.471-15.268 0-25.447-12.517-25.447-30.537z"/><path d="m330.639 64.324c0-4.402-.963-5.503-5.23-6.191-1.648-.276-2.335-.687-2.335-1.65 0-1.239 1.236-1.789 4.402-2.749 4.4-1.242 8.253-3.304 11.14-4.954 1.374-.826 2.199-1.378 2.751-1.378.823 0 1.099.552 1.099 2.065v6.464 44.293c0 4.678-.045 7.028 1.731 7.565 2.431.735 3.442.825 3.442 2.203 0 1.236-.552 1.65-2.202 1.65-2.887 0-2.833-.552-8.883-.552-6.602 0-6.41.552-9.021.552-1.104 0-2.067-.552-2.067-1.65 0-1.378.963-1.795 2.755-2.203 2.187-.501 2.418-1.653 2.418-7.154zm5.915-25.582c-3.58 0-6.878-2.893-6.878-8.118 0-5.089 3.025-8.252 7.016-8.252 3.85 0 6.875 3.025 6.875 8.114 0 5.363-3.025 8.256-6.875 8.256z"/><path d="m358.698 64.324c0-4.675-.553-5.227-3.989-5.638-2.475-.277-3.304-.415-3.304-1.516 0-1.374 1.378-1.65 4.265-2.614 4.951-1.788 8.804-3.988 10.866-5.638 1.239-.964 1.927-1.513 2.617-1.513.822 0 1.101 1.099 1.101 2.338v5.501c0 1.926.135 2.34.549 2.34 1.24 0 3.439-2.34 6.464-4.678 3.166-2.338 7.427-4.814 12.517-4.814 4.675 0 9.078 1.513 12.238 4.814 2.892 3.028 4.543 7.43 4.543 13.204v35.077c0 4.814 1.221 6.329 4.387 6.737 0 0 2.035.69 2.035 2.068 0 1.236-.963 1.65-2.476 1.65-1.653 0-3.532-.552-9.999-.552-6.188 0-6.851.552-9.048.552-1.518 0-2.199-.414-2.199-1.788 0-.963.978-1.435 2.337-1.789 1.27-.333 3.133-1.785 3.133-5.638v-34.94c0-3.301-.684-6.191-2.337-8.39-1.924-2.476-4.814-3.853-8.253-3.853-3.58 0-7.013 1.377-9.63 3.715-2.472 2.337-3.853 5.089-3.853 8.39v35.078c0 3.574.669 5.056 3.991 5.638.583.099 1.216.396 1.216 1.633 0 1.377-.964 1.788-2.065 1.788-1.65 0-1.212-.396-9.327-.396-7.016 0-7.127.549-9.326.549-1.651 0-2.617-.549-2.617-1.788 0-1.237 1.107-1.888 2.479-2.062 2.976-.378 3.685-2.202 3.685-7.703z"/><path d="m431.568 97.751c0 5.36 1.516 7.701 4.817 7.701 2.614 0 4.264-1.789 5.365-3.44 1.237-1.653 2.062-3.303 3.163-3.303.823 0 1.375.414 1.375 1.377 0 2.065-3.715 12.793-14.444 12.793-3.988 0-7.013-1.099-9.074-3.301-2.2-2.476-3.025-5.777-3.025-11.005v-42.366c0-1.513-.69-2.065-1.654-2.2-.96-.138-2.202-.138-3.298-.138-1.242 0-2.343-.138-2.343-1.653 0-.961.825-1.924 2.616-3.574 4.265-3.304 7.842-7.017 12.517-15.269 1.24-2.338 1.651-3.163 2.614-3.163.96 0 1.374.549 1.374 2.887v13.069c0 2.064.688 2.887 2.755 2.887h7.427c2.338 0 2.887.552 2.887 2.478 0 2.2-.549 2.887-3.163 2.887-2.337 0-4.813-.138-7.151-.138-2.202 0-2.755.552-2.755 3.025z"/><path d="m472.15 112.879c-15.956 0-26.964-14.858-26.964-32.74 0-17.606 10.591-32.734 27.099-32.734 16.781 0 27.098 15.269 27.098 32.599 0 18.017-11.005 32.875-27.098 32.875zm.546-3.85c9.495 0 13.894-14.444 13.894-27.51 0-15.271-4.814-30.264-14.581-30.264-9.489 0-14.027 13.756-14.027 27.513 0 15.265 4.952 30.261 14.579 30.261z"/><path d="m500.472 64.873c0-11.553 10.041-17.468 21.871-17.468 4.399 0 9.356.825 11.967 2.2.687.414.966 1.377 1.098 3.301.141 1.239.141 2.752.141 4.816v3.577c-.141 2.2-.411 3.439-1.653 3.439-1.786 0-2.062-2.613-4.264-7.292-1.651-3.577-3.988-6.329-8.388-6.329-5.365 0-9.633 3.715-9.633 8.805 0 6.602 6.602 9.765 13.483 13.753 6.74 3.991 13.753 8.805 13.753 18.708 0 13.342-10.728 20.496-23.659 20.496-4.126 0-8.114-.687-10.869-1.654-.96-.273-1.923-.549-2.614-1.098-.684-.414-1.236-1.101-1.374-3.853-.138-1.927-.138-4.538-.138-8.115 0-5.503.411-7.016 1.788-7.016 1.924 0 2.059 2.203 4.127 7.98 2.061 5.362 5.224 9.903 10.866 9.903 6.191 0 10.59-4.127 10.59-10.317 0-8.115-6.464-11.692-12.793-15.545-6.875-3.85-14.305-8.253-14.305-18.156v-.138h.006z"/><path d="m544.156 29.385c0-3.988-.549-4.952-4.264-5.363-2.338-.552-3.163-.69-3.163-1.926 0-1.378.963-1.516 3.853-2.338 5.501-1.651 8.943-2.89 11.142-4.126 1.786-.829 2.614-1.24 3.439-1.24.823 0 .961.549.961 2.476v39.066c0 .822.276 1.236.825 1.236.552 0 1.236-.414 1.785-.963 3.442-3.163 8.802-8.115 16.781-8.115 10.315 0 16.367 7.013 16.643 17.883v35.212c0 4.676 1.243 6.464 4.544 6.875 2.199.276 3.298.691 3.298 1.927s-.961 1.653-2.062 1.653c-1.236 0-5.365-.552-11.415-.552-6.602 0-9.078.552-11.005.552-1.512 0-2.337-.552-2.337-1.788 0-1.24.963-1.516 2.473-1.789 3.442-.549 4.543-1.788 4.543-5.638v-34.94c0-3.439-.552-6.464-2.2-8.528-1.926-2.611-4.816-3.854-8.534-3.854-3.574 0-7.013 1.378-9.627 3.716-2.476 2.34-3.715 5.092-3.715 8.531v34.66c0 3.578 1.239 5.366 5.365 6.053 2.065.417 2.611.688 2.611 1.927 0 1.236-.96 1.65-2.059 1.65-1.653 0-3.718-.549-12.105-.549-6.74 0-8.94.549-11.281.549-1.236 0-2.199-.414-2.199-1.788 0-1.237 1.239-1.924 2.614-2.062 4.399-.414 5.089-2.064 5.089-7.703z"/><path d="m70.215 22.429c4.688-5.144 7.128-12.364 7.467-22.075l.012-.354-.345.072c-16.46 3.367-24.962 13.681-25.265 30.66l-.006.33.324-.051c7.841-1.227 13.669-4.036 17.813-8.582z"/><path d="m13.573 109.752.301.435c2.721 3.922 5.842 7.742 9.272 11.352 2.614 2.746 6.776 4.259 11.722 4.259 3.625 0 7.382-.856 9.81-2.227 5.014-2.836 7.676-2.842 9.615-2.845.393 0 .756 0 1.104-.021l.318-.021c.42-.027.855-.054 1.344-.054 1.72 0 4.292.336 8.964 2.977 3.262 1.365 6.422 2.056 9.399 2.056 8.105 0 15.208-5.069 21.717-15.485l.268-.426z"/><path d="m98.37 44.734c1.083-1.08 2.25-2.142 3.505-3.19l.21-.174-.174-.213c-6.107-7.535-14.47-11.598-24.184-11.751l-.448-.003c-4.921 0-9.272.924-12.588 2.668-4.295 2.262-7.494 2.766-7.524 2.769-.054.009-.405.021-1.368.021-1.17 0-2.182-.018-2.305-.036l-.075-.009c-1.377-.177-4.891-.756-7.736-2.271-3.868-2.065-8.18-3.154-12.463-3.154h-.282c-11.325.129-20.799 5.647-26.684 15.343z"/><path d="m88.872 60.84c1.113-5.389 4.123-10.623 9.03-15.631l.462-.475h-92.11l-.081.135c-2.821 4.685-4.693 10.101-5.578 15.971z"/><path d="m91.027 76.751c-2.227-4.576-3.319-9.864-2.212-15.581l.063-.33h-88.274l-.036.24c-.748 5.087-.748 10.353-.057 15.671z"/><path d="m4.847 93.442h100.884l.591-1.278-.243-.12c-4.831-2.392-11.301-7.623-14.986-15.137l-.075-.156h-90.51l.042.315c.615 4.6 1.875 10.194 4.297 16.376z"/><path d="m13.576 109.752h83.822c3.201-5.186 5.836-10.899 8.156-15.917l.18-.396h-100.872l.153.384c2.206 5.507 5.068 10.83 8.561 15.929z"/></g></svg>