<svg preserveAspectRatio="none" xmlns="http://www.w3.org/2000/svg"><g fill="#1e1e1e"><path d="m345.496 243.903v.468 16.756.468h.469 227.695.468v-.468-16.756-.468h-.468-227.695zm.937.938h226.758v15.816h-226.758z" transform="matrix(.965926 -.258819 .258819 .965926 -49.748515 127.620213)"/><path d="m559.226 220.282c-1.268 0-2.315 1.033-2.315 2.299s1.047 2.314 2.315 2.314c1.266 0 2.298-1.048 2.298-2.314s-1.032-2.299-2.298-2.299zm0 .937c.759 0 1.362.602 1.362 1.362s-.603 1.376-1.362 1.376c-.76 0-1.378-.616-1.378-1.376s.618-1.362 1.378-1.362z" transform="matrix(.965926 -.258819 .258819 .965926 -38.555253 152.320537)"/><path d="m586.342 214.841c-.584 0-1.094.098-1.45.454-.355.355-.454.865-.454 1.45v9.783c0 .585.099 1.094.454 1.45.357.356.865.454 1.45.454h9.725c.585 0 1.095-.098 1.45-.454.356-.356.454-.865.454-1.45v-9.783c0-.585-.098-1.095-.454-1.45-.355-.356-.866-.454-1.45-.454zm0 .937h9.725c.473 0 .693.093.791.19.098.099.175.304.175.777v9.783c0 .473-.077.693-.175.791s-.318.175-.791.175h-9.725c-.472 0-.693-.078-.791-.175-.097-.098-.175-.318-.175-.791v-9.783c0-.473.078-.678.175-.777.099-.098.319-.19.791-.19z" transform="matrix(.965926 -.258819 .258819 .965926 -37.21893 160.566931)"/><path d="m600.322 211.095c-.585 0-1.095.099-1.45.454-.356.355-.454.865-.454 1.451v9.782c0 .585.098 1.094.454 1.45s.865.454 1.45.454h9.725c.584 0 1.094-.098 1.45-.454.355-.356.454-.865.454-1.45v-9.782c0-.586-.099-1.096-.454-1.451-.357-.355-.865-.454-1.45-.454zm0 .937h9.725c.472 0 .693.092.791.191.098.098.175.303.175.777v9.782c0 .473-.077.693-.175.791-.099.098-.319.176-.791.176h-9.725c-.473 0-.693-.079-.791-.176-.098-.098-.175-.318-.175-.791v-9.782c0-.474.077-.679.175-.777.098-.099.318-.191.791-.191z" transform="matrix(.965926 -.258819 .258819 .965926 -35.773042 164.057578)"/><path d="m596.702 197.585c-.585 0-1.095.099-1.45.454-.356.356-.454.865-.454 1.449v9.784c0 .585.098 1.095.454 1.45.352.356.862.454 1.448.454h9.726c.584 0 1.094-.098 1.45-.454.355-.356.453-.865.453-1.45v-9.784c0-.584-.098-1.094-.453-1.449-.357-.355-.869-.454-1.449-.454zm0 .938h9.725c.472 0 .692.092.791.189.097.098.175.304.175.776v9.784c0 .473-.078.693-.175.791-.1.098-.319.175-.791.175l-9.725.001c-.473 0-.693-.078-.791-.176s-.176-.318-.176-.791v-9.784c0-.472.078-.677.176-.776.098-.097.319-.189.792-.189z" transform="matrix(.965926 -.258819 .258819 .965926 -32.399763 162.659857)"/><path d="m603.943 224.604c-.585 0-1.094.114-1.449.469-.356.356-.454.851-.454 1.436v9.798c0 .585.098 1.08.454 1.435.355.356.865.468 1.449.468h9.726c.584 0 1.093-.112 1.45-.468.355-.355.453-.851.453-1.435v-9.798c0-.585-.098-1.08-.453-1.436-.357-.355-.866-.469-1.45-.469zm0 .938h9.726c.472 0 .692.093.79.19.098.099.176.304.176.777v9.798c0 .473-.078.678-.176.776-.099.099-.318.19-.79.19h-9.726c-.473 0-.692-.092-.79-.19s-.176-.303-.176-.776v-9.798c0-.473.078-.678.176-.777.098-.097.317-.19.79-.19z" transform="matrix(.965926 -.258819 .258819 .965926 -39.148002 165.455834)"/><path d="m594.751 245.821c-.585 0-1.095.099-1.45.454-.355.356-.454.866-.454 1.45v9.784c0 .585.099 1.094.454 1.45.355.355.865.453 1.45.453h9.739c.585 0 1.079-.098 1.436-.453.355-.356.468-.865.468-1.45v-9.784c0-.584-.113-1.094-.468-1.45-.357-.355-.851-.454-1.436-.454zm0 .938h9.739c.473 0 .679.078.776.176.098.097.191.318.191.79v9.784c0 .472-.093.693-.191.79-.097.099-.303.176-.776.176h-9.739c-.473 0-.679-.077-.776-.176-.098-.097-.191-.318-.191-.79v-9.784c0-.472.093-.693.191-.79.097-.098.303-.176.776-.176z" transform="matrix(.965926 -.258819 .258819 .965926 -44.950415 163.80113)"/><path d="m542.439 245.404c-.585 0-1.08.113-1.435.469-.356.355-.469.85-.469 1.435v9.798c0 .585.114 1.079.469 1.435.355.357.851.469 1.435.469h9.738c.586 0 1.096-.112 1.451-.469.357-.355.454-.85.454-1.435v-9.797c0-.586-.098-1.08-.453-1.436-.356-.355-.866-.469-1.45-.469zm0 .937h9.738c.474 0 .679.093.777.191.094.098.188.302.188.776v9.798c0 .472-.093.678-.191.777-.097.098-.303.19-.776.19h-9.738c-.474 0-.679-.093-.776-.19-.1-.099-.191-.305-.191-.777v-9.798c0-.473.091-.678.191-.776.097-.098.302-.191.776-.191z" transform="matrix(.965926 -.258819 .258819 .965926 -46.626899 150.247637)"/><path d="m555.487 240.861c-.585 0-1.094.114-1.449.47-.355.355-.454.85-.454 1.435v9.797c0 .585.099 1.08.454 1.436s.865.469 1.449.469h17.547c.585 0 1.094-.113 1.45-.469.355-.356.454-.851.454-1.436v-9.797c0-.585-.099-1.08-.454-1.435-.356-.356-.865-.47-1.45-.47zm0 .937h17.547c.473 0 .693.093.79.191.098.099.176.304.176.777v9.797c0 .473-.078.679-.176.777-.097.098-.318.19-.79.19h-17.547c-.473 0-.692-.092-.79-.19s-.175-.305-.175-.777v-9.797c0-.473.077-.678.175-.777.098-.098.318-.191.79-.191z" transform="matrix(.965926 -.258819 .258819 .965926 -44.873595 154.480678)"/><path d="m528.306 249.193c-.585 0-1.095.113-1.45.469-.356.356-.454.85-.454 1.435v9.798c0 .585.098 1.079.454 1.435.356.357.864.469 1.45.469h9.724c.586 0 1.095-.112 1.45-.469.356-.356.455-.85.455-1.435v-9.798c0-.585-.099-1.079-.455-1.435-.355-.356-.864-.469-1.45-.469zm0 .937h9.724c.474 0 .694.093.792.191.097.098.175.302.175.776v9.798c0 .473-.078.678-.175.777-.098.098-.318.19-.792.19h-9.724c-.473 0-.693-.093-.792-.19-.097-.099-.176-.305-.176-.777v-9.798c0-.473.079-.678.176-.776.099-.098.319-.191.792-.191z" transform="matrix(.965926 -.258819 .258819 .965926 -48.089347 146.716882)"/><path d="m514.158 252.981c-.584 0-1.094.114-1.45.47-.355.355-.453.85-.453 1.435v9.798c0 .585.098 1.079.453 1.435.357.356.867.469 1.45.469h9.74c.585 0 1.095-.113 1.45-.469s.454-.85.454-1.435v-9.798c0-.585-.099-1.08-.454-1.435-.356-.356-.866-.47-1.45-.47zm0 .938h9.74c.473 0 .678.092.776.191.098.098.191.303.191.776v9.798c0 .473-.093.678-.191.777-.098.097-.303.189-.776.189h-9.74c-.472 0-.677-.092-.775-.189-.099-.099-.191-.305-.191-.777v-9.798c0-.473.092-.678.191-.776.098-.099.303-.191.775-.191z" transform="matrix(.965926 -.258819 .258819 .965926 -49.551753 143.186605)"/><path d="m500.026 256.77c-.585 0-1.095.114-1.45.47-.355.355-.454.85-.454 1.435v9.798c0 .585.099 1.079.454 1.435s.865.469 1.45.469h9.725c.585 0 1.094-.113 1.45-.469.355-.355.454-.85.454-1.435v-9.798c0-.585-.099-1.08-.454-1.435-.356-.356-.866-.47-1.45-.47zm0 .938h9.725c.473 0 .693.092.791.191.097.098.175.303.175.776v9.798c0 .473-.078.678-.175.777-.098.097-.319.189-.791.189h-9.725c-.473 0-.693-.092-.791-.189-.098-.099-.175-.305-.175-.777v-9.798c0-.473.077-.678.175-.776.098-.099.319-.191.791-.191z" transform="matrix(.965926 -.258819 .258819 .965926 -51.014153 139.655682)"/><path d="m485.879 260.559c-.585 0-1.095.114-1.45.469-.355.356-.454.851-.454 1.436v9.797c0 .585.099 1.08.454 1.435.355.357.864.469 1.45.469h9.739c.585 0 1.08-.112 1.436-.469.355-.355.468-.85.468-1.435v-9.797c0-.585-.113-1.08-.468-1.436-.356-.355-.851-.469-1.436-.469zm0 .937h9.739c.473 0 .679.093.776.191.098.098.191.304.191.777v9.797c0 .473-.093.678-.191.777-.098.098-.304.19-.777.19h-9.74c-.473 0-.677-.092-.776-.19-.098-.099-.19-.303-.19-.776v-9.798c0-.473.092-.679.19-.776.098-.098.303-.19.776-.19z" transform="matrix(.965926 -.258819 .258819 .965926 -52.476502 136.125083)"/><path d="m471.746 264.348c-.585 0-1.095.113-1.45.469-.356.355-.454.85-.454 1.435v9.798c0 .585.098 1.079.454 1.435.355.356.865.469 1.45.469h9.725c.584 0 1.094-.113 1.449-.469.356-.356.454-.85.454-1.435v-9.798c0-.585-.098-1.08-.454-1.435-.355-.356-.864-.469-1.449-.469zm0 .937h9.725c.472 0 .692.093.791.191.098.098.176.303.176.776v9.798c0 .473-.078.678-.176.777-.099.097-.319.19-.791.19h-9.725c-.473 0-.693-.093-.791-.19-.098-.099-.176-.305-.176-.777v-9.798c0-.473.078-.678.176-.776s.318-.191.791-.191z" transform="matrix(.965926 -.258819 .258819 .965926 -53.938971 132.59428)"/><path d="m457.599 268.137c-.585 0-1.094.113-1.45.469-.355.355-.454.85-.454 1.435v9.798c0 .585.099 1.079.454 1.435.356.356.865.469 1.45.469h9.739c.585 0 1.08-.113 1.436-.469s.469-.85.469-1.435v-9.798c0-.585-.113-1.08-.469-1.435-.356-.356-.851-.469-1.436-.469zm0 .937h9.739c.473 0 .679.093.776.191.099.098.191.303.191.776v9.798c0 .473-.093.678-.191.777-.097.098-.303.19-.776.19h-9.739c-.473 0-.678-.093-.776-.19-.098-.099-.19-.305-.19-.777v-9.798c0-.473.093-.678.19-.776.098-.098.303-.191.776-.191z" transform="matrix(.965926 -.258819 .258819 .965926 -55.401432 129.064026)"/><path d="m443.452 271.927c-.585 0-1.08.114-1.435.47-.356.355-.469.85-.469 1.435v9.797c0 .585.113 1.08.469 1.436.355.356.85.469 1.435.469h9.739c.585 0 1.095-.113 1.45-.469.356-.356.454-.851.454-1.436v-9.797c0-.585-.098-1.08-.454-1.435-.355-.356-.864-.47-1.45-.47zm0 .938h9.739c.473 0 .693.092.791.19.098.099.176.304.176.777v9.797c0 .473-.078.679-.176.777-.097.098-.318.19-.791.19h-9.739c-.472 0-.678-.092-.776-.19s-.19-.305-.19-.777v-9.797c0-.473.093-.678.19-.777.098-.098.304-.19.776-.19z" transform="matrix(.965926 -.258819 .258819 .965926 -56.864634 125.531843)"/><path d="m429.319 275.714c-.585 0-1.094.114-1.45.47-.356.355-.454.85-.454 1.435v9.797c0 .585.098 1.08.454 1.436s.865.469 1.45.469h9.739c.585 0 1.08-.113 1.435-.469.357-.356.469-.851.469-1.436v-9.797c0-.585-.112-1.08-.469-1.435-.355-.356-.85-.47-1.435-.47zm0 .938h9.739c.473 0 .678.092.776.19.099.099.191.304.191.777v9.797c0 .473-.092.679-.191.777-.098.098-.303.19-.776.19h-9.739c-.472 0-.692-.092-.791-.19-.098-.098-.175-.305-.175-.777v-9.797c0-.473.077-.678.175-.777.098-.098.318-.19.791-.19z" transform="matrix(.965926 -.258819 .258819 .965926 -58.32633 122.002908)"/><path d="m415.172 279.505c-.585 0-1.08.113-1.435.469-.356.356-.469.85-.469 1.436v9.797c0 .585.113 1.08.469 1.435.355.356.85.469 1.435.469h9.739c.585 0 1.095-.112 1.45-.469.356-.355.454-.85.454-1.435v-9.797c0-.585-.098-1.08-.454-1.436-.355-.356-.865-.469-1.45-.469zm0 .937h9.739c.473 0 .678.093.776.191s.191.304.191.777v9.797c0 .473-.093.678-.191.777-.098.098-.303.19-.776.19h-9.739c-.472 0-.678-.093-.777-.19-.097-.099-.19-.305-.19-.777v-9.797c0-.473.093-.679.19-.777.099-.098.305-.191.777-.191z" transform="matrix(.965926 -.258819 .258819 .965926 -59.789425 118.470548)"/><path d="m401.04 283.293c-.585 0-1.095.114-1.45.47-.356.355-.454.85-.454 1.435v9.798c0 .585.098 1.079.454 1.435.355.356.865.469 1.45.469h9.725c.585 0 1.094-.113 1.45-.469s.454-.85.454-1.435v-9.798c0-.585-.098-1.08-.454-1.435-.356-.356-.865-.47-1.45-.47zm0 .938h9.725c.473 0 .693.092.791.191.098.098.175.303.175.776v9.798c0 .473-.078.678-.175.777-.098.097-.318.189-.791.189h-9.725c-.473 0-.694-.092-.791-.189-.091-.099-.169-.304-.169-.777v-9.798c0-.473.078-.678.175-.776.099-.099.319-.191.791-.191z" transform="matrix(.965926 -.258819 .258819 .965926 -61.251644 114.939926)"/><path d="m386.894 287.082c-.585 0-1.08.113-1.435.469-.356.356-.469.851-.469 1.436v9.797c0 .585.113 1.08.469 1.435.355.357.85.469 1.435.469h9.739c.585 0 1.094-.112 1.45-.469.356-.355.454-.85.454-1.435v-9.797c0-.585-.098-1.08-.454-1.436s-.865-.469-1.45-.469zm0 .937h9.739c.473 0 .678.093.777.191.097.098.19.304.19.777v9.797c0 .473-.093.678-.19.777-.099.098-.304.19-.777.19h-9.739c-.473 0-.678-.093-.776-.19-.098-.098-.191-.303-.191-.777v-9.797c0-.473.093-.679.191-.777s.303-.19.776-.191z" transform="matrix(.965926 -.258819 .258819 .965926 -62.714082 111.409904)"/><path d="m372.761 290.87c-.584 0-1.094.114-1.449.47-.356.355-.454.85-.454 1.435v9.798c0 .585.098 1.08.454 1.435.355.356.865.469 1.449.469h9.725c.585 0 1.095-.113 1.45-.469.252-.252.359-.588.41-.966h.044v-.469-9.798c0-.585-.098-1.08-.454-1.435-.355-.356-.865-.47-1.45-.47zm0 .938h9.725c.473 0 .693.092.791.191.098.098.175.303.175.776v9.329.469c0 .473-.077.678-.175.777-.098.097-.318.19-.791.19h-9.725c-.472 0-.692-.093-.79-.19-.098-.098-.175-.305-.175-.777v-9.798c0-.473.077-.678.175-.776.098-.099.318-.191.79-.191z" transform="matrix(.965926 -.258819 .258819 .965926 -64.176301 107.879177)"/><path d="m384.441 302.826c-.585 0-1.094.114-1.45.469-.356.356-.454.851-.454 1.435v9.798c0 .585.098 1.08.454 1.436s.865.468 1.45.468h9.739c.585 0 1.08-.113 1.435-.468.356-.356.469-.851.469-1.436v-9.798c0-.584-.113-1.079-.469-1.435-.355-.355-.85-.469-1.435-.469zm0 .938h9.739c.473 0 .678.092.777.189.097.098.19.304.19.776v9.798c0 .473-.093.679-.19.777-.099.098-.304.19-.777.19h-9.739c-.473 0-.678-.092-.776-.19-.098-.109-.191-.314-.191-.783v-9.798c0-.472.093-.678.191-.777.098-.098.303-.19.776-.19z" transform="matrix(.965926 -.258819 .258819 .965926 -66.87241 111.311227)"/><path d="m361.823 307.689c-.584 0-1.093.114-1.45.47-.356.356-.453.848-.453 1.433v9.798c0 .585.098 1.08.453 1.436.356.356.866.469 1.45.469h18.674c.585 0 1.095-.113 1.45-.469s.454-.851.454-1.436v-.468-9.33c0-.584-.099-1.079-.454-1.434-.356-.356-.865-.47-1.45-.47h-18.674zm0 .938h18.674c.473 0 .678.093.776.189.099.099.191.305.191.777v9.798c0 .473-.092.679-.191.776-.097.098-.303.191-.776.191h-18.674c-.472 0-.677-.093-.776-.191-.098-.108-.19-.314-.19-.783v-9.797c0-.473.092-.679.19-.777s.304-.19.776-.19z" transform="matrix(.965926 -.258819 .258819 .965926 -68.74933 106.779287)"/><path d="m398.446 299.073c-.584 0-1.079.114-1.435.47-.355.355-.469.851-.469 1.435v9.798c0 .585.114 1.079.469 1.435.356.356.851.469 1.435.469h9.74c.585 0 1.094-.113 1.45-.469.355-.355.454-.85.454-1.435v-.469l-.001-9.329c0-.584-.098-1.08-.453-1.435-.356-.356-.866-.47-1.45-.47zm0 .938h9.74c.473 0 .693.093.791.19.098.098.175.304.175.776v9.798c0 .473-.078.679-.175.776-.099.098-.318.191-.791.191h-9.74c-.472 0-.677-.093-.776-.191-.098-.097-.19-.303-.19-.776v-9.798c0-.472.093-.678.19-.776.099-.097.304-.19.776-.19z" transform="matrix(.965926 -.258819 .258819 .965926 -65.423934 114.808177)"/><path d="m412.466 295.317c-.585 0-1.094.114-1.45.469-.355.356-.454.852-.454 1.435v9.799c0 .584.099 1.079.454 1.435.356.356.865.468 1.45.468h9.739c.585 0 1.08-.113 1.435-.468.356-.356.469-.851.469-1.435v-9.799c0-.584-.113-1.079-.469-1.435-.355-.355-.85-.469-1.435-.469zm0 .938h9.739c.473 0 .678.092.777.189.097.098.19.305.19.777v9.798c0 .473-.093.678-.19.776-.099.098-.304.19-.777.19h-9.739c-.473 0-.693-.092-.791-.19s-.175-.303-.175-.776v-9.798c0-.472.078-.679.175-.777.098-.097.318-.189.791-.189z" transform="matrix(.965926 -.258819 .258819 .965926 -63.974084 118.308964)"/><path d="m426.473 291.563c-.585 0-1.08.114-1.435.47-.356.355-.469.851-.469 1.435v9.798c0 .585.113 1.08.469 1.435.355.356.85.469 1.435.469h9.739c.585 0 1.095-.113 1.45-.469.356-.355.454-.85.454-1.435v-9.798c0-.584-.098-1.08-.454-1.435-.356-.356-.865-.47-1.45-.47zm0 .938h9.739c.473 0 .678.093.777.19.098.098.19.304.19.776v9.798c0 .473-.093.679-.19.777-.099.097-.304.19-.777.19h-9.739c-.472 0-.678-.093-.777-.19-.097-.098-.19-.304-.19-.777v-9.798c0-.472.093-.678.19-.776.099-.097.304-.19.777-.19z" transform="matrix(.965926 -.258819 .258819 .965926 -62.525234 121.806066)"/><path d="m440.488 287.81c-.584 0-1.095.114-1.45.469-.355.356-.454.852-.454 1.435v9.799c0 .584.099 1.079.454 1.435.356.356.866.468 1.45.468h9.725c.585 0 1.094-.113 1.45-.468.355-.356.454-.851.454-1.435v-9.799c0-.584-.099-1.079-.454-1.435-.356-.355-.865-.469-1.45-.469zm0 .938h9.725c.473 0 .693.093.791.189.098.098.175.305.175.777v9.798c0 .473-.078.678-.175.776-.098.098-.318.191-.791.191h-9.725c-.473 0-.692-.093-.791-.191-.097-.098-.175-.303-.175-.776v-9.798c0-.472.078-.678.175-.777.098-.096.318-.189.791-.189z" transform="matrix(.965926 -.258819 .258819 .965926 -61.076438 125.30371)"/><path d="m454.494 284.055c-.584 0-1.079.114-1.435.469-.356.356-.469.852-.469 1.435v9.799c0 .584.113 1.079.469 1.435s.851.468 1.435.468h9.74c.585 0 1.094-.113 1.449-.468.356-.355.454-.851.454-1.435v-9.799c0-.584-.098-1.079-.454-1.435-.355-.355-.865-.469-1.449-.469zm0 .938h9.74c.472 0 .678.093.776.189.097.099.19.305.19.777v9.798c0 .473-.093.678-.19.776-.098.098-.304.191-.776.191h-9.74c-.473 0-.677-.093-.776-.191-.098-.098-.19-.303-.19-.776v-9.798c0-.472.092-.678.19-.777.098-.096.303-.189.776-.189z" transform="matrix(.965926 -.258819 .258819 .965926 -59.627126 128.802664)"/><path d="m468.515 280.301c-.585 0-1.095.114-1.45.469-.356.355-.454.851-.454 1.435v9.798c0 .585.098 1.08.454 1.436s.865.468 1.45.468h9.725c.584 0 1.094-.113 1.449-.468.356-.356.454-.851.454-1.436v-9.798c0-.584-.098-1.08-.454-1.435s-.865-.469-1.449-.469zm0 .937h9.725c.472 0 .692.093.79.19.099.098.176.304.176.776v9.798c0 .473-.078.679-.176.777s-.318.19-.79.19h-9.725c-.473 0-.693-.092-.791-.19s-.176-.304-.176-.777v-9.798c0-.472.078-.678.176-.776.098-.097.318-.19.791-.19z" transform="matrix(.965926 -.258819 .258819 .965926 -58.177995 132.301624)"/><path d="m482.52 276.546c-.584 0-1.094.114-1.449.469-.356.355-.454.851-.454 1.435v9.798c0 .585.098 1.08.454 1.436.355.356.865.468 1.449.468h9.74c.585 0 1.094-.113 1.45-.468.356-.356.454-.851.454-1.436v-9.798c0-.584-.098-1.08-.454-1.435s-.865-.469-1.45-.469zm0 .938h9.74c.472 0 .678.092.776.189.098.098.191.304.191.776v9.798c0 .473-.093.679-.191.777s-.304.19-.776.19h-9.74c-.472 0-.678-.092-.776-.19s-.19-.304-.19-.777v-9.798c0-.472.092-.678.19-.776.098-.097.304-.189.776-.189z" transform="matrix(.965926 -.258819 .258819 .965926 -56.72874 135.801022)"/><path d="m496.541 272.791c-.584 0-1.094.114-1.45.469-.355.356-.454.851-.454 1.435v9.798c0 .585.099 1.08.454 1.436.356.356.866.468 1.45.468h9.725c.584 0 1.094-.113 1.45-.468.356-.356.454-.851.454-1.436v-9.798c0-.584-.098-1.079-.454-1.435-.356-.355-.865-.469-1.45-.469zm0 .938h9.725c.473 0 .693.092.791.189.098.098.176.304.176.776v9.798c0 .473-.078.679-.176.777-.099.098-.318.19-.791.19h-9.725c-.472 0-.692-.092-.791-.19-.097-.098-.175-.304-.175-.777v-9.798c0-.472.078-.678.175-.776.099-.097.319-.189.791-.189z" transform="matrix(.965926 -.258819 .258819 .965926 -55.279389 139.299913)"/><path d="m510.547 269.036c-.585 0-1.095.114-1.449.469-.357.356-.455.851-.455 1.435v9.798c0 .585.099 1.08.455 1.436.355.356.865.468 1.449.468h9.74c.584 0 1.079-.113 1.435-.468.356-.356.468-.851.468-1.436v-9.798c0-.584-.112-1.079-.468-1.435-.356-.355-.851-.469-1.435-.469zm0 .938h9.74c.473 0 .678.092.776.189.098.098.19.304.19.776v9.798c0 .473-.092.679-.19.777-.099.098-.303.19-.776.19h-9.74c-.473 0-.678-.092-.776-.19s-.19-.304-.19-.777v-9.798c0-.472.092-.678.19-.776.098-.097.303-.189.776-.189z" transform="matrix(.965926 -.258819 .258819 .965926 -53.829963 142.79848)"/><path d="m524.562 265.282c-.584 0-1.094.114-1.449.47-.355.355-.454.851-.454 1.435v9.798c0 .585.098 1.079.454 1.435.355.356.865.469 1.449.469h9.726c.585 0 1.095-.113 1.449-.469.356-.356.455-.85.455-1.435v-9.798c0-.584-.099-1.08-.455-1.435-.355-.356-.864-.47-1.449-.47zm0 .938h9.726c.473 0 .693.093.791.19.097.098.175.304.175.776v9.798c0 .473-.078.679-.175.776-.098.098-.318.191-.791.191h-9.726c-.472 0-.693-.093-.79-.191-.099-.097-.176-.303-.176-.776v-9.798c0-.472.077-.678.176-.776.097-.097.318-.19.79-.19z" transform="matrix(.965926 -.258819 .258819 .965926 -52.38122 146.296707)"/><path d="m538.568 261.527c-.584 0-1.094.114-1.45.47-.354.355-.453.851-.453 1.435v9.798c0 .585.099 1.079.453 1.435.357.356.866.469 1.451.469h9.739c.585 0 1.08-.113 1.435-.469.356-.355.469-.85.469-1.435v-9.798c0-.584-.113-1.08-.469-1.435-.355-.356-.85-.47-1.435-.47zm0 .938h9.74c.473 0 .679.093.776.19.098.098.191.304.191.776v9.798c0 .473-.093.679-.191.776-.097.098-.304.191-.776.191h-9.739c-.473 0-.679-.093-.776-.191-.099-.097-.191-.303-.191-.776v-9.798c0-.472.092-.678.191-.776.097-.097.303-.19.775-.19z" transform="matrix(.965926 -.258819 .258819 .965926 -50.931804 149.795245)"/><path d="m553.625 255.732c-.586 0-1.095.114-1.451.469-.355.356-.453.851-.453 1.435v9.798c0 .585.098 1.08.453 1.436.356.356.866.468 1.451.468.745 0 1.131.073 1.215.132.042.03.07.045.103.161.032.115.043.319.043.615v11.219c0 .586.113 1.095.469 1.45.355.355.851.454 1.436.454h21.382c.585 0 1.094-.099 1.449-.454.353-.352.452-.857.454-1.435 0-.006 0-.01 0-.015l.089-23.813v-.015c0-.585-.113-1.08-.469-1.436-.356-.355-.851-.468-1.435-.468h-24.736zm0 .938h24.736c.473 0 .678.092.776.189.098.098.191.304.191.776l-.089 23.83c0 .472-.077.692-.175.79s-.318.175-.791.175h-21.382c-.473 0-.679-.077-.776-.175-.094-.098-.188-.318-.188-.792v-11.218c0-.337-.013-.618-.088-.879s-.227-.516-.454-.673c-.455-.319-.988-.294-1.757-.294-.473 0-.678-.092-.776-.19s-.191-.304-.191-.776v-9.799c0-.472.093-.678.191-.776.098-.097.303-.19.776-.19z" transform="matrix(.965926 -.258819 .258819 .965926 -50.479088 155.674714)"/><path d="m390.876 315.751c-.584 0-1.094.113-1.449.469-.356.356-.454.851-.454 1.435v9.798c0 .585.098 1.08.454 1.435.355.355.865.469 1.449.469h9.74c.584 0 1.079-.114 1.435-.469s.469-.85.469-1.435v-9.798c0-.584-.113-1.079-.469-1.435-.355-.356-.851-.469-1.435-.469zm0 .937h9.74c.472 0 .677.093.776.191s.191.304.191.776v9.798c0 .473-.093.678-.191.776s-.303.191-.776.191h-9.74c-.472 0-.678-.093-.776-.191s-.191-.303-.191-.776v-9.798c0-.472.094-.678.191-.776.098-.098.304-.191.776-.191z" transform="matrix(.965926 -.258819 .258819 .965926 -69.998346 113.417392)"/><path d="m365.222 320.914c-.584 0-1.079.113-1.434.469-.356.355-.469.851-.469 1.435v9.798c0 .585.113 1.079.469 1.435.355.355.85.469 1.434.469h22.511c.585 0 1.08-.114 1.436-.469.356-.356.469-.851.469-1.435v-9.798c0-.584-.113-1.08-.469-1.435-.356-.356-.851-.469-1.436-.469zm0 .937h22.511c.473 0 .679.093.776.191.099.098.191.303.191.776v9.798c0 .473-.092.678-.191.776-.097.098-.303.191-.776.191h-22.511c-.472 0-.677-.093-.775-.191s-.19-.304-.19-.776v-9.798c0-.473.092-.678.19-.776.098-.103.303-.193.775-.193z" transform="matrix(.965926 -.258819 .258819 .965926 -71.991248 108.606589)"/><path d="m404.895 311.997c-.584 0-1.094.113-1.449.468-.356.356-.455.852-.455 1.436v9.798c0 .585.099 1.079.455 1.435.355.355.865.468 1.449.468h9.725c.585 0 1.095-.113 1.45-.468.252-.252.359-.589.41-.967h.044v-.468-9.798c0-.584-.098-1.08-.454-1.436-.355-.355-.865-.468-1.45-.468zm0 .937h9.725c.473 0 .693.093.791.191s.176.303.176.776v9.329.469c0 .473-.078.677-.176.776-.098.098-.318.191-.791.191h-9.725c-.472 0-.692-.093-.791-.191-.097-.099-.175-.304-.175-.776v-9.798c0-.473.078-.678.175-.776.099-.098.319-.191.791-.191z" transform="matrix(.965926 -.258819 .258819 .965926 -68.549161 116.9157)"/><path d="m418.899 308.243c-.585 0-1.095.113-1.45.468-.356.356-.454.852-.454 1.436v9.798c0 .585.098 1.079.454 1.435.355.355.865.468 1.45.468h9.739c.585 0 1.08-.113 1.435-.468.356-.356.469-.851.469-1.435v-9.798c0-.584-.113-1.08-.469-1.436-.355-.355-.85-.468-1.435-.468zm0 .937h9.739c.473 0 .678.093.776.191s.19.303.19.776v9.798c0 .473-.092.677-.19.776-.098.098-.303.191-.776.191h-9.739c-.473 0-.678-.093-.776-.191-.098-.099-.191-.304-.191-.776v-9.798c0-.473.093-.678.191-.776.097-.098.303-.191.776-.191z" transform="matrix(.965926 -.258819 .258819 .965926 -67.10028 120.414449)"/><path d="m432.906 304.49c-.585 0-1.08.113-1.436.468-.355.356-.469.851-.469 1.435v9.798c0 .585.113 1.08.469 1.435.355.356.851.469 1.436.469h9.739c.585 0 1.095-.113 1.45-.469.355-.355.454-.85.454-1.435v-9.798c0-.584-.099-1.079-.454-1.435-.356-.355-.865-.468-1.45-.468zm0 .936h9.739c.473 0 .693.093.791.191.097.099.175.304.175.776v9.798c0 .473-.078.678-.175.776-.098.099-.318.191-.791.191h-9.739c-.473 0-.679-.092-.777-.191-.098-.098-.19-.303-.19-.776v-9.798c0-.472.092-.677.19-.776.098-.098.304-.191.777-.191z" transform="matrix(.965926 -.258819 .258819 .965926 -65.651642 123.911649)"/><path d="m446.926 300.733c-.585 0-1.095.113-1.45.469-.356.355-.454.851-.454 1.435v9.798c0 .585.098 1.079.454 1.435.355.355.865.469 1.45.469h9.739c.584 0 1.079-.114 1.435-.469.355-.356.469-.851.469-1.435v-9.798c0-.584-.113-1.08-.469-1.435-.355-.356-.85-.469-1.435-.469zm0 .937h9.739c.472 0 .678.093.776.191s.19.303.19.776v9.798c0 .473-.093.678-.19.776-.098.098-.303.191-.776.191h-9.739c-.473 0-.693-.093-.791-.191s-.176-.304-.176-.776v-9.798c0-.473.078-.678.176-.776s.318-.191.791-.191z" transform="matrix(.965926 -.258819 .258819 .965926 -64.201657 127.412426)"/><path d="m460.932 296.98c-.585 0-1.08.113-1.435.469-.356.356-.469.851-.469 1.435v9.798c0 .585.113 1.079.469 1.435.355.355.85.469 1.435.469h9.739c.585 0 1.094-.114 1.45-.469.355-.356.454-.851.454-1.435v-9.798c0-.584-.099-1.079-.454-1.435-.356-.356-.865-.469-1.45-.469zm0 .937h9.739c.472 0 .678.093.776.191s.19.303.19.776v9.798c0 .473-.092.678-.19.776s-.303.191-.776.191h-9.739c-.473 0-.678-.093-.776-.191s-.191-.304-.191-.776v-9.798c0-.473.093-.678.191-.776s.303-.191.776-.191z" transform="matrix(.965926 -.258819 .258819 .965926 -62.752968 130.909269)"/><path d="m474.952 293.225c-.585 0-1.094.113-1.45.469s-.454.851-.454 1.435v9.798c0 .585.098 1.079.454 1.435.356.355.866.469 1.45.469h9.725c.584 0 1.094-.114 1.449-.469.356-.356.455-.85.455-1.435v-9.798c0-.584-.099-1.079-.455-1.435-.355-.356-.865-.469-1.449-.469zm0 .937h9.725c.472 0 .692.093.791.191.097.098.175.303.175.776v9.798c0 .473-.078.678-.175.776-.099.098-.319.191-.791.191h-9.725c-.472 0-.693-.093-.791-.191s-.176-.304-.176-.776v-9.798c0-.473.078-.678.176-.776s.318-.191.791-.191z" transform="matrix(.965926 -.258819 .258819 .965926 -61.303742 134.40854)"/><path d="m488.954 289.472c-.585 0-1.08.113-1.436.468-.355.356-.468.852-.468 1.436v9.798c0 .585.113 1.079.468 1.434.356.356.851.469 1.436.469h9.739c.585 0 1.095-.113 1.45-.469.356-.355.454-.85.454-1.434v-9.798c0-.584-.098-1.08-.454-1.436-.356-.355-.865-.468-1.45-.468zm0 .937h9.739c.473 0 .678.092.776.191.098.098.191.303.191.776v9.798c0 .473-.093.677-.191.775-.098.099-.303.191-.776.191h-9.739c-.473 0-.678-.092-.777-.191-.097-.098-.19-.303-.19-.775v-9.798c0-.473.093-.678.19-.776.098-.099.304-.191.777-.191z" transform="matrix(.965926 -.258819 .258819 .965926 -59.85482 137.906112)"/><path d="m502.974 285.717c-.585 0-1.095.113-1.45.468-.355.356-.455.852-.455 1.436v9.798c0 .585.1 1.079.455 1.434.356.356.865.469 1.45.469h9.724c.586 0 1.095-.113 1.45-.469.356-.355.454-.85.454-1.434v-9.798c0-.584-.098-1.08-.454-1.436-.355-.355-.865-.468-1.45-.468zm0 .937h9.724c.474 0 .694.092.791.191.098.098.176.303.176.776v9.798c0 .473-.078.677-.176.776-.097.098-.318.19-.791.19h-9.724c-.473 0-.693-.092-.791-.19-.098-.099-.176-.304-.176-.776v-9.798c0-.473.078-.678.176-.776.098-.099.318-.191.791-.191z" transform="matrix(.965926 -.258819 .258819 .965926 -58.405553 141.404898)"/><path d="m516.98 281.962c-.585 0-1.08.114-1.436.469-.355.356-.469.851-.469 1.435v9.798c0 .585.099 1.08.455 1.435s.865.469 1.45.469h9.739c.585 0 1.095-.114 1.45-.469s.454-.85.454-1.435v-9.798c0-.584-.099-1.079-.454-1.435-.355-.355-.865-.469-1.45-.469zm0 .937h9.739c.473 0 .678.093.776.191s.19.304.19.776v9.798c0 .473-.092.678-.19.776s-.303.191-.776.191h-9.739c-.473 0-.679-.093-.777-.191s-.19-.303-.19-.776v-9.798c0-.472.092-.678.19-.776.099-.098.304-.191.777-.191z" transform="matrix(.965926 -.258819 .258819 .965926 -56.956282 144.903773)"/><path d="m531.001 278.207c-.585 0-1.096.114-1.451.469-.355.356-.454.851-.454 1.435v9.798c0 .585.099 1.08.455 1.435.355.355.865.469 1.45.469h9.724c.585 0 1.094-.114 1.45-.469s.455-.85.455-1.435l-.001-9.798c0-.584-.098-1.079-.454-1.435-.356-.355-.865-.469-1.45-.469zm0 .937h9.724c.473 0 .693.093.791.191.098.099.176.304.176.776v9.798c0 .473-.078.678-.176.776s-.318.191-.791.191h-9.724c-.474 0-.693-.093-.791-.191s-.176-.303-.176-.776v-9.798c0-.472.078-.677.176-.776.098-.098.317-.191.791-.191z" transform="matrix(.965926 -.258819 .258819 .965926 -55.50686 148.40274)"/><path d="m545.007 274.453c-.585 0-1.096.113-1.45.468-.357.356-.455.851-.455 1.435v9.798c0 .585.098 1.08.455 1.435.355.355.865.469 1.45.469h9.739c.584 0 1.079-.114 1.434-.469.356-.355.469-.85.469-1.435v-9.798c0-.584-.113-1.079-.469-1.435-.355-.355-.85-.468-1.434-.468zm0 .936h9.739c.472 0 .678.093.776.191.097.099.189.304.189.776v9.798c0 .473-.092.678-.189.776-.099.099-.304.191-.776.191h-9.739c-.474 0-.679-.093-.777-.191s-.19-.303-.19-.776v-9.798c0-.472.092-.677.19-.776.098-.098.303-.191.777-.191z" transform="matrix(.965926 -.258819 .258819 .965926 -54.057773 151.902008)"/><path d="m401.115 327.651c-.585 0-1.094.113-1.45.468-.356.357-.454.851-.454 1.436v9.797c0 .586.098 1.08.454 1.435.356.357.865.47 1.45.47h9.739c.585 0 1.08-.113 1.435-.47.253-.252.359-.587.41-.966h.059v-.469-9.797c0-.585-.113-1.079-.469-1.436-.355-.355-.85-.468-1.435-.468zm0 .937h9.739c.473 0 .678.092.776.191.098.098.191.303.191.776v9.329.468c0 .474-.093.679-.191.777s-.303.191-.776.191h-9.739c-.473 0-.678-.093-.776-.191s-.19-.304-.19-.777v-9.797c0-.473.093-.678.19-.776.098-.099.303-.191.776-.191z" transform="matrix(.965926 -.258819 .258819 .965926 -72.729428 116.47266)"/><path d="m368.772 333.731c-.585 0-1.08.113-1.435.468-.356.356-.469.851-.469 1.436v9.797c0 .586.113 1.08.469 1.435.355.356.851.469 1.435.469h29.043c.585 0 1.094-.113 1.45-.469.355-.355.454-.85.454-1.435v-9.797c0-.585-.099-1.08-.454-1.436-.356-.355-.865-.468-1.45-.468zm0 .936h29.043c.473 0 .693.093.791.191.097.099.175.304.175.777v9.797c0 .474-.078.679-.175.777-.099.098-.319.191-.791.191l-29.043-.001c-.472 0-.678-.092-.776-.19s-.19-.304-.19-.777v-9.797c0-.473.092-.678.19-.777.098-.098.304-.192.776-.192z" transform="matrix(.965926 -.258819 .258819 .965926 -75.076193 110.807154)"/><path d="m415.122 323.898c-.585 0-1.08.113-1.435.468-.356.356-.469.851-.469 1.436v9.797c0 .586.113 1.079.469 1.435.355.356.85.469 1.435.469h9.739c.585 0 1.095-.113 1.45-.469.356-.355.455-.85.455-1.435v-.468-9.329c0-.585-.099-1.08-.455-1.436-.355-.355-.864-.468-1.45-.468zm0 .936h9.739c.473 0 .679.093.777.191.098.099.19.304.19.777v9.797c0 .474-.078.679-.176.776-.098.099-.318.191-.791.191h-9.739c-.473 0-.678-.092-.776-.191-.098-.097-.191-.303-.191-.776v-9.797c0-.473.093-.678.191-.777.098-.098.303-.191.776-.191z" transform="matrix(.965926 -.258819 .258819 .965926 -71.280632 119.970094)"/><path d="m429.142 320.141c-.585 0-1.094.113-1.45.468-.355.357-.454.852-.454 1.436v9.798c0 .585.099 1.079.454 1.434.356.357.865.47 1.45.47h9.739c.585 0 1.08-.113 1.436-.47.355-.354.469-.849.469-1.434v-9.798c0-.584-.114-1.079-.469-1.436-.355-.355-.851-.468-1.436-.468zm0 .937h9.739c.473 0 .678.092.777.191.098.098.19.303.19.776v9.798c0 .473-.093.678-.19.776-.098.098-.304.191-.777.191h-9.739c-.473 0-.693-.093-.79-.191-.099-.098-.176-.304-.176-.776v-9.798c0-.473.078-.678.176-.776.097-.099.317-.191.79-.191z" transform="matrix(.965926 -.258819 .258819 .965926 -69.830776 123.471025)"/><path d="m443.144 316.389c-.585 0-1.08.113-1.435.468-.356.357-.469.852-.469 1.436v9.798c0 .585.113 1.079.469 1.434.355.357.85.47 1.435.47h9.739c.585 0 1.094-.113 1.45-.47.356-.354.453-.849.453-1.434v-9.798c0-.584-.097-1.079-.453-1.436-.356-.355-.865-.468-1.45-.468zm0 .937h9.739c.473 0 .678.092.776.191.098.098.191.303.191.776v9.798c0 .473-.093.678-.191.776s-.303.191-.776.191h-9.739c-.473 0-.678-.093-.777-.191-.098-.098-.19-.304-.19-.776v-9.798c0-.473.092-.678.19-.776.099-.099.304-.191.777-.191z" transform="matrix(.965926 -.258819 .258819 .965926 -68.38262 126.9669)"/><path d="m457.164 312.635c-.585 0-1.095.113-1.45.468-.355.356-.454.851-.454 1.436v9.797c0 .586.099 1.08.454 1.435.355.356.865.469 1.45.469h9.725c.584 0 1.094-.113 1.45-.469.355-.355.454-.85.454-1.435v-9.797c0-.585-.099-1.08-.454-1.436-.356-.355-.866-.468-1.45-.468zm0 .936h9.725c.472 0 .692.093.791.191.098.099.175.304.175.777v9.797c0 .474-.078.679-.175.777-.099.098-.319.191-.791.191h-9.725c-.473 0-.693-.093-.791-.191s-.175-.304-.175-.777v-9.797c0-.473.078-.678.175-.777.098-.098.319-.191.791-.191z" transform="matrix(.965926 -.258819 .258819 .965926 -66.933407 130.46601)"/><path d="m471.17 308.88c-.585 0-1.08.113-1.436.468-.355.356-.468.851-.468 1.436v9.797c0 .586.113 1.08.468 1.435.356.356.851.469 1.436.469h9.739c.585 0 1.094-.113 1.45-.469.356-.355.454-.85.454-1.435v-9.797c0-.585-.098-1.08-.454-1.436-.356-.355-.865-.468-1.45-.468zm0 .936h9.739c.473 0 .678.093.776.191.098.099.191.304.191.777v9.797c0 .474-.093.679-.191.777s-.303.191-.776.191h-9.739c-.473 0-.678-.093-.777-.191-.097-.098-.19-.304-.19-.777v-9.797c0-.473.093-.678.19-.777.099-.098.304-.191.777-.191z" transform="matrix(.965926 -.258819 .258819 .965926 -65.484028 133.964818)"/><path d="m485.191 305.125c-.585 0-1.096.113-1.451.468-.355.356-.454.851-.454 1.436v9.797c0 .586.099 1.08.454 1.435.355.356.866.47 1.451.47h9.724c.585 0 1.095-.114 1.45-.47.356-.354.455-.85.455-1.435v-9.797c0-.585-.099-1.08-.455-1.436-.355-.355-.865-.468-1.45-.468zm0 .936h9.724c.473 0 .693.093.791.191.098.099.175.304.175.777v9.797c0 .474-.078.679-.175.777-.098.098-.318.191-.791.191h-9.724c-.474 0-.694-.093-.792-.191-.097-.098-.175-.304-.175-.777v-9.797c0-.473.078-.678.175-.777.098-.098.318-.191.792-.191z" transform="matrix(.965926 -.258819 .258819 .965926 -64.034714 137.463617)"/><path d="m499.192 301.371c-.584 0-1.095.113-1.449.468-.356.356-.455.851-.455 1.436v9.797c0 .586.099 1.08.455 1.435.355.357.865.47 1.449.47h9.74c.584 0 1.079-.113 1.435-.47.355-.354.469-.85.469-1.435v-9.797c0-.585-.099-1.08-.454-1.436-.357-.355-.865-.468-1.45-.468zm0 .936h9.74c.472 0 .678.093.776.191.098.099.19.304.19.777v9.797c0 .474-.092.679-.19.777s-.304.191-.776.191h-9.74c-.472 0-.678-.093-.776-.191s-.191-.304-.191-.777v-9.797c0-.473.093-.678.191-.777.098-.098.303-.191.776-.191z" transform="matrix(.965926 -.258819 .258819 .965926 -62.585775 140.961497)"/><path d="m513.212 297.617c-.584 0-1.095.113-1.45.468-.355.356-.454.851-.454 1.435v9.798c0 .585.099 1.079.454 1.435.356.356.866.469 1.45.469h9.725c.585 0 1.095-.113 1.45-.469.356-.355.454-.85.454-1.435v-9.798c0-.584-.098-1.079-.454-1.435-.356-.355-.865-.468-1.45-.468zm0 .936h9.725c.473 0 .693.093.791.191.098.099.176.303.176.776v9.798c0 .473-.078.679-.176.776-.098.099-.318.191-.791.191h-9.725c-.473 0-.692-.092-.791-.191-.098-.097-.175-.304-.175-.776v-9.798c0-.473.077-.677.175-.776.099-.098.318-.191.791-.191z" transform="matrix(.965926 -.258819 .258819 .965926 -61.13666 144.460602)"/><path d="m527.219 293.862c-.585 0-1.095.113-1.45.468-.356.356-.454.851-.454 1.435v9.798c0 .585.098 1.079.454 1.435.355.356.865.469 1.45.469h9.739c.585 0 1.079-.113 1.434-.469.357-.355.469-.85.469-1.435v-9.798c0-.584-.113-1.079-.469-1.435-.355-.355-.85-.468-1.434-.468zm0 .936h9.739c.473 0 .678.093.776.191.098.099.19.303.19.776v9.798c0 .473-.092.679-.19.776-.098.099-.303.191-.776.191h-9.739c-.473 0-.679-.092-.776-.191-.1-.097-.191-.304-.191-.776v-9.798c0-.473.091-.677.191-.776.097-.098.303-.191.776-.191z" transform="matrix(.965926 -.258819 .258819 .965926 -59.687206 147.95928)"/><path d="m541.225 290.109c-.585 0-1.08.113-1.435.468-.356.356-.468.851-.468 1.436v9.797c0 .586.112 1.079.468 1.435.355.356.851.469 1.435.469h9.739c.585 0 1.095-.113 1.45-.469.356-.355.453-.85.453-1.435v-9.797c0-.585-.097-1.08-.453-1.436-.356-.355-.866-.468-1.45-.468zm0 .936h9.739c.473 0 .693.093.791.191.098.099.176.304.176.777v9.797c0 .474-.078.679-.176.776-.098.099-.318.191-.791.191h-9.739c-.473 0-.678-.092-.776-.191-.098-.097-.191-.303-.191-.776v-9.797c0-.473.093-.678.191-.777.098-.098.303-.191.776-.191z" transform="matrix(.965926 -.258819 .258819 .965926 -58.238684 151.456886)"/><path d="m554.852 283.832c-.585 0-1.095.113-1.45.468-.355.356-.469.851-.469 1.436v9.797c0 .586.114 1.08.469 1.435.356.356.866.469 1.45.469h29.35c.585 0 1.094-.113 1.45-.469.356-.354.453-.85.453-1.435v-9.797c0-.585-.098-1.08-.453-1.436-.356-.355-.866-.468-1.45-.468zm0 .936h29.35c.473 0 .693.093.79.191.099.099.176.304.176.777v9.797c0 .474-.077.679-.176.777-.097.098-.318.191-.79.191h-29.35c-.473 0-.692-.093-.791-.191-.098-.098-.191-.304-.191-.777v-9.797c0-.473.093-.678.191-.777.099-.098.318-.191.791-.191z" transform="matrix(.965926 -.258819 .258819 .965926 -55.815905 157.305717)"/><path d="m544.832 303.576c-.585 0-1.08.099-1.436.454-.355.356-.468.865-.468 1.45v9.784c0 .584.113 1.093.468 1.449.356.356.851.454 1.436.454h9.739c.584 0 1.094-.098 1.449-.454.357-.356.454-.865.454-1.449v-9.784c0-.585-.097-1.094-.454-1.45-.355-.355-.866-.454-1.449-.454zm0 .938h9.739c.472 0 .692.093.79.19.098.098.176.304.176.776v9.784c0 .473-.078.693-.176.791s-.318.175-.79.175h-9.739c-.473 0-.679-.077-.777-.175s-.19-.319-.19-.791v-9.784c0-.473.092-.678.19-.776s.304-.19.777-.19z" transform="matrix(.965926 -.258819 .258819 .965926 -61.599503 152.84896)"/><path d="m415.675 322.429c-.585 0-1.094.099-1.45.455-.355.355-.454.864-.454 1.449v9.784c0 .584.099 1.093.454 1.449.356.355.865.455 1.45.455h127.331c.585 0 1.095-.099 1.45-.455.356-.356.454-.865.454-1.449v-9.784c0-.585-.098-1.094-.454-1.449-.356-.356-.865-.455-1.45-.455zm0 .938h127.331c.473 0 .693.093.791.19.097.098.175.304.175.776v9.784c0 .473-.078.693-.175.791-.098.098-.318.175-.791.175h-127.331c-.473 0-.678-.077-.776-.175s-.191-.319-.191-.791v-9.784c0-.473.093-.678.191-.776s.303-.19.776-.19z" transform="matrix(.965926 -.258819 .258819 .965926 -68.876519 135.280407)"/><path d="m358.615 294.659c-.585 0-1.095.114-1.45.469-.356.356-.454.851-.454 1.436v9.797c0 .585.098 1.08.454 1.436.355.355.865.468 1.45.468h9.739c.585 0 1.094-.112 1.45-.468s.454-.851.454-1.436v-9.797c0-.585-.099-1.08-.454-1.436-.356-.355-.865-.469-1.45-.469zm0 .937h9.739c.473 0 .678.093.776.191.098.099.191.304.191.777v9.797c0 .473-.093.678-.191.777-.098.098-.303.19-.776.19h-9.739c-.473 0-.678-.092-.776-.19-.098-.099-.191-.303-.191-.777v-9.797c0-.473.093-.678.191-.777.098-.098.303-.19.776-.191z" transform="matrix(.965926 -.258819 .258819 .965926 -65.638717 104.348865)"/><path d="m598.489 259.772c-.585 0-1.095.099-1.45.454s-.454.865-.454 1.451v9.782c0 .585.099 1.094.454 1.451.355.355.865.454 1.45.454h9.739c.585 0 1.079-.099 1.436-.454.355-.357.468-.866.468-1.451v-9.782c0-.586-.113-1.096-.468-1.451-.357-.355-.851-.454-1.436-.454zm0 .937h9.739c.473 0 .679.078.776.176.099.098.191.319.191.791v9.783c0 .472-.092.692-.191.791-.097.098-.303.175-.776.175h-9.739c-.473 0-.679-.077-.776-.175-.098-.099-.191-.319-.191-.791v-9.783c0-.474.093-.693.191-.791.097-.098.303-.176.776-.176z" transform="matrix(.965926 -.258819 .258819 .965926 -48.433937 165.243791)"/><path d="m602.226 273.719c-.584 0-1.095.099-1.45.454-.355.356-.454.865-.454 1.45v9.783c0 .586.099 1.095.454 1.45.355.356.865.454 1.45.454h9.74c.584 0 1.078-.098 1.435-.454.355-.355.468-.865.468-1.45v-9.783c0-.584-.113-1.094-.468-1.45-.357-.355-.85-.454-1.435-.454zm0 .938h9.74c.472 0 .678.077.775.175.099.098.191.318.191.791v9.783c0 .473-.092.693-.191.792-.097.096-.303.175-.775.175h-9.74c-.472 0-.679-.079-.776-.175-.098-.099-.191-.319-.191-.792v-9.783c0-.473.093-.693.191-.791.097-.098.304-.175.776-.175z" transform="matrix(.965926 -.258819 .258819 .965926 -51.91626 166.686414)"/><path d="m605.964 287.667c-.585 0-1.095.098-1.45.455-.356.354-.454.864-.454 1.449v9.783c0 .585.098 1.095.454 1.45.355.355.865.455 1.45.455h9.739c.585 0 1.079-.1 1.435-.455.356-.356.469-.865.469-1.45v-9.783c0-.585-.113-1.096-.469-1.449-.356-.357-.85-.455-1.435-.455zm0 .938h9.739c.473 0 .679.077.776.175.098.098.191.318.191.792v9.782c0 .473-.093.694-.191.792-.097.098-.303.175-.776.175h-9.739c-.473 0-.679-.077-.776-.175-.099-.098-.191-.319-.191-.792v-9.782c0-.474.092-.693.191-.792.097-.098.303-.175.776-.175z" transform="matrix(.965926 -.258819 .258819 .965926 -55.399036 168.129171)"/><path d="m608.744 242.074c-.585 0-1.095.099-1.45.454-.356.356-.454.866-.454 1.45v9.784c0 .584.098 1.094.454 1.449s.865.454 1.45.454h9.725c.585 0 1.094-.099 1.45-.454.355-.355.454-.865.454-1.449v-9.784c0-.584-.099-1.094-.454-1.45-.356-.355-.865-.454-1.45-.454zm0 .938h9.725c.473 0 .693.078.791.175.098.098.175.319.175.791v9.784c0 .472-.077.692-.175.79-.099.098-.319.175-.791.175h-9.725c-.473 0-.693-.077-.791-.175-.097-.098-.175-.318-.175-.79v-9.784c0-.472.078-.693.175-.791.098-.097.319-.175.791-.175z" transform="matrix(.965926 -.258819 .258819 .965926 -43.504017 167.292927)"/><path d="m612.523 256.014c-.585 0-1.095.098-1.45.453-.356.356-.454.865-.454 1.451v9.783c0 .584.098 1.094.454 1.45.355.355.866.454 1.45.454h9.725c.584 0 1.094-.099 1.45-.454.355-.357.454-.866.454-1.45v-9.783c0-.586-.099-1.095-.454-1.451-.357-.355-.865-.453-1.45-.453zm0 .937h9.725c.472 0 .693.078.791.176.097.098.175.318.175.79v9.784c0 .472-.078.692-.175.79-.098.098-.319.176-.791.176h-9.725c-.473 0-.693-.078-.791-.176s-.175-.318-.175-.79v-9.784c0-.474.077-.692.175-.79s.318-.176.791-.176z" transform="matrix(.965926 -.258819 .258819 .965926 -46.98316 168.745794)"/><path d="m616.26 269.96c-.585 0-1.094.099-1.45.454-.356.357-.453.866-.453 1.451v9.783c0 .585.097 1.094.453 1.45.356.355.866.453 1.45.453h9.725c.584 0 1.094-.098 1.45-.453.355-.356.454-.865.454-1.45v-9.783c0-.585-.099-1.095-.454-1.451-.357-.355-.865-.454-1.45-.454zm0 .938h9.725c.472 0 .693.078.791.175.097.099.175.319.175.792v9.783c0 .473-.078.693-.175.791-.098.097-.319.175-.791.175h-9.725c-.473 0-.693-.078-.791-.175-.098-.098-.175-.319-.175-.791v-9.783c0-.473.077-.693.175-.792.098-.097.318-.175.791-.175z" transform="matrix(.965926 -.258819 .258819 .965926 -50.465285 170.188319)"/><path d="m619.998 283.909c-.585 0-1.095.097-1.45.454-.357.355-.454.865-.454 1.449v9.784c0 .584.097 1.094.454 1.449.355.356.865.455 1.45.455h9.725c.584 0 1.094-.099 1.45-.455.354-.355.454-.865.454-1.449v-9.784c0-.585-.1-1.095-.454-1.449-.357-.357-.865-.454-1.45-.454zm0 .938h9.725c.472 0 .692.077.791.175.097.098.175.318.175.791v9.783c0 .473-.078.693-.175.791-.099.099-.319.176-.791.176h-9.725c-.474 0-.693-.077-.791-.176-.098-.098-.176-.318-.176-.791v-9.783c0-.473.078-.693.176-.791.097-.098.317-.175.791-.175z" transform="matrix(.965926 -.258819 .258819 .965926 -53.948227 171.631168)"/><path d="m622.732 238.328c-.584 0-1.094.098-1.45.453-.355.357-.468.866-.468 1.451v9.784c0 .584.113 1.094.468 1.449.356.355.865.454 1.45.454h9.725c.585 0 1.095-.099 1.45-.454.356-.355.454-.865.454-1.449v-9.784c0-.585-.098-1.094-.454-1.451-.356-.355-.865-.453-1.45-.453zm0 .937h9.725c.473 0 .693.078.791.176.097.097.175.318.175.791v9.784c0 .472-.078.692-.175.79-.098.098-.318.175-.791.175h-9.725c-.474 0-.692-.077-.791-.175-.097-.098-.19-.318-.19-.79v-9.784c0-.473.093-.694.19-.791.098-.098.318-.176.791-.176z" transform="matrix(.965926 -.258819 .258819 .965926 -42.058129 170.784217)"/><path d="m626.47 252.278c-.585 0-1.094.098-1.45.454-.355.355-.468.865-.468 1.45v9.783c0 .585.113 1.094.468 1.451.357.355.866.454 1.45.454h9.725c.585 0 1.095-.099 1.45-.454.356-.357.454-.866.454-1.451v-9.783c0-.585-.098-1.095-.454-1.45-.356-.356-.865-.454-1.45-.454zm0 .937h9.725c.473 0 .693.078.792.176.096.098.174.318.174.791v9.783c0 .472-.078.692-.174.79-.099.099-.319.176-.792.176h-9.725c-.473 0-.692-.077-.791-.176-.097-.098-.19-.318-.19-.79v-9.783c0-.474.093-.693.19-.791.099-.098.319-.176.791-.176z" transform="matrix(.965926 -.258819 .258819 .965926 -45.541376 172.226658)"/><path d="m630.207 266.225c-.584 0-1.094.099-1.45.454-.355.357-.468.865-.468 1.45v9.784c0 .585.113 1.094.468 1.45.357.355.866.453 1.45.453h9.725c.585 0 1.095-.098 1.45-.453.356-.356.454-.865.454-1.45v-9.784c0-.584-.098-1.094-.454-1.45-.355-.355-.865-.454-1.45-.454zm0 .938h9.725c.473 0 .693.077.791.175.097.098.175.318.175.791v9.784c0 .473-.078.693-.175.791-.098.097-.318.175-.791.175h-9.725c-.473 0-.692-.078-.79-.175-.098-.098-.191-.319-.191-.791v-9.784c0-.473.093-.693.191-.791.097-.098.318-.175.79-.175z" transform="matrix(.965926 -.258819 .258819 .965926 -49.023709 173.669467)"/><path d="m633.945 280.174c-.584 0-1.094.097-1.45.454-.356.355-.468.865-.468 1.449v9.784c0 .584.112 1.094.468 1.449.356.356.865.455 1.45.455h9.725c.585 0 1.095-.099 1.45-.455.356-.356.454-.865.454-1.449v-9.784c0-.585-.098-1.095-.454-1.449-.356-.357-.865-.454-1.45-.454zm0 .938h9.725c.473 0 .693.077.791.175.097.098.175.318.175.791v9.783c0 .473-.078.693-.175.791-.098.099-.318.176-.791.176h-9.725c-.474 0-.693-.077-.791-.176-.098-.098-.19-.318-.19-.791v-9.783c0-.473.092-.693.19-.791s.318-.175.791-.175z" transform="matrix(.965926 -.258819 .258819 .965926 -52.50662 175.112226)"/><path d="m614.143 207.392c-.586 0-1.096.098-1.45.453-.356.356-.455.866-.455 1.451v9.782c0 .585.099 1.095.455 1.451.355.355.865.453 1.45.453h9.724c.585 0 1.095-.098 1.45-.453.356-.356.455-.865.455-1.451v-9.782c0-.585-.099-1.095-.455-1.451-.355-.355-.865-.453-1.45-.453zm0 .937h9.724c.473 0 .694.092.791.19.098.098.176.304.176.777v9.782c0 .474-.078.694-.176.791-.097.099-.318.176-.791.176h-9.724c-.474 0-.693-.078-.791-.176-.098-.097-.176-.317-.176-.791v-9.782c0-.473.078-.679.176-.777.097-.098.317-.19.791-.19z" transform="matrix(.965926 -.258819 .258819 .965926 -34.343595 167.508566)"/><path d="m360.732 264.705c-.585 0-1.094.113-1.45.469-.356.355-.454.851-.454 1.435v55.433c0 .586.099 1.081.454 1.436.356.356.865.469 1.45.469h44.347c.232 0 .322.041.308.029-.015-.012.029.004.029.293v12.229c0 .586.099 1.095.454 1.451.356.355.865.453 1.45.453h144.404c.585 0 1.095-.098 1.45-.453.356-.357.454-.866.454-1.451v-12.096c0-.24.049-.319.103-.366.052-.048.166-.089.395-.089h31.269c.586 0 1.081-.112 1.436-.468s.468-.851.468-1.435v-55.434c0-.585-.113-1.08-.468-1.435-.355-.356-.851-.469-1.436-.469h-224.667zm0 .938h224.668c.473 0 .678.092.776.191.098.097.191.303.191.775v55.434c0 .473-.093.679-.191.776-.098.098-.302.19-.776.19h-31.269c-.368 0-.726.072-1.011.323-.284.251-.425.65-.425 1.069v12.096c0 .474-.092.694-.19.791-.098.099-.303.176-.776.176l-144.405-.001c-.472 0-.692-.077-.79-.175-.098-.097-.176-.318-.176-.791v-12.229c0-.415-.094-.79-.38-1.025s-.606-.234-.893-.234h-44.349c-.472 0-.693-.093-.79-.191-.098-.097-.176-.303-.176-.776v-55.433c0-.473.078-.678.176-.776s.318-.19.79-.19z" transform="matrix(.965926 -.258819 .258819 .965926 -61.928601 132.713219)"/></g></svg>