<svg xmlns="http://www.w3.org/2000/svg"><g fill="#fff"><path d="m111.183 3.787c3.388-4.336 10.401-5.074 14.557-1.44 1.7 1.431 2.89 3.407 3.5 5.533 7.694 26.476 15.424 52.942 23.109 79.423-4.542.004-9.085-.007-13.626.004-2.142-7.3-4.234-14.613-6.348-21.922-8.781-.02-17.56-.004-26.34-.009-2.151 7.305-4.272 14.614-6.384 21.932-4.517-.015-9.033-.004-13.551-.009 7.311-25.256 14.63-50.516 21.976-75.764.86-2.639 1.19-5.592 3.097-7.748m8.013 16.223c-3.219 10.969-6.374 21.96-9.576 32.935 6.383.029 12.763.011 19.142.011-3.196-10.982-6.37-21.963-9.567-32.946z"/><path d="m206.844 4.357c2.366-3.432 6.942-5.1 10.97-4.041 3.687.85 6.509 4.028 7.482 7.604 7.688 26.459 15.401 52.908 23.088 79.365-4.546.037-9.093 0-13.64.02-2.114-7.307-4.206-14.622-6.335-21.929-8.767.005-17.533-.015-26.299.007-2.095 7.313-4.254 14.607-6.352 21.918-4.512.004-9.023-.003-13.535.004 7.306-25.396 14.699-50.771 22.065-76.148.772-2.294 1.069-4.82 2.557-6.8m-1.102 48.599c6.355.009 12.708.004 19.064.004-3.161-11.004-6.373-21.996-9.528-32.999-3.185 11-6.393 21.99-9.545 32.995z"/><path d="m142.177.184h49.282v13.292c-6.047.004-12.095-.007-18.141.004 0 24.607.005 49.217-.003 73.823h-12.997c0-24.606-.004-49.215.004-73.823-6.05-.011-12.096 0-18.145-.004z"/><path d="m262.825.724c1.249-.431 2.582-.577 3.899-.545 5.179.018 10.358.003 15.539.006 8.723.16 17.05 5.573 20.825 13.424 2.614 5.099 2.883 11.028 2.224 16.62-.453 5.856-2.91 11.711-7.41 15.591-2.379 2.121-5.34 3.404-7.884 5.289-1.398 1.066-1.466 3.133-.745 4.612 6.875 10.613 14.023 21.058 21.041 31.583-5.134.009-10.266-.013-15.4.009-6.72-10.094-13.37-20.238-20.062-30.345-1.968-2.876-2.503-6.686-1.324-9.97.919-2.518 3.12-4.362 5.571-5.311 4.68-1.785 9.293-4.592 11.884-9.008 1.971-3.317 1.871-7.412.984-11.045-1.04-4.714-5.634-8.425-10.487-8.261-3.358.023-6.713-.018-10.065.016-1.518-.036-2.945 1.284-2.927 2.822-.015 23.699.009 47.4-.006 71.097-4.365-.006-8.726 0-13.092-.004-.008-25.512.008-51.029-.008-76.541.011-4.473 3.196-8.68 7.429-10.039z"/><path d="m317.186.184h13.776c-.005 29.042.006 58.078-.009 87.121-4.587-.011-9.177 0-13.767-.004z"/><path d="m556.355 87.301c-24.068 0-43.652-19.582-43.652-43.651-.011-24.07 19.575-43.65 43.647-43.65 24.071 0 43.65 19.581 43.65 43.651 0 24.068-19.575 43.65-43.647 43.65zm0-84.096c-22.302 0-40.446 18.144-40.446 40.445 0 22.302 18.144 40.445 40.446 40.445 22.3 0 40.443-18.143 40.443-40.445-.011-22.3-18.153-40.445-40.451-40.445zm0 70.182c-16.393 0-29.734-13.339-29.734-29.733 0-16.395 13.341-29.733 29.734-29.733s29.732 13.338 29.732 29.733c0 16.394-13.337 29.733-29.727 29.733zm0-56.259c-14.628 0-26.528 11.901-26.528 26.526 0 14.628 11.9 26.528 26.528 26.528 14.626 0 26.526-11.9 26.526-26.528-.011-14.626-11.904-26.526-26.531-26.526z"/><path d="m466.999 87.301c-24.068 0-43.652-19.582-43.652-43.651-.011-24.07 19.575-43.65 43.647-43.65 24.07 0 43.65 19.581 43.65 43.651 0 24.068-19.575 43.65-43.648 43.65zm0-84.096c-22.3 0-40.446 18.144-40.446 40.445 0 22.302 18.146 40.445 40.446 40.445s40.443-18.143 40.443-40.445c0-22.3-18.142-40.445-40.44-40.445zm0 70.182c-16.396 0-29.735-13.339-29.735-29.733 0-16.395 13.339-29.733 29.735-29.733 16.393 0 29.732 13.338 29.732 29.733-.011 16.394-13.348 29.733-29.738 29.733zm0-56.259c-14.628 0-26.528 11.901-26.528 26.526 0 14.628 11.9 26.528 26.528 26.528 14.627 0 26.525-11.9 26.525-26.528-.011-14.626-11.903-26.526-26.53-26.526z"/><path d="m392.203 87.301c-16.859 0-30.571-13.713-30.571-30.574 0-10.116 5.111-19.665 13.443-25.324-2.129-3.285-3.243-7.065-3.243-11.032 0-11.231 9.137-20.371 20.369-20.371 11.231 0 20.373 9.14 20.373 20.37 0 3.967-1.12 7.745-3.248 11.032 8.336 5.659 13.445 15.206 13.445 25.324.011 16.862-13.7 30.575-30.564 30.575zm0-84.096c-9.466 0-17.168 7.7-17.168 17.166 0 3.835 1.242 7.465 3.588 10.498l1.109 1.429-1.554.927c-8.23 4.924-13.341 13.929-13.341 23.502 0 15.089 12.278 27.368 27.366 27.368 15.09 0 27.368-12.279 27.368-27.368 0-9.576-5.114-18.58-13.343-23.502l-1.549-.927 1.104-1.429c2.349-3.033 3.589-6.663 3.589-10.498-.011-9.465-7.716-17.166-17.184-17.166zm0 71.407c-9.86 0-17.884-8.019-17.884-17.883 0-9.86 8.021-17.884 17.884-17.884 9.859 0 17.883 8.022 17.883 17.884 0 9.864-8.013 17.883-17.878 17.883zm0-32.562c-8.095 0-14.677 6.587-14.677 14.68 0 8.094 6.585 14.679 14.677 14.679 8.094 0 14.677-6.586 14.677-14.679s-6.591-14.68-14.682-14.68zm0-12.688c-4.956 0-8.986-4.032-8.986-8.988 0-4.954 4.03-8.984 8.986-8.984 4.955 0 8.985 4.03 8.985 8.984 0 4.956-4.023 8.988-8.983 8.988zm0-14.769c-3.189 0-5.78 2.595-5.78 5.78 0 3.19 2.592 5.782 5.78 5.782 3.191 0 5.782-2.594 5.782-5.782 0-3.186-2.601-5.78-5.787-5.78z"/><path d="m25.3 16.516c1.436-.005 2.872 0 4.311-.003.005 3.377 0 6.758.002 10.135.014 2.821-.065 5.639-.182 8.457-.193 4.068-.447 8.145-1.121 12.165-.463 2.774-1.423 5.449-2.611 7.987-1.941 4.09-4.991 7.552-8.42 10.462-3.066 2.7-6.728 4.665-10.578 5.994-2.178.752-4.419 1.328-6.701 1.651.002-2.835.002-5.668 0-8.501 2.747-.413 5.389-1.389 7.841-2.679 2.911-1.538 5.531-3.607 7.737-6.048 2.278-2.519 4.092-5.437 5.47-8.534 1.622-3.56 2.491-7.408 3.08-11.259.741-4.896 1.049-9.851 1.163-14.797.019-1.675.005-3.353.009-5.03z"/><path d="m31.345 16.521c2.644-.018 5.289-.002 7.936-.007.001 18.95.001 37.901 0 56.848-2.64.007-5.279-.011-7.918.013-.033-6.042-.004-12.088-.014-18.128-.003-12.908.006-25.817-.004-38.726z"/><path d="m41.046 16.514c1.43-.001 2.858-.004 4.286.002-.047 5.776.151 11.567.838 17.305.565 4.459 1.36 8.951 3.135 13.104 1.683 4.019 4.11 7.755 7.273 10.767 3.02 2.88 6.679 5.093 10.655 6.367 1.11.353 2.244.631 3.398.802-.001 2.832-.002 5.664 0 8.497-2.266-.308-4.488-.894-6.651-1.628-2.575-.896-5.066-2.056-7.354-3.546-1.67-1.073-3.189-2.36-4.647-3.698-2.405-2.22-4.556-4.738-6.173-7.593-1.265-2.224-2.187-4.624-2.91-7.072-.663-2.46-.945-5.007-1.202-7.536-.497-5.469-.683-10.963-.648-16.454 0-3.105-.001-6.209 0-9.317z"/><path d="m31.345 16.521c.008 12.909.001 25.818.004 38.725.009 6.04-.02 12.086.014 18.128 2.639-.023 5.279-.006 7.918-.013.001-18.946.001-37.897 0-56.848-2.646.006-5.291-.009-7.936.008"/><path d="m41.046 16.514c-.001 3.106 0 6.212 0 9.317-.035 5.488.151 10.985.648 16.454.257 2.529.539 5.076 1.202 7.536.722 2.448 1.645 4.848 2.91 7.072 1.617 2.855 3.768 5.373 6.173 7.593 1.459 1.341 2.977 2.626 4.647 3.698 2.288 1.49 4.779 2.647 7.354 3.546 2.163.734 4.385 1.317 6.651 1.628-.002-2.833-.001-5.665 0-8.497-1.153-.168-2.288-.448-3.398-.802-3.976-1.274-7.635-3.487-10.655-6.367-3.163-3.009-5.59-6.747-7.273-10.767-1.775-4.153-2.57-8.645-3.135-13.104-.688-5.738-.885-11.529-.838-17.305-1.429-.005-2.857-.003-4.286-.002"/></g></svg>