<svg xmlns="http://www.w3.org/2000/svg"><path d="m430.086 0c-19.128 0-36.186 8.259-47.274 21.162-3.273-4.206-7.272-8.622-11.646-11.73-9.177-6.849-21.072-8.937-33.789-9.279-21.522-.579-38.739 11.052-46.668 24.126-6.699-13.365-12.705-20.34-36.009-21.498h-56.466l.012 23.535s2.685.855 3.594 1.854c.756.831 1.26 3.126 1.26 3.126l-.132 52.386s-1.476-1.071-2.064-1.758c-1.098-1.275-2.652-4.296-2.652-4.296l-28.932-74.874-36.687.027-31.875 83.331v-17.835h-22.941c-1.806 4.977-6.876 8.343-12.996 8.343-3.222 0-6.669-.762-9.465-2.439-3.639-2.187-6.357-4.782-8.598-9.399-1.761-4.272-3.111-9.501-3.264-14.124.534-9.15 3.315-12.411 8.403-16.185 1.128-.837 4.281-1.506 5.19-1.509 2.001-.009 3.666 1.203 4.569 2.991 1.314 2.598-.609 5.748-2.511 7.989l18.546 12.777 28.647-29.973c-9.993-15.927-28.254-26.589-49.125-26.589-31.599 0-57.213 24.441-57.213 54.588 0 30.15 24.795 52.95 57.213 55.41l4.098.165h43.608v-.021h101.526v-.009l38.169-.054v-.06h5.97v-22.428s-3.198-.666-4.515-1.563c-1.383-.939-1.515-2.424-1.515-2.424-.024-.57.093-1.011.393-1.383.294-.369.984-.615 1.245-.672 3.942-.825 7.959-1.953 11.982-3.399 10.737-3.861 19.77-9.354 26.184-15.423 4.29 25.353 26.574 43.857 53.511 46.944 1.761.201 3.276.354 4.92.414.438.015 1.311-.018 1.311-.018h38.1l-.117-18.75c9.909 11.001 29.214 21.543 48.696 21.543 15.921 0 30.204-6.972 40.269-15.591l-.084 12.966h48.108l.246-19.836 12.543.162v-.219l16.83.147v19.674h51.309v-26.067s-2.19-.141-3.048-.741c-1.158-.807-2.358-3.525-2.358-3.525l-7.212-47.892s.216-3.204 1.146-4.398c.765-.984 3.279-1.803 3.279-1.803v-23.115h-4.593-7.377-39.18v.654l-3.606 12.132-5.19-12.21v-.576h-.243l-.141-.327-.009.327h-49.356v24.261l-3.372-4.59c-9.258-13.497-25.509-22.452-44.016-22.452-.756 0-1.506.012-2.253.042-.792-.027-1.587-.042-2.385-.042zm-329.964 90.852-.003.237h-.216c.075-.078.147-.159.219-.237z" fill="#141414"/><g fill="#fff"><path d="m57.174 10.413c-26.046.165-47.322 19.14-47.322 43.959s23.487 46.14 51.912 45.498l27.624.075v-21.744h-5.22c-1.638 4.098-9.294 8.112-14.844 8.112-2.925 0-10.29-.399-13.011-1.353-4.812-1.686-11.673-4.104-17.64-14.133-1.599-3.516-6.102-12.081-5.094-24.579.486-7.53 5.271-16.932 13.854-21.192 3.744-1.854 7.512-2.16 14.13-1.56 4.749.432 9.471 3.771 11.118 7.782 1.275 3.099.909 6.876-.591 9.03-.108.153-.111.288-.09.435.018.111.162.3.162.3l2.616 2.04s.744.519 1.614.495c.504-.015 1.407-.564 1.407-.564l14.931-15.669c-9.228-12.453-25.635-16.932-35.556-16.932z"/><path d="m430.329 9.993c-27.615 0-50.001 20.772-50.001 46.395s22.386 46.392 50.001 46.392 50.001-20.769 50.001-46.392-22.386-46.395-50.001-46.395zm.327 14.424c14.214 0 21.831 10.173 24.921 22.299.882 3.468.525 15.009-.003 18.852-1.605 11.718-11.184 23.139-25.08 22.785-13.542-.342-22.602-6.648-25.41-23.604-.819-4.962-.834-10.92-.165-15.903 1.938-14.448 11.523-24.429 25.737-24.429z"/><path d="m139.5 12.876s-21.957 59.412-25.893 70.233c-3.936 10.818-8.361 10.491-8.361 10.491l.327 6.555 26.538-.006.021-6.297s-1.704-.087-2.952-1.236c-2.421-2.22-.888-6.693-.888-6.693l6.135-15.696 27.252.057s5.313 13.263 6.612 17.64c1.698 5.709-3.606 5.814-3.606 5.814v6.399l33.561-.018-.021-6.33s-2.001-.303-4.125-2.157c-2.412-2.103-4.053-6.441-4.053-6.441l-27.483-72.255zm7.878 18.267 9.096 25.326-17.622.081z"/><path d="m208.968 12.78-.129 7.284s2.133.612 4.173 2.877c1.083 1.2.414 16.44.414 16.44l-.036 48.789s.693 1.923-1.641 3.855c-.879.729-1.659 1.503-3.021 1.623l-.162 6.489 31.101.075.075-6.603s-1.098-.432-2.826-1.989c-.972-.879-1.572-2.142-1.557-3.402.024-4.41.129-8.643.105-12.945 10.896-2.625 20.301-7.077 23.967-8.424 13.779-5.499 24.474-14.232 23.847-29.805-.117-11.034-5.715-20.079-17.703-22.122-5.466-1.578-7.977-1.854-10.131-1.977zm35.571 12.369c3.354-.063 7.305.708 10.347 2.238 3.789 2.517 6.099 5.124 6.099 10.641.156 2.592-.591 4.821-1.836 7.089-1.302 2.166-5.229 6.33-7.71 8.709-7.254 5.184-9.846 6.705-15.609 9.357l-.093-36.963c3.072-.576 5.826-1.05 8.802-1.071z"/><path d="m340.449 10.473c-26.049.162-47.322 19.137-47.322 43.956s23.484 46.14 51.912 45.498l27.624.078v-21.747h-5.22c-1.638 4.101-9.294 8.112-14.844 8.112-2.925 0-10.29-.399-13.014-1.353-4.809-1.683-11.673-4.101-17.637-14.13-1.599-3.516-6.102-12.084-5.097-24.579.489-7.533 5.271-16.935 13.857-21.192 3.744-1.857 7.512-2.16 14.127-1.56 4.752.429 9.471 3.771 11.121 7.779 1.272 3.099.909 6.876-.594 9.03-.105.153-.108.288-.087.435.018.114.162.3.162.3l2.616 2.043s.744.516 1.614.492c.504-.015 1.407-.561 1.407-.561l14.931-15.672c-9.231-12.456-25.638-16.929-35.556-16.929z"/><path d="m492.828 12.954.027 6.258s2.736.735 3.825 1.593c1.239.984.927 2.727.927 2.727s-9.924 61.683-10.143 62.829c-.231 1.23-.558 4.107-2.289 5.709-1.722 1.59-3.708 1.911-3.708 1.911l-.03 6.171h27.792v-5.766s-2.262-.174-3.768-1.683c-1.509-1.506-1.071-5.649-1.071-5.649l6.837-46.599 13.911 40.107 16.944.231 13.761-43.191 7.683 49.683s.927 3.735-1.071 5.652c-1.539 1.476-3.768 1.68-3.768 1.68v5.769h32.196l-.027-6.171s-.72.246-2.55-1.221c-1.077-.861-1.593-4.707-1.824-5.94-.216-1.143-8.892-63.21-8.892-63.21s-.15-2.565 1.257-3.873c1.014-.945 3.087-1.839 3.087-1.839l-.051-5.112-33.426-.039-12.231 35.235-11.667-35.235z"/></g></svg>