<svg xmlns="http://www.w3.org/2000/svg"><path d="m521.368 39.418v-39.389h-109.604l-18.024 131.588-17.837-131.587h-39.525l4.428 35.112c-4.565-8.995-20.747-35.112-56.359-35.112-.235-.015-39.579 0-39.579 0l-.152 191.799-28.808-191.799-51.765-.03-29.803 198.73.016-198.701h-49.542l-17.86 111.627-17.396-111.626h-49.558v216.053h39.026v-104.137l17.752 104.134h20.747l17.503-104.134v104.134h75.234l4.566-33.245h30.29l4.55 33.245 73.862.046h.06v-.046h.046.046v-70.131l9.056-1.319 18.746 71.496h.046 38.114.044l-.015-.046h.068.046l-24.601-83.796c12.467-9.221 26.543-32.639 22.797-55.041v-.015c.045.303 23.22 138.99 23.22 138.99l45.438-.138 31.048-195.834v195.835h73.68v-38.858h-34.974v-49.55h34.974v-39.448h-34.974v-48.807zm-341.943 109.156 10.715-92.366 11.125 92.366zm113.439-42.649c-3.003 1.456-6.135 2.184-9.183 2.184v-69.495c.053 0 .114-.014.189-.014 3.057-.016 25.844.924 25.844 34.382 0 17.502-7.75 28.53-16.85 32.943m307.136 71.268v38.857h-71.876v-216.05h38.699v177.193z" fill="#fff"/></svg>