<svg xmlns="http://www.w3.org/2000/svg"><g fill="#1e1e1e"><path d="m298.845 260.215c-26.484 0-50.578-1.285-68.674-2.764-18.117-1.485-30.149-3.137-32.76-3.939l-.022-.006-.018-.009c-6.551-2.67-11.169-9.104-11.169-16.616v-130.123c.001-1.991 1.297-3.68 3.094-4.264l.016-.006.016-.003c1.022-.256 6.403-.914 12.747-1.532 6.327-.613 13.527-1.169 18.007-1.17h199.835c4.48.001 11.68.557 18.008 1.17 6.343.617 11.725 1.276 12.778 1.541 1.797.584 3.094 2.274 3.095 4.264v130.124c-.001 7.512-4.617 13.945-11.17 16.617l-.024.01-.016.005c-2.611.801-14.644 2.454-32.76 3.938-18.096 1.479-42.189 2.765-68.673 2.765v-.498-.499c26.453 0 50.521-1.284 68.592-2.761 17.999-1.466 30.121-3.148 32.525-3.891 6.177-2.528 10.529-8.598 10.529-15.686v-130.124c0-1.548-1.01-2.861-2.375-3.307-.815-.213-6.306-.898-12.598-1.507-6.308-.611-13.505-1.164-17.911-1.164h-199.835c-4.406 0-11.603.552-17.911 1.164-6.259.606-11.725 1.287-12.585 1.504-1.387.46-2.389 1.768-2.388 3.31v130.124c-.001 7.088 4.353 13.157 10.529 15.685 2.405.742 14.528 2.424 32.525 3.891 18.071 1.477 42.14 2.761 68.593 2.761h42.31v.499.498h-42.31z" transform="matrix(.965926 -.258819 .258819 .965926 -35.683683 88.955419)"/><path d="m256.655 229.881c-1.432-.082-2.263-.137-2.569-.2-1.153-.218-2.023-1.231-2.024-2.447v-119.078c0-1.377 1.114-2.491 2.491-2.491h124.811c1.375 0 2.49 1.114 2.49 2.491l.001 119.078c-.002 1.162-.796 2.138-1.874 2.415l-.001-.001.001.001-.001-.001c-.204.053-.381.057-.776.095-.4.031-.952.068-1.643.106-1.38.078-3.312.17-5.651.271-4.679.203-10.989.437-17.78.662-13.578.448-29.062.853-37.215.854-14.552-.001-50.372-1.2-60.26-1.755zm-3.597-121.725.001 119.078c-.002.73.524 1.338 1.229 1.472.103.029 1.032.106 2.423.181 1.405.079 3.345.171 5.674.271 4.662.2 10.892.431 17.589.651 13.393.439 28.652.831 36.943.831 7.997 0 23.127-.392 36.544-.833 13.394-.438 25.178-.934 26.236-1.116l.001.003.014-.005.022-.006c.644-.166 1.125-.752 1.124-1.449v-119.078c-.003-.825-.671-1.494-1.494-1.495h-124.811c-.824.001-1.492.67-1.495 1.495z" transform="matrix(.965926 -.258819 .258819 .965926 -32.849854 87.781493)"/><path d="m262.211 219.32c-.55 0-.998-.446-.998-.995v-102.638c0-.55.446-.996.998-.996h108.615c.55 0 .995.445.995.996v102.638c0 .55-.445.995-.995.995zm0-.995h108.615v-102.638h-108.615z" transform="matrix(.965926 -.258819 .258819 .965926 -32.439143 87.611183)"/><path d="m67.262 66.962c-7.181 0-13.001-5.82-13.001-12.999 0-7.181 5.82-13 13.001-13h23.165c5.87.002 10.83 3.887 12.446 9.23.001.003.003.006.005.01.024.041.063.101.107.148.1.109.138.114.15.112h19.376c.396-.021.357-.14.438-.236l.001.001.013-.054.024-.061c1.536-3.896 5.333-6.649 9.772-6.652 5.799.002 10.499 4.702 10.499 10.501 0 5.797-4.699 10.499-10.499 10.499-4.459-.002-8.269-2.778-9.792-6.702-.026-.038-.072-.092-.125-.142-.118-.106-.215-.156-.333-.156h-19.373c-.083 0-.143.003-.187.008-1.531 5.479-6.558 9.49-12.522 9.493zm-11-12.999c.01 6.075 4.925 10.988 11 10.998h23.165c5.095.002 9.381-3.464 10.631-8.161l.021-.071.028-.067c.077-.181.251-.572.657-.848.402-.272.863-.351 1.372-.351h19.376c1.599.065 2.173 1.301 2.234 1.37l-.876.479.876-.479.034.063.024.063c1.211 3.214 4.316 5.505 7.957 5.503 4.695-.008 8.492-3.805 8.5-8.498-.008-4.695-3.805-8.492-8.5-8.5-3.581-.002-6.646 2.216-7.897 5.352-.049.158-.166.464-.443.801-.343.428-1.037.86-1.908.846h-19.376c-.8-.002-1.36-.448-1.654-.79-.307-.353-.435-.659-.463-.718l-.022-.053-.016-.057c-1.345-4.554-5.56-7.883-10.554-7.881h-23.166c-6.075.01-10.99 4.925-11 10.999z" transform="matrix(.481261 -.128953 .128953 .481261 153.854645 134.183807)"/><path d="m192.999 153.803v-.497-.499h11.739c1.573-.002 2.847-1.275 2.849-2.85-.002-1.572-1.276-2.845-2.849-2.848h-11.739c-1.573.003-2.847 1.276-2.851 2.848.004 1.575 1.278 2.848 2.851 2.85v.499.497c-2.124 0-3.847-1.721-3.847-3.846 0-2.123 1.723-3.845 3.847-3.845h11.739c2.124 0 3.845 1.722 3.845 3.845 0 2.126-1.721 3.846-3.845 3.846z" transform="matrix(.965926 -.258819 .258819 .965926 -32.035603 56.580362)"/><circle cx="138.459" cy="56.266" r="6.549" transform="matrix(.461566 -.123677 .123676 .461565 153.854492 134.183838)"/><path d="m198.674 186.381c0-14.515 11.767-26.281 26.283-26.282 14.514.001 26.281 11.767 26.282 26.282-.001 14.515-11.768 26.282-26.282 26.282-14.516 0-26.283-11.767-26.283-26.282zm8.403-17.879c-4.577 4.578-7.406 10.895-7.406 17.88 0 6.984 2.829 13.303 7.406 17.879 4.578 4.577 10.895 7.406 17.88 7.406 6.983 0 13.302-2.831 17.879-7.406 4.576-4.578 7.406-10.895 7.406-17.879 0-6.985-2.83-13.303-7.406-17.88-4.578-4.577-10.896-7.406-17.879-7.406-6.985-.001-13.302 2.829-17.88 7.406z" transform="matrix(.965926 -.258819 .258819 .965926 -40.573733 64.573778)"/><path d="m216.981 165.435v-3.114h3.924v3.114" transform="matrix(.965926 -.258819 .258819 .965926 -34.954432 62.25059)"/><path d="m204.031 194.367h-3.114v-3.924h3.114" transform="matrix(.965926 -.258819 .258819 .965926 -42.898914 58.960114)"/><path d="m232.963 207.32v3.114h-3.924v-3.114" transform="matrix(.965926 -.258819 .258819 .965926 -46.190171 66.904751)"/><path d="m245.915 178.386h3.114v3.924h-3.114" transform="matrix(.965926 -.258819 .258819 .965926 -38.245077 70.195641)"/><path d="m205.178 176.647-2.203-2.201 1.542-1.542 2.202 2.202" transform="matrix(.965926 -.258819 .258819 .965926 -38.255214 58.973579)"/><path d="m215.223 206.162-2.202 2.202-1.542-1.541 2.202-2.203" transform="matrix(.965926 -.258819 .258819 .965926 -46.174288 62.255331)"/><path d="m244.737 196.115 2.203 2.202-1.542 1.541-2.201-2.201" transform="matrix(.965926 -.258819 .258819 .965926 -42.892165 70.174603)"/><path d="m234.691 166.601 2.202-2.202 1.542 1.541-2.202 2.201" transform="matrix(.965926 -.258819 .258819 .965926 -34.97315 66.892508)"/><path d="m202.848 186.381c.001-12.211 9.899-22.108 22.11-22.11 12.209.002 22.109 9.899 22.109 22.11-.001 12.21-9.9 22.109-22.11 22.11-12.21-.001-22.108-9.899-22.109-22.11zm7.18-14.928c-3.82 3.823-6.183 9.098-6.183 14.929 0 5.832 2.362 11.107 6.183 14.929 3.823 3.821 9.098 6.183 14.93 6.183 5.832 0 11.107-2.362 14.928-6.183 3.822-3.823 6.184-9.097 6.185-14.929-.001-5.831-2.363-11.106-6.185-14.929-3.822-3.821-9.097-6.184-14.928-6.184-5.832-.001-11.107 2.362-14.93 6.184z" transform="matrix(.965926 -.25882 .25882 .965926 -40.573804 64.574272)"/><path d="m208.828 186.38c0-8.909 7.221-16.13 16.13-16.13 8.909 0 16.131 7.221 16.131 16.13 0 8.909-7.222 16.131-16.131 16.131-8.909 0-16.13-7.221-16.13-16.131zm.996 0c.015 8.358 6.775 15.119 15.134 15.134 8.358-.014 15.118-6.776 15.133-15.134-.015-8.357-6.775-15.118-15.133-15.134-8.359.016-15.119 6.777-15.134 15.134z" transform="matrix(.965926 -.25882 .25882 .965926 -40.57366 64.57455)"/><path d="m215.583 186.381c0-5.176 4.197-9.372 9.374-9.372 5.177 0 9.374 4.196 9.374 9.372 0 5.177-4.197 9.372-9.374 9.373-5.177-.001-9.374-4.195-9.374-9.373zm.998 0c.008 4.626 3.751 8.368 8.376 8.377 4.626-.009 8.369-3.751 8.378-8.377-.009-4.626-3.752-8.368-8.378-8.377-4.625.009-8.368 3.751-8.376 8.377z" transform="matrix(.965926 -.258819 .258819 .965926 -40.573853 64.573938)"/><g transform="matrix(.481261 -.128953 .128953 .481261 153.854645 134.183807)"><g><circle cx="91.595" cy="233.963" r="2.833"/><circle cx="101.303" cy="233.963" r="2.833"/><circle cx="111.011" cy="233.963" r="2.833"/><circle cx="120.72" cy="233.963" r="2.833"/><circle cx="130.428" cy="233.963" r="2.833"/></g><g><circle cx="91.595" cy="243.742" r="2.833"/><circle cx="101.303" cy="243.742" r="2.833"/><circle cx="111.011" cy="243.742" r="2.833"/><circle cx="120.72" cy="243.742" r="2.833"/><circle cx="130.428" cy="243.742" r="2.833"/></g><g><circle cx="91.595" cy="253.52" r="2.833"/><circle cx="101.303" cy="253.52" r="2.833"/><circle cx="111.011" cy="253.52" r="2.833"/><circle cx="120.72" cy="253.52" r="2.833"/><circle cx="130.428" cy="253.52" r="2.833"/></g><g><circle cx="91.595" cy="263.297" r="2.833"/><circle cx="101.303" cy="263.297" r="2.833"/><circle cx="111.011" cy="263.297" r="2.833"/><circle cx="120.72" cy="263.297" r="2.833"/><circle cx="130.428" cy="263.297" r="2.833"/></g><g><circle cx="462.262" cy="215.297" r="4.167"/><circle cx="462.262" cy="255.047" r="4.167"/><circle cx="462.262" cy="294.797" r="4.167"/></g><g><circle cx="497.595" cy="211.465" r="4.167"/><circle cx="497.595" cy="251.215" r="4.167"/><circle cx="497.595" cy="290.965" r="4.167"/></g><g><circle cx="532.928" cy="207.797" r="4.167"/><circle cx="532.928" cy="247.547" r="4.167"/><circle cx="532.928" cy="287.297" r="4.167"/></g></g><path d="m389.834 148.547c.001-6.191 5.019-11.21 11.211-11.21 6.191 0 11.209 5.019 11.211 11.21-.002 6.191-5.02 11.211-11.211 11.211-6.192 0-11.21-5.019-11.211-11.211zm.996 0c.012 5.642 4.575 10.204 10.215 10.214 5.641-.01 10.204-4.572 10.212-10.214-.008-5.639-4.571-10.203-10.212-10.214-5.642.011-10.205 4.575-10.215 10.214z" transform="matrix(.965926 -.258819 .258819 .965926 -24.781643 108.859681)"/><path d="m411.359 123.243c.001-6.191 5.02-11.21 11.211-11.21 6.192 0 11.21 5.019 11.211 11.21-.001 6.192-5.019 11.21-11.211 11.211-6.191-.001-11.21-5.018-11.211-11.211zm.997 0c.01 5.642 4.573 10.204 10.214 10.214 5.641-.01 10.203-4.572 10.215-10.214-.011-5.64-4.574-10.203-10.215-10.213-5.641.01-10.204 4.574-10.214 10.213z" transform="matrix(.965926 -.258819 .258819 .965926 -17.499038 113.568482)"/><path d="m408.087 91.286c0-4.232 3.43-7.66 7.661-7.661 4.23.001 7.66 3.429 7.66 7.661 0 4.231-3.43 7.66-7.66 7.661-4.231-.001-7.661-3.43-7.661-7.661zm.997 0c.006 3.679 2.982 6.657 6.664 6.664 3.68-.007 6.657-2.984 6.664-6.664-.007-3.68-2.984-6.657-6.664-6.664-3.682.007-6.658 2.984-6.664 6.664z" transform="matrix(.965926 -.258819 .258819 .965926 -9.460303 110.713832)"/><path d="m410.702 91.287c0-2.787 2.26-5.045 5.046-5.045 2.785 0 5.043 2.258 5.043 5.045 0 2.785-2.258 5.043-5.043 5.043-2.786 0-5.046-2.258-5.046-5.043zm.997 0c.005 2.235 1.813 4.043 4.049 4.048 2.235-.005 4.043-1.813 4.048-4.048-.005-2.237-1.813-4.045-4.048-4.049-2.236.004-4.044 1.812-4.049 4.049z" transform="matrix(.965926 -.258819 .258819 .965926 -9.460338 110.713568)"/></g></svg>