<svg preserveAspectRatio="none" xmlns="http://www.w3.org/2000/svg"><g fill="#1e1e1e"><path d="m553.266 318.245-.975-.169.512-.847c8.942-14.723 18.632-44.721 19.063-63.233.06-2.502.087-4.981.087-7.407.009-15.653-1.187-29.248-2.313-32.957-.667-2.229-1.361-3.813-2.675-4.849-1.31-1.042-3.392-1.658-7.046-1.657h-183.3c-3.655-.001-5.738.615-7.046 1.657-1.314 1.036-2.008 2.62-2.675 4.849-1.126 3.71-2.323 17.307-2.315 32.957 0 2.425.027 4.903.088 7.407.432 18.512 10.122 48.509 19.064 63.233l.512.847-.977.169c-1.55.269-3.789.396-6.366.396-6.451-.007-14.933-.792-19.456-2.457l-.29-.107-.107-.289c-6.724-17.933-18.326-44.706-18.323-82.501 0-7.754.488-15.971 1.604-24.67 6.512-51.146 33.234-76.789 74.294-82.184l.177 1.339c-40.54 5.424-66.566 30.275-73.128 81.017-1.111 8.642-1.594 16.8-1.594 24.498.002 37.318 11.368 63.757 18.127 81.733 4.264 1.487 12.52 2.276 18.696 2.269 2 .001 3.791-.081 5.153-.238-8.938-15.293-18.274-44.477-18.738-63.023-.061-2.517-.088-5.004-.089-7.44.009-15.766 1.155-29.248 2.371-33.345.686-2.279 1.457-4.191 3.13-5.522 1.678-1.324 4.105-1.948 7.888-1.948h183.3c3.783 0 6.21.624 7.886 1.948 1.675 1.331 2.446 3.242 3.131 5.522 1.214 4.096 2.362 17.577 2.37 33.345-.001 2.438-.029 4.925-.089 7.44-.462 18.546-9.799 47.73-18.736 63.023 1.359.157 3.152.239 5.152.238 6.175.007 14.431-.782 18.697-2.269 6.757-17.977 18.123-44.415 18.126-81.733-.001-7.697-.484-15.855-1.592-24.498-6.564-50.742-32.588-75.594-73.13-81.017h.002l.176-1.339c41.059 5.395 67.782 31.038 74.293 82.184 1.116 8.701 1.603 16.916 1.603 24.67.003 37.794-11.598 64.568-18.322 82.501l-.109.29-.289.106c-4.523 1.665-13.005 2.45-19.456 2.459-2.578-.002-4.816-.129-6.366-.398z" transform="matrix(.965926 -.258819 .258819 .965926 -41.641214 128.779421)"/><path d="m395.148 141.265c-3.36-.001-6.086-2.725-6.086-6.086v-2.819c.003-1.804 1.151-3.422 3.124-4.785 1.984-1.372 4.86-2.567 8.633-3.575 7.544-2.01 18.689-3.247 33.325-3.249h19.197c21.965.018 36.024 2.747 41.959 6.824 1.972 1.362 3.12 2.978 3.124 4.785v2.817c-.001 3.363-2.724 6.086-6.087 6.088v-.676-.677c2.615-.004 4.73-2.12 4.734-4.734v-2.818c.004-1.182-.75-2.425-2.543-3.673-1.78-1.237-4.533-2.402-8.212-3.379-7.362-1.965-18.418-3.205-32.975-3.204h-19.198c-21.822-.019-35.827 2.832-41.188 6.583-1.791 1.248-2.545 2.491-2.543 3.673v2.819c.006 2.613 2.12 4.729 4.734 4.733h97.19v.677.676z" transform="matrix(.965926 -.258819 .258819 .965926 -18.787184 119.313008)"/><path d="m480.886 150.623h-66.646c-3.199.002-5.213-.52-6.578-1.162-1.356-.637-2.08-1.398-2.504-1.639-1.262-.765-4.639-3.716-5.565-4.522-.805-.718-1.956-1.333-2.556-2.92l1.269-.474c.415 1.116 1.179 1.515 2.177 2.375.877.773 4.376 3.795 5.371 4.381.7.436 1.218 1.029 2.382 1.574 1.156.542 2.947 1.035 6.003 1.035h66.647c3.057 0 4.848-.493 6.002-1.035 1.168-.545 1.682-1.138 2.385-1.574.993-.585 4.491-3.608 5.368-4.381.999-.86 1.761-1.259 2.179-2.375h.002l1.264.473c-.597 1.588-1.749 2.203-2.553 2.921-.928.804-4.305 3.756-5.564 4.522-.426.241-1.151 1.002-2.505 1.639-1.366.642-3.375 1.163-6.566 1.162-.002 0-.007 0-.012 0z" transform="matrix(.965926 -.258819 .258819 .965926 -22.346937 120.787306)"/><path d="m472.637 159.999h-45.343c-7.7.007-11.817-4.543-16.973-10.665l1.033-.873c5.216 6.166 8.876 10.179 15.94 10.186h45.344c7.065-.007 10.724-4.02 15.938-10.186l.002.001 1.032.872c-5.15 6.118-9.265 10.665-16.954 10.665-.005 0-.012 0-.019 0z" transform="matrix(.965926 -.258819 .258819 .965926 -24.585457 121.714857)"/><path d="m423.624 158.887.947-.965c3.129 3.066 10.028 8.197 22.63 8.204l10.067-.001c12.604-.006 19.502-5.137 22.633-8.203l.948.965c-3.295 3.247-10.598 8.596-23.581 8.59l-10.067.001c-12.982.006-20.284-5.344-23.577-8.591z" transform="matrix(.965926 -.258819 .258819 .965926 -26.700273 122.591317)"/><path d="m357.83 204.678c-3.973-.004-8.657-.927-12.401-3.78-3.75-2.85-6.461-7.662-6.45-15.104 0-2.884.399-6.166 1.288-9.901l1.316.313c-.871 3.651-1.253 6.829-1.253 9.588.012 7.127 2.516 11.419 5.919 14.029 3.408 2.608 7.81 3.505 11.581 3.502h203.438c3.77.003 8.172-.894 11.58-3.502 3.401-2.61 5.905-6.904 5.917-14.029 0-2.759-.382-5.937-1.249-9.588l1.316-.313c.886 3.735 1.285 7.017 1.286 9.901.012 7.442-2.7 12.254-6.45 15.104-3.745 2.853-8.43 3.776-12.401 3.78z" transform="matrix(.965926 -.258819 .258819 .965926 -33.590775 125.423754)"/><path d="m538.479 316.238h-.677v-92.194c-.004-2.615-2.121-4.73-4.734-4.736h-105.721c-2.613.005-4.727 2.121-4.734 4.736v92.195h-.676c-9.26-.001-26.815-.001-26.842-.001v-1.353h26.166v-90.841c0-3.363 2.724-6.087 6.086-6.087h105.721c3.362 0 6.086 2.724 6.087 6.087v90.841h26.13v1.355c0-.002-16.005-.002-26.806-.002zm-143.384 0v.001z" transform="matrix(.965926 -.258819 .258819 .965926 -52.768111 133.383504)"/><path d="m433.796 312.111v-1.351h116.315v1.351z" transform="matrix(.965926 -.258818 .258818 .965926 -63.842422 137.938522)"/><g transform="matrix(.653207 -.175026 .175026 .653207 242.495789 159.755157)"><g><path d="m240.763 200.961v-.999-1.002h19.167c3.083-.004 5.576-2.499 5.583-5.582-.006-3.084-2.5-5.579-5.583-5.583h-19.167c-3.085.004-5.579 2.499-5.584 5.583.006 3.083 2.501 5.578 5.584 5.582v1.002.999c-4.19 0-7.583-3.397-7.585-7.583.002-4.188 3.396-7.583 7.585-7.583h19.167c4.188 0 7.581 3.395 7.583 7.583-.002 4.186-3.395 7.583-7.583 7.583z"/><path d="m288.845 200.961v-.999-1.002l19.167.002c3.083-.006 5.578-2.501 5.582-5.584-.004-3.084-2.499-5.579-5.582-5.583h-19.167c-3.083.004-5.579 2.499-5.583 5.583.004 3.083 2.5 5.578 5.583 5.582v1.002.999c-4.188 0-7.583-3.397-7.583-7.583 0-4.188 3.395-7.583 7.583-7.583h19.167c4.188 0 7.583 3.395 7.583 7.583 0 4.186-3.395 7.583-7.583 7.583z"/><path d="m336.927 200.962v-1.001-1.001l19.168.002c3.083-.006 5.578-2.5 5.584-5.584-.006-3.085-2.499-5.579-5.584-5.584h-19.168c-3.081.005-5.576 2.499-5.582 5.584.006 3.084 2.501 5.578 5.582 5.582v1.001 1.001c-4.188-.002-7.582-3.396-7.582-7.584 0-4.189 3.395-7.583 7.582-7.585l19.168.002c4.189 0 7.583 3.394 7.583 7.583 0 4.188-3.394 7.582-7.583 7.584z"/></g><g><path d="m240.762 232.518v-1.002-.999h19.168c3.083-.005 5.577-2.501 5.582-5.584-.004-3.084-2.499-5.577-5.582-5.583h-19.168c-3.083.006-5.577 2.499-5.583 5.583.006 3.083 2.5 5.579 5.583 5.584v.999 1.002c-4.188-.002-7.583-3.396-7.583-7.585 0-4.188 3.395-7.583 7.583-7.583h19.168c4.188 0 7.582 3.396 7.583 7.583-.002 4.188-3.395 7.583-7.583 7.585z"/><path d="m288.844 232.518v-1.002-.999h19.167c3.083-.005 5.577-2.501 5.582-5.584-.005-3.084-2.499-5.577-5.582-5.583h-19.167c-3.083.006-5.577 2.499-5.583 5.583.006 3.083 2.5 5.579 5.583 5.584v.999 1.002c-4.188-.002-7.581-3.396-7.583-7.585.002-4.188 3.395-7.583 7.583-7.583h19.167c4.188 0 7.584 3.396 7.584 7.583 0 4.188-3.396 7.583-7.584 7.585z"/><path d="m336.927 232.517v-.999-1.001h19.168c3.083-.006 5.578-2.501 5.584-5.584-.006-3.083-2.499-5.577-5.584-5.582h-19.168c-3.081.005-5.576 2.499-5.582 5.582.006 3.083 2.501 5.578 5.582 5.584v1.001.999c-4.188 0-7.582-3.396-7.582-7.584 0-4.188 3.395-7.583 7.582-7.583h19.168c4.189 0 7.583 3.396 7.583 7.583 0 4.188-3.394 7.584-7.583 7.584z"/></g><g><path d="m240.762 264.073v-1.001-1h19.167c3.084-.006 5.578-2.5 5.584-5.584-.006-3.084-2.5-5.577-5.584-5.582h-19.167c-3.084.005-5.578 2.498-5.583 5.582.006 3.084 2.5 5.578 5.583 5.584v1 1.001c-4.189-.002-7.583-3.397-7.583-7.585 0-4.188 3.394-7.583 7.583-7.583h19.167c4.189 0 7.583 3.396 7.583 7.583 0 4.188-3.394 7.583-7.583 7.585z"/><path d="m288.846 264.073v-1.001-1h19.166c3.082-.006 5.578-2.5 5.582-5.584-.004-3.084-2.498-5.577-5.582-5.582h-19.166c-3.084.005-5.578 2.498-5.583 5.582.006 3.084 2.5 5.578 5.583 5.584v1 1.001c-4.189-.002-7.583-3.397-7.585-7.585.002-4.188 3.396-7.583 7.585-7.583h19.166c4.188 0 7.583 3.396 7.583 7.583 0 4.188-3.394 7.583-7.583 7.585z"/><path d="m336.927 264.073v-1.001-1h19.169c3.082-.006 5.577-2.5 5.582-5.584-.005-3.084-2.498-5.577-5.582-5.582h-19.169c-3.082.005-5.577 2.498-5.581 5.582.004 3.084 2.499 5.578 5.581 5.584v1 1.001c-4.188-.002-7.581-3.397-7.583-7.585.002-4.188 3.396-7.583 7.583-7.583h19.169c4.188 0 7.583 3.396 7.583 7.583 0 4.188-3.394 7.583-7.583 7.585z"/></g><g><path d="m240.762 295.628v-1.001-1.001h19.167c3.083-.005 5.578-2.499 5.583-5.582-.004-3.084-2.499-5.578-5.583-5.583h-19.167c-3.083.005-5.578 2.499-5.584 5.583.006 3.083 2.501 5.577 5.584 5.582v1.001 1.001c-4.188-.002-7.583-3.397-7.584-7.584.002-4.189 3.396-7.583 7.584-7.585h19.167c4.189.002 7.583 3.396 7.583 7.585 0 4.187-3.394 7.582-7.583 7.584z"/><path d="m288.846 295.628v-1.001-1.001l19.166.002c3.083-.007 5.578-2.501 5.582-5.584-.004-3.084-2.499-5.578-5.582-5.583h-19.166c-3.083.005-5.578 2.499-5.584 5.583.006 3.083 2.501 5.577 5.584 5.582v1.001 1.001c-4.189-.002-7.583-3.397-7.585-7.584.002-4.189 3.396-7.583 7.585-7.585l19.166.002c4.188 0 7.583 3.394 7.583 7.583 0 4.187-3.395 7.582-7.583 7.584z"/><path d="m336.927 295.628v-1.001-1.001l19.168.002c3.083-.007 5.578-2.501 5.583-5.584-.005-3.084-2.5-5.578-5.583-5.583h-19.168c-3.081.005-5.576 2.499-5.583 5.583.007 3.083 2.502 5.577 5.583 5.582v1.001 1.001c-4.187-.002-7.581-3.397-7.583-7.584.002-4.189 3.396-7.583 7.583-7.585l19.168.002c4.189 0 7.583 3.394 7.585 7.583-.002 4.187-3.396 7.582-7.585 7.584z"/></g></g><path d="m435.843 197.111c-1.057-.944-1.599-2.259-1.597-3.573-.002-1.134.402-2.281 1.217-3.192l8.938-10.001c.944-1.056 2.259-1.598 3.572-1.598 1.134 0 2.279.403 3.191 1.219 1.057.944 1.599 2.26 1.598 3.573 0 1.134-.403 2.277-1.217 3.189l-8.936 10.002-.504-.45.504.451c-.946 1.057-2.261 1.597-3.575 1.597-1.134 0-2.279-.401-3.191-1.217zm9.566-15.863-8.937 10.001c-.587.658-.873 1.472-.873 2.289 0 .947.385 1.883 1.146 2.564.656.586 1.472.873 2.289.874.946-.001 1.884-.386 2.565-1.146l-.001-.001 8.938-10.001c.586-.658.874-1.472.874-2.289-.002-.947-.387-1.883-1.148-2.564-.658-.589-1.472-.873-2.288-.875-.948.002-1.885.387-2.565 1.148z" transform="matrix(.965926 -.258819 .258819 .965926 -33.685046 121.211412)"/><path d="m457.977 193.252c-1.135.002-2.279-.403-3.191-1.217-1.056-.944-1.599-2.26-1.598-3.574-.001-1.133.403-2.278 1.218-3.19l8.937-10c.944-1.057 2.26-1.6 3.573-1.6 1.133 0 2.275.403 3.189 1.219 1.059.945 1.601 2.259 1.598 3.573 0 1.135-.402 2.277-1.217 3.19l-8.936 10.002c-.945 1.057-2.256 1.596-3.57 1.596 0 .001-.001.001-.003.001zm6.375-17.08-8.936 10.001c-.588.659-.873 1.472-.876 2.288.003.947.388 1.884 1.149 2.565.657.588 1.47.874 2.288.874.947-.001 1.885-.386 2.567-1.147l8.935-10c.586-.659.874-1.473.875-2.29-.001-.947-.385-1.884-1.147-2.564-.66-.589-1.474-.874-2.29-.875-.948.002-1.884.387-2.565 1.148z" transform="matrix(.965926 -.258819 .258819 .965926 -31.725867 125.940871)"/><path d="m356.923 188.084c.002-16.527 13.4-29.924 29.926-29.924 16.526 0 29.924 13.397 29.924 29.924 0 16.526-13.398 29.924-29.924 29.925-16.526-.001-29.923-13.399-29.926-29.925zm9.723-20.203c-5.172 5.172-8.368 12.311-8.368 20.203 0 7.891 3.196 15.029 8.368 20.203 5.172 5.17 12.311 8.367 20.203 8.367 7.891 0 15.03-3.197 20.203-8.367 5.171-5.174 8.368-12.312 8.368-20.203 0-7.893-3.197-15.031-8.368-20.203-5.173-5.172-12.312-8.369-20.203-8.369-7.892 0-15.03 3.197-20.203 8.369z" transform="matrix(.965926 -.258819 .258819 .965926 -35.49833 106.532481)"/><path d="m365.152 188.083c0-11.982 9.715-21.695 21.697-21.695 11.982 0 21.696 9.714 21.696 21.695 0 11.984-9.714 21.696-21.696 21.696-11.982 0-21.697-9.712-21.697-21.696zm1.353 0c.019 11.236 9.108 20.325 20.344 20.345 11.235-.021 20.324-9.109 20.343-20.345-.019-11.236-9.107-20.324-20.343-20.343-11.236.019-20.323 9.107-20.344 20.343z" transform="matrix(.965926 -.258819 .258819 .965926 -35.498024 106.532438)"/><path d="m488.44 189.644v-.001-.675-.677h19.667c1.272 0 2.392-.625 3.073-1.58l5.688-8.184c.48-.621.763-1.394.763-2.239 0-1.438-.827-2.682-2.051-3.292l-12.829-6.814c-.77-.421-1.649-.659-2.589-.659-1.837 0-3.455.913-4.446 2.326l-10.304 13.97c-.574.686-.916 1.564-.916 2.527.003 2.178 1.765 3.942 3.944 3.944v.677.676c-2.925 0-5.297-2.372-5.297-5.297 0-1.29.464-2.479 1.206-3.364l10.269-13.923c1.222-1.745 3.25-2.889 5.544-2.889 1.169 0 2.276.298 3.23.82l12.806 6.803c1.65.82 2.786 2.526 2.787 4.495 0 1.153-.392 2.22-1.028 3.039l-5.671 8.163c-.928 1.301-2.457 2.153-4.179 2.153h-19.667z" transform="matrix(.965926 -.258819 .258819 .965926 -28.713561 135.71289)"/><path d="m492.509 177.386c0-5.183 4.201-9.383 9.383-9.383 5.181 0 9.382 4.2 9.383 9.383-.001 5.181-4.202 9.383-9.383 9.384-5.182-.001-9.383-4.203-9.383-9.384zm1.352 0c.009 4.435 3.596 8.023 8.031 8.03 4.434-.009 8.023-3.596 8.03-8.03-.007-4.436-3.596-8.022-8.03-8.031-4.435.009-8.023 3.595-8.031 8.031z" transform="matrix(.965926 -.258819 .258819 .965926 -28.809453 135.943526)"/><path d="m503.843 153.987c.001-5.183 4.202-9.382 9.384-9.383 5.181.002 9.382 4.201 9.383 9.383-.001 5.182-4.202 9.383-9.383 9.383-5.182 0-9.383-4.2-9.384-9.383zm1.353 0c.008 4.436 3.594 8.023 8.031 8.03 4.434-.007 8.021-3.594 8.03-8.03-.009-4.434-3.596-8.022-8.03-8.031-4.435.009-8.023 3.597-8.031 8.031z" transform="matrix(.965926 -.258819 .258819 .965926 -22.367 138.079801)"/><path d="m516.896 132.465c0-5.182 4.201-9.383 9.383-9.383 5.182 0 9.383 4.2 9.383 9.383 0 5.182-4.201 9.383-9.383 9.383-5.182-.001-9.383-4.201-9.383-9.383zm1.353 0c.007 4.435 3.595 8.022 8.03 8.03 4.435-.008 8.021-3.595 8.03-8.03-.009-4.435-3.595-8.023-8.03-8.031-4.435.008-8.023 3.596-8.03 8.031z" transform="matrix(.965926 -.258819 .258819 .965926 -16.351947 140.724509)"/><path d="m512.776 165.704-13.254-7.202c-1.335-.794-2.229-2.254-2.229-3.922 0-1.259.511-2.404 1.321-3.212l7.296-7.794c1.202-1.289 2.921-2.096 4.823-2.096 1.343 0 2.6.403 3.643 1.096l12.384 6.362-.31.602.31-.602.031.017.025.017c1.411.907 2.346 2.496 2.346 4.299 0 1.606-.744 3.043-1.903 3.979l-6.744 7.066c-1.129 1.336-2.823 2.185-4.709 2.185-1.103-.001-2.144-.292-3.03-.795zm-5.878-21.206-7.312 7.81c-.581.583-.94 1.382-.94 2.272-.002 1.173.628 2.198 1.546 2.747l13.24 7.196c.701.397 1.507.622 2.374.624 1.476-.002 2.79-.662 3.705-1.737l6.837-7.165.035-.028c.87-.69 1.426-1.752 1.426-2.948 0-1.315-.674-2.469-1.696-3.144l-12.424-6.384-.032-.021c-.836-.563-1.838-.889-2.923-.889-1.516 0-2.874.639-3.836 1.667z" transform="matrix(.965926 -.258819 .258819 .965926 -22.367355 138.0801)"/><path d="m528.143 145.1c-1.101-.063-2.123-.411-2.979-.963l-12.826-7.94c-1.221-.823-2.015-2.22-2.015-3.781 0-.083.002-.175.01-.26.07-1.257.647-2.372 1.501-3.133l7.722-7.37c1.189-1.137 2.802-1.832 4.556-1.832.124 0 .252.002.379.011 1.338.075 2.566.547 3.567 1.295l12.013 7.056-.343.583.343-.583.032.018.024.017c1.282.935 2.103 2.45 2.103 4.136 0 .097 0 .19-.005.291-.092 1.604-.915 2.998-2.126 3.866l-7.131 6.672c-1.127 1.189-2.724 1.925-4.471 1.925-.117.001-.235-.003-.354-.008zm-7.652-22.47-7.741 7.386c-.615.55-1.016 1.329-1.069 2.232-.002.044-.005.101-.005.168 0 1.095.558 2.079 1.394 2.646l12.815 7.931c.679.435 1.471.706 2.33.755.094.006.187.008.281.008 1.364 0 2.608-.572 3.52-1.531l7.227-6.766.04-.027c.908-.641 1.524-1.668 1.589-2.853.006-.082.006-.156.006-.225 0-1.234-.597-2.341-1.535-3.029l-12.025-7.064-.034-.025c-.804-.609-1.785-.993-2.876-1.055-.096-.005-.194-.009-.296-.009-1.394 0-2.672.552-3.621 1.458z" transform="matrix(.965926 -.258819 .258819 .965926 -16.351916 140.724029)"/><path d="m380.342 206.768-.036-.012-.032-.014c-.653-.248-1.208-1.067-1.146-2.204v-8.333c-.037-.253-.074-.387-.394-.402h-8.341c-.609-.006-1.042-.028-1.473-.256-.442-.241-.644-.66-.778-1.024-.697-2.02-1.075-4.188-1.072-6.44-.001-2.263.379-4.441 1.089-6.49.082-.218.239-.622.651-.887.407-.257.891-.341 1.583-.343h8.32c.198.001.331-.014.405-.027.006-.057.01-.145.01-.255v-8.454c-.023-1.67 1.374-2.285 1.586-2.352l.03-.012.032-.011c1.913-.616 3.956-.949 6.072-.949 2.345 0 4.596.408 6.683 1.158l.04.015.037.019c.299.137.678.407.826.833.139.402.13.754.135 1.299v8.475c-.001.11.008.188.016.236.005.001.012.001.018.004.077.013.217.021.403.021h8.298c.572.005.941.015 1.307.129.377.097.711.471.812.774.78 2.126 1.206 4.423 1.206 6.818 0 2.305-.395 4.521-1.134 6.611-.115.304-.336.722-.781.92-.423.182-.813.182-1.41.188h-8.319c-.139-.003-.297.04-.347.075-.041.047-.053-.002-.069.2v8.46c-.004.436-.004.817-.172 1.229-.169.417-.52.73-.925.948l-.051.03-.057.02c-2.042.712-4.235 1.098-6.517 1.098-2.277 0-4.468-.384-6.505-1.095zm6.507-.257c2.105 0 4.125-.352 6.007-1.002.238-.143.264-.2.294-.266.038-.074.071-.294.066-.705v-8.46c-.015-.579.298-1.104.691-1.337.387-.244.773-.287 1.079-.289l8.319-.002c.312.002.537-.008.675-.027.108-.014.15-.028.164-.034.012-.013.051-.081.088-.175.676-1.918 1.045-3.98 1.045-6.13 0-2.23-.397-4.366-1.11-6.314-.095-.027-.384-.058-.862-.055h-8.299c-.423-.011-.821.007-1.259-.291-.444-.336-.534-.855-.53-1.322v-8.475c.01-.533-.028-.778-.046-.825-.006-.007-.048-.038-.135-.084-1.934-.689-4.015-1.062-6.186-1.062-1.958 0-3.84.304-5.609.869-.252.134-.737.254-.76 1.102v8.454c-.009.356.017.79-.365 1.213-.408.387-.866.412-1.402.421h-8.319c-.576-.003-.808.093-.844.123-.031.024-.042.02-.121.221-.653 1.886-1.008 3.913-1.008 6.025 0 2.102.353 4.119.991 5.978.121.299.148.294.161.301.025.026.273.095.821.088l8.34.002c.533-.008 1.018.224 1.314.571.3.347.432.77.432 1.182v8.333c.063.932.116.804.357.97 1.885.65 3.904 1.002 6.011 1.002z" transform="matrix(.965926 -.258819 .258819 .965926 -35.497867 106.532678)"/><g transform="matrix(.653207 -.175026 .175026 .653207 242.495789 159.755157)"><path d="m204.761 118.598c.002-7.433 6.027-13.458 13.46-13.458v1.999c-6.329.012-11.447 5.131-11.46 11.459z"/><path d="m183.969 118.598c-.01-6.329-5.128-11.447-11.458-11.458v-2.002c7.434.002 13.458 6.027 13.458 13.46z"/></g><g transform="matrix(.653207 -.175026 .175026 .653207 242.495789 159.755157)"><path d="m204.761 72.826h.002 1.999c.012 6.329 5.13 11.446 11.46 11.458v2.001c-7.434-.002-13.459-6.025-13.461-13.459z"/><path d="m172.511 84.285c6.329-.012 11.447-5.13 11.459-11.458h1.999c0 7.433-6.025 13.458-13.458 13.459z"/></g><circle cx="195.346" cy="58.628" r="2.917" transform="matrix(.653204 -.175025 .175027 .653209 242.496414 159.754868)"/><circle cx="169.124" cy="69.489" r="1.792" transform="matrix(.653202 -.175025 .175026 .653205 242.49678 159.755096)"/><circle cx="158.262" cy="95.711" r="2.917" transform="matrix(.653204 -.175025 .175026 .653206 242.496384 159.755157)"/><circle cx="195.345" cy="132.795" r="2.917" transform="matrix(.653204 -.175025 .175027 .653211 242.496323 159.754532)"/><circle cx="232.429" cy="95.712" r="2.917" transform="matrix(.653204 -.175025 .175026 .653206 242.496613 159.755112)"/><circle cx="169.124" cy="121.933" r="1.792" transform="matrix(.653202 -.175025 .175026 .653205 242.496826 159.755249)"/><circle cx="221.567" cy="121.934" r="1.792" transform="matrix(.653225 -.175031 .175026 .653205 242.492172 159.7565)"/><circle cx="221.568" cy="69.49" r="1.792" transform="matrix(.653202 -.175025 .175029 .653216 242.496887 159.754242)"/><path d="m378.949 217.306v-.677-.675h173.797c1.354-.003 2.448-1.098 2.451-2.451-.003-1.356-1.097-2.451-2.451-2.453h-173.797c-1.353.002-2.45 1.097-2.451 2.453.001 1.353 1.098 2.448 2.451 2.451v.675.677c-2.1-.001-3.802-1.703-3.802-3.803 0-2.101 1.702-3.804 3.802-3.806h173.797c2.101.002 3.803 1.705 3.803 3.806 0 2.099-1.702 3.802-3.803 3.803z" transform="matrix(.965926 -.258819 .258819 .965926 -39.384832 127.845017)"/></g></svg>