<svg xmlns="http://www.w3.org/2000/svg"><g fill="#fff"><path d="m93.88 94.647c2.865-8.548 5.427-17.198 8.101-25.812.66-2.124 1.278-4.259 1.916-6.391.081-.461 2.433-8.686 3.328-12.385 1.073-4.425 2.225-8.867 2.761-13.371.331-2.791 1.559-4.232 3.969-4.974 1.406-.433 2.182-1.151 3.639-1.257 1.196-.088 2.028-.388 2.58-1.487.468-.931 1.676-1.508 2.301-2.336.464-.615 1.052-1.345 1.727-1.55 1.931-.583 3.991-.769 5.901-1.401 2.409-.798 5.195-1.373 6.947-2.988 1.794-1.654 3.46-2.553 5.774-2.729 2.144-.165 4.008-.994 4.7-3.239.429-1.392 1.493-2.018 2.569-2.71.985-.2 1.531-.594 1.652-1.775.12-1.181-4.315-.522-4.607-.818-1.364-1.387-1.233-1.662.563-2.341 1.171-.441 2.454-.581 3.686-.856.748-.179 1.497-.358 2.242-.536 1.772-.231 3.54-.481 5.314-.688 3.073-.364 6.153-.675 9.219-1.071.718-.093 1.488-.313 2.078-.708.544-.364 1.289-1.641 1.308-2.266.019-.623-1.212-.976-1.802-.957-2.452.082-4.914.253-7.343.597-3.779.538-7.544 1.197-11.299 1.889-3.132.578-6.242 1.276-9.361 1.919-.438.052-6.065 1.363-6.467 1.478-1.207.288-2.412.574-3.619.859l-.267.038c-1.18.21-2.36.419-3.54.627-3.66.76-7.315 1.554-10.984 2.266-1.989.385-4.025.88-6.004 1.303-2.822.603-5.591 1.131-8.421 1.685-6.264 1.227-12.549 2.329-18.826 3.482-.603.022-22.289 3.872-33.826 4.211-2.675.079-5.36.032-8.043.01-.927-.007-1.669.148-1.965 1.214-.38 1.366-.068 1.812 1.519 2.442.713.284 1.302.885 1.947 1.343-.743.499-1.436 1.116-2.246 1.452-.554.232-1.278.02-1.91.111-.507.072-1.078.19-1.468.487-1.698 1.292-1.178 2.818 1.306 3.951 3.298 1.506 3.493 2.211 1.437 5.19-.396.272-1.191.526-1.19.816.001.288.71.678 1.128.797.355.101.802-.119 1.208-.199.541.598 1.269 1.115 1.582 1.815.665 1.485 1.631 2.075 3.267 1.947 4.57-.356 9.188-.322 13.71-.977 4.727-.685 9.315-2.184 14.126-2.609 3.926-.347 7.816-1.112 11.725-1.689 1.054-.155 1.663.248 1.626 1.373-.049 1.497.087 3.089-.181 4.486-.267 1.395-1.087 6.035-1.83 9.306-.984 4.334-2.414 9.218-2.442 9.473-.434 1.495-.865 2.987-1.298 4.482-1.459 4.56-4.895 15.958-5.173 17.091-1.28 5.207-6.828 18.567-7.631 20.296-1.845 3.976-3.701 7.974-5.934 11.737-2.202 3.71-4.871 7.144-7.345 10.692-1.902 2.729-6.739 7.503-6.802 7.574-7.213 8.228-15.4 9.98-15.588 10.044-5.365 1.857-10.486 1.814-15.745-.847-2.369-1.199-4.889-2.255-6.946-3.875-2.201-1.732-4.587-3.964-6.608-5.768-.606-.54-1.036-1.316-1.869-1.753-1.232-.643-2.088-.087-2.15 1.336-.026.619.02 1.349.324 1.859 2.314 3.887 4.89 7.626 8.78 10.08 3.777 2.382 9.477 5.101 13.267 6.624 3.789 1.522 6.813 2.548 9.74 3.145 2.926.596 7.873 1.432 12.005.206 4.133-1.221 8.713-3.109 15.097-8.317 6.384-5.211 19.194-19.835 24.129-28.922 2.123-3.907 4.037-7.929 5.96-11.94 1.599-3.347 3.383-6.668 4.562-10.181z"/><path d="m284.249 104.898v.009l-.01.01z"/><path d="m173.981 28.063-1.949-.492-.074-.02c-.13-1.795-.207-3.597-.412-5.384-.111-.969.248-2.289-1.34-2.511l-.014.018c-1.01-.839-3.196-.165-3.196-.165s-2.197.408-2.643 1.561c-1.365.177-2.728.488-4.094.503-4.625.053-4.611.018-6.306 4.294-.216.545-.664.996-1.004 1.492-.386-.444-1.015-.843-1.112-1.344-.323-1.671-1.398-1.996-2.825-1.875-1.408.121-1.425 1.158-1.72 2.258-.712 2.659-1.415 5.45-3.768 7.216-2.839 2.133-3.972 5.166-4.904 8.369-.704 2.423-.961 5.061-3.31 6.709-.33.232-.642 1.813-.538 2.02-2.001 2.673-8.144 11.752-9.041 13.551-.983 1.97-2.163 3.938-2.619 6.044-.375 1.736-.865 3.207-2.09 4.447-2.381 1.303-1.809 3.635-1.984 5.705-.401.642-.802 1.29-1.202 1.934-.299.426-.597.855-.897 1.283-.15.161-.3.326-.452.486-.404.47-.462 1.061-1.215 1.412-.752.35-3.392 1.303-5.135 1.797-2.646.746-3.216 1.108-3.131 2.533.117 1.944 1.57 2.007 3.011 2.097 1.205.075 1.456.816 1.007 1.781-1.397 2.993-2.77 6.006-4.3 8.931-3.607 6.899-11.15 21.217-11.245 21.513-.689 1.741-1.378 3.484-2.066 5.227l-.016.67c-.274.377-.55.756-.825 1.133-.154.251-.309.504-.464.755-.045.214-.091.426-.136.639-.761 1.397-1.889 2.72-2.187 4.211-.331 1.655-.937 3.076-1.993 4.244-2.233 2.474-1.421 5.169-.803 7.869.2.873.964.966 1.435.401.804-.959 1.491-2.049 2.056-3.169.614-1.22.968-2.573 1.581-3.795.179-.358.893-.683 1.292-.617.285.05.723.857.626 1.194-.342 1.201-.921 2.333-1.32 3.521-.102.301-.057.992.209 1.081.267.087.897-.198 1.021-.452.787-1.629 1.451-3.315 2.212-4.957 1.338-2.881 2.7-5.752 4.103-8.603.146-.296.707-.658.938-.581.296.099.516.593.653.956.106.282.086.639.035.948-.55 3.32-1.122 6.633-1.67 9.949-.03.179.091.543.152.546.284.011.73.018.827-.148.304-.517.489-1.109.701-1.68.951-2.56 1.15-5.492 3.774-7.215.469-.308.906-1.069.903-1.616-.011-2.387 5.55-14.284 6.212-15.556l.014-.015c.523-1.314 6.786-14.184 8.016-17.483.152-.408 2.148-4.782 2.285-4.96.881-1.927 1.763-3.856 2.644-5.782 1.332-.654 2.622-1.41 3.999-1.946 7.023-2.727 23.509-9.497 24.33-9.299.009.208.016 1.791.024 2.001.015.432.031.863.047 1.296-.012 2.975-.079 5.95-.018 8.924.049 2.347.645 9.991.468 11.435-.278 2.268-.369 4.389.654 6.579.951 2.033 1.355 4.288.718 6.574l-.045.067c-.012.867-.026 1.74-.039 2.611v.005c.156 1.58.144 3.153 1.428 4.441.88.885 1.553 1.168 2.289.065.53-.792.844-.67 1.409-.041 1.433 1.603 2.23 3.325 1.821 5.565-.133.73.199 1.623.541 2.335.19.394.51 1.121 1.28.844.77-.278.697-1.014.76-1.553.123-1.056-.038-2.144.067-3.202.093-.93.283-1.882.641-2.737.208-.498.782-.953 1.297-1.15.185-.07.751.619 1.019 1.039.335.535.44 1.232.824 1.715.922 1.164 2.2.951 2.623-.459.272-.904.391-1.893.366-2.838-.107-3.956-.453-7.914-.413-11.867.08-7.925.364-15.851.549-23.775.181-7.82.309-15.64.529-23.459.066-2.342.505-4.677.526-7.017.07-7.617.754-15.17 1.96-22.688.36-2.235-.029-4.357-1.232-6.302l-.117-.015zm-23.145 41.988c-1.286.525-2.657.844-3.945 1.367-.541.219-1.764 1.083-1.764 1.083s-.513.608-.662.807c-.926.444-1.855 1.259-2.779 1.257-2.316-.009-3.886.979-5.066 2.828-.288.452-.495.988-.874 1.342-.266.249-.806.423-1.136.33-.296-.086-.69-.606-.662-.899.088-.938.189-1.929.573-2.77 1.557-3.395 3.129-6.789 4.866-10.093 2.736-5.205 5.609-10.338 8.424-15.501.464-.85.806-1.754 2.159-1.387.458.124 1.12-.311 1.621-.605.482-.285.873-.718 1.304-1.084.108.622.306 1.244.309 1.868.021 5.906-.056 11.814.042 17.718.042 1.917-.762 3.07-2.402 3.739z"/><path d="m296.219 22.969c-.644-.243-1.289-.49-1.931-.734-.002-.158-.053-.296-.152-.409-.029-.031 1.928-2.399.816-3.55-.3-.234-1.97-.811-2.27-1.044-.151-.936-.326-1.868-.447-2.807-.2-1.513-1.123-1.888-2.474-1.636-.437.31-.873.619-1.311.929l-.192-.003-2.041-.161c-1.469.437-.882 1.217-2.349 1.654-.335.245-.668.489-1.003.733-1.004.852-1.71 1.337-2.939 3.04s-2.642 4.481-3.499 6.026c-.856 1.542-4.374 10.705-4.432 10.819-.282.258-6.162 13.266-8.103 17.625-1.511 3.392-3.498 7.46-4.975 11.547-1.476 4.088-2.895 10.322-3.228 10.707-.111.283-.222.566-.333.849l-.438 1.301c-.059.426-.115.854-.173 1.281-.418 2.344-1.048 5.548-1.496 6.978-.449 1.43-1.413 3.043-1.958 4.632-.446 3.032-.964 6.056-1.311 9.1-.266 2.332-.314 4.688-.459 7.034.092.849.184 1.696.277 2.549.429 1.516.527 2.236 1.285 4.55.759 2.312 3.955 4.481 3.955 4.481 3.775 2.119 10.136 2.113 13.001.149 2.866-1.964 4.834-3.278 6.069-4.362 1.235-1.082 7.478-6.039 10.434-9.335 2.954-3.297 4.066-4.88 4.94-5.753.441 1.522.012 2.844-.934 4.048-.201.578-.404 1.156-.607 1.734-.158 2.63-.44 5.258-.448 7.887-.013 3.537 1.401 10.953 5.09 11.596 3.689.641 4.296.664 6.472-.442 1.692-.86 3.626-1.303 5.497-1.73 1.352-.307 1.811.341 1.218 1.63-.672 1.456-1.449 2.87-2.262 4.256-3.241 5.539-6.459 11.09-9.767 16.593-1.317 2.189-.568 2.489 1.214 2.514.319.006-.321 1.787-.269 2.379.17 1.887 1.091 2.454 2.656 1.362.916-.641 1.612-1.659 2.26-2.608.655-.961 1.072-2.085 1.725-3.049.121-.182 1.107-.109 1.273.136.412.595-.222 2.031 1.156 1.779.652-.117 1.173-1.061 1.713-1.662.356-.4.614-.881.957-1.293.574-.696 1.118-.954 1.711.052.605 1.033 1.495.806 2.123.1.993-1.116 1.996-2.274 2.703-3.574 1.878-3.474 3.645-7.012 5.369-10.567.625-1.288 1.301-2.249 2.9-1.831 1.342.352 1.92-.271 2.348-1.477.606-1.715 1.274-3.429 2.143-5.019 2.868-5.242 5.843-10.424 8.766-15.634 2.349-4.189 4.68-8.392 7.014-12.588 1.257-2.261 2.239-4.707 3.757-6.815 1.993-2.766 5.839-3.344 7.034-3.218 1.195.124 2.472-.597 3.021-1.154.55-.555.682-.482 1.461-.985.78-.503 1.281-.919 1.655-1.191.371-.271 6.095-2.533 7.3-3.71 2.321-2.27 5.91-3.59 9.114-3.844.303 1.475.382 3.074.397 4.578.03 3.376-.04 6.756-.066 10.132-.022.443-.046.887-.069 1.33-.874 2.169.058 4.13.627 6.165.271.963.55 2.186.193 3.018-1.182 2.727-.624 5.499-.566 8.253.022 1.091.448 2.203 1.918 2.055 1.213-.121 1.399.518 1.48 1.522.158 1.918.45 3.825.69 5.735.226 1.8.408 3.609.709 5.397.16.948.551 1.694 1.664 2.121 1.808.694 1.863.989.97 2.803-.503 1.027-1.026 1.93.01 2.88 1.718 1.571 1.79 3.273.498 5.144-.775 1.125-.639 2.051.835 2.38 1.247.281 1.327 1.302 1.458 2.22.108.728-.036 1.489-.091 2.235-.068 1.007.262 1.701 1.382 1.723.979.023 1.236-.606 1.279-1.469.235-4.698.425-9.395.771-14.081.145-2.001.993-6.736 1.021-7.121.199-1.96.79-6.786.891-7.239.197-5.147.663-18.312.953-23.154.293-4.841 1.824-27.548 1.926-30.963-.115-.221 2.835-21.577 3.828-26.422.994-4.846.933-9.209.812-9.709-.119-.498-2.235-1.079-3.412-1.273-2.365-.387-4.768-.53-7.157-.773-1.556-.193-1.238-2.098-1.368-2.434-.128-.336-5.19-1.785-6.204-1.256-1.012.528-1.255 5.414-1.5 7.672-.631 1.081-1.257 2.163-1.886 3.243-.464.421-.927.846-1.392 1.268-.183.19-.373.378-.556.567-1.248.782-2.492 1.564-3.739 2.345-1.778 1.899-3.556 3.796-5.339 5.695-.117.128-1.028 1.271-1.288 1.616-.967 1.334-3.241 4.228-3.262 4.457-.356.49-.715.979-1.073 1.466 0 0-.802.31-.924.531-1.525 2.778-3.014 5.579-4.51 8.375 0 0-1.078.521-1.652.8-.496.385-.993.769-1.488 1.153-.199.066-3.278 4.093-4.921 5.813-.337.355-.949 1.616-.942 1.818-2.205.915-1.928 4.385-2.251 4.796-.324.412-1.813 1.104-2.199 1.826-1.12 2.096-2.469 5.81-2.984 6.486-.511.678-1.29 1.355-1.782 1.814-.328.131-.651.261-.98.392-1.412.147-2.066 1.96-2.25 2.341-.185.382-.674.454-1.01.68-.242.166-.486.332-.73.501l.039-.039c-.493.215-.986.431-1.477.645-3.097 1.875-6.196 3.732-9.268 5.651-.262.164-.508.837-.379 1.077 1.081 2.075.408 3.714-1.124 5.202-.131.125-.226.521-.181.552.247.163.596.409.817.336 1.321-.435 2.598-.997 3.923-1.415.463-.143 1.345-.164 1.465.064.251.468.27 1.184.111 1.721-.167.586-.637 1.089-.987 1.622-1.225 1.872-4.402 6.074-4.64 6.399-1.753 2.408-3.453 4.86-5.217 7.262-1.036 1.411-2.176 2.157-3.794.921-1.169-.895-2.282-1.867-3.421-2.8-.078-.654-.158-1.306-.24-1.962.458-2.493.588-4.979 1.768-7.405 1.659-3.406 2.669-7.13 3.923-10.73 1.369-3.926 2.704-7.864 4.045-11.798.685-2.008 1.356-4.028 2.007-6.05 2.263-4.512 4.556-9.008 6.768-13.541 1.166-2.382 2.188-4.832 3.277-7.254.184-.053.257-.172.227-.359 1.996-3.861 4.156-7.651 5.9-11.621.64-1.459.554-3.391.295-5.027-.122-.775-1.398-1.405-2.209-2.029-.861-.665-.85-1.254-.266-2.164 1.187-1.859 1.012-3.005-.264-4.538-1.015-1.221-2.35-1.407-3.773-1.349-1.795.069-3.501.047-5.32-.47-1.496-.425-3.619-1.108-4.959.859l-.128.129c-.508.907-8.481 14.752-8.92 15.465l-2.256 3.46c-.577.867.75 2.253.463 2.945-.287.693-.986-.337-2.082.76-.071.022-.967 3.194-1.707 6.104-.062.246.902.502.836.76-.055.209-1.136 1.108-1.191 1.325-.551 2.163-1.167 3.913-1.752 6.166-.107.413.13.476.024.874-.103.391-.547.087-.645.458-.559 2.1-1.05 4.867-1.365 5.76-.09.258.166.513.076.771-.126.356-.594.713-.716 1.071-1.486 4.284-2.894 8.585-4.19 12.93-.116.291-.233.586-.352.876-1.049 1.408-2.098 2.814-3.147 4.22-.604.536-1.208 1.07-1.81 1.602.002.119 0 .235-.01.343.01-.11.012-.224.01-.343-.466.534-.93 1.066-1.383 1.601-.306.247-.614.498-.922.746-.209.052-.337.184-.379.398-.243.251-.485.502-.728.755-.002-.027.002-.048-.002-.074-.719.72-1.436 1.439-2.156 2.159.173-.007.335-.021.493-.042-.157.022-.32.035-.493.042-.294.261-.589.521-.884.781-.36.377-.72.753-1.079 1.128-.192.071-1.136.967-1.548 1.244-.189.096-.398.166-.563.29-4.759 3.593-9.515 7.188-14.269 10.786-.379.125-.371.154-1.132.379-.762.224-2.942-.09-3.011-1.017-.071-.928.714-6.258 1.546-9.384 1.68-6.297 3.896-12.325 6.866-18.104 1.15-2.241 2.278-5.314 3.273-6.814.993-1.501 2.992-4.172 3.704-5.602.712-1.432 1.095-4.139 2.05-5.997 1.749-3.401 3.735-6.689 5.783-9.924 1.329-2.101 2.448-4.156 2.703-6.733.168-1.733.886-3.471 1.287-4.062.4-.591 1.407-1.455 1.604-1.839 1.3-2.547 2.507-5.143 3.744-7.722 0 0 2.572-4.125 3.564-6.317 1.006-2.255.901-2.303-1.607-3.46m-6.51 67.328c-.005.022-.006.049-.01.07.01-.021.01-.047.01-.07zm19.876-50.662.109.145-.105-.127v-.018zm64.327 10.758c-.61 1.647-1.17 3.146-1.022 4.921.067.815-.206 1.676-.424 2.488-.283 1.061-.965 1.594-2.138 1.487-3.089-.281-5.226 1.401-7.16 3.518-.422.463-.916.965-1.48 1.177-1.177.438-2.425.695-3.64 1.026.26-1.092.395-2.235.814-3.265.596-1.466 1.221-2.976 2.143-4.242 3.451-4.739 7.028-9.385 10.584-14.042 1.571-2.056 1.301-.031 2.045.147.207.05.781-.981.985-.916.262.085.344.347.462.568.111.205.198.421.263.645.154.527.197 1.089.169 1.637-.057 1.116-.484 2.143-.904 3.164-.244.562-.498 1.119-.709 1.687z"/><path d="m452.05 84.243c.976.321 3.21.905 4.83 1.31 2.008.505 3.773 1.345 5.198 2.945 1.834 2.063 3.821 3.992 5.727 5.995.43.45.918.911 1.164 1.465 1.625 3.677 3.678 6.887 7.783 8.261.863.286 1.567 1.068 2.317 1.654.562.444 1.035 1.018 1.638 1.405 2.506 1.622 5.092 3.124 7.554 4.813 1.747 1.197 3.338 2.623 4.999 3.945.229.176.454.348.682.522 1.492 1.319 2.989 2.637 4.485 3.957 8.86 8.843 17.395 18.072 28.399 24.428.858.527 1.719 1.056 2.577 1.585.596.356 1.185.71 1.777 1.066.503.375.996.75 1.494 1.125 2.561 1.922 5.181 3.774 7.669 5.785 4.157 3.364 8.215 6.846 12.344 10.238 1.238 1.017 13.056 8.984 14.373 9.899.126.089 3.632 1.042.868-1.3-1.781-1.51-10.228-6.657-10.309-6.728-2.416-2.092-5.528-3.791-7.916-5.914-3.192-2.835-6.331-5.722-9.488-8.597-3.771-3.438-6.962-7.557-11.714-9.836-.551-.263-1.093-.759-1.39-1.288-2.244-4.022-5.863-6.778-9.168-9.766-2.27-2.055-5.137-3.44-7.599-5.309-3.144-2.386-6.149-4.956-9.214-7.443-.278-.289-.554-.58-.833-.87-1.366-1.244-2.728-2.488-4.092-3.729-2.394-1.767-4.765-3.565-7.192-5.285-1.035-.733-2.209-1.277-3.285-1.963-.359-.23-1.178-.622-.21-1.073 1.552-.728.606-1.148-.108-1.693-4.327-3.307-8.55-6.701-12.162-10.844-1.35-1.547-3.421-2.462-5.151-3.681-.599-.423-1.251-.822-1.729-1.361-2.395-2.7-3.754-6.241-6.857-8.373-.313-.216-.486-.712-.6-1.114-.103-.359-.028-.764-.034-1.149.381.037.899-.072 1.127.134 1.125.99 2.142 2.094 3.249 3.098.612.554 1.284 1.316 2.01 1.418 1.414.201 2.343.638 2.891 2.065.227.587 1.126.931 1.744 1.347 1.769 1.193 3.598 2.297 5.306 3.571.961.719 1.685 1.67 3.07.808.268-.167 1.043.094 1.329.398 3.476 3.762 6.889 7.583 10.358 11.354 1.565 1.698 2.845 3.689 5.091 4.713 1.213.551 2.417 1.3 3.357 2.229 1.663 1.65 3.22 3.43 4.647 5.293 1.626 2.131 3.614 3.603 6.225 4.225.69.506 1.387 1.011 2.079 1.518.934.7 1.869 1.403 2.802 2.102 2.472 1.842 4.947 3.684 7.418 5.528.432.369.867.734 1.302 1.102.243.2.482.403.725.605.398.316.8.633 1.198.948.209.127.418.255.627.382 2.993 2.399 6.02 4.757 8.967 7.205 3.95 3.28 7.807 6.669 11.772 9.925 2.958 2.431 6.29 4.409 8.812 7.37.336.394.833.82 1.308.895.781.117 1.889.274 2.355-.147.787-.714.056-1.503-.585-2.142-1.123-1.132-2.522-2.155-3.196-3.526-.643-1.308-1.479-2.056-2.711-2.474-5.046-1.715-8.628-5.435-12.384-8.921-3.203-2.975-6.41-5.949-9.613-8.925-.903-.846-1.801-1.692-2.703-2.535-.206-.202-.413-.405-.618-.606-.496-.499-.992-.998-1.486-1.499-.348-.389-.698-.78-1.045-1.169-1.258-1.13-2.439-2.367-3.791-3.366-2.052-1.51-4.344-2.709-6.317-4.305-1.958-1.586-3.971-3.277-5.374-5.321-1.701-2.484-3.418-4.593-6.509-5.227-.597-.123-1.098-.642-1.66-.949-2.981-1.624-4.959-4.342-7.149-6.776-2.129-2.367-3.944-5.017-5.895-7.542-.243-.239-.486-.479-.729-.717-1.073-1.436-1.986-3.04-3.26-4.273-1.748-1.695-3.766-3.111-5.674-4.642-1.742-1.396-1.763-2.132.152-3.346 1.069-.681 2.377-.977 3.45-1.654 6.613-4.175 12.969-8.665 17.53-15.213 1.37-2.244 2.997-4.377 4.056-6.758 1.941-4.359 2.207-8.947 1.835-13.753-.375-4.827-2.116-8.792-5.15-12.368-.026-.211-1.591-1.741-1.751-1.915-.607-.608-2.005-1.796-5.922-4.791-3.914-2.997-9.473-5.964-14.352-6.601-4.878-.639-11.609.353-14.544.621-.491.044-1.114.308-1.401.681-1.364 1.774-3.433 2.055-5.343 2.689-1.592-.035-3.186-.141-4.775-.089-1.66.057-3.318.266-4.976.409-.597.036-2.164.238-2.35.3-.763.126-3.477.772-3.969.935-2.916 1.328-11.174 4.436-12.884 5.109-1.707.674-2.426.662-4.782 1.161-1.006.215-2.17.958-3.216 1.599l-.342.256c-1.135.58-2.271 1.161-3.41 1.741-.616.372-1.232.743-1.848 1.115-1.09.472-2.181.947-3.273 1.419-.402.168-1.322.345-1.893.686-.572.343-2.075 1.786-2.251 2.539-.175.754-.286 1.269-.43 1.905-.147.507-.293 1.015-.443 1.522 0 0-.107.243-.108.245-.339.793-1.56 1.143-2.271 1.444-.978.416-2.226.769-3.065 1.438-.771.616-.912 1.609-1.262 2.477-.268.658-.198 1.69.095 2.328.286.623 1.508 1.773 2.167 1.874.755.114 1.898.191 2.262.342.364.152 1.466 1.366 1.396 1.874-.068.509.332 1.815 1.368 2.177.741.122 1.485.243 2.227.368.75.031 1.5.063 2.253.095.178.203.356.405.535.606.324.987.851 1.67 2.037 1.371.866.002 2.496.348 4.219-.011 1.722-.358 2.569-.948 3.771-1.581 1.288-.68 2.474-1.551 3.703-2.338.714-.57 1.532-.817 1.468.441-.137 2.565-.772 5.037-2.195 7.238-.096.231-.192.463-.286.695-.66 3.453-8.355 22.6-9.382 26.455-1.028 3.858-2.026 7.847-2.318 8.534-.066.281-.126.559-.193.837-.418 1.321-.922 2.623-1.213 3.968-.192.882-.688 3.018-.019 2.702 2.106-.988.747 1.282-1.144 2.565-1.134.074-4.229 7.03-4.607 10.64-.233 2.223-1.722 5.474-1.154 6.377.115.184.518.572.29.666-1.535.621-2.631 6.938-2.631 6.938s.507.276.255.531c-.255.256-.286.32-.462.474-.307.307-2.025 3.865-2.347 4.686-.134.238-1.738 3.498-1.939 3.882-1.12 1.58-1.498 5.63-1.078 7.62.279 1.314.554-.25.581 1.102.006.32-.076.509-.074.814.002.64.388 4.344.93 4.592 1.011.464 1.083-.626 1.411-1.232.1-.181.263-.325.398-.487-.061-.232.917-1.271 1.126-1.384.212.07-.945 3.282-.147 3.064.799-.214 3.153-8.122 3.42-8.704.462-.881.922-1.759 1.384-2.639.397-.119.794-.239 1.189-.36.408.122.816.243 1.217.365.141.214.279.43.42.645.009.627-.061 1.267.059 1.872.06.31.451.556.689.833.252-.281.506-.557.758-.839.199-.479.385-.96.589-1.438 2.14-5.059 4.284-10.119 6.418-15.177.465-1.107.741-2.285 1.23-3.383.079-.182 1.752-2.84 2.042-2.388.222.342.596.669.631 1.029.058.62-.201 1.275-.121 1.888.057.443.399 1.132.704 1.187.381.066.982-.31 1.265-.672.456-.576.87-1.258 1.059-1.961.423-1.61 3.149-15.785 6.365-29.621 3.152-13.567 7.472-28.086 7.913-28.087.991-.001 1.457-.474 1.641-1.367.438-1.941.879-3.883 1.319-5.824.23-.788.458-1.576.683-2.364.226-.505.45-1.009.674-1.515.66-1.22 1.273-2.47 1.993-3.651.575-.946 1.243-1.293 1.677.137.323 1.069 1.037 1.253 1.521.325 1.072-2.058 2.256-4.157 2.753-6.382.365-1.633 1.129-2.428 2.432-3.039 7.741-3.624 15.33-3.296 22.748.924 3.065 1.746 4.379 4.18 3.642 7.108-.676 2.695-1.679 5.257-3.429 7.52-2.418 3.132-4.704 6.373-6.97 9.62-1.873 2.681-6.495 3.126-8.875.814-1.15-1.12-2.328-2.226-3.599-3.197-1.096-.839-2.624-.519-2.983.616-.345 1.087-.672 2.301.49 3.247 1.17.948 2.427 1.828 3.394 2.953.548.636.904 1.769.746 2.559-.11.553-1.204 1.228-1.902 1.285-1.362.111-2.757-.237-4.14-.266-.7-.017-1.739.009-2.049.434-.688.946-1.761 2.211-1.819 3.429-.095 1.542 3.736 4.909 4.593 5.191z"/><path d="m557.927 175.528c-3.388-2.024-6.825-3.965-10.217-5.982-2.171-1.291-4.576-2.357-6.381-4.051-8.264-7.756-16.298-15.758-24.534-23.544-3.165-2.992-6.439-5.898-10.786-7.255-1.919-.6-3.741-1.596-5.491-2.616-1.061-.618-2.174-1.465-2.773-2.492-2.324-3.995-6.128-6.395-9.53-9.238-4.008-3.047-6.435-7.809-11.061-10.196-.367-.189-.688-.525-.946-.859-3.046-3.975-6.314-7.729-10.078-11.068-3.877-3.438-7.113-7.582-11.617-10.34-1.063-.649-1.883-1.717-2.741-2.663-.095-.104-1.974-1.909-3.173-2.585-1.201-.679-3.995-1.388-6.019-2.007-2.502-.769-3.54-.047-3.926 2.624-.139.951-.21 1.921-.207 2.884.008 1.994.338 2.299 2.418 2.583.836.114 1.927.026 2.445.515 1.288 1.225 2.721 1.177 4.204.939 1.483-.239 2.321.358 3.218 1.507 1.699 2.173 3.39 4.487 5.555 6.117 2.773 2.09 4.952 4.684 7.364 7.084 2.795 2.779 5.139 5.992 8.864 7.816 1.391.684 2.262 2.436 3.368 3.704 1.115 1.276 2.044 2.8 3.372 3.78 2.137 1.583 4.534 2.809 6.823 4.187.826.66 1.672 1.298 2.476 1.986 1.696 1.458 3.613 2.747 4.971 4.474 1.18 1.496 2.319 2.499 4.194 3.084 1.893.593 3.765 1.652 5.293 2.928 4.769 3.981 9.386 8.141 14.031 12.273 3.192 2.84 6.171 5.937 10.558 7.036.952.238 1.771 1.122 2.587 1.783 1.808 1.47 3.578 2.984 5.362 4.479.51.39 1.021.781 1.529 1.171.138.162.256.352.419.484 5.123 4.202 11.007 7.375 15.877 11.941.927.867 2.848.477 3.853 1.416 15.576 14.574 15.907 11.243 16.444 10.995-.307-.424-15.356-12.669-15.759-12.912z"/><path d="m533.533 172.67c-.511-1.539-1.58-2.226-2.648-2.977-1.385-.975-2.952-1.686-4.42-2.545-2.097-1.234-4.325-2.287-5.213-4.898-.24-.7-1.105-1.553-1.792-1.669-2.945-.507-4.523-3.655-7.628-3.807-.384-.018-.726-.727-1.101-1.097-.76-.748-1.59-1.432-2.28-2.236-1.548-1.813-4.198-2.535-5.003-5.126-.113-.369-1.024-.567-1.599-.694-3.079-.683-5.579-2.192-6.732-5.227-.833-2.189-2.435-3.677-3.927-5.335-1.265-1.405-2.668-2.04-4.517-1.801-1.526.197-2.684-.258-3.412-1.758-.309-.639-.988-1.1-1.498-1.643-.701-.803-1.401-1.605-2.102-2.406-.178-.243-.354-.487-.531-.729-.013-.21-.095-.387-.245-.533-.298-1.856-1.187-3.31-2.864-4.232-2.626-2.18-5.402-4.204-7.842-6.578-3.292-3.205-6.463-6.528-7.552-11.327-.326-1.433-1.485-2.879-2.643-3.868-1.937-1.654-4.079-3.132-6.317-4.345-3.36-1.82-6.617-3.947-10.498-4.613-1.224-.209-2.475-.697-3.327.632-.55.857.132 1.449.848 1.963.425.304.945.669 1.424.674 2.253.026 3.213 1.551 3.794 3.325.792 2.429 2.316 3.545 4.863 3.893 2.082.286 4.314 1.043 5.052 3.369 1.292 4.068 4.064 6.947 7.284 9.433 2.979 2.302 5.578 4.92 7.788 7.951.435.595.846 1.244 1.406 1.698 2.219 1.8 4.491 3.535 6.745 5.293.227.211.452.421.681.633.648.648 1.3 1.299 1.949 1.948 1.702 3.113 4.315 5.004 7.773 5.757.445.174.897.349 1.344.522.772.664 1.621 1.258 2.304 2.006 1.204 1.317 2.228 2.796 3.463 4.078.878.915 1.967 1.628 2.978 2.418 3.458 2.708 6.857 5.5 10.401 8.09 3.61 2.637 7.392 5.043 11.053 7.612 1.655 1.163 3.285 2.392 4.775 3.753 2.527 2.302 5 4.619 8.1 6.18 1.263.638 2.328 1.67 3.482 2.523.199.025 15.001 10.023 16.412 11.231.827.708 6.836 4.552 12.306 8.775 3.877 2.995 7.197 6.43 9.482 7.967 10.339 6.96 6.429 1.875 6.759 1.918-.296-.453-38.336-28.093-38.63-28.544-1.036-1.059-7.714-4.382-8.138-5.652z"/><path d="m420.649 128.431c-.811 0-1.66.588-2.403 1.075-.295.192-.412.741-.503 1.149-.273 1.243-.479 2.499-.738 3.745-.357 1.718-.108 3.63-1.895 4.855-.807.554-.327 1.352.212 1.931.676.719 1.474.55 1.907-.145.841-1.346 1.6-2.766 2.211-4.231.848-2.033 2.009-5.174 2.363-6.446.349-1.26-.773-1.926-1.154-1.926z"/><path d="m205.298 124.113c4.586 1.906 9.768 2.472 14.883 1.417 2.106-.434 2.591-.579 6.01-2.589 3.42-2.012 5.756-6.852 6.454-7.104.699-.253 2.885-.375 3.556.192.396.331 1.448 1.702 2.77 2.727 1.323 1.027.012.93 1.012 2.321 1.001 1.392 2.431-.133 2.456.562.025.693.544 1.252 1.679 1.248 1.137-.003.899-4.424.66-6.979-.233-1.475-.756-7.201-.649-8.452s.457-3.394.686-5.093c-.084-2.19 1.839-9.412 2.149-10.971-.14-.216 1.366-4.362 2.243-8.394.878-4.03 1.537-8.82 1.584-10.313.087-2.331.526-6.257.263-6.996-.263-.74-1.7-.436-2.243-.135-.542.304-.281.501-.42.752l-.026.108c-.104-.016-.197.011-.268.112-2.005.352-3.046-1.653-3.839-1.949-.793-.297-1.362-.363-2.326-.211s-4.538 3.718-6.251 4.52c-1.712.802-7.477 3.377-9.467 3.082-.167.165-.367.222-.596.171-.77.796-1.475 2.198-2.321 2.287-4.144.438-6.515 3.516-9.416 5.817-.508.66-1.226 1.247-1.487 1.994-.779 2.231-1.622 3.666-3.871 4.851-.123.066-.233.409-.169.507.094.146.345.258.533.266 1.423.047 3.111-1.168 3.111-1.168s6.997-3.005 10.479-4.541c1.506-.665 2.925-1.047 4.571-.252.629.302 1.597-.096 2.408-.175l.956-.553c.327-.085.653-.17.98-.256l.607-.061c.442.071.887.146 1.332.217-.805 2.415-1.181 6.682-1.299 7.451-.116.767-.4 1.194-.572 1.808-.255.91-.54 1.823-.68 2.756-.45 3.019-1.05 6.042-1.173 9.082-.076 1.879 1.045 4.776 1.633 5.465.588.69 1.242 1.652.224 2.499-1.019.847-1.811 1.63-2.716 2.448-1.131.42-3.36 2.143-6.637 2.651-3.28.506-6.111.377-10.747-1.693-4.637-2.068-8.404-5.833-10.963-8.148-2.56-2.317-6.3-11.203-6.563-15.226-.264-4.023.117-8.103.241-9.736.123-1.632 1.035-7.126 2.504-10.922 1.469-3.794 5.733-9.057 6.327-9.724 2.211-2.138 4.423-4.276 6.636-6.416 2.513-1.911 6.487-5.355 12.158-8.502 1.286-.629 8.393-4.688 13.785-5.114 1.571-.124 3.104-.746 4.605-1.278 1.364-.483 2.149-1.446 1.506-2.98-.443-1.059-.431-2.085.757-2.38 1.494-.372.147-2.674-.56-2.51-.763.177-1.522.507-2.611-.199-1.188-.772-2.185-2.309-2.585-4.281-.164-.816 1.113-.773.307-1.859-.806-1.083-2.372-.411-3.042-.959-.224-.08-.446-.158-.668-.238-.835-.106-1.668-.21-2.501-.315-.13-.115-.262-.23-.391-.346-.837-.99-1.807-1.107-3.123-.997-3.888.32-7.454 1.81-11.181 2.698-1.331.467-2.663.935-3.995 1.402-.58.455-1.14.937-1.742 1.358-1.564 1.096-3.148 2.167-4.723 3.248-.192.202-.387.404-.579.607l-.06.076c-.498.637-.996 1.273-1.493 1.911-.151.198-.299.395-.448.591-.431.421-.861.842-1.292 1.263-.23.207-.46.413-.688.619-.39.247-.779.492-1.17.739l-.037.041c-.246.417-.493.833-.74 1.251l-.041.252c-.339.35-.677.701-1.016 1.051-.296.345-.592.691-.888 1.036-.222.273-.445.546-.666.819l-.616.543c-.371.486-.742.973-1.114 1.459l-.075.084c-.485.585-.967 1.168-1.452 1.755l-.496.809-2.295 3.82c-.214.09-.331.25-.35.484-.206.486-.412.972-.617 1.457-.219.384-.438.772-.657 1.157v.001c-2.178 1.685-3.347 3.994-4.058 6.584-.149.186-.299.372-.447.555-.256.676-.512 1.352-.768 2.028-.392 1.047-.783 2.093-1.174 3.139-2.374 4.288-2.977 9.058-3.291 13.784-.41 6.186-.33 12.409 1.158 18.502.493 2.02 3.957 9.813 5.674 12.411 1.716 2.594 6.321 7.714 9.258 9.724 2.91 2 5.577 3.535 10.171 5.44z"/><path d="m572.596 163.96c-2.921-2.16-5.881-4.267-8.842-6.373-.61-.433-1.039-1.724-1.943-.886-.312.287.112 1.57.44 2.294.249.546.829.985 1.346 1.358 3.119 2.265 6.232 4.547 9.423 6.706.85.568 1.968.744 2.982 1.031.175.049.447-.251.744-.434-.301-.353-.474-.618-.709-.817-1.132-.973-2.243-1.989-3.439-2.878z"/><path d="m593.424 177.03c-.169-.203-4.364-2.468-4.559-2.604-.88-.623-1.424-.383-2.302-1.014-1.679-1.207-3.272-2.525-4.897-3.798-.852-.671-2.145-1.174-2.288.154-.092.855.117 1.898.917 2.354.287.165.573.332.861.495 1.644.85 3.281 1.707 4.924 2.553.724.371 11.355 7.827 13.088 7.504 1.742-.328.217-2.28.217-2.28s-5.682-3.026-5.958-3.375z"/><path d="m572.045 177.792s7.489 5.099 10.309 6.403c2.821 1.301 4.45 2.387 3.472.867-.976-1.521 0-1.194-3.15-3.038-3.147-1.844-4.879-2.495-6.29-3.907-1.412-1.41-4.234-2.603-4.345-1.628-.106.974.011 1.302.011 1.302z"/><path d="m578.343 194.398c3.146 1.842 4.667 3.253 3.581.431-1.081-2.821-2.821-2.277-5.209-3.47-2.386-1.195-2.479-.02-1.938.634l3.567 2.403z"/></g></svg>