<svg xmlns="http://www.w3.org/2000/svg"><g fill="#1e1e1e"><path d="m207.345 138.8-1.969.095c-.241.011-.428.216-.417.458.01.241.215.428.456.418h.002l1.969-.096c.242-.011.428-.216.417-.457-.01-.242-.215-.429-.456-.418-.001 0-.001 0-.002 0z" transform="matrix(.965926 -.258819 .258819 .965926 -29.017463 58.161348)"/><path d="m303.439 107.34c-25.043 0-63.267 1.935-86.438 3.527-.072.006-.143.029-.205.069.085-.055-.01.003-.068.041-.058.037-.144.091-.219.177-.148.172-.241.522-.123.834v.013c1.849 4.723 7.748 21.848 13.821 39.234 6.073 17.385 12.311 35.027 14.914 40.941 2.811 6.384 6.2 11.945 11.004 15.926 4.805 3.981 11.026 6.343 19.358 6.343h27.681 23.43 27.681c8.331 0 14.539-2.362 19.343-6.343 4.806-3.981 8.194-9.542 11.004-15.926 2.605-5.914 8.842-23.556 14.915-40.941s11.986-34.51 13.834-39.234c0-.004 0-.009 0-.013.119-.312.012-.662-.137-.834-.07-.086-.144-.141-.201-.178s-.167-.095-.083-.041c-.062-.04-.132-.063-.206-.068-23.171-1.593-61.377-3.527-86.421-3.527zm0 .875h22.884c24.946 0 63.034 1.925 86.202 3.514-1.892 4.839-7.746 21.869-13.807 39.219-6.071 17.384-12.331 35.074-14.886 40.874-2.781 6.317-6.121 11.757-10.772 15.612-4.652 3.853-10.617 6.137-18.782 6.137h-27.681-23.432-27.681c-8.166 0-14.144-2.284-18.796-6.137-4.655-3.854-7.979-9.296-10.761-15.612-2.554-5.801-8.827-23.491-14.899-40.875-6.063-17.348-11.916-34.377-13.808-39.218 23.168-1.589 61.267-3.514 86.219-3.514z" transform="matrix(.965926 -.258819 .258819 .965926 -30.912854 86.97848)"/><path d="m396.982 87.453c-.242.011-.429.216-.419.457.011.242.216.429.457.418h.003l1.968.096c.241.012.446-.174.458-.416.013-.241-.174-.446-.415-.458-.001 0-.001 0-.002 0l-1.955-.096c-.031-.004-.064-.004-.095-.001z" transform="matrix(.965926 -.258819 .258819 .965926 -9.198227 106.007897)"/><path d="m301.266 114.074c-16.707 0-33.538.176-39.779.561-5.601.346-12.145.925-17.922 2.351-5.777 1.427-10.821 3.687-13.342 7.505-2.559 3.875-1.675 9.832-.109 15.174 1.565 5.342 3.894 10.154 4.415 11.524.545 1.43 3.818 10.358 7.45 19.781 3.633 9.422 7.599 19.312 9.624 22.87 2.562 4.502 5.178 8.453 9.569 11.264 4.392 2.81 10.516 4.443 20.04 4.443h22.268 23.294 22.255c9.524 0 15.649-1.633 20.04-4.443 4.391-2.811 7.006-6.762 9.569-11.264 2.025-3.558 5.991-13.448 9.623-22.87 3.634-9.423 6.919-18.351 7.464-19.781.522-1.369 2.836-6.182 4.402-11.524 1.566-5.341 2.463-11.299-.096-15.174-2.511-3.819-7.554-6.079-13.329-7.506-5.779-1.426-12.323-2.005-17.922-2.351-6.242-.385-23.083-.56-39.793-.56h-27.709zm0 .875 27.709.001c16.701 0 33.579.18 39.739.56 5.581.344 12.076.921 17.757 2.324 5.682 1.403 10.513 3.636 12.822 7.135 2.273 3.441 1.54 9.195 0 14.449-1.54 5.253-3.806 9.926-4.387 11.456-.561 1.469-3.835 10.366-7.465 19.781-3.628 9.414-7.634 19.372-9.554 22.747-2.546 4.47-5.071 8.269-9.282 10.962-4.212 2.695-10.153 4.307-19.576 4.307h-22.255-23.294-22.268c-9.423 0-15.35-1.612-19.561-4.307-4.212-2.694-6.737-6.492-9.283-10.962-1.92-3.375-5.939-13.333-9.568-22.747-3.627-9.414-6.886-18.312-7.446-19.781-.583-1.53-2.862-6.202-4.401-11.456-1.541-5.254-2.273-11.007 0-14.449 2.309-3.499 7.141-5.733 12.822-7.135 5.681-1.404 12.189-1.98 17.771-2.325 6.16-.38 23.024-.56 39.725-.56z" transform="matrix(.965926 -.258819 .258819 .965926 -31.142035 87.073677)"/><path d="m266.685 119.534c-1.266 0-2.31 1.031-2.31 2.296v75.8c0 1.266 1.044 2.296 2.31 2.296h95.773c1.266 0 2.296-1.03 2.296-2.296v-75.8c0-1.265-1.03-2.296-2.296-2.296zm0 .874h95.773c.793 0 1.421.629 1.421 1.422v75.8c0 .793-.628 1.421-1.421 1.421h-95.773c-.794 0-1.435-.628-1.435-1.421v-75.8c0-.793.641-1.422 1.435-1.422z" transform="matrix(.965926 -.258819 .258819 .965926 -30.622634 86.857926)"/><path d="m271.833 126.577c-.465 0-.847.382-.847.847v64.483c0 .465.382.848.847.848h85.423c.466 0 .848-.383.848-.848v-64.482c0-.466-.382-.848-.848-.848zm.028.874 85.371.001v64.426h-85.371z" transform="matrix(.965926 -.258819 .258819 .965926 -30.606738 86.850703)"/><path d="m252.358 164.009c-1.132 0-2.051.931-2.051 2.064 0 1.132.918 2.064 2.051 2.064 1.132 0 2.064-.931 2.064-2.064s-.932-2.064-2.064-2.064z" transform="matrix(.965926 -.258819 .258819 .965926 -34.383732 70.975501)"/><path d="m213.361 172.739c-9.862 0-17.866 8.005-17.866 17.867s8.005 17.867 17.866 17.867c9.862 0 17.867-8.005 17.867-17.867 0-9.86-8.005-17.865-17.867-17.865zm0 .874c9.389 0 16.992 7.603 16.992 16.992 0 9.39-7.602 16.993-16.992 16.993-9.389 0-16.992-7.603-16.992-16.993 0-9.387 7.602-16.99 16.992-16.99z" transform="matrix(.965926 -.258819 .258819 .965926 -42.062336 61.716739)"/><path d="m213.359 174.665c-8.795 0-15.925 7.145-15.925 15.939 0 8.795 7.131 15.925 15.925 15.925 8.795 0 15.939-7.131 15.939-15.925s-7.144-15.939-15.939-15.939zm0 .875c8.322 0 15.064 6.742 15.064 15.064 0 8.323-6.742 15.051-15.064 15.051s-15.05-6.729-15.05-15.051c0-8.321 6.729-15.064 15.05-15.064z" transform="matrix(.965926 -.258819 .258819 .965926 -42.059853 61.717595)"/><path d="m211.4 175.624c-1.764-.004-3.527.206-4.771.711-.167.067-.275.23-.274.409v7.642h-.56c-.241.002-.436.2-.434.441.001.111.044.218.119.298l5.591 5.59c.168.174.445.178.619.011.003-.004.007-.007.011-.011l5.59-5.59c.166-.176.159-.452-.017-.619-.08-.075-.187-.119-.298-.119h-.56v-7.642c.002-.18-.107-.342-.274-.409-1.223-.486-2.979-.707-4.743-.711zm0 .874c1.569.004 3.095.228 4.142.588v7.697.041c.005.217.168.397.383.424l-4.538 4.541-4.539-4.541c.089-.016.17-.059.233-.123l.027-.027c.081-.085.126-.198.123-.315v-7.697c1.059-.373 2.599-.592 4.169-.588z" transform="matrix(.965926 -.258819 .258819 .965926 -40.2222 60.954306)"/><path d="m207.482 186.55c-.204.045-.347.229-.342.437v.561h-7.642c-.175.004-.331.111-.396.273-.486 1.224-.721 2.98-.725 4.744s.22 3.527.725 4.771c.069.157.224.258.396.26h7.642v.574c.002.242.199.436.441.434.117-.001.229-.049.311-.133l5.59-5.587c.168-.17.168-.445 0-.615l-5.591-5.59c-.106-.11-.261-.157-.41-.123zm.533 1.477 4.538 4.538-4.538 4.552c-.016-.089-.059-.172-.124-.236l-.04-.031c-.079-.083-.187-.131-.301-.136h-7.71c-.371-1.058-.592-2.585-.588-4.155.004-1.569.228-3.095.588-4.142h7.71.027c.227.001.416-.171.437-.397z" transform="matrix(.965926 -.258819 .258819 .965926 -42.822931 59.876575)"/><path d="m215.237 190.361c-.083.019-.159.062-.219.123l-5.59 5.591c-.174.168-.178.445-.011.618.085.089.203.137.325.134h.561v7.628c0 .184.114.347.287.41 1.223.486 2.966.707 4.729.711 1.764.005 3.527-.206 4.771-.711.167-.067.275-.23.273-.41v-7.628h.561c.241.006.442-.184.449-.425.002-.123-.046-.242-.134-.327l-5.591-5.591c-.106-.11-.262-.156-.411-.123zm.096 1.053 4.538 4.539c-.084.018-.16.061-.219.122l-.041.026c-.081.084-.126.198-.123.315v7.709c-1.059.373-2.598.578-4.169.575-1.569-.005-3.095-.214-4.142-.575v-7.709-.028c.002-.222-.163-.41-.383-.437l4.539-4.539z" transform="matrix(.965926 -.258819 .258819 .965926 -43.899321 62.477867)"/><path d="m219.087 182.603c-.098.01-.19.054-.26.123l-5.591 5.59c-.168.17-.168.444 0 .615l5.591 5.59c.168.174.445.178.618.011.085-.081.133-.194.134-.311v-.575h7.641c.175-.003.331-.11.397-.273.486-1.223.719-2.966.724-4.73s-.219-3.527-.724-4.771c-.066-.162-.222-.269-.397-.273h-7.641v-.561c.002-.241-.193-.438-.434-.441-.019.001-.038.003-.058.006zm-.369 1.489c.015.082.052.159.11.22l.041.041c.08.078.188.122.3.123h7.71c.372 1.059.592 2.598.588 4.169-.004 1.564-.23 3.081-.588 4.128h-7.71-.027c-.217-.003-.404.154-.437.369l-4.537-4.523 4.553-4.524z" transform="matrix(.965926 -.258819 .258819 .965926 -41.298879 63.555213)"/><path d="m201.683 182.808c-.188 0-.379.064-.52.205-.281.282-.281.758 0 1.039l1.573 1.559c.282.281.743.281 1.025 0 .282-.282.282-.758 0-1.039l-1.559-1.559c-.141-.135-.331-.201-.519-.201z" transform="matrix(.965926 -.258819 .258819 .965926 -40.805454 58.681474)"/><path d="m207.858 199.987c-.187 0-.378.064-.519.205l-1.558 1.572v.014c-.273.282-.292.733-.014 1.011.282.283.757.281 1.039 0l1.559-1.559c.282-.281.282-.756 0-1.039-.141-.14-.318-.204-.507-.204z" transform="matrix(.965926 -.258819 .258819 .965926 -45.094585 60.459809)"/><path d="m223.479 195.382c-.188 0-.379.064-.52.205-.283.282-.282.757 0 1.039l1.559 1.559c.281.282.757.282 1.039 0 .283-.282.281-.744 0-1.027l-1.558-1.569c-.142-.142-.332-.206-.52-.206z" transform="matrix(.965926 -.258819 .258819 .965926 -43.317277 64.751011)"/><path d="m220.433 178.202c-.188 0-.379.063-.52.205l-1.558 1.557c-.282.282-.282.757 0 1.039.282.281.743.281 1.025 0l1.572-1.558c.284-.281.283-.757 0-1.039-.14-.141-.331-.205-.519-.205z" transform="matrix(.965926 -.258819 .258819 .965926 -39.027149 62.974009)"/><path d="m219.144 110.411c-6.639.474-11.763.9-14.585 1.23-6.214.725-9.835 1.118-12.235 2.666-1.2.773-2.066 1.843-2.721 3.308-.654 1.466-1.122 3.331-1.585 5.769-4.572 24.105-5.176 65.918-4.347 86.446.414 10.247.593 18.499 4.224 24.648 3.631 6.148 10.689 10.031 24.523 11.592 27.599 3.114 81.43 3.527 93.245 3.527h28.679c11.814 0 65.629-.414 93.227-3.527 13.834-1.561 20.893-5.443 24.524-11.592s3.823-14.4 4.238-24.648c.829-20.532.21-62.343-4.361-86.446-.463-2.438-.931-4.303-1.586-5.769-.655-1.465-1.52-2.535-2.72-3.308-2.4-1.547-6.008-1.941-12.222-2.666-2.823-.33-7.947-.756-14.585-1.231-.033-.003-.065-.003-.097 0-.202.028-.404.088-.574.219-.163.128-.258.312-.328.493 0 .002-.013-.002-.014 0 0 .001.001.011 0 .013-.836 2.138-2.51 6.811-4.661 12.932-.002.005.002.008 0 .013-.176.496-.206.998 0 1.422.208.428.624.732 1.136.929 3.307 1.276 5.631 4.503 5.631 8.271 0 4.91-3.96 8.885-8.871 8.885-.92 0-1.805-.151-2.638-.41v.013c-.548-.181-1.05-.15-1.436.055-.386.204-.632.541-.806.861-.016.022-.03.044-.041.068-7.031 20.152-15.04 42.989-17.922 49.609-5.065 11.638-14.184 21.272-31.209 21.272h-26.438-25.193-26.438c-17.025 0-26.143-9.634-31.208-21.272-2.529-5.809-9.013-24.121-15.31-42.13-6.296-18.003-12.417-35.706-14.3-40.518-.001-.004.001-.011 0-.013h-.013c-.079-.185-.173-.37-.337-.497-.168-.131-.373-.192-.574-.219-.027-.003-.055-.003-.082 0zm.013.875c.052.012.1.033.11.041.012.01.034.019.068.109v.013c1.848 4.722 7.986 22.479 14.285 40.491 6.298 18.012 12.746 36.275 15.324 42.199 5.15 11.831 14.659 21.79 32.015 21.79h26.438 25.194 26.438c17.356 0 26.865-9.959 32.015-21.79 2.935-6.743 10.896-29.484 17.922-49.623.004-.007.01-.007.013-.013.122-.22.271-.39.438-.479.172-.091.377-.137.752-.013h.013c.917.286 1.889.451 2.898.451 5.383 0 9.747-4.377 9.747-9.76 0-4.129-2.552-7.686-6.194-9.09-.382-.148-.573-.322-.655-.493-.083-.171-.102-.394.027-.752 2.157-6.134 3.84-10.819 4.663-12.92 0-.005 0-.009 0-.014.033-.089.055-.099.068-.109.009-.006.056-.03.097-.041 6.605.472 11.721.906 14.503 1.23 6.213.725 9.755 1.168 11.866 2.529 1.055.68 1.787 1.586 2.392 2.939.604 1.352 1.06 3.152 1.517 5.563 4.54 23.937 5.174 65.791 4.348 86.259-.415 10.253-.653 18.361-4.115 24.223s-10.161 9.636-23.868 11.182c-27.481 3.1-81.341 3.513-93.134 3.513h-28.679c-11.793 0-65.651-.413-93.135-3.513-13.708-1.548-20.421-5.324-23.883-11.185-3.461-5.863-3.686-13.967-4.101-24.221-.826-20.468-.206-62.322 4.334-86.259.457-2.412.926-4.211 1.531-5.564.604-1.353 1.336-2.258 2.391-2.939 2.111-1.36 5.641-1.804 11.853-2.529 2.781-.325 7.898-.758 14.503-1.23z" transform="matrix(.965926 -.258819 .258819 .965926 -35.683783 88.955408)"/><path d="m400.831 103.778c-.27-.067-.581-.105-.889.027s-.529.409-.684.779c-.005.009-.009.018-.014.027l-4.292 12.699v.014c-.095.263-.152.492-.164.711-.011.223.031.45.151.629.242.359.592.453.944.588.012.005.026.01.041.013.743.225 1.521.343 2.336.343 4.483 0 8.135-3.638 8.135-8.12 0-3.573-2.311-6.611-5.523-7.697-.014-.004-.028-.009-.041-.013zm-.548.833c.042-.017.152-.027.329.014.007.002.006-.001.014 0 2.841.98 4.893 3.682 4.893 6.863 0 4.009-3.249 7.245-7.259 7.245-.729 0-1.428-.101-2.091-.301-.316-.125-.495-.229-.507-.247-.005-.009-.019-.009-.013-.095.005-.087.041-.243.123-.465 0-.005 0-.01 0-.013l4.292-12.686c.006-.013.009-.002.014-.014v-.014c.093-.202.165-.269.205-.287z" transform="matrix(.965926 -.258819 .258819 .965926 -15.250563 107.485253)"/><path d="m400.975 110.412c-.844 0-1.53.701-1.53 1.545s.686 1.53 1.53 1.53 1.545-.687 1.545-1.53c0-.844-.701-1.545-1.545-1.545z" transform="matrix(.965926 -.258819 .258819 .965926 -15.311517 107.596455)"/><path d="m409.127 141.041c-4.326 0-7.832 3.507-7.832 7.832s3.507 7.847 7.832 7.847c4.324 0 7.846-3.522 7.846-7.847 0-4.324-3.522-7.832-7.846-7.832zm0 .875c3.852 0 6.972 3.105 6.972 6.957s-3.119 6.972-6.972 6.972c-3.852 0-6.957-3.119-6.957-6.972-.001-3.852 3.105-6.957 6.957-6.957z" transform="matrix(.965926 -.258819 .258819 .965926 -24.592202 110.964612)"/><path d="m424.783 120.658c-4.325 0-7.833 3.521-7.833 7.846s3.508 7.833 7.833 7.833c4.324 0 7.846-3.508 7.846-7.833 0-4.323-3.522-7.846-7.846-7.846zm0 .875c3.852 0 6.972 3.12 6.972 6.972s-3.12 6.958-6.972 6.958-6.958-3.106-6.958-6.958 3.105-6.972 6.958-6.972z" transform="matrix(.965926 -.258819 .258819 .965926 -18.783246 114.322018)"/><path d="m430.304 121.188c-5.288 0-9.583 4.295-9.583 9.582 0 .099-.003.189 0 .287.001.005 0 .01 0 .014.001.249.025.486 0 .656-.025.174-.066.255-.177.342-2.077 1.574-4.181 3.383-6.276 5.399-.256.175-.461.144-.792.028-.004-.002-.009.002-.013 0-1.1-.44-2.3-.684-3.554-.684-5.287 0-9.583 4.295-9.583 9.582 0 1.902.56 3.676 1.518 5.168v.013c.111.173.169.305.191.424.019.107.016.221-.054.382-.008.018-.005.022-.014.041-3.631 5.661-6.06 11.121-7.026 15.693-.969 4.584-.492 8.347 1.914 10.39 1.511 1.282 3.595 1.703 5.988 1.421 2.391-.282 5.116-1.265 8.038-2.83 5.842-3.131 12.459-8.619 18.508-15.748 6.05-7.128 10.397-14.545 12.536-20.819 1.069-3.136 1.587-5.987 1.476-8.394-.11-2.406-.868-4.391-2.378-5.673-.664-.563-1.434-.958-2.297-1.203-.032-.007-.064-.01-.096-.009-.129-.006-.482-.089-.779-.396-1.755-2.232-4.489-3.664-7.546-3.664zm0 .875c2.799 0 5.282 1.313 6.876 3.363.012.015.026.028.041.041.433.446.904.592 1.257.629.004 0 .011-.001.013 0 .75.214 1.408.563 1.969 1.039 1.282 1.088 1.961 2.797 2.064 5.044s-.39 5.014-1.435 8.079c-2.092 6.129-6.382 13.476-12.372 20.533-5.99 7.058-12.54 12.484-18.249 15.543-2.854 1.529-5.489 2.456-7.724 2.72-2.234.264-4.035-.128-5.316-1.217-2.042-1.732-2.578-5.112-1.641-9.541s3.33-9.825 6.931-15.433c.01-.013.019-.027.027-.041.165-.333.206-.686.151-.985-.055-.297-.192-.527-.328-.738-.87-1.355-1.367-2.971-1.367-4.702 0-4.815 3.894-8.708 8.707-8.708 1.146 0 2.239.227 3.241.628h.013c.445.158 1.06.245 1.599-.122.019-.012.037-.026.054-.042 2.09-2.015 4.196-3.819 6.261-5.385.316-.247.461-.61.506-.915.045-.306.013-.583.013-.793 0-.005 0-.01 0-.013-.002-.093 0-.181 0-.274 0-4.815 3.894-8.708 8.709-8.708z" transform="matrix(.965926 -.258819 .258819 .965926 -24.702688 113.561987)"/><path d="m216.468 170.116c-4.255 0-8.181 1.348-11.455 3.554-1.255.846-2.362 1.044-3.377.902-1.014-.142-1.951-.635-2.734-1.258-1.566-1.246-2.515-2.952-2.515-2.952-.119-.212-.389-.287-.601-.168s-.287.389-.167.601c0 .001.001.003.002.004 0 0 1.016 1.821 2.748 3.199.866.689 1.923 1.28 3.144 1.449 1.22.17 2.585-.105 3.991-1.052 3.144-2.119 6.895-3.404 10.963-3.404 10.667 0 19.302 8.636 19.302 19.302 0 5.61-.29 15.199-3.895 23.977-3.606 8.778-10.465 16.737-23.786 19.247-.238.045-.394.274-.35.511.044.239.274.395.512.35h.002c13.6-2.563 20.757-10.811 24.442-19.78 3.685-8.971 3.951-18.666 3.951-24.306 0-11.138-9.038-20.176-20.177-20.176z" transform="matrix(.965926 -.258819 .258819 .965926 -44.98284 62.82322)"/><path d="m248.536 126.079-23.88 1.189c-.241.007-.432.209-.424.45 0 .005 0 .01.001.014l.07 1.518c.01.242.215.429.456.417.242-.01.429-.215.419-.457v-.001l-.055-1.094 23.02-1.134.055 1.079c.011.242.215.429.456.418.242-.011.429-.216.418-.457v-.001l-.068-1.531c-.015-.241-.222-.425-.463-.41z" transform="matrix(.965926 -.258819 .258819 .965926 -25.032202 65.607222)"/></g></svg>