<svg xmlns="http://www.w3.org/2000/svg"><g fill="#1e1e1e"><path d="m215.181 244.732c0-8.358 6.773-15.132 15.131-15.134 8.356.002 15.13 6.776 15.13 15.134 0 8.355-6.774 15.128-15.13 15.131-8.358-.003-15.131-6.776-15.131-15.131zm1.395 0c.014 7.584 6.151 13.718 13.736 13.733 7.584-.014 13.72-6.149 13.734-13.733-.014-7.587-6.151-13.722-13.734-13.736-7.586.014-13.722 6.149-13.736 13.736z" transform="matrix(.965926 -.258819 .258819 .965926 -55.493218 67.947955)"/><path d="m415.749 190.989c.002-8.36 6.774-15.132 15.133-15.134 8.355.002 15.129 6.774 15.131 15.134-.002 8.355-6.776 15.128-15.131 15.131-8.358-.003-15.131-6.776-15.133-15.131zm1.399 0c.012 7.584 6.147 13.719 13.734 13.733 7.583-.013 13.719-6.149 13.732-13.733-.013-7.587-6.149-13.722-13.732-13.735-7.587.013-13.721 6.148-13.734 13.735z" transform="matrix(.965926 -.258819 .258819 .965926 -34.74928 118.027908)"/><path d="m288.038 256.91c0-2.315 1.875-4.191 4.19-4.191 2.313 0 4.189 1.876 4.19 4.191-.001 2.313-1.877 4.188-4.19 4.189-2.315-.001-4.19-1.876-4.19-4.189zm1.397 0c.003 1.54 1.251 2.788 2.793 2.792 1.542-.006 2.79-1.252 2.793-2.792-.003-1.545-1.251-2.792-2.793-2.794-1.542.002-2.79 1.249-2.793 2.794z" transform="matrix(.965926 -.258819 .258819 .965926 -56.535489 84.388086)"/><path d="m338.091 252.181v-.7-.698h6.984c3.919-.007 7.092-3.181 7.098-7.099-.006-3.922-3.179-7.095-7.098-7.102h-6.984c-3.92.007-7.093 3.18-7.1 7.102.007 3.918 3.18 7.092 7.1 7.099v.698.7c-4.693-.001-8.496-3.805-8.496-8.496 0-4.695 3.803-8.499 8.496-8.499h6.984c4.693 0 8.495 3.804 8.497 8.499-.002 4.691-3.804 8.495-8.497 8.496z" transform="matrix(.965926 -.258819 .258819 .965926 -51.430746 96.711592)"/><path d="m366.535 244.56v-.7-.698h6.985c3.92-.008 7.091-3.181 7.099-7.099-.008-3.922-3.179-7.095-7.099-7.102h-6.985c-3.92.007-7.093 3.18-7.099 7.102.006 3.918 3.179 7.091 7.099 7.099v.698.7c-4.694-.001-8.495-3.806-8.497-8.496.002-4.695 3.803-8.499 8.497-8.499h6.985c4.692 0 8.496 3.804 8.496 8.499 0 4.69-3.804 8.495-8.496 8.496z" transform="matrix(.965926 -.258819 .258819 .965926 -48.489093 103.813627)"/><path d="m395.316 236.848v-.7-.699h6.985c3.918-.007 7.091-3.18 7.097-7.098-.006-3.923-3.179-7.096-7.097-7.102h-6.985c-3.922.006-7.093 3.179-7.101 7.102.008 3.918 3.179 7.091 7.101 7.098v.699.7c-4.695-.001-8.497-3.806-8.497-8.497 0-4.694 3.802-8.498 8.497-8.498h6.985c4.692 0 8.494 3.804 8.495 8.498-.001 4.691-3.803 8.496-8.495 8.497z" transform="matrix(.965926 -.258819 .258819 .965926 -45.5124 110.999759)"/><path d="m257.158 216.515c-3.857 0-6.982-3.126-6.984-6.983v-79.148c.002-3.857 3.127-6.982 6.984-6.983l120.585.001c3.856 0 6.982 3.125 6.984 6.982v79.149h-.002c0 3.857-3.126 6.983-6.982 6.984zm-5.586-86.131v79.149c.006 3.084 2.502 5.581 5.587 5.586h120.585c3.083-.005 5.579-2.501 5.586-5.586v-79.149c-.007-3.084-2.502-5.58-5.586-5.586h-120.586c-3.084.006-5.581 2.5-5.586 5.586z" transform="matrix(.965926 -.258819 .258819 .965926 -33.171755 87.953417)"/><path d="m240.887 236.21c-1.929 0-3.492-1.562-3.492-3.49v-123.611c0-1.929 1.562-3.491 3.492-3.492h153.638c1.929.001 3.492 1.564 3.492 3.492v123.611c0 1.928-1.562 3.49-3.492 3.492zm-2.096-127.101v123.611c.003 1.156.939 2.092 2.096 2.093h153.638c1.156-.001 2.092-.937 2.095-2.093v-123.611c-.003-1.156-.939-2.093-2.095-2.094h-153.638c-1.157.001-2.093.938-2.096 2.094z" transform="matrix(.965926 -.258819 .258819 .965926 -33.410348 88.052101)"/><path d="m188.592 263.919c-.772 0-1.397-.625-1.397-1.396v-165.046c0-.772.625-1.397 1.397-1.397h262.816c.771 0 1.396.624 1.397 1.397v165.046h-.001c0 .772-.626 1.396-1.396 1.397zm0-166.442v165.046h262.815l.001-165.046-262.816-.002z" transform="matrix(.965926 -.258819 .258819 .965926 -35.683683 88.955419)"/><path d="m192.721 168.658c-2.313 0-4.188-1.875-4.188-4.19v-21.649c0-2.315 1.875-4.189 4.188-4.189h26.305c2.315 0 4.191 1.874 4.191 4.189v21.649c0 2.315-1.876 4.19-4.191 4.19zm-2.793-25.839v21.649c.003 1.542 1.252 2.791 2.793 2.794h26.305c1.543-.003 2.791-1.252 2.794-2.794v-21.649c-.003-1.542-1.251-2.791-2.794-2.794h-26.305c-1.541.003-2.79 1.252-2.793 2.794z" transform="matrix(.965926 -.258819 .258819 .965926 -32.750953 58.51961)"/></g></svg>