<svg xmlns="http://www.w3.org/2000/svg"><g fill="#fff"><path d="m51.159 19.503c-4.113-5.826-10.893-9.627-18.564-9.627-12.555 0-22.722 10.17-22.722 22.719 0 12.543 10.167 22.716 22.722 22.716 9.108 0 16.965-5.367 20.592-13.11h-20.055v-10.329h32.028c.012.243.021.48.021.723 0 3.339-.501 6.57-1.437 9.606-4.098 13.308-16.491 22.995-31.149 22.995-18 0-32.595-14.604-32.595-32.601 0-18.006 14.595-32.595 32.595-32.595 13.341 0 24.804 8.025 29.85 19.503z"/><path d="m99.756.645v.003l-41.184 62.019h12.75l8.799-13.248h19.635v13.272h10.623v-62.046zm-12.585 38.151 12.585-18.945v18.945z"/><path d="m193.557.645v.003l-28.401 42.753v-42.756h-10.62l-41.187 62.019h12.762l28.425-42.816v42.843h10.62v-.075l28.401-42.768v42.843h10.62v-62.046z"/><path d="m245.037 11.271v-10.626h-32.268v62.061l10.62-.039h21.648v-10.626h-21.648v-14.46h21.648v-10.62h-21.648v-15.69z"/><path d="m312.666 42.279c3.405-7.665 8.52-19.185 8.52-19.185h-10.422l-5.484 12.366-8.169-7.545c3.741-3.003 7.026-6.804 7.026-13.146 0-3.402-1.347-6.615-3.771-9.051-2.775-2.769-6.678-4.356-10.725-4.356-7.011 0-14.271 5.016-14.271 13.407 0 5.847 3.222 9.624 6.417 12.423-5.919 4.191-11.073 8.655-11.073 17.862 0 5.226 1.89 9.978 5.319 13.407 3.459 3.465 8.289 5.37 13.608 5.37 10.068 0 15.066-4.872 18.891-12.408l12.354 11.418 6.471-6.993zm-26.769-29.934c.897-.903 2.34-1.455 3.744-1.455 1.497 0 3.021.6 3.984 1.56.669.666.993 1.422.993 2.319 0 2.676-1.281 4.131-4.785 6.723-3.063-2.454-4.938-4.161-4.938-6.723 0-.951.327-1.749 1.002-2.424m15.108 32.736c-3.285 7.323-5.619 9.219-11.364 9.219-2.82 0-5.19-.894-6.876-2.565-1.656-1.662-2.526-3.969-2.526-6.681 0-5.004 2.574-6.99 8.907-11.379.033-.021.069-.048.093-.069l11.955 11.046z"/><path d="m448.629 2.175-41.184 62.022h12.75l8.799-13.245h19.635v13.275h10.626v-62.052zm-12.588 38.157 12.588-18.942v18.942z"/><path d="m361.728 64.227v-.003l28.389-42.765v42.768h10.623v-.003l41.187-62.022h-12.756l-28.431 42.81v-42.837h-10.623v.081l-28.389 42.756v-42.837h-10.626v62.052z"/><path d="m589.374 2.175v24.981h-19.179v-24.981h-10.62v62.04h10.62v-26.43h19.179v26.43h10.626v-62.04z"/><path d="m498.078 2.175h-34.671v10.62h12.027v51.42h10.626v-51.42h12.018z"/><path d="m544.563 47.493c-4.08 4.533-9.978 7.377-16.557 7.377-12.312 0-22.29-9.975-22.29-22.275 0-12.306 9.978-22.281 22.29-22.281 6.474 0 12.306 2.91 16.371 7.383h12.444c-5.439-10.347-16.305-17.658-28.815-17.658-17.979 0-32.553 14.577-32.553 32.556 0 17.976 14.574 32.562 32.553 32.562 12.6 0 23.526-7.188 28.935-17.664z"/></g></svg>