<svg xmlns="http://www.w3.org/2000/svg"><g fill="#1e1e1e"><path d="m264.273 103.101c-5.982 0-9.666.384-14.227 1.795-4.562 1.41-9.983 3.823-19.587 7.903-19.168 8.144-25.798 7.558-31.403 8.256-3.033.378-5.031 1.509-6.324 4.067s-1.967 6.474-2.721 12.636c-1.508 12.313-4.019 35.556-4.271 53.671-.125 9.016-1.021 17.725.245 25.162 1.266 7.439 4.776 13.618 13.329 17.302 15.813 6.81 25.565 6.192 42.329 12.948 16.926 6.822 43.067 10.066 70.224 10.066h15.831.435c27.158 0 53.302-3.245 70.224-10.066 16.764-6.756 26.516-6.139 42.328-12.948 8.555-3.683 12.064-9.862 13.33-17.303 1.266-7.436.37-16.145.245-25.162-.251-18.118-2.764-41.359-4.271-53.671-.755-6.162-1.428-10.078-2.72-12.636-1.293-2.566-3.291-3.695-6.325-4.074-5.605-.699-12.234-.111-31.408-8.256-9.601-4.08-15.037-6.493-19.599-7.903-4.561-1.41-8.23-1.795-14.211-1.795h-46.098-19.272-46.085zm0 .869h46.085 19.273 46.098c5.946 0 9.476.37 13.955 1.756 4.478 1.383 9.909 3.792 19.519 7.875 19.252 8.179 26.175 7.643 31.636 8.323 2.884.36 4.462 1.248 5.645 3.591 1.184 2.343 1.887 6.207 2.639 12.351 1.506 12.297 4.021 35.529 4.27 53.575.127 9.066 1.005 17.756-.23 25.014-1.236 7.259-4.502 13.069-12.814 16.647-15.674 6.752-25.426 6.117-42.315 12.923-16.636 6.704-42.532 9.975-69.462 10.01-.145 0-.288 0-.434 0h-16.268c-27.088 0-53.17-3.27-69.897-10.01-16.888-6.804-26.638-6.167-42.313-12.918-8.312-3.583-11.577-9.393-12.813-16.648-1.236-7.261-.358-15.949-.232-25.015.251-18.045 2.765-41.279 4.271-53.579.753-6.144 1.442-10.008 2.625-12.351 1.184-2.343 2.775-3.231 5.659-3.591 5.461-.68 12.384-.145 31.638-8.324 9.607-4.082 15.025-6.491 19.504-7.875 4.479-1.386 8.022-1.756 13.968-1.756z" transform="matrix(.965926 -.258819 .258819 .965926 -35.683669 88.955367)"/><path d="m316.028 120.008c-32.421-.001-49.428 2.65-56.366 3.4-3.581.387-5.833 1.903-7.208 4.434-1.377 2.531-1.935 6.007-2.408 10.446-.95 8.927-4.625 64.961-2.816 81.475.25 2.276.477 5.519 2.734 8.637 2.258 3.119 6.513 6.063 14.677 7.931 16.242 3.713 37.632 5.984 46.559 5.984h18.227c8.925 0 30.316-2.271 46.558-5.984 8.165-1.869 12.419-4.812 14.677-7.931 2.257-3.118 2.485-6.36 2.733-8.637 1.81-16.514-1.879-72.548-2.828-81.475-.473-4.438-1.032-7.915-2.408-10.446-1.375-2.531-3.626-4.047-7.208-4.434-6.936-.75-23.944-3.4-56.365-3.4h-8.556zm0 .87h8.554c32.374 0 49.267 2.63 56.27 3.387 3.388.366 5.282 1.68 6.543 3.998 1.26 2.319 1.843 5.707 2.312 10.119.933 8.78 4.587 65.116 2.816 81.284-.253 2.308-.465 5.307-2.571 8.216-2.107 2.91-6.139 5.766-14.173 7.603-16.155 3.695-37.576 5.959-46.354 5.959h-18.227c-8.778 0-30.213-2.263-46.367-5.959-8.034-1.837-12.067-4.693-14.173-7.603-2.106-2.909-2.317-5.908-2.57-8.216-1.772-16.17 1.895-72.504 2.828-81.284.47-4.412 1.039-7.8 2.299-10.119 1.261-2.318 3.156-3.632 6.543-3.998 7.002-.757 23.897-3.387 56.27-3.387z" transform="matrix(.965926 -.258819 .258819 .965926 -35.973657 89.07571)"/><path d="m258.169 132.837c-.755 0-1.375.618-1.375 1.374v78.985c0 .754.62 1.373 1.375 1.373h120.295c.755 0 1.374-.619 1.374-1.373v-.435-78.551c0-.755-.619-1.374-1.374-1.374h-120.295zm0 .87h120.295c.285 0 .504.218.504.503v78.985c0 .286-.219.503-.504.503h-120.295c-.285 0-.504-.217-.504-.503v-78.985c0-.285.219-.503.504-.503z" transform="matrix(.965926 -.258819 .258819 .965926 -34.111152 88.304986)"/><g transform="matrix(.490656 -.131471 .131471 .490656 149.759796 132.839966)"><path d="m129.542 228.164c0-5.183 4.201-9.384 9.386-9.384v.857.855c-4.238.009-7.665 3.438-7.673 7.671.008 4.236 3.435 7.665 7.673 7.671 4.236-.006 7.663-3.435 7.671-7.671-.008-4.233-3.435-7.662-7.671-7.671v-.855-.857c5.183 0 9.384 4.201 9.384 9.384 0 5.183-4.201 9.384-9.384 9.386-5.184-.002-9.386-4.203-9.386-9.386z"/><path d="m96.121 226.993c-4.25-1.081-7.08-4.896-7.08-9.089 0-.765.093-1.542.29-2.314 1.079-4.25 4.895-7.082 9.091-7.082.762 0 1.539.092 2.313.292l40.496 10.271-.422 1.659-40.498-10.271c-.634-.163-1.266-.238-1.889-.238-3.424 0-6.55 2.314-7.43 5.794-.162.63-.238 1.264-.238 1.89 0 3.422 2.313 6.549 5.79 7.428l40.494 10.271h.002l-.422 1.662z"/></g><g transform="matrix(.490656 -.131471 .131471 .490656 149.759796 132.839966)"><path d="m129.542 257.58c.002-5.183 4.201-9.384 9.386-9.386v.858.856c-4.236.008-7.665 3.437-7.671 7.671.006 4.236 3.435 7.662 7.671 7.671 4.237-.009 7.665-3.435 7.671-7.671-.006-4.234-3.434-7.663-7.671-7.671v-.856-.858c5.185.002 9.384 4.203 9.384 9.386 0 5.183-4.202 9.384-9.384 9.386-5.183-.002-9.385-4.203-9.386-9.386z"/><path d="m96.123 256.409c-4.251-1.077-7.083-4.896-7.083-9.091 0-.765.094-1.542.291-2.313 1.079-4.249 4.894-7.082 9.089-7.082.765 0 1.542.093 2.315.293l40.497 10.271-.422 1.661-40.499-10.271c-.634-.164-1.266-.238-1.892-.238-3.422 0-6.548 2.313-7.428 5.791-.162.63-.237 1.264-.237 1.89 0 3.426 2.313 6.551 5.789 7.43l40.495 10.271v.002l-.422 1.658z"/></g><path d="m431.122 169.273c-.224-.036-.46-.043-.693.014l-28.305 6.897c-.937.226-1.507 1.185-1.279 2.12.227.937 1.172 1.522 2.108 1.293l28.305-6.895c.936-.228 1.519-1.187 1.292-2.123-.17-.702-.753-1.194-1.428-1.306zm-.476.871c.479-.116.945.16 1.061.639.117.479-.175.959-.653 1.075l-28.305 6.882c-.479.117-.945-.16-1.061-.639-.117-.479.174-.959.653-1.075z" transform="matrix(.965926 -.258819 .258819 .965926 -30.951308 113.793163)"/><path d="m432.566 174.658c-.224-.036-.46-.03-.694.028l-28.304 6.897c-.937.227-1.507 1.185-1.28 2.122.228.935 1.173 1.506 2.109 1.279l28.305-6.883c.936-.227 1.519-1.186 1.292-2.123-.171-.701-.753-1.208-1.429-1.319v-.001zm-.476.872c.478-.117.944.174 1.061.652.116.48-.175.958-.654 1.075l-28.304 6.882c-.48.116-.944-.16-1.061-.639s.174-.958.653-1.075z" transform="matrix(.965926 -.258819 .258819 .965926 -32.296844 114.350502)"/><path d="m434.012 180.057c-.224-.036-.46-.03-.693.028l-28.305 6.895c-.937.227-1.507 1.173-1.279 2.109.227.937 1.173 1.52 2.108 1.292l28.305-6.882c.936-.227 1.52-1.186 1.292-2.122-.17-.702-.753-1.207-1.428-1.32zm-.475.87c.478-.116.944.175 1.06.654.117.478-.174.945-.653 1.062l-28.305 6.895c-.479.116-.943-.174-1.061-.653-.116-.478.174-.944.654-1.06l28.3-6.896z" transform="matrix(.965926 -.258819 .258819 .965926 -33.644602 114.908675)"/><path d="m435.46 185.46c-.223-.037-.459-.03-.693.027l-28.308 6.899c-.937.228-1.506 1.173-1.279 2.108.228.936 1.172 1.521 2.108 1.293l28.305-6.897c.936-.227 1.52-1.172 1.292-2.107-.171-.703-.754-1.208-1.428-1.32zm-.475.87c.478-.116.944.174 1.061.653.116.478-.175.944-.654 1.061l-28.308 6.894c-.479.117-.944-.173-1.061-.653-.116-.478.174-.944.652-1.062l28.305-6.894z" transform="matrix(.965926 -.258819 .258819 .965926 -34.994077 115.466919)"/><path d="m436.906 190.857c-.224-.036-.459-.029-.693.028l-28.305 6.883c-.936.227-1.507 1.185-1.279 2.121.228.937 1.173 1.521 2.109 1.293l28.305-6.896c.935-.228 1.519-1.173 1.291-2.108-.17-.703-.752-1.209-1.428-1.321zm-.475.871c.478-.117.944.175 1.061.653.116.478-.175.944-.654 1.061l-28.304 6.896c-.48.117-.945-.174-1.062-.653-.116-.478.175-.944.654-1.06l28.3-6.894z" transform="matrix(.965926 -.258819 .258819 .965926 -36.341416 116.025861)"/><path d="m404.241 140.338c-5.126 0-9.277 4.166-9.277 9.291 0 5.122 4.151 9.289 9.277 9.289 5.123 0 9.288-4.166 9.288-9.289.001-5.125-4.165-9.291-9.288-9.291zm0 .87c4.653 0 8.418 3.765 8.418 8.421 0 4.652-3.765 8.418-8.418 8.418-4.655 0-8.407-3.766-8.407-8.418.001-4.655 3.752-8.421 8.407-8.421z" transform="matrix(.965926 -.258819 .258819 .965926 -24.952204 109.725101)"/><path d="m426.357 125.611c-5.123 0-9.276 4.166-9.276 9.29 0 5.125 4.153 9.291 9.276 9.291 5.124 0 9.29-4.166 9.29-9.291 0-5.124-4.165-9.29-9.29-9.29zm0 .872c4.654 0 8.42 3.766 8.42 8.418 0 4.655-3.766 8.42-8.42 8.42-4.653 0-8.405-3.765-8.405-8.42 0-4.653 3.752-8.418 8.405-8.418z" transform="matrix(.965926 -.258819 .258819 .965926 -20.387078 114.947743)"/><path d="m393.698 106.234c-1.658 0-3.006 1.348-3.006 3.004 0 1.658 1.348 3.006 3.006 3.006 1.656 0 3.005-1.348 3.005-3.006 0-1.656-1.35-3.004-3.005-3.004zm0 .869c1.185 0 2.134.949 2.134 2.135 0 1.187-.949 2.136-2.134 2.136-1.188 0-2.136-.949-2.136-2.136 0-1.186.948-2.135 2.136-2.135z" transform="matrix(.965926 -.258819 .258819 .965926 -14.858218 105.618606)"/><path d="m216.129 177.254c-1.587 0-2.884 1.296-2.884 2.883v8.433c0 .16-.037.189-.026.177.01-.011.035 0-.055 0h-8.528c-1.587 0-2.883 1.296-2.883 2.884v6.528c0 1.588 1.296 2.884 2.883 2.884h8.46c.02 0 .056.017.081.041.026.024.068.067.068.231v8.337c0 1.589 1.297 2.885 2.884 2.885h6.529c1.588 0 2.885-1.296 2.885-2.885v-8.459c0-.153.011-.132 0-.123-.013.009.055-.028.231-.028h8.378c1.588 0 2.884-1.295 2.884-2.883v-6.529c0-1.588-1.296-2.884-2.884-2.884h-8.405c-.14 0-.147-.02-.163-.041-.017-.021-.04-.093-.04-.204l-.003-8.374c0-1.588-1.295-2.884-2.883-2.884h-6.53zm0 .87h6.529c1.118 0 2.013.896 2.013 2.013v8.365c0 .242.048.518.231.749.184.231.506.367.844.367h8.405c1.117 0 2.014.896 2.014 2.013v6.528c0 1.117-.897 2.013-2.014 2.013h-8.378c-.256 0-.523.021-.762.204-.239.184-.34.513-.34.817v8.459c0 1.117-.896 2.014-2.013 2.014h-6.529c-1.116 0-2.013-.897-2.013-2.014v-8.337c0-.353-.122-.66-.326-.857-.205-.197-.462-.286-.694-.286h-8.46c-1.117 0-2.013-.896-2.013-2.013v-6.529c0-1.117.896-2.012 2.013-2.012h8.528c.24 0 .518-.078.707-.286.19-.208.245-.475.245-.762v-8.433c0-1.116.897-2.013 2.013-2.013z" transform="matrix(.965926 -.258819 .258819 .965926 -42.965526 63.424133)"/></g></svg>