<svg xmlns="http://www.w3.org/2000/svg"><g fill="#fff"><path d="m573.944.968h26.056l-36.734 57.146-5.959 44.582h-23.547l6.901-50.87-23.547-50.858h25.43l12.563 28.89z"/><path d="m299.546 62.507h31.074l3.141-22.605h-30.764l2.203-16.329h35.781l3.461-22.605h-59.34l-14.129 101.728h59.022l3.141-22.614h-35.79z"/><path d="m118.703 52.454 7.85-21.033 2.514 21.033h-10.361zm-8.476 20.094h21.347l3.772 30.139h38.614l17.898-55.257 8.792 55.257h20.409l22.605-58.395 3.768 58.395h22.602l-6.279-101.722h-27.001l-21.039 53.685-8.164-53.685h-24.174l-27.629 83.513-10.361-83.513h-30.139l-33.597 84.452 4.396-32.963h-40.82l-2.827 20.091h17.898l-1.258 6.907c-3.138 1.882-10.358 2.199-13.185 2.199-2.824 0-23.86-1.882-22.919-24.49.935-22.602 31.074-43.639 66.865-32.022l3.457-21.664c-23.863-8.161-86.533-3.593-92.936 52.43-3.765 32.967 26.377 48.665 46.468 48.354 11.616.628 24.805-3.768 29.512-6.282l-1.569 4.71h23.863l11.616-30.139z"/><path d="m491.682.029c-16.326-.63-39.875 8.79-47.723 46.779-7.848 37.987 13.185 53.372 32.652 55.885 19.467 2.511 46.782-9.733 51.803-46.151 5.03-36.421-12.878-55.571-36.732-56.513zm-2.507 21.664c6.593 0 20.719 4.396 17.264 30.764-3.451 26.373-19.777 29.514-25.742 28.887-5.969-.631-18.212-4.71-14.758-28.887 3.461-24.171 16.33-31.081 23.242-30.764z"/><path d="m392.467 39.902h13.188c9.731 0 11.617-6.279 11.927-8.789.314-2.513-2.51-7.537-7.531-7.537h-15.384l-2.191 16.326zm-5.651 40.186h17.898c9.73 0 11.927-7.534 12.241-10.047.314-2.51-2.511-7.534-7.534-7.534h-20.092l-2.51 17.581zm-26.365 22.605 14.13-101.722h43.324c10.364 0 25.432 11.933 23.55 27.942-1.883 16.013-6.907 16.957-10.362 19.467 5.341 4.707 10.675 12.241 8.479 26.371-2.2 14.13-13.816 27.942-34.221 27.942h-44.897z"/><path d="m123.79 113.833h-13.321l-31.395 52.859h37.378v-11.719h-15.234l15.234-27.324 22.083 39.106h17.023v-.124h26.582c23.006 0 34.541-8.882 34.541-26.458 0-3.023-.371-5.859-1.174-8.511l21.217 34.972h10.177l30.531-52.735h-16.16l-19.063 34.535-20.106-34.538h-17.392l4.81 7.893c-5.609-5.304-13.692-7.893-24.237-7.893h-34.973v43.85zm41.571 11.963h20.049c10.419 0 15.723 4.565 15.723 13.692 0 5.492-1.662 9.502-4.809 11.596-3.024 2.16-8.759 3.207-16.776 3.207h-14.124v-28.495z"/><path d="m299.944 113.833h-13.384l-31.274 52.856h15.792v-.124h21.585v-11.779h-15.107l14.987-27.198 22.08 39.101h17.207v-.124h8.759v-31.886l39.906 31.886h10.361v-52.732h-13.816v31.515l-40.277-31.515h-10.301v43.852z"/><path d="m398.752 116.79c-2.16 1.916-3.268 5.367-3.268 10.304v26.15c0 5.057 1.108 8.511 3.205 10.424 2.036 1.913 5.735 2.9 11.166 2.9h31.023c5.368 0 9.251-.987 11.288-2.9 2.033-1.91 3.207-5.367 3.207-10.424v-7.341l-15.234-.244v8.14h-29.484v-27.692h29.484v7.217h15.234v-6.23c0-5.181-1.171-8.636-3.207-10.304-2.037-2.034-5.612-3.02-11.288-3.02h-31.023c-5.367.063-9.07.989-11.103 3.02z"/><path d="m475.664 133.385v-7.589h41.137v-11.963h-56.371v52.732h57.049v-12.211h-41.815v-9.374h24.116v-11.595z"/></g></svg>