<svg xmlns="http://www.w3.org/2000/svg"><g fill="#1e1e1e"><path d="m243.337 164.281c-12.348 0-22.373 10.024-22.373 22.373v19.53c0 12.349 10.025 22.372 22.373 22.372h20.198c12.348 0 22.373-10.023 22.373-22.372v-19.529c0-12.349-10.025-22.374-22.373-22.374zm0 .995h20.198c11.811 0 21.379 9.567 21.379 21.379v19.529c0 11.812-9.568 21.378-21.379 21.378h-20.198c-11.812 0-21.378-9.566-21.378-21.378v-19.53c0-11.812 9.566-21.379 21.378-21.378z" transform="matrix(.965926 -.258819 .258819 .965926 -42.201177 72.286743)"/><path d="m247.968 169.554c-1.686 0-3.061 1.374-3.061 3.061v6.805c0 1.686 1.375 3.06 3.061 3.06s3.06-1.374 3.06-3.06v-6.805c0-1.686-1.374-3.061-3.06-3.061zm0 .995c1.149 0 2.066.917 2.066 2.066v6.805c0 1.148-.918 2.066-2.066 2.066-1.149 0-2.066-.918-2.066-2.066v-6.805c-.001-1.149.917-2.066 2.066-2.066z" transform="matrix(.965926 -.258819 .258819 .965926 -37.107258 70.176333)"/><path d="m229.637 198.815c-1.686 0-3.061 1.374-3.061 3.061s1.374 3.077 3.061 3.077h6.805c1.685 0 3.061-1.39 3.061-3.077 0-1.685-1.375-3.061-3.061-3.061zm0 .995h6.805c1.149 0 2.066.918 2.066 2.066 0 1.149-.918 2.081-2.066 2.081h-6.805c-1.148-.004-2.065-.934-2.065-2.082 0-1.149.918-2.067 2.066-2.067z" transform="matrix(.965926 -.258819 .258819 .965926 -44.310788 67.194083)"/><path d="m258.901 210.345c-1.686 0-3.061 1.39-3.061 3.077v6.805c0 1.686 1.374 3.061 3.061 3.061 1.686 0 3.06-1.375 3.06-3.061v-6.805c0-1.686-1.374-3.077-3.06-3.077zm0 .995c1.148 0 2.065.934 2.065 2.082v6.805c0 1.149-.917 2.066-2.065 2.066-1.15 0-2.067-.918-2.067-2.066v-6.805c0-1.149.918-2.082 2.067-2.082z" transform="matrix(.965926 -.258819 .258819 .965926 -47.294413 74.396212)"/><path d="m270.424 187.884c-1.685 0-3.06 1.374-3.06 3.061 0 1.686 1.374 3.077 3.06 3.077h6.821c1.685 0 3.061-1.39 3.061-3.077 0-1.686-1.375-3.061-3.061-3.061zm0 .994h6.821c1.148 0 2.066.919 2.066 2.067 0 1.149-.918 2.082-2.066 2.082h-6.821c-1.148 0-2.066-.934-2.066-2.082 0-1.149.918-2.067 2.066-2.067z" transform="matrix(.965926 -.258819 .258819 .965926 -40.09156 77.380259)"/><path d="m232.69 182.467-.684.684 4.257 6.276.342.497.42-.419 2.019-2.02.42-.42-.498-.341z" transform="matrix(.965926 -.258819 .258819 .965926 -40.15847 67.357184)"/><path d="m244.091 210.393-.341.497-4.258 6.277.684.684 6.277-4.257.498-.342-.42-.419-2.02-2.02z" transform="matrix(.965926 -.258819 .258819 .965926 -47.131268 70.246362)"/><path d="m270.277 202.913-.42.419-2.02 2.02-.434.42.497.342 6.277 4.256.699-.684-4.258-6.276z" transform="matrix(.965926 -.258819 .258819 .965926 -44.24389 77.217187)"/><path d="m266.696 174.986-6.276 4.256-.498.341.435.421 2.02 2.019.42.42.341-.498 4.257-6.276z" transform="matrix(.965926 -.258819 .258819 .965926 -37.270757 74.329352)"/><path d="m242.451 159.26c-14.443 0-26.163 11.722-26.163 26.166v21.983c0 14.444 11.72 26.165 26.163 26.165h21.985c14.444 0 26.164-11.721 26.164-26.165v-21.983c0-14.444-11.719-26.166-26.164-26.166zm0 .996h21.985c13.908 0 25.169 11.262 25.169 25.17v21.983c0 13.909-11.263 25.171-25.169 25.171h-21.985c-13.906-.001-25.169-11.262-25.169-25.171v-21.983c0-13.908 11.263-25.17 25.169-25.17z" transform="matrix(.965926 -.258819 .258819 .965926 -42.20055 72.288858)"/><path d="m200.017 124.243v.497 105.943.497h.497 102.374.497v-.497-13.781h151.126.497v-.497-59.224-.497h-.497-151.127v-31.944-.497h-.497-102.373zm.993.994h101.379v31.944.497h.498.373 150.754v58.229h-150.973-.155-.498v.498 13.78h-101.379v-104.949z" transform="matrix(.965926 -.258819 .258819 .965926 -34.835378 90.821763)"/><path d="m374.971 160.788c-10.316 0-18.676 8.376-18.676 18.691s8.362 18.691 18.676 18.691c10.313 0 18.691-8.376 18.691-18.691s-8.377-18.691-18.691-18.691zm0 .995c9.776 0 17.696 7.918 17.696 17.696s-7.92 17.697-17.696 17.697c-9.778 0-17.682-7.919-17.682-17.697 0-9.777 7.904-17.696 17.682-17.696z" transform="matrix(.965926 -.258819 .258819 .965926 -33.675494 103.167143)"/><path d="m374.969 165.248c-7.85 0-14.216 6.382-14.216 14.232s6.366 14.216 14.216 14.216c7.849 0 14.232-6.366 14.232-14.216s-6.383-14.232-14.232-14.232zm0 .994c7.312 0 13.237 5.925 13.237 13.237 0 7.313-5.925 13.222-13.237 13.222-7.313 0-13.222-5.909-13.222-13.222 0-7.312 5.909-13.237 13.222-13.237z" transform="matrix(.965926 -.258819 .258819 .965926 -33.673736 103.16651)"/><path d="m419.96 148.736c-10.316 0-18.692 8.376-18.692 18.691s8.376 18.69 18.692 18.69c10.314 0 18.69-8.375 18.69-18.69s-8.376-18.691-18.69-18.691zm0 .994c9.777 0 17.696 7.919 17.696 17.697s-7.919 17.696-17.696 17.696c-9.778 0-17.697-7.919-17.697-17.696 0-9.778 7.919-17.697 17.697-17.697z" transform="matrix(.965926 -.258819 .258819 .965926 -29.023406 114.398263)"/><path d="m419.958 153.195c-7.851 0-14.216 6.383-14.216 14.232 0 7.85 6.365 14.216 14.216 14.216 7.848 0 14.215-6.366 14.215-14.216 0-7.849-6.366-14.232-14.215-14.232zm0 .995c7.312 0 13.221 5.925 13.221 13.237s-5.909 13.222-13.221 13.222c-7.313 0-13.222-5.91-13.222-13.222 0-7.313 5.909-13.237 13.222-13.237z" transform="matrix(.965926 -.258819 .258819 .965926 -29.021518 114.397628)"/><path d="m184.644 122.475c-2.487 0-4.522 2.034-4.522 4.522v106.007c0 2.488 2.035 4.521 4.523 4.521h270.727c2.312 0 4.154-1.78 4.413-4.024h.093v-.497-106.009c0-2.486-2.019-4.519-4.51-4.519l-270.728.001zm0 .994 270.728-.001c1.951 0 3.512 1.577 3.512 3.527v105.51.499c0 1.949-1.561 3.526-3.512 3.526h-270.727c-1.949.006-3.525-1.575-3.525-3.525l-.001-106.007c0-1.95 1.577-3.526 3.526-3.526z" transform="matrix(.965926 -.258819 .258819 .965926 -35.683669 88.955367)"/><path d="m353.261 157.877v.497 42.525.496h.498 42.523.498v-.496-42.525-.497h-.498-42.523zm.995.994h41.53v41.53h-41.53z" transform="matrix(.965926 -.258819 .258819 .965926 -33.714686 103.183304)"/><path d="m398.25 145.825v.497 42.524.497h.497 42.509.497v-.497-42.524-.497h-.497-42.509zm.994.994h41.514v41.53h-41.514z" transform="matrix(.965926 -.258819 .258819 .965926 -29.062724 114.414632)"/><path d="m211.114 163.157v1.197 83.028 1.212l.839-.855 13.222-13.206-.715-.715-12.352 12.368v-80.622l12.352 12.349.714-.699-13.221-13.206-.839-.855z" transform="matrix(.965926 -.258819 .258819 .965926 -45.850869 63.474891)"/><path d="m291.555 224.687-.715.699 12.368 12.367h-80.623l12.306-12.305-.715-.699-13.144 13.145-.855.854h1.197 83.029 1.196l-.839-.854-13.206-13.207z" transform="matrix(.965926 -.258819 .258819 .965926 -51.015198 75.935977)"/><path d="m295.766 144.238-.854.854-13.16 13.145.715.714 12.305-12.32v80.652l-12.336-12.352-.699.7 13.175 13.19.854.855v-1.212-83.029-1.196z" transform="matrix(.965926 -.258819 .258819 .965926 -38.549055 81.10476)"/><path d="m201.263 154.092.855.839 13.16 13.176.699-.7-12.305-12.32h80.622l-12.354 12.351.696.699 13.209-13.206.839-.839h-1.196-83.029z" transform="matrix(.965926 -.258819 .258819 .965926 -33.386299 68.634804)"/><path d="m199.089 155.312v113.824h.994v-113.824z" transform="matrix(.965926 -.258819 .258819 .965926 -48.126865 58.887982)"/><path d="m346.256 149.539v.498 6.913.497h.497 42.524.498v-.497-6.913-.498h-.498-42.524zm.995.995h41.53v5.919l-41.53-.001z" transform="matrix(.965926 -.258819 .258819 .965926 -27.187087 100.479534)"/><path d="m391.245 137.487v.497 6.913.498h.497 42.509.497v-.498-6.913-.497h-.497-42.509zm.994.994h41.515v5.919h-41.515z" transform="matrix(.965926 -.258819 .258819 .965926 -22.53511 111.710802)"/><path d="m296.011 110.156c-.515 0-.947.433-.947.949v27.67c0 .516.432.948.947.948h147.647c.514 0 .932-.434.932-.948v-26.117c0-1.378-1.123-2.501-2.501-2.501h-146.075-.003zm.047.996h146.03c.842 0 1.507.665 1.507 1.506v26.071h-147.537z" transform="matrix(.965926 -.258819 .258819 .965926 -19.735166 99.975389)"/><path d="m319.088 204.876c-.515 0-.947.433-.947.947v10.488c0 .515.433.947.947.947h146.076c1.378 0 2.502-1.139 2.502-2.516v-8.919c0-.514-.418-.947-.932-.947h-147.648zm.047.994h147.538v8.872c0 .84-.666 1.522-1.507 1.522h-146.031z" transform="matrix(.965926 -.258819 .258819 .965926 -41.240291 108.882804)"/><path d="m301.661 158.652-3.278 3.278.715.699 3.263-3.262z" transform="matrix(.965926 -.258819 .258819 .965926 -31.341878 83.215612)"/><path d="m315.929 221.474-.715.699 3.279 3.278.699-.714z" transform="matrix(.965926 -.25882 .25882 .965926 -47.028024 89.712763)"/></g></svg>