<svg xmlns="http://www.w3.org/2000/svg"><g fill="#fff"><path d="m143.403 103.494h45.081c18.423 0 33.417-14.997 33.417-33.417s-14.994-33.327-33.417-33.327h-11.754c-.927 0-1.671-.738-1.671-1.665 0-1.02.741-1.758 1.671-1.758h44.988l.093-14.073h-45.081c-8.703 0-15.738 7.038-15.738 15.741 0 8.793 7.032 15.921 15.738 15.921h11.754c10.551 0 19.164 8.61 19.164 19.164s-8.613 19.068-19.164 19.068h-45.081z"/><path d="m143.403 85.905h45.081c8.796 0 15.831-7.125 15.831-15.828s-7.035-15.831-15.831-15.831h-11.754c-10.551 0-19.071-8.7-19.071-19.254s8.52-19.068 19.071-19.068h45.078l-.093-14.256h-44.991c-18.42 0-33.324 14.901-33.324 33.417 0 18.42 14.904 33.324 33.324 33.324h11.664c.927 0 1.668.741 1.668 1.668 0 .924-.741 1.665-1.668 1.665h-44.988z"/><path d="m256.8 89.238c-7.773 0-14.16-6.204-14.16-14.163v-45.27c0-7.587 6.39-13.974 14.16-13.974h48.138v-14.163h-48.138c-15.642 0-28.323 12.681-28.323 28.326v45.081c0 15.645 12.678 28.329 28.323 28.329h47.955v-14.166z"/><path d="m246.063 29.991c0-5.922 4.812-10.83 10.737-10.83h48.138v14.163h-41.469c-3.336 0-3.336 3.33-3.336 3.33h34.62v14.166h-48.69z"/><path d="m256.8 85.815c-5.922 0-10.737-4.815-10.737-10.737v-20.832h48.69v14.16h-34.62c0 3.333 3.333 3.333 3.333 3.333h41.286v14.073z"/><path d="m338.724 89.238c-7.866 0-14.256-6.39-14.256-14.163v-45.081c0-7.776 6.393-14.163 14.166-14.163h46.659v-14.163h-46.752c-15.645 0-28.326 12.681-28.326 28.326v45.081c0 15.645 12.771 28.329 28.419 28.329h46.659v-66.744h-40.086v14.163h25.92v38.415z"/><path d="m327.798 75.075c0 5.925 4.911 10.833 10.833 10.833h29.16v-31.755h-22.587v14.256h8.424v3.333h-8.328c-1.854 0-3.333-1.569-3.333-3.333v-31.752s0-3.333 3.333-3.333h39.99v-14.166h-46.656c-5.925 0-10.833 4.908-10.833 10.833z"/><path d="m429.075 18.978c.645-1.851 2.313-3.144 4.353-3.144 2.034 0 3.705 1.296 4.353 3.144l22.584 67.023h-33.042v-15.738h11.109l-4.998-14.907-16.296 48.045h-16.662z"/><path d="m464.994 89.238h-37.677v14.163h57.3l-29.805-88.404c-2.595-8.61-11.205-14.997-21.39-14.997-10.179 0-18.789 6.294-21.381 14.997l-30.09 88.404h14.997l29.157-85.998c1.203-2.868 3.981-4.812 7.311-4.812 3.243 0 6.021 1.944 7.224 4.812z"/><path d="m98.07 195.786h-34.977v-3.963c1.266-.033 2.895-.165 4.884-.393 1.989-.222 3.354-.537 4.101-.951 1.155-.702 2.001-1.509 2.538-2.427.54-.909.807-2.052.807-3.429v-57.57h-.834l-27.003 67.446h-2.787l-25.719-68.838h-.723v47.25c0 4.572.288 8.052.864 10.431s1.458 4.089 2.652 5.127c.819.78 2.508 1.533 5.073 2.238 2.565.708 4.242 1.08 5.022 1.113v3.96h-31.968v-3.96c1.677-.147 3.432-.426 5.271-.834 1.842-.408 3.264-1.02 4.269-1.842 1.302-1.035 2.196-2.637 2.676-4.797.486-2.151.726-5.763.726-10.821v-40.506c0-2.34-.276-4.254-.837-5.742-.555-1.485-1.356-2.694-2.397-3.624-1.152-1.005-2.565-1.749-4.239-2.235-1.674-.48-3.33-.756-4.965-.837v-3.957h27l22.65 59.355 19.359-49.65c.705-1.818 1.311-3.726 1.812-5.718.504-1.989.774-3.321.81-3.99h25.83v3.96c-1.041.039-2.373.21-3.99.504-1.617.303-2.799.579-3.543.834-1.263.447-2.121 1.197-2.568 2.235-.447 1.041-.669 2.175-.669 3.402v57.069c0 1.302.222 2.397.669 3.291.447.888 1.302 1.674 2.568 2.337.672.378 1.863.723 3.573 1.035s3.066.495 4.071.528v3.963h-.006z"/><path d="m147.582 194.778c-1.746.636-3.279 1.143-4.602 1.536-1.32.39-2.817.585-4.491.585-2.904 0-5.214-.675-6.945-2.034-1.728-1.356-2.835-3.336-3.321-5.943h-.333c-2.418 2.676-5.013 4.728-7.785 6.138-2.769 1.416-6.108 2.118-10.014 2.118-4.128 0-7.521-1.257-10.179-3.795-2.661-2.526-3.987-5.835-3.987-9.93 0-2.118.297-4.02.891-5.691.597-1.674 1.491-3.177 2.679-4.515.93-1.11 2.157-2.106 3.681-2.985 1.527-.87 2.955-1.566 4.296-2.091 1.674-.633 5.067-1.806 10.179-3.516 5.115-1.707 8.565-3.045 10.35-4.017v-5.52c0-.483-.102-1.413-.309-2.79-.204-1.374-.639-2.679-1.311-3.906-.744-1.371-1.794-2.571-3.153-3.597-1.356-1.02-3.279-1.533-5.772-1.533-1.713 0-3.3.288-4.77.864-1.47.582-2.502 1.182-3.096 1.815 0 .747.177 1.839.531 3.291.354 1.446.531 2.787.531 4.014 0 1.302-.588 2.493-1.758 3.57-1.173 1.086-2.799 1.617-4.881 1.617-1.86 0-3.228-.657-4.101-1.98-.873-1.314-1.311-2.796-1.311-4.434 0-1.71.603-3.348 1.815-4.911 1.209-1.56 2.778-2.955 4.716-4.182 1.674-1.035 3.699-1.926 6.078-2.649 2.382-.729 4.704-1.089 6.975-1.089 3.123 0 5.844.216 8.172.639 2.325.432 4.434 1.35 6.333 2.763 1.893 1.38 3.336 3.246 4.32 5.604.987 2.367 1.479 5.406 1.479 9.123 0 5.319-.057 10.032-.165 14.139-.114 4.113-.165 8.604-.165 13.476 0 1.449.249 2.607.75 3.462.504.858 1.275 1.581 2.316 2.172.558.339 1.44.522 2.652.558 1.209.039 2.442.06 3.708.06v3.564zm-19.467-29.457c-3.162.933-5.931 1.839-8.313 2.736-2.382.891-4.593 2.004-6.636 3.345-1.863 1.266-3.33 2.763-4.41 4.488-1.077 1.731-1.617 3.792-1.617 6.165 0 3.093.807 5.355 2.427 6.807 1.617 1.449 3.669 2.175 6.162 2.175 2.64 0 4.965-.642 6.975-1.923 2.007-1.287 3.702-2.796 5.076-4.548z"/><path d="m177.513 168.837c1.524 1.341 2.697 2.886 3.516 4.629.819 1.752 1.227 3.891 1.227 6.414 0 5.1-1.908 9.264-5.715 12.498-3.813 3.234-8.754 4.854-14.814 4.854-3.198 0-6.147-.579-8.841-1.731-2.7-1.152-4.623-2.211-5.775-3.18l-1.116 3.627h-4.182l-.558-19.14h3.849c.297 1.449.927 3.147 1.896 5.073.966 1.935 2.139 3.681 3.516 5.244 1.449 1.641 3.186 3.015 5.214 4.131 2.028 1.113 4.305 1.677 6.834 1.677 3.57 0 6.324-.81 8.259-2.433 1.932-1.614 2.901-3.93 2.901-6.945 0-1.563-.306-2.904-.921-4.041-.615-1.131-1.515-2.124-2.706-2.985-1.227-.858-2.733-1.626-4.518-2.316-1.785-.687-3.774-1.368-5.97-2.037-1.749-.519-3.693-1.233-5.829-2.148-2.139-.912-3.972-1.986-5.496-3.21-1.635-1.299-2.976-2.904-4.017-4.797-1.041-1.896-1.563-4.128-1.563-6.693 0-4.5 1.674-8.31 5.022-11.439 3.348-3.123 7.83-4.686 13.446-4.686 2.151 0 4.359.279 6.609.831 2.247.564 4.08 1.23 5.496 2.01l1.284-2.901h4.014l.837 17.682h-3.849c-.78-3.942-2.463-7.149-5.049-9.624-2.586-2.472-5.736-3.708-9.459-3.708-3.048 0-5.448.765-7.197 2.289-1.746 1.53-2.619 3.369-2.619 5.523 0 1.677.285 3.069.864 4.185.576 1.116 1.44 2.061 2.595 2.844 1.113.747 2.517 1.446 4.212 2.094 1.692.651 3.783 1.392 6.276 2.202 2.454.78 4.77 1.695 6.945 2.733 2.175 1.059 3.969 2.214 5.382 3.474z"/><path d="m212.634 193.38c-2.421 1.008-4.707 1.854-6.864 2.541-2.157.69-4.797 1.029-7.92 1.029-4.614 0-7.86-1.155-9.735-3.483-1.881-2.322-2.82-5.607-2.82-9.843v-37.263h-9.93v-5.358h10.155v-17.127h10.152v17.127h15.786v5.358h-15.675v30.735c0 2.31.084 4.233.252 5.778.168 1.542.567 2.898 1.2 4.041.594 1.08 1.488 1.899 2.676 2.454 1.191.558 2.79.837 4.797.837.93 0 2.295-.084 4.101-.255 1.806-.168 3.078-.378 3.822-.642z"/><path d="m255.168 182.841c-2.304 4.389-5.391 7.887-9.258 10.488-3.867 2.604-8.313 3.9-13.335 3.9-4.422 0-8.301-.777-11.631-2.34-3.327-1.56-6.072-3.684-8.229-6.36-2.157-2.673-3.765-5.796-4.827-9.369s-1.59-7.338-1.59-11.322c0-3.57.57-7.074 1.704-10.518 1.134-3.435 2.799-6.534 4.992-9.285 2.121-2.637 4.752-4.77 7.893-6.39 3.144-1.62 6.669-2.427 10.575-2.427 4.014 0 7.455.636 10.317 1.896 2.865 1.266 5.187 2.997 6.972 5.187 1.713 2.088 2.985 4.545 3.822 7.368s1.257 5.895 1.257 9.201v3.681h-36.426c0 3.612.342 6.885 1.029 9.822.69 2.94 1.776 5.523 3.264 7.758 1.449 2.157 3.345 3.858 5.688 5.103 2.343 1.251 5.133 1.863 8.37 1.863 3.309 0 6.162-.768 8.562-2.316 2.4-1.536 4.716-4.32 6.945-8.334zm-12.327-20.976c0-2.082-.177-4.311-.531-6.693s-.921-4.368-1.701-5.97c-.852-1.707-2.025-3.096-3.516-4.185-1.485-1.074-3.402-1.614-5.742-1.614-3.909 0-7.152 1.626-9.738 4.881-2.583 3.255-3.987 7.782-4.209 13.581z"/><path d="m291.906 147.861c0 1.896-.465 3.579-1.395 5.049-.927 1.473-2.358 2.202-4.293 2.202-2.085 0-3.672-.54-4.773-1.62-1.095-1.074-1.644-2.265-1.644-3.567 0-.819.063-1.563.195-2.232.129-.672.249-1.341.36-2.007-1.746 0-3.795.705-6.135 2.118-2.343 1.416-4.332 3.423-5.973 6.024v32.019c0 1.308.255 2.367.756 3.186s1.293 1.431 2.37 1.839c.93.375 2.13.651 3.597.831 1.473.195 2.745.321 3.825.396v3.681h-29.01v-3.681c.855-.075 1.74-.144 2.649-.222.912-.072 1.701-.219 2.373-.45 1.038-.333 1.812-.918 2.313-1.755.501-.834.753-1.923.753-3.261v-33.972c0-1.152-.27-2.289-.807-3.405-.54-1.116-1.296-2.007-2.262-2.676-.705-.45-1.539-.768-2.508-.978-.969-.201-2.01-.339-3.126-.414v-3.627l18.297-1.23.78.783v7.755h.279c2.31-3.015 4.875-5.301 7.698-6.864 2.829-1.563 5.412-2.343 7.755-2.343s4.251.765 5.721 2.289 2.205 3.567 2.205 6.132z"/><path d="m351.321 159.468c1.671 1.863 2.907 3.897 3.705 6.111.804 2.214 1.206 4.791 1.206 7.725 0 6.996-2.592 12.762-7.758 17.295-5.169 4.539-11.583 6.804-19.245 6.804-3.534 0-7.065-.543-10.599-1.644-3.534-1.095-6.582-2.427-9.15-3.987l-2.397 4.074h-4.461l-.78-27.114h4.518c.93 3.345 2.019 6.372 3.264 9.066 1.248 2.7 2.892 5.214 4.938 7.56 1.932 2.196 4.191 3.942 6.774 5.244 2.586 1.302 5.589 1.95 9.006 1.95 2.568 0 4.806-.333 6.726-1.002 1.914-.672 3.471-1.623 4.659-2.847 1.188-1.227 2.067-2.667 2.649-4.323.579-1.65.867-3.561.867-5.718 0-3.156-.891-6.108-2.676-8.844-1.782-2.736-4.44-4.806-7.98-6.219-2.418-.969-5.187-2.04-8.31-3.21s-5.823-2.277-8.088-3.321c-4.461-2.007-7.932-4.638-10.407-7.893-2.475-3.252-3.708-7.506-3.708-12.75 0-3.009.615-5.817 1.839-8.424 1.23-2.601 2.976-4.929 5.244-6.975 2.157-1.929 4.707-3.447 7.644-4.545s6.009-1.644 9.204-1.644c3.645 0 6.909.555 9.792 1.674 2.88 1.113 5.514 2.421 7.89 3.9l2.289-3.792h4.464l.45 26.274h-4.518c-.816-3.012-1.737-5.889-2.763-8.652-1.02-2.748-2.346-5.241-3.987-7.473-1.599-2.154-3.552-3.879-5.856-5.163-2.307-1.281-5.133-1.926-8.478-1.926-3.531 0-6.546 1.14-9.039 3.402-2.49 2.274-3.738 5.043-3.738 8.313 0 3.423.798 6.258 2.4 8.508 1.599 2.253 3.924 4.101 6.972 5.55 2.715 1.302 5.382 2.427 8.001 3.369 2.622.954 5.163 1.968 7.617 3.045 2.235.966 4.377 2.064 6.441 3.294 2.058 1.239 3.852 2.67 5.379 4.308z"/><path d="m348.615 213.747c0-1.86.507-3.375 1.536-4.548 1.017-1.173 2.289-1.758 3.819-1.758 1.188 0 2.211.216 3.069.669.855.45 1.617 1.029 2.289 1.728.558.555 1.155 1.323 1.785 2.286.633.972 1.134 1.773 1.503 2.4 1.866-1.005 4.083-3.627 6.672-7.863 2.58-4.242 4.458-7.953 5.604-11.16-3.537-8.811-6.729-16.695-9.597-23.655-2.865-6.954-5.859-14.148-8.979-21.591-.705-1.707-1.899-3.042-3.57-3.99-1.674-.948-3.348-1.551-5.025-1.815v-3.681h25.107v3.906c-1.119.039-2.454.273-4.017.696-1.563.429-2.343.921-2.343 1.479 0 .222.084.597.252 1.116.168.522.36 1.062.588 1.614 1.413 3.684 3.567 8.997 6.471 15.93 2.904 6.942 5.151 12.486 6.75 16.653 1.674-3.981 3.414-8.094 5.214-12.354 1.806-4.26 3.828-9.288 6.057-15.09.261-.705.636-1.677 1.113-2.928.483-1.245.726-2.316.726-3.207 0-.966-.84-1.869-2.535-2.706-1.695-.834-3.3-1.35-4.83-1.536v-3.57h20.418v3.462c-1.116.189-2.589.828-4.407 1.923-1.824 1.101-3.183 2.652-4.074 4.659-4.428 10.266-8.367 19.617-11.799 28.059-3.444 8.445-6.054 14.655-7.839 18.63-2.343 5.214-4.434 9.273-6.276 12.192-1.839 2.922-3.639 5.217-5.385 6.888-1.713 1.563-3.264 2.616-4.653 3.153-1.392.537-2.841.81-4.32.81-2.904 0-5.181-.687-6.837-2.061-1.659-1.371-2.487-2.955-2.487-4.74z"/><path d="m433.497 168.837c1.521 1.341 2.694 2.886 3.513 4.629.819 1.752 1.227 3.891 1.227 6.414 0 5.1-1.908 9.264-5.715 12.498-3.816 3.234-8.751 4.854-14.814 4.854-3.195 0-6.15-.579-8.841-1.731-2.7-1.152-4.623-2.211-5.775-3.18l-1.119 3.627h-4.182l-.555-19.14h3.846c.294 1.449.927 3.147 1.899 5.073.969 1.935 2.136 3.681 3.516 5.244 1.449 1.641 3.186 3.015 5.217 4.131 2.022 1.113 4.302 1.677 6.831 1.677 3.567 0 6.321-.81 8.256-2.433 1.929-1.614 2.901-3.93 2.901-6.945 0-1.563-.306-2.904-.921-4.041-.615-1.131-1.518-2.124-2.709-2.985-1.224-.858-2.733-1.626-4.515-2.316-1.785-.687-3.777-1.368-5.97-2.037-1.752-.519-3.696-1.233-5.832-2.148-2.142-.912-3.969-1.986-5.493-3.21-1.635-1.299-2.979-2.904-4.02-4.797-1.044-1.896-1.563-4.128-1.563-6.693 0-4.5 1.677-8.31 5.025-11.439 3.348-3.123 7.824-4.686 13.443-4.686 2.154 0 4.365.279 6.609.831 2.247.564 4.083 1.23 5.499 2.01l1.284-2.901h4.014l.837 17.682h-3.849c-.78-3.942-2.466-7.149-5.043-9.624-2.589-2.472-5.736-3.708-9.459-3.708-3.051 0-5.454.765-7.2 2.289-1.749 1.53-2.619 3.369-2.619 5.523 0 1.677.285 3.069.864 4.185s1.44 2.061 2.595 2.844c1.116.747 2.523 1.446 4.215 2.094 1.686.651 3.783 1.392 6.276 2.202 2.457.78 4.77 1.695 6.948 2.733 2.166 1.059 3.963 2.214 5.379 3.474z"/><path d="m468.612 193.38c-2.415 1.008-4.704 1.854-6.864 2.541-2.154.69-4.794 1.029-7.917 1.029-4.611 0-7.86-1.155-9.738-3.483-1.878-2.322-2.817-5.607-2.817-9.843v-37.263h-9.927v-5.358h10.146v-17.127h10.158v17.127h15.786v5.358h-15.675v30.735c0 2.31.084 4.233.252 5.778.168 1.542.567 2.898 1.206 4.041.588 1.08 1.485 1.899 2.67 2.454 1.188.558 2.79.837 4.794.837.93 0 2.298-.084 4.101-.255 1.806-.168 3.078-.378 3.822-.642z"/><path d="m511.149 182.841c-2.304 4.389-5.391 7.887-9.261 10.488-3.867 2.604-8.313 3.9-13.335 3.9-4.413 0-8.298-.777-11.628-2.34-3.327-1.56-6.069-3.684-8.232-6.36-2.154-2.673-3.765-5.796-4.827-9.369s-1.587-7.338-1.587-11.322c0-3.57.57-7.074 1.701-10.518 1.134-3.435 2.802-6.534 4.992-9.285 2.118-2.637 4.752-4.77 7.893-6.39s6.669-2.427 10.569-2.427c4.02 0 7.458.636 10.32 1.896 2.865 1.266 5.187 2.997 6.975 5.187 1.71 2.088 2.985 4.545 3.822 7.368.831 2.823 1.251 5.895 1.251 9.201v3.681h-36.423c0 3.612.345 6.885 1.029 9.822.684 2.94 1.773 5.523 3.267 7.758 1.443 2.157 3.348 3.858 5.685 5.103 2.343 1.251 5.13 1.863 8.37 1.863 3.315 0 6.162-.768 8.565-2.316 2.4-1.536 4.716-4.32 6.951-8.334zm-12.33-20.976c0-2.082-.174-4.311-.528-6.693-.351-2.382-.921-4.368-1.701-5.97-.852-1.707-2.022-3.096-3.516-4.185-1.491-1.074-3.405-1.614-5.748-1.614-3.9 0-7.149 1.626-9.735 4.881-2.58 3.255-3.987 7.782-4.209 13.581z"/><path d="m599.991 195.786h-26.835v-3.687c.858-.072 1.722-.144 2.595-.219.873-.072 1.644-.222 2.313-.45 1.041-.336 1.815-.921 2.316-1.755.504-.834.756-1.926.756-3.261v-28.398c0-3.864-.885-6.849-2.655-8.952-1.767-2.1-3.966-3.15-6.606-3.15-1.821 0-3.534.276-5.133.834-1.599.555-3.066 1.335-4.404 2.343-1.083.822-1.983 1.698-2.712 2.649-.726.948-1.272 1.74-1.647 2.37v31.74c0 1.308.225 2.373.672 3.21.45.834 1.206 1.482 2.289 1.926.858.333 1.629.585 2.316.753.687.165 1.59.288 2.706.36v3.681h-26.268v-3.681c.855-.072 1.674-.144 2.478-.219.795-.072 1.533-.222 2.199-.453 1.044-.333 1.815-.921 2.316-1.755.504-.834.759-1.923.759-3.264v-28.395c0-3.864-.888-6.849-2.658-8.952-1.764-2.1-3.969-3.153-6.603-3.153-1.824 0-3.54.291-5.136.867-1.599.585-3.069 1.371-4.407 2.373-1.077.822-1.989 1.74-2.733 2.76-.744 1.029-1.299 1.797-1.677 2.316v31.521c0 1.263.264 2.328.783 3.177.522.861 1.299 1.509 2.337 1.959.78.372 1.584.648 2.4.831.825.189 1.728.318 2.733.393v3.684h-26.724v-3.684c.855-.072 1.737-.144 2.655-.222.906-.069 1.692-.219 2.37-.447 1.038-.333 1.812-.921 2.31-1.758.501-.834.753-1.92.753-3.264v-34.194c0-1.188-.264-2.259-.807-3.207-.54-.951-1.293-1.761-2.256-2.43-.708-.45-1.581-.81-2.622-1.086-1.041-.282-2.118-.453-3.237-.534v-3.624l18.414-1.227.78.78v7.866h.39c.93-.927 2.064-2.028 3.402-3.294 1.344-1.257 2.586-2.289 3.741-3.066 1.299-.891 2.931-1.632 4.887-2.232 1.95-.591 4.062-.894 6.33-.894 3.567 0 6.633.96 9.204 2.874 2.571 1.917 4.41 4.233 5.52 6.945 1.344-1.296 2.523-2.442 3.546-3.429 1.02-.984 2.373-2.034 4.044-3.153 1.416-.966 3.075-1.746 4.992-2.343 1.914-.588 4.041-.891 6.39-.891 4.647 0 8.328 1.53 11.049 4.572 2.709 3.051 4.068 7.74 4.068 14.064v27.945c0 1.305.222 2.37.675 3.21.447.831 1.206 1.482 2.289 1.923.855.336 1.698.585 2.535.756.837.162 1.773.288 2.817.357v3.684h-.006z"/></g></svg>