<svg preserveAspectRatio="none" xmlns="http://www.w3.org/2000/svg"><g fill="#1e1e1e"><g transform="matrix(.578387 -.154978 .154978 .578387 266.892365 148.881485)"><g><path d="m192.498 221.686c-.763 0-1.375-.62-1.377-1.377v-17.392c.002-.757.614-1.379 1.377-1.379h18.336c.759.002 1.375.614 1.377 1.379v17.392c-.002.765-.618 1.375-1.377 1.377zm17.714-1.999v-16.149h-17.089v16.149z"/><path d="m196.769 217.415c-1.387 0-2.507-1.122-2.507-2.506v-9.293c0-1.387 1.122-2.507 2.507-2.509l9.795.002c1.384 0 2.506 1.12 2.506 2.507v9.293c0 1.384-1.122 2.506-2.506 2.508zm-.508-11.799v9.293c.002.28.229.506.508.506l9.795.002c.279-.002.506-.228.508-.508v-9.293c-.002-.281-.228-.507-.508-.507l-9.795-.002c-.281.002-.506.228-.508.509z"/></g><g><path d="m212.447 221.686c-.761-.002-1.375-.616-1.377-1.377v-17.392c0-.761.616-1.379 1.377-1.379h18.336c.763.002 1.375.614 1.377 1.379v17.392c-.002.765-.616 1.375-1.377 1.377zm17.714-1.999v-16.149h-17.09v16.149z"/><path d="m216.718 217.415c-1.385 0-2.507-1.122-2.507-2.506v-9.293c0-1.387 1.122-2.507 2.507-2.509l9.794.002c1.385.002 2.504 1.122 2.507 2.507v9.293c0 1.384-1.12 2.506-2.507 2.508zm-.508-11.799v9.293c.002.28.227.506.508.506l9.794.002c.281-.002.506-.228.508-.508v-9.293c-.002-.283-.227-.507-.508-.507l-9.794-.002c-.281.002-.506.228-.508.509z"/></g><g><path d="m232.396 221.686c-.761-.002-1.375-.616-1.377-1.377v-17.392c0-.761.616-1.379 1.377-1.379h18.337c.763 0 1.375.622 1.377 1.379v17.392c-.002.757-.614 1.377-1.377 1.377zm17.712-1.999v-16.149h-17.088v16.149z"/><path d="m236.667 217.415c-1.386 0-2.506-1.122-2.506-2.506v-9.293c0-1.385 1.122-2.507 2.506-2.509l9.795.002c1.385 0 2.506 1.12 2.506 2.507v9.293c0 1.384-1.122 2.506-2.506 2.508zm-.506-11.799v9.293c0 .28.227.506.506.506l9.795.002c.279-.002.506-.228.508-.508v-9.293c-.002-.281-.227-.507-.508-.507l-9.795-.002c-.281.002-.506.226-.506.509z"/></g><g><path d="m252.346 221.685c-.763 0-1.375-.618-1.377-1.375l.002-17.394c0-.757.612-1.377 1.375-1.379l18.334.002c.763 0 1.377.62 1.377 1.377v17.394c0 .757-.616 1.375-1.377 1.377zm17.713-1.999v-16.147h-17.088v16.147z"/><path d="m256.615 217.416c-1.384 0-2.504-1.122-2.504-2.509v-9.292c0-1.385 1.122-2.507 2.504-2.507h9.797c1.384 0 2.506 1.122 2.506 2.507v9.292c0 1.385-1.12 2.509-2.506 2.509zm-.506-11.801v9.292c.002.281.229.509.506.509h9.797c.279 0 .506-.226.506-.509v-9.292c0-.281-.225-.507-.506-.507h-9.797c-.279 0-.504.226-.506.507z"/></g><g><path d="m272.294 221.686c-.763-.002-1.375-.616-1.377-1.377l.002-17.392c0-.761.612-1.377 1.375-1.379h18.336c.761.002 1.375.614 1.377 1.379v17.392c-.002.765-.618 1.375-1.377 1.377zm17.715-1.999v-16.149h-17.09v16.149z"/><path d="m276.564 217.416c-1.385 0-2.507-1.122-2.507-2.509v-9.292c0-1.385 1.125-2.507 2.507-2.507h9.797c1.384 0 2.506 1.122 2.506 2.507v9.292c0 1.387-1.12 2.509-2.506 2.509zm-.506-11.801v9.292c0 .281.227.509.506.509h9.797c.279 0 .506-.228.508-.509v-9.292c-.002-.281-.228-.507-.508-.507h-9.797c-.279 0-.506.226-.506.507z"/></g><g><path d="m292.246 221.686c-.763-.002-1.377-.616-1.379-1.377l.002-17.392c0-.761.614-1.379 1.377-1.379h18.334c.763.002 1.375.618 1.377 1.379v17.392h-.002c0 .761-.612 1.375-1.375 1.377zm17.709-1.999.002-16.149h-17.089v16.149z"/><path d="m296.515 217.415c-1.385 0-2.507-1.122-2.507-2.506v-9.293c0-1.387 1.122-2.507 2.507-2.509l9.797.002c1.384 0 2.506 1.12 2.506 2.507v9.293c0 1.384-1.122 2.506-2.506 2.508zm-.509-11.799v9.293c.002.28.229.506.508.506l9.797.002c.278-.002.506-.228.506-.508v-9.293c0-.281-.228-.507-.506-.507l-9.797-.002c-.281.002-.506.228-.508.509z"/></g><g><path d="m312.195 221.685c-.761 0-1.379-.614-1.379-1.375v-17.394c.002-.761.618-1.377 1.379-1.379l18.335.002c.761 0 1.375.616 1.377 1.377v17.394h-.002c0 .761-.614 1.375-1.375 1.377zm17.71-1.999.002-16.147h-17.09l-.002 16.147z"/><path d="m316.463 217.415c-1.384 0-2.506-1.122-2.506-2.506v-9.293c.002-1.385 1.122-2.505 2.506-2.509l9.797.002c1.383 0 2.507 1.12 2.507 2.507v9.293c-.002 1.386-1.122 2.506-2.507 2.508zm-.506-11.799v9.293c0 .28.226.506.506.506l9.797.002c.277-.002.507-.229.507-.508v-9.293c0-.281-.228-.507-.507-.507l-9.797-.002c-.28.002-.506.226-.506.509z"/></g><g><path d="m332.143 221.685c-.764 0-1.374-.618-1.376-1.376v-17.393c.002-.757.612-1.378 1.376-1.378h18.336c.762.002 1.374.615 1.378 1.378v17.393h-.002c-.002.766-.614 1.374-1.376 1.376zm17.712-1.999v-16.148h-17.088l-.002 16.148z"/><path d="m336.413 217.416c-1.384 0-2.507-1.121-2.507-2.507v-9.294c0-1.386 1.123-2.507 2.507-2.507h9.795c1.386 0 2.507 1.123 2.507 2.507v9.294c0 1.384-1.121 2.507-2.507 2.507zm-.509-11.801v9.294c.002.279.229.507.509.507h9.795c.279 0 .507-.226.507-.507v-9.294c0-.281-.226-.507-.507-.507h-9.795c-.281 0-.507.228-.509.507z"/></g><g><path d="m352.092 221.686c-.761 0-1.375-.618-1.377-1.376v-17.393c.002-.757.614-1.377 1.377-1.379h18.335c.761.002 1.377.618 1.379 1.379v17.393h-.002c0 .762-.616 1.376-1.377 1.376zm17.713-2v-16.146l-17.089-.002-.002 16.148z"/><path d="m356.362 217.416c-1.387 0-2.506-1.123-2.506-2.508v-9.293c0-1.385 1.121-2.507 2.506-2.507h9.797c1.383.003 2.504 1.122 2.506 2.507v9.293c-.002 1.385-1.121 2.508-2.506 2.508zm-.508-11.801v9.293c.002.281.229.508.508.508h9.797c.279 0 .506-.227.506-.508v-9.293c0-.282-.225-.506-.506-.506l-9.797-.002c-.281.002-.506.226-.508.508z"/></g><g><path d="m372.042 221.686c-.761 0-1.376-.615-1.379-1.376l.003-17.394c0-.761.615-1.376 1.376-1.376h18.337c.764 0 1.374.619 1.374 1.376v17.394c0 .757-.61 1.376-1.374 1.376zm17.711-2 .002-16.148h-17.092v16.148z"/><path d="m376.312 217.415c-1.385 0-2.507-1.122-2.507-2.507v-9.292c0-1.386 1.122-2.508 2.507-2.508h9.797c1.384 0 2.506 1.122 2.506 2.508v9.292c0 1.385-1.122 2.507-2.506 2.509zm-.508-11.799v9.292c.003.281.229.508.508.508h9.797c.278 0 .505-.227.507-.508v-9.292c-.002-.282-.229-.507-.507-.507l-9.797-.002c-.279.002-.505.227-.508.509z"/></g><g><path d="m391.991 221.686c-.765-.002-1.375-.615-1.377-1.376v-17.394c0-.76.612-1.377 1.377-1.377h18.336c.761 0 1.375.617 1.377 1.377v17.394h-.002c0 .761-.614 1.374-1.375 1.376zm17.711-1.999.002-16.149h-17.09v16.149z"/><path d="m396.262 217.416c-1.387 0-2.504-1.125-2.506-2.507v-9.293c.002-1.384 1.119-2.507 2.506-2.509l9.796.002c1.384 0 2.506 1.121 2.506 2.507v9.293c0 1.384-1.122 2.507-2.506 2.507zm-.508-11.8v9.293c.002.281.227.507.508.507h9.796c.277 0 .506-.228.506-.507v-9.293c0-.281-.227-.507-.506-.507l-9.796-.002c-.282.002-.506.226-.508.509z"/></g><g><path d="m148.229 241.729c-.76 0-1.376-.613-1.376-1.376v-17.393c0-.763.616-1.378 1.376-1.378h18.336c.758 0 1.374.611 1.376 1.378v17.393c-.002.768-.62 1.374-1.376 1.376zm17.712-2v-16.147h-17.088v16.147z"/><path d="m152.499 237.459c-1.386 0-2.506-1.122-2.506-2.506v-9.293c0-1.386 1.121-2.509 2.506-2.509h9.796c1.386 0 2.506 1.123 2.506 2.509v9.293c0 1.384-1.121 2.506-2.506 2.508zm-.507-11.799v9.293c0 .277.229.507.507.507h9.796c.28 0 .507-.228.507-.507v-9.293c0-.281-.228-.507-.507-.507l-9.796-.003c-.278.003-.507.231-.507.51z"/></g><g><path d="m168.179 241.728c-.756 0-1.376-.608-1.378-1.374l.002-17.395c0-.765.62-1.376 1.376-1.378l18.335.002c.758 0 1.376.618 1.378 1.376v17.395h-.002c0 .759-.618 1.374-1.376 1.374zm17.711-2v-16.145l-17.088-.002-.002 16.146h17.09z"/><path d="m172.449 237.459c-1.386 0-2.507-1.122-2.507-2.506v-9.293c0-1.386 1.121-2.509 2.507-2.509h9.795c1.386 0 2.507 1.123 2.507 2.509v9.293c0 1.384-1.121 2.506-2.507 2.508zm-.508-11.799v9.293c.002.279.23.507.508.507h9.795c.278 0 .506-.228.508-.507v-9.293c-.002-.281-.23-.507-.508-.507l-9.795-.003c-.278.003-.506.229-.508.51z"/></g><g><path d="m188.128 241.728c-.758 0-1.376-.615-1.378-1.374l.002-17.395c0-.758.618-1.376 1.376-1.378l18.336.002c.756 0 1.374.615 1.376 1.376v17.395c0 .763-.62 1.374-1.376 1.374zm17.712-2v-16.145l-17.088-.002-.002 16.146h17.09z"/><path d="m192.399 237.459c-1.388 0-2.506-1.122-2.508-2.506v-9.293c.002-1.386 1.121-2.509 2.508-2.509h9.796c1.386 0 2.504 1.125 2.504 2.509v9.293c0 1.382-1.119 2.506-2.504 2.508zm-.507-11.799v9.293c0 .279.228.507.507.507h9.796c.278 0 .503-.228.505-.507v-9.293c-.002-.281-.228-.507-.505-.507l-9.796-.003c-.279.003-.507.229-.507.51z"/></g><g><path d="m208.078 241.729c-.761-.002-1.376-.617-1.376-1.376v-17.393c0-.758.615-1.376 1.376-1.378h18.335c.759.002 1.376.615 1.376 1.378v17.393c0 .763-.62 1.374-1.376 1.376zm17.711-2v-16.147h-17.087v16.147z"/><path d="m212.346 237.46c-1.386-.002-2.504-1.124-2.507-2.508v-9.293c.002-1.384 1.121-2.506 2.507-2.506h9.798c1.384 0 2.506 1.12 2.506 2.506v9.293c0 1.386-1.123 2.506-2.506 2.508zm-.506-11.801v9.293c0 .279.23.507.506.509h9.798c.277-.002.505-.229.507-.509v-9.293c-.002-.279-.23-.508-.507-.508h-9.798c-.276 0-.506.229-.506.508z"/></g><g><path d="m228.025 241.729c-.758 0-1.374-.613-1.376-1.376v-17.393c0-.763.618-1.378 1.376-1.378h18.338c.756.002 1.374.615 1.376 1.378v17.393c-.002.763-.62 1.374-1.376 1.376zm17.714-2v-16.147h-17.09v16.147z"/><path d="m232.297 237.459c-1.386 0-2.506-1.122-2.506-2.506v-9.293c0-1.386 1.121-2.509 2.506-2.509h9.796c1.386 0 2.506 1.123 2.506 2.509v9.293c0 1.384-1.121 2.506-2.506 2.508zm-.507-11.799v9.293c0 .279.228.507.507.507h9.796c.278 0 .505-.228.508-.507v-9.293c-.002-.281-.23-.507-.508-.507l-9.796-.003c-.279.003-.507.229-.507.51z"/></g><g><path d="m247.976 241.729c-.756-.002-1.376-.613-1.376-1.376v-17.393c0-.763.62-1.376 1.376-1.378h18.337c.759.002 1.374.62 1.376 1.378v17.393h-.002c0 .759-.615 1.374-1.374 1.376zm17.711-2 .002-16.147h-17.09v16.147z"/><path d="m252.245 237.459c-1.386 0-2.506-1.122-2.506-2.506v-9.293c0-1.386 1.121-2.509 2.506-2.509h9.796c1.386 0 2.506 1.123 2.506 2.509v9.293c0 1.384-1.121 2.506-2.506 2.508zm-.508-11.799v9.293c.002.279.23.507.508.507h9.796c.279 0 .507-.228.507-.507v-9.293c0-.281-.228-.507-.507-.507l-9.796-.003c-.278.003-.505.229-.508.51z"/></g><g><path d="m267.925 241.729c-.758-.002-1.376-.613-1.378-1.376l.002-17.393c0-.763.618-1.376 1.376-1.378h18.336c.76.002 1.374.62 1.376 1.378v17.393c-.002.759-.618 1.374-1.376 1.376zm17.712-2v-16.147h-17.088l-.002 16.147z"/><path d="m272.195 237.459c-1.386 0-2.504-1.122-2.506-2.506v-9.293c.002-1.386 1.121-2.509 2.506-2.509h9.796c1.386 0 2.507 1.123 2.507 2.509v9.293c0 1.384-1.121 2.506-2.507 2.508zm-.506-11.799v9.293c0 .279.228.507.505.507h9.796c.278 0 .505-.228.508-.507v-9.293c-.002-.281-.23-.507-.508-.507l-9.796-.003c-.277.003-.505.229-.505.51z"/></g><g><path d="m287.874 241.729c-.759 0-1.374-.613-1.376-1.376v-17.393c0-.763.618-1.378 1.376-1.378h18.335c.756.002 1.376.611 1.378 1.378v17.393c-.002.768-.622 1.376-1.378 1.376zm17.713-2v-16.147h-17.09v16.147z"/><path d="m292.145 237.459c-1.386 0-2.506-1.122-2.508-2.506v-9.293c.002-1.386 1.123-2.509 2.508-2.509h9.795c1.386 0 2.507 1.123 2.507 2.509v9.293c0 1.384-1.121 2.506-2.507 2.508zm-.507-11.799v9.293c0 .277.228.507.507.507h9.795c.277 0 .506-.228.508-.507v-9.293c-.002-.281-.23-.507-.508-.507l-9.795-.003c-.28.003-.507.231-.507.51z"/></g><g><path d="m307.823 241.729c-.757-.002-1.376-.617-1.378-1.376l.002-17.393c0-.76.617-1.376 1.376-1.378h18.335c.761.002 1.374.62 1.377 1.378v17.393c-.003.759-.616 1.374-1.377 1.376zm17.712-2v-16.147h-17.088l-.002 16.147z"/><path d="m312.095 237.459c-1.388 0-2.509-1.122-2.509-2.506v-9.293c0-1.386 1.121-2.509 2.509-2.509h9.794c1.386 0 2.507 1.123 2.507 2.509v9.293c0 1.384-1.121 2.506-2.507 2.508zm-.51-11.799v9.293c.002.279.229.507.51.507h9.794c.279 0 .508-.229.508-.507v-9.293c0-.279-.229-.507-.508-.507l-9.794-.003c-.282.003-.508.229-.51.51z"/></g><g><path d="m327.774 241.728c-.755 0-1.379-.608-1.381-1.374l.002-17.395c0-.767.622-1.376 1.379-1.378l18.335.002c.759 0 1.374.615 1.376 1.376v17.395h-.002c0 .761-.615 1.374-1.374 1.374zm17.709-2 .002-16.145-17.09-.002-.002 16.146h17.09z"/><path d="m332.043 237.459c-1.386 0-2.507-1.124-2.507-2.506v-9.293c0-1.384 1.121-2.509 2.507-2.509h9.796c1.386 0 2.506 1.123 2.506 2.509v9.293c0 1.384-1.12 2.506-2.506 2.508zm-.508-11.799v9.293c.002.279.228.507.508.507h9.796c.277 0 .505-.228.507-.507v-9.293c-.002-.281-.229-.507-.507-.507l-9.796-.003c-.28.003-.506.229-.508.51z"/></g><g><path d="m347.723 241.729c-.759-.002-1.378-.613-1.378-1.374v-17.395c.002-.763.619-1.376 1.378-1.376h18.336c.758 0 1.374.613 1.376 1.376v17.395h-.002c0 .761-.616 1.374-1.374 1.374zm17.71-2 .001-16.146h-17.089v16.146z"/><path d="m351.993 237.458c-1.387 0-2.508-1.12-2.508-2.505v-9.294c0-1.386 1.121-2.507 2.508-2.509l9.795.002c1.386 0 2.507 1.123 2.507 2.507v9.294c0 1.385-1.121 2.505-2.507 2.508zm-.51-11.799v9.294c.002.277.229.506.51.506l9.795.002c.279-.002.506-.23.508-.508v-9.294c-.002-.279-.229-.507-.508-.507l-9.795-.003c-.28.003-.508.231-.51.51z"/></g><g><path d="m367.577 241.728c-.761 0-1.376-.613-1.378-1.374l.002-17.395c0-.762.615-1.377 1.376-1.377h18.335c.759.002 1.376.615 1.378 1.377v17.395h-.002c0 .763-.619 1.374-1.376 1.374zm17.712-1.999v-16.147h-17.089v16.147z"/><path d="m371.847 237.459c-1.386 0-2.507-1.122-2.507-2.506v-9.293c0-1.385 1.121-2.507 2.507-2.509h9.798c1.384.002 2.503 1.124 2.505 2.509v9.293c-.002 1.384-1.121 2.506-2.505 2.506zm-.507-11.799v9.293c0 .279.229.507.507.507h9.798c.276 0 .505-.228.505-.507v-9.293c0-.28-.229-.509-.505-.509h-9.798c-.279 0-.507.229-.507.509z"/></g><g><path d="m387.527 241.728c-.76 0-1.375-.615-1.377-1.375v-17.393c.002-.758.617-1.377 1.377-1.379l18.334.002c.756 0 1.377.614 1.379 1.377v17.393h-.002c0 .763-.621 1.375-1.377 1.377zm17.711-1.999v-16.146l-17.088-.002v16.146z"/><path d="m391.797 237.46c-1.387 0-2.507-1.124-2.507-2.507v-9.293c0-1.385 1.12-2.509 2.507-2.509h9.797c1.385.002 2.505 1.124 2.505 2.509v9.293c0 1.383-1.12 2.505-2.505 2.507zm-.508-11.8v9.293c.002.279.229.506.508.506l9.797.002c.276-.002.506-.229.506-.508v-9.293c0-.281-.229-.508-.506-.508l-9.797-.002c-.279.002-.506.229-.508.51z"/></g><g><path d="m407.477 241.728c-.758 0-1.378-.611-1.378-1.376v-17.393c.002-.762.618-1.376 1.378-1.376h18.337c.758 0 1.371.612 1.376 1.376v17.393h-.003c-.002.767-.615 1.374-1.373 1.376zm17.71-1.999.002-16.147h-17.09v16.147z"/><path d="m411.747 237.459c-1.388 0-2.508-1.123-2.508-2.507v-9.292c0-1.386 1.12-2.509 2.508-2.509h9.793c1.387 0 2.507 1.123 2.509 2.509v9.292c-.002 1.384-1.122 2.507-2.509 2.509zm-.509-11.799v9.292c0 .28.228.508.509.508h9.793c.28 0 .508-.229.51-.508v-9.292c-.002-.279-.229-.509-.51-.509h-9.793c-.281 0-.509.228-.509.509z"/></g><g><path d="m427.426 241.729c-.758-.002-1.378-.613-1.378-1.375v-17.395c.003-.762.618-1.375 1.378-1.377h18.336c.758.002 1.375.615 1.377 1.377v17.395h-.002c0 .762-.619 1.373-1.375 1.375zm17.712-2v-16.147h-17.089l-.002 16.147z"/><path d="m431.695 237.459c-1.387 0-2.506-1.123-2.506-2.506v-9.294c0-1.385 1.119-2.506 2.506-2.509l9.796.003c1.385 0 2.506 1.121 2.506 2.506v9.294c0 1.383-1.121 2.506-2.506 2.508zm-.507-11.8v9.294c.002.277.229.506.508.506l9.796.002c.276-.002.506-.23.506-.508v-9.294c0-.28-.229-.509-.506-.509h-9.796c-.279 0-.507.229-.508.509z"/></g><g><path d="m447.375 241.729c-.759-.002-1.376-.616-1.378-1.376v-17.393c.002-.759.619-1.376 1.378-1.378h18.334c.76.002 1.375.619 1.377 1.378v17.393c-.002.76-.617 1.374-1.377 1.376zm17.711-2v-16.148h-17.088l-.002 16.148z"/><path d="m451.644 237.46c-1.387-.002-2.505-1.124-2.505-2.508v-9.293c0-1.384 1.118-2.506 2.505-2.508h9.798c1.386 0 2.506 1.124 2.506 2.508v9.293c0 1.384-1.12 2.508-2.506 2.508zm-.506-11.801v9.293c0 .281.229.508.506.508h9.798c.278 0 .505-.227.507-.508v-9.293c-.002-.28-.229-.507-.507-.51h-9.798c-.278.003-.506.23-.506.51z"/></g><g><path d="m148.229 261.771c-.762 0-1.373-.612-1.377-1.373l.002-17.395c0-.763.619-1.374 1.375-1.376h27.378c.754.002 1.375.617 1.377 1.376v17.395h-.002c0 .759-.615 1.373-1.375 1.373zm26.755-1.999v-16.146h-26.131v16.146z"/><path d="m152.499 257.502c-1.383 0-2.506-1.119-2.508-2.506l.002-9.293c0-1.387 1.124-2.508 2.506-2.508h18.838c1.385 0 2.506 1.121 2.508 2.508v9.293h-.002c0 1.385-1.121 2.506-2.506 2.508zm-.507-11.799v9.293c0 .278.229.506.507.506l18.838.003c.28-.003.506-.23.508-.509h-.002l.002-9.293c-.002-.282-.228-.506-.508-.506l-18.838-.003c-.28.003-.507.229-.507.509z"/></g><g><path d="m177.222 261.771c-.76 0-1.375-.606-1.379-1.373l.002-17.395c0-.767.623-1.374 1.377-1.376h18.336c.754.002 1.375.609 1.375 1.376v17.395c-.004.765-.615 1.371-1.375 1.373zm17.713-1.999v-16.146h-17.092v16.146z"/><path d="m181.493 257.502c-1.387 0-2.508-1.121-2.508-2.506v-9.293c0-1.387 1.124-2.508 2.508-2.508h9.792c1.385.002 2.506 1.121 2.508 2.508v9.293c0 1.385-1.121 2.506-2.508 2.508zm-.509-11.799v9.293c0 .278.227.506.509.506l9.792.003c.283-.003.507-.229.509-.509v-9.293c0-.282-.226-.506-.509-.506l-9.792-.003c-.283.003-.509.227-.509.509z"/></g><g><path d="m197.17 261.771c-.761 0-1.377-.614-1.377-1.373v-17.395c.002-.759.623-1.374 1.377-1.376h18.336c.756.002 1.375.617 1.375 1.376v17.395c0 .759-.613 1.373-1.375 1.373zm17.711-1.999.002-16.146h-17.09v16.146z"/><path d="m201.44 257.503c-1.385 0-2.506-1.121-2.508-2.506l.002-9.295c0-1.385 1.121-2.506 2.506-2.506h9.797c1.383 0 2.504 1.121 2.506 2.506v9.295c-.002 1.385-1.121 2.504-2.506 2.506zm-.506-11.801v9.295c0 .278.227.506.507.506h9.797c.278 0 .504-.228.506-.506h-.002l.002-9.295c-.002-.28-.229-.507-.506-.507h-9.797c-.281 0-.507.227-.507.507z"/></g><g><path d="m217.12 261.772c-.765-.003-1.375-.613-1.377-1.376v-17.393c.002-.763.621-1.376 1.377-1.378l18.336.002c.754 0 1.374.615 1.375 1.376v17.393c0 .759-.613 1.376-1.375 1.376zm17.711-1.999v-16.146h-17.087v16.145z"/><path d="m221.39 257.502c-1.385 0-2.506-1.121-2.508-2.506v-9.293c0-1.387 1.123-2.508 2.508-2.508h9.794c1.385.002 2.504 1.123 2.508 2.508v9.293h-.002c0 1.385-1.121 2.506-2.506 2.508zm-.507-11.799-.002 9.293c.002.278.229.506.509.506l9.794.003c.28-.003.507-.229.507-.509v-9.293c0-.282-.224-.506-.507-.506l-9.794-.003c-.28.003-.507.227-.507.509z"/></g><g><path d="m237.068 261.772c-.76 0-1.375-.617-1.377-1.376l.002-17.393c0-.761.621-1.376 1.375-1.378l18.336.002c.754 0 1.375.611 1.375 1.376v17.393c-.002.763-.615 1.376-1.375 1.376zm17.713-1.999v-16.146h-17.09v16.145z"/><path d="m241.338 257.502c-1.385 0-2.506-1.121-2.506-2.506v-9.293c0-1.387 1.121-2.508 2.506-2.508h9.797c1.383 0 2.506 1.121 2.506 2.508v9.293c-.002 1.385-1.123 2.506-2.506 2.508zm-.506-11.799v9.293c0 .278.226.506.506.506l9.797.003c.278-.003.505-.23.507-.509h-.002l.002-9.293c-.002-.282-.229-.506-.507-.506l-9.797-.003c-.28.003-.506.227-.506.509z"/></g><g><path d="m257.018 261.771c-.761 0-1.375-.61-1.377-1.373v-17.395c.002-.763.623-1.374 1.377-1.376h18.336c.756.002 1.375.613 1.375 1.376v17.395c-.002.761-.613 1.373-1.375 1.373zm17.711-1.999.002-16.146h-17.09v16.146z"/><path d="m261.29 257.502c-1.387 0-2.509-1.121-2.509-2.506v-9.293c0-1.387 1.124-2.508 2.509-2.508h9.794c1.385.002 2.504 1.123 2.506 2.508v9.293c0 1.385-1.121 2.506-2.506 2.508zm-.509-11.799v9.293c0 .278.228.506.509.506l9.794.003c.28-.003.504-.229.507-.509v-9.293c0-.282-.227-.506-.507-.506l-9.794-.003c-.283.003-.509.227-.509.509z"/></g><g><path d="m276.969 261.771c-.763 0-1.375-.61-1.377-1.373v-17.395c0-.763.621-1.374 1.377-1.376h18.334c.754.002 1.375.613 1.377 1.376v17.395c-.002.763-.617 1.373-1.377 1.373zm17.711-1.999v-16.146h-17.09v16.146z"/><path d="m281.238 257.502c-1.387 0-2.506-1.121-2.506-2.506v-9.293c0-1.385 1.122-2.508 2.506-2.508h9.795c1.385 0 2.508 1.121 2.508 2.508v9.293c-.002 1.385-1.124 2.506-2.508 2.508zm-.507-11.799v9.293c0 .28.226.506.506.506l9.795.003c.28-.003.507-.23.509-.509h-.002l.002-9.293c-.002-.282-.227-.506-.509-.506l-9.795-.003c-.279.003-.506.227-.506.509z"/></g><g><path d="m296.917 261.771c-.762 0-1.375-.61-1.377-1.373v-17.395c.002-.763.624-1.374 1.377-1.376h18.336c.755.002 1.373.613 1.376 1.376v17.395c-.003.763-.615 1.373-1.376 1.373zm17.711-1.999.002-16.146h-17.089v16.146z"/><path d="m301.186 257.503c-1.385-.002-2.504-1.121-2.506-2.506l.002-9.295c0-1.385 1.122-2.506 2.504-2.506h9.797c1.385 0 2.506 1.121 2.506 2.506v9.295c0 1.383-1.121 2.506-2.506 2.506zm-.505-11.801-.002 9.295c.002.278.229.506.507.506h9.797c.278 0 .507-.228.507-.506v-9.295c0-.282-.227-.507-.507-.507h-9.797c-.279 0-.505.227-.505.507z"/></g><g><path d="m316.866 261.772c-.763 0-1.375-.613-1.379-1.376l.002-17.393c0-.765.621-1.376 1.377-1.378l18.335.002c.754 0 1.375.611 1.377 1.376v17.393h-.002c-.002.763-.615 1.376-1.375 1.376zm17.711-1.999v-16.146h-17.088l-.002 16.145z"/><path d="m321.137 257.502c-1.385 0-2.508-1.119-2.51-2.506l.002-9.293c0-1.387 1.123-2.508 2.508-2.508h9.795c1.383 0 2.507 1.121 2.507 2.508v9.293c-.003 1.387-1.124 2.506-2.507 2.508zm-.509-11.799v9.293c0 .278.229.506.509.506l9.795.003c.278-.003.507-.23.507-.509v-9.293c0-.28-.227-.506-.507-.506l-9.795-.003c-.283.003-.509.229-.509.509z"/></g><g><path d="m336.815 261.772c-.759 0-1.376-.613-1.378-1.376v-17.393c.002-.765.625-1.376 1.378-1.378l18.336.002c.754 0 1.373.615 1.375 1.376v17.393c0 .759-.614 1.376-1.375 1.376zm17.711-1.999v-16.146h-17.088l-.002 16.145z"/><path d="m341.086 257.502c-1.385 0-2.507-1.121-2.509-2.506l.002-9.293c.002-1.385 1.122-2.506 2.507-2.508h9.795c1.385 0 2.506 1.121 2.508 2.508v9.293h-.002c0 1.385-1.121 2.506-2.506 2.508zm-.507-11.799-.002 9.293c.002.28.227.506.509.506l9.795.003c.277-.003.506-.23.509-.509h-.003l.003-9.293c-.003-.282-.229-.506-.509-.506l-9.795-.003c-.282.003-.507.227-.507.509z"/></g><g><path d="m356.764 261.772c-.763 0-1.376-.617-1.376-1.376v-17.393c0-.761.619-1.376 1.376-1.378l18.338.002c.757 0 1.371.617 1.374 1.376v17.393c-.003.759-.611 1.373-1.374 1.376zm17.711-1.999.002-16.146h-17.088l-.002 16.145z"/><path d="m361.034 257.502c-1.385 0-2.506-1.119-2.508-2.506l.002-9.293c0-1.387 1.123-2.508 2.506-2.508h9.797c1.383 0 2.507 1.121 2.507 2.508v9.293c0 1.385-1.122 2.506-2.507 2.508zm-.507-11.799v9.293c0 .278.229.506.507.506l9.797.003c.278-.003.505-.23.507-.509h-.002l.002-9.293c-.002-.282-.229-.506-.507-.506l-9.797-.003c-.278.003-.507.229-.507.509z"/></g><g><path d="m376.619 261.772c-.764 0-1.375-.616-1.377-1.375l.002-17.396c0-.759.62-1.372 1.375-1.375h18.337c.753.003 1.375.61 1.377 1.375v17.396h-.002c-.004.765-.615 1.372-1.375 1.375zm17.713-1.999v-16.147h-17.089v16.147z"/><path d="m380.891 257.502c-1.387 0-2.508-1.121-2.508-2.506v-9.293c.002-1.385 1.123-2.505 2.508-2.508h9.797c1.383 0 2.503 1.121 2.505 2.508v9.293h-.002c0 1.385-1.12 2.506-2.503 2.508zm-.507-11.799-.002 9.293c.002.279.227.506.509.506l9.797.002c.276-.002.503-.229.505-.508h-.002l.002-9.293c-.002-.282-.229-.507-.505-.507l-9.797-.002c-.283.002-.507.227-.507.509z"/></g><g><path d="m396.568 261.771c-.763 0-1.376-.615-1.376-1.374v-17.396c.002-.759.622-1.374 1.376-1.376l18.336.002c.75 0 1.376.611 1.378 1.374v17.396h-.002c0 .763-.617 1.374-1.376 1.376zm17.712-1.998.002-16.146-17.09-.002v16.146z"/><path d="m400.84 257.502c-1.387 0-2.508-1.121-2.508-2.505v-9.295c0-1.386 1.124-2.508 2.508-2.508h9.795c1.384 0 2.505 1.124 2.507 2.508v9.295h-.002c0 1.384-1.119 2.505-2.505 2.507zm-.507-11.8-.002 9.295c.002.277.229.506.509.506h9.795c.279 0 .506-.227.506-.506v-9.295c0-.281-.227-.506-.506-.506h-9.795c-.281 0-.507.225-.507.506z"/></g><g><path d="m416.519 261.772c-.762-.002-1.376-.612-1.378-1.375v-17.395c.002-.763.623-1.373 1.378-1.376h18.335c.755.003 1.375.613 1.377 1.376v17.395h-.002c-.002.761-.612 1.373-1.375 1.375zm17.71-2 .002-16.146h-17.09v16.146z"/><path d="m420.788 257.502c-1.386 0-2.508-1.12-2.508-2.505v-9.294c0-1.386 1.124-2.508 2.508-2.508h9.795c1.385 0 2.507 1.122 2.51 2.508v9.294h-.003c0 1.385-1.122 2.505-2.507 2.507zm-.508-11.799v9.294c0 .277.228.505.508.505l9.795.003c.28-.003.508-.23.508-.508v-9.294c0-.282-.226-.508-.508-.508h-9.795c-.282 0-.508.226-.508.508z"/></g><g><path d="m436.467 261.772c-.761-.002-1.374-.613-1.378-1.376l.002-17.393c0-.765.622-1.375 1.376-1.377h18.336c.754.002 1.376.612 1.378 1.377v17.393h-.002c-.002.763-.613 1.374-1.376 1.376zm17.713-1.998v-16.148h-17.09v16.148z"/><path d="m440.738 257.503c-1.387 0-2.507-1.122-2.509-2.507l.002-9.293c.002-1.384 1.12-2.505 2.507-2.509l9.794.002c1.384 0 2.507 1.12 2.509 2.507v9.293h-.002c0 1.387-1.123 2.507-2.507 2.507zm-.507-11.8-.002 9.293c.002.278.227.507.509.507h9.794c.28 0 .507-.229.509-.507h-.002l.002-9.293c-.002-.28-.229-.507-.509-.507l-9.794-.002c-.282.002-.507.227-.507.509z"/></g><g><path d="m456.417 261.772c-.763-.002-1.376-.613-1.378-1.375v-17.395c.002-.763.623-1.376 1.378-1.376h18.335c.756 0 1.375.616 1.377 1.376v17.395h-.002c0 .758-.613 1.373-1.375 1.375zm17.711-1.999v-16.146h-17.088l-.002 16.146z"/><path d="m460.688 257.502c-1.386 0-2.507-1.121-2.509-2.504l.002-9.295c.002-1.386 1.121-2.504 2.507-2.509l9.796.002c1.384 0 2.505 1.121 2.505 2.507v9.295c0 1.383-1.121 2.504-2.505 2.506zm-.508-11.799v9.295c0 .278.227.504.508.504l9.796.002c.277-.002.504-.228.506-.506h-.002l.002-9.295c-.002-.283-.227-.508-.506-.508h-9.796c-.284 0-.508.225-.508.508z"/></g><g><path d="m142.203 281.816c-.76-.002-1.376-.612-1.379-1.377v-17.394c.002-.765.619-1.375 1.379-1.377h18.335c.76.002 1.375.617 1.376 1.377v17.394c-.002.763-.616 1.375-1.376 1.377zm17.71-2v-16.147h-17.089v16.147z"/><path d="m146.471 277.545c-1.384-.002-2.504-1.121-2.506-2.506v-9.292c0-1.386 1.12-2.51 2.506-2.51h9.795c1.386 0 2.506 1.124 2.508 2.51v9.292c0 1.385-1.124 2.506-2.508 2.509zm-.506-11.798v9.292c0 .281.225.506.506.506l9.795.002c.281-.002.508-.227.508-.508v-9.292c0-.283-.229-.51-.508-.51h-9.795c-.28 0-.506.227-.506.51z"/></g><g><path d="m162.15 281.815c-.76 0-1.375-.617-1.376-1.375v-17.394c.002-.76.616-1.377 1.376-1.377h18.337c.762.003 1.374.614 1.374 1.377v17.394c0 .76-.612 1.372-1.374 1.375zm17.713-1.998v-16.149h-17.089v16.149z"/><path d="m166.421 277.546c-1.384 0-2.508-1.121-2.508-2.506v-9.294c.002-1.386 1.122-2.508 2.508-2.508h9.797c1.384 0 2.504 1.122 2.504 2.508v9.294c0 1.385-1.122 2.506-2.504 2.506zm-.508-11.8v9.294c0 .279.227.506.508.506h9.797c.277 0 .504-.227.506-.506v-9.294c-.002-.28-.231-.508-.506-.51h-9.797c-.279.002-.508.23-.508.51z"/></g><g><path d="m182.1 281.815c-.765-.003-1.375-.615-1.377-1.375v-17.394c.002-.763.612-1.374 1.377-1.377h18.335c.762 0 1.376.617 1.378 1.377v17.394h-.002c0 .758-.614 1.375-1.376 1.375zm17.712-1.998v-16.149h-17.087l-.002 16.149z"/><path d="m186.371 277.545c-1.384 0-2.508-1.121-2.508-2.506v-9.292c0-1.386 1.122-2.508 2.508-2.51h9.796c1.386 0 2.506 1.124 2.506 2.51v9.292c-.002 1.385-1.122 2.504-2.506 2.509zm-.508-11.798v9.292c0 .281.227.506.508.506l9.796.002c.281-.002.506-.227.506-.508v-9.292c0-.283-.227-.51-.506-.51h-9.796c-.279 0-.508.227-.508.51z"/></g><g><path d="m202.05 281.815c-.762 0-1.376-.617-1.378-1.375v-17.394c.002-.76.616-1.377 1.378-1.377h18.335c.762.003 1.375.61 1.377 1.377v17.394c-.002.765-.615 1.372-1.377 1.375zm17.713-1.998v-16.149h-17.089l-.002 16.149z"/><path d="m206.32 277.545c-1.384 0-2.508-1.121-2.508-2.506v-9.292c.002-1.386 1.122-2.508 2.508-2.51h9.795c1.386 0 2.506 1.124 2.506 2.51v9.292c-.002 1.385-1.122 2.504-2.506 2.509zm-.508-11.798v9.292c0 .281.227.506.508.506l9.795.002c.281-.002.506-.227.506-.508v-9.292c0-.283-.227-.51-.506-.51h-9.795c-.279 0-.508.227-.508.51z"/></g><g><path d="m222 281.815c-.762 0-1.376-.615-1.379-1.375l.002-17.394c0-.763.614-1.377 1.376-1.377h18.335c.762.003 1.375.614 1.376 1.377v17.394c-.002.76-.614 1.372-1.376 1.375zm17.709-1.998.002-16.149h-17.089v16.149z"/><path d="m226.269 277.545c-1.384 0-2.508-1.121-2.508-2.506v-9.292c.002-1.386 1.122-2.508 2.508-2.51h9.795c1.386.002 2.506 1.124 2.506 2.51v9.292c0 1.385-1.122 2.506-2.506 2.509zm-.508-11.798v9.292c0 .281.227.506.508.506l9.795.002c.279-.002.506-.227.506-.508v-9.292c0-.283-.229-.51-.506-.51h-9.795c-.279 0-.508.227-.508.51z"/></g><g><path d="m241.948 281.815c-.762 0-1.376-.615-1.378-1.375l.002-17.394c0-.763.614-1.377 1.376-1.377h18.335c.765.003 1.375.614 1.377 1.377v17.394c-.002.76-.612 1.372-1.377 1.375zm17.711-1.998.002-16.149h-17.089v16.149z"/><path d="m246.217 277.546c-1.384 0-2.506-1.124-2.506-2.506v-9.294c0-1.384 1.12-2.508 2.506-2.508h9.798c1.384 0 2.504 1.122 2.506 2.508v9.294c-.002 1.385-1.124 2.506-2.506 2.506zm-.506-11.8v9.294c0 .281.227.506.505.506h9.798c.279 0 .504-.227.506-.506v-9.294c-.002-.28-.229-.508-.506-.51h-9.798c-.276.002-.505.23-.505.51z"/></g><g><path d="m261.897 281.815c-.765 0-1.375-.621-1.376-1.375v-17.394c.002-.756.612-1.377 1.376-1.377h18.335c.762 0 1.376.614 1.378 1.377v17.394h-.002c0 .76-.614 1.375-1.376 1.375zm17.712-1.998v-16.149h-17.087l-.002 16.149z"/><path d="m266.167 277.545c-1.384 0-2.506-1.121-2.506-2.506v-9.292c0-1.386 1.12-2.508 2.506-2.51h9.796c1.386 0 2.506 1.124 2.506 2.51v9.292c-.002 1.385-1.122 2.504-2.506 2.509zm-.506-11.798v9.292c0 .281.227.506.506.506l9.796.002c.281-.002.505-.227.505-.508v-9.292c0-.283-.227-.51-.505-.51h-9.796c-.277 0-.506.227-.506.51z"/></g><g><path d="m281.847 281.816c-.762-.002-1.375-.612-1.378-1.377v-17.394c.004-.765.616-1.375 1.378-1.377h18.334c.759.002 1.375.612 1.377 1.377v17.394c-.002.765-.618 1.375-1.377 1.377zm17.713-2v-16.147h-17.09v16.147z"/><path d="m286.116 277.545c-1.382 0-2.506-1.119-2.506-2.506v-9.292c0-1.388 1.122-2.508 2.506-2.51h9.798c1.384.002 2.504 1.124 2.506 2.51v9.292c0 1.385-1.124 2.506-2.506 2.509zm-.508-11.798v9.292c.002.279.227.506.508.506l9.798.002c.279-.002.505-.227.505-.508v-9.292c0-.283-.229-.51-.505-.51h-9.798c-.279 0-.506.23-.508.51z"/></g><g><path d="m301.796 281.816c-.76-.002-1.376-.619-1.379-1.377l.003-17.394c0-.758.616-1.375 1.376-1.377h18.335c.763 0 1.375.619 1.377 1.377v17.394h-.002c0 .758-.612 1.377-1.375 1.377zm17.71-2 .002-16.147h-17.089l-.002 16.147z"/><path d="m306.065 277.545c-1.385 0-2.507-1.121-2.507-2.506v-9.292c0-1.386 1.12-2.51 2.507-2.51h9.797c1.385.002 2.505 1.124 2.505 2.51v9.292c0 1.385-1.122 2.506-2.505 2.509zm-.507-11.798v9.292c0 .281.227.506.508.506l9.797.002c.279-.002.506-.227.506-.508v-9.292c0-.283-.229-.51-.506-.51h-9.797c-.28 0-.508.227-.508.51z"/></g><g><path d="m321.745 281.816c-.761-.002-1.377-.619-1.379-1.377l.002-17.394c0-.758.616-1.375 1.377-1.377h18.335c.765.002 1.374.617 1.376 1.377v17.394c-.002.763-.611 1.375-1.376 1.377zm17.71-2 .002-16.147h-17.089v16.147z"/><path d="m326.015 277.545c-1.385-.002-2.505-1.121-2.507-2.506v-9.292c0-1.386 1.12-2.51 2.507-2.51h9.795c1.387 0 2.509 1.124 2.509 2.51v9.292c0 1.385-1.124 2.506-2.509 2.509zm-.509-11.798v9.292c.003.281.228.506.509.506l9.795.002c.281-.002.508-.227.508-.508v-9.292c0-.283-.229-.51-.508-.51h-9.795c-.28 0-.506.227-.509.51z"/></g><g><path d="m341.693 281.815c-.761 0-1.375-.615-1.377-1.375v-17.394c.002-.763.616-1.377 1.377-1.377h18.337c.76 0 1.374.614 1.376 1.377v17.394c-.002.76-.616 1.375-1.376 1.375zm17.712-1.998.002-16.149h-17.09l-.002 16.149z"/><path d="m345.963 277.545c-1.384 0-2.504-1.119-2.506-2.506v-9.292c.002-1.386 1.12-2.508 2.506-2.51h9.796c1.387 0 2.508 1.122 2.508 2.51v9.292c0 1.387-1.124 2.506-2.508 2.509zm-.506-11.798v9.292c0 .279.229.506.506.506l9.796.002c.281-.002.508-.229.51-.508v-9.292c-.002-.28-.23-.51-.51-.51h-9.796c-.275 0-.506.227-.506.51z"/></g><g><path d="m361.548 281.815c-.764 0-1.374-.619-1.376-1.375l.002-17.394c0-.758.61-1.377 1.374-1.377h18.337c.759 0 1.375.61 1.377 1.377v17.394c-.002.765-.618 1.375-1.377 1.375zm17.713-1.998.002-16.149h-17.09v16.149z"/><path d="m365.82 277.545c-1.384 0-2.508-1.119-2.508-2.506v-9.292c0-1.388 1.122-2.508 2.508-2.51h9.796c1.385 0 2.504 1.124 2.504 2.51v9.292c0 1.385-1.119 2.506-2.504 2.509zm-.509-11.798v9.292c.002.279.228.506.51.506l9.796.002c.279-.002.504-.227.506-.508v-9.292c-.002-.283-.229-.51-.506-.51h-9.796c-.281 0-.508.23-.51.51z"/></g><g><path d="m381.498 281.816c-.762 0-1.374-.619-1.377-1.377v-17.394c.003-.758.615-1.377 1.377-1.377h18.335c.76 0 1.377.614 1.379 1.377v17.394h-.002c0 .763-.617 1.377-1.377 1.377zm17.712-2v-16.147h-17.087l-.002 16.147z"/><path d="m385.77 277.545c-1.386-.002-2.506-1.121-2.508-2.506v-9.292c0-1.386 1.12-2.51 2.508-2.51h9.796c1.387.002 2.506 1.124 2.506 2.51v9.292c0 1.385-1.122 2.506-2.506 2.509zm-.508-11.798v9.292c0 .281.225.506.508.506l9.796.002c.279-.002.506-.227.506-.508v-9.292c0-.283-.229-.51-.506-.51h-9.796c-.281 0-.508.227-.508.51z"/></g><g><path d="m401.448 281.816c-.758 0-1.377-.611-1.379-1.377v-17.393c.002-.768.621-1.377 1.379-1.377h18.338c.763 0 1.372.618 1.374 1.377v17.393h-.002c0 .758-.609 1.375-1.372 1.377zm17.71-1.998.002-16.149h-17.091v16.149z"/><path d="m405.718 277.546c-1.385-.002-2.505-1.122-2.507-2.507v-9.292c0-1.385 1.119-2.509 2.507-2.511l9.794.002c1.387 0 2.509 1.122 2.509 2.509v9.292c0 1.387-1.124 2.507-2.509 2.507zm-.507-11.799v9.292c0 .281.225.507.507.507h9.794c.281 0 .509-.228.509-.507v-9.292c0-.281-.229-.509-.509-.509l-9.794-.002c-.28.002-.507.228-.507.511z"/></g><g><path d="m421.396 281.817c-.762-.003-1.375-.617-1.378-1.378l.003-17.394c0-.761.613-1.375 1.375-1.377h37.173c.761.002 1.375.611 1.38 1.377v17.394h-.003c-.002.766-.616 1.375-1.377 1.378zm36.551-2v-16.147l-35.927-.002-.002 16.147z"/><path d="m425.667 277.547c-1.383 0-2.506-1.121-2.506-2.507v-9.293c0-1.387 1.121-2.508 2.506-2.51h28.633c1.386 0 2.507 1.123 2.507 2.51v9.293c0 1.383-1.124 2.507-2.507 2.507zm-.507-11.8v9.293c0 .279.228.505.507.505h28.633c.281 0 .508-.226.508-.505v-9.293c0-.282-.229-.509-.508-.511h-28.633c-.276.002-.507.231-.507.511z"/></g><g><path d="m142.202 301.858c-.758 0-1.377-.611-1.377-1.376v-17.394c.002-.767.622-1.376 1.377-1.376h18.335c.758.002 1.376.614 1.376 1.376v17.394c0 .762-.618 1.376-1.376 1.378zm17.711-1.998v-16.147h-17.089v16.146z"/><path d="m146.472 297.589c-1.387 0-2.508-1.122-2.508-2.506v-9.293c0-1.386 1.121-2.508 2.508-2.508h9.794c1.385 0 2.506 1.122 2.508 2.508v9.293c0 1.384-1.123 2.506-2.508 2.508zm-.509-11.799v9.293c.002.28.228.507.509.507h9.794c.28 0 .507-.227.507-.507v-9.293c0-.28-.227-.507-.507-.507l-9.794-.003c-.281.003-.507.23-.509.51z"/></g><g><path d="m211.335 321.902c-.762 0-1.375-.617-1.377-1.375v-17.394c.002-.76.615-1.377 1.377-1.379l159.243.002c.762 0 1.375.617 1.377 1.377v17.394c-.002.758-.615 1.375-1.377 1.377zm158.62-1.999v-16.146l-157.996-.002v16.148z"/><path d="m215.605 317.633c-1.385 0-2.506-1.121-2.506-2.508v-9.292c0-1.385 1.121-2.506 2.506-2.508l150.703.002c1.384 0 2.505 1.121 2.505 2.506v9.292c0 1.387-1.121 2.508-2.505 2.508zm-.506-11.8v9.292c0 .28.228.509.506.509h150.703c.277 0 .506-.229.508-.509v-9.292c-.002-.278-.23-.507-.508-.507h-150.703c-.278 0-.506.229-.506.507z"/></g><g><path d="m162.152 301.859c-.76-.002-1.377-.618-1.377-1.376v-17.393c0-.76.62-1.376 1.377-1.376h28.128c.756 0 1.378.611 1.378 1.376v17.394c0 .762-.62 1.374-1.378 1.376h-28.128zm27.506-2v-16.147h-26.884v16.147z"/><path d="m166.419 297.589c-1.383 0-2.506-1.12-2.506-2.506v-9.293c0-1.388 1.123-2.508 2.506-2.508h19.593c1.385 0 2.506 1.122 2.506 2.508v9.293c0 1.384-1.121 2.506-2.506 2.508zm-.506-11.799v9.293c0 .28.228.507.507.507h19.593c.279 0 .507-.227.507-.507v-9.293c0-.28-.228-.507-.507-.507l-19.593-.003c-.28.003-.507.23-.507.51z"/></g><g><path d="m191.896 301.859c-.758-.002-1.375-.618-1.377-1.376v-17.393c.002-.76.62-1.376 1.377-1.376h18.335c.76.002 1.374.609 1.376 1.376v17.394c-.002.762-.616 1.374-1.376 1.376h-18.335zm17.711-2v-16.147h-17.089v16.147z"/><path d="m196.165 297.589c-1.383 0-2.506-1.12-2.508-2.506v-9.293c.002-1.388 1.125-2.508 2.508-2.508h9.796c1.385 0 2.506 1.122 2.506 2.508v9.293c0 1.384-1.121 2.506-2.506 2.508zm-.507-11.799v9.293c0 .28.228.507.507.507h9.796c.28 0 .507-.227.507-.507v-9.293c0-.28-.227-.507-.507-.507l-9.796-.003c-.279.003-.507.23-.507.51z"/></g><g><path d="m211.846 301.858c-.76 0-1.377-.614-1.377-1.376v-17.394c0-.762.62-1.374 1.377-1.376h18.333c.758.002 1.375.614 1.378 1.376v17.394c-.002.762-.62 1.376-1.378 1.378zm17.712-1.998v-16.147h-17.089v16.146z"/><path d="m216.115 297.589c-1.386 0-2.506-1.122-2.506-2.506v-9.293c0-1.386 1.121-2.508 2.506-2.508h9.796c1.386 0 2.506 1.122 2.506 2.508v9.293c0 1.384-1.12 2.506-2.506 2.508zm-.508-11.799v9.293c.002.28.228.507.507.507h9.796c.28 0 .505-.227.507-.507v-9.293c-.002-.28-.228-.507-.507-.507l-9.796-.003c-.279.003-.505.23-.507.51z"/></g><g><path d="m231.794 301.859c-.76-.002-1.376-.62-1.378-1.376l.002-17.394c0-.76.616-1.376 1.376-1.376h18.335c.758 0 1.375.611 1.375 1.376v17.394c0 .76-.618 1.374-1.375 1.376zm17.712-2v-16.147h-17.087l-.002 16.147z"/><path d="m236.064 297.589c-1.386 0-2.506-1.122-2.506-2.506v-9.293c0-1.386 1.12-2.508 2.506-2.508h9.796c1.386 0 2.506 1.122 2.506 2.508v9.293c0 1.384-1.121 2.506-2.506 2.508zm-.507-11.799v9.293c.002.28.228.507.507.507h9.796c.278 0 .505-.227.505-.507v-9.293c0-.28-.228-.507-.505-.507l-9.796-.003c-.28.003-.505.23-.507.51z"/></g><g><path d="m251.744 301.859c-.76 0-1.376-.616-1.378-1.376l.002-17.394c0-.765.616-1.376 1.376-1.376h18.335c.755 0 1.375.607 1.377 1.376v17.394c-.002.765-.622 1.374-1.377 1.376zm17.713-2v-16.147h-17.089l-.002 16.147z"/><path d="m256.015 297.589c-1.388 0-2.508-1.122-2.508-2.506v-9.293c0-1.386 1.12-2.508 2.508-2.508h9.794c1.385 0 2.506 1.122 2.506 2.508v9.293c0 1.384-1.121 2.506-2.506 2.508zm-.509-11.799v9.293c0 .28.227.507.509.507h9.794c.279 0 .505-.227.507-.507v-9.293c-.002-.28-.228-.507-.507-.507l-9.794-.003c-.282.003-.509.23-.509.51z"/></g><g><path d="m271.694 301.858c-.76 0-1.376-.618-1.378-1.376v-17.394c.002-.76.62-1.374 1.378-1.376h18.335c.755.002 1.374.616 1.375 1.376v17.394c-.002.758-.618 1.376-1.375 1.378zm17.711-1.998v-16.147h-17.089v16.146z"/><path d="m275.962 297.589c-1.385 0-2.506-1.122-2.506-2.506v-9.293c0-1.386 1.121-2.508 2.506-2.508h9.796c1.385 0 2.506 1.122 2.506 2.508v9.293c0 1.384-1.121 2.506-2.506 2.508zm-.506-11.799v9.293c0 .28.227.507.507.507h9.796c.279 0 .505-.227.507-.507v-9.293c-.002-.28-.228-.507-.507-.507l-9.796-.003c-.28.003-.507.23-.507.51z"/></g><g><path d="m291.642 301.859c-.76-.002-1.374-.62-1.375-1.376v-17.393c.002-.76.618-1.376 1.375-1.376h18.338c.757 0 1.373.616 1.375 1.376v17.394h-.002c0 .756-.616 1.374-1.373 1.376h-18.338zm17.711-2 .002-16.147h-17.088v16.147z"/><path d="m295.914 297.589c-1.386 0-2.508-1.12-2.508-2.506v-9.293c0-1.388 1.123-2.508 2.508-2.508h9.794c1.383 0 2.506 1.12 2.506 2.508v9.293c0 1.386-1.123 2.506-2.506 2.508zm-.509-11.799v9.293c0 .28.228.507.509.507h9.794c.279 0 .507-.227.507-.507v-9.293c0-.28-.228-.507-.507-.507l-9.794-.003c-.282.003-.509.23-.509.51z"/></g><g><path d="m311.592 301.858c-.758 0-1.378-.614-1.38-1.376l.002-17.394c0-.762.62-1.374 1.378-1.376h18.335c.756 0 1.374.609 1.378 1.376v17.394h-.002c0 .765-.62 1.376-1.376 1.378zm17.711-1.998.002-16.147h-17.091l-.002 16.146z"/><path d="m315.86 297.589c-1.383 0-2.506-1.12-2.506-2.506v-9.293c0-1.388 1.123-2.508 2.506-2.508h9.797c1.386 0 2.506 1.122 2.506 2.508v9.293c0 1.384-1.12 2.506-2.506 2.508zm-.506-11.799v9.293c0 .28.228.507.507.507h9.797c.279 0 .507-.227.507-.507v-9.293c0-.28-.228-.507-.507-.507l-9.797-.003c-.28.003-.507.23-.507.51z"/></g><g><path d="m331.541 301.858c-.76 0-1.376-.614-1.378-1.376v-17.394c0-.762.62-1.374 1.378-1.376h18.335c.756.002 1.374.616 1.376 1.376v17.394c-.002.758-.618 1.376-1.376 1.378zm17.711-1.998v-16.147h-17.089v16.146z"/><path d="m335.811 297.589c-1.386 0-2.506-1.12-2.506-2.506v-9.293c0-1.388 1.12-2.506 2.506-2.508h9.796c1.384 0 2.506 1.122 2.506 2.508v9.293c0 1.384-1.122 2.506-2.506 2.508zm-.508-11.799v9.293c0 .28.229.507.508.507h9.796c.279 0 .505-.227.507-.507v-9.293c-.002-.28-.228-.507-.507-.507l-9.796-.003c-.279.003-.508.23-.508.51z"/></g><g><path d="m351.489 301.859c-.761-.002-1.374-.62-1.376-1.376v-17.393c.002-.76.615-1.376 1.376-1.376h18.337c.756 0 1.374.616 1.376 1.376v17.394c-.002.758-.618 1.374-1.376 1.376h-18.337zm17.713-2v-16.147h-17.089v16.147z"/><path d="m355.759 297.59c-1.386 0-2.502-1.124-2.504-2.508v-9.293c0-1.384 1.118-2.506 2.504-2.506h9.798c1.384 0 2.504 1.12 2.506 2.506v9.293c-.002 1.386-1.122 2.506-2.506 2.508zm-.505-11.801v9.293c0 .282.227.507.505.509h9.798c.277-.002.505-.229.507-.509v-9.293c-.002-.277-.229-.507-.507-.507h-9.798c-.279 0-.505.227-.505.507z"/></g><g><path d="m371.346 301.859c-.76-.002-1.377-.616-1.377-1.376v-17.393c0-.765.619-1.376 1.377-1.376h18.336c.758 0 1.373.616 1.376 1.376v17.394h-.003c0 .756-.615 1.374-1.373 1.376h-18.336zm17.71-2 .002-16.147h-17.09v16.147z"/><path d="m375.615 297.589c-1.386 0-2.506-1.122-2.506-2.506v-9.293c0-1.386 1.12-2.508 2.506-2.508h9.796c1.384 0 2.506 1.122 2.506 2.508v9.293c0 1.384-1.122 2.506-2.506 2.508zm-.508-11.799v9.293c0 .28.228.507.508.507h9.796c.277 0 .505-.227.507-.507v-9.293c-.002-.28-.229-.507-.507-.507l-9.796-.003c-.28.003-.508.23-.508.51z"/></g><g><path d="m391.295 301.859c-.76-.002-1.378-.618-1.378-1.376v-17.393c0-.76.62-1.376 1.378-1.376h27.377c.76 0 1.374.616 1.376 1.376v17.394c-.002.756-.616 1.374-1.376 1.376h-27.377zm26.753-2v-16.147h-26.131v16.147z"/><path d="m395.564 297.589c-1.384 0-2.508-1.12-2.508-2.506v-9.293c.002-1.388 1.124-2.508 2.508-2.508h18.839c1.384.002 2.504 1.12 2.506 2.508v9.293c-.002 1.386-1.122 2.506-2.506 2.508zm-.506-11.799v9.293c0 .28.227.507.507.507h18.839c.277 0 .505-.227.507-.507v-9.293c-.002-.28-.229-.507-.507-.507l-18.839-.003c-.281.003-.507.23-.507.51z"/></g><g><path d="m420.286 301.858c-.759 0-1.376-.614-1.378-1.376v-17.392c0-.766.619-1.376 1.378-1.376h18.335c.757 0 1.374.608 1.378 1.376v17.392h-.002c0 .766-.617 1.376-1.376 1.376zm17.712-1.999v-16.147h-17.089l-.002 16.147z"/><path d="m424.556 297.59c-1.386 0-2.506-1.123-2.506-2.507v-9.294c0-1.386 1.12-2.506 2.506-2.508l9.796.002c1.384 0 2.506 1.122 2.506 2.506v9.294c0 1.384-1.122 2.507-2.506 2.507zm-.508-11.801v9.294c.002.28.229.506.508.506l9.796.002c.28-.002.506-.228.506-.508v-9.294c0-.28-.226-.506-.506-.506l-9.796-.002c-.28.002-.506.231-.508.508z"/></g><g><path d="m440.234 301.858c-.759 0-1.375-.614-1.377-1.375v-17.395c0-.763.62-1.375 1.377-1.377l18.335.002c.757 0 1.375.608 1.38 1.375v17.395h-.003c0 .765-.62 1.375-1.377 1.377zm17.713-1.998v-16.146l-17.091-.002v16.146z"/><path d="m444.506 297.589c-1.385 0-2.508-1.121-2.508-2.506v-9.293c0-1.388 1.123-2.507 2.508-2.509l9.794.002c1.386 0 2.507 1.121 2.507 2.507v9.293c0 1.385-1.121 2.506-2.507 2.508zm-.509-11.799v9.293c0 .278.229.507.509.507h9.794c.281 0 .508-.227.508-.507v-9.293c0-.279-.227-.508-.508-.508h-9.794c-.28 0-.509.229-.509.508z"/></g></g><path d="m358.363 242.263-.001-9.025c.001-.87.705-1.575 1.577-1.575.871 0 1.577.704 1.577 1.575v9.025c0 .871-.706 1.576-1.577 1.577-.871-.001-1.576-.706-1.576-1.577zm1.197-9.025v9.025c.002.209.171.378.379.378.21 0 .379-.169.38-.378l-.001-9.025c0-.207-.169-.377-.379-.377-.209 0-.377.168-.379.377z" transform="matrix(.965926 -.258818 .258818 .965926 -49.269906 101.260002)"/><path d="m362.25 241.221v-9.024c0-.871.706-1.575 1.576-1.575.871 0 1.576.704 1.576 1.575v9.024c0 .871-.705 1.577-1.576 1.577-.871 0-1.576-.706-1.576-1.577zm1.196-9.024v9.024c.001.21.17.379.38.379.209 0 .377-.169.379-.379l-.002-9.024c0-.209-.168-.378-.377-.378-.21 0-.379.169-.38.378z" transform="matrix(.965926 -.258819 .258819 .965926 -48.867922 102.230607)"/><path d="m366.135 240.18v-9.025c0-.87.706-1.575 1.576-1.575.871 0 1.576.706 1.577 1.575v9.025c0 .872-.707 1.576-1.577 1.577-.87-.001-1.576-.705-1.576-1.577zm1.198-9.025v9.025c0 .209.169.378.378.378.21 0 .379-.169.379-.378v-9.025c0-.209-.17-.377-.379-.377-.209 0-.378.168-.378.377z" transform="matrix(.965926 -.258819 .258819 .965926 -48.465974 103.200757)"/><path d="m370.021 239.139.001-9.025c0-.87.705-1.575 1.576-1.575.871 0 1.575.706 1.575 1.575v9.025c0 .871-.706 1.575-1.575 1.577-.871-.002-1.577-.706-1.577-1.577zm1.197-9.025v9.025c.001.209.17.378.38.378.208 0 .378-.169.378-.378v-9.025c0-.209-.17-.377-.378-.377-.21 0-.379.168-.38.377z" transform="matrix(.965926 -.258819 .258819 .965926 -48.06421 104.171125)"/><path d="m373.908 238.098-.001-9.025c.001-.871.705-1.575 1.576-1.575.872 0 1.576.704 1.577 1.575v9.025c-.001.87-.706 1.576-1.577 1.576-.871 0-1.575-.706-1.575-1.576zm1.197-9.025v9.025c0 .209.17.379.378.379.209 0 .379-.17.379-.379v-9.025c0-.208-.17-.378-.379-.378-.208 0-.378.17-.378.378z" transform="matrix(.965926 -.258819 .258819 .965926 -47.662159 105.141344)"/><path d="m377.793 237.056v-9.024c0-.872.706-1.575 1.577-1.575.871 0 1.575.703 1.575 1.575v9.024c0 .871-.705 1.577-1.575 1.577-.871 0-1.577-.706-1.577-1.577zm1.198-9.024v9.024c0 .21.169.379.379.379.209 0 .379-.169.379-.379v-9.024c0-.209-.17-.378-.379-.378-.21 0-.379.169-.379.378z" transform="matrix(.965926 -.258819 .258819 .965926 -47.260334 106.111518)"/><path d="m381.679 236.015v-9.025c0-.871.706-1.574 1.577-1.574.87 0 1.575.703 1.575 1.574v9.025c0 .87-.706 1.577-1.575 1.577-.871 0-1.577-.707-1.577-1.577zm1.197-9.025v9.025c.001.209.171.379.38.379.209 0 .378-.17.379-.379v-9.025c-.001-.208-.17-.377-.379-.377-.21 0-.379.169-.38.377z" transform="matrix(.965926 -.258819 .258819 .965926 -46.858493 107.081809)"/><path d="m359.332 296.782v-97.604h229.353v97.005.598h-229.353zm228.754-.599v-.6zm-227.558-.6h226.959v-95.207h-226.958z" transform="matrix(.965926 -.258819 .258819 .965926 -48.030454 131.131905)"/><path d="m353.423 248.858v-18.795h3.905v18.196.599zm3.307-.599v-.6zm-2.109-16.997v16.397h1.51v-16.398z" transform="matrix(.965926 -.258819 .258819 .965926 -49.867751 100.137182)"/><path d="m570.422 190.77v-18.793h3.905v18.194.599zm3.307-.599v-.598zm-2.108-.598h1.508v-16.398h-1.508z" transform="matrix(.965926 -.258819 .258819 .965926 -27.439729 154.321601)"/><path d="m352.24 220.099v-1.195h228.024v1.196z" transform="matrix(.965926 -.258819 .258819 .965926 -40.924169 128.154342)"/><path d="m403.758 310.874c0-1.375 1.113-2.488 2.487-2.49 1.374.002 2.489 1.115 2.489 2.49 0 1.374-1.114 2.487-2.489 2.487-1.375 0-2.487-1.113-2.487-2.487zm1.197 0c.001.711.578 1.287 1.29 1.289.712-.002 1.29-.578 1.291-1.289-.001-.714-.579-1.289-1.291-1.292-.713.003-1.289.577-1.29 1.292z" transform="matrix(.965926 -.258819 .258819 .965926 -66.617266 115.737015)"/><path d="m415.688 307.678c0-1.375 1.113-2.489 2.487-2.49 1.376.001 2.489 1.115 2.489 2.49h.001c-.001 1.374-1.114 2.487-2.49 2.487-1.374 0-2.487-1.113-2.487-2.487zm1.197 0c.001.71.578 1.287 1.289 1.288.714-.001 1.29-.578 1.292-1.288-.002-.715-.578-1.29-1.292-1.293-.711.003-1.288.578-1.289 1.293z" transform="matrix(.965926 -.258819 .258819 .965926 -65.383526 118.715877)"/><path d="m427.619 304.481c0-1.375 1.113-2.489 2.487-2.489 1.374 0 2.489 1.112 2.489 2.489 0 1.374-1.115 2.486-2.489 2.487-1.374 0-2.487-1.113-2.487-2.487zm1.197 0c.001.71.578 1.287 1.29 1.29.712-.003 1.29-.58 1.291-1.29-.001-.713-.579-1.29-1.291-1.293-.712.003-1.289.578-1.29 1.293z" transform="matrix(.965926 -.258819 .258819 .965926 -64.149596 121.694565)"/><path d="m334.401 302.758v-109.325l6.769-84.376c.019-2.059 1.694-3.721 3.758-3.722h235.624c2.069.001 3.747 1.672 3.756 3.739l6.767 84.389-.597.048.597-.048.003.031-.002 109.265c0 2.076-1.682 3.757-3.755 3.757l-249.161.001c-2.076-.002-3.757-1.682-3.759-3.759zm7.966-193.666v.023l-6.768 84.359.001 109.284c.002 1.414 1.147 2.556 2.56 2.56l249.161-.001c1.412-.003 2.556-1.145 2.558-2.559v-109.23l-6.768-84.418v-.019c-.003-1.413-1.146-2.556-2.558-2.559h-235.625c-1.414.003-2.558 1.148-2.561 2.56z" transform="matrix(.965926 -.258818 .258818 .965926 -37.530058 126.782244)"/></g></svg>