<svg xmlns="http://www.w3.org/2000/svg"><g fill="#fff"><path d="m351.072 104.689c0 28.998-22.727 43.496-68.175 43.496-7.888 0-20.176-.216-36.865-.654.907-22.006 1.366-46.814 1.366-74.43 0-26.519-.454-49.143-1.366-67.871h16.967c3.215 0 8.604-.109 16.178-.325s13.494-.33 17.75-.33c30.929 0 46.391 10.495 46.391 31.476 0 16.178-7.924 26.884-23.773 32.129v1.639c8.445 1.386 15.813 4.827 22.098 10.325 6.286 5.513 9.429 13.69 9.429 24.545zm-35.922-59.998c0-13.04-7.821-19.563-23.458-19.563-7.193 0-13.582.546-19.161 1.638.762 7.363 1.149 20.001 1.149 37.926 2.653.144 5.445.217 8.377.217 22.062-.006 33.093-6.74 33.093-20.218zm7.646 61.204c0-14.498-12.18-21.753-36.55-21.753-4.817 0-8.97.186-12.458.546 0 15.23.314 29.255.943 42.079 2.37.587 5.93.876 10.68.876 12.917 0 22.377-1.618 28.379-4.864 6.003-3.246 9.006-8.872 9.006-16.884z"/><path d="m479.256 104.689c0 28.998-22.727 43.496-68.175 43.496-7.888 0-20.176-.216-36.86-.654.907-22.006 1.361-46.814 1.361-74.43 0-26.519-.454-49.143-1.361-67.871h16.962c3.21 0 8.604-.109 16.178-.325 7.579-.216 13.494-.33 17.75-.33 30.929 0 46.391 10.495 46.391 31.476 0 16.178-7.919 26.884-23.768 32.129v1.639c8.45 1.386 15.813 4.827 22.098 10.325 6.281 5.513 9.424 13.69 9.424 24.545zm-35.922-59.998c0-13.04-7.821-19.563-23.458-19.563-7.193 0-13.582.546-19.167 1.638.768 7.363 1.154 20.001 1.154 37.926 2.654.144 5.446.217 8.378.217 22.062-.006 33.093-6.74 33.093-20.218zm7.646 61.204c0-14.498-12.185-21.753-36.545-21.753-4.817 0-8.975.186-12.463.546 0 15.23.314 29.255.942 42.079 2.371.587 5.931.876 10.681.876 12.917 0 22.377-1.618 28.379-4.864s9.006-8.872 9.006-16.884z"/><path d="m600 121.63-1.783 25.138c-9.918 2.473-19.687 3.715-29.321 3.715-23.943 0-42.187-6.899-54.718-20.712-12.535-13.808-18.795-30.584-18.795-50.333 0-20.47 6.651-38.287 19.949-53.445 13.298-15.153 31.543-22.732 54.718-22.732 8.516 0 16.585 1.021 24.19 3.061l-3.664 25.246c-8.243-2.772-16.131-4.153-23.669-4.153-14.174 0-24.716 4.684-31.63 14.046-6.914 9.361-10.367 20.748-10.367 34.154 0 13.7 4.097 25.576 12.309 35.628 8.203 10.057 19.703 15.086 34.5 15.086 8.666 0 18.09-1.561 28.281-4.699z"/><path d="m275.637 220.451-16.451-46.855c-.093-.211-.278-.417-.649-.417s-.83.278-.83.701v46.571h-7.671v-51.327h14.143l14.416 39.858c.185.417.464.629.834.629.557 0 1.021-.284 1.108-.701l14.051-39.791h14.328v51.327h-7.672v-46.288c0-.423-.371-.634-.649-.634-.371 0-.742.139-.922.495l-16.266 46.432z"/><path d="m327.856 215.907h5.729v-42.1h-5.729v-4.683h21.351v4.683h-6.008v42.1h6.008v4.544h-21.351z"/><path d="m396.706 184.024c-.742-4.972-3.88-9.444-11.273-9.444-6.75 0-9.614 3.983-11.088 6.714-2.494 4.616-2.777 11.747-2.777 12.314 0 11.257 2.684 22.232 13.865 22.232 5.363 0 8.135-2.932 8.965-3.916 1.844-2.38 2.215-5.317 2.401-6.992l9.243 1.258c-.371 4.054-2.308 8.46-6.373 11.536-5.823 4.405-12.479 4.405-15.066 4.405-5.549 0-22.273-2.169-22.273-26.854 0-11.819 3.972-26.782 23.103-26.782 4.343 0 9.985.974 14.143 4.194 4.621 3.561 5.544 7.621 6.007 10.068z"/><path d="m424.065 169.124h20.887c18.95 0 23.015 8.671 23.015 13.916 0 9.645-8.408 12.237-14.509 13.7l17.745 23.711h-11.088l-16.085-22.794h-10.444v22.794h-9.521zm9.428 6.013v16.997c5.173.072 11.83.072 15.339-.494 3.704-.629 9.521-2.097 9.521-7.832 0-6.018-5.353-8.676-15.524-8.676h-9.336z"/><path d="m523.138 180.804c2.035 4.545 2.587 10.557 2.587 14.128 0 12.237-4.529 27.06-22.83 27.06-16.637 0-22.923-12.659-22.923-26.365 0-7.831 1.67-14.962 5.549-19.645 5.642-6.853 12.381-7.621 17.374-7.621 11.464-.005 17.471 6.286 20.243 12.443zm-20.053-6.296c-5.822 0-9.423 3.076-11.366 7.904-1.298 3.076-2.035 7.62-2.035 12.999 0 6.513 1.196 20.212 13.03 20.212 9.609 0 13.304-7.481 13.304-20.49.005-6.781-.825-20.625-12.933-20.625z"/><circle cx="9.599" cy="9.599" r="9.599"/><circle cx="34.933" cy="9.599" r="9.599"/><circle cx="60.266" cy="9.599" r="9.599" transform="matrix(.999999 0 0 1 .000048 0)"/><circle cx="85.605" cy="9.599" r="9.599" transform="matrix(1.000001 0 0 1 -.000068 0)"/><circle cx="110.939" cy="9.599" r="9.599" transform="matrix(1.000001 0 0 1 -.000088 0)"/><circle cx="136.273" cy="9.599" r="9.599"/><circle cx="161.607" cy="9.599" r="9.599"/><circle cx="186.941" cy="9.599" r="9.599"/><circle cx="212.274" cy="9.599" r="9.599"/><circle cx="22.098" cy="24.102" r="9.599"/><circle cx="98.105" cy="24.102" r="9.599" transform="matrix(1.000001 0 0 1 -.000078 .000002)"/><circle cx="123.439" cy="24.102" r="9.599"/><circle cx="199.44" cy="24.102" r="9.599"/><circle cx="9.599" cy="38.168" r="9.599"/><circle cx="60.266" cy="38.168" r="9.599" transform="matrix(.999999 0 0 1 .000048 0)"/><circle cx="110.939" cy="38.168" r="9.599" transform="matrix(1.000001 0 0 1 -.000088 0)"/><circle cx="161.607" cy="38.168" r="9.599"/><circle cx="212.274" cy="38.168" r="9.599"/><circle cx="47.432" cy="52.677" r="9.599"/><circle cx="72.771" cy="52.677" r="9.599" transform="matrix(.999999 0 0 1 .000058 0)"/><circle cx="148.772" cy="52.677" r="9.599" transform="matrix(1.000002 0 0 1 -.000236 0)"/><circle cx="174.106" cy="52.677" r="9.599" transform="matrix(.999998 0 0 1 .000277 0)"/><circle cx="9.599" cy="66.068" r="9.599"/><circle cx="60.266" cy="66.068" r="9.599" transform="matrix(.999999 0 0 1 .000048 .000026)"/><circle cx="161.607" cy="66.068" r="9.599"/><circle cx="212.274" cy="66.068" r="9.599"/><circle cx="22.098" cy="80.577" r="9.599"/><circle cx="98.105" cy="80.577" r="9.599" transform="matrix(1.000001 0 0 1 -.000078 0)"/><circle cx="123.439" cy="80.577" r="9.599"/><circle cx="199.44" cy="80.577" r="9.599"/><circle cx="1.863" cy="26.544" r="1.863" transform="matrix(5.152293 0 0 5.152288 0 -42.125008)"/><circle cx="6.78" cy="26.544" r="1.863" transform="matrix(5.152293 0 0 5.152288 0 -42.125008)"/><circle cx="21.532" cy="26.544" r="1.863" transform="matrix(5.152293 0 0 5.152288 0 -42.125008)"/><circle cx="36.283" cy="26.544" r="1.863" transform="matrix(5.152293 0 0 5.152288 0 -42.125008)"/><circle cx="41.2" cy="26.544" r="1.863" transform="matrix(5.152293 0 0 5.152288 0 -42.125008)"/><g transform="matrix(5.152293 0 0 5.152298 0 -42.125298)"><circle cx="4.289" cy="29.36" r="1.863"/><circle cx="9.206" cy="29.36" r="1.863"/><circle cx="14.124" cy="29.36" r="1.863"/><circle cx="19.041" cy="29.36" r="1.863"/><circle cx="23.958" cy="29.36" r="1.863"/><circle cx="28.875" cy="29.36" r="1.863"/><circle cx="33.792" cy="29.36" r="1.863"/></g><circle cx="1.863" cy="32.22" r="1.863" transform="matrix(5.152293 0 0 5.152298 0 -42.125313)"/><circle cx="6.78" cy="32.22" r="1.863" transform="matrix(5.152293 0 0 5.152298 0 -42.125313)"/><circle cx="11.697" cy="32.22" r="1.863" transform="matrix(5.152293 0 0 5.152298 0 -42.125313)"/><circle cx="16.615" cy="32.22" r="1.863" transform="matrix(5.152293 0 0 5.152298 0 -42.125313)"/><circle cx="21.532" cy="32.22" r="1.863" transform="matrix(5.152293 0 0 5.152298 0 -42.125313)"/><circle cx="41.2" cy="32.22" r="1.863" transform="matrix(5.152293 0 0 5.152298 0 -42.125313)"/><circle cx="22.098" cy="138.391" r="9.599"/><circle cx="47.432" cy="138.391" r="9.599"/><circle cx="72.771" cy="138.391" r="9.599" transform="matrix(.999999 0 0 1 .000058 0)"/><circle cx="98.105" cy="138.391" r="9.599" transform="matrix(1.000001 0 0 1 -.000078 0)"/><circle cx="123.439" cy="138.391" r="9.599"/><circle cx="34.933" cy="152.451" r="9.599"/><circle cx="60.266" cy="152.451" r="9.599" transform="matrix(.999999 0 0 1 .000048 0)"/><circle cx="85.605" cy="152.451" r="9.599" transform="matrix(1.000001 0 0 1 -.000068 0)"/><circle cx="110.939" cy="152.451" r="9.599" transform="matrix(1.000001 0 0 1 -.000088 0)"/><circle cx="212.274" cy="152.451" r="9.599"/><circle cx="47.432" cy="166.96" r="9.599"/><circle cx="72.771" cy="166.96" r="9.599" transform="matrix(.999999 0 0 1 .000058 0)"/><circle cx="98.105" cy="166.96" r="9.599" transform="matrix(1.000001 0 0 1 -.000078 0)"/><circle cx="123.439" cy="166.96" r="9.599"/><circle cx="60.266" cy="180.356" r="9.599" transform="matrix(.999999 0 0 1 .000048 0)"/><circle cx="85.605" cy="180.356" r="9.599" transform="matrix(1.000001 0 0 1 -.000068 0)"/><circle cx="110.939" cy="180.356" r="9.599" transform="matrix(1.000001 0 0 1 -.000088 0)"/><circle cx="136.273" cy="180.356" r="9.599"/><circle cx="212.274" cy="180.356" r="9.599"/><circle cx="72.771" cy="194.86" r="9.599" transform="matrix(.999999 0 0 .999998 .000058 .00031)"/><circle cx="98.105" cy="194.86" r="9.599" transform="matrix(1.000001 0 0 .999998 -.000078 .00031)"/><circle cx="123.439" cy="194.86" r="9.599" transform="matrix(1 0 0 .999998 0 .00031)"/><circle cx="148.772" cy="194.86" r="9.599" transform="matrix(1.000002 0 0 .999998 -.000236 .00031)"/><circle cx="85.605" cy="208.925" r="9.599" transform="matrix(1.000001 0 0 1 -.000068 0)"/><circle cx="110.939" cy="208.925" r="9.599" transform="matrix(1.000001 0 0 1 -.000088 0)"/><circle cx="136.273" cy="208.925" r="9.599"/><circle cx="161.607" cy="208.925" r="9.599"/><circle cx="212.274" cy="208.925" r="9.599"/><circle cx="98.105" cy="223.429" r="9.599" transform="matrix(1.000001 0 0 .999998 -.000078 .000355)"/><circle cx="148.772" cy="223.429" r="9.599" transform="matrix(1.000002 0 0 .999998 -.000236 .000355)"/><circle cx="174.105928788" cy="223.428908142" r="9.598980802" stroke-width=".999998"/><circle cx="85.605" cy="237.567" r="9.599" transform="matrix(1.000001 0 0 .999998 -.000068 .000378)"/><circle cx="136.273" cy="237.567" r="9.599" transform="matrix(1 0 0 .999998 0 .000378)"/><circle cx="186.941" cy="237.567" r="9.599" transform="matrix(1 0 0 .999998 0 .000378)"/><circle cx="212.274" cy="237.567" r="9.599" transform="matrix(1 0 0 .999998 0 .000378)"/><circle cx="22.098" cy="252.081" r="9.599" transform="matrix(1 0 0 .999998 .000004 .000401)"/><circle cx="47.432" cy="252.081" r="9.599" transform="matrix(1 0 0 .999998 0 .000401)"/><circle cx="72.771" cy="252.081" r="9.599" transform="matrix(.999999 0 0 .999998 .000058 .000401)"/><circle cx="98.105" cy="252.081" r="9.599" transform="matrix(1.000001 0 0 .999998 -.000078 .000401)"/><circle cx="123.439" cy="252.081" r="9.599" transform="matrix(1 0 0 .999998 0 .000401)"/><circle cx="148.772" cy="252.081" r="9.599" transform="matrix(1.000002 0 0 .999998 -.000236 .000401)"/><circle cx="199.44" cy="252.081" r="9.599" transform="matrix(1 0 0 .999998 0 .000401)"/><circle cx="212.274" cy="266.137" r="9.599"/></g></svg>