<svg xmlns="http://www.w3.org/2000/svg"><g clip-rule="evenodd" fill="#fff" fill-rule="evenodd"><path d="m599.951 192.599c.111-1.437 0-2.925 0-4.128.018-27.522.021-55.041-.006-82.563-.003-1.428-.078-2.907-.444-4.278-7.942-29.82-22.323-55.806-46.145-75.905-19.562-16.499-42.031-25.703-67.921-25.697-68.233.012-136.466.003-204.702.003-91.84 0-183.676 0-275.512.012-1.696 0-3.391-.087-5.221 0v62.55c1.284.501 2.4 1.005 3.558 1.374 8.443 2.697 16.892 5.368 25.341 8.044 85.074 26.934 170.147 53.867 255.221 80.81 40.177 12.725 80.342 25.494 120.532 38.185 2.523.795 5.205 1.536 7.815 1.539 61.123.084 122.245.066 183.367.054 1.2 0 2.679.111 4.117 0zm-236.863-3.966c-54.788-17.366-109.136-34.591-164.162-52.031v241.599c-23.681 11.945-47.02 23.718-70.198 35.41v71.284h287.253c0-46.165 0-92.049 0-138.539-17.693 0-35.119 0-52.893 0 0-52.826 0-105.044 0-157.723zm18.596 18.884v121.512h218c0-40.594 0-80.915 0-121.512-72.758 0-145.239 0-218 0z"/><path d="m599.951 192.599-190.532-.054-409.419-129.751s0-41.71 0-62.754c1.83-.084 188.893-.009 280.733-.009 68.233 0 136.469.006 204.702-.003 25.89-.006 48.359 9.198 67.921 25.697 23.822 20.099 38.203 46.085 46.145 75.905.366 1.371.441 2.85.444 4.278.027 27.522.006 86.691.006 86.691z"/><path d="m363.088 188.633v157.72h52.893v138.539c-95.827 0-191.39 0-287.253 0 0-23.762 0-47.296 0-71.284 23.178-11.692 46.517-23.462 70.198-35.41 0-80.354 0-160.573 0-241.599 55.026 17.443 109.371 34.668 164.162 52.034z"/></g></svg>