<svg viewBox="0 0 200 40" xmlns="http://www.w3.org/2000/svg"><path d="m61.75 24.22h-3.72l-.78 4.53h-5.7l3.3-18.75h9c3.4 0 5.1 1.58 5.1 4.74 0 1.5-.21 2.853-.63 4.06-.42 1.213-.883 2.177-1.39 2.89-.513.707-1.217 1.307-2.11 1.8-.887.487-1.91.73-3.07.73zm-.75-9.42h-1.32l-.81 4.62h1.32c.68 0 1.193-.073 1.54-.22.353-.153.58-.5.68-1.04.26-1.48.39-2.29.39-2.43 0-.38-.15-.63-.45-.75-.3-.12-.75-.18-1.35-.18zm10.62-4.8h5.7l-2.49 14.07h2.04c.7 0 1.2-.093 1.5-.28.3-.193.51-.63.63-1.31l2.22-12.48h5.7l-1.86 10.53c-.3 1.7-.647 3.07-1.04 4.11-.387 1.04-.93 1.92-1.63 2.64-.7.72-1.567 1.22-2.6 1.5-1.027.28-2.33.42-3.91.42-2.42 0-4.117-.367-5.09-1.1-.967-.727-1.45-1.98-1.45-3.76 0-.98.14-2.25.42-3.81zm29.79 13.95-.84 4.8h-15.36l.66-3.75 9.03-10.02-.06-.18h-5.97l.33-4.8h14.55l-.66 3.75-8.97 10.02.03.18zm16.44 0-.84 4.8h-15.36l.66-3.75 9.03-10.02-.06-.18h-5.97l.33-4.8h14.55l-.66 3.75-8.97 10.02.03.18zm28.17-6.63-.78 4.35h-5.7l-.39 2.28h6.99l-.84 4.8h-12.69l3.3-18.75h12.54l-1.56 4.8h-6.15l-.42 2.52z" fill="#fff"/><g fill="#ccc"><path d="m125.745 23.242h5.625v5.654h-5.625z" transform="matrix(.995987 .089497 -.089497 .995987 2.848988 -11.400902)"/><path d="m120.177 16.517h5.626v5.652h-5.626z" transform="matrix(.995987 .089497 -.089497 .995987 2.224689 -10.92962)"/><path d="m119.615 22.771h5.625v5.654h-5.625z" transform="matrix(.995987 .089497 -.089497 .995987 2.782236 -10.854176)"/><path d="m120.74 10.26h5.626v5.653h-5.626z" transform="matrix(.995987 .089497 -.089497 .995987 1.66701 -11.005111)"/></g></svg>