<svg xmlns="http://www.w3.org/2000/svg"><g fill="#fff"><path d="m46.296 15.186 10.743-7.776s-14.814-8.889-31.113 5.184c0 0-5.925 7.407 5.187 12.594 0 0 15.555 6.666 7.407 11.109 0 0-12.591 11.115-25.185-1.479l-13.335 9.627s17.037 15.558 40.002 5.928c0 0 20.739-5.928 18.519-22.965 0 0 .738-6.666-12.225-12.222zm141.852 24.075 11.853-32.592h-18.519l-9.63 28.146s.741 5.928-10.371 5.928c0 0-8.889 1.479-5.925-8.148l8.889-25.926h-17.037l-11.112 34.074s3.705 11.853 12.594 11.853h18.519s13.332-1.485 20.739-13.335zm-9.633 14.073 8.889.741 32.595-33.333 9.63 31.851h17.778l-14.076-52.593zm138.522-31.851c0-10.371-12.594-14.814-12.594-14.814h-38.52l-16.296 46.665h17.778l3.705-10.368h10.368l7.41 11.109h19.998l-11.853-15.555c20.745-5.925 20.004-17.037 20.004-17.037zm-24.447 8.889h-17.037l4.446-12.591h16.296c4.443.741 5.184 5.925 5.184 5.925-4.446 7.407-8.889 6.666-8.889 6.666zm40.002 5.184h16.296l10.371-11.109h-20.001v-5.928h25.185l3.705-11.109h-42.225l-17.037 46.665h42.963l5.187-12.591h-25.188zm208.89-15.552 5.925-12.594h-44.445l-16.296 47.409h19.257l5.928-17.037h14.814l11.112-11.112h-21.48l2.223-6.666zm8.148-12.594-5.187 12.594h17.037l-12.591 34.074 18.519.741 12.591-35.556h15.558l4.443-11.853zm-145.92 10.368 10.74-7.776s-14.814-8.889-31.11 5.184c0 0-5.928 7.407 5.184 12.594 0 0 15.558 6.666 7.41 11.112 0 0-12.594 11.112-25.188-1.482l-13.332 9.627s17.037 15.558 39.999 5.928c0 0 20.742-5.928 18.519-22.965 0 0 .741-6.666-12.222-12.222zm90.012 7.116c-2.349-13.065-21.432-20.562-42.627-16.755-21.192 3.813-36.471 17.487-34.122 30.549s21.432 20.562 42.624 16.752c21.195-3.807 36.474-17.487 34.125-30.546zm-34.458 19.452c-11.886 2.697-22.857-1.029-24.51-8.313-1.653-7.287 6.642-15.378 18.525-18.072 11.886-2.694 22.857 1.029 24.51 8.313 1.653 7.287-6.642 15.378-18.525 18.072zm-321.102-22.416c-2.349-13.062-21.432-20.562-42.627-16.752s-36.471 17.487-34.122 30.546c2.346 13.062 21.429 20.562 42.624 16.752 21.195-3.807 36.471-17.487 34.125-30.546zm-34.461 19.455c-11.883 2.694-22.857-1.029-24.51-8.316-1.65-7.284 6.645-15.378 18.528-18.072 11.886-2.694 22.857 1.029 24.51 8.313 1.65 7.287-6.645 15.378-18.528 18.075z"/><path d="m127.041 53.154h-39.261l32.592-8.148h15.558z"/></g></svg>