<svg viewBox="0 0 200 40" xmlns="http://www.w3.org/2000/svg"><path d="m35.363 20c0 7.686-8.332 12.49-15.001 8.647-3.094-1.782-4.999-5.08-4.999-8.647 0-7.686 8.332-12.491 15.001-8.648 3.093 1.784 4.999 5.082 4.999 8.648z" fill="none" stroke="#ccc" stroke-linecap="round" stroke-linejoin="round"/><path d="m56.426 10.45-.87 4.8h-4.14l-2.43 13.95h-5.7l2.43-13.95h-4.11l.87-4.8zm12.659 12.51 1.98 6.24h-6.27l-1.38-5.58h-1.23l-.96 5.58h-5.7l3.3-18.75h9c3.42 0 5.13 1.53 5.13 4.59 0 1.26-.19 2.46-.57 3.6-.7 2.16-1.8 3.6-3.3 4.32zm-4.29-7.71h-1.14l-.66 3.75h1.32c.68 0 1.193-.073 1.54-.22.353-.153.593-.583.72-1.29.133-.713.2-1.15.2-1.31 0-.4-.153-.657-.46-.77-.313-.107-.82-.16-1.52-.16zm14.129 10.98-1.17 2.97h-6l7.89-18.75h8.82l1.32 18.75h-6.03l-.12-2.97zm4.26-10.02h-.3l-2.1 5.25h2.4zm21.479 7.62-.48 5.04c-1.28.52-2.9.78-4.86.78-2.52 0-4.327-.49-5.42-1.47-1.087-.98-1.63-2.49-1.63-4.53 0-.86.14-2.13.42-3.81.6-3.44 1.633-5.94 3.1-7.5 1.473-1.56 3.8-2.34 6.98-2.34.74 0 1.586.077 2.54.23.946.147 1.64.33 2.08.55l-1.68 4.59c-1.18-.28-2.284-.42-3.31-.42-1.034 0-1.77.1-2.21.3-.44.2-.71.6-.81 1.2l-1.38 7.86c.72.16 1.46.24 2.22.24 1.62 0 3.1-.24 4.44-.72zm9.419-2.22.03-.57h-.24l-1.41 8.16h-5.7l3.3-18.75h5.7l-1.35 7.65h.24c.16-.64.34-1.12.54-1.44l3.78-6.21h6.15l-5.88 9.21 2.73 9.54h-6.15l-1.65-6.72c-.06-.2-.09-.49-.09-.87zm20.188 7.59h-10.26l3.3-18.75h9.24c1.44 0 2.484.25 3.13.75.654.5.98 1.27.98 2.31 0 1.52-.336 2.77-1.01 3.75-.666.98-1.48 1.59-2.44 1.83l-.03.18c1.8.34 2.701 1.53 2.701 3.57 0 1.8-.491 3.31-1.47 4.53-.981 1.22-2.361 1.83-4.141 1.83zm-1.019-7.47h-2.251l-.54 3.06h2.22c.5 0 .88-.2 1.14-.6.26-.4.39-.91.39-1.53 0-.62-.32-.93-.959-.93zm.839-7.17h-1.8l-.509 2.79h1.769c.921 0 1.38-.65 1.38-1.95 0-.56-.28-.84-.84-.84zm12.689 11.67-1.17 2.97h-6l7.89-18.75h8.82l1.32 18.75h-6.03l-.12-2.97zm4.26-10.02h-.3l-2.1 5.25h2.4zm20.819 8.19-.84 4.8h-11.4l3.3-18.75h5.7l-2.46 13.95zm12.779 0-.84 4.8h-11.4l3.3-18.75h5.7l-2.46 13.95z" fill="#fff"/><path d="m24.709 26.984c-.53-.051-1.199-.201-1.707-.384-2.021-.733-3.606-2.358-4.283-4.392-.515-1.551-.472-3.25.127-4.758.355-.893.837-1.632 1.513-2.329.558-.57 1.124-.99 1.82-1.349 2.313-1.194 5.117-.99 7.239.521.333.24.586.454.9.77 1.104 1.102 1.787 2.482 2.002 4.046.04.303.057 1.18.029 1.504-.186 2.057-1.253 3.904-2.949 5.115-.983.699-2.197 1.149-3.403 1.257-.247.02-1.047.02-1.288-.001zm-3.071-4.351c-.078-.229-.161-.579-.203-.84-.043-.291-.043-.998 0-1.296.178-1.175.69-2.179 1.521-2.989.835-.811 1.842-1.297 2.991-1.444.284-.037.938-.031 1.207.011.27.041.619.123.84.2.095.032.173.055.179.05.011-.014-.269-.215-.442-.321-.539-.327-1.139-.533-1.809-.623-.235-.029-.889-.029-1.118.003-1.38.189-2.56.926-3.325 2.077-.15.223-.397.718-.494.981-.492 1.344-.311 2.879.48 4.08.081.123.216.296.222.287.004-.005-.019-.083-.049-.176z" fill="#ccc"/></svg>