<svg xmlns="http://www.w3.org/2000/svg"><g fill="#1e1e1e"><path d="m155.177 123.269c-27.133 0-49.134 22.002-49.134 49.132 0 27.132 22.001 49.135 49.134 49.135 27.132 0 49.135-22.002 49.135-49.135 0-27.132-22.002-49.135-49.135-49.135zm0 1.018c26.581 0 48.116 21.534 48.116 48.116s-21.534 48.117-48.116 48.117c-26.584 0-48.118-21.532-48.118-48.117 0-26.581 21.534-48.115 48.116-48.115z" transform="matrix(.965926 -.258819 .258819 .965926 -39.333101 46.037288)"/><path d="m155.179 151.675c-11.442 0-20.731 9.288-20.731 20.73 0 11.441 9.289 20.73 20.731 20.73 11.441 0 20.73-9.288 20.73-20.73s-9.288-20.73-20.73-20.73zm0 1.019c10.89 0 19.71 8.82 19.71 19.711 0 10.89-8.82 19.711-19.71 19.711-10.891 0-19.712-8.821-19.712-19.711s8.821-19.711 19.712-19.711z" transform="matrix(.965926 -.258819 .258819 .965926 -39.334104 46.037688)"/><path d="m147.954 140.699 2.499 9.49h-4.999z" transform="matrix(.965926 -.258819 .258819 .965926 -32.602292 43.249077)"/><path d="m127.837 154.824 8.486 4.952-3.518 3.535z" transform="matrix(.965926 -.258819 .258819 .965926 -36.66917 39.604896)"/><path d="m132.963 177.131v5l-9.504-2.5z" transform="matrix(.965926 -.258819 .258819 .965926 -42.123224 39.304209)"/><path d="m142.567 191.26 3.519 3.534-8.486 4.951z" transform="matrix(.965926 -.258819 .258819 .965926 -45.766599 43.37327)"/><path d="m159.901 194.617h5l-2.5 9.49z" transform="matrix(.965926 -.258819 .258819 .965926 -46.064983 48.825541)"/><path d="m177.565 181.5 4.936 8.47-8.47-4.937z" transform="matrix(.965926 -.258819 .258819 .965926 -41.997472 52.467377)"/><path d="m177.395 162.677 9.52 2.5-9.52 2.499z" transform="matrix(.965926 -.258819 .258819 .965926 -36.544031 52.773412)"/><path d="m172.743 145.08-4.937 8.471-3.535-3.535z" transform="matrix(.965926 -.258819 .258819 .965926 -32.903946 48.700598)"/><path d="m251.989 105.086c-10.031 0-18.166 8.135-18.166 18.166s8.135 18.183 18.166 18.183c10.03 0 18.183-8.152 18.183-18.183s-8.151-18.166-18.183-18.166zm0 1.019c9.48 0 17.163 7.666 17.163 17.147 0 9.48-7.683 17.165-17.163 17.165s-17.148-7.685-17.148-17.165c0-9.481 7.668-17.147 17.148-17.147z" transform="matrix(.965926 -.258819 .258819 .965926 -23.315553 69.421727)"/><path d="m251.987 110.899c-6.818 0-12.355 5.538-12.355 12.356s5.537 12.355 12.355 12.355c6.819 0 12.356-5.537 12.356-12.355s-5.537-12.356-12.356-12.356zm0 1.02c6.267 0 11.336 5.068 11.336 11.335s-5.07 11.336-11.336 11.336c-6.267 0-11.336-5.069-11.336-11.336s5.069-11.335 11.336-11.335z" transform="matrix(.965926 -.258819 .258819 .965926 -23.314342 69.418933)"/><path d="m296.525 93.152c-10.032 0-18.167 8.136-18.167 18.167s8.136 18.166 18.167 18.166c10.03 0 18.183-8.135 18.183-18.166 0-10.032-8.151-18.167-18.183-18.167zm0 1.019c9.48 0 17.164 7.668 17.164 17.148s-7.684 17.147-17.164 17.147-17.148-7.668-17.148-17.147c.001-9.481 7.668-17.148 17.148-17.148z" transform="matrix(.965926 -.258819 .258819 .965926 -18.707226 80.54145)"/><path d="m296.526 98.965c-6.819 0-12.356 5.537-12.356 12.356 0 6.818 5.537 12.355 12.356 12.355 6.817 0 12.354-5.537 12.354-12.355 0-6.819-5.537-12.356-12.354-12.356zm0 1.019c6.267 0 11.335 5.069 11.335 11.336s-5.07 11.336-11.335 11.336c-6.268 0-11.337-5.069-11.337-11.336s5.07-11.336 11.337-11.336z" transform="matrix(.965926 -.258819 .258819 .965926 -18.708016 80.539449)"/><path d="m341.063 81.218c-10.03 0-18.166 8.136-18.166 18.167 0 10.03 8.135 18.166 18.166 18.166 10.032 0 18.184-8.136 18.184-18.166 0-10.031-8.152-18.167-18.184-18.167zm0 1.019c9.481 0 17.165 7.668 17.165 17.148s-7.684 17.147-17.165 17.147c-9.48 0-17.148-7.668-17.148-17.147 0-9.481 7.669-17.148 17.148-17.148z" transform="matrix(.965926 -.258819 .258819 .965926 -14.100855 91.662353)"/><path d="m341.064 87.031c-6.819 0-12.356 5.537-12.356 12.356 0 6.818 5.537 12.355 12.356 12.355 6.818 0 12.355-5.537 12.355-12.355 0-6.819-5.537-12.356-12.355-12.356zm0 1.019c6.267 0 11.336 5.069 11.336 11.336s-5.069 11.337-11.336 11.337-11.337-5.07-11.337-11.337 5.07-11.336 11.337-11.336z" transform="matrix(.965926 -.258819 .258819 .965926 -14.101661 91.660214)"/><path d="m372.748 26.347c-10.032 0-18.167 8.136-18.167 18.166 0 10.031 8.136 18.183 18.167 18.183 10.032 0 18.167-8.152 18.167-18.183-.005-10.03-8.142-18.166-18.169-18.166zm0 1.018c9.48 0 17.148 7.669 17.148 17.148 0 9.48-7.668 17.164-17.148 17.164s-17.148-7.684-17.148-17.164 7.668-17.148 17.15-17.148z" transform="matrix(.965926 -.258819 .258819 .965926 1.17806 97.991259)"/><path d="m372.747 32.157c-6.817 0-12.354 5.538-12.354 12.356s5.537 12.371 12.354 12.371c6.819 0 12.356-5.553 12.356-12.371s-5.537-12.356-12.356-12.356zm0 1.019c6.269 0 11.337 5.069 11.337 11.337 0 6.267-5.069 11.352-11.337 11.352-6.267 0-11.335-5.085-11.335-11.352 0-6.268 5.068-11.337 11.335-11.337z" transform="matrix(.965926 -.258819 .258819 .965926 1.178319 97.991225)"/><path d="m263.701 148.793c-10.032 0-18.167 8.152-18.167 18.183s8.135 18.167 18.167 18.167c10.03 0 18.182-8.136 18.182-18.167s-8.151-18.183-18.182-18.183zm0 1.02c9.48 0 17.163 7.682 17.163 17.163 0 9.48-7.683 17.148-17.163 17.148s-17.148-7.668-17.148-17.148 7.668-17.163 17.148-17.163z" transform="matrix(.965926 -.258819 .258819 .965926 -34.228838 73.942037)"/><path d="m263.703 154.623c-6.818 0-12.356 5.538-12.355 12.356 0 6.818 5.537 12.355 12.355 12.355s12.355-5.537 12.355-12.355-5.537-12.356-12.355-12.356zm0 1.019c6.267 0 11.336 5.069 11.336 11.337 0 6.266-5.07 11.336-11.336 11.336-6.268 0-11.336-5.07-11.336-11.336 0-6.268 5.068-11.337 11.336-11.337z" transform="matrix(.965926 -.258819 .258819 .965926 -34.231743 73.940974)"/><path d="m308.239 136.859c-10.032 0-18.168 8.152-18.168 18.184 0 10.03 8.136 18.166 18.168 18.166 10.03 0 18.183-8.136 18.183-18.166 0-10.032-8.152-18.184-18.183-18.184zm0 1.02c9.479 0 17.164 7.683 17.164 17.164 0 9.479-7.685 17.147-17.164 17.147-9.481 0-17.148-7.668-17.148-17.147 0-9.481 7.667-17.164 17.148-17.164z" transform="matrix(.965926 -.258819 .258819 .965926 -29.622496 85.062679)"/><path d="m308.241 142.69c-6.818 0-12.356 5.537-12.356 12.355s5.538 12.356 12.356 12.356 12.355-5.538 12.355-12.356-5.537-12.355-12.355-12.355zm0 1.019c6.268 0 11.336 5.069 11.336 11.336s-5.07 11.336-11.336 11.336c-6.267 0-11.336-5.07-11.336-11.336 0-6.267 5.07-11.336 11.336-11.336z" transform="matrix(.965926 -.258819 .258819 .965926 -29.62568 85.061519)"/><path d="m352.777 124.925c-10.031 0-18.167 8.152-18.167 18.183s8.136 18.167 18.167 18.167c10.033 0 18.183-8.136 18.183-18.167s-8.152-18.183-18.183-18.183zm0 1.019c9.481 0 17.164 7.684 17.164 17.164s-7.683 17.148-17.164 17.148c-9.48 0-17.148-7.669-17.148-17.148 0-9.48 7.669-17.164 17.148-17.164z" transform="matrix(.965926 -.258819 .258819 .965926 -25.016153 96.183505)"/><path d="m352.78 130.755c-6.819 0-12.357 5.538-12.357 12.356.001 6.818 5.538 12.355 12.357 12.355 6.818 0 12.355-5.537 12.355-12.355s-5.537-12.356-12.355-12.356zm0 1.019c6.267 0 11.336 5.069 11.336 11.337 0 6.266-5.069 11.336-11.336 11.336-6.268 0-11.336-5.07-11.336-11.336 0-6.268 5.068-11.337 11.336-11.337z" transform="matrix(.965926 -.258819 .258819 .965926 -25.01908 96.182348)"/><path d="m325.196 148.753v1.019h10.827v-1.019z" transform="matrix(.965926 -.258819 .258819 .965926 -27.366727 90.653982)"/><path d="m280.689 160.685v1.02l10.778-.001v-1.019z" transform="matrix(.965926 -.258819 .258819 .965926 -31.972458 79.534997)"/><path d="m241.849 154.271v.51 26.923.511h.51 138.853.51v-.51-26.924-.509h-.51-5.62v1.019h5.11v25.904h-137.834v-25.904h5.191v-1.02h-5.7z" transform="matrix(.965926 -.258819 .258819 .965926 -32.920649 86.428719)"/><path d="m313.547 105.277v1.02h10.828v-1.02z" transform="matrix(.965926 -.258819 .258819 .965926 -16.511355 86.157739)"/><path d="m269.039 117.21v1.019h10.78v-1.019z" transform="matrix(.965926 -.258819 .258819 .965926 -21.117102 75.038611)"/><path d="m223.233 84.79v.509 26.925.509h.508 5.7v-1.018h-5.19v-25.906h137.834v25.906h-5.112v1.018h5.622.509v-.509-26.925-.509h-.509-138.854z" transform="matrix(.965926 -.258819 .258819 .965926 -15.571884 79.242815)"/></g></svg>