<svg xmlns="http://www.w3.org/2000/svg"><path d="m526.69 24.184 50.06.312 23.25-24.184-85.656-.312-80.484 80.8-11.27.62.314-77.73-45.25 46.182-10.822 1.284v-47.058l-92.648 91.662-11.516 1.226.978-94.314-80.968 82.216-10.634.052-1.246-78.958-43.682 43.996-12.15.62.46-46.976-115.426 116.356 38.016-.62 49.844-48.378h9.562l-.462 48.61 39.702-40.63h9.492v41.388l-43.692 43.378 41.87-.622 82.38-83.312h11.098v40.928l51.348.312 49.656-49.968 9.586-.62-.148 47.234 39.678-39.682h9.374l.622 40.016-.81 2.08h119.892l22.952-23.26-74.542-1.27-.68-10.818 11.618-12.234 28.124-.002 24.432-24.748-14.77-.624v-10.412z" fill="#fff"/></svg>