<svg preserveAspectRatio="none" xmlns="http://www.w3.org/2000/svg"><g fill="#1e1e1e"><path d="m539.57 219.931v1.283h90.968v-1.283z" transform="matrix(.965926 -.258819 .258819 .965926 -37.153144 158.939071)"/><path d="m529.961 262.061v171.18c0 18.718 15.173 33.912 33.891 33.912h119.47c18.715 0 33.91-15.193 33.91-33.912v-171.077h-1.283v171.077c0 18.026-14.604 32.629-32.627 32.629h-119.47c-18.026 0-32.609-14.603-32.609-32.625v-171.181h-1.283z" transform="matrix(.965926 -.258819 .258819 .965926 -73.118755 173.822343)"/><path d="m562.279 292.24c-8.97 0-16.254 7.284-16.254 16.255v128.307c0 8.971 7.284 16.254 16.254 16.254h126.947c8.751 0 15.849-6.945 16.194-15.613h.06v-.641-128.307c0-8.971-7.285-16.255-16.254-16.255zm0 1.283h126.948c8.278 0 14.97 6.694 14.97 14.972v127.666.641c0 8.279-6.693 14.972-14.971 14.972h-126.947c-8.277 0-14.972-6.695-14.972-14.972v-128.307c0-8.278 6.695-14.972 14.972-14.972z" transform="matrix(.965926 -.258819 .258819 .965926 -75.126402 174.654353)"/><path d="m535.325 231.359c-20.029 0-36.276 16.247-36.276 36.275 0 20.029 16.247 36.276 36.277 36.276s36.276-16.247 36.276-36.276-16.246-36.275-36.277-36.275zm0 1.283c19.335 0 34.993 15.657 34.993 34.992 0 19.336-15.658 34.994-34.993 34.994-19.336 0-34.993-15.658-34.993-34.994s15.657-34.992 34.993-34.992z" transform="matrix(.965926 -.258819 .258819 .965926 -51.028109 147.671779)"/><path d="m651.559 200.214c-20.029 0-36.276 16.247-36.276 36.275 0 20.03 16.247 36.277 36.276 36.277 20.027 0 36.275-16.247 36.275-36.277 0-20.029-16.248-36.275-36.275-36.275zm0 1.283c19.335 0 34.993 15.658 34.993 34.992 0 19.336-15.658 34.994-34.993 34.994-19.336 0-34.993-15.658-34.993-34.994 0-19.335 15.657-34.992 34.993-34.992z" transform="matrix(.965926 -.258819 .258819 .965926 -39.006798 176.693949)"/><path d="m525.871 248.743v185.866c0 20.03 16.247 36.276 36.275 36.276h120.331c20.026 0 36.274-16.246 36.274-36.276v-184.866h-1.281v184.866c0 19.336-15.66 34.994-34.993 34.994h-120.331c-19.333 0-34.991-15.655-34.991-34.99v-185.869h-1.283z" transform="matrix(.965926 -.258819 .258819 .965926 -71.921955 173.326188)"/><path d="m629.18 335.924c-27.341 0-49.526 22.183-49.526 49.524 0 27.339 22.185 49.524 49.526 49.524 27.339 0 49.503-22.185 49.503-49.524 0-27.341-22.164-49.524-49.503-49.524zm0 1.282c26.645 0 48.22 21.595 48.22 48.242s-21.575 48.24-48.22 48.24c-26.649 0-48.243-21.593-48.243-48.24s21.594-48.242 48.243-48.242z" transform="matrix(.965926 -.258819 .258819 .965926 -78.322893 175.974611)"/><path d="m629.18 349.934c-19.608 0-35.515 15.906-35.515 35.516 0 19.606 15.907 35.514 35.515 35.514 19.606 0 35.514-15.907 35.514-35.514-.001-19.61-15.907-35.516-35.514-35.516zm0 1.282c18.914 0 34.231 15.319 34.231 34.234 0 18.914-15.317 34.231-34.231 34.231-18.915 0-34.232-15.317-34.232-34.231-.001-18.915 15.316-34.234 34.232-34.234z" transform="matrix(.965926 -.258818 .258818 .965926 -78.322549 175.976742)"/><g transform="matrix(.802286 -.214972 .214972 .802286 338.445709 255.860428)"><path d="m220.186 198.782c-3.588 0-6.495-2.908-6.495-6.494l-.001-42.093c.001-3.586 2.908-6.492 6.496-6.494h42.09c3.585.002 6.492 2.909 6.494 6.494-.019 3.645-2.441 5.818-2.475 5.861l-39.495 39.495h.28l-1.652 1.368c-1.083.938-2.217 1.866-5.018 1.866-.074 0-.15-.002-.224-.003zm-4.952-48.587v42.093c.004 2.734 2.216 4.945 4.951 4.951 2.732-.052 3.012-.524 4.228-1.487l40.817-40.815c-.003-.002.1-.089.288-.305.188-.216.442-.541.696-.956.509-.834 1.013-2.025 1.011-3.481-.005-2.731-2.217-4.943-4.949-4.949h-42.09c-2.735.006-4.947 2.216-4.952 4.949zm10.246 46.675-.545-.547z"/><path d="m370.031 196.919.493-.596.545-.547-.545.547-.493.596-.031-.027-40.811-40.812c-.06-.065-2.482-2.239-2.501-5.882 0-3.587 2.906-6.494 6.495-6.496h42.093c3.584.002 6.49 2.907 6.49 6.496l.002 42.093c-.002 3.585-2.908 6.492-6.492 6.492-.078.001-.15.003-.222.003-2.803-.001-3.942-.928-5.023-1.867zm5.245.318c2.73-.004 4.941-2.215 4.948-4.947l-.003-42.093c-.004-2.735-2.213-4.946-4.945-4.951h-42.093c-2.736.005-4.945 2.216-4.949 4.951-.008 2.174 1.138 3.783 1.706 4.434.187.216.286.306.315.331l40.789 40.791c1.217.962 1.496 1.435 4.232 1.484z"/></g><path d="m535.324 241.018c-14.687 0-26.596 11.928-26.596 26.614 0 14.688 11.908 26.615 26.596 26.615s26.616-11.926 26.616-26.615c0-14.687-11.928-26.614-26.616-26.614zm0 1.281c13.994 0 25.333 11.34 25.333 25.333 0 13.995-11.339 25.333-25.333 25.333s-25.312-11.338-25.312-25.333c0-13.993 11.317-25.333 25.312-25.333z" transform="matrix(.965926 -.258819 .258819 .965926 -51.027329 147.673993)"/><path d="m651.559 209.877c-14.688 0-26.617 11.928-26.617 26.615 0 14.689 11.929 26.616 26.617 26.616s26.596-11.927 26.596-26.616c0-14.688-11.907-26.615-26.596-26.615zm0 1.282c13.995 0 25.312 11.34 25.312 25.333 0 13.994-11.317 25.333-25.312 25.333s-25.333-11.339-25.333-25.333c0-13.993 11.338-25.333 25.333-25.333z" transform="matrix(.965926 -.258819 .258819 .965926 -39.007788 176.69146)"/><path d="m525.201 217.329v1.283h115.743v-1.283z" transform="matrix(.965926 -.258819 .258819 .965926 -36.547204 158.337437)"/><path d="m572.195 195.884v.642 4.53.64h.641 12.787.641v-.64-4.53-.642h-.641-12.787zm1.282 1.283h11.504v3.247h-11.504z" transform="matrix(.965926 -.258819 .258819 .965926 -31.713865 156.689142)"/><path d="m574.044 204.054v.641 4.53.641h.641 13.468.641v-.641-4.53-.641h-.641-13.468zm1.283 1.282h12.186v3.248h-12.186z" transform="matrix(.965926 -.258819 .258819 .965926 -33.753827 157.534419)"/><path d="m575.81 212.236v.642 4.529h1.283v-3.888h12.847v3.888h1.283v-4.529-.641h-.641-14.13-.642z" transform="matrix(.965926 -.258819 .258819 .965926 -35.717055 158.345055)"/><g transform="matrix(.802286 -.214972 .214972 .802286 338.445709 255.860428)"><g><path d="m291.881 16.031v-4.631h1.544v4.631z"/><path d="m302.164 15.895v-4.495h1.546v4.495z"/></g><g><path d="m291.881 26.35v-4.631h1.544v4.631z"/><path d="m302.164 26.215v-4.497h1.546v4.497z"/></g></g></g></svg>