<svg xmlns="http://www.w3.org/2000/svg"><g fill="#fff"><path d="m274.679 67.235 3.837 5.762c-.297-.448-.789-.735-1.281-.735-.521 0-1.039.321-1.328 1.117l-3.837-5.762c.29-.795.808-1.118 1.328-1.118.49 0 .979.289 1.283.736z"/><path d="m338.612 65.306 3.838 5.762c-.187-.28-.46-.425-.748-.425-.383 0-.787.257-1.047.785l-3.835-5.762c.26-.525.666-.783 1.049-.783.293-.001.566.144.75.423z"/><path d="m341.916 44.745 32.409.205c.618 0 5.066.721-.492 2.173-4.44 1.157-8.077.72-9.529 6.502l-17.49 70.211c-1.453 6.271 3.427 11.679 9.737 13.374 1.427.348 1.514 1.864-.172 1.956l-21.294-.786-25.874.874c-1.879 0-1.952-1.951.092-2.31 6.049-.616 11.394-5.601 12.556-9.691l17.009-60.971c.002-.921-.473-1.4-.994-1.4-.38 0-.787.257-1.049.781l-47.888 69.497c-1.327 2.138-3.414 3.556-5.261 3.556-1.995 0-3.709-1.654-3.89-5.844l-4.82-64.789c-.052-.898-.808-1.581-1.564-1.581-.519 0-1.038.323-1.327 1.118l-16.426 51.4c-1.345 3.905-1.441 7.724.16 10.487 1.591 2.838 5.685 6.309 10.481 7.286 1.864.447 1.77 2.31-.004 2.401l-17.206-.719-14.453.541c-1.697-.091-1.514-1.773.005-2.047 4.977-1.065 10.683-6.13 13.27-13.337l21.279-68.386c.893-2.584-.517-5.694-3.101-6.311l-6.583-1.337c-1.156-.089-1.321-1.774.002-1.774l37.768-.307 3.786 59.534 2.769-3.369 36.041-53.464c.413-.736 1.489-2.42 2.033-3.486z"/><path d="m390.789 44.5 43.507.36c2.046 0 3.005 3.623-1.088 3.984-4.372.384-8.944 3.495-10.019 7.22l-20.383 70.456c-.983 3.739 1.732 9.985 8.753 10.513 1.156.268 1.154 2.041.086 2.041l-25.692-.985-24.679.744c-1.339 0-.973-1.771.168-1.951 3.382-.616 13.215-4.432 15.092-10.474l22.725-70.338c1.423-5.063-3.28-7.556-8.614-8.802-1.141-.173-.902-2.666.153-2.756z"/><path d="m504.639 40.118c4.463 0 8.843.369 13.052 1.155 2.675.539 5.952 1.761 5.152 4.073l-6.422 16.371c-.508 1.668-1.353 2.677-2.208 2.677-1.19 0-2.4-1.948-2.775-6.789-.211-2.649.215-12.183-3.42-12.388-.924-.05-1.843-.072-2.765-.072-5.83 0-11.621.962-16.776 2.604-19.645 6.271-32.102 16.988-40.316 35.286-8.03 17.605-4.065 36.634 1.607 43.124 3.867 4.42 12.901 7.474 19.845 7.474 4.077 0 7.433-1.055 8.594-3.506 3.759-9.032 5.581-20.108 5.229-25.171.015-6.14-2.393-6.618-6.97-7.465-3.208-.34-4.235-2.421 1.756-2.421.319 0 .657.006 1.019.02 1.924-.012 3.796-.018 5.64-.018 4.22 0 8.265.023 12.285.042 3.777.02 7.529.038 11.387.038 3.53 0 7.15-.018 10.951-.065 1.065.525.974.975-.095 1.505-6.495.975-9.081 2.221-9.704 4.625-2.51 8.535-4.765 17.872-8.831 26.625-1.446 3.135-8.268 6.117-10.49 6.746-6.909 2.46-18.392 4.417-29.33 4.417-8.776 0-17.201-1.261-22.628-4.548-20.346-12.436-24.006-36.018-15.699-51.567 12.32-23.129 49.44-42.768 81.917-42.768z"/><path d="m30.978 64.577h25.972l48.849 72.92h-25.735z"/><path d="m172.072.001h25.737l-91.741 137.496h-24.544z"/><path d="m0 64.577h25.974l48.848 72.92h-25.735z"/><path d="m141.096 0h25.736l-91.741 137.497h-24.544z"/><path d="m167.778 105.534-12.66 17.951c-3.753 5.872 3.347 12.004 11.176 13.433.718.556.595 2.351-.451 2.351-.114 0-.238-.022-.375-.067-.157-.069-3.11-1.3-9.823-1.927-1.796-.17-5.027-.72-8.965-.72-1.356 0-2.795.066-4.291.231l-14.161 1.994c-1.34-.089-1.336-1.685.002-2.045 6.843-.885 15.043-5.961 19.853-12.798l57.603-80.352c.951-1.38 2.985-2.182 4.964-2.182 2.477 0 4.864 1.26 4.91 4.226l1.898 80.441c.616 6.747 5.136 9.599 10.831 11.192.796.538.448 1.606-.093 1.789-.37-.008-7.395-.115-15.789-1.364-1.965-.29-3.501-.457-5.378-.457-1.623 0-3.502.126-6.133.405-3.293.348-1.737.398-15.071.99-.507.024-1-.108-1.106-.966.118-.989 1.609-1.466 2.085-1.593 5.328-1.476 7.956-4.149 9.125-10.706 1.261-7.209.924-13.338.754-19.648m-8.166-4.868c2.932 0 5.692.016 7.748.061l-.762-33.486c-.144-.434-.34-.657-.564-.657-.183 0-.388.158-.593.477-7.13 10.126-16.951 22.539-23.991 32.588-.451.794-.002 1.065 1.065 1.065.171.016.748.02 1.629.02 1.515 0 3.922-.016 6.679-.028 2.761-.02 5.871-.04 8.795-.04"/><path d="m599.537 137.399c.796.524.432 1.592-.094 1.775-.369-.007-7.394-.116-15.789-1.348-1.993-.294-3.538-.466-5.438-.466-1.608 0-3.468.123-6.071.398-3.307.346-1.738.397-15.088.99-.498.022-.983-.107-1.09-.965.117-.988 1.61-1.454 2.072-1.595 5.337-1.465 7.966-4.148 9.138-10.704 1.259-7.195.911-13.326.744-19.646l-28.908-.166-12.662 17.952c-3.739 5.863 3.359 11.987 11.187 13.415.719.567.586 2.357-.459 2.357-.117 0-.243-.022-.383-.068-.158-.065-3.108-1.287-9.808-1.928-1.794-.169-5.029-.719-8.966-.719-1.357 0-2.794.064-4.289.231l-14.172 1.994c-1.328-.091-1.326-1.686.004-2.045 6.855-.885 15.041-5.949 19.864-12.798l57.605-80.335c.95-1.386 2.982-2.189 4.96-2.189 2.481 0 4.87 1.265 4.915 4.231l1.896 80.428c.619 6.763 5.154 9.611 10.851 11.21zm-39.817-36.42c2.942 0 5.715.016 7.776.061l-.748-33.502c-.149-.435-.346-.658-.567-.658-.186 0-.386.157-.586.479-7.142 10.139-16.953 22.55-24.005 32.585-.439.797-.002 1.066 1.065 1.066.208.02 1.027.024 2.259.024 1.497 0 3.61-.013 5.997-.024 2.751-.015 5.86-.031 8.807-.031"/></g></svg>