<svg xmlns="http://www.w3.org/2000/svg"><g fill="#1e1e1e"><path d="m185.266 173.771c-40.7 0-73.702 33.003-73.702 73.698 0 40.699 33.002 73.703 73.702 73.703 40.698 0 73.702-33.003 73.702-73.703 0-40.698-33.003-73.702-73.702-73.702zm0 1.528c39.871 0 72.174 32.3 72.174 72.173s-32.301 72.175-72.174 72.175c-39.877 0-72.178-32.297-72.178-72.175 0-39.871 32.301-72.172 72.174-72.172z" transform="matrix(.965926 -.258819 .258819 .965926 -57.737017 56.382663)"/><path d="m185.268 216.381c-17.162 0-31.096 13.931-31.096 31.095 0 17.161 13.933 31.094 31.096 31.094 17.162 0 31.095-13.932 31.095-31.094 0-17.163-13.932-31.095-31.095-31.095zm0 1.528c16.335 0 29.566 13.23 29.566 29.567 0 16.335-13.23 29.566-29.566 29.566s-29.567-13.231-29.567-29.566c0-16.336 13.231-29.567 29.567-29.567z" transform="matrix(.965926 -.258819 .258819 .965926 -57.738533 56.383275)"/><path d="m174.431 199.916 3.749 14.235h-7.499z" transform="matrix(.965926 -.258819 .258819 .965926 -47.640589 52.200365)"/><path d="m144.255 221.104 12.729 7.428-5.277 5.302z" transform="matrix(.965926 -.258819 .258819 .965926 -53.741065 46.734005)"/><path d="m151.945 254.565v7.499l-14.257-3.749z" transform="matrix(.965926 -.258819 .258819 .965926 -61.9222 46.283113)"/><path d="m166.351 275.758 5.278 5.3-12.729 7.428z" transform="matrix(.965926 -.258819 .258819 .965926 -67.387288 52.386664)"/><path d="m192.352 280.794h7.499l-3.749 14.234z" transform="matrix(.965926 -.258819 .258819 .965926 -67.834856 60.565133)"/><path d="m218.848 261.118 7.404 12.705-12.706-7.405z" transform="matrix(.965926 -.258819 .258819 .965926 -61.733528 66.027803)"/><path d="m218.592 232.883 14.281 3.75-14.281 3.749z" transform="matrix(.965926 -.258819 .258819 .965926 -53.553338 66.486908)"/><path d="m211.614 206.488-7.405 12.706-5.302-5.302z" transform="matrix(.965926 -.258819 .258819 .965926 -48.093218 60.377697)"/><path d="m330.483 146.497c-15.046 0-27.249 12.203-27.249 27.249 0 15.047 12.203 27.275 27.249 27.275s27.275-12.228 27.275-27.275c0-15.046-12.227-27.249-27.275-27.249zm0 1.528c14.221 0 25.745 11.5 25.745 25.721 0 14.22-11.524 25.747-25.745 25.747-14.219 0-25.721-11.527-25.721-25.747 0-14.221 11.502-25.721 25.721-25.721z" transform="matrix(.965926 -.258819 .258819 .965926 -33.710752 91.459324)"/><path d="m330.481 155.217c-10.228 0-18.533 8.306-18.533 18.533s8.305 18.533 18.533 18.533 18.533-8.306 18.533-18.533-8.305-18.533-18.533-18.533zm0 1.529c9.4 0 17.003 7.603 17.003 17.003 0 9.401-7.604 17.004-17.003 17.004-9.401 0-17.004-7.603-17.004-17.004 0-9.4 7.603-17.003 17.004-17.003z" transform="matrix(.965926 -.258819 .258819 .965926 -33.70894 91.455169)"/><path d="m397.288 128.596c-15.048 0-27.251 12.204-27.251 27.25 0 15.047 12.204 27.25 27.251 27.25 15.045 0 27.274-12.203 27.274-27.25s-12.227-27.25-27.274-27.25zm0 1.528c14.219 0 25.745 11.502 25.745 25.722s-11.526 25.721-25.745 25.721c-14.221 0-25.722-11.502-25.722-25.721.001-14.221 11.501-25.722 25.722-25.722z" transform="matrix(.965926 -.258819 .258819 .965926 -26.798256 108.138969)"/><path d="m397.289 137.316c-10.229 0-18.534 8.305-18.534 18.533 0 10.227 8.305 18.533 18.534 18.533 10.226 0 18.531-8.306 18.531-18.533 0-10.228-8.305-18.533-18.531-18.533zm0 1.528c9.401 0 17.002 7.604 17.002 17.004 0 9.401-7.604 17.004-17.002 17.004-9.402 0-17.005-7.603-17.005-17.004 0-9.4 7.604-17.004 17.005-17.004z" transform="matrix(.965926 -.258819 .258819 .965926 -26.799439 108.135963)"/><path d="m464.095 110.695c-15.046 0-27.25 12.204-27.25 27.25s12.203 27.25 27.25 27.25c15.048 0 27.275-12.204 27.275-27.25s-12.228-27.25-27.275-27.25zm0 1.529c14.221 0 25.746 11.501 25.746 25.721 0 14.221-11.525 25.721-25.746 25.721-14.22 0-25.722-11.502-25.722-25.721 0-14.221 11.503-25.721 25.722-25.721z" transform="matrix(.965926 -.258819 .258819 .965926 -19.888718 124.820207)"/><path d="m464.096 119.415c-10.228 0-18.534 8.305-18.534 18.533 0 10.227 8.306 18.533 18.534 18.533 10.227 0 18.533-8.306 18.533-18.533 0-10.228-8.306-18.533-18.533-18.533zm0 1.528c9.401 0 17.004 7.604 17.004 17.004 0 9.401-7.604 17.005-17.004 17.005-9.401 0-17.005-7.604-17.005-17.005 0-9.4 7.604-17.004 17.005-17.004z" transform="matrix(.965926 -.258819 .258819 .965926 -19.889894 124.817053)"/><path d="m511.622 28.388c-15.048 0-27.251 12.204-27.251 27.249 0 15.047 12.204 27.275 27.251 27.275s27.25-12.228 27.25-27.275c-.007-15.045-12.213-27.249-27.253-27.249zm0 1.528c14.22 0 25.722 11.503 25.722 25.721 0 14.221-11.502 25.747-25.722 25.747s-25.722-11.526-25.722-25.747c0-14.219 11.502-25.721 25.725-25.721z" transform="matrix(.965926 -.258819 .258819 .965926 3.029801 134.313623)"/><path d="m511.621 37.104c-10.227 0-18.532 8.307-18.532 18.533 0 10.228 8.305 18.557 18.532 18.557 10.228 0 18.533-8.33 18.533-18.557 0-10.226-8.305-18.533-18.533-18.533zm0 1.528c9.402 0 17.005 7.604 17.005 17.005s-7.604 17.028-17.005 17.028-17.003-7.627-17.003-17.028 7.602-17.005 17.003-17.005z" transform="matrix(.965926 -.258819 .258819 .965926 3.030048 134.313508)"/><path d="m348.051 212.058c-15.047 0-27.25 12.227-27.25 27.274 0 15.046 12.203 27.25 27.25 27.25 15.045 0 27.274-12.203 27.274-27.25 0-15.046-12.227-27.274-27.274-27.274zm0 1.529c14.22 0 25.745 11.524 25.745 25.745 0 14.22-11.525 25.722-25.745 25.722s-25.722-11.502-25.722-25.722 11.502-25.745 25.722-25.745z" transform="matrix(.965926 -.258819 .258819 .965926 -50.080569 98.239826)"/><path d="m348.054 220.803c-10.227 0-18.533 8.306-18.532 18.534 0 10.227 8.305 18.532 18.532 18.532 10.228 0 18.533-8.305 18.533-18.532 0-10.228-8.305-18.534-18.533-18.534zm0 1.528c9.401 0 17.004 7.604 17.004 17.005 0 9.4-7.604 17.004-17.004 17.004-9.401 0-17.004-7.604-17.004-17.004 0-9.401 7.603-17.005 17.004-17.005z" transform="matrix(.965926 -.258819 .258819 .965926 -50.085032 98.238277)"/><path d="m414.859 194.157c-15.049 0-27.252 12.228-27.252 27.275 0 15.046 12.204 27.249 27.252 27.249 15.045 0 27.274-12.203 27.274-27.249 0-15.047-12.228-27.275-27.274-27.275zm0 1.529c14.218 0 25.745 11.525 25.745 25.746 0 14.219-11.527 25.721-25.745 25.721-14.222 0-25.723-11.502-25.722-25.721 0-14.221 11.5-25.746 25.722-25.746z" transform="matrix(.965926 -.258819 .258819 .965926 -43.1711 114.920925)"/><path d="m414.862 202.903c-10.228 0-18.534 8.306-18.534 18.533s8.306 18.533 18.534 18.533c10.227 0 18.532-8.306 18.532-18.533s-8.305-18.533-18.532-18.533zm0 1.528c9.402 0 17.003 7.604 17.003 17.004 0 9.401-7.604 17.004-17.003 17.004-9.401 0-17.004-7.604-17.004-17.004s7.604-17.004 17.004-17.004z" transform="matrix(.965926 -.258819 .258819 .965926 -43.175797 114.919145)"/><path d="m481.666 176.256c-15.047 0-27.251 12.228-27.251 27.274s12.204 27.25 27.251 27.25c15.048 0 27.274-12.204 27.274-27.25s-12.228-27.274-27.274-27.274zm0 1.528c14.22 0 25.746 11.526 25.746 25.746s-11.526 25.722-25.746 25.722c-14.221 0-25.722-11.503-25.722-25.722 0-14.22 11.502-25.746 25.722-25.746z" transform="matrix(.965926 -.258819 .258819 .965926 -36.261556 131.601868)"/><path d="m481.669 185.001c-10.228 0-18.534 8.306-18.534 18.534.001 10.227 8.306 18.532 18.534 18.532 10.227 0 18.533-8.305 18.533-18.532 0-10.228-8.306-18.534-18.533-18.534zm0 1.528c9.401 0 17.004 7.604 17.004 17.005 0 9.4-7.603 17.005-17.004 17.005s-17.004-7.605-17.004-17.005c0-9.401 7.603-17.005 17.004-17.005z" transform="matrix(.965926 -.258819 .258819 .965926 -36.265991 131.600063)"/><path d="m440.294 211.997v1.529h16.241v-1.529z" transform="matrix(.965926 -.258819 .258819 .965926 -39.787372 123.30784)"/><path d="m373.533 229.896v1.529l16.168-.001v-1.528z" transform="matrix(.965926 -.258819 .258819 .965926 -46.696036 106.629278)"/><path d="m315.274 220.275v.765 40.384.766h.764 208.279.766v-.765-40.385-.764h-.766-8.43v1.528h7.666v38.857h-206.751v-38.857h7.787v-1.529h-8.551z" transform="matrix(.965926 -.258819 .258819 .965926 -48.118332 116.969995)"/><path d="m422.821 146.784v1.529h16.241v-1.529z" transform="matrix(.965926 -.258819 .258819 .965926 -23.504378 116.563369)"/><path d="m356.059 164.683v1.529h16.169v-1.529z" transform="matrix(.965926 -.258819 .258819 .965926 -30.413071 99.884729)"/><path d="m287.349 116.053v.764 40.387.764h.763 8.55v-1.528h-7.786v-38.858h206.751v38.858h-7.667v1.528h8.432.764v-.764-40.387-.764h-.764-208.28z" transform="matrix(.965926 -.258819 .258819 .965926 -22.095243 106.19091)"/></g></svg>