<svg xmlns="http://www.w3.org/2000/svg"><g fill="#fff"><path d="m0 99.422 56.548-98.258c7.168 12.809 15.861 29.037 26.085 48.682l25.584 49.277zm59.234-38.228c.2 1.594-.066 3.021-.796 4.28-.864 1.462-2.091 2.19-3.684 2.19-1.991 0-3.518-1.059-4.579-3.185-.199-1.261-.099-2.488.298-3.684.531-1.459 1.426-2.355 2.688-2.688.398-.066.796-.1 1.195-.1 2.057.002 3.683 1.065 4.878 3.187z"/><path d="m203.904 98.01c-15.533.27-31.067.507-46.601.711-18.588.269-34.287.336-47.098.203v-98.656c3.716.466 15.43.398 35.142-.199 15.53-.398 27.243.93 35.141 3.983 11.282 4.315 18.482 12.743 21.604 25.287.064.863.099 1.759.099 2.689 0 9.226-4.447 17.291-13.341 24.193-2.391 1.859-5.477 3.385-9.26 4.579-3.319.931-6.64 1.827-9.957 2.689zm-41.235-67.477c.132.464.199.963.199 1.493 0 1.46-.466 2.671-1.393 3.633-.93.962-2.091 1.443-3.484 1.443-1.992 0-3.552-1.059-4.68-3.184-.464-2.987.399-5.11 2.589-6.371.598-.265 1.195-.399 1.792-.399 2.52 0 4.18 1.129 4.977 3.385zm22.68 60.445c-4.84.066-11.97-.135-21.387-.602v-.904c1.858-.268 4.645-.37 8.363-.3 3.716.066 6.503-.069 8.362-.4l-16.725-17.124 2.089.003zm8.18-56.562c-.199 3.252-1.394 6.421-3.583 9.506-2.191 3.087-4.845 5.326-7.964 6.72l-8.959 3.983v-2.192c11.946-3.848 18.35-9.856 19.213-18.018h1.293z"/><path d="m298.257 66.569c-3.252 9.293-9.208 16.891-17.869 22.799-8.66 5.905-17.904 8.825-27.726 8.759-8.894 0-17.189-2.373-24.888-7.118-7.7-4.745-13.706-11.166-18.02-19.263-3.384-6.372-5.077-13.769-5.077-22.2 0-7.898 1.526-14.798 4.58-20.707 4.313-8.496 10.403-15.182 18.268-20.06 7.865-4.879 16.442-7.317 25.734-7.317 2.655 0 5.31.2 7.965.597 7.167 1.129 13.87 3.95 20.109 8.46 6.504 4.714 11.314 10.389 14.434 17.024-8.428 5.112-21.072 12.743-37.928 22.898 14.602 6.441 28.075 11.816 40.418 16.128zm-14.533 5.179c0 1.726-1.095 3.618-3.286 5.674-1.726 1.592-3.717 2.952-5.973 4.082l-.896-.697c1.394-1.128 2.787-2.29 4.182-3.484 1.725-1.459 2.886-2.92 3.484-4.38-3.12-1.526-7.402-3.318-12.842-5.376-6.57-2.521-10.917-4.247-13.041-5.175v-1.596z"/><path d="m283.723 99.422 56.547-98.258c7.167 12.809 15.861 29.037 26.084 48.682l25.585 49.277zm59.234-38.228c.199 1.594-.068 3.021-.797 4.28-.864 1.462-2.09 2.19-3.684 2.19-1.991 0-3.518-1.059-4.581-3.185-.199-1.261-.1-2.488.299-3.684.53-1.459 1.427-2.355 2.688-2.688.399-.066.797-.1 1.194-.1 2.058.002 3.686 1.065 4.881 3.187zm35.641 30.265-20.411.398v-1.294l17.025-.498c-.732-2.39-2.356-5.875-4.88-10.453-2.655-4.844-4.379-8.462-5.176-10.85l1.194-.697z"/><path d="m493.48 73.59c-4.977 10.201-12.479 17.321-22.499 21.362-7.632 3.046-17.919 4.569-30.862 4.569-3.518 0-8.893-.134-16.127-.398-7.234-.265-12.611-.398-16.128-.398-5.441 0-10.22.265-14.335.796l.299-99.253c3.982.398 8.526.598 13.636.598 3.518 0 8.927-.1 16.229-.298 7.3-.2 12.743-.299 16.325-.299 11.083 0 20.144 1.193 27.178 3.576 9.025 3.048 16.194 8.412 21.503 16.097 6.771 7.617 10.154 17.519 10.154 29.705.001 8.678-1.79 16.659-5.373 23.943zm-40.419-12.794c.133.466.2.962.2 1.495 0 1.194-.383 2.273-1.145 3.235-.763.962-1.741 1.51-2.936 1.641-2.789-.528-4.514-1.558-5.177-3.084-.067-.465-.099-.896-.099-1.294 0-2.324 1.06-4.016 3.185-5.079.398-.065.797-.098 1.195-.098 1.99 0 3.583 1.061 4.777 3.184zm38.329-9.756c-.997 8.098-3.321 15.2-6.969 21.303-4.249 7.169-9.891 12.114-16.926 14.834-3.917 1.526-6.805 2.555-8.659 3.086-3.252.93-6.307 1.426-9.159 1.495l-.499-1.195c15.595-2.722 26.416-8.397 32.455-17.023 4.115-5.907 6.771-13.405 7.965-22.499h1.792z"/><path d="m600 45.764h-54.156c-.598 1.608-.896 3.485-.896 5.627 0 2.144.298 3.951.896 5.425h19.213v12.443l-19.213.896v9.757l53.858.398v19.114h-96.268v-99.156h96.268zm-48.084-36.039-39.124.298-.298 32.455h-1.393v-34.544c9.158-.131 22.762.035 40.816.498v1.293z"/></g><path d="m0 99.422 56.548-98.258c7.168 12.809 15.861 29.037 26.085 48.682l25.584 49.277zm103.092-3.186-46.548-88.674-51.377 88.874zm-43.858-35.042c.2 1.594-.066 3.021-.796 4.28-.864 1.462-2.091 2.19-3.684 2.19-1.991 0-3.518-1.059-4.579-3.185-.199-1.261-.099-2.488.298-3.684.531-1.459 1.426-2.355 2.688-2.688.398-.066.796-.1 1.195-.1 2.057.002 3.683 1.065 4.878 3.187zm35.641 30.265-20.41.398v-1.294l17.023-.498c-.731-2.39-2.356-5.875-4.877-10.453-2.655-4.844-4.381-8.462-5.177-10.85l1.195-.697z" fill="#141414"/><path d="m203.904 98.01c-15.533.27-31.067.507-46.601.711-18.588.269-34.287.336-47.098.203v-98.656c3.716.466 15.43.398 35.142-.199 15.53-.398 27.243.93 35.141 3.983 11.282 4.315 18.482 12.743 21.604 25.287.064.863.099 1.759.099 2.689 0 9.226-4.447 17.291-13.341 24.193-2.391 1.859-5.477 3.385-9.26 4.579-3.319.931-6.64 1.827-9.957 2.689zm-4.898-68.702c-2.723-10.142-8.298-17.236-16.726-21.28-6.505-3.048-15.629-4.573-27.377-4.573-3.252 0-8.163.148-14.734.447-6.571.3-11.416.449-14.536.449-4.777 0-8.926-.232-12.443-.697v91.886h83.723l-31.486-31.727c-.38-.464-.568-1.027-.568-1.691-.067-.862.233-1.425.896-1.689 7.034 0 13.838-2.155 20.409-6.465 9.157-5.898 13.439-14.12 12.842-24.66zm-36.337 1.225c.132.464.199.963.199 1.493 0 1.46-.466 2.671-1.393 3.633-.93.962-2.091 1.443-3.484 1.443-1.992 0-3.552-1.059-4.68-3.184-.464-2.987.399-5.11 2.589-6.371.598-.265 1.195-.399 1.792-.399 2.52 0 4.18 1.129 4.977 3.385zm22.68 60.445c-4.84.066-11.97-.135-21.387-.602v-.904c1.858-.268 4.645-.37 8.363-.3 3.716.066 6.503-.069 8.362-.4l-16.725-17.124 2.089.003zm8.18-56.562c-.199 3.252-1.394 6.421-3.583 9.506-2.191 3.087-4.845 5.326-7.964 6.72l-8.959 3.983v-2.192c11.946-3.848 18.35-9.856 19.213-18.018h1.293z" fill="#141414"/><path d="m298.257 66.569c-3.252 9.293-9.208 16.891-17.869 22.799-8.66 5.905-17.904 8.825-27.726 8.759-8.894 0-17.189-2.373-24.888-7.118-7.7-4.745-13.706-11.166-18.02-19.263-3.384-6.372-5.077-13.769-5.077-22.2 0-7.898 1.526-14.798 4.58-20.707 4.313-8.496 10.403-15.182 18.268-20.06 7.865-4.879 16.442-7.317 25.734-7.317 2.655 0 5.31.2 7.965.597 7.167 1.129 13.87 3.95 20.109 8.46 6.504 4.714 11.314 10.389 14.434 17.024-8.428 5.112-21.072 12.743-37.928 22.898 14.602 6.441 28.075 11.816 40.418 16.128zm-5.213 1.886c-15.39-5.803-29.387-11.607-41.989-17.408 5.18-2.984 11.987-7.097 20.422-12.34 10.094-6.367 16.769-10.547 20.023-12.539-3.12-5.711-7.633-10.46-13.541-14.246-5.377-3.454-11.385-5.812-18.021-7.076-1.792-.131-3.552-.199-5.277-.199-8.763 0-16.728 1.926-23.896 5.774-7.567 4.116-13.443 9.956-17.624 17.522-3.583 6.439-5.375 13.705-5.375 21.802 0 11.018 3.085 20.176 9.253 27.476 4.711 5.576 10.2 9.938 16.469 13.091 6.268 3.153 12.819 4.729 19.654 4.729 4.776 0 9.453-.795 14.03-2.383 6.037-2.048 11.411-5.124 16.121-9.226 5.373-4.626 8.621-9.621 9.751-14.977zm-9.32 3.293c0 1.726-1.095 3.618-3.286 5.674-1.726 1.592-3.717 2.952-5.973 4.082l-.896-.697c1.394-1.128 2.787-2.29 4.182-3.484 1.725-1.459 2.886-2.92 3.484-4.38-3.12-1.526-7.402-3.318-12.842-5.376-6.57-2.521-10.917-4.247-13.041-5.175v-1.596z" fill="#141414"/><path d="m283.723 99.422 56.547-98.258c7.167 12.809 15.861 29.037 26.084 48.682l25.585 49.277zm103.091-3.186-46.549-88.674-51.377 88.874zm-43.857-35.042c.199 1.594-.068 3.021-.797 4.28-.864 1.462-2.09 2.19-3.684 2.19-1.991 0-3.518-1.059-4.581-3.185-.199-1.261-.1-2.488.299-3.684.53-1.459 1.427-2.355 2.688-2.688.399-.066.797-.1 1.194-.1 2.058.002 3.686 1.065 4.881 3.187zm35.641 30.265-20.411.398v-1.294l17.025-.498c-.732-2.39-2.356-5.875-4.88-10.453-2.655-4.844-4.379-8.462-5.176-10.85l1.194-.697z" fill="#141414"/><path d="m493.48 73.59c-4.977 10.201-12.479 17.321-22.499 21.362-7.632 3.046-17.919 4.569-30.862 4.569-3.518 0-8.893-.134-16.127-.398-7.234-.265-12.611-.398-16.128-.398-5.441 0-10.22.265-14.335.796l.299-99.253c5.565.084 9.649.283 14.76.283 3.517 0 7.883-.017 15.492 0 7.302.015 12.357-.283 15.939-.283 11.083 0 20.144 1.193 27.178 3.576 9.025 3.047 16.194 8.411 21.503 16.097 6.771 7.616 10.154 17.519 10.154 29.705 0 8.679-1.791 16.66-5.374 23.944zm.897-36.656c-2.325-8.013-7.02-15.083-14.087-21.208-7.069-6.126-14.719-9.919-22.947-11.376l-19.069-.802-41.759.105v92.781c3.451-.397 7.367-.597 11.746-.597 3.717 0 9.391.2 17.024.597 7.631.399 13.34.598 17.123.598 17.72 0 30.795-4.271 39.223-12.814 9.758-9.999 14.635-21.424 14.635-34.272.001-4.37-.631-8.707-1.889-13.012zm-41.316 23.862c.133.466.2.962.2 1.495 0 1.194-.383 2.273-1.145 3.235-.763.962-1.741 1.51-2.936 1.641-2.789-.528-4.514-1.558-5.177-3.084-.067-.465-.099-.896-.099-1.294 0-2.324 1.06-4.016 3.185-5.079.398-.065.797-.098 1.195-.098 1.99 0 3.583 1.061 4.777 3.184zm38.329-9.756c-.997 8.098-3.321 15.2-6.969 21.303-4.249 7.169-9.891 12.114-16.926 14.834-3.917 1.526-6.805 2.555-8.659 3.086-3.252.93-6.307 1.426-9.159 1.495l-.499-1.195c15.595-2.722 26.416-8.397 32.455-17.023 4.115-5.907 6.771-13.405 7.965-22.499h1.792z" fill="#141414"/><path d="m600 45.764h-54.156c-.598 1.608-.896 3.485-.896 5.627 0 2.144.298 3.951.896 5.425h19.213v12.443l-19.213.896v9.757l53.858.398v19.114h-96.268v-99.156h96.268zm-3.086 50.771v-12.94h-53.161c-.996-3.584-1.131-9.259-.398-17.025h18.914v-6.668h-19.209c-.467-1.459-.766-3.186-.901-5.177-.135-1.261-.165-3.087-.099-5.476.065-2.654.099-4.48.099-5.476l.897-.896h53.857v-39.223h-90.694v92.881zm-44.998-86.81-39.124.298-.298 32.455h-1.393v-34.544c9.158-.131 22.762.035 40.816.498v1.293z" fill="#141414"/></svg>