<svg xmlns="http://www.w3.org/2000/svg"><g fill="#1e1e1e"><path d="m413.495 370.726c-3.145-.448-6.201-1.238-9.209-2.156l-.358-.109-.028-.371c-.177-2.201-.26-4.425-.26-6.641 0-3.229.177-6.445.501-9.543-1.805-.782-3.531-1.729-5.25-2.696-1.609-1.053-3.303-2.053-4.844-3.328-4.643 2.895-9.603 5.272-14.915 7.167l-.321.116-.244-.238c-2.277-2.21-4.299-4.668-6.182-7.183l-.226-.302.2-.316c2.952-4.707 6.067-8.944 9.725-12.939-.988-1.683-1.89-3.414-2.631-5.238-.902-1.818-1.383-3.739-2.013-5.542-5.306-.413-10.907-1.365-16.288-2.959l-.332-.098-.053-.342c-.484-3.087-.767-6.196-.767-9.33 0-.053 0-.104.001-.15l.003-.362.333-.139c4.976-2.084 10.318-3.655 15.466-4.741.139-1.998.642-3.897.916-5.768l.006-.043.011-.039c.566-1.811.933-3.745 1.675-5.614-4.118-3.48-8.053-7.512-11.435-11.946l-.203-.266.144-.301c1.374-2.895 3.157-5.524 4.886-8.145l.213-.323.375.094c5.387 1.338 10.526 3.113 15.334 5.259 1.348-1.356 2.611-2.88 4.182-4.101 1.465-1.334 3.041-2.514 4.668-3.612-1.343-5.339-2.005-10.687-2.244-16.423l-.016-.364.331-.155c2.832-1.323 5.693-2.694 8.754-3.621l.341-.103.234.271c3.537 4.132 6.652 8.574 9.31 13.226 1.935-.481 3.891-.651 5.825-.91 1.492-.096 3.003-.181 4.52-.181.454 0 .907.008 1.362.026 2.041-4.943 4.69-9.994 7.851-14.555l.192-.279.335.049c3.144.448 6.199 1.238 9.209 2.156l.356.108.03.373c.175 2.197.257 4.419.257 6.635 0 3.232-.176 6.449-.498 9.548 1.806.783 3.533 1.73 5.25 2.695 1.608 1.055 3.303 2.055 4.843 3.33 4.644-2.897 9.604-5.271 14.916-7.169l.32-.115.245.237c2.277 2.212 4.297 4.671 6.182 7.184l.226.3-.2.32c-2.953 4.705-6.067 8.941-9.724 12.936.983 1.677 1.885 3.406 2.623 5.224.908 1.823 1.389 3.75 2.02 5.558 5.306.412 10.905 1.364 16.287 2.958l.332.098.053.342c.479 3.08.766 6.184.766 9.315v.162.362l-.336.142c-4.977 2.085-10.319 3.656-15.465 4.742-.14 1.998-.643 3.896-.916 5.766l-.007.042-.013.041c-.564 1.812-.931 3.748-1.673 5.616 4.117 3.48 8.052 7.512 11.433 11.945l.203.264-.143.302c-1.374 2.896-3.156 5.525-4.886 8.144l-.214.323-.375-.093c-5.385-1.336-10.525-3.111-15.332-5.257-1.348 1.353-2.61 2.879-4.182 4.1-1.465 1.334-3.041 2.514-4.668 3.612 1.343 5.339 2.005 10.687 2.244 16.424l.014.363-.329.155c-2.833 1.324-5.693 2.694-8.755 3.621l-.342.101-.232-.27c-3.537-4.13-6.653-8.574-9.312-13.225-1.934.482-3.888.651-5.787.906l-.019.002-.019.003c-1.492.092-3.001.179-4.518.179-.454 0-.908-.008-1.363-.025-2.042 4.943-4.689 9.994-7.85 14.555l-.192.278zm-.181-1.134c3.098-4.518 5.699-9.532 7.691-14.421l.146-.36.389.021c.561.028 1.126.039 1.695.039 1.463 0 2.938-.083 4.412-.175 2.07-.275 4.117-.451 6.055-.982l.411-.114.21.372c2.612 4.62 5.679 9.037 9.165 13.144 2.716-.855 5.319-2.078 7.936-3.304-.256-5.675-.934-10.945-2.291-16.209l-.096-.377.323-.215c1.712-1.137 3.353-2.352 4.894-3.752 1.575-1.221 2.877-2.828 4.382-4.308l.268-.262.342.155c4.732 2.138 9.803 3.911 15.116 5.253 1.602-2.421 3.2-4.82 4.452-7.387-3.365-4.365-7.281-8.342-11.37-11.763l-.312-.262.162-.372c.783-1.819 1.16-3.836 1.776-5.841.309-2.076.845-4.063.924-6.042l.018-.427.418-.087c5.097-1.051 10.403-2.586 15.341-4.625-.012-2.879-.269-5.745-.699-8.598-5.315-1.545-10.851-2.463-16.081-2.848l-.354-.025-.12-.334c-.719-1.986-1.198-3.995-2.093-5.777l-.009-.018-.009-.02c-.764-1.891-1.719-3.695-2.771-5.461l-.209-.352.277-.3c3.642-3.936 6.737-8.106 9.678-12.757-1.731-2.289-3.568-4.511-5.6-6.515-5.248 1.901-10.14 4.271-14.718 7.161l-.344.216-.307-.266c-1.52-1.316-3.288-2.359-5.005-3.483-1.797-1.01-3.608-1.999-5.48-2.781l-.379-.157.045-.407c.347-3.185.535-6.502.535-9.833 0-2.063-.072-4.132-.224-6.177-2.754-.829-5.527-1.537-8.352-1.962-3.098 4.521-5.699 9.534-7.691 14.422l-.147.36-.387-.02c-.563-.029-1.129-.04-1.695-.04-1.477 0-2.964.082-4.412.175-2.07.276-4.117.451-6.057.983l-.411.112-.21-.372c-2.611-4.62-5.678-9.036-9.164-13.143-2.718.855-5.32 2.079-7.937 3.303.256 5.677.934 10.946 2.291 16.21l.098.376-.324.216c-1.713 1.138-3.353 2.352-4.893 3.753-1.576 1.221-2.879 2.827-4.385 4.307l-.267.262-.341-.153c-4.733-2.137-9.801-3.911-15.115-5.255-1.603 2.421-3.201 4.82-4.454 7.387 3.366 4.366 7.282 8.341 11.37 11.763l.312.26-.161.375c-.782 1.817-1.16 3.836-1.776 5.841-.31 2.075-.846 4.061-.924 6.041l-.018.427-.418.087c-5.097 1.051-10.404 2.586-15.342 4.624.013 2.88.267 5.744.7 8.6 5.314 1.545 10.851 2.461 16.081 2.846l.352.026.122.334c.718 1.984 1.198 3.996 2.091 5.776l.009.018.009.022c.765 1.888 1.719 3.692 2.773 5.461l.21.349-.278.301c-3.641 3.938-6.739 8.108-9.678 12.759 1.73 2.289 3.568 4.51 5.599 6.515 5.249-1.898 10.141-4.272 14.718-7.161l.343-.215.308.264c1.519 1.317 3.289 2.361 5.004 3.485 1.799 1.008 3.61 1.996 5.482 2.781l.375.156-.044.407c-.346 3.183-.535 6.499-.535 9.828 0 2.064.072 4.133.226 6.183 2.754.828 5.527 1.535 8.353 1.959zm-5.127-35.947c-5.246-3.219-9.713-8.043-12.076-13.852-1.634-3.698-2.406-7.665-2.406-11.654 0-2.219.239-4.444.705-6.65 1.485-6.09 4.664-11.666 9.431-15.742 4.654-4.228 10.765-6.648 16.896-7.285.861-.079 1.727-.117 2.596-.117 5.35.002 10.76 1.466 15.348 4.198 5.246 3.221 9.711 8.045 12.073 13.853 1.635 3.697 2.407 7.664 2.407 11.653 0 2.218-.238 4.441-.703 6.651-1.486 6.091-4.664 11.664-9.433 15.741-4.653 4.23-10.765 6.649-16.888 7.285l-.057-.545.05.545c-.862.078-1.729.116-2.598.116-5.351-.002-10.761-1.466-15.345-4.197zm12.655-54.093c-5.915.613-11.815 2.957-16.277 7.016-4.587 3.921-7.656 9.287-9.088 15.163-.448 2.117-.678 4.267-.678 6.408 0 3.849.746 7.663 2.32 11.225 2.264 5.573 6.57 10.239 11.634 13.343 4.398 2.623 9.628 4.041 14.779 4.04.835 0 1.666-.036 2.492-.111v-.001c5.915-.611 11.815-2.956 16.278-7.014 4.589-3.922 7.656-9.288 9.088-15.164.446-2.121.676-4.27.676-6.409 0-3.848-.744-7.661-2.319-11.227-2.264-5.57-6.569-10.236-11.634-13.342-4.401-2.623-9.63-4.039-14.781-4.039-.836 0-1.669.037-2.49.112z"/><path d="m562.07 372.615-.378-.012-.121-.358c-1.67-4.863-3.063-9.874-4.178-14.783-1.91-.209-3.841-.396-5.745-.752-1.941-.282-3.835-.727-5.718-1.151-2.907 4.24-6.149 8.447-9.647 12.383l-.236.264-.336-.104c-2.68-.835-5.297-1.837-7.87-2.914l-.352-.148.017-.381c.227-5.17.711-10.247 1.483-15.293-1.756-.847-3.429-1.817-5.104-2.773-1.657-1-3.3-2.032-4.892-3.15-4.28 2.95-8.757 5.62-13.468 8.08l-.319.166-.279-.226c-2.174-1.757-4.253-3.616-6.277-5.534l-.281-.265.156-.352c2.102-4.769 4.362-9.32 6.896-13.743-1.31-1.428-2.562-2.906-3.761-4.432-1.171-1.525-2.36-3.061-3.434-4.696-5.055 1.213-10.196 2.094-15.478 2.676l-.359.04-.177-.315c-1.372-2.429-2.688-4.901-3.845-7.455l-.156-.342.264-.268c3.606-3.661 7.473-7.13 11.391-10.319-.678-1.8-1.358-3.615-1.888-5.479-.595-1.862-1.06-3.753-1.507-5.632-5.097-.715-10.288-1.748-15.386-3.117l-.343-.092-.055-.351c-.434-2.76-.701-5.53-.911-8.301l-.029-.384.353-.158c4.75-2.11 9.523-3.952 14.35-5.517.016-1.927.049-3.862.207-5.79.103-1.954.364-3.886.623-5.798-4.517-2.505-8.974-5.333-13.231-8.459l-.285-.209.074-.346c.585-2.739 1.324-5.444 2.177-8.108l.116-.358.377-.02c2.397-.126 4.789-.186 7.174-.186 2.739 0 5.468.081 8.187.241.678-1.826 1.495-3.582 2.296-5.332.831-1.755 1.723-3.479 2.685-5.169-3.311-3.975-6.417-8.208-9.277-12.667l-.192-.3.197-.297c1.545-2.331 3.214-4.569 4.933-6.759l.239-.303.365.122c4.946 1.66 9.663 3.476 14.316 5.602 1.299-1.439 2.667-2.807 4.063-4.157 1.416-1.3 2.838-2.623 4.362-3.846-1.683-4.929-3.017-9.946-4.104-15.165l-.074-.356.299-.207c2.293-1.584 4.634-3.12 7.063-4.515l.327-.187.292.238c3.978 3.248 7.8 6.788 11.328 10.381 1.733-.833 3.477-1.683 5.283-2.383 1.802-.781 3.649-1.397 5.469-2.025.246-5.131.789-10.424 1.697-15.609l.061-.347.342-.089c2.713-.699 5.462-1.205 8.2-1.661l.379-.064.19.338c2.532 4.553 4.789 9.064 6.793 13.782 1.931-.191 3.864-.288 5.799-.333.658-.008 1.321-.013 1.985-.013 1.274 0 2.555.021 3.837.1 2.077-4.757 4.469-9.416 7.187-13.962l.184-.306.356.046c2.763.355 5.535.791 8.271 1.415l.366.083.054.372c.747 5.095 1.194 10.232 1.372 15.303 1.866.524 3.705 1.128 5.518 1.792 1.833.657 3.626 1.405 5.398 2.192 3.643-3.639 7.594-7.162 11.763-10.398l.28-.217.313.168c2.467 1.32 4.848 2.775 7.186 4.296l.322.209-.088.374c-1.192 5.066-2.574 9.934-4.263 14.766 1.56 1.161 3.033 2.407 4.52 3.659 1.417 1.296 2.863 2.59 4.221 3.994 4.761-2.134 9.62-3.913 14.729-5.488l.347-.108.233.279c1.786 2.142 3.522 4.329 5.141 6.613l.219.309-.211.314c-2.891 4.279-6.031 8.385-9.286 12.238.99 1.652 1.988 3.313 2.862 5.039.942 1.718 1.734 3.497 2.518 5.26 1.983-.095 3.983-.141 5.994-.141 3.221 0 6.466.123 9.708.383l.352.028.119.333c.947 2.637 1.73 5.333 2.408 8.038l.092.368-.312.216c-4.253 2.93-8.601 5.602-13.096 8.025.383 1.914.599 3.834.875 5.754.158 1.911.374 3.837.427 5.793 4.948 1.627 9.757 3.584 14.572 5.861l.327.154-.016.363c-.112 2.782-.286 5.575-.648 8.359l-.048.372-.365.09c-4.99 1.216-10.099 2.135-15.109 2.788-.369 1.888-.744 3.793-1.273 5.656-.473 1.902-1.077 3.75-1.675 5.586 3.938 3.282 7.845 6.903 11.433 10.753l.242.258-.136.328c-1.083 2.581-2.319 5.093-3.625 7.553l-.179.338-.38-.052c-5.14-.709-10.13-1.647-15.093-2.885-1.007 1.663-2.124 3.243-3.228 4.833-1.158 1.541-2.322 3.092-3.586 4.575 2.562 4.546 4.778 9.22 6.812 14.155l.136.334-.251.258c-1.956 1.991-3.982 3.907-6.095 5.735l-.29.25-.335-.186c-4.539-2.506-8.891-5.212-13.048-8.12-1.546 1.154-3.122 2.282-4.756 3.326-1.626 1.057-3.292 2.062-5 2.991.734 5.138 1.146 10.366 1.222 15.657l.005.359-.326.149c-2.54 1.149-5.128 2.233-7.781 3.139l-.355.119-.241-.286c-3.313-3.939-6.391-8.069-9.209-12.294-1.864.549-3.758.969-5.642 1.38-1.9.387-3.81.721-5.741.967-1.167 5.083-2.677 10.03-4.494 15.055l-.124.343-.364.018c-1.955.091-3.912.158-5.875.158-.828.003-1.659-.008-2.492-.034zm2.495-1.058c1.816 0 3.635-.059 5.457-.141 1.793-4.997 3.276-9.907 4.418-14.954l.085-.377.382-.046c2.025-.244 4.033-.593 6.031-.999 2.003-.436 4-.884 5.937-1.475l.39-.118.227.341c2.788 4.207 5.836 8.32 9.117 12.246 2.371-.827 4.701-1.797 7.002-2.832-.091-5.252-.515-10.439-1.26-15.536l-.056-.381.339-.18c1.795-.965 3.547-2.015 5.262-3.128 1.715-1.095 3.371-2.291 5.009-3.521l.318-.239.325.23c4.12 2.901 8.433 5.597 12.94 8.1 1.895-1.653 3.72-3.377 5.489-5.166-2.03-4.897-4.243-9.527-6.802-14.031l-.193-.338.255-.292c1.329-1.531 2.555-3.165 3.778-4.793 1.174-1.688 2.354-3.357 3.384-5.099l.208-.352.396.1c4.929 1.246 9.885 2.191 14.992 2.908 1.173-2.227 2.282-4.489 3.265-6.8-3.572-3.805-7.462-7.39-11.376-10.637l-.287-.239.116-.353c.636-1.954 1.279-3.894 1.774-5.88.552-1.946.937-3.953 1.331-5.97l.076-.388.393-.051c4.975-.635 10.055-1.536 15.014-2.729.308-2.494.47-5.008.579-7.528-4.789-2.25-9.567-4.176-14.485-5.775l-.373-.123-.006-.391c-.029-2.017-.257-4.05-.426-6.076-.296-2.046-.52-4.075-.942-6.052l-.086-.403.362-.193c4.477-2.398 8.805-5.04 13.04-7.942-.622-2.439-1.329-4.862-2.167-7.232-3.095-.237-6.193-.353-9.268-.353-2.119 0-4.227.053-6.314.159l-.376.018-.151-.342c-.836-1.879-1.658-3.75-2.638-5.538-.916-1.81-1.977-3.557-3.034-5.323l-.201-.336.254-.298c3.241-3.817 6.371-7.89 9.253-12.129-1.464-2.043-3.025-4.015-4.637-5.955-5.071 1.577-9.886 3.357-14.605 5.492l-.355.16-.268-.283c-1.392-1.47-2.915-2.832-4.415-4.205-1.576-1.326-3.133-2.643-4.773-3.84l-.33-.241.137-.383c1.695-4.797 3.08-9.628 4.276-14.66-2.117-1.369-4.263-2.676-6.469-3.871-4.127 3.222-8.041 6.732-11.645 10.353l-.266.268-.345-.155c-1.868-.835-3.75-1.627-5.669-2.314-1.917-.704-3.857-1.334-5.823-1.874l-.39-.108-.012-.403c-.164-5.039-.595-10.145-1.321-15.21-2.455-.544-4.949-.942-7.447-1.27-2.685 4.522-5.046 9.152-7.094 13.882l-.154.356-.386-.028c-1.374-.098-2.758-.124-4.146-.124-.659 0-1.316.005-1.967.013-2.042.047-4.079.154-6.104.369l-.405.043-.158-.374c-1.978-4.695-4.206-9.181-6.713-13.712-2.481.418-4.953.88-7.384 1.492-.885 5.145-1.407 10.402-1.639 15.491l-.016.372-.35.121c-1.945.673-3.888 1.311-5.762 2.124-1.889.731-3.721 1.636-5.578 2.527l-.354.169-.273-.281c-3.493-3.572-7.282-7.098-11.222-10.338-2.172 1.262-4.282 2.641-6.361 4.071 1.092 5.182 2.431 10.157 4.118 15.043l.128.37-.307.24c-1.593 1.25-3.089 2.642-4.594 4.024-1.472 1.426-2.914 2.869-4.266 4.388l-.27.304-.368-.17c-4.615-2.127-9.294-3.942-14.207-5.603-1.55 1.984-3.049 4.001-4.445 6.086 2.85 4.42 5.946 8.612 9.245 12.547l.245.292-.191.332c-1.018 1.77-1.96 3.578-2.83 5.417-.857 1.87-1.719 3.723-2.399 5.626l-.138.387-.411-.026c-2.832-.174-5.676-.263-8.528-.263-2.241 0-4.488.054-6.738.164-.76 2.402-1.423 4.838-1.959 7.296 4.232 3.088 8.663 5.882 13.153 8.354l.329.18-.051.373c-.275 2.035-.559 4.061-.667 6.096-.166 2.025-.192 4.065-.208 6.12l-.002.396-.377.121c-4.797 1.541-9.54 3.355-14.263 5.439.194 2.508.439 5.002.815 7.477 5.064 1.345 10.22 2.355 15.279 3.05l.371.051.087.365c.472 1.996.954 3.984 1.577 5.931.554 1.948 1.278 3.858 2.004 5.78l.14.369-.307.249c-3.9 3.157-7.752 6.593-11.342 10.218 1.051 2.282 2.23 4.511 3.466 6.711 5.244-.592 10.345-1.483 15.359-2.702l.378-.093.211.329c1.093 1.703 2.342 3.318 3.59 4.945 1.261 1.602 2.584 3.156 3.972 4.653l.275.295-.202.351c-2.53 4.386-4.788 8.899-6.886 13.634 1.833 1.726 3.706 3.399 5.653 4.985 4.673-2.455 9.11-5.117 13.347-8.06l.318-.22.314.224c1.654 1.181 3.38 2.268 5.124 3.321 1.785 1.018 3.55 2.041 5.386 2.902l.371.172-.063.407c-.783 5.013-1.28 10.057-1.517 15.195 2.327.967 4.685 1.864 7.083 2.624 3.458-3.916 6.665-8.101 9.537-12.314l.208-.308.363.082c2.012.452 3.997.926 6.02 1.221 1.986.372 4.024.558 6.073.785l.388.042.086.381c1.094 4.875 2.466 9.857 4.108 14.693.691.018 1.385.025 2.081.025zm-10.099-31.92.088-.54-.089.539c-5.453-.901-10.778-2.546-15.815-4.843l-.559-.255 15.426-25.641.421.148c3.427 1.2 7.108 1.86 10.944 1.86.427 0 .858-.015 1.293-.032l.445-.018 7.21 28.975-.605.083c-2.798.376-5.619.562-8.438.562-3.465 0-6.923-.283-10.321-.838zm10.32-.255c2.565 0 5.135-.158 7.685-.476l-6.698-26.924c-.294.011-.59.017-.891.017-3.805 0-7.465-.629-10.884-1.777l-14.333 23.827c4.784 2.126 9.825 3.655 14.979 4.508 3.34.547 6.739.825 10.142.825zm14.051-31.55.401-.193c3.769-1.815 7.136-4.329 9.947-7.367l.303-.327 25.668 15.443-.374.487c-4.371 5.682-9.707 10.615-15.707 14.501-3.91 2.533-8.096 4.608-12.457 6.213l-.575.21zm7.974 27.516c4.082-1.547 8-3.514 11.668-5.891 5.722-3.705 10.835-8.384 15.059-13.766l-23.855-14.35c-2.739 2.884-5.972 5.295-9.569 7.087zm-60.014-7.623c-4.309-3.258-8.207-7.061-11.543-11.301-4.005-5.08-7.19-10.772-9.456-16.813l-.216-.576 29.266-7.28.193.401c1.816 3.768 4.329 7.135 7.366 9.946l.328.302-15.139 25.166-.315.521zm.33-.436.33-.438zm-11.012-11.542c3.15 4.006 6.815 7.615 10.86 10.734l14.365-23.881c-2.885-2.739-5.295-5.972-7.087-9.569l-27.211 6.771c2.212 5.722 5.265 11.117 9.073 15.945zm79.865-26.584.147-.42c1.201-3.426 1.861-7.106 1.861-10.944 0-.428-.015-.857-.032-1.294l-.018-.444 29.323-7.295.081.606c.04.309.098.633.136.979.259 2.353.388 4.713.388 7.07 0 5.415-.685 10.81-2.06 16.039-.955 3.645-2.252 7.204-3.849 10.625l-.259.551zm25.24 13.906c1.452-3.192 2.64-6.503 3.528-9.887 1.35-5.137 2.023-10.438 2.023-15.76 0-2.316-.127-4.638-.38-6.947-.013-.115-.029-.232-.047-.353l-27.279 6.787c.011.293.017.59.017.891 0 3.805-.629 7.464-1.776 10.885zm-73.029-25.27c.002-9.218 7.474-16.689 16.691-16.69 9.217.001 16.691 7.472 16.691 16.69 0 9.217-7.473 16.689-16.691 16.691v-.548-.549c8.614-.015 15.579-6.982 15.594-15.594-.015-8.613-6.98-15.579-15.594-15.595-8.612.016-15.579 6.981-15.595 15.595.016 8.612 6.983 15.579 15.595 15.594v.549.548c-9.217-.002-16.689-7.473-16.691-16.691zm-45.803 8.438c-.415-2.95-.631-5.933-.631-8.908 0-1.495.053-2.987.165-4.47.531-7.444 2.412-14.765 5.516-21.562l.255-.558 26.09 15.696-.146.42c-1.202 3.427-1.862 7.107-1.862 10.944 0 .428.015.858.033 1.295l.016.444-28.761 7.155-.59.145zm.543-.075.542-.077zm.083-13.223c-.109 1.457-.162 2.921-.162 4.39 0 2.719.184 5.449.539 8.154l27.308-6.792c-.01-.293-.017-.59-.017-.892 0-3.805.63-7.464 1.777-10.884l-24.277-14.604c-2.901 6.52-4.663 13.518-5.168 20.628zm91.707-9.496c-1.815-3.769-4.329-7.136-7.367-9.947l-.326-.303 15.4-25.6.316-.525.487.374c1.062.814 2.111 1.655 3.124 2.543 5.853 5.127 10.748 11.335 14.335 18.208 1.315 2.509 2.45 5.106 3.41 7.768l.206.57-29.391 7.311zm.79-.876 27.349-6.803c-.897-2.417-1.942-4.778-3.14-7.064-3.524-6.751-8.336-12.854-14.088-17.891-.836-.734-1.701-1.437-2.583-2.125l-14.627 24.313c2.886 2.739 5.296 5.972 7.089 9.57zm-81.379-22.642.367-.485c2.087-2.766 4.391-5.373 6.909-7.758 5.644-5.36 12.265-9.645 19.44-12.584.701-.286 1.408-.556 2.118-.817l.572-.209 7.387 29.695-.399.192c-3.768 1.816-7.137 4.329-9.946 7.368l-.304.326zm25.948 14.333c2.738-2.884 5.972-5.295 9.569-7.088l-6.878-27.647c-.507.19-1.011.386-1.508.589-7.049 2.887-13.557 7.099-19.1 12.364l-.377-.396.376.396c-2.325 2.201-4.467 4.599-6.421 7.14zm35.746-7.704c-3.428-1.201-7.109-1.861-10.944-1.861-.428 0-.859.016-1.295.032l-.444.017-7.393-29.72.604-.083c2.388-.325 4.797-.513 7.213-.553v.001c.42-.009.839-.014 1.261-.014 7.346 0 14.667 1.28 21.566 3.799 1.711.625 3.394 1.329 5.044 2.1l.551.256-15.743 26.172zm-.061-1.179 14.658-24.366c-1.446-.659-2.914-1.265-4.404-1.808-6.777-2.476-13.972-3.734-21.191-3.734-.413 0-.827.006-1.241.013l-.011-.546.008.547c-2.168.035-4.331.193-6.477.463l6.883 27.671c.293-.01.59-.017.891-.017 3.806.001 7.464.63 10.884 1.777z"/></g></svg>