<svg xmlns="http://www.w3.org/2000/svg"><path d="m591.046 163.674s-13.449-16.603-21.207-26.254c-2.595-3.228-4.521-5.637-5.199-6.522-.942-1.239-1.611-2.133-2.052-2.571-.462-.447-.534-.471-.882-.594-.243-.072-.678-.153-1.422-.153h-31.756c-1.032 0-2.043-.417-2.772-1.146-.732-.732-1.149-1.743-1.149-2.775v-4.671h-27.648c-1.032 0-2.043-.417-2.772-1.149-.732-.729-1.149-1.74-1.149-2.772v-21.297c0-1.032.417-2.043 1.149-2.772.729-.732 1.74-1.149 2.772-1.149h28.02v-.747h-28.767c-1.032 0-2.043-.42-2.772-1.149-.732-.729-1.149-1.74-1.149-2.775v-20.172c0-1.035.417-2.046 1.149-2.775.729-.732 1.74-1.149 2.772-1.149h28.02v-.747h-33.624v63.324c0 1.032-.417 2.043-1.149 2.772-.729.732-1.74 1.149-2.772 1.149h-24.099c-1.032 0-2.043-.417-2.772-1.146-.729-.732-1.149-1.743-1.149-2.775v-70.797h-1.68v70.797c0 1.032-.42 2.043-1.149 2.772-.732.732-1.74 1.149-2.775 1.149h-58.84c-1.035 0-2.043-.417-2.775-1.146-.729-.732-1.149-1.743-1.149-2.775v-50.622c0-1.032.42-2.043 1.149-2.775.732-.729 1.74-1.149 2.775-1.149h30.633v-37.171h-37.92v92.089c0 1.035-.417 2.046-1.149 2.775-.729.729-1.74 1.149-2.772 1.149h-45.766c-1.035 0-2.043-.417-2.775-1.149-.732-.729-1.149-1.74-1.149-2.775v-13.449c0-1.032.417-2.043 1.149-2.772.732-.732 1.74-1.149 2.775-1.149h17.746v-46.887h-46.327v46.887h16.998c1.035 0 2.046.417 2.775 1.146.732.732 1.149 1.743 1.149 2.775v13.449c0 1.032-.42 2.043-1.149 2.775-.732.729-1.74 1.149-2.775 1.149h-41.655c-1.17-.006-2.487-.009-3.993-.342-1.5-.327-3.138-1.077-4.524-2.274-.243-.21-.318-.294-.447-.423-.117-.12-.24-.249-.381-.399-.282-.3-.633-.684-1.056-1.149-.843-.93-1.965-2.184-3.276-3.66-2.622-2.946-5.997-6.771-9.333-10.563-6.672-7.581-13.192-15.033-13.192-15.033-1.014-1.158-1.254-2.805-.62-4.203.636-1.401 2.034-2.301 3.573-2.301h25.779v-27.462h-32.878v63.513c0 1.032-.417 2.043-1.149 2.772-.729.732-1.74 1.149-2.772 1.149h-23.91c-1.035 0-2.043-.417-2.775-1.149-.732-.729-1.149-1.74-1.149-2.772v-86.689c0-1.035.42-2.046 1.149-2.775.732-.729 1.74-1.149 2.775-1.149h31.941v-1.68h-73.008v1.68h31.383c1.032 0 2.043.42 2.772 1.149.729.732 1.149 1.74 1.149 2.775v86.674c0 1.032-.42 2.043-1.149 2.772-.729.732-1.74 1.149-2.772 1.149h-24.099c-1.035 0-2.043-.417-2.775-1.149-.729-.729-1.149-1.74-1.149-2.772v-5.046h-28.392c-1.032 0-2.044-.417-2.773-1.146-.732-.732-1.152-1.743-1.152-2.775v-21.294c0-1.035.42-2.043 1.149-2.775.732-.729 1.744-1.149 2.776-1.149h28.392v-.933h-28.578c-1.035 0-2.047-.42-2.776-1.149-.729-.732-1.149-1.74-1.149-2.775v-19.986c0-1.032.42-2.043 1.149-2.775.732-.729 1.741-1.149 2.776-1.149h28.767v-1.122h-34.186v64.074c0 1.032-.42 2.04-1.149 2.772-.732.732-1.74 1.149-2.772 1.149h-25.032c-.417-.003-.867-.009-1.407-.093-.537-.078-1.143-.255-1.635-.477-.999-.468-1.491-.864-2.31-1.395-.426-.294-.585-.471-.741-.624-.147-.15-.249-.273-.348-.39-.192-.234-.354-.456-.534-.708-.357-.501-.762-1.107-1.239-1.848-.954-1.476-2.181-3.462-3.606-5.808-2.85-4.689-6.468-10.806-10.035-16.887-7.131-12.159-14.043-24.165-14.046-24.168-.702-1.215-.699-2.709.003-3.924.699-1.212 1.995-1.956 3.396-1.956l30.447-.003v-37.36h-37.203l-.537 91.741c-.012 2.142-1.758 3.888-3.9 3.9-.012 0-30.799.186-32.152.186-2.346.006-4.242-.774-5.478-1.563-1.185-.75-1.842-1.494-2.073-1.773l-28.722-34.698c-1.38-1.668-1.149-4.14.522-5.523 1.668-1.38 4.14-1.146 5.523.522l28.671 34.638c.036.036.129.117.264.201.282.168.651.348 1.293.351.609 0 8.673-.045 16.531-.093 4.389-.027 8.721-.051 11.697-.069l.54-91.765c.012-2.154 1.767-3.897 3.921-3.897h45.018c1.035 0 2.043.417 2.775 1.146.729.732 1.149 1.743 1.149 2.775v45.205c0 1.035-.42 2.043-1.149 2.775-.732.729-1.743 1.149-2.775 1.149h-27.573c1.161 2.007 2.559 4.419 4.101 7.068 4.29 7.38 9.672 16.584 14.013 23.838 2.883 4.821 5.337 8.823 6.597 10.695.174.261.33.483.444.639.228.153.408.27.531.348h.021 21.105v-64.071c0-1.032.42-2.043 1.152-2.772.729-.732 1.74-1.149 2.772-1.149h42.031c1.032 0 2.043.417 2.772 1.149.732.729 1.149 1.74 1.149 2.772v8.967c0 1.032-.417 2.043-1.149 2.772-.729.732-1.74 1.149-2.772 1.149h-28.767v12.144h28.581c1.032 0 2.043.417 2.772 1.149.732.729 1.149 1.74 1.149 2.772v8.781c0 1.032-.417 2.043-1.149 2.772-.729.732-1.74 1.149-2.772 1.149h-28.395v13.449h28.395c1.032 0 2.043.42 2.772 1.152.732.729 1.149 1.74 1.149 2.772v5.043h16.251v-78.829h-31.38c-1.032 0-2.043-.417-2.775-1.149-.729-.729-1.149-1.74-1.149-2.772v-9.534c0-1.032.42-2.043 1.149-2.772.732-.732 1.743-1.152 2.775-1.152h80.884c1.032 0 2.043.42 2.772 1.152.732.729 1.149 1.74 1.149 2.772v9.528c0 1.032-.417 2.043-1.149 2.772-.729.732-1.74 1.149-2.772 1.149h-31.945v78.829h16.065v-63.51c0-1.032.42-2.043 1.149-2.775.732-.729 1.743-1.149 2.775-1.149h40.723c1.032 0 2.043.42 2.775 1.149.729.732 1.146 1.743 1.146 2.775v35.304c0 1.035-.417 2.043-1.149 2.775-.729.729-1.74 1.149-2.772 1.149h-21.048c1.773 2.022 3.822 4.359 5.937 6.765 6.084 6.918 12.759 14.475 14.859 16.743.189.204.348.372.426.45.438.348.669.435 1.11.549.456.108 1.191.153 2.265.15 1.803-.003 27.708-.003 37.731 0v-5.604h-16.998c-1.032 0-2.043-.42-2.772-1.149-.732-.732-1.149-1.743-1.149-2.775v-54.732c0-1.032.417-2.043 1.149-2.772.729-.732 1.74-1.149 2.772-1.149h54.172c1.032 0 2.043.417 2.772 1.149.732.729 1.152 1.74 1.152 2.772v54.732c0 1.032-.42 2.043-1.152 2.775-.729.729-1.74 1.149-2.772 1.149h-17.749v5.601h37.921v-92.089c0-1.035.42-2.046 1.149-2.775.732-.732 1.743-1.149 2.775-1.149h45.765c1.032 0 2.043.417 2.775 1.149.729.732 1.146 1.74 1.146 2.775v45.019c0 1.032-.417 2.043-1.146 2.772-.732.729-1.743 1.149-2.775 1.149h-30.636v42.777h50.998v-70.798c0-1.032.416-2.043 1.149-2.772.728-.732 1.74-1.149 2.772-1.149h9.528c1.032 0 2.043.417 2.772 1.149.732.729 1.149 1.74 1.149 2.772v70.798h16.251v-63.324c0-1.032.42-2.043 1.152-2.775.729-.729 1.74-1.149 2.772-1.149h41.469c1.032 0 2.043.42 2.775 1.149.729.732 1.149 1.743 1.149 2.775v8.592c0 1.032-.42 2.043-1.149 2.775-.732.729-1.743 1.146-2.775 1.146h-28.02v12.33h28.767c1.035 0 2.046.417 2.775 1.149s1.149 1.74 1.149 2.775v8.592c0 1.032-.42 2.043-1.149 2.775-.732.729-1.74 1.146-2.775 1.146h-28.02v13.452h27.648c1.032 0 2.043.417 2.772 1.149.732.729 1.149 1.74 1.149 2.772v4.671h27.835c1.278 0 2.487.129 3.645.471 1.158.339 2.229.909 3.093 1.584 1.743 1.383 2.673 2.838 3.849 4.341.396.519 1.623 2.058 3.279 4.125 1.662 2.073 3.783 4.71 6.06 7.533 4.557 5.652 9.741 12.061 13.158 16.285 2.28 2.817 3.771 4.656 3.774 4.662 1.365 1.683 1.104 4.152-.579 5.517-.726.588-1.599.873-2.466.873-1.197 0-2.316-.492-3.102-1.452z" fill="none"/><path d="m594.112 167.184c-1.734.003-3.471-.762-4.65-2.217h.003c-.075-.087-13.47-16.627-21.213-26.26-2.601-3.237-4.518-5.631-5.235-6.567-.9-1.194-1.596-2.091-1.842-2.337-.051-.048-.093-.087-.126-.117-.03-.006-.072-.012-.12-.018-.132-.018-.336-.033-.63-.033h-31.759c-1.587-.003-3.099-.627-4.224-1.749-1.122-1.125-1.749-2.64-1.752-4.227v-2.616h-25.59c-1.59-.003-3.102-.63-4.227-1.749-.024-.024-.048-.048-.072-.072v4.437c-.003 1.587-.63 3.102-1.749 4.227-1.125 1.119-2.637 1.746-4.227 1.752h-24.096c-1.587-.006-3.102-.63-4.227-1.752-.195-.195-.375-.402-.537-.618-.165.216-.342.423-.537.618-1.125 1.119-2.637 1.746-4.227 1.752h-58.84c-1.587-.006-3.102-.63-4.227-1.752-.57-.573-1.011-1.242-1.311-1.974-.288.876-.78 1.68-1.443 2.346-1.128 1.122-2.64 1.749-4.227 1.752h-45.766c-1.587-.003-3.102-.63-4.227-1.752-.765-.768-1.302-1.719-1.566-2.748-.261 1.032-.798 1.98-1.563 2.751-1.125 1.116-2.637 1.746-4.227 1.749h-41.667c-1.161-.006-2.676 0-4.419-.39-1.833-.399-3.756-1.284-5.439-2.73-.282-.246-.462-.432-.543-.513l-.012-.015-.015-.012c-.126-.132-.258-.27-.408-.429-.291-.312-.648-.699-1.077-1.173-.852-.939-1.977-2.196-3.291-3.672-2.625-2.952-6.003-6.777-9.339-10.572-6.675-7.584-13.195-15.036-13.195-15.036-.201-.231-.384-.477-.546-.729v28.92c-.003 1.59-.63 3.102-1.749 4.227-1.125 1.119-2.64 1.749-4.227 1.752h-23.91c-1.59-.003-3.102-.633-4.227-1.752-.231-.234-.441-.483-.63-.744-.189.261-.399.51-.63.741-1.125 1.125-2.64 1.752-4.227 1.755h-24.186c-1.587-.006-3.099-.63-4.227-1.752-1.119-1.125-1.746-2.637-1.749-4.227v-2.988h-26.34c-1.288-.003-2.527-.417-3.55-1.17v4.158c-.003 1.59-.63 3.102-1.749 4.224-1.128 1.125-2.64 1.752-4.227 1.755h-25.041c-.438-.003-1.02-.012-1.695-.114-.756-.114-1.491-.333-2.205-.651-1.188-.552-1.848-1.074-2.562-1.533l-.021-.015-.021-.015c-.537-.357-.927-.756-1.02-.852l-.018-.018-.018-.018c-.195-.201-.345-.381-.459-.519-.231-.285-.426-.549-.621-.816-.384-.543-.804-1.173-1.29-1.926-.972-1.503-2.205-3.501-3.636-5.856-2.859-4.707-6.48-10.827-10.05-16.914-6.384-10.884-12.597-21.651-13.833-23.793l-.273 47.094c-.027 3.273-2.664 5.916-5.949 5.943h-.018c-.012 0-.036 0-.063 0-.06 0-.147.003-.261.003-.225 0-.558.003-.981.006-.846.003-2.055.012-3.507.021-2.91.018-6.801.042-10.734.063-7.876.048-15.895.096-16.594.096h-.024c-2.799-.006-5.052-.927-6.555-1.884-.345-.216-.654-.435-.927-.648l-.189.189-26.523-32.043-3.639-4.392c-.918-1.11-1.374-2.472-1.371-3.81-.003-1.101.303-2.202.9-3.162v-.045l.018.021c.33-.525.747-1.008 1.248-1.422 1.11-.918 2.472-1.374 3.81-1.374 1.71-.003 3.429.744 4.608 2.169l28.5 34.434c.018 0 .057.003.144.012.588 0 8.664-.048 16.519-.093 3.471-.021 6.909-.042 9.669-.06l.525-89.734c.021-3.288 2.691-5.94 5.976-5.943h45.018c1.59.006 3.102.63 4.227 1.752 1.122 1.125 1.749 2.637 1.752 4.227v45.205c-.003 1.59-.63 3.102-1.752 4.227-1.125 1.122-2.637 1.746-4.227 1.752h-24.006c.72 1.245 1.494 2.58 2.31 3.981 4.29 7.377 9.669 16.578 14.001 23.814 2.874 4.806 5.334 8.814 6.546 10.614.015.024.03.048.048.069h13.833 4.455v-61.998c.003-1.587.63-3.102 1.752-4.227 1.122-1.119 2.637-1.746 4.227-1.749h42.028c1.59.003 3.102.63 4.227 1.749 1.119 1.125 1.749 2.64 1.752 4.227v8.967c-.003 1.587-.633 3.102-1.752 4.227-1.125 1.119-2.637 1.746-4.227 1.749h-26.712v8.034h26.526c1.587.003 3.102.63 4.227 1.749 1.119 1.125 1.746 2.64 1.749 4.227l.003 8.781c-.006 1.587-.633 3.102-1.752 4.224-1.128 1.125-2.64 1.749-4.227 1.752h-26.34v9.342h26.34c1.587.003 3.099.63 4.227 1.749 1.119 1.125 1.746 2.64 1.752 4.227v2.988h12.138v-74.719h-29.325c-1.587-.003-3.102-.63-4.227-1.749-1.119-1.128-1.749-2.64-1.752-4.227v-9.528c.003-1.59.633-3.105 1.752-4.227 1.125-1.122 2.637-1.749 4.227-1.752h80.884c1.59.003 3.102.63 4.227 1.752 1.119 1.125 1.746 2.637 1.752 4.227v9.525c-.006 1.587-.63 3.102-1.752 4.227-1.125 1.122-2.637 1.746-4.227 1.752h-29.89v74.719h11.955v-61.452c.006-1.587.633-3.102 1.752-4.227 1.128-1.122 2.64-1.746 4.227-1.752h40.723c1.59.003 3.102.63 4.227 1.752 1.122 1.125 1.746 2.64 1.752 4.227v35.304c-.006 1.587-.633 3.102-1.752 4.227-1.125 1.119-2.637 1.746-4.227 1.749h-16.512c.951 1.086 1.941 2.211 2.946 3.354 6.072 6.909 12.768 14.487 14.826 16.71.111.12.213.228.288.306.027.021.045.03.054.036l.003.006c0-.003 0 0 .021.006.024.006.081.024.171.048.168.033.762.087 1.611.084.024 0 .09-.003.189 0 1.257 0 10.461-.003 19.899-.003 5.739 0 11.565 0 15.732.003v-1.494h-14.943c-1.59-.006-3.102-.633-4.227-1.752-1.119-1.125-1.746-2.637-1.749-4.227v-54.738c.003-1.59.63-3.102 1.749-4.227 1.125-1.122 2.64-1.749 4.227-1.752h54.172c1.59.003 3.102.63 4.227 1.752 1.119 1.125 1.749 2.637 1.752 4.227v54.732c-.006 1.587-.633 3.102-1.752 4.227-1.125 1.119-2.637 1.746-4.227 1.749h-15.691v1.494h33.811v-90.037c.003-1.587.63-3.099 1.752-4.227 1.125-1.122 2.637-1.746 4.227-1.749l45.765-.003c1.587.006 3.099.63 4.224 1.752 1.122 1.128 1.749 2.64 1.752 4.227v45.019c-.003 1.587-.63 3.102-1.752 4.227-1.125 1.119-2.637 1.746-4.227 1.749h-28.581v38.667h46.888v-68.74c.002-1.59.629-3.102 1.748-4.227 1.129-1.122 2.641-1.749 4.231-1.752h9.525c1.59.003 3.102.63 4.227 1.752 1.122 1.125 1.746 2.637 1.749 4.227v68.74h12.144v-61.269c.003-1.587.63-3.099 1.749-4.227 1.125-1.119 2.64-1.746 4.227-1.749h41.469c1.587.003 3.102.63 4.227 1.749 1.122 1.128 1.746 2.64 1.752 4.227v8.595c-.006 1.587-.63 3.099-1.752 4.227-1.128 1.119-2.637 1.746-4.227 1.749h-25.965v8.22h26.712c1.587.003 3.102.627 4.23 1.749 1.116 1.128 1.743 2.64 1.746 4.227v8.592c-.003 1.587-.63 3.102-1.752 4.227-1.122 1.119-2.634 1.746-4.224 1.752h-25.965v9.339h25.59c1.587.003 3.102.63 4.227 1.749 1.122 1.128 1.746 2.64 1.752 4.23v2.613h25.78c1.416 0 2.829.144 4.221.555 1.425.417 2.709 1.101 3.795 1.947 2.025 1.611 3.093 3.294 4.206 4.704.36.474 1.596 2.028 3.246 4.086 1.659 2.07 3.78 4.707 6.057 7.53 4.554 5.646 9.738 12.057 13.158 16.282 2.262 2.793 3.741 4.62 3.774 4.662 0 .003 0 0 0-.003 0 0-.003-.003 0 0 .894 1.101 1.332 2.442 1.332 3.759.003 1.734-.762 3.468-2.214 4.647-1.101.891-2.439 1.332-3.753 1.332h-.114zm-50.326-41.659h16.51c.888.003 1.512.09 2.013.24l.048.015.042.015c.147.051.48.159.834.387.339.225.537.423.792.663l.024.024c.654.666 1.284 1.539 2.235 2.778.642.84 2.577 3.261 5.166 6.486 7.755 9.645 21.204 26.248 21.204 26.248l-1.596 1.293 1.596-1.293c.372.459.9.69 1.455.693.417-.003.822-.135 1.17-.417.462-.375.693-.903.696-1.455-.006-.417-.135-.822-.435-1.197-.012-.012-.03-.033-.051-.063-.048-.054-.114-.138-.201-.246-.177-.219-.435-.537-.765-.942-.657-.813-1.599-1.977-2.739-3.384-3.417-4.224-8.604-10.636-13.161-16.288-2.28-2.826-4.401-5.463-6.063-7.539-1.665-2.076-2.877-3.6-3.294-4.146-1.257-1.617-2.046-2.841-3.492-3.987-.66-.513-1.521-.972-2.412-1.23-.921-.273-1.923-.39-3.066-.39-1.302 0-19.63 0-27.835 0h-2.055v-6.723c.006-.48-.207-.987-.546-1.323-.336-.339-.843-.549-1.32-.546h-29.703v-17.559h30.078c.477.003.984-.207 1.32-.546.339-.336.549-.843.546-1.323v-8.592c.003-.477-.207-.987-.546-1.32-.336-.342-.843-.552-1.32-.546h-30.825v-16.44h30.078c.474.003.984-.207 1.32-.546.339-.336.549-.843.546-1.32v-8.595c.003-.477-.207-.984-.546-1.32-.336-.339-.843-.552-1.32-.546h-41.469c-.48-.003-.987.204-1.323.546-.339.336-.549.843-.546 1.32v65.379h-20.364v-72.85c.006-.48-.204-.987-.546-1.323-.333-.339-.843-.549-1.32-.546h-9.525c-.48-.003-.987.207-1.323.549-.339.333-.549.84-.546 1.32v72.85h-21.016-34.089v-46.89h32.688c.477.006.987-.207 1.323-.546.339-.336.549-.843.546-1.32v-45.019c.003-.48-.207-.987-.546-1.323-.336-.339-.843-.549-1.32-.546h-45.765c-.48-.003-.987.207-1.323.546-.339.336-.549.846-.546 1.323v94.147h-42.031v-9.714h19.804c.477.003.984-.207 1.32-.546.342-.336.552-.843.546-1.32v-54.732c.006-.48-.204-.984-.549-1.323-.333-.339-.84-.549-1.317-.546h-54.172c-.48-.003-.987.207-1.323.546-.339.339-.549.843-.546 1.323v54.732c-.003.477.207.984.549 1.32.333.339.843.549 1.32.546h19.053v9.714h-2.055c-4.152 0-11.031 0-17.79 0-9.561 0-18.888 0-19.941 0h-.027-.021-.096c-1.068-.006-1.83-.03-2.598-.204l-.021-.006-.015-.003c-.495-.096-1.338-.456-1.875-.93l-.105-.081-.093-.099c-.093-.093-.261-.27-.459-.483-2.145-2.319-8.805-9.858-14.895-16.785-2.115-2.406-4.164-4.743-5.94-6.765l-2.991-3.411h25.584c.477.003.987-.207 1.32-.546.342-.336.552-.843.549-1.323v-35.301c.003-.48-.207-.987-.549-1.323-.333-.339-.843-.549-1.32-.546h-40.693c-.477-.003-.984.207-1.32.546-.342.336-.552.843-.549 1.323v65.565h-20.172v-82.951h33.997c.477.006.987-.207 1.323-.546.339-.336.549-.843.546-1.32v-9.531c.003-.477-.207-.984-.549-1.32-.333-.342-.843-.552-1.32-.546h-80.887c-.477-.006-.987.204-1.323.546-.339.336-.549.843-.546 1.32v9.528c-.003.477.207.984.546 1.32.336.339.843.552 1.323.546h33.435v82.939h-20.361v-7.098c.006-.477-.204-.984-.546-1.32-.336-.339-.843-.552-1.32-.549h-30.45v-17.559h30.45c.477.006.984-.204 1.32-.546.342-.336.552-.843.546-1.32v-8.781c.006-.477-.204-.984-.546-1.32-.336-.339-.843-.552-1.32-.546h-30.636v-16.251h30.822c.477.003.984-.207 1.32-.549.342-.333.552-.843.549-1.32v-8.967c.003-.477-.207-.984-.549-1.32-.336-.342-.843-.552-1.32-.546h-42.034c-.477-.006-.984.204-1.323.546-.339.336-.549.843-.546 1.32v66.126h-2.055-6.51c-6.546 0-13.887 0-14.598 0-.006 0-.051 0-.135-.003l-.537-.03-.453-.291c-.138-.087-.327-.21-.564-.369l-.309-.207-.219-.3c-.126-.177-.297-.417-.48-.693-1.317-1.956-3.762-5.949-6.657-10.791-4.347-7.266-9.732-16.473-14.028-23.859-1.539-2.649-2.94-5.064-4.101-7.071l-1.785-3.084h31.137c.477.003.987-.207 1.32-.549.342-.336.552-.843.549-1.32v-45.199c.003-.477-.207-.987-.549-1.323-.336-.339-.84-.549-1.32-.543h-45.018c-1.02-.006-1.866.834-1.869 1.854l-.549 93.796-2.031.012c-2.976.018-7.308.045-11.697.069-7.864.048-15.913.096-16.561.096-1.008.015-1.923-.378-2.334-.648l-.015-.009-.018-.009c-.279-.177-.456-.33-.582-.447l-.093-.087-28.752-34.737c-.375-.45-.897-.672-1.44-.675-.426 0-.837.135-1.191.429-.45.372-.675.894-.678 1.44.003.414.132.819.411 1.167l28.536 34.473.201.243c.15.177.633.741 1.596 1.353.957.612 2.481 1.245 4.353 1.242h.024c1.335 0 32.119-.186 32.14-.186 1.011-.003 1.857-.846 1.857-1.86l.549-93.784h41.295v41.47l-32.502.003c-.669 0-1.281.351-1.617.933-.168.288-.252.609-.252.933 0 .312.078.621.234.906.006.009.009.012.009.012.003.006.003.006.006.009s.003.009.006.012c.003.006.009.015.015.027.015.024.033.057.06.105.054.09.132.225.234.402.201.351.501.87.879 1.527.759 1.314 1.848 3.195 3.156 5.454 2.619 4.521 6.129 10.56 9.693 16.635s7.179 12.186 10.017 16.857c1.419 2.34 2.643 4.314 3.576 5.76.468.726.858 1.314 1.182 1.767.171.24.306.42.444.588.09.105.144.171.231.264.192.186.135.15.441.372.891.582 1.218.855 1.998 1.218.285.135.762.276 1.092.318.393.06.714.069 1.101.069h25.029c.48.006.984-.204 1.32-.546.342-.336.552-.843.549-1.32v-66.135h38.299v5.232h-30.822c-.477-.003-.984.207-1.321.546-.342.336-.552.843-.549 1.323v19.986c-.003.477.207.987.546 1.32.337.342.847.552 1.324.549h30.633v5.043h-30.447c-.477-.003-.984.207-1.321.546-.339.336-.549.843-.546 1.323v21.294c-.003.477.207.984.55 1.32.333.339.84.549 1.317.546h30.45v7.101c-.006.477.207.984.546 1.32.336.339.84.549 1.32.546h24.099c.477.003.984-.207 1.317-.546.342-.339.552-.843.549-1.32v-86.677c.003-.477-.207-.984-.549-1.32-.333-.339-.84-.549-1.317-.546h-33.438v-5.79h77.152v5.79h-33.997c-.48-.003-.987.207-1.323.546-.339.336-.549.843-.546 1.32v86.677c-.003.477.207.981.546 1.32s.843.549 1.323.546h23.91c.477.003.984-.207 1.32-.546.339-.339.549-.843.546-1.32v-65.568h36.988v31.569h-27.834c-.732 0-1.401.432-1.701 1.101-.111.243-.168.501-.168.765.003.441.156.873.465 1.236h.003v.003c.003.003.009.009.015.015.012.015.033.036.054.063.051.057.123.141.219.249.192.219.474.54.831.951.714.816 1.737 1.983 2.97 3.387 2.463 2.811 5.76 6.57 9.093 10.359 3.336 3.789 6.708 7.611 9.327 10.554 1.308 1.47 2.427 2.721 3.264 3.645.417.459.762.834 1.029 1.119.135.144.249.264.354.375.15.147.132.138.318.3 1.101.957 2.451 1.572 3.63 1.824 1.257.279 2.382.288 3.549.294h41.655c.477.003.984-.207 1.32-.546.342-.336.552-.846.546-1.323v-13.449c.006-.48-.204-.987-.546-1.32-.333-.342-.843-.552-1.32-.549h-19.053v-50.988h50.434v50.997h-19.801c-.477-.003-.984.207-1.32.546-.342.336-.552.843-.549 1.32v13.452c-.003.477.207.984.546 1.32.336.339.843.549 1.323.546h45.766c.477.003.984-.207 1.32-.546.339-.336.549-.846.546-1.32v-94.147h42.03v41.284h-32.688c-.48-.006-.984.204-1.32.546-.342.336-.552.843-.549 1.32v50.622c-.003.477.207.987.549 1.323.333.339.84.549 1.32.546h58.843c.474.003.981-.207 1.317-.549.342-.333.552-.84.549-1.32v-72.849h5.79v72.849c-.003.477.207.987.549 1.323.333.339.84.549 1.32.546h24.096c.477.003.984-.207 1.32-.549.339-.333.549-.84.546-1.32v-65.379h37.734v4.857l-30.075.003c-.477-.006-.984.204-1.32.546-.339.336-.549.843-.546 1.32v20.175c-.003.477.207.987.546 1.32.336.339.843.552 1.32.546h30.822v4.857h-30.072c-.48-.003-.987.207-1.323.549-.339.333-.552.843-.546 1.32v21.294c-.006.477.207.987.546 1.32.336.342.843.552 1.323.549h29.7v6.726c-.006.477.207.984.549 1.32.33.339.84.549 1.317.546h15.243zm-233.048-20.919h14.943c1.587.003 3.102.63 4.227 1.749.768.771 1.302 1.719 1.563 2.751.264-1.032.801-1.983 1.566-2.751 1.125-1.119 2.64-1.746 4.227-1.749l15.691-.003v-42.771h-42.217v42.777zm-61.359-11.829c-.006-.006-.006-.006-.009-.009l-.003-.003-.003-.003c.006.009.009.012.012.015zm-3.655-4.452c1.086-1.71 2.98-2.769 5.044-2.772h23.721v-23.346h-28.765v26.115l-.009.003zm143.282-18.177c.267-.486.603-.936 1.005-1.335 1.125-1.122 2.637-1.749 4.227-1.752h28.578v-33.064h-33.81v36.154zm-311.274-.324c1.11-1.605 2.943-2.577 4.917-2.577h28.392v-33.25h-33.099l-.213 35.827zm133.246-36.322c.018-.021.033-.045.051-.066h-.099c.018.021.033.045.048.066z" fill="#fff"/><path d="m454.422 34.903-13.261-13.263c-.744-.741-1.158-1.755-1.149-2.802.006-1.047.435-2.055 1.188-2.787l13.264-12.888c1.545-1.5 4.014-1.476 5.526.06l12.891 13.077c1.503 1.524 1.503 3.981 0 5.505l-12.891 13.077c-.735.747-1.731 1.164-2.778 1.17h-.012c-1.086-.003-2.094-.414-2.802-1.152zm-4.929-15.996 7.653 7.653 7.401-7.509-7.44-7.545-7.62 7.401z" fill="none"/><path d="m457.188 38.104c-1.584 0-3.108-.63-4.23-1.749l1.455-1.455-1.455 1.452-13.261-13.257c-1.122-1.122-1.752-2.637-1.752-4.221 0-.006 0-.018 0-.039s0-.045.003-.075c.027-1.578.678-3.078 1.809-4.179l13.264-12.891c1.158-1.125 2.67-1.692 4.164-1.689 1.539-.003 3.093.597 4.26 1.779l12.888 13.077c1.143 1.158 1.722 2.688 1.719 4.197.003 1.509-.576 3.036-1.719 4.197l-12.888 13.074c-1.116 1.137-2.646 1.779-4.245 1.782h.039zm0-4.11h.003c.507-.003.972-.198 1.323-.555l12.891-13.077c.36-.369.534-.831.537-1.311 0-.483-.177-.945-.537-1.311l-12.888-13.077c-.372-.375-.843-.555-1.332-.555-.474 0-.933.171-1.299.525l-13.264 12.891c-.357.342-.564.831-.567 1.326v.054c.009.474.207.942.546 1.281l4.671 4.668 8.593 8.592c.372.357.822.549 1.344.549zm-9.154-13.635-1.473-1.476 10.573-10.275 10.293 10.443-10.275 10.425-9.153-9.117zm9.115 3.285 4.527-4.593-4.584-4.65-4.659 4.524 4.746 4.719z" fill="#fff"/></svg>