<svg xmlns="http://www.w3.org/2000/svg"><g fill="#fff"><path d="m48.963 81.496c14.235-21.549 13.914-67.419 13.914-78.72h10.482c-.042 4.35 2.286 48.078-5.097 75.615s-34.944 58.428-68.262 58.428v-19.539c9.798 0 34.734-14.235 48.963-35.784z"/><path d="m76.272 2.776h18.786v134.319h-18.786z"/><path d="m122.361 81.496c-14.235-21.549-13.914-67.419-13.914-78.72h-10.482c.042 4.35-2.286 48.078 5.097 75.615s34.944 58.428 68.262 58.428v-19.539c-9.798 0-34.734-14.235-48.963-35.784z"/><path d="m578.418 3.54h21.582v135.654h-21.582z"/><path d="m237.669.106c-6.798 0-12.6 4.212-14.844 10.233v.111l-38.457 128.751h23.049l8.886-34.971h42.84l9.333 34.971h23.613l-39.468-128.862h-.111c-2.271-5.991-8.043-10.233-14.841-10.233zm-.228 29.574 14.844 56.448h-29.349z"/><path d="m279.609 3.031v18.213h33.507v117.957h21.588v-117.957h33.621v-18.213z"/><path d="m533.49 89.944c-.63-1.074-1.011-2.37-1.011-3.807 0-1.299.33-2.475.84-3.486.801-1.26 2.232-1.974 3.186-2.58 11.238-6.831 19.218-21.192 19.218-37.824 0-22.305-14.04-40.581-31.449-41.991-2.169-.285-7.062-.255-7.062-.255h-24.567.015c-8.52 0-15.45 9.225-15.45 20.592l.033.033v118.557h20.976v-110.094h-.009c0-3.45 2.1-6.264 4.683-6.264h14.154c1.284 0 5.127.096 5.889.24v.012c6.258.684 11.34 6.627 12.816 14.493.081.321.138.639.18.963v.072c.084.483.123.939.165 1.407.078.732.09 1.476.09 2.232 0 7.242-2.994 13.578-7.422 16.866-.9.711-1.827 1.329-2.811 1.863-.693.42-1.5.81-2.346 1.188-5.658 2.661-8.085 4.239-10.449 7.266-2.649 3.699-4.323 8.694-4.368 14.214-.042 5.19 1.311 9.93 3.618 13.602l26.646 41.958h24.957l-30.522-49.26"/><path d="m412.086.106c-6.795 0-12.597 4.212-14.841 10.233v.111l-38.454 128.751h23.049l8.883-34.971h42.84l9.336 34.971h23.61l-39.465-128.862h-.114c-2.268-5.991-8.04-10.233-14.844-10.233zm-.222 29.574 14.841 56.448h-29.346z"/></g></svg>