<svg xmlns="http://www.w3.org/2000/svg"><g fill="#1e1e1e"><path d="m184.671 119.554c-2.073 0-3.766 1.693-3.766 3.765v113.375c0 2.073 1.693 3.752 3.766 3.752h270.673c2.072 0 3.752-1.679 3.752-3.751v-113.375c0-2.073-1.68-3.765-3.753-3.765zm0 .913h270.673c1.58 0 2.839 1.274 2.839 2.853v113.375c0 1.579-1.26 2.838-2.839 2.838h-270.673c-1.58 0-2.853-1.26-2.853-2.839v-113.376c.001-1.579 1.274-2.852 2.853-2.851z" transform="matrix(.965926 -.258819 .258819 .965926 -35.683666 88.955543)"/><path d="m192.958 139.234c-1.291 0-2.339 1.063-2.339 2.354v87.615c0 1.29 1.048 2.354 2.339 2.354l256.74-.001c1.289 0 2.338-1.063 2.338-2.353v-87.615c0-1.291-1.049-2.354-2.338-2.354zm0 .913h256.74c.795 0 1.426.643 1.426 1.441v87.615c0 .797-.631 1.44-1.426 1.44h-256.74c-.797 0-1.427-.643-1.427-1.44v-87.615c0-.797.63-1.441 1.427-1.441z" transform="matrix(.965926 -.258818 .258818 .965926 -37.034826 89.482536)"/><path d="m282.884 192.272c-2.857 0-5.178 2.322-5.178 5.177v18.184c0 2.856 2.321 5.193 5.178 5.193h66.849c2.694 0 4.835-2.104 5.076-4.735h.101v-.456-18.186c0-2.855-2.322-5.176-5.177-5.176zm0 .913h66.849c2.363 0 4.264 1.902 4.264 4.264v17.729.456c0 2.362-1.901 4.279-4.264 4.279h-66.849c-2.362 0-4.264-1.917-4.264-4.28v-18.184c0-2.362 1.901-4.264 4.264-4.264z" transform="matrix(.965926 -.258819 .258819 .965926 -42.680872 88.904485)"/><path d="m282.298 195.338c-1.16 0-2.111.95-2.111 2.11v18.184c0 1.161.951 2.111 2.111 2.111h68.017c1.16 0 2.111-.951 2.111-2.111v-18.184c0-1.16-.951-2.109-2.111-2.109h-68.017zm0 .913h68.017c.667 0 1.198.533 1.198 1.197v18.185c0 .667-.531 1.199-1.198 1.199h-68.017c-.666 0-1.199-.532-1.199-1.199v-18.185c.001-.664.532-1.197 1.199-1.197z" transform="matrix(.965926 -.258819 .258819 .965926 -42.67872 88.903815)"/><path d="m275.14 175.862c-2.334 0-4.236 1.902-4.236 4.236v5.677c0 2.335 1.902 4.221 4.236 4.221h69.673c2.335 0 4.236-1.886 4.236-4.221v-5.677c0-2.334-1.901-4.236-4.236-4.236zm0 .914h69.673c1.842 0 3.324 1.482 3.324 3.322v5.677c0 1.84-1.482 3.308-3.324 3.308h-69.673c-1.84 0-3.323-1.469-3.323-3.308v-5.677c0-1.84 1.483-3.322 3.323-3.322z" transform="matrix(.965926 -.258819 .258819 .965926 -36.783324 86.460997)"/><path d="m270.8 159.66c-2.334 0-4.236 1.903-4.236 4.236v5.678c0 2.333 1.902 4.235 4.236 4.235h69.672c2.335 0 4.237-1.903 4.237-4.235v-5.678c0-2.334-1.902-4.236-4.237-4.236zm0 .913h69.672c1.843 0 3.324 1.484 3.324 3.323v5.678c0 1.84-1.482 3.322-3.324 3.322h-69.672c-1.841 0-3.323-1.482-3.323-3.322l-.001-5.678c0-1.839 1.483-3.323 3.324-3.323z" transform="matrix(.965926 -.258818 .258818 .965926 -32.739674 84.785569)"/><path d="m262.1 143.702v8.501c0 2.333 1.903 4.236 4.237 4.236h69.673c2.335 0 4.236-1.904 4.236-4.236v-8.501h-.912v8.501c0 1.841-1.483 3.323-3.324 3.323h-69.673c-1.84 0-3.324-1.483-3.324-3.323v-8.501z" transform="matrix(.965926 -.258819 .258819 .965926 -28.578875 83.062807)"/><path d="m287.342 224.559c-2.334 0-4.236 1.903-4.236 4.237v3.579h.913v-3.579c0-1.841 1.483-3.323 3.323-3.323h69.673c1.842 0 3.324 1.482 3.324 3.323v3.552h.913v-3.552c0-2.334-1.902-4.237-4.237-4.237z" transform="matrix(.965926 -.258819 .258819 .965926 -48.15362 91.170856)"/><path d="m367.59 173.899c-1.42 0-2.581 1.161-2.581 2.581v25.744c0 1.421 1.161 2.582 2.581 2.582h25.744c1.421 0 2.581-1.161 2.581-2.582v-25.744c0-1.42-1.16-2.581-2.581-2.581zm0 .913h25.744c.927 0 1.668.742 1.668 1.668v25.744c0 .927-.741 1.669-1.668 1.669h-25.744c-.926 0-1.669-.742-1.669-1.669v-25.744c0-.926.743-1.668 1.669-1.668z" transform="matrix(.965926 -.258818 .258818 .965926 -36.044028 104.922444)"/><path d="m380.458 176.738c-6.965 0-12.607 5.657-12.607 12.621s5.642 12.622 12.607 12.622c6.964 0 12.622-5.658 12.622-12.622s-5.658-12.621-12.622-12.621zm0 .912c6.472 0 11.708 5.238 11.708 11.709s-5.236 11.709-11.708 11.709c-6.47 0-11.695-5.238-11.695-11.709s5.224-11.709 11.695-11.709z" transform="matrix(.965926 -.258818 .258818 .965926 -36.045715 104.923589)"/><path d="m402.266 164.607c-1.42 0-2.581 1.161-2.581 2.581v25.744c0 1.421 1.162 2.582 2.581 2.582h25.744c1.421 0 2.582-1.161 2.582-2.582v-25.744c0-1.42-1.161-2.581-2.582-2.581zm0 .913h25.744c.927 0 1.668.743 1.668 1.668v25.744c0 .927-.741 1.669-1.668 1.669h-25.744c-.926 0-1.667-.742-1.667-1.669v-25.744c0-.925.741-1.668 1.667-1.668z" transform="matrix(.965926 -.258818 .258818 .965926 -32.457505 113.5806)"/><path d="m415.144 167.447c-6.964 0-12.622 5.657-12.622 12.622 0 6.964 5.658 12.622 12.622 12.622s12.607-5.658 12.607-12.622-5.643-12.622-12.607-12.622zm0 .913c6.471 0 11.694 5.238 11.694 11.709s-5.223 11.709-11.694 11.709-11.709-5.238-11.709-11.709 5.238-11.709 11.709-11.709z" transform="matrix(.965926 -.258818 .258818 .965926 -32.45978 113.580443)"/><path d="m240.337 139.042v2.924.456h.456 10.711.457v-.456-2.924h-.914v2.467h-9.798v-2.467z" transform="matrix(.965926 -.258818 .258818 .965926 -28.036717 68.503074)"/><path d="m291.882 215.962h-.002v-.455-.457h.002 13.934c2.202-.004 3.987-1.787 3.991-3.992-.004-2.205-1.787-3.986-3.991-3.992h-13.936c-2.204.006-3.987 1.787-3.992 3.992.004 2.205 1.788 3.988 3.992 3.992v.457.455c-2.708 0-4.903-2.194-4.903-4.905 0-2.709 2.195-4.904 4.903-4.904h13.936c2.709 0 4.904 2.195 4.904 4.904 0 2.711-2.197 4.905-4.904 4.905z" transform="matrix(.965926 -.258819 .258819 .965926 -44.442669 84.539266)"/><path d="m326.711 206.629v-.455-.457h13.936c2.203-.004 3.987-1.787 3.991-3.992-.004-2.205-1.788-3.987-3.991-3.992h-13.936c-2.204.005-3.988 1.787-3.992 3.992.004 2.205 1.788 3.988 3.992 3.992v.457.455c-2.708 0-4.904-2.195-4.904-4.905 0-2.709 2.195-4.904 4.904-4.904h13.936c2.707 0 4.903 2.195 4.903 4.904 0 2.71-2.196 4.905-4.903 4.905z" transform="matrix(.965926 -.258818 .258818 .965926 -40.840222 93.235592)"/><path d="m227.875 185.507c-2.594.001-4.706 2.11-4.706 4.705v11.155h-11.155c-2.595 0-4.705 2.112-4.706 4.706v15.989c.001 2.594 2.111 4.704 4.706 4.705h11.154v11.155c.001 2.594 2.112 4.705 4.707 4.706h15.974c2.594-.001 4.706-2.111 4.706-4.706v-11.155h11.168c2.595 0 4.705-2.111 4.705-4.706v-15.988c0-2.595-2.11-4.706-4.705-4.706h-11.167v-11.155c0-2.592-2.115-4.704-4.706-4.704h-15.974zm0 .912h15.974c2.103 0 3.793 1.692 3.794 3.793v11.611.456h.456 11.625c2.102 0 3.793 1.691 3.794 3.793v15.988c-.001 2.103-1.694 3.795-3.794 3.795h-11.625-.456v.456 11.61c-.001 2.102-1.692 3.793-3.794 3.794h-15.974c-2.102-.001-3.793-1.692-3.794-3.794v-11.61-.456h-.456-11.611c-2.102-.001-3.792-1.692-3.793-3.794v-15.989c0-2.102 1.692-3.793 3.793-3.793h11.611.454v-.456-11.611c.002-2.101 1.694-3.793 3.796-3.793zm0 1.912c-1.029.001-1.866.855-1.87 1.881v12.339.027.014c-.004.275-.027.551-.228.9-.164.297-.616.574-.855.628l-.013.014c-.218.056-.399.069-.6.07l-12.295.001c-1.028.002-1.881.84-1.883 1.868v15.989c.002 1.028.855 1.866 1.883 1.868h12.352.014.029c.355 0 .859.151 1.17.499.336.374.414.813.413 1.184v12.308c.003 1.028.854 1.868 1.883 1.869h15.974c1.029-.001 1.881-.841 1.883-1.869v-12.308c-.004-.429.173-.909.484-1.213.314-.312.768-.473 1.185-.471h12.322c1.028-.002 1.866-.84 1.868-1.868v-.013-15.975c-.001-1.029-.84-1.869-1.868-1.87h-12.322c-.283-.002-.556-.031-.9-.212-.282-.143-.609-.56-.685-.828v-.013c-.067-.219-.08-.425-.08-.636v-12.294c-.002-1.029-.856-1.881-1.884-1.881h-15.974zm0 .912h15.974c.535 0 .969.434.97.969v12.296.014c.001.262.029.557.129.884 0 .004-.001.009 0 .015.157.554.56 1.076 1.126 1.368v.014c.003.003.011-.001.015 0 .503.263.985.31 1.312.314h12.322c.536 0 .954.418.955.956v15.976c0 .535-.418.967-.955.968h-12.322c-.65-.003-1.312.249-1.812.742h-.015c-.506.498-.763 1.182-.755 1.854v12.309c-.001.536-.435.956-.97.956h-15.974c-.535 0-.969-.419-.969-.956v-12.309c0-.52-.118-1.212-.642-1.797-.528-.594-1.267-.799-1.855-.799-.011 0-.027-.001-.042 0h-.015-12.338c-.537-.001-.969-.418-.97-.955v-15.989c.001-.536.435-.954.97-.955l12.295-.001c.238 0 .522-.019.828-.099h.014c.531-.123 1.096-.484 1.426-1.084.303-.532.338-1.03.342-1.342v-.014c0-.035 0-.027 0-.027v-12.339c.002-.535.42-.967.956-.969z" transform="matrix(.965926 -.258819 .258819 .965926 -47.367723 68.341272)"/></g></svg>