<svg xmlns="http://www.w3.org/2000/svg"><g fill="#fff"><path d="m489.881 124.271h-379.502c-34.261 0-62.14-27.875-62.14-62.137s27.881-62.134 62.14-62.134h379.498c34.266 0 62.141 27.873 62.141 62.136-.002 34.26-27.873 62.135-62.137 62.135zm-379.502-109.572c-26.157 0-47.441 21.28-47.441 47.44 0 26.155 21.282 47.439 47.441 47.439h379.498c26.154 0 47.442-21.282 47.442-47.439 0-26.159-21.285-47.44-47.442-47.44z"/><path d="m159.119 90.951v-57.354h-17.249v40.103l-25.441-40.103h-18.542v57.354h17.249v-41.397l26.732 41.397z"/><path d="m187.149 90.951v-38.81h-17.247v38.81z"/><path d="m187.149 43.946v-10.349h-17.247v10.349z"/><path d="m247.519 90.951v-26.739c0-5.606-10.781-13.367-16.385-13.367h-5.177c-3.879 0-8.193 3.45-12.074 5.175v-3.879h-17.249v38.81h17.249v-26.739c0-2.588 6.036-5.606 8.626-5.606 2.587 0 7.329 3.018 7.329 5.606v26.737h17.681z"/><path d="m391.841 92.286v-26.736c0-5.607-10.776-13.366-16.391-13.366h-5.171c-3.883 0-8.196 3.45-12.08 5.173v-3.879h-17.245v38.81h17.245v-26.738c0-2.585 6.04-5.607 8.628-5.607 2.586 0 7.327 3.022 7.327 5.607v26.736z"/><path d="m275.549 90.951v-38.81h9.056v-5.175h-9.056v-8.193h-17.676v8.193h-9.057v5.175h9.057v38.81z"/><path d="m308.752 50.847c-13.798 0-25.44 9.486-25.44 21.129 0 12.076 11.642 21.561 25.44 21.561 12.075 0 21.994-6.899 24.581-15.955h-17.677v5.175c0 4.313-3.015 5.61-6.897 5.61-3.881 0-6.47-1.295-6.47-5.61v-10.779h31.914c-.005-11.643-11.217-21.131-25.451-21.131zm0 3.88c3.882 0 6.9 2.588 6.9 6.901v3.878h-13.367v-3.878c0-4.313 2.588-6.901 6.467-6.901z"/><path d="m478.662 50.847c-14.233 0-25.446 9.486-25.446 21.129 0 12.076 11.208 21.561 25.446 21.561 13.792 0 25.439-9.485 25.439-21.561-.007-11.641-11.647-21.129-25.439-21.129zm0 3.88c3.874 0 6.467 2.588 6.467 6.901v21.128c0 4.311-2.593 5.607-6.467 5.607-4.311 0-6.904-1.295-6.904-5.607v-21.128c-.003-4.313 2.588-6.901 6.904-6.901z"/><path d="m429.066 33.597v21.13s-5.179-3.88-12.079-3.88c-10.779 0-19.833 9.486-19.833 19.836 0 10.782 9.057 21.563 19.833 21.563 6.9 0 12.079-2.588 12.079-2.588v1.291h17.25v-57.352zm-6.47 23.718c3.879 0 6.47 3.02 6.47 6.9v15.955c0 3.882-2.591 5.175-6.47 5.175-4.309 0-6.9-1.291-6.9-5.175v-15.955c0-3.88 2.591-6.9 6.9-6.9z"/><path d="m91.418 175.035v-25.013c0-4.741-4.743-9.488-9.486-9.488h-36.222v34.501h11.213v-23.282c0-1.727 1.291-3.452 3.018-3.452h17.246c1.727 0 3.452 1.727 3.452 3.452v23.282z"/><path d="m390.652 175.035v-25.013c0-4.741-4.742-9.488-9.483-9.488h-36.224v34.501h11.208v-23.282c0-1.727 1.298-3.452 3.022-3.452h17.249c1.727 0 3.445 1.727 3.445 3.452v23.282z"/><path d="m554.445 175.035v-25.013c0-4.741-4.741-9.488-9.488-9.488h-36.222v34.501h11.208v-23.282c0-1.727 1.291-3.452 3.023-3.452h17.244c1.727 0 3.449 1.727 3.449 3.452v23.282z"/><path d="m456.663 175.035v-25.013c0-4.741-4.742-9.488-9.488-9.488h-48.728v34.501h11.213v-23.282c0-1.727 1.289-3.452 3.014-3.452h6.47c1.295 0 3.02 1.727 3.02 3.452v23.282h11.215v-23.282c0-1.727 1.289-3.452 3.015-3.452h6.47c1.293 0 3.018 1.727 3.018 3.452v23.282z"/><path d="m37.949 175.035h-28.461c-4.741 0-9.488-3.017-9.488-7.758v-27.164h37.947v8.193h-25.443c-1.291 0-3.018 1.295-3.018 3.02 0 1.727 1.727 3.02 3.018 3.02h23.718v6.898h-23.718c-1.291 0-3.018 1.727-3.018 3.02 0 1.727 1.727 3.449 3.018 3.449h25.443z"/><path d="m178.118 175.47h-28.462c-4.742 0-9.489-3.018-9.489-7.757v-27.17h37.951v8.194h-25.446c-1.29 0-3.016 1.294-3.016 3.023s1.726 3.018 3.016 3.018h23.717v6.897h-23.717c-1.29 0-3.016 1.727-3.016 3.023 0 1.727 1.726 3.447 3.016 3.447h25.446z"/><path d="m502.551 175.035h-28.464c-4.742 0-9.492-3.018-9.492-7.758v-27.164h37.952v8.193h-25.442c-1.292 0-3.024 1.295-3.024 3.02 0 1.727 1.727 3.02 3.024 3.02h23.712v6.898h-23.712c-1.292 0-3.024 1.727-3.024 3.02 0 1.727 1.727 3.449 3.024 3.449h25.442v7.327h.004z"/><path d="m96.163 140.54v7.761h11.21c3.02 0 3.02 0 3.02 3.452v23.282h10.779v-23.282c0-3.452 0-3.452 3.45-3.452h10.779v-7.761z"/><path d="m233.184 140.54v7.761h11.21c3.016 0 3.016 0 3.016 3.452v23.282h10.781v-23.282c0-3.452 0-3.452 3.452-3.452h10.781v-7.761z"/><path d="m560.763 140.54v7.761h11.21c3.022 0 3.022 0 3.022 3.452v23.282h10.777v-23.282c0-3.452 0-3.452 3.449-3.452h10.779v-7.761z"/><path d="m185.856 140.54v34.5h11.212v-6.033c0-1.726 1.293-3.455 3.018-3.455h14.231c1.727 0 3.018 1.727 3.018 3.455v6.033h9.488v-9.488c0-1.289-1.291-3.015-1.291-4.741 0-1.29 3.018-4.308 3.018-7.756v-3.022c0-3.022-4.743-9.49-7.761-9.49zm14.23 7.761h14.231c1.727 0 3.016 1.727 3.016 3.452v3.016c0 1.727-1.291 3.022-3.016 3.022h-14.231c-1.725 0-3.018-1.293-3.018-3.022v-3.016c.002-1.722 1.293-3.452 3.018-3.452z"/><path d="m285.038 140.54c-3.02 0-7.76 6.468-7.76 9.491v25.009h11.208v-9.488h20.266v9.488h11.209v-25.009c0-3.023-4.741-9.491-8.193-9.491zm6.468 7.761h14.228c1.289 0 3.018 1.727 3.018 3.452v6.036h-20.266v-6.036c0-1.722 1.295-3.452 3.02-3.452z"/><path d="m338.507 175.035v-34.499h-10.777v34.501h10.777z"/><path d="m442.495 222.29v-25.012c0-4.742-4.743-9.488-9.492-9.488h-48.724v34.5h11.208v-23.285c0-1.727 1.291-3.452 3.016-3.452h6.468c1.295 0 3.024 1.726 3.024 3.452v23.281h11.207v-23.281c0-1.727 1.29-3.452 3.015-3.452h6.47c1.293 0 3.025 1.726 3.025 3.452v23.281h10.779z"/><path d="m376.558 222.29h-28.462c-4.742 0-9.485-3.022-9.485-7.758v-27.169h37.944v8.195h-25.44c-1.291 0-3.019 1.293-3.019 3.018 0 1.727 1.727 3.02 3.019 3.02h23.715v6.898h-23.715c-1.291 0-3.019 1.727-3.019 3.022 0 1.727 1.727 3.447 3.019 3.447h25.44z"/><path d="m294.603 187.79v7.757h11.21c3.018 0 3.018 0 3.018 3.452v23.282h10.779v-23.282c0-3.452 0-3.452 3.456-3.452h10.775v-7.757z"/><path d="m166.885 187.971c-3.019 0-9.488 4.745-9.488 7.758v4.747c0 3.019 6.469 7.761 9.488 7.761h18.973c1.725 0 3.45 1.727 3.45 3.018 0 1.723-1.727 3.447-3.45 3.447h-28.461v7.759h31.91c3.019 0 9.055-4.741 9.055-7.759v-4.742c0-3.452-6.036-8.195-9.055-8.195h-18.973c-1.727 0-3.449-1.293-3.449-3.022 0-1.725 1.724-3.021 3.449-3.021h28.028v-7.756h-31.477z"/><path d="m258.231 187.971c-3.021 0-9.489 4.745-9.489 7.758v4.747c0 3.019 6.468 7.761 9.489 7.761h18.973c1.725 0 3.45 1.727 3.45 3.018 0 1.723-1.727 3.447-3.45 3.447h-28.462v7.759h31.91c3.02 0 9.056-4.741 9.056-7.759v-4.742c0-3.452-6.036-8.195-9.056-8.195h-18.974c-1.725 0-3.448-1.293-3.448-3.022 0-1.725 1.725-3.021 3.448-3.021h28.03v-7.756h-31.477z"/><path d="m201.813 187.971v15.53c0 3.016 4.741 7.759 7.761 7.759h7.758v11.208h11.213v-11.208h7.761c3.016 0 7.761-4.743 7.761-7.759v-15.53h-10.781v12.51c0 1.291-1.725 3.02-3.45 3.02h-13.797c-1.727 0-3.451-1.727-3.451-3.02v-12.51z"/></g></svg>