<svg xmlns="http://www.w3.org/2000/svg"><g fill="#fff"><path d="m5.128 147.789v-8.262l21.689-.31c17.969-.206 21.893-.62 22.72-1.859.826-1.343-.516-1.653-9.605-2.169-6.3-.413-12.393-1.446-15.181-2.479-10.328-4.131-18.073-11.36-22.514-20.964-2.272-5.061-2.479-6.507-2.066-17.041.31-9.192.826-12.393 2.582-15.801 3.718-7.023 11.257-14.459 18.073-17.868l6.3-3.201h21.068 21.069l-.31 41.104c-.31 45.029-.207 43.996-6.919 51.122-5.267 5.68-6.301 5.886-32.636 5.886h-24.27zm46.475-51.742v-21.688h-8.056c-10.534 0-15.905 2.582-20.346 9.709-6.815 11.153-2.169 28.09 8.779 32.532 1.446.516 6.403 1.032 11.154 1.032l8.469.103z"/><path d="m322.806 139.836c-.929-.825-1.653-1.962-1.653-2.478 0-1.24 2.996-4.132 4.235-4.132.516 0 .207-1.445-.723-3.304-3.201-6.3.104-13.84 7.643-17.041 1.962-.826 4.338-1.135 5.37-.826 1.032.31 3.718-.309 5.99-1.446 6.713-3.408 12.29-3.305 13.22.31.722 2.892-1.447 7.332-5.164 10.844-1.446 1.446-2.685 3.408-2.685 4.44 0 6.198-6.507 11.465-13.53 11.052-3.201-.31-4.338.103-5.68 1.962-1.859 2.685-4.751 2.892-7.023.619zm30.363-26.955c0-1.653-.309-1.653-5.267-.206l-3.924 1.239 2.272 2.892 2.272 2.892 2.272-2.789c1.343-1.549 2.375-3.408 2.375-4.028z"/><path d="m93.636 133.847c-10.121-3.615-15.698-11.98-14.975-22.411.62-8.056 4.441-13.736 12.083-17.661 5.267-2.789 6.094-2.892 20.863-2.892h15.388v-5.783c0-10.121 1.032-9.708-23.754-9.708h-21.688v-8.778-8.779h23.753c26.13 0 26.852.103 32.635 6.403 6.611 6.919 6.611 7.022 6.611 40.588v30.466h-23.445c-16.936-.103-24.682-.516-27.471-1.445zm33.359-20.243v-6.196h-14.872c-12.393 0-15.079.309-16.215 1.652-2.272 2.686-2.169 6.403.103 8.675 1.859 1.859 3.409 2.066 16.525 2.066h14.459z"/><path d="m156.945 96.564v-38.729h39.761c32.842 0 40.381.31 42.757 1.446 4.233 2.272 9.087 8.262 10.327 12.703.723 2.375 1.136 16.111 1.136 33.668v29.64h-9.295-9.295v-29.95c0-23.134-.309-29.95-1.24-30.157-.722-.103-5.37-.206-10.327-.206l-9.088-.103v30.259 30.157h-8.779-8.778v-30.466-30.467h-9.811-9.811v30.467 30.466h-8.779-8.778z"/><path d="m286.246 132.917c-17.867-6.3-27.988-21.171-26.851-39.452.929-13.735 9.294-26.335 21.79-32.532 6.094-2.995 6.507-3.098 22.102-3.098h15.802v8.262 8.262h-11.155c-6.093 0-12.703.413-14.562 1.033-3.924 1.136-8.778 5.267-10.74 9.295l-1.343 2.582h18.693 18.59l.31 8.571.31 8.47h-19.313-19.21l2.582 4.44c4.132 7.126 8.986 8.985 23.651 8.985h12.187v8.779 8.778h-13.117c-10.947-.103-14.355-.516-19.726-2.375z"/><path d="m384.05 132.917c-27.678-9.399-35.735-42.653-15.493-64.031 2.893-2.996 7.436-6.61 10.121-8.056 4.545-2.272 6.301-2.479 21.792-2.789l16.731-.309v8.261 8.366h-11.154c-12.91 0-17.04.93-21.172 4.855-5.06 4.957-6.3 8.261-6.3 17.453 0 9.398 2.066 13.942 7.953 18.177 2.995 2.169 4.75 2.375 17.04 2.685l13.633.413v8.675 8.675h-13.116c-10.948 0-14.356-.413-20.035-2.375z"/><path d="m450.146 133.433c-15.698-5.267-26.129-18.176-27.472-34.081-1.343-16.111 7.953-32.119 22.824-39.038 4.441-2.066 6.92-2.479 15.388-2.479 8.779 0 10.948.31 15.802 2.685 15.492 7.333 24.683 24.993 21.997 41.93-3.614 22.411-27.781 37.799-48.539 30.983zm16.937-17.144c12.084-5.061 15.079-26.438 5.164-36.353-8.985-9.089-22.308-5.37-27.678 7.539-6.816 16.214 7.849 35.114 22.514 28.814z"/><path d="m507.051 96.564v-38.729h40.381c39.246 0 40.588.103 43.892 2.169 1.963 1.135 4.648 4.131 6.094 6.507l2.582 4.44v32.119 32.222h-8.262-8.263v-29.331c0-22.411-.309-29.639-1.239-30.259-.722-.413-5.37-.826-10.327-.826h-9.089v30.259 30.157h-9.295-9.397l.309-30.466.31-30.467h-9.811-9.811l.309 30.467.31 30.466h-9.398-9.295z"/><path d="m51.603 38.006c0-15.079-.103-15.595-1.859-13.942-2.479 2.272-5.68 2.168-7.746-.103-2.272-2.479-2.272-5.164 0-7.643 1.549-1.756 1.549-1.859 0-1.859-1.446 0-1.756-1.24-1.756-7.229v-7.23h20.139 20.139v7.23c0 6.506-.207 7.229-2.066 7.229-2.065 0-2.065 0 .103 2.169 1.447 1.445 1.86 2.788 1.447 4.337-1.55 5.06-7.54 6.507-10.225 2.582-1.549-2.168-1.652-1.033-1.652 13.943v16.213h-8.262-8.262zm18.486-21.688c1.24-1.549 1.136-1.859-.31-1.859-1.033 0-1.652.826-1.652 2.272 0 1.239.103 1.962.309 1.755.104-.206.93-1.238 1.653-2.168zm-18.486-.31c0-.826-.724-1.549-1.55-1.549-1.343 0-1.446.31-.309 1.549 1.653 1.859 1.859 1.859 1.859 0z"/><path d="m83.618 26.852v-26.852h8.263 8.261l-.206 26.646-.31 26.541-7.952.31-8.056.311z"/><path d="m117.699 52.361c-5.06-1.652-12.702-9.604-14.252-14.768-1.858-6.404-1.549-17.041.724-22.308 2.272-5.37 7.126-10.431 12.599-13.219 3.408-1.859 6.093-2.066 21.068-2.066h17.041v7.23 7.229h-13.839c-12.6 0-14.045.207-17.247 2.376-4.028 2.685-6.094 6.196-6.094 10.534 0 7.332 5.784 11.877 15.079 11.877 5.06 0 5.267-.104 4.751-2.582-.413-2.376-.93-2.582-5.99-2.582h-5.578v-7.746-7.746h14.459 14.459v17.557 17.556l-16.731-.103c-9.294-.103-18.486-.619-20.449-1.239z"/><path d="m163.038 51.536c-2.066-1.24-4.442-3.512-5.371-5.061-3.201-5.268-1.756-14.769 2.789-18.487 1.446-1.136 1.343-1.652-.62-4.338-1.549-1.961-2.375-4.957-2.685-9.191-.413-6.094-.413-6.3 3.718-10.327l4.131-4.132h16.628 16.627v7.23 7.229h-10.844c-9.089 0-11.05.31-11.567 1.652-1.033 2.686 1.756 3.512 12.393 3.512h10.018v7.746 7.745h-11.463c-10.328 0-11.361.207-11.052 1.859.31 1.549 2.273 1.755 21.792 2.066l21.379.207v7.229 7.228h-26.026c-24.58 0-26.335-.206-29.847-2.167z"/><path d="m227.998 44.203-.309-9.605-3.305-.31-3.409-.309v-7.747-7.642h5.164c4.441 0 5.164-.31 5.164-2.065 0-1.859-.723-2.066-6.196-2.066h-6.196v11.36 11.361h-8.779-8.778v-18.59-18.59h17.66c16.007 0 18.073.207 21.481 2.169 5.06 2.892 7.539 6.506 8.158 11.877.621 5.68-.206 8.778-3.304 12.497-2.169 2.582-2.272 3.201-1.032 4.957.825 1.032 1.445 3.201 1.445 4.854v2.892h36.973c42.447 0 41.827.103 39.452-7.23-1.653-4.957-.826-7.023 3.511-9.089 2.169-1.032 3.512-1.135 6.3-.206 5.061 1.653 8.055 6.404 8.572 13.322.516 7.023-2.169 11.671-8.572 15.286-4.131 2.374-4.235 2.374-53.911 2.374h-49.779z"/><path d="m343.978 51.018c-1.239-1.548-2.169-3.614-2.169-4.749 0-2.479 4.545-7.023 7.022-7.023 3.409 0 7.436 3.923 7.436 7.332 0 6.713-8.262 9.604-12.289 4.44z"/></g></svg>