<svg xmlns="http://www.w3.org/2000/svg"><g fill="#fff"><path d="m552.813 65.277-4.485 18.48-4.14-20.463-55.452-12.207.39 30.834 8.355 1.872-.603 5.562c-.108-.042-.174-.108-.234-.156-10.359-5.466-23.202-6.024-35.289-1.461-4.053 1.551-7.818 3.591-11.232 6.069l-8.364-52.806h-36.879l-1.014 6.072h-38.814l-4.434 27.147-3.219-3.978c-9.405-11.553-23.04-17.919-38.145-18.234l32.955-17.715-22.98-34.293-41.52 47.841 7.167 8.739c-6.492 2.652-12.162 6.309-16.86 10.728l-35.601-31.584-12.447 23.856.48-22.926-55.659 17.781 1.428 29.901 9.468-2.457 1.401 15.156c-10.821-4.86-23.826-4.74-35.886.357-3.576 1.557-6.906 3.471-9.978 5.697 2.085-9.231 1.593-18.333-1.926-26.451-4.155-9.591-11.466-17.517-20.427-22.518-6.285-4.185-13.773-6.795-21.612-7.68-19.257-3.369-42.384.09-65.145 9.786-8.37 3.57-16.173 7.62-23.214 12.105l-8.898 5.643 5.373 9.072 16.677 28.185s5.103 8.637 5.136 8.631l9.018-4.431 1.257-.579 41.439 92.484 3.996 8.889 9.252-2.982 22.422-7.182 9.825-3.12-2.592-10.002-11.907-45.711c3.423-2.535 6.621-5.226 9.573-8.04-.666 5.463-.318 10.992 1.188 16.284 3.111 11.082 10.368 19.833 20.439 24.684 10.875 5.226 24.144 5.241 36.42.033 6.159-2.61 11.634-6.423 16.272-10.959l1.692 18.204 39.264-5.781-.063-35.205 82.044 40.548v-39.261c3.291-.276 6.651-.795 10.029-1.626 9.036-2.181 16.77-5.175 23.64-9.291l-3.447 21.084 44.235 6.963 2.427-15.918 11.556 21.342 7.062-13.608 2.58 22.344 50.154 8.841-2.661-16.872c6.867.777 14.103-.144 21.093-2.781 1.656-.612 3.288-1.359 4.854-2.157l-1.998 17.952 33.378 4.71.249 13.689 34.806 10.926 45.318-136.587zm-195.963 20.298 2.298-2.448-2.778 17.223-7.251-6.531zm-29.394-70.347 12.153 16.509-34.743 17.223-2.4-3.648zm-230.046 127.29 13.86 53.184-22.434 7.164-46.035-102.807c-2.502 1.317-7.128 3.525-11.373 5.607l-16.671-28.161c6.63-4.233 13.899-7.983 21.633-11.253 21.702-9.228 42.408-11.982 58.968-9.057 5.859.66 12.063 2.388 17.496 5.991 7.452 4.2 13.152 10.173 16.44 17.781 8.019 18.528-5.376 45.192-31.884 61.551zm103.14-9.465c-.258 7.92-3.168 15.852-8.034 22.566-4.632 6.489-11.1 11.847-18.711 15.123-19.464 8.247-38.925 0-44.124-18.477-5.037-17.865 6.681-39.135 25.539-47.259 12.045-5.085 24.129-3.879 32.784 2.004 5.346 3.624 9.423 9.078 11.328 15.909.24.726.396 1.488.558 2.232.543 2.604.762 5.271.66 7.902zm105.894 37.599-81.408-40.713.147 42.657-21.06 2.874-1.467-17.586c6.501-11.148 8.88-24.288 5.487-36.333-1.863-6.624-5.304-12.372-9.981-16.977l-3.021-35.853-9.456 2.451-.417-9.063 33.816-10.071 2.073 34.878 24.915-35.001 24.354 23.193-34.059 35.883 31.998 12.657c3.573 6.774 9.027 12.528 15.867 16.767 6.615 4.083 14.19 6.498 22.206 7.29zm-42.27-58.986-11.322-4.371 10.554-10.257c-.45 4.707-.219 9.633.768 14.628zm88.59 10.665c-7.812 6.462-16.716 10.674-28.482 13.518-2.571.588-5.091 1.017-7.557 1.236-18.675 1.833-34.341-6.741-40.287-20.649-.741-1.686-1.311-3.39-1.743-5.208-2.751-11.715-.402-22.185 5.385-30.387 1.668-2.394 3.645-4.575 5.865-6.537 5.451-4.866 12.411-8.4 20.322-10.302 17.79-4.29 33.456 1.14 43.062 12.927l-33.9 36.081c2.298.435 5.955-.168 8.652-.813 8.073-1.971 12.591-6.255 16.572-10.926l13.548 12.189 4.104 3.708c-1.779 1.839-3.648 3.576-5.541 5.163zm71.919 48.153-7.374-48.849-10.428 26.949-15.615-33.681h-.177l-6.171 39.003-26.025-4.53 3.66-21.765c.981-.921 1.947-1.848 2.898-2.826l8.436-8.685-8.199-7.344 8.712-51.831h26.256l6.573 35.88 7.365-41.583h18.783l7.794 50.661c-9.918 11.298-14.736 26.487-11.421 40.383 2.562 10.77 9.183 19.446 18.672 24.513.954.48 1.944.957 2.964 1.368l.993 6.567zm64.854-15.915c-2.868 2.043-6.027 3.78-9.423 5.031-6.702 2.553-13.371 3.084-19.311 1.905-4.14-.819-7.917-2.433-11.202-4.77-5.223-3.78-9.072-9.36-10.767-16.368-1.977-8.421-.156-17.412 4.374-25.287 2.259-3.849 5.154-7.467 8.583-10.584 3.822-3.426 8.253-6.234 13.185-8.13 11.475-4.281 22.794-2.805 30.762 2.925 2.931 2.076 5.364 4.719 7.281 7.794 1.452 2.427 2.583 5.103 3.267 8.022 2.439 10.113-.465 20.94-6.846 29.664-2.73 3.72-6.06 7.062-9.903 9.798zm58.602 46.041-19.245-5.733-1.677-70.953-9.678 54.735-20.997-3.351 1.503-15.759c13.71-11.586 20.979-29.859 16.995-46.422-1.749-7.332-5.52-13.716-10.836-18.573l1.773-18.585-7.938-2.112.531-9.924 36.171 7.269 12.165 57.678 12.474-51.711 27.519 6.081z"/><path d="m489.996 109.038c.216.855.327 1.704.3 2.604-.237 5.388-5.301 9.546-11.337 9.264-6.033-.207-10.773-4.788-10.536-10.161.204-5.037 4.692-9.024 10.236-9.279-1.053-.237-2.154-.363-3.3-.402-10.098-.435-18.354 6.717-18.702 15.621-.387 9.525 7.245 17.289 17.184 17.721 10.113.402 18.363-6.774 18.765-16.251.117-3.288-.852-6.438-2.61-9.117"/><path d="m183.621 119.916c0 5.409-4.92 9.744-10.944 9.744-6.042 0-10.944-4.338-10.944-9.744 0-5.043 4.311-9.201 9.84-9.681-1.059-.195-2.163-.306-3.3-.306-10.095 0-18.063 7.491-18.063 16.407 0 9.519 7.968 16.983 17.901 16.983 10.107 0 18.063-7.47 18.063-16.983 0-3.291-1.086-6.396-2.958-8.952.252.771.405 1.623.405 2.532"/></g><path d="m335.766 106.185c-.15.135-.288.3-.405.471.156-.141.306-.264.468-.399z" fill="#7d7f68"/><path d="m252.852 107.295.117.048z" fill="#7d7f68"/><path d="m318.657 83.649c0 5.412-4.92 9.744-10.947 9.744-6.042 0-10.941-4.335-10.941-9.744 0-5.04 4.311-9.198 9.837-9.681-1.059-.192-2.16-.303-3.3-.303-10.095 0-18.06 7.488-18.06 16.41 0 9.516 7.968 16.98 17.898 16.98 10.107 0 18.066-7.47 18.066-16.98 0-3.297-1.089-6.402-2.961-8.958.255.771.408 1.626.408 2.532" fill="#fff"/><path d="m107.247 92.526c0 5.409-4.92 9.744-10.947 9.744-6.042 0-10.944-4.338-10.944-9.744 0-5.043 4.314-9.198 9.84-9.681-1.059-.192-2.16-.303-3.3-.303-10.095 0-18.06 7.488-18.06 16.407 0 9.516 7.968 16.983 17.898 16.983 10.107 0 18.066-7.47 18.066-16.983 0-3.294-1.089-6.399-2.961-8.955.252.771.408 1.623.408 2.532" fill="#fff"/></svg>