<svg preserveAspectRatio="none" xmlns="http://www.w3.org/2000/svg"><g fill="#1e1e1e"><path d="m523.694 131.024c-2.168 0-3.945 1.757-3.945 3.924v269.551c0 2.166 1.777 3.924 3.944 3.924h115.95c1.946 0 3.494-1.438 3.808-3.295h.137v-.629-269.551c0-2.167-1.779-3.925-3.945-3.925h-115.949zm0 1.256h115.949c1.486 0 2.689 1.18 2.689 2.668v268.923.628c0 1.487-1.2 2.669-2.689 2.669h-115.95c-1.487 0-2.687-1.181-2.687-2.669v-269.551c0-1.488 1.2-2.668 2.688-2.668z" transform="matrix(.965926 -.258819 .258819 .965926 -49.989571 159.737435)"/><path d="m529.041 164.712c-7.648 0-13.853 6.224-13.853 13.873v107.945c0 7.646 6.205 13.872 13.853 13.872h85.34c7.646 0 13.852-6.225 13.852-13.872v-.628-107.317c0-7.647-6.206-13.873-13.852-13.873zm0 1.255h85.34c6.968 0 12.597 5.649 12.597 12.617v107.945c0 6.969-5.629 12.616-12.597 12.616h-85.34c-6.971 0-12.598-5.648-12.598-12.616v-107.944c0-6.969 5.629-12.618 12.598-12.618z" transform="matrix(.965926 -.258819 .258819 .965926 -40.709619 155.8937)"/><path d="m534.383 172.771c-4.571 0-8.282 3.73-8.282 8.301v99.939c0 4.57 3.711 8.299 8.282 8.299h73.836c4.569 0 8.281-3.729 8.281-8.299v-99.939c0-4.571-3.71-8.301-8.281-8.301zm0 1.257h73.836c3.892 0 7.025 3.152 7.025 7.045v99.938c0 3.893-3.133 7.044-7.025 7.044h-73.836c-3.891 0-7.026-3.15-7.026-7.044v-99.939c0-3.892 3.133-7.044 7.026-7.044z" transform="matrix(.965926 -.258819 .258819 .965926 -40.331083 155.735932)"/><path d="m601.958 300.732c-24.668 0-44.68 20.011-44.68 44.68s20.01 44.681 44.68 44.681 44.68-20.012 44.68-44.681-20.01-44.68-44.68-44.68zm0 1.257c23.99 0 43.425 19.433 43.425 43.423 0 23.991-19.435 43.424-43.425 43.424s-43.424-19.433-43.424-43.424c0-23.99 19.434-43.423 43.424-43.423z" transform="matrix(.965926 -.258819 .258819 .965926 -68.888095 167.567797)"/><path d="m602.091 313.237c-18.034 0-32.671 14.639-32.671 32.672s14.637 32.671 32.671 32.671 32.651-14.638 32.651-32.671c0-18.034-14.617-32.672-32.651-32.672zm0 1.257c17.354 0 31.396 14.06 31.396 31.415 0 17.353-14.041 31.415-31.396 31.415-17.356 0-31.416-14.062-31.416-31.415.003-17.356 14.063-31.415 31.418-31.415z" transform="matrix(.965926 -.258819 .258819 .965926 -69.012205 167.61622)"/><path d="m495.768 133.252c-.725 0-1.334.59-1.334 1.315v1.726h1.256v-1.726c0-.044.034-.059.078-.059h99.506c.044 0 .078.015.078.059v1.824h1.256v-1.824c.008-.725-.602-1.315-1.33-1.315h-99.501z" transform="matrix(.965926 -.258819 .258819 .965926 -16.306197 145.784992)"/><g transform="matrix(.843957 -.226138 .226138 .843957 287.962158 187.537231)"><g><path d="m258.635 99.395c-2.16 0-3.908-1.75-3.908-3.908v-19.129c0-2.158 1.748-3.906 3.908-3.906h20.327c2.158 0 3.909 1.748 3.909 3.906v19.13h-.002c-.001 2.157-1.749 3.904-3.906 3.906h-20.328zm-2.47-23.037v19.128c.002 1.364 1.106 2.468 2.47 2.47h20.327c1.362-.002 2.468-1.106 2.47-2.47v-19.128c-.002-1.362-1.108-2.468-2.47-2.47h-20.327c-1.364.002-2.468 1.106-2.47 2.47zm25.318 19.395.662-.265z"/><path d="m268.809 75.374c-5.818 0-10.555 4.737-10.555 10.556s4.737 10.556 10.555 10.556 10.533-4.737 10.533-10.556c0-5.818-4.715-10.556-10.533-10.556zm0 1.438c5.042 0 9.095 4.077 9.095 9.118s-4.054 9.118-9.095 9.118-9.118-4.077-9.118-9.118 4.077-9.118 9.118-9.118z"/><path d="m290.19 99.395c-2.158 0-3.907-1.749-3.907-3.907v-19.129c0-2.158 1.749-3.907 3.907-3.907h20.329c2.156 0 3.906 1.749 3.906 3.907v20.665l-.238-.199c-.547 1.5-1.985 2.57-3.671 2.57zm-2.469-23.036v19.128c.002 1.364 1.106 2.467 2.469 2.47h20.326c1.362-.002 2.466-1.106 2.47-2.47v-1.532l.002.001v-17.597c-.002-1.365-1.105-2.469-2.469-2.472h-20.329c-1.363.003-2.467 1.107-2.469 2.472zm25.523 19.681.46-.55z"/><path d="m300.363 75.374c-5.819 0-10.556 4.737-10.556 10.556s4.737 10.556 10.556 10.556c5.817 0 10.532-4.737 10.532-10.556.001-5.818-4.714-10.556-10.532-10.556zm0 1.438c5.041 0 9.096 4.077 9.096 9.118s-4.056 9.118-9.096 9.118c-5.042 0-9.118-4.077-9.118-9.118s4.076-9.118 9.118-9.118z"/><path d="m321.744 99.395c-2.156 0-3.905-1.749-3.905-3.908v-19.127c0-2.159 1.747-3.908 3.905-3.908h20.328c2.156 0 3.908 1.749 3.908 3.908v19.127.002c-.002 2.158-1.752 3.906-3.908 3.906zm-2.471-23.035v19.127c.004 1.365 1.108 2.469 2.471 2.471h20.328c1.362-.002 2.467-1.106 2.471-2.471v-19.127c-.004-1.365-1.108-2.469-2.471-2.471h-20.328c-1.364.002-2.467 1.106-2.471 2.471z"/><path d="m331.915 75.374c-5.817 0-10.555 4.737-10.555 10.556s4.737 10.556 10.555 10.556 10.533-4.737 10.533-10.556c0-5.818-4.715-10.556-10.533-10.556zm0 1.438c5.042 0 9.097 4.077 9.097 9.118s-4.055 9.118-9.097 9.118c-5.041 0-9.117-4.077-9.117-9.118s4.076-9.118 9.117-9.118z"/></g><g><path d="m258.635 130.44c-2.16 0-3.908-1.748-3.908-3.907v-19.13c0-2.159 1.75-3.909 3.908-3.909h20.327c2.158.002 3.909 1.748 3.909 3.909v20.868l-.282-.282c-.577 1.437-1.982 2.451-3.626 2.451zm-2.47-23.037v19.13c.002 1.365 1.106 2.468 2.47 2.471h20.327c1.362-.002 2.468-1.106 2.47-2.471v-19.13c-.002-1.365-1.108-2.468-2.47-2.47h-20.327c-1.366.002-2.468 1.106-2.47 2.47zm25.477 19.639.509-.509z"/><path d="m268.809 106.411c-5.818 0-10.555 4.737-10.555 10.556s4.737 10.556 10.555 10.556 10.533-4.737 10.533-10.556c0-5.818-4.715-10.556-10.533-10.556zm0 1.438c5.042 0 9.095 4.077 9.095 9.118s-4.054 9.119-9.095 9.119-9.118-4.077-9.118-9.119c0-5.041 4.077-9.118 9.118-9.118z"/><path d="m290.19 130.441c-2.158 0-3.907-1.75-3.907-3.907v-19.132c0-2.159 1.749-3.907 3.907-3.907h20.329c2.156 0 3.906 1.749 3.906 3.907v20.129l-.122-.041c-.426 1.695-1.962 2.949-3.787 2.951zm-2.469-23.039v19.132c.002 1.363 1.106 2.467 2.469 2.469h20.326c1.362-.002 2.466-1.106 2.47-2.469v-.997h.002v-18.136c-.002-1.363-1.105-2.467-2.469-2.469h-20.329c-1.363.003-2.467 1.107-2.469 2.47zm25.756 19.812.229-.679z"/><path d="m300.363 106.411c-5.819 0-10.556 4.737-10.556 10.556s4.737 10.556 10.556 10.556c5.817 0 10.532-4.737 10.532-10.556.001-5.818-4.714-10.556-10.532-10.556zm0 1.438c5.041 0 9.096 4.077 9.096 9.118s-4.056 9.119-9.096 9.119c-5.042 0-9.118-4.077-9.118-9.119 0-5.041 4.076-9.118 9.118-9.118z"/><path d="m321.744 130.441c-2.156 0-3.905-1.749-3.905-3.908v-19.131c0-2.159 1.747-3.908 3.905-3.908h20.328c2.156.002 3.908 1.749 3.908 3.908v19.131.002c-.002 2.158-1.752 3.906-3.908 3.906zm-2.471-23.039v19.131c.004 1.365 1.108 2.469 2.471 2.471h20.328c1.362-.002 2.467-1.106 2.471-2.471v-19.131c-.004-1.363-1.108-2.467-2.471-2.471h-20.328c-1.364.005-2.467 1.107-2.471 2.471z"/><path d="m331.915 106.411c-5.817 0-10.555 4.737-10.555 10.556s4.737 10.556 10.555 10.556 10.533-4.737 10.533-10.556c0-5.818-4.715-10.556-10.533-10.556zm0 1.438c5.042 0 9.097 4.077 9.097 9.118s-4.055 9.119-9.097 9.119c-5.041 0-9.117-4.077-9.117-9.119 0-5.041 4.076-9.118 9.117-9.118z"/></g><g><path d="m257.778 161.486c-2.159 0-3.908-1.749-3.908-3.906v-19.132c0-2.157 1.749-3.906 3.908-3.906h20.327c2.159 0 3.908 1.747 3.908 3.906v19.132.086l-.001.005c-.05 2.115-1.78 3.815-3.907 3.815zm-2.471-23.038v19.132c.002 1.363 1.106 2.467 2.471 2.469h20.327c1.363-.002 2.467-1.106 2.469-2.469v-.09l.002-.008v-19.034c-.004-1.365-1.106-2.467-2.471-2.469h-20.327c-1.364.002-2.468 1.106-2.471 2.469z"/><path d="m267.933 137.472c-5.818 0-10.533 4.716-10.533 10.533 0 5.818 4.715 10.556 10.533 10.556s10.556-4.737 10.556-10.556c0-5.818-4.737-10.533-10.556-10.533zm0 1.437c5.042 0 9.119 4.054 9.119 9.095 0 5.042-4.077 9.119-9.119 9.119-5.041 0-9.095-4.077-9.095-9.119 0-5.041 4.054-9.095 9.095-9.095z"/><path d="m289.333 161.486c-2.158 0-3.907-1.749-3.907-3.907v-19.132c0-2.158 1.749-3.905 3.907-3.907h20.328c2.156.002 3.904 1.749 3.904 3.907v19.13.002c0 2.158-1.746 3.907-3.904 3.907zm-2.472-23.039v19.132c.004 1.363 1.108 2.467 2.472 2.472h20.328c1.363-.004 2.468-1.108 2.47-2.472v-.002-19.13c-.002-1.363-1.106-2.467-2.47-2.469h-20.328c-1.363.002-2.467 1.106-2.472 2.469z"/><path d="m299.487 137.472c-5.818 0-10.533 4.715-10.533 10.533 0 5.819 4.715 10.556 10.533 10.556 5.819 0 10.556-4.737 10.556-10.556s-4.737-10.533-10.556-10.533zm0 1.437c5.042 0 9.119 4.054 9.119 9.095 0 5.042-4.076 9.119-9.119 9.119-5.042 0-9.096-4.076-9.096-9.119 0-5.041 4.054-9.095 9.096-9.095z"/><path d="m320.881 161.486c-2.158 0-3.905-1.749-3.905-3.905v-19.133c0-2.158 1.747-3.905 3.905-3.905h20.328c2.158 0 3.907 1.747 3.907 3.905v19.131.002c0 2.156-1.749 3.905-3.907 3.905zm-2.469-23.039v19.133c.002 1.362 1.104 2.466 2.469 2.469h20.328c1.364-.002 2.469-1.106 2.471-2.469v-.002-19.131c-.002-1.364-1.106-2.466-2.471-2.468h-20.328c-1.364.002-2.467 1.106-2.469 2.468z"/><path d="m331.039 137.472c-5.818 0-10.532 4.716-10.532 10.533 0 5.818 4.715 10.556 10.532 10.556s10.557-4.737 10.557-10.556c0-5.818-4.739-10.533-10.557-10.533zm0 1.437c5.041 0 9.119 4.054 9.119 9.095 0 5.042-4.077 9.119-9.119 9.119-5.041 0-9.095-4.077-9.095-9.119 0-5.041 4.054-9.095 9.095-9.095z"/></g><g><path d="m257.779 192.532c-2.159 0-3.908-1.749-3.908-3.906v-19.132c0-2.157 1.749-3.908 3.908-3.908h20.326c2.159 0 3.908 1.749 3.908 3.908v19.132.04.002c-.024 2.136-1.763 3.864-3.908 3.864zm-2.47-23.038v19.132c.002 1.364 1.104 2.467 2.47 2.469h20.326c1.364-.002 2.468-1.106 2.47-2.469v-.004-19.128c-.002-1.364-1.104-2.468-2.47-2.472h-20.326c-1.364.004-2.468 1.108-2.47 2.472z"/><path d="m267.933 168.511c-5.818 0-10.533 4.737-10.533 10.555 0 5.817 4.715 10.532 10.533 10.532s10.556-4.715 10.556-10.532c0-5.818-4.737-10.555-10.556-10.555zm0 1.437c5.042 0 9.119 4.076 9.119 9.118 0 5.041-4.077 9.095-9.119 9.095-5.041 0-9.095-4.054-9.095-9.095s4.054-9.118 9.095-9.118z"/><path d="m289.333 192.532c-2.157 0-3.906-1.749-3.906-3.906v-19.132c0-2.157 1.747-3.908 3.906-3.908h20.328c2.158 0 3.907 1.749 3.907 3.908v19.128.004c0 2.155-1.747 3.906-3.907 3.906zm-2.471-23.038v19.132c.002 1.364 1.106 2.467 2.47 2.469h20.328c1.363-.002 2.468-1.106 2.47-2.469v-.004-19.128c-.002-1.364-1.106-2.468-2.47-2.472h-20.328c-1.364.004-2.468 1.108-2.47 2.472z"/><path d="m299.487 168.511c-5.818 0-10.533 4.736-10.533 10.555 0 5.818 4.715 10.532 10.533 10.532 5.819 0 10.556-4.715 10.556-10.532 0-5.818-4.737-10.555-10.556-10.555zm0 1.437c5.042 0 9.119 4.076 9.119 9.118 0 5.041-4.076 9.095-9.119 9.095-5.042 0-9.096-4.054-9.096-9.095 0-5.042 4.054-9.118 9.096-9.118z"/><path d="m320.881 192.531c-2.158 0-3.905-1.747-3.905-3.905v-19.133c0-2.156 1.747-3.907 3.905-3.907h20.328c2.158 0 3.907 1.751 3.907 3.907v19.129.004c0 2.156-1.749 3.905-3.907 3.905zm-2.469-23.038v19.133c.002 1.364 1.104 2.466 2.469 2.471h20.328c1.364-.005 2.469-1.108 2.471-2.471v-.004-19.129c-.002-1.362-1.106-2.468-2.471-2.47h-20.328c-1.362.001-2.467 1.107-2.469 2.47z"/><path d="m331.039 168.511c-5.818 0-10.532 4.737-10.532 10.555 0 5.817 4.715 10.532 10.532 10.532s10.557-4.715 10.557-10.532c0-5.818-4.739-10.555-10.557-10.555zm0 1.437c5.041 0 9.119 4.076 9.119 9.118 0 5.041-4.077 9.095-9.119 9.095-5.041 0-9.095-4.054-9.095-9.095s4.054-9.118 9.095-9.118z"/></g></g></g></svg>