<svg xmlns="http://www.w3.org/2000/svg"><g fill="#fff"><path d="m53.889 54.427c0 .461-.319.781-.958.959-.767.204-3.145.307-7.134.307-3.657 0-6.009-.103-7.058-.307-.869-.179-1.419-.755-1.649-1.726-.87-3.681-1.547-5.651-2.033-5.906-.41-.179-3.836-.268-10.279-.268-4.347 0-6.661.115-6.943.344-.435.41-.92 1.779-1.457 4.105-.486 2.122-1.074 3.273-1.765 3.452-.869.204-3.784.307-8.745.307-3.912 0-5.868-.371-5.868-1.113 0-.664 2.889-8.834 8.668-24.509 6.264-16.953 9.666-26.273 10.202-27.961.307-.971.665-1.458 1.074-1.458.691 0 1.758.064 3.203.192 1.445.129 2.526.191 3.241.191.691 0 1.707-.045 3.05-.134s2.346-.134 3.011-.134c.485 0 .933.422 1.342 1.267 1.253 2.685 4.91 11.89 10.97 27.616 6.086 15.827 9.128 24.086 9.128 24.776zm-27.193-34.942c-.537 1.125-1.445 3.567-2.723 7.325-1.381 3.989-2.071 6.33-2.071 7.019 0 .461.767.716 2.302.767.792.053 2.096.078 3.911.078 1.688 0 2.621-.206 2.801-.613.051-.128.076-.308.076-.537 0-.844-.588-3.171-1.764-6.982-1.151-3.682-1.995-6.034-2.532-7.057z"/><path d="m98.191.959c0-.562-.103.281-.308 2.531-.281 2.839-.498 6.469-.652 10.893-.205 5.012-.306 10.715-.306 17.107 0 10.56.294 18.078.882 22.553.051.486.076.794.076.92 0 .282-.191.447-.574.499-.921.128-4.31.192-10.165.192-1.381 0-2.174-.268-2.378-.806-.052-.971-.102-1.943-.153-2.916-.027-.204-.128-.409-.307-.613-.154.076-.345.23-.574.461-2.762 2.711-6.215 4.065-10.357 4.065-5.395 0-9.718-1.892-12.964-5.676-3.094-3.605-4.641-8.157-4.641-13.655 0-5.574 1.522-10.164 4.564-13.769 3.222-3.836 7.568-5.754 13.041-5.754 3.861 0 6.865 1.227 9.014 3.681.358.41.613.615.767.615.23 0 .345-.333.345-.998 0-1.969-.051-4.91-.154-8.822-.102-3.911-.153-6.84-.153-8.783 0-.741.204-1.164.613-1.265 1.636-.078 3.886-.23 6.751-.46 5.114-.639 7.378-.959 6.788-.959.563 0 .845.32.845.959zm-14.459 35.249c0-2.02-.705-3.791-2.11-5.312-1.407-1.522-3.107-2.283-5.102-2.283-2.097 0-3.765.761-5.005 2.283-1.24 1.521-1.861 3.343-1.861 5.466 0 2.071.626 3.823 1.879 5.254 1.279 1.534 2.941 2.301 4.987 2.301s3.759-.767 5.139-2.301c1.381-1.534 2.073-3.336 2.073-5.408z"/><path d="m140.767 28.767c0 4.373-.141 6.955-.422 7.747-.588 1.816-2.352 4.898-5.293 9.244-2.557 3.733-4.744 6.649-6.558 8.745-.666.793-2.673 1.188-6.023 1.188-2.916 0-4.808-.102-5.676-.306-.537-.128-.985-.384-1.343-.767-1.534-1.662-3.72-4.551-6.559-8.668-3.044-4.424-4.858-7.455-5.448-9.091-.639-1.765-.958-4.411-.958-7.94 0-.998.012-2.499.039-4.508.025-2.007.037-3.522.037-4.545 0-.664.447-.997 1.343-.997 1.304 0 3.266.039 5.887.115 2.622.078 4.584.115 5.888.115.588 0 .882.397.882 1.189 0 .716-.051 1.797-.154 3.241-.102 1.445-.154 2.538-.154 3.28 0 2.659.077 4.833.231 6.521.076.869.817 2.506 2.223 4.909 1.458 2.531 2.519 3.798 3.184 3.798.638 0 1.662-1.24 3.068-3.722 1.355-2.326 2.084-3.912 2.186-4.756.204-1.816.307-4.015.307-6.597 0-.741-.078-1.86-.23-3.357-.154-1.496-.231-2.601-.231-3.317 0-.792.268-1.189.806-1.189.613 0 1.528.013 2.742.038 1.215.026 2.128.039 2.743.039.613 0 1.539-.052 2.78-.154 1.24-.103 2.168-.154 2.781-.154.639 0 1.061.333 1.265.997.439 1.461.657 4.427.657 8.902z"/><path d="m181.117 34.559c0 2.582-.831 4.053-2.493 4.411-.282.051-2.928.332-7.94.843-3.017.333-7.517.728-13.501 1.189.358 1.663 1.444 2.928 3.26 3.796 1.483.716 3.17 1.074 5.063 1.074 2.275 0 4.564-.613 6.865-1.841.971-.614 1.943-1.227 2.916-1.84.537.255 1.437 1.56 2.704 3.911 1.265 2.353 1.898 3.849 1.898 4.488 0 .179-.191.473-.574.882-3.121 3.35-7.966 5.024-14.537 5.024-6.085 0-10.996-1.777-14.729-5.331-3.835-3.605-5.753-8.425-5.753-14.46 0-5.882 1.713-10.702 5.139-14.461 3.529-3.887 8.209-5.83 14.039-5.83 4.909 0 9.077 1.791 12.503 5.371 3.427 3.58 5.14 7.839 5.14 12.774zm-13.425-2.34c0-1.586-.563-2.979-1.688-4.181s-2.468-1.802-4.027-1.802c-1.611 0-2.94.678-3.989 2.033-.972 1.253-1.458 2.723-1.458 4.411 0 .691.358 1.036 1.074 1.036 1.892 0 4.833-.294 8.822-.882.845-.129 1.266-.334 1.266-.615z"/><path d="m223.461 54.274c0 .689-.358 1.087-1.074 1.188-.715.102-2.582.154-5.599.154-3.223 0-5.217-.077-5.984-.23-.767-.154-1.15-.677-1.15-1.573 0-1.201.037-3.017.115-5.447.077-2.429.115-4.257.115-5.485 0-.946-.026-2.359-.076-4.238-.053-1.88-.078-3.292-.078-4.238 0-3.503-1.522-5.255-4.564-5.255-.997 0-2.161.436-3.49 1.304-1.432.972-2.148 1.931-2.148 2.877v20.712c0 .844-.397 1.318-1.189 1.419-.895.102-2.723.154-5.485.154-2.992 0-4.935-.077-5.83-.23-.793-.128-1.188-.549-1.188-1.266 0-1.995.012-4.999.038-9.014.025-4.014.038-7.031.038-9.051 0-6.367-.498-11.366-1.495-14.997-.052-.231-.077-.422-.077-.576 0-.409.192-.691.575-.843 1.611-.179 3.759-.461 6.443-.844 4.065-.792 6.354-1.188 6.866-1.188.281 0 .498.863.652 2.589.154 1.725.37 2.589.652 2.589-.282 0 1.094-.889 4.123-2.666 3.03-1.777 5.682-2.665 7.959-2.665 3.247 0 5.957.767 8.131 2.301 2.429 1.764 3.644 4.22 3.644 7.364v12.236c0 1.663.012 4.149.039 7.461.023 3.309.037 5.796.037 7.458z"/><path d="m255.527 44.148c0 .767-.096 1.93-.288 3.491-.191 1.56-.288 2.704-.288 3.432 0 .729-.076 1.197-.23 1.401-.154.205-.575.498-1.266.882-3.299 1.816-6.956 2.723-10.97 2.723-7.39 0-11.084-2.826-11.084-8.477 0-1.688.064-4.224.191-7.613.128-3.389.192-5.925.192-7.613 0-1.125-.652-1.688-1.956-1.688-.103 0-.268 0-.498 0-.23.026-.397.038-.498.038-.972 0-1.458-.345-1.458-1.036 0-.409.031-1.036.096-1.879.064-.844.097-1.471.097-1.88 0-.537-.033-1.355-.097-2.454-.063-1.098-.096-1.918-.096-2.455 0-.51.819-.792 2.455-.843.921-.025 1.419-.282 1.496-.767.154-.971.205-2.506.154-4.603-.103-3.298-.154-4.871-.154-4.717 0-2.967.281-4.45.843-4.45.691 0 1.674.154 2.953.46 1.458.333 2.468.525 3.03.576 1.304.179 3.272.422 5.906.728.64.053.96.269.96.652 0 1.023-.084 2.569-.249 4.64-.167 2.071-.249 3.632-.249 4.68 0 1.253.37 1.88 1.112 1.88.895 0 2.25-.039 4.066-.115 1.816-.077 3.183-.115 4.104-.115.562 0 .844.191.844.575 0 .588-.064 1.47-.192 2.647-.129 1.176-.191 2.058-.191 2.646 0 .615.012 1.509.039 2.686.025 1.176.038 2.071.038 2.685 0 .537-.37.806-1.112.806-.512 0-1.368-.019-2.57-.058-1.203-.038-2.059-.057-2.569-.057h-2.877c-.384 0-.576.563-.576 1.688v2.723c.025 1.227.039 2.136.039 2.723 0 2.147.243 3.631.728 4.45.691 1.098 2.046 1.649 4.066 1.649.639 0 1.554-.146 2.743-.442 1.189-.294 2.026-.442 2.513-.442.534-.001.803.281.803.843z"/><path d="m299.021 20.521c0 1.893-.09 4.731-.269 8.515s-.267 6.622-.267 8.516c0 1.841.063 4.602.191 8.285s.192 6.432.192 8.246c0 .691-.32 1.125-.959 1.304-.972.256-3.03.384-6.175.384-2.788 0-4.731-.077-5.83-.23-.487-.076-.794-.384-.921-.92-.077-.767-.154-1.534-.231-2.301-.127-1.175-.306-1.764-.537-1.764.358 0-.934.869-3.874 2.608s-5.612 2.607-8.016 2.607c-6.777 0-10.791-3.055-12.044-9.167-.563-2.839-.845-6.955-.845-12.351 0-5.83.473-10.432 1.419-13.807.282-1.049.806-1.573 1.573-1.573 1.175 0 2.966.012 5.37.039 2.402.026 4.193.037 5.371.037.792 0 1.188.333 1.188.998 0 .178-.026.446-.077.805-.537 3.478-.806 7.007-.806 10.587 0 4.448.14 7.492.422 9.128.46 2.813 2.134 4.22 5.025 4.22 1.125 0 2.346-.498 3.663-1.495 1.316-.998 2.001-2.034 2.052-3.107.051-.947.078-7.365.078-19.255 0-.843.063-1.343.191-1.495.154-.256.613-.385 1.38-.385 1.253 0 3.139.014 5.658.039 2.517.027 4.404.039 5.657.039.767 0 1.214.191 1.343.576.052.201.078.508.078.917z"/><path d="m330.781 31.49c0 .998-.55 1.496-1.65 1.496-.485 0-1.195-.032-2.128-.097-.934-.064-1.631-.096-2.09-.096-2.122 0-3.567.333-4.335.997-.767.666-1.151 2.007-1.151 4.027 0 1.1.02 2.768.059 5.005.038 2.239.058 3.907.058 5.006 0 .742.05 1.848.152 3.317.103 1.471.154 2.564.154 3.28 0 .613-.423.959-1.266 1.036-1.227.101-3.106.154-5.639.154-2.429 0-4.372-.078-5.83-.23-.843-.103-1.265-.523-1.265-1.267 0-2.044.013-5.106.039-9.186.025-4.078.037-7.14.037-9.186 0-6.009-.549-10.957-1.649-14.843-.051-.231-.076-.422-.076-.576 0-.383.191-.638.574-.767 1.407-.154 3.465-.434 6.176-.844 4.04-.792 6.124-1.188 6.251-1.188.461 0 .755.806.883 2.416.127 1.611.357 2.416.69 2.416-.358 0 .691-.67 3.146-2.013 2.454-1.343 4.82-2.013 7.095-2.013 1.433 0 2.149.306 2.149.921 0 .742-.078 1.789-.23 3.144-.154 1.458-.243 2.507-.269 3.146 0 .742.012 1.726.037 2.953.051 1.509.078 2.507.078 2.992z"/><path d="m370.402 34.559c0 2.582-.832 4.053-2.494 4.411-.281.051-2.928.332-7.94.843-3.017.333-7.518.728-13.5 1.189.358 1.663 1.444 2.928 3.259 3.796 1.483.716 3.17 1.074 5.063 1.074 2.275 0 4.564-.613 6.865-1.841.971-.614 1.944-1.227 2.916-1.84.537.255 1.438 1.56 2.703 3.911 1.266 2.353 1.899 3.849 1.899 4.488 0 .179-.191.473-.575.882-3.12 3.35-7.965 5.024-14.536 5.024-6.087 0-10.996-1.777-14.73-5.331-3.835-3.605-5.753-8.425-5.753-14.46 0-5.882 1.713-10.702 5.139-14.461 3.528-3.887 8.209-5.83 14.038-5.83 4.91 0 9.077 1.791 12.504 5.371 3.428 3.581 5.142 7.839 5.142 12.774zm-13.425-2.34c0-1.586-.562-2.979-1.689-4.181-1.125-1.202-2.469-1.802-4.028-1.802-1.61 0-2.94.678-3.989 2.033-.971 1.253-1.458 2.723-1.458 4.411 0 .691.358 1.036 1.074 1.036 1.892 0 4.833-.294 8.822-.882.846-.129 1.268-.334 1.268-.615z"/><path d="m445.004 54.158c.051.691-.307 1.037-1.074 1.037-.486 0-1.885-.282-4.199-.844-2.315-.562-3.739-.946-4.276-1.15-5.345 2.097-10.471 3.145-15.382 3.145-7.899 0-14.383-2.633-19.446-7.901-5.011-5.191-7.518-11.75-7.518-19.676 0-8.107 2.429-14.831 7.288-20.176 5.012-5.523 11.519-8.285 19.524-8.285 3.885 0 7.542.742 10.97 2.225 3.707 1.636 6.622 3.938 8.745 6.903.434.615.652 1.049.652 1.304 0 .819-1.144 2.653-3.433 5.504-2.289 2.852-3.765 4.276-4.43 4.276-.152 0-.742-.523-1.764-1.573-1.253-1.253-2.53-2.224-3.834-2.915-1.945-1.048-4.093-1.573-6.443-1.573-3.836 0-6.88 1.433-9.13 4.296-2.097 2.633-3.145 5.919-3.145 9.857 0 4.168 1.086 7.467 3.26 9.896 2.25 2.506 5.433 3.759 9.55 3.759 2.608 0 5.524-.652 8.745-1.956-.078-.843-.307-2.992-.691-6.443-.333-2.659-.498-4.808-.498-6.443 0-.486.166-.781.498-.883.129-.051.333-.077.613-.077.742 0 1.861.071 3.357.21 1.496.141 2.628.212 3.395.212.817 0 2.045-.058 3.682-.173s2.863-.173 3.681-.173c.64 0 .96.422.96 1.265 0 1.228-.071 3.082-.211 5.563-.141 2.48-.212 4.333-.212 5.561 0 3.298.243 8.233.73 14.805z"/><path d="m488.652 36.208c0 1.969.115 4.896.344 8.783.232 3.887.346 6.802.346 8.746 0 1.022-.447 1.571-1.343 1.649-3.17.23-6.802.345-10.893.345-.485 0-.811-.734-.977-2.206-.167-1.47-.364-2.217-.595-2.243-.205.102-.474.32-.807.652-2.863 2.89-5.931 4.334-9.203 4.334-4.987 0-9.116-1.968-12.39-5.906-3.095-3.683-4.64-8.08-4.64-13.194 0-5.907 1.597-10.663 4.794-14.268 3.323-3.733 7.876-5.6 13.655-5.6 4.014 0 7.185 1.406 9.512 4.219.102.129.192.192.269.192.231 0 .492-.619.786-1.86.293-1.24.646-1.86 1.055-1.86.946 0 2.748.269 5.409.806 2.53.511 4.347.946 5.447 1.303.384.154.575.358.575.614 0 .102-.039.37-.116.805-.82 4.627-1.228 9.525-1.228 14.689zm-12.35.23c0-2.174-.685-3.97-2.053-5.389-1.369-1.42-3.152-2.129-5.349-2.129-2.2 0-3.977.703-5.332 2.11-1.357 1.406-2.034 3.209-2.034 5.408 0 2.071.716 3.849 2.149 5.331 1.433 1.484 3.17 2.225 5.217 2.225 2.172 0 3.949-.71 5.331-2.129 1.381-1.419 2.071-3.227 2.071-5.427z"/><path d="m557.578 53.967c0 .896-.384 1.394-1.151 1.497-.767.101-2.661.154-5.676.154-3.121 0-5.063-.078-5.83-.231-.768-.152-1.152-.779-1.152-1.879 0-1.175.039-2.935.115-5.273.078-2.34.116-4.097.116-5.275 0-4.475-.052-7.658-.153-9.55-.154-3.042-1.598-4.564-4.335-4.564-1.202 0-2.396.506-3.585 1.516-1.19 1.011-1.848 2.128-1.976 3.356-.102 1.073-.152 4.219-.152 9.435 0 1.202.037 3.024.115 5.466.076 2.442.115 4.277.115 5.503 0 .844-.372 1.267-1.113 1.267h-11.622c-.716 0-1.074-.524-1.074-1.573 0-1.202.039-3.005.117-5.409.076-2.402.115-4.219.115-5.447 0-.946-.027-2.377-.078-4.296-.051-1.917-.078-3.362-.078-4.333 0-3.657-1.392-5.485-4.18-5.485-1.125 0-2.34.436-3.644 1.304-1.433.946-2.148 1.943-2.148 2.992 0 2.328.013 5.805.038 10.433.025 4.627.038 8.092.038 10.393 0 .64-.077 1.036-.231 1.189s-.549.255-1.189.308c-1.151.101-2.966.154-5.447.154-1.61 0-3.438-.078-5.484-.23-.613-.052-.979-.141-1.094-.268-.115-.128-.173-.512-.173-1.152 0-2.044.013-5.106.038-9.186.026-4.078.039-7.14.039-9.186 0-4.193-.307-8.911-.921-14.153-.052-.306-.077-.536-.077-.69 0-.435.179-.73.537-.883.562-.23 1.624-.421 3.184-.575 1.918-.179 3.054-.293 3.415-.346.255-.051 1.265-.319 3.029-.805 1.253-.358 2.264-.537 3.031-.537.485 0 .741.888.767 2.665.025 1.777.128 2.666.307 2.666.255-.103.548-.282.882-.537 2.301-1.79 4.115-3.017 5.447-3.682 1.968-.946 4.103-1.419 6.404-1.419 2.353 0 4.45.524 6.291 1.573 2.071 1.176 3.413 2.826 4.027 4.948 1.355-1.841 3.222-3.389 5.601-4.641 2.377-1.253 4.691-1.88 6.942-1.88 3.375 0 6.124.781 8.247 2.34 2.403 1.765 3.606 4.284 3.606 7.557 0 1.355-.039 3.394-.116 6.118-.077 2.723-.116 4.763-.116 6.118 0 1.61.039 4.034.116 7.269.077 3.231.116 5.654.116 7.264z"/><path d="m600 34.559c0 2.582-.832 4.053-2.494 4.411-.282.051-2.928.332-7.94.843-3.017.333-7.518.728-13.501 1.189.358 1.663 1.444 2.928 3.26 3.796 1.483.716 3.17 1.074 5.063 1.074 2.275 0 4.564-.613 6.865-1.841.971-.614 1.943-1.227 2.916-1.84.537.255 1.438 1.56 2.703 3.911 1.266 2.353 1.899 3.849 1.899 4.488 0 .179-.191.473-.575.882-3.12 3.35-7.965 5.024-14.536 5.024-6.087 0-10.996-1.777-14.73-5.331-3.835-3.605-5.753-8.425-5.753-14.46 0-5.882 1.713-10.702 5.139-14.461 3.527-3.887 8.209-5.83 14.037-5.83 4.911 0 9.078 1.791 12.505 5.371 3.428 3.581 5.142 7.839 5.142 12.774zm-13.424-2.34c0-1.586-.562-2.979-1.689-4.181-1.124-1.202-2.468-1.802-4.028-1.802-1.61 0-2.94.678-3.989 2.033-.971 1.253-1.458 2.723-1.458 4.411 0 .691.358 1.036 1.074 1.036 1.892 0 4.833-.294 8.822-.882.846-.129 1.268-.334 1.268-.615z"/><path d="m227.344 105.314c0 5.19-2.186 9.64-6.558 13.348-3.836 3.272-8.502 5.356-14 6.252-.206.025-.371.037-.498.037-.589 0-1.892-1.797-3.912-5.389s-3.03-5.785-3.03-6.579c0-.281.192-.459.576-.537 3.707-.844 6.162-1.559 7.364-2.148 2.659-1.33 3.989-3.299 3.989-5.907 0-1.661-.869-3.516-2.607-5.562-3.017-3.476-4.654-5.407-4.909-5.791-1.765-2.659-2.647-5.6-2.647-8.822 0-4.679 2.161-8.567 6.482-11.66 3.529-2.557 7.862-4.219 13.003-4.986.281-.026.498-.037.652-.037.384 0 .691.306.921.92.664 1.867 2.211 5.242 4.64 10.126.077.153.115.282.115.384 0 .435-.23.652-.691.652-.205 0-.55-.039-1.036-.117-.487-.076-.857-.115-1.112-.115-1.841 0-3.452.422-4.833 1.267-1.663.971-2.493 2.326-2.493 4.065 0 1.561.92 3.478 2.762 5.754 3.247 4.092 4.948 6.239 5.102 6.443 1.812 2.816 2.72 5.615 2.72 8.402z"/><path d="m259.103 111.721c0 .765-.096 1.93-.287 3.49-.192 1.559-.288 2.704-.288 3.432s-.077 1.195-.231 1.4c-.153.204-.575.498-1.266.881-3.298 1.816-6.956 2.724-10.969 2.724-7.391 0-11.085-2.825-11.085-8.476 0-1.688.064-4.225.192-7.613.127-3.388.191-5.926.191-7.614 0-1.125-.652-1.688-1.956-1.688-.102 0-.267 0-.498 0-.23.027-.396.038-.498.038-.972 0-1.458-.344-1.458-1.035 0-.409.032-1.036.097-1.88.064-.844.096-1.47.096-1.879 0-.538-.032-1.355-.096-2.455s-.097-1.917-.097-2.455c0-.511.819-.792 2.456-.844.921-.026 1.419-.281 1.495-.767.154-.971.205-2.506.154-4.604-.103-3.298-.154-4.871-.154-4.717 0-2.966.282-4.45.843-4.45.691 0 1.675.153 2.954.461 1.457.332 2.467.524 3.029.574 1.304.18 3.272.423 5.906.729.64.052.96.268.96.652 0 1.023-.084 2.571-.249 4.642-.166 2.071-.249 3.631-.249 4.678 0 1.254.371 1.88 1.113 1.88.894 0 2.25-.038 4.065-.115 1.816-.078 3.184-.115 4.105-.115.562 0 .843.191.843.575 0 .588-.064 1.471-.191 2.647-.129 1.175-.192 2.058-.192 2.645 0 .613.013 1.509.039 2.686.025 1.176.039 2.071.039 2.685 0 .538-.371.807-1.113.807-.511 0-1.367-.02-2.57-.059-1.201-.037-2.058-.057-2.569-.057h-2.877c-.384 0-.575.563-.575 1.688v2.724c.025 1.226.038 2.135.038 2.723 0 2.149.243 3.631.729 4.45.69 1.1 2.046 1.649 4.065 1.649.64 0 1.554-.146 2.743-.442 1.189-.292 2.026-.441 2.513-.441.534.001.803.282.803.846z"/><path d="m302.598 88.093c0 1.893-.09 4.731-.269 8.515s-.268 6.623-.268 8.515c0 1.842.064 4.603.191 8.286.128 3.681.192 6.43.192 8.246 0 .691-.319 1.125-.959 1.304-.972.255-3.029.384-6.175.384-2.788 0-4.73-.077-5.83-.23-.487-.078-.793-.384-.921-.921-.076-.766-.154-1.534-.23-2.301-.128-1.175-.307-1.765-.537-1.765.358 0-.935.87-3.874 2.609-2.941 1.74-5.613 2.608-8.017 2.608-6.777 0-10.791-3.054-12.044-9.167-.563-2.838-.844-6.955-.844-12.35 0-5.83.473-10.434 1.419-13.809.281-1.047.805-1.572 1.573-1.572 1.175 0 2.965.013 5.369.038 2.403.027 4.193.038 5.371.038.792 0 1.189.333 1.189.997 0 .18-.027.448-.078.806-.537 3.478-.806 7.008-.806 10.586 0 4.45.14 7.494.422 9.129.46 2.813 2.135 4.22 5.025 4.22 1.125 0 2.347-.498 3.663-1.496 1.316-.997 2.001-2.033 2.052-3.106.052-.946.078-7.365.078-19.255 0-.844.064-1.342.191-1.496.154-.255.613-.384 1.381-.384 1.252 0 3.138.014 5.657.039 2.518.026 4.405.037 5.657.037.767 0 1.214.192 1.343.576.053.203.079.511.079.919z"/><path d="m349.583 68.531c0-.561-.102.282-.306 2.531-.283 2.839-.498 6.469-.652 10.893-.205 5.013-.307 10.715-.307 17.107 0 10.56.293 18.078.883 22.552.051.487.077.793.077.921 0 .281-.191.446-.575.498-.92.127-4.309.191-10.165.191-1.382 0-2.174-.269-2.378-.806-.051-.971-.102-1.943-.152-2.915-.027-.204-.129-.408-.307-.613-.154.077-.345.23-.576.46-2.761 2.71-6.214 4.066-10.356 4.066-5.396 0-9.717-1.894-12.964-5.678-3.094-3.605-4.64-8.156-4.64-13.653 0-5.575 1.521-10.165 4.564-13.77 3.221-3.835 7.568-5.755 13.04-5.755 3.862 0 6.866 1.228 9.014 3.683.358.409.613.613.767.613.23 0 .344-.333.344-.997 0-1.969-.051-4.911-.153-8.822-.102-3.913-.154-6.84-.154-8.785 0-.742.206-1.164.615-1.266 1.635-.077 3.885-.231 6.751-.46 5.114-.639 7.376-.959 6.788-.959.561.005.842.325.842.964zm-14.459 35.248c0-2.018-.704-3.789-2.11-5.311-1.407-1.521-3.107-2.282-5.101-2.282-2.098 0-3.766.761-5.006 2.282-1.24 1.522-1.859 3.343-1.859 5.465 0 2.071.625 3.823 1.879 5.255 1.278 1.535 2.941 2.301 4.986 2.301 2.044 0 3.759-.766 5.139-2.301 1.381-1.534 2.072-3.338 2.072-5.409z"/><path d="m369.451 105.352c0 1.867.039 4.649.115 8.343.078 3.695.115 6.463.115 8.304 0 .538-.319.859-.958.96-.87.154-2.827.23-5.868.23-3.068 0-5.038-.076-5.907-.23-.563-.101-.909-.269-1.036-.498-.052-.101-.077-.486-.077-1.151 0-1.763.038-4.416.115-7.958.078-3.541.116-6.208.116-7.998 0-7.262-.282-13.041-.844-17.337-.052-.407-.077-.677-.077-.805 0-.511.344-.767 1.034-.767.716 0 1.809.077 3.28.231 1.471.153 2.577.23 3.317.23.741 0 1.854-.064 3.337-.191 1.484-.128 2.595-.192 3.337-.192.613 0 .92.257.92.767 0 .103-.027.345-.077.729-.56 4.984-.842 10.763-.842 17.333zm.998-28.498c0 4.45-2.507 6.674-7.519 6.674-2.147 0-3.925-.562-5.33-1.688-1.536-1.227-2.303-2.89-2.303-4.986 0-1.994.794-3.63 2.378-4.91 1.458-1.175 3.208-1.765 5.254-1.765 1.995 0 3.722.601 5.179 1.804 1.561 1.279 2.341 2.903 2.341 4.871z"/><path d="m413.753 104.087c0 5.829-1.783 10.56-5.35 14.192-3.566 3.631-8.254 5.447-14.057 5.447-5.625 0-10.254-1.791-13.885-5.37-3.631-3.58-5.448-8.182-5.448-13.808 0-5.932 1.74-10.746 5.217-14.441s8.183-5.543 14.114-5.543c5.779 0 10.458 1.809 14.039 5.428 3.579 3.618 5.37 8.317 5.37 14.095zm-12.581 0c0-2.019-.627-3.804-1.88-5.35-1.252-1.547-2.877-2.32-4.871-2.32-2.02 0-3.682.793-4.986 2.377-1.227 1.484-1.842 3.249-1.842 5.293 0 2.07.613 3.848 1.842 5.331 1.304 1.587 2.966 2.378 4.986 2.378 1.994 0 3.644-.792 4.947-2.378 1.202-1.483 1.804-3.261 1.804-5.331z"/></g></svg>