<svg xmlns="http://www.w3.org/2000/svg"><g fill="#fff" fill-rule="evenodd"><path d="m142.892 41.43-46.776 57.387 14.208-56.175-70.155 65.193c-12.003-6.015-19.188-14.052-19.188-23.22 0-21.588 39.831-41.436 88.671-44.181 11.742-.663 22.965-.276 33.24.996zm3.267 71.847 18.186-67.545c20.664 6.024 33.972 16.428 33.972 28.902 0 15.846-21.447 30.744-52.158 38.643zm-88.629 47.815 20.307-73.78-40.905 41.694c-23.043-8.484-37.053-21.75-36.93-37.188 0-28.404 48.798-53.667 108.633-56.238 13.254-.57 25.968.018 37.728 1.593l30.294-37.173-10.992 40.839c30.93 7.773 51.606 23.148 51.606 41.634 0 27.294-45.066 51.685-101.676 55.834l18.423-65.884z"/><path d="m263.915 50.421h-25.011l-20.22 69.381h19.098l7.923-27.198 3.282-15.846-1.947 43.044h14.895l23.02-42.291-5.925 15.093-7.926 27.198h18.999l20.22-69.381h-24.921l-23.179 42.183z"/><path d="m318.435 50.421-20.217 69.381h20.718l20.22-69.381z"/><path d="m363.186 66.909c5.259-.144 9.216 1.014 11.871 3.48 2.658 2.46 3.063 7.083 1.215 13.866-1.164 3.996-2.562 7.26-4.194 9.795-1.626 2.535-3.462 4.518-5.499 5.943-2.043 1.428-4.227 2.373-6.561 2.835-2.328.465-4.809.63-7.44.486zm-15.531-16.488-20.22 69.381h27.018c4.842 0 9.465-.642 13.881-1.929 4.416-1.281 8.478-3.372 12.189-6.261 3.702-2.892 6.993-6.642 9.861-11.244 2.868-4.605 5.166-10.185 6.885-16.758 1.746-6.639 2.001-12.099.768-16.38-1.236-4.287-3.204-7.674-5.916-10.173-2.709-2.499-5.802-4.23-9.273-5.193-3.477-.966-6.615-1.443-9.414-1.443z"/><path d="m405.99 50.421-4.176 69.381h20.049l18.414-39.939-4.188 39.939h20.145l35.115-69.381h-19.386l-19.164 42.183 5.514-42.183h-18.81l-18.213 42.183 5.325-42.183z"/><path d="m498.105 96.354 12.603-22.593-.474 22.593zm8.901-45.933-42.561 69.381h20.91l4.626-8.994h20.148l-.618 8.994h20.911l-1.933-69.381z"/><path d="m533.266 50.421 9.996 44.325-7.299 25.056h20.145l7.299-25.056 36.594-44.325h-23.676l-16.581 22.482-3.564-22.482z"/></g></svg>