<svg xmlns="http://www.w3.org/2000/svg"><path d="m0 0v16.422h116.79v-16.422zm133.335 0v16.422h166.431s-17.001-16.422-39.516-16.422zm199.077 0v16.422h100.689l-5.976-16.422zm172.878 0-5.976 16.422h99.774v-16.422zm-505.29 31.932v16.422h116.79v-16.422zm133.335.024v16.398h185.745s-2.172-12.639-5.955-16.398zm199.077 0v16.398h111.729l-5.535-16.398zm160.923 0-5.532 16.398h111.282v-16.398zm-459.774 31.911v16.44h50.58v-16.44zm133.338 0v16.44h50.577v-16.44zm99.774 0v16.44h50.577s3.21-8.682 3.21-16.44zm99.303 0v16.44h89.673l-5.979-16.44zm116.346 0-6.003 16.44h90.117v-16.44zm-448.761 31.956v16.422h50.58v-16.422zm133.338 0v16.422h129.186s10.806-8.424 14.25-16.422zm199.077 0v16.422h50.58v-9.141l3.21 9.141h92.649l3.444-9.141v9.141h50.577v-16.422h-94.944l-5.04 13.911-5.061-13.911zm-332.415 31.935v16.422h50.58v-16.422zm133.338 0v16.422h143.439c-3.447-7.968-14.25-16.422-14.25-16.422zm199.077 0v16.422h50.58v-16.422zm59.766 0 6.117 16.422h69.471l5.811-16.422zm90.117 0v16.422h50.577v-16.422zm-482.298 31.932v16.419h50.58v-16.419zm133.338 0v16.419h50.577v-16.419zm99.774 0v16.419h53.787c0-7.749-3.21-16.419-3.21-16.419zm99.303 0v16.419h50.58v-16.419zm71.25 0 5.931 16.419h46.572l5.973-16.419zm78.633 0v16.419h50.577v-16.419zm-514.947 31.935v16.443h116.793v-16.443zm132.423 0v16.443h179.79c3.783-3.768 5.955-16.443 5.955-16.443zm199.995 0v16.443h83.229v-16.443zm115.404 0 6.093 16.443h23.697l5.718-16.443zm67.125 0v16.443h84.141v-16.443zm-514.947 31.956v16.422h116.793v-16.422zm132.423 0v16.395h126.915c22.515 0 39.516-16.395 39.516-16.395zm199.995 0v16.422h83.229v-16.422zm126.96 0 5.856 16.377 1.011.021 5.952-16.395zm55.569 0v16.422h84.141v-16.422z" fill="#fff"/></svg>