<svg xmlns="http://www.w3.org/2000/svg"><g fill="#1e1e1e"><path d="m275.469 59.468c-4.108 0-15.248.755-19.308 1.098-2.075.176-3.763.649-4.933 1.934-1.17 1.286-1.731 3.271-1.835 6.31-.106 3.063-.265 27.59-.393 52.763-.129 25.17-.23 50.917-.23 56.198 0 5.291.213 29.044.474 52.219.132 11.588.277 23.027.41 31.927.133 8.902.248 15.228.344 16.735.277 4.367 1.117 7.571 2.574 9.982 1.457 2.41 3.536 3.997 6.145 5.08 5.218 2.17 12.574 2.478 22.275 4.05 19.492 3.156 29.47 2.753 32.158 2.753h13.702c2.688 0 12.648.403 32.139-2.753 9.7-1.572 17.075-1.88 22.29-4.05 2.61-1.083 4.673-2.67 6.132-5.08 1.457-2.411 2.295-5.615 2.572-9.982.095-1.507.212-7.833.345-16.735.132-8.9.279-20.34.409-31.927.263-23.176.492-46.928.492-52.219 0-5.282-.116-31.03-.245-56.203-.137-25.167-.279-49.695-.385-52.758-.103-3.039-.681-5.024-1.85-6.311-1.175-1.285-2.859-1.757-4.936-1.933-4.06-.344-15.183-1.099-19.291-1.099h-42.073-4.936-42.055.009zm0 1.048h42.057 4.933 42.073c3.978 0 15.183.757 19.209 1.099 1.967.167 3.325.58 4.245 1.589.919 1.01 1.472 2.717 1.573 5.639.1 2.898.249 27.574.377 52.742.129 25.169.246 50.915.246 56.182 0 5.262-.229 29.046-.491 52.219-.132 11.587-.277 23.012-.41 31.912-.133 8.899-.258 15.313-.344 16.685-.271 4.264-1.092 7.296-2.427 9.505-1.335 2.21-3.176 3.632-5.637 4.656-4.923 2.044-12.287 2.401-22.044 3.982-19.424 3.146-29.184 2.738-31.979 2.738l-13.702-.001c-2.793 0-12.553.409-31.976-2.737l-.082-.016c-9.712-1.568-17.057-1.927-21.964-3.966-2.461-1.023-4.319-2.446-5.655-4.655-1.335-2.21-2.154-5.242-2.425-9.506-.082-1.37-.206-7.783-.339-16.683-.133-8.901-.278-20.324-.409-31.915-.262-23.173-.476-46.957-.476-52.218 0-5.267.102-31.013.23-56.183.129-25.17.293-49.845.394-52.741.1-2.922.654-4.629 1.573-5.639.92-1.009 2.278-1.422 4.245-1.589 4.026-.341 15.232-1.098 19.209-1.098z" transform="matrix(.965926 -.258819 .258819 .965926 -35.683772 88.955607)"/><path d="m302.348 71.012c-11.657 0-47.897.286-52.22.426-2.138.069-3.86.165-5.146 1.016-1.287.851-1.935 2.434-1.935 4.983 0 2.461-.031 24.36-.049 46.301-.016 21.934-.02 43.839.049 46.597v.016c.069 2.68.139 4.545 1.312 5.933 1.172 1.388 3.263 2.096 7.064 2.787 3.867.703 13.696 1.386 23.962 1.901 10.266.514 20.908.851 26.274.851h7.949c5.366 0 16.024-.337 26.289-.851 10.267-.515 20.096-1.198 23.963-1.901 3.8-.691 5.875-1.398 7.048-2.787 1.172-1.388 1.259-3.254 1.327-5.933.071-2.746.066-24.671.049-46.614-.017-21.941-.049-43.839-.049-46.301 0-2.549-.647-4.131-1.933-4.983-1.287-.85-3.008-.947-5.147-1.016-4.321-.139-40.581-.426-52.236-.426h-6.573.002zm0 1.049h6.571c11.64 0 48.012.275 52.188.409 2.11.069 3.68.247 4.621.869.941.621 1.459 1.713 1.459 4.097 0 2.472.032 24.361.049 46.302.017 21.942.017 43.982-.049 46.581v.016c-.069 2.652-.201 4.22-1.082 5.262-.882 1.043-2.704 1.763-6.441 2.442-3.671.667-13.577 1.371-23.832 1.885-10.254.513-20.902.852-26.224.852h-7.949c-5.322 0-15.97-.338-26.225-.852-10.254-.514-20.16-1.217-23.83-1.885-3.733-.682-5.556-1.401-6.438-2.445s-.997-2.612-1.065-5.277c-.067-2.595-.066-24.639-.049-46.579.017-21.941.05-43.831.05-46.302 0-2.384.518-3.476 1.459-4.097.94-.622 2.494-.8 4.605-.868 4.173-.136 40.546-.41 52.186-.41z" transform="matrix(.965926 -.258819 .258819 .965926 -22.304641 83.413365)"/><path d="m263.819 82.94c-.737 0-1.344.606-1.344 1.344v71.444c0 .738.607 1.344 1.344 1.344h80.215c.736 0 1.344-.606 1.344-1.344v-71.444c0-.737-.606-1.344-1.344-1.344zm0 1.049h80.215c.17 0 .294.125.294.295v71.444c0 .172-.124.296-.294.296h-80.215c-.171 0-.296-.125-.296-.296v-71.444c-.001-.17.125-.295.296-.295z" transform="matrix(.965926 -.258819 .258819 .965926 -20.703793 82.751048)"/><path d="m331.808 256.927c-1.782 0-3.411.168-4.655.59-.622.211-1.155.489-1.556.885-.402.396-.656.935-.656 1.525 0 .591.254 1.127.656 1.524.401.397.935.674 1.556.885 1.244.423 2.873.573 4.655.573 1.783 0 3.41-.15 4.654-.573.622-.211 1.155-.488 1.557-.885.401-.396.655-.933.655-1.524 0-.59-.254-1.128-.655-1.525-.402-.396-.935-.674-1.557-.885-1.244-.423-2.872-.59-4.654-.59zm0 1.049c1.718 0 3.26.169 4.311.525.524.177.924.402 1.164.639.239.236.344.469.344.786s-.105.533-.344.77c-.24.237-.64.461-1.164.64-1.05.356-2.593.523-4.311.523s-3.262-.167-4.311-.523c-.525-.179-.925-.403-1.163-.64-.24-.237-.345-.452-.345-.77s.105-.55.345-.786c.238-.237.638-.462 1.163-.639 1.049-.356 2.593-.525 4.311-.525z" transform="matrix(.965926 -.258819 .258819 .965926 -55.965646 94.734557)"/><path d="m352.456 251.392c-1.782 0-3.409.167-4.653.59-.623.211-1.156.488-1.558.884-.401.397-.639.935-.639 1.526s.237 1.127.639 1.524.936.674 1.558.885c1.244.423 2.871.573 4.653.573 1.784 0 3.412-.15 4.656-.573.622-.211 1.155-.488 1.557-.885.401-.397.656-.933.656-1.524s-.255-1.128-.656-1.526c-.402-.396-.936-.673-1.557-.884-1.244-.423-2.872-.59-4.656-.59zm0 1.049c1.719 0 3.262.169 4.312.525.525.177.923.401 1.163.638s.344.47.344.787-.104.533-.344.77-.638.461-1.163.639c-1.05.356-2.593.524-4.312.524-1.717 0-3.259-.168-4.309-.524-.525-.178-.924-.402-1.164-.639-.239-.237-.328-.452-.328-.77s.089-.55.328-.787.639-.461 1.164-.638c1.05-.356 2.591-.525 4.309-.525z" transform="matrix(.965926 -.258819 .258819 .965926 -53.829172 99.892611)"/><path d="m287.191 211.718c-1.494 0-2.721 1.226-2.721 2.721v8.309c0 .081.005.051 0 .081h-8.375c-1.495 0-2.721 1.21-2.721 2.705v6.081c0 1.495 1.226 2.721 2.721 2.721h8.375v8.375c0 1.495 1.226 2.721 2.721 2.721h6.081c1.494 0 2.704-1.226 2.704-2.721v-8.292c0-.075.013-.063.016-.082h8.376c1.494 0 2.721-1.226 2.721-2.721v-6.082c0-1.495-1.227-2.705-2.721-2.705h-8.391c-.003-.013 0 .017 0-.032v-8.359c0-1.494-1.211-2.721-2.705-2.721h-6.081zm0 1.048h6.081c.927 0 1.655.744 1.655 1.673v8.358c0 .254.044.54.246.771.203.232.51.312.771.312h8.424c.927 0 1.672.726 1.672 1.655v6.081c0 .929-.744 1.672-1.672 1.672h-8.409c-.312 0-.658.137-.836.393-.177.256-.197.515-.197.737v8.294c0 .927-.728 1.672-1.655 1.672h-6.081c-.927 0-1.672-.745-1.672-1.672v-8.441c0-.094.033-.305-.131-.574-.164-.267-.521-.409-.853-.409h-8.44c-.927 0-1.672-.744-1.672-1.672v-6.081c0-.929.743-1.655 1.672-1.655h8.473c.286 0 .643-.148.804-.41.16-.262.147-.496.147-.722v-8.309c0-.929.745-1.673 1.673-1.673z" transform="matrix(.965926 -.258819 .258819 .965926 -49.270022 82.905901)"/><path d="m356.299 205.523c-5.177 0-9.391 4.198-9.391 9.375s4.214 9.391 9.391 9.391c5.178 0 9.391-4.214 9.391-9.391s-4.214-9.375-9.391-9.375zm0 1.048c4.61 0 8.343 3.716 8.343 8.327 0 4.61-3.733 8.343-8.343 8.343s-8.342-3.733-8.342-8.343c0-4.611 3.732-8.327 8.342-8.327z" transform="matrix(.965926 -.258818 .258818 .965926 -43.48103 99.539221)"/><path d="m379.256 190.573c-5.177 0-9.391 4.214-9.391 9.39 0 5.178 4.214 9.391 9.391 9.391s9.375-4.213 9.375-9.391c0-5.176-4.198-9.39-9.375-9.39zm0 1.049c4.609 0 8.326 3.732 8.326 8.341 0 4.611-3.716 8.343-8.326 8.343s-8.343-3.732-8.343-8.343c0-4.609 3.733-8.341 8.343-8.341z" transform="matrix(.965926 -.25882 .25882 .965926 -38.831873 104.970517)"/><path d="m375.323 251.943c-.877 0-1.605.713-1.605 1.59 0 .876.728 1.606 1.605 1.606s1.591-.73 1.591-1.606c0-.878-.714-1.59-1.591-1.59z" transform="matrix(.965926 -.258819 .258819 .965926 -52.832647 105.778091)"/><path d="m377.372 259.588c-.877 0-1.606.73-1.606 1.606s.729 1.589 1.606 1.589 1.591-.714 1.591-1.589c0-.876-.714-1.606-1.591-1.606z" transform="matrix(.965926 -.258819 .258819 .965926 -54.741382 106.568762)"/><path d="m379.425 267.252c-.877 0-1.606.714-1.606 1.59s.729 1.606 1.606 1.606 1.591-.73 1.591-1.606c0-.877-.714-1.59-1.591-1.59z" transform="matrix(.965926 -.258819 .258819 .965926 -56.65515 107.361278)"/><path d="m378.124 246.511c-.876 0-1.605.714-1.605 1.59 0 .874.729 1.606 1.605 1.606.877 0 1.592-.731 1.592-1.606 0-.877-.715-1.59-1.592-1.59z" transform="matrix(.965926 -.258819 .258819 .965926 -51.331285 106.318083)"/><path d="m380.155 254.091c-.876 0-1.605.73-1.605 1.606s.729 1.59 1.605 1.59c.877 0 1.591-.715 1.591-1.59s-.714-1.606-1.591-1.606z" transform="matrix(.965926 -.258819 .258819 .965926 -53.223941 107.101897)"/><path d="m382.192 261.69c-.877 0-1.606.714-1.606 1.589 0 .877.729 1.606 1.606 1.606.876 0 1.591-.729 1.591-1.606 0-.875-.715-1.589-1.591-1.589z" transform="matrix(.965926 -.258819 .258819 .965926 -55.121182 107.8879)"/><path d="m384.222 269.273c-.876 0-1.605.714-1.605 1.589 0 .877.729 1.607 1.605 1.607.877 0 1.591-.73 1.591-1.607 0-.875-.714-1.589-1.591-1.589z" transform="matrix(.965926 -.258818 .258818 .965926 -57.014613 108.671443)"/><path d="m382.816 248.692c-.877 0-1.59.731-1.59 1.607 0 .877.713 1.59 1.59 1.59.875 0 1.605-.714 1.605-1.59s-.729-1.607-1.605-1.607z" transform="matrix(.965926 -.258819 .258819 .965926 -51.735541 107.610413)"/><path d="m384.852 256.292c-.877 0-1.59.714-1.59 1.589 0 .877.713 1.606 1.59 1.606.875 0 1.605-.729 1.605-1.606 0-.875-.729-1.589-1.605-1.589z" transform="matrix(.965926 -.258819 .258819 .965926 -53.632932 108.396301)"/><path d="m386.884 263.876c-.877 0-1.59.73-1.59 1.606s.714 1.59 1.59 1.59 1.605-.714 1.605-1.59-.728-1.606-1.605-1.606z" transform="matrix(.965926 -.258819 .258819 .965926 -55.526661 109.180536)"/><path d="m388.916 271.46c-.876 0-1.589.729-1.589 1.606 0 .876.713 1.59 1.589 1.59s1.606-.714 1.606-1.59c0-.877-.729-1.606-1.606-1.606z" transform="matrix(.965926 -.25882 .25882 .965926 -57.42045 109.965645)"/><path d="m385.628 242.982c-.877 0-1.589.713-1.589 1.59 0 .876.713 1.606 1.589 1.606s1.607-.73 1.607-1.606c0-.877-.731-1.59-1.607-1.59z" transform="matrix(.965926 -.258818 .258818 .965926 -50.16157 108.143646)"/><path d="m387.661 250.565c-.877 0-1.589.73-1.589 1.606 0 .878.713 1.59 1.589 1.59s1.607-.713 1.607-1.59c0-.876-.731-1.606-1.607-1.606z" transform="matrix(.965926 -.258819 .258819 .965926 -52.055042 108.928585)"/><path d="m389.693 258.149c-.877 0-1.589.731-1.589 1.607s.713 1.589 1.589 1.589 1.607-.714 1.607-1.589c0-.876-.731-1.607-1.607-1.607z" transform="matrix(.965926 -.258819 .258819 .965926 -53.948686 109.712923)"/><path d="m391.729 265.749c-.876 0-1.589.714-1.589 1.589s.713 1.606 1.589 1.606 1.607-.73 1.607-1.606-.731-1.589-1.607-1.589z" transform="matrix(.965926 -.258819 .258819 .965926 -55.846201 110.498828)"/><path d="m390.211 245.066c-.876 0-1.589.714-1.589 1.589 0 .877.714 1.607 1.589 1.607.876 0 1.607-.73 1.607-1.607 0-.875-.731-1.589-1.607-1.589z" transform="matrix(.965926 -.25882 .25882 .965926 -50.545024 109.401589)"/><path d="m392.243 252.65c-.876 0-1.59.73-1.59 1.607 0 .876.715 1.589 1.59 1.589.876 0 1.607-.714 1.607-1.589 0-.877-.731-1.607-1.607-1.607z" transform="matrix(.965926 -.25882 .25882 .965926 -52.43869 110.185806)"/><path d="m394.277 260.249c-.875 0-1.589.714-1.589 1.591 0 .875.715 1.589 1.589 1.589.877 0 1.607-.714 1.607-1.589 0-.878-.731-1.591-1.607-1.591z" transform="matrix(.965926 -.25882 .25882 .965926 -54.334061 110.971029)"/><path d="m396.31 267.828c-.876 0-1.589.714-1.589 1.589 0 .877.714 1.607 1.589 1.607.876 0 1.607-.73 1.607-1.607 0-.875-.731-1.589-1.607-1.589z" transform="matrix(.965926 -.25882 .25882 .965926 -56.22846 111.755729)"/><path d="m392.854 239.355c-.877 0-1.606.714-1.606 1.59s.729 1.589 1.606 1.589c.876 0 1.589-.714 1.589-1.589 0-.876-.713-1.59-1.589-1.59z" transform="matrix(.965926 -.258819 .258819 .965926 -48.975126 109.885844)"/><path d="m394.888 246.939c-.877 0-1.606.714-1.606 1.59s.729 1.606 1.606 1.606c.876 0 1.589-.73 1.589-1.606s-.713-1.59-1.589-1.59z" transform="matrix(.965926 -.258819 .258819 .965926 -50.870903 110.670991)"/><path d="m396.92 254.523c-.876 0-1.605.73-1.605 1.607 0 .876.729 1.59 1.605 1.59.877 0 1.589-.715 1.589-1.59 0-.877-.713-1.607-1.589-1.607z" transform="matrix(.965926 -.25882 .25882 .965926 -52.764788 111.455861)"/><path d="m398.952 262.107c-.877 0-1.605.73-1.605 1.606 0 .877.728 1.59 1.605 1.59s1.589-.713 1.589-1.59c0-.875-.713-1.606-1.589-1.606z" transform="matrix(.965926 -.258819 .258819 .965926 -54.658138 112.239661)"/><path d="m397.407 241.2c-.877 0-1.589.714-1.589 1.589 0 .876.713 1.606 1.589 1.606.875 0 1.605-.73 1.605-1.606 0-.875-.731-1.589-1.605-1.589z" transform="matrix(.965926 -.25882 .25882 .965926 -49.299134 111.132038)"/><path d="m399.439 248.783c-.876 0-1.589.713-1.589 1.59 0 .876.714 1.606 1.589 1.606.876 0 1.606-.73 1.606-1.606-.001-.877-.731-1.59-1.606-1.59z" transform="matrix(.965926 -.25882 .25882 .965926 -51.192641 111.916503)"/><path d="m401.47 256.366c-.876 0-1.589.731-1.589 1.607 0 .877.713 1.589 1.589 1.589.875 0 1.606-.713 1.606-1.589s-.731-1.607-1.606-1.607z" transform="matrix(.965926 -.258818 .258818 .965926 -53.085808 112.699764)"/><path d="m401.938 242.911c-.878 0-1.607.729-1.607 1.607 0 .876.729 1.589 1.607 1.589.875 0 1.589-.714 1.589-1.589 0-.877-.715-1.607-1.589-1.607z" transform="matrix(.965926 -.25882 .25882 .965926 -49.588329 112.358814)"/><path d="m403.974 250.51c-.878 0-1.607.715-1.607 1.59 0 .876.729 1.607 1.607 1.607.876 0 1.589-.731 1.589-1.607s-.714-1.59-1.589-1.59z" transform="matrix(.965926 -.25882 .25882 .965926 -51.485814 113.144576)"/><path d="m406.006 258.094c-.878 0-1.607.73-1.607 1.607 0 .876.729 1.589 1.607 1.589.875 0 1.589-.713 1.589-1.589s-.715-1.607-1.589-1.607z" transform="matrix(.965926 -.258819 .258819 .965926 -53.3792 113.928474)"/><path d="m403.507 263.966c-.876 0-1.589.714-1.589 1.59s.714 1.606 1.589 1.606c.876 0 1.606-.729 1.606-1.606s-.731-1.59-1.606-1.59z" transform="matrix(.965926 -.25882 .25882 .965926 -54.983681 113.486727)"/></g></svg>