<svg xmlns="http://www.w3.org/2000/svg"><g fill="#fff"><path d="m573.944.968h26.056l-36.734 57.146-5.959 44.582h-23.547l6.901-50.87-23.547-50.858h25.43l12.563 28.89z"/><path d="m299.546 62.507h31.074l3.141-22.605h-30.764l2.203-16.329h35.781l3.461-22.605h-59.34l-14.129 101.728h59.022l3.141-22.614h-35.79z"/><path d="m118.703 52.454 7.85-21.033 2.514 21.033h-10.361zm-8.476 20.094h21.347l3.772 30.139h38.614l17.898-55.257 8.792 55.257h20.409l22.605-58.395 3.768 58.395h22.602l-6.279-101.722h-27.001l-21.039 53.685-8.164-53.685h-24.174l-27.629 83.513-10.361-83.513h-30.139l-33.597 84.452 4.396-32.963h-40.82l-2.827 20.091h17.898l-1.258 6.907c-3.138 1.882-10.358 2.199-13.185 2.199-2.824 0-23.86-1.882-22.919-24.49.935-22.602 31.074-43.639 66.865-32.022l3.457-21.664c-23.863-8.161-86.533-3.593-92.936 52.43-3.765 32.967 26.377 48.665 46.468 48.354 11.616.628 24.805-3.768 29.512-6.282l-1.569 4.71h23.863l11.616-30.139z"/><path d="m491.682.029c-16.326-.63-39.875 8.79-47.723 46.779-7.848 37.987 13.185 53.372 32.652 55.885 19.467 2.511 46.782-9.733 51.803-46.151 5.03-36.421-12.878-55.571-36.732-56.513zm-2.507 21.664c6.593 0 20.719 4.396 17.264 30.764-3.451 26.373-19.777 29.514-25.742 28.887-5.969-.631-18.212-4.71-14.758-28.887 3.461-24.171 16.33-31.081 23.242-30.764z"/><path d="m392.467 39.902h13.188c9.731 0 11.617-6.279 11.927-8.789.314-2.513-2.51-7.537-7.531-7.537h-15.384l-2.191 16.326zm-5.651 40.186h17.898c9.73 0 11.927-7.534 12.241-10.047.314-2.51-2.511-7.534-7.534-7.534h-20.092l-2.51 17.581zm-26.365 22.605 14.13-101.722h43.324c10.364 0 25.432 11.933 23.55 27.942-1.883 16.013-6.907 16.957-10.362 19.467 5.341 4.707 10.675 12.241 8.479 26.371-2.2 14.13-13.816 27.942-34.221 27.942h-44.897z"/><path d="m284.502 135.059c-.911-2.761-3.319-5.392-3.319-5.392s-3.615-4.694-10.72-6.297c-6.083-1.273-10.862 1.409-10.862 1.409s-4.339 1.738-7.601 5.335c-5.195 4.999-6.689 12.298-6.689 12.298s-1.991 6.354 1.162 11.387l3.427 4.146c4.837 4.037 10.005 4.447 10.005 4.447s4.173.941 9.04-.329c4.254-.86 7.35-2.96 7.35-2.96s7.048-3.895 8.982-11.854zm-10.977 13.237s-2.815 4.921-9.006 4.338c-7.269-.745-8.123-7.129-8.123-7.129s-.998-4.698 3.479-8.789c4.535-3.811 9.26-3.232 9.26-3.232s3.177.302 4.81 5.555c2.1 6.689-.42 9.257-.42 9.257"/><path d="m307.991 148.38c-2.326-.513-6.053.441-6.053.441s-5.192 1.907-5.995 1.879c-.305-.44-.965-8.928-.775-12.325.111-5.998-.39-10.889-.39-10.889s-.247-5.778-3.343-9.203c-3.647-3.678-6.191-2.1-7.654-1.219-3.512 3.153-1.88 6.991-1.88 6.991l1.825 5.172s.884 2.211.776 5.829l.772 12.19c0 1.632 1.328 12.603 1.328 12.603s.136 3.566 3.563 4.2c3.512.582 6.964-1.162 8.43-1.853 1.464-.688 3.398-1.297 3.398-1.297s1.605-.359 3.207-.495c3.759-.362 5.111-1.023 5.111-1.023s1.454-.22 2.435-1.605c.978-1.385 2.16-7.875-4.755-9.396"/><path d="m246.473 153.796c-2.471-.739-5.304-.247-5.304-.247s-8.017.772-12.19-.112c-6.466-1.131-6.249-8.098-6.249-8.098s-.217-4.617 3.678-10.862c4.81-7.712 10.117-9.094 10.117-9.094s1.322-.495 2.568.166c.775 4.474 5.111 4.447 5.111 4.447s6.249.417 5.941-7.154c-.718-6.221-6.714-7.075-9.23-7.657-7.54-1.355-12.437 2.682-12.437 2.682s-5.057 2.734-11.109 12.268c-4.122 5.914-4.617 10.56-4.617 10.56s-.497 1.105-.304 6.026c-.109 3.841 1.33 6.632 1.33 6.632s2.182 6.61 9.091 9.317c4.2 1.741 10.337 1.713 10.337 1.713s5.941-.084 10.5-.331c2.489.193 3.678-1.108 3.678-1.108s2.788-1.822 2.513-5.002c0 0-.54-3.283-3.424-4.146"/><path d="m346.88 133.593c-4.834-7.902-13.348-9.091-13.348-9.091s-2.71-.914-8.512-.142c-10.889 2.076-14.676 10.449-14.676 10.449s-3.898 6.134-2.35 13.571l4.758 9.396c3.509 3.289 4.945 3.289 5.166 3.485 4.643 2.1 10.032.884 10.032.884s6.801-.664 13.019-5.501c4.972-3.648 7.13-9.009 7.13-9.009l.661-7.196zm-13.237 16.139c-7.82 4.701-12.744-.441-12.744-.441s-2.182-1.439-2.653-5.805c-.335-5.057 4.701-7.682 4.701-7.682s2.652-1.632 5.968-1.382c3.316.248 4.363.028 7.049 2.019 2.54 2.293 2.374 3.977 2.374 3.977s.914 5.696-4.695 9.314"/><path d="m348.096 147.635s.166 4.42-.525 5.5c-.939 2.016-.8 3.977-.8 3.977s-.639 5.971 6.276 6.964c4.749-.027 5.328-3.98 5.413-5.667.274-1.324.166-7.488.166-7.488l6.164 5.029s4.475 3.76 7.106 5.941c2.736 2.155 3.424 2.544 3.424 2.544s.582.688 2.679.44c1.69.03 3.238-1.493 3.238-1.493s1.958-1.433 2.456-3.95c.606-2.984-1.714-4.45-1.714-4.45s-8.563-6.91-14.368-11.665c3.895-2.127 5.775-3.59 5.775-3.59s5.419-3.594 6.578-9.094c1.605-6.056-2.957-8.43-2.957-8.43s-2.848-2.043-5.25-3.123c-6.056-2.957-11.692-2.351-11.692-2.351s-8.014-.552-13.236 5.89c-2.405 3.123-.912 7.214-.912 7.214s.296.655.966 3.757c1.34 6.245 1.213 14.045 1.213 14.045zm10.503-12.274-.525-7.211s5.057-.112 7.157.247c4.148.634 3.925 1.798 3.925 1.798s-.139 1.464-3.289 2.903c-3.424 1.656-7.268 2.263-7.268 2.263"/></g></svg>