<svg preserveAspectRatio="none" xmlns="http://www.w3.org/2000/svg"><path d="m509.406 130.928v.783l.932 160.723h1.57l-.934-159.959h115.022l-.933 159.959h1.547l.934-160.723v-.783h-.763-116.59z" fill="#1e1e1e" transform="matrix(.965926 -.258819 .258819 .965926 -35.416775 154.345211)"/><path d="m549.252 297.072-1.548.17 13.064 116.889.084.698h.7 29.179v-1.546h-28.502z" fill="#1e1e1e" transform="matrix(.965926 -.258819 .258819 .965926 -72.731125 159.452975)"/><path d="m659.933 278.109-12.979 116.21h-28.457v1.547h29.159.699l.064-.699 13.062-116.889z" fill="#1e1e1e" transform="matrix(.965926 -.258819 .258819 .965926 -65.411667 177.123828)"/><path d="m561.284 313.978c-.984 0-1.824.787-1.824 1.781v15.29c0 .992.84 1.78 1.824 1.78h20.379c.683 0 1.194-.43 1.506-.996h.318v-.784-15.29c0-.994-.818-1.781-1.803-1.781zm0 1.547h20.4c.169 0 .255.108.255.234v14.505.785c0 .125-.106.233-.276.233h-20.379c-.17 0-.276-.108-.276-.233v-15.29c0-.126.107-.234.276-.234z" fill="#1e1e1e" transform="matrix(.965926 -.258819 .258819 .965926 -64.230558 158.92815)"/><path d="m533.32 171.163c0 .392-.328.71-.732.71h-21.457c-.406 0-.734-.318-.734-.71v-16.314c0-.393.328-.709.734-.709h21.457c.404 0 .732.318.732.709z" fill="none" stroke="#1e1e1e" stroke-width="1.8313" transform="matrix(.965926 -.258819 .258819 .965926 -24.407286 140.621177)"/><path d="m564.651 162.767c0 .392-.329.71-.734.71h-21.456c-.404 0-.732-.318-.732-.71v-16.313c0-.393.328-.709.732-.709h21.456c.406 0 .734.317.734.709z" fill="none" stroke="#1e1e1e" stroke-width="1.8313" transform="matrix(.965926 -.258819 .258819 .965926 -21.166777 148.444288)"/><path d="m595.983 154.373c0 .392-.329.71-.733.71h-21.458c-.404 0-.734-.318-.734-.71v-16.314c0-.393.33-.709.734-.709h21.457c.405 0 .733.318.733.709v16.314z" fill="none" stroke="#1e1e1e" stroke-width="1.8313" transform="matrix(.965926 -.258819 .258819 .965926 -17.92656 156.267169)"/><g fill="#1e1e1e"><path d="m586.704 307.164c-.984 0-1.824.787-1.824 1.781v15.29c0 .992.84 1.78 1.824 1.78h20.4c.682 0 1.174-.431 1.485-.996h.339v-.784-15.29c0-.992-.84-1.781-1.824-1.781zm0 1.547h20.4c.169 0 .256.107.256.234v14.505.785c0 .126-.087.233-.256.233h-20.4c-.169 0-.277-.108-.277-.233v-15.29c.002-.126.108-.234.277-.234z" transform="matrix(.965926 -.258819 .258819 .965926 -61.600366 165.27756)"/><path d="m611.633 300.486c-.984 0-1.823.789-1.823 1.781v15.29c0 .992.839 1.781 1.823 1.781h20.399c.984 0 1.804-.789 1.804-1.781v-15.29c0-.992-.82-1.781-1.804-1.781zm0 1.548h20.399c.168 0 .254.106.254.233v15.29c0 .126-.086.233-.254.233h-20.399c-.171 0-.276-.107-.276-.233v-15.29c0-.127.105-.233.276-.233z" transform="matrix(.965926 -.258819 .258819 .965926 -59.022999 171.499553)"/><path d="m567.294 336.408c-.984 0-1.823.788-1.823 1.78v15.29c0 .993.839 1.782 1.823 1.782h20.379c.685 0 1.196-.448 1.506-1.017h.319v-.763-15.291c0-.993-.819-1.78-1.803-1.78h-20.401zm0 1.547h20.401c.169 0 .254.107.254.232v14.506.785c0 .127-.106.232-.276.232h-20.379c-.17 0-.275-.105-.275-.232v-15.291c0-.125.106-.232.275-.232z" transform="matrix(.965926 -.258819 .258819 .965926 -69.831093 161.247918)"/><path d="m592.715 329.594c-.985 0-1.825.788-1.825 1.78v15.29c0 .993.84 1.782 1.825 1.782h20.399c.685 0 1.176-.45 1.485-1.017h.339v-.763-15.291c0-.992-.84-1.78-1.824-1.78h-20.399zm0 1.547h20.399c.169 0 .256.107.256.232v14.506.785c0 .128-.087.232-.256.232h-20.399c-.17 0-.277-.105-.277-.232v-15.291c.001-.125.107-.232.277-.232z" transform="matrix(.965926 -.258819 .258819 .965926 -67.201017 167.597376)"/><path d="m617.643 322.916c-.984 0-1.822.79-1.822 1.781v15.289c0 .993.838 1.783 1.822 1.783h20.4c.984 0 1.803-.79 1.803-1.783v-15.289c0-.991-.819-1.781-1.803-1.781zm0 1.547h20.4c.167 0 .254.107.254.233v15.29c0 .129-.087.233-.254.233h-20.4c-.171 0-.275-.104-.275-.233v-15.29c0-.126.104-.233.275-.233z" transform="matrix(.965926 -.258819 .258819 .965926 -64.623643 173.819479)"/><path d="m572.845 357.115c-.984 0-1.823.809-1.823 1.803v15.269c0 .992.839 1.801 1.823 1.801h20.379c.683 0 1.194-.453 1.506-1.017h.319v-.784-15.269c0-.994-.819-1.803-1.803-1.803zm0 1.548h20.401c.169 0 .254.128.254.255v14.506.763c0 .126-.106.232-.276.232h-20.379c-.17 0-.275-.106-.275-.232v-15.269c0-.127.106-.255.275-.255z" transform="matrix(.965926 -.258819 .258819 .965926 -75.004037 163.390557)"/><path d="m598.266 350.301c-.985 0-1.825.809-1.825 1.803v15.269c0 .992.84 1.801 1.825 1.801h20.399c.683 0 1.174-.453 1.485-1.017h.34v-.784-15.269c0-.992-.841-1.803-1.825-1.803zm0 1.548h20.399c.169 0 .256.128.256.255v14.506.763c0 .127-.087.232-.256.232h-20.399c-.17 0-.277-.106-.277-.232v-15.269c.001-.127.107-.255.277-.255z" transform="matrix(.965926 -.258819 .258819 .965926 -72.373931 169.740121)"/><path d="m623.194 343.624c-.984 0-1.822.812-1.822 1.803v15.269c0 .992.838 1.801 1.822 1.801h20.4c.984 0 1.803-.809 1.803-1.801v-15.269c0-.991-.819-1.803-1.803-1.803zm0 1.548h20.4c.167 0 .254.128.254.255v15.269c0 .128-.087.232-.254.232h-20.4c-.171 0-.275-.104-.275-.232v-15.269c0-.127.104-.255.275-.255z" transform="matrix(.965926 -.258819 .258819 .965926 -69.796704 175.962132)"/><path d="m578.314 377.538c-.984 0-1.823.811-1.823 1.802v15.27c0 .991.839 1.78 1.823 1.78h20.38c.682 0 1.193-.433 1.505-.997h.319v-.783-15.27c0-.991-.818-1.802-1.803-1.802zm0 1.548h20.401c.169 0 .255.127.255.254v14.483.787c0 .125-.106.232-.276.232h-20.38c-.169 0-.275-.107-.275-.232v-15.269c0-.128.106-.255.275-.255z" transform="matrix(.965926 -.258819 .258819 .965926 -80.100818 165.501572)"/><path d="m603.736 370.724c-.985 0-1.825.811-1.825 1.802v15.27c0 .991.84 1.78 1.825 1.78h20.399c.683 0 1.174-.434 1.485-.997h.34v-.783-15.27c0-.991-.841-1.802-1.825-1.802zm0 1.548h20.399c.169 0 .256.126.256.254v14.484.786c0 .125-.087.232-.256.232h-20.399c-.17 0-.277-.107-.277-.232v-15.268c.001-.129.107-.256.277-.256z" transform="matrix(.965926 -.258819 .258819 .965926 -77.470689 171.851433)"/><path d="m628.664 364.047c-.984 0-1.822.811-1.822 1.802v15.27c0 .991.838 1.781 1.822 1.781h20.4c.984 0 1.803-.79 1.803-1.781v-15.27c0-.991-.819-1.802-1.803-1.802zm0 1.548h20.4c.167 0 .254.126.254.254v15.27c0 .125-.087.231-.254.231h-20.4c-.171 0-.275-.106-.275-.231v-15.27c0-.128.104-.254.275-.254z" transform="matrix(.965926 -.258819 .258819 .965926 -74.893597 178.073431)"/><path d="m602.466 391.712v.784 11.494.784h.763 30.474.784v-.784-11.494-.784h-.784-30.474zm1.548 1.547h28.903v9.946h-28.903z" transform="matrix(.965926 -.258819 .258819 .965926 -81.998767 173.643205)"/><path d="m527.903 272.939v1.571h114.725v-1.571z" transform="matrix(.965926 -.258819 .258819 .965926 -50.902659 160.804715)"/><path d="m532.409 289.757v1.57h114.726v-1.57z" transform="matrix(.965926 -.258819 .258819 .965926 -55.101797 162.544112)"/><path d="m573.254 247.769c-.032-.463-.409-.824-.871-.824-.464 0-.838.361-.871.824l-.052.773-.772-.048c-3.651-.228-7.106-1.188-10.217-2.733l-.695-.344.343-.694c.064-.132.094-.267.094-.398-.001-.307-.155-.594-.436-.757-.141-.081-.283-.116-.431-.116-.285 0-.567.14-.737.397l-.431.645-.647-.43c-2.958-1.973-5.501-4.517-7.475-7.476l-.43-.645.645-.431c.255-.171.395-.453.395-.739 0-.146-.035-.291-.115-.43-.165-.283-.453-.434-.759-.436-.133 0-.265.029-.392.092l-.697.346-.345-.696c-1.545-3.111-2.504-6.565-2.731-10.216l-.05-.772.773-.052c.463-.03.823-.407.823-.869 0-.465-.36-.841-.823-.873l-.773-.052.05-.772c.226-3.652 1.186-7.105 2.731-10.216l.345-.693.693.343c.128.064.264.093.396.093.306-.002.596-.155.757-.435.083-.142.117-.286.117-.434 0-.284-.14-.566-.394-.735l-.648-.431.431-.646c1.973-2.96 4.516-5.505 7.475-7.476l.646-.433.433.648c.169.253.449.396.735.396.148 0 .294-.037.433-.116.28-.163.435-.452.435-.757 0-.136-.029-.268-.091-.395l-.345-.696.695-.345c3.111-1.545 6.566-2.503 10.215-2.733l.773-.049.052.775c.034.462.408.825.872.823.46.002.84-.361.871-.823l.052-.772.772.048c3.651.228 7.105 1.186 10.217 2.732l.702.348-.357.701c-.06.121-.089.25-.089.387.001.304.154.592.436.756.136.08.285.116.433.116.287-.001.565-.142.735-.396l.431-.648.649.433c2.957 1.973 5.5 4.516 7.473 7.475l.433.648-.65.432c-.254.167-.395.448-.395.735 0 .146.036.292.12.433.16.282.447.433.755.434.135 0 .268-.029.396-.091l.693-.344.348.694c1.545 3.111 2.504 6.563 2.73 10.214l.051.774-.773.052c-.463.029-.824.406-.824.871 0 .463.359.839.824.871l.771.05-.049.774c-.226 3.652-1.185 7.105-2.73 10.216l-.348.696-.695-.347c-.129-.064-.259-.093-.394-.093-.306.002-.591.153-.757.435l-.673-.387.67.394c-.079.134-.115.277-.115.426 0 .283.142.565.398.735l.65.43-.432.649c-1.975 2.959-4.518 5.502-7.477 7.475l-.647.429-.431-.643c-.174-.259-.452-.396-.735-.396-.146 0-.294.035-.437.116-.28.162-.431.449-.434.758 0 .131.029.264.094.393l.344.696-.694.347c-3.11 1.545-6.565 2.503-10.216 2.73l-.773.048zm-3.114-.876c.364-.879 1.226-1.502 2.243-1.502 1.015 0 1.878.621 2.242 1.502 2.979-.26 5.803-1.037 8.391-2.242-.014-.108-.021-.216-.021-.324-.001-.833.434-1.656 1.215-2.104.378-.219.798-.326 1.21-.326.535 0 1.059.178 1.486.508 2.383-1.679 4.464-3.759 6.143-6.142-.331-.428-.51-.953-.51-1.488 0-.406.104-.828.328-1.209h-.001c.448-.778 1.268-1.216 2.104-1.214.108 0 .216.006.325.022 1.204-2.589 1.981-5.416 2.244-8.393-.88-.364-1.502-1.227-1.502-2.243 0-1.015.621-1.88 1.502-2.244-.263-2.977-1.04-5.805-2.245-8.393-.109.014-.216.021-.324.021-.835.003-1.656-.434-2.103-1.21-.22-.38-.328-.801-.328-1.21 0-.535.179-1.06.508-1.487-1.679-2.383-3.76-4.465-6.143-6.143-.427.329-.951.506-1.485.506-.412 0-.832-.106-1.209-.325-.78-.448-1.216-1.267-1.215-2.102 0-.108.008-.217.021-.326-2.588-1.203-5.415-1.98-8.392-2.243-.364.879-1.226 1.503-2.241 1.503-1.018 0-1.88-.624-2.245-1.503-2.978.263-5.804 1.04-8.394 2.245.014.107.021.216.021.324.002.833-.434 1.652-1.211 2.102-.381.219-.8.326-1.211.325-.534 0-1.059-.177-1.485-.506-2.384 1.678-4.464 3.76-6.142 6.145.328.426.505.95.505 1.484 0 .412-.107.831-.325 1.211-.449.778-1.268 1.213-2.105 1.211-.108 0-.215-.008-.323-.022-1.204 2.59-1.982 5.416-2.243 8.394.879.363 1.5 1.228 1.501 2.245 0 1.015-.622 1.877-1.501 2.243.263 2.976 1.04 5.802 2.244 8.391.107-.015.215-.022.323-.022.836-.001 1.653.436 2.105 1.214.22.381.324.799.324 1.209 0 .536-.177 1.06-.507 1.486 1.68 2.384 3.759 4.465 6.144 6.144.426-.33.951-.507 1.486-.507.408 0 .83.104 1.21.325.778.448 1.213 1.269 1.211 2.103 0 .109-.008.217-.022.326 2.594 1.202 5.42 1.981 8.397 2.241z" transform="matrix(.965926 -.258819 .258819 .965926 -37.886403 155.69909)"/><path d="m572.39 176.425c-25.016 0-45.318 20.302-45.318 45.319 0 25.016 20.301 45.316 45.318 45.316s45.296-20.3 45.296-45.316c0-25.017-20.28-45.319-45.296-45.319zm0 1.548c24.176 0 43.747 19.594 43.747 43.771 0 24.175-19.571 43.747-43.747 43.747s-43.77-19.572-43.77-43.747c0-24.177 19.594-43.771 43.77-43.771z" transform="matrix(.965926 -.258819 .258819 .965926 -37.887829 155.698205)"/><path d="m572.387 182.173c-21.839 0-39.571 17.731-39.571 39.571 0 21.839 17.732 39.549 39.571 39.549 21.84 0 39.55-17.711 39.55-39.549 0-21.84-17.71-39.571-39.55-39.571zm0 1.569c21 0 38.001 17.001 38.001 38.002 0 20.998-17 38-38.001 38-21 0-38.022-17.002-38.022-38-.001-21.001 17.022-38.002 38.022-38.002z" transform="matrix(.965926 -.258819 .258819 .965926 -37.885457 155.69723)"/><path d="m572.39 202.318c-10.722 0-19.446 8.703-19.446 19.425 0 10.721 8.724 19.424 19.446 19.424 10.721 0 19.425-8.703 19.425-19.424 0-10.722-8.704-19.425-19.425-19.425zm0 1.547c9.883 0 17.877 7.996 17.877 17.878s-7.994 17.877-17.877 17.877c-9.882 0-17.877-7.995-17.877-17.877s7.995-17.878 17.877-17.878z" transform="matrix(.965926 -.258819 .258819 .965926 -37.887827 155.698496)"/><path d="m500.723 136.838v.763 36.475.785h.786 104.036.786v-.785-36.475-.762h-.786-104.036-.786zm1.549 1.548h102.488v34.926h-102.488z" transform="matrix(.965926 -.258819 .258819 .965926 -21.475839 148.573695)"/><path d="m504.467 140.914v.783 25.703.784h.785 95.851.785v-.784-25.703-.783h-.785-95.851zm1.549 1.568h94.303v24.133h-94.303z" transform="matrix(.965926 -.258819 .258819 .965926 -21.151159 148.438934)"/><path d="m492.281 147.951-.807 1.337 6.363 3.943.827-1.335z" transform="matrix(.965926 -.258819 .258819 .965926 -22.106756 133.264602)"/><path d="m499.543 150.539-1.081 1.103 4.092 4.05 1.08-1.103z" transform="matrix(.965926 -.258819 .258819 .965926 -22.556416 134.898107)"/><path d="m604.289 119.437-6.277 3.923.828 1.315 6.277-3.923z" transform="matrix(.965926 -.258819 .258819 .965926 -11.092599 159.855386)"/><path d="m598.928 124.709-3.923 4.029 1.103 1.103 3.944-4.051z" transform="matrix(.965926 -.258819 .258819 .965926 -12.58091 158.988469)"/><path d="m604.245 153.534-1.337.807 3.944 6.615 1.336-.785z" transform="matrix(.965926 -.258819 .258819 .965926 -20.064452 162.085268)"/><path d="m510.476 179.38-4.092 6.723 1.336.827 4.093-6.743z" transform="matrix(.965926 -.258819 .258819 .965926 -30.056894 138.00531)"/><path d="m612.83 135.037v1.547h1.717c.264 0 .473.051.593.171.123.119.328.449.193 1.442-.096.683-.2 2.364-.319 4.707-.12 2.345-.255 5.277-.382 8.207-.252 5.86-.48 11.786-.551 12.786-.08 1.114-.134 2.076-.339 2.652-.203.575-.361.819-1.231.911l.171 1.527c1.307-.139 2.183-.949 2.524-1.908.339-.96.348-2.013.423-3.075.086-1.177.3-6.952.552-12.809.126-2.929.264-5.872.382-8.207.119-2.335.235-4.137.297-4.581.174-1.259-.055-2.196-.617-2.756-.558-.56-1.258-.615-1.694-.615h-1.719z" transform="matrix(.965926 -.258819 .258819 .965926 -18.397601 164.279282)"/><path d="m498.601 166.194c-.437 0-1.137.054-1.697.614-.559.561-.789 1.498-.615 2.758.062.444.179 2.245.297 4.58.12 2.336.257 5.279.382 8.206.253 5.857.468 11.634.551 12.809.076 1.064.084 2.117.425 3.076.339.958 1.215 1.768 2.523 1.908l.17-1.527c-.869-.092-1.026-.336-1.23-.912s-.259-1.537-.339-2.65c-.071-1.001-.298-6.927-.551-12.788-.126-2.93-.264-5.862-.382-8.207-.12-2.343-.224-4.023-.318-4.706-.137-.993.07-1.323.191-1.442.12-.121.33-.17.593-.17h1.717v-1.548h-1.717z" transform="matrix(.965926 -.258819 .258819 .965926 -30.424009 135.245699)"/><path d="m225.896 280.413h8.928v3.181h-8.928z" transform="matrix(.965929 -.258823 .258839 .965921 300.773495 190.342267)"/><path d="m271.095 280.416h8.928v3.181h-8.928z" transform="matrix(.965927 -.258819 .258817 .96593 300.781098 190.33483)"/></g></svg>