<svg xmlns="http://www.w3.org/2000/svg"><g fill="#1e1e1e"><path d="m319.619 87.672c-50.986 0-92.332 41.346-92.332 92.328 0 50.986 41.346 92.332 92.332 92.332s92.332-41.345 92.332-92.332c0-50.985-41.344-92.332-92.332-92.332zm0 1.915c49.951 0 90.417 40.465 90.417 90.417s-40.465 90.418-90.417 90.418c-49.955 0-90.421-40.46-90.421-90.419 0-49.948 40.466-90.414 90.417-90.414z" transform="matrix(.965926 -.258819 .258819 .965926 -35.696666 88.856799)"/><path d="m319.621 141.053c-21.499 0-38.955 17.454-38.955 38.955 0 21.5 17.455 38.954 38.955 38.954 21.501 0 38.956-17.453 38.956-38.954 0-21.5-17.454-38.955-38.956-38.955zm0 1.915c20.465 0 37.041 16.574 37.041 37.04 0 20.465-16.575 37.04-37.041 37.04-20.464 0-37.04-16.575-37.04-37.04 0-20.464 16.576-37.04 37.04-37.04z" transform="matrix(.965926 -.258819 .258819 .965926 -35.698513 88.857655)"/><path d="m306.045 120.426 4.698 17.833h-9.395z" transform="matrix(.965926 -.258819 .258819 .965926 -23.048052 83.617616)"/><path d="m268.242 146.971 15.947 9.305-6.612 6.642z" transform="matrix(.965926 -.258819 .258819 .965926 -30.69075 76.769368)"/><path d="m277.877 188.888v9.396l-17.862-4.698z" transform="matrix(.965926 -.258819 .258819 .965926 -40.939604 76.204562)"/><path d="m295.923 215.439 6.612 6.641-15.947 9.305z" transform="matrix(.965926 -.258819 .258819 .965926 -47.786325 83.850681)"/><path d="m328.497 221.747h9.395l-4.698 17.833z" transform="matrix(.965926 -.25882 .25882 .965926 -48.346887 94.097053)"/><path d="m361.69 197.098 9.275 15.916-15.916-9.275z" transform="matrix(.965926 -.258819 .258819 .965926 -40.703224 100.94021)"/><path d="m361.37 161.727 17.892 4.696-17.892 4.698z" transform="matrix(.965926 -.258819 .258819 .965926 -30.455485 101.515558)"/><path d="m352.627 128.66-9.275 15.918-6.643-6.642z" transform="matrix(.965926 -.258819 .258819 .965926 -23.615318 93.861795)"/><g transform="matrix(1.002504 -.26862 .26862 1.002504 -10.011306 195.94313)"><path d="m547.962 34.457c-18.162 0-32.892 14.731-32.892 32.892 0 18.162 14.731 32.922 32.892 32.922 18.163 0 32.893-14.76 32.893-32.922-.009-18.161-14.742-32.892-32.896-32.892zm0 1.845c17.165 0 31.048 13.884 31.048 31.047 0 17.165-13.883 31.077-31.048 31.077-17.164 0-31.047-13.912-31.047-31.077 0-17.164 13.883-31.047 31.052-31.047z"/><path d="m547.962 44.979c-12.345 0-22.369 10.026-22.369 22.371s10.024 22.398 22.369 22.398c12.346 0 22.37-10.054 22.37-22.398s-10.024-22.371-22.37-22.371zm0 1.844c11.349 0 20.525 9.178 20.525 20.526s-9.177 20.554-20.525 20.554-20.524-9.206-20.524-20.554 9.176-20.526 20.524-20.526z"/></g><g transform="matrix(1.002504 -.26862 .26862 1.002504 -484.848389 323.702087)"><path d="m547.962 34.457c-18.162 0-32.892 14.731-32.892 32.892 0 18.162 14.731 32.922 32.892 32.922 18.163 0 32.893-14.76 32.893-32.922-.009-18.161-14.742-32.892-32.896-32.892zm0 1.845c17.165 0 31.048 13.884 31.048 31.047 0 17.165-13.883 31.077-31.048 31.077-17.164 0-31.047-13.912-31.047-31.077 0-17.164 13.883-31.047 31.052-31.047z"/><path d="m547.962 44.979c-12.345 0-22.369 10.026-22.369 22.371s10.024 22.398 22.369 22.398c12.346 0 22.37-10.054 22.37-22.398s-10.024-22.371-22.37-22.371zm0 1.844c11.349 0 20.525 9.178 20.525 20.526s-9.177 20.554-20.525 20.554-20.524-9.206-20.524-20.554 9.176-20.526 20.524-20.526z"/></g></g></svg>