<svg xmlns="http://www.w3.org/2000/svg"><g fill="#fff"><path d="m127.683 27.12c.543 1.95 1.425 5.151 2.187 9.414.762 4.269 1.401 9.606 1.455 15.821.054 6.226-.48 13.336-2.07 21.145-1.593 7.818-4.242 16.341-8.425 25.377-4.131 8.934-10.01 17.16-17.273 24.48-7.275 7.329-15.936 13.74-25.614 19.038-9.693 5.301-20.397 9.482-31.746 12.338-11.355 2.857-23.346 4.384-35.598 4.384-.165 0-.333 0-.498 0-.168 0-.333 0-.498-.003-.168 0-.333 0-.501-.003-.165 0-.333-.003-.498-.006 1.992-1.422 3.6-2.635 4.866-3.979 1.269-1.344 2.202-2.817 2.847-4.761.644-1.943 1.004-4.355 1.127-7.577.127-3.216.015-7.239-.279-12.402-.294-5.16-.65-12.511-1.046-20.808-.39-8.283-.822-17.505-1.257-26.433-.435-8.91-.879-17.529-1.305-24.639-.423-7.102-.831-12.702-1.194-15.597-.306-2.463-.678-4.608-1.149-6.438s-1.044-3.345-1.749-4.557c-.708-1.209-1.554-2.109-2.571-2.709-1.02-.6-2.214-.897-3.615-.897-.246 0-.498.009-.759.03-.258.018-.525.045-.798.081s-.552.084-.84.138-.579.117-.882.192c8.256-6.372 15.513-11.353 22.071-15.237 6.552-3.882 12.411-6.678 17.877-8.682 5.463-1.998 10.535-3.207 15.516-3.915 4.98-.708 9.867-.915 14.964-.915 1.596 0 3.213.021 4.857.051 1.647.033 3.321.078 5.034.123s3.467.093 5.264.135c1.8.042 3.649.075 5.551.096 7.98.081 14.295.906 19.278 2.112 4.989 1.206 8.648 2.793 11.321 4.389 2.674 1.596 4.36 3.204 5.395 4.455 1.032 1.248 1.416 2.139 1.485 2.301-.804.69-1.401 1.386-1.809 2.169s-.63 1.649-.681 2.67c-.054 1.026.066 2.205.33 3.615.267 1.413.684 3.057 1.23 5.004zm-31.704 77.052c3.387-6.24 5.724-12.843 7.212-19.534 1.488-6.683 2.124-13.454 2.109-20.048-.018-6.582-.687-12.985-1.815-18.942-1.125-5.952-2.709-11.457-4.557-16.257-1.578-4.104-3.393-7.362-5.424-9.945-2.028-2.581-4.275-4.482-6.724-5.874-2.451-1.389-5.102-2.268-7.94-2.799s-5.868-.717-9.066-.717c-.537 0-1.08.006-1.626.015-.546.012-1.101.024-1.656.042s-1.119.039-1.683.063c-.567.024-1.137.051-1.713.081-7.785.393-13.473 2.217-17.625 4.959-4.158 2.742-6.777 6.405-8.415 10.467-1.644 4.065-2.304 8.532-2.541 12.882-.24 4.35-.051 8.586 0 12.176.057 3.598.414 11.203.921 20.671.507 9.492 1.17 20.862 1.833 31.935.666 11.106 1.335 21.912 1.857 30.216.519 8.319.891 14.118.96 15.174 5.214-.42 9.968-.963 14.505-2.16 4.536-1.194 8.853-3.042 13.194-6.066s8.7-7.221 13.326-13.113c4.616-5.887 9.495-13.458 14.868-23.226"/><path d="m195.057 150.908c.09-.042.594-.261 1.302-.708.708-.449 1.623-1.127 2.532-2.09.909-.96 1.815-2.205 2.511-3.783.696-1.575 1.179-3.486 1.248-5.781.066-2.292.096-7.578.096-14.277.003-6.685-.021-14.772-.06-22.683-.033-7.899-.084-15.622-.129-21.612-.048-5.982-.093-10.239-.123-11.223-.396-.012-.798-.021-1.209-.027-.411-.009-.828-.015-1.254-.021-.426-.003-.858-.006-1.296-.009-.435-.003-.882-.003-1.329-.003-3.126 0-6.511.057-9.901.141-3.387.087-6.785.204-9.938.327-3.15.123-6.06.249-8.475.354-2.412.105-4.332.186-5.508.222-1.182 2.994-3.174 7.542-4.965 13.344-1.792 5.811-3.382 12.885-3.748 20.919-.369 8.055.492 17.075 3.607 26.766 3.12 9.711 8.508 20.099 17.196 30.858-3.171-.501-6.447-2.274-9.666-4.894-3.219-2.619-6.375-6.084-9.304-9.98-2.925-3.894-5.625-8.217-7.934-12.552-2.307-4.329-4.221-8.673-5.586-12.622-1.359-3.945-2.481-8.183-3.294-12.638-.813-4.446-1.311-9.102-1.431-13.881-.12-4.776.141-9.676.855-14.61.711-4.929 1.875-9.9 3.561-14.82 1.68-4.914 3.324-8.523 4.869-11.31 1.542-2.788 2.984-4.752 4.256-6.375 1.272-1.62 2.376-2.901 3.243-4.314.87-1.413 1.503-2.964 1.83-5.121s.07-3.774-.513-4.989c-.579-1.212-1.482-2.019-2.436-2.559-.954-.537-1.965-.807-2.763-.942-.798-.132-1.383-.132-1.488-.132 7.518-.489 15.64-.966 23.659-1.413 8.022-.447 15.941-.861 23.058-1.227 7.116-.366 13.428-.681 18.234-.924 4.802-.243 8.099-.414 9.185-.495.048-.003.096-.006.141-.009.048-.003.093-.006.138-.009.045 0 .09-.003.135-.003.042-.003.087-.003.129-.003.921 0 1.536.21 1.899.546.366.339.48.804.399 1.317-.081.516-.357 1.08-.774 1.611s-.975 1.032-1.617 1.422c-.672.408-1.146.873-1.479 1.416s-.528 1.164-.636 1.875c-.111.711-.138 1.512-.141 2.424s.018 1.929.009 3.072c-.009 1.14-.069 7.398-.15 16.269-.081 8.886-.186 20.406-.291 32.028-.108 11.652-.216 23.412-.3 32.705-.087 9.313-.147 16.144-.165 17.893-.018 1.752.189 3.357.576 4.791.384 1.437.948 2.697 1.65 3.762.699 1.068 1.53 1.935 2.454 2.577.921.641 1.936 1.061 2.995 1.229-3.559 0-7.39.009-11.155.024-3.764.018-7.46.036-10.742.057-3.282.018-6.15.039-8.259.054-2.112.021-3.462.033-3.708.036zm7.722-97.721c.054-1.102.132-2.407.204-3.774.069-1.371.135-2.802.162-4.158.024-1.356.015-2.634-.063-3.696s-.225-1.908-.471-2.397c-.249-.495-.552-.987-.924-1.446-.375-.459-.816-.888-1.347-1.248-.528-.363-1.143-.666-1.857-.876-.717-.213-1.533-.33-2.463-.33-.36 0-.741.018-1.137.057-.396.036-.813.093-1.248.174-.435.078-.888.177-1.362.3-.472.123-.967.27-1.483.441-1.845.609-3.588 1.371-5.346 2.43-1.758 1.062-3.524 2.421-5.417 4.221-1.896 1.806-3.921 4.053-6.186 6.894s-4.776 6.276-7.644 10.449c.846.024 1.722.045 2.619.063.897.015 1.815.03 2.748.042.933.009 1.884.018 2.838.024.957.003 1.92.006 2.883.006 2.325 0 4.647-.012 6.863-.039 2.217-.024 4.326-.06 6.225-.102 1.893-.045 3.58-.093 4.945-.147s2.412-.111 3.036-.168c.879-.084 1.581-.27 2.145-.57.561-.3.984-.717 1.305-1.26.321-.54.537-1.212.687-2.022.15-.813.234-1.764.288-2.868"/><path d="m267.111 76.953c7.122-4.431 13.077-8.403 18.077-12.006 4.995-3.6 9.039-6.84 12.352-9.813 3.315-2.977 5.892-5.685 7.956-8.235 2.064-2.547 3.615-4.932 4.869-7.257-1.053-1.536-2.127-2.994-3.297-4.32-1.17-1.329-2.433-2.52-3.864-3.519s-3.033-1.806-4.875-2.364c-1.843-.558-3.928-.864-6.331-.864-.465 0-.942.009-1.431.033s-.99.06-1.506.105c-.516.048-1.044.108-1.584.183-.54.072-1.095.159-1.665.258-3.503.606-6.695 1.536-9.515 2.76-2.817 1.221-5.265 2.742-7.275 4.527s-3.585 3.84-4.659 6.135c-1.074 2.298-1.647 4.839-1.659 7.592-.015 2.758-.027 9.538-.043 18.175-.014 8.655-.032 19.178-.044 29.388-.015 10.236-.027 20.15-.036 27.528-.009 7.395-.015 12.231-.015 12.285-.006 1.251.036 2.298.233 3.249.193.951.541 1.803 1.141 2.667s1.452 1.734 2.664 2.715c1.209.984 2.775 2.082 4.803 3.399-1.662 0-4.347 0-7.53 0-3.187 0-6.871 0-10.528 0-3.653 0-7.286 0-10.364 0s-5.607 0-7.056 0c.576-.06 1.29-.207 2.037-.531s1.527-.828 2.235-1.602c.711-.774 1.35-1.821 1.815-3.231s.756-3.183.774-5.412c.018-3 .015-9.369-.03-17.386-.045-8.003-.132-17.645-.27-27.218-.141-9.55-.336-19.035-.6-26.769-.264-7.719-.6-13.698-1.02-16.276-.423-2.573-.927-4.469-1.5-5.873-.57-1.404-1.209-2.316-1.893-2.913-.687-.597-1.419-.879-2.187-1.026-.768-.15-1.566-.165-2.382-.222 7.473-4.131 14.103-7.446 20.105-10.095 6-2.646 11.377-4.632 16.348-6.102 4.968-1.47 9.531-2.421 13.904-3.009 4.374-.585 8.559-.807 12.774-.807h.45c.147 0 .3.003.447.003.151 0 .301.003.451.003.15.003.3.003.45.006 4.374.06 8.328.453 12.003 1.221 3.672.768 7.064 1.908 10.322 3.459 3.255 1.554 6.372 3.519 9.495 5.934 3.124 2.418 6.253 5.286 9.526 8.643-5.991 6.546-12.259 11.795-18.604 16.068-6.347 4.278-12.767 7.572-19.052 10.2-6.289 2.628-12.436 4.593-18.238 6.204-5.807 1.617-11.267 2.88-16.178 4.11z"/><path d="m338.526 23.865 41.529 1.959c-1.785.732-3.3 1.503-4.566 2.31-1.263.804-2.274 1.647-3.063 2.52-.786.876-1.338 1.779-1.686 2.709-.348.933-.489 1.89-.438 2.868s.075 2.745.087 4.86c.012 2.118.009 4.584-.003 6.954-.009 2.375-.027 4.656-.039 6.396-.018 1.743-.027 2.946-.03 3.165h37.164c.003-.165.015-1.062.021-2.418s.003-3.163-.024-5.146c-.024-1.976-.075-4.13-.165-6.173-.087-2.043-.219-3.978-.408-5.523-.186-1.548-.642-2.883-1.284-4.035s-1.476-2.124-2.415-2.949c-.936-.822-1.981-1.5-3.055-2.058-1.074-.561-2.172-1.005-3.216-1.371 5.38.039 10.387.129 14.884.237 4.496.111 8.483.243 11.825.372 3.339.129 6.033.255 7.941.351s3.036.165 3.24.177c-1.197 1.017-2.193 1.86-3.039 2.835-.849.978-1.539 2.094-2.124 3.651-.579 1.557-1.053 3.558-1.455 6.309-.402 2.754-.738 6.264-1.047 10.839-.306 4.578-.69 11.709-1.095 19.962-.408 8.271-.837 17.667-1.23 26.748-.39 9.096-.747 17.87-1.011 24.858-.264 6.996-.429 12.189-.444 14.109-.012 1.917.105 3.597.354 5.067.252 1.467.627 2.727 1.131 3.804.501 1.077 1.128 1.968 1.872 2.708.747.738 1.614 1.326 2.592 1.785-4.569-.039-9.042-.084-13.193-.12-4.152-.042-7.983-.078-11.274-.108-3.286-.033-6.034-.06-8.008-.081-1.98-.021-3.189-.03-3.408-.033.129-.009.837-.066 1.839-.336 1.002-.264 2.295-.744 3.597-1.598 1.302-.852 2.607-2.079 3.631-3.846 1.026-1.767 1.767-4.071 1.944-7.074.174-3 .423-8.799.696-15.846.273-7.035.576-15.312.858-23.292.282-7.965.546-15.64.741-21.501.198-5.853.33-9.903.357-10.638-4.989.081-9.763.147-14.137.192-4.371.048-8.34.081-11.711.099-3.372.021-6.147.033-8.133.039-1.986.003-3.186.003-3.405.003-.033.822-.24 5.346-.519 11.775-.282 6.437-.639 14.796-.978 23.262-.342 8.481-.666 17.072-.886 23.946-.212 6.885-.323 12.042-.224 13.626.095 1.584.285 2.991.576 4.233.285 1.242.678 2.319 1.17 3.237.495.918 1.092 1.68 1.8 2.297.711.615 1.53 1.086 2.463 1.419-4.359 0-8.665 0-12.682 0s-7.749 0-10.962 0c-3.212 0-5.909 0-7.859 0-1.944 0-3.141 0-3.36 0 .093 0 .618-.015 1.359-.234.741-.225 1.698-.657 2.664-1.502.966-.846 1.938-2.1 2.706-3.972.768-1.869 1.332-4.35 1.485-7.644s.453-10.494.792-19.594c.339-9.08.72-20.045 1.035-30.905.315-10.83.567-21.558.654-30.219.087-8.646.009-15.243-.339-17.85-.354-2.607-1.014-4.824-1.845-6.702-.828-1.875-1.827-3.408-2.856-4.647-1.026-1.239-2.085-2.184-3.03-2.88-.945-.69-1.779-1.14-2.361-1.386z"/><path d="m455.45 29.04c.393 0 .798.036 1.212.111.42.075.852.189 1.299.339.447.153.912.342 1.398.57s.99.492 1.518.798c2.109 1.221 5.475 3.12 9.477 5.565 4 2.445 8.638 5.436 13.287 8.829 4.653 3.396 9.318 7.199 13.371 11.268 4.056 4.074 7.5 8.412 9.708 12.879.246-5.247.301-9.804.163-13.728-.138-3.925-.472-7.221-1-9.954-.525-2.733-1.245-4.902-2.163-6.57-.915-1.668-2.031-2.838-3.339-3.57.6-.009 1.194-.018 1.782-.024.588-.003 1.167-.009 1.74-.012.576-.006 1.14-.006 1.695-.009.556-.003 1.101-.003 1.639-.003 2.148 0 4.119.015 5.877.03 1.755.018 3.294.045 4.574.069 1.281.027 2.301.051 3.021.069.72.021 1.14.033 1.215.036-1.761 1.182-3.087 2.016-4.083 2.817-.996.804-1.665 1.572-2.118 2.619-.455 1.05-.692 2.382-.827 4.308-.138 1.926-.165 4.448-.207 7.881-.036 3.432-.109 7.974-.249 13.161-.144 5.193-.351 11.034-.663 17.057-.309 6.034-.723 12.253-1.269 18.184-.546 5.94-1.227 11.592-2.076 16.487-.852 4.9-2.253 9.607-3.993 14.005-1.744 4.401-3.823 8.493-6.019 12.153-2.199 3.663-4.515 6.896-6.729 9.581s-4.326 4.819-6.111 6.286c3.495-6.655 6.402-12.873 8.724-18.729 2.322-5.85 4.062-11.34 5.226-16.548 1.164-5.203 1.752-10.122 1.773-14.838.018-4.707-.528-9.216-1.641-13.593-1.113-4.374-3.519-8.946-6.627-13.395-3.102-4.443-6.903-8.757-10.803-12.618-3.899-3.855-7.898-7.257-11.408-9.876-3.508-2.622-6.526-4.461-8.467-5.196-.633-.24-1.218-.465-1.761-.669-.543-.201-1.041-.381-1.503-.531-.459-.15-.882-.267-1.269-.351-.387-.081-.738-.126-1.059-.126-.66 0-1.188.189-1.623.636-.435.444-.771 1.146-1.047 2.166-.276 1.023-.495 2.364-.687 4.092s-.36 3.843-.537 6.408c-.267 3.816-.642 9.933-1.05 17.039-.411 7.114-.861 15.226-1.278 22.996-.42 7.791-.81 15.24-1.101 21.006-.288 5.775-.483 9.858-.504 10.902-.024 1.041.102 2.25.363 3.51s.654 2.568 1.161 3.813c.51 1.242 1.134 2.415 1.857 3.404.723.99 1.542 1.797 2.439 2.295-2.412-.081-5.229-.252-8.111-.465-2.88-.21-5.826-.462-8.496-.708-2.671-.246-5.065-.483-6.844-.666-1.782-.183-2.946-.309-3.159-.33 1.857-.251 3.519-.617 4.986-1.187 1.467-.573 2.734-1.35 3.796-2.427s1.917-2.448 2.562-4.209c.642-1.761 1.071-3.909 1.281-6.537.207-2.625.591-8.802 1.041-16.678.453-7.856.975-17.399 1.467-26.78.492-9.357.951-18.561 1.284-25.782.33-7.209.534-12.453.507-13.924-.027-1.476-.099-2.69-.279-3.689-.177-.999-.465-1.776-.915-2.379s-1.062-1.026-1.899-1.308c-.837-.285-1.896-.429-3.237-.471 1.713-2.538 3.195-4.773 4.527-6.702 1.332-1.926 2.517-3.546 3.633-4.848 1.115-1.302 2.165-2.289 3.23-2.949 1.065-.657 2.145-.99 3.318-.99z"/><path d="m533.018 37.131c.948 0 2.061.042 3.396.132 1.332.087 2.883.228 4.711.414 1.823.192 3.921.432 6.345.732 2.426.3 5.174.657 8.303 1.077 4.29.573 8.31 1.074 12.015 1.506 3.702.432 7.092.789 10.117 1.074 3.024.288 5.684.504 7.934.645 2.253.144 4.092.216 5.469.216h.267c.09 0 .174-.003.258-.003.081-.003.162-.003.243-.006.078 0 .153-.003.228-.006.792-.03 1.527-.108 2.208-.213.678-.102 1.296-.234 1.857-.357.558-.126 1.056-.249 1.491-.336.435-.093.807-.15 1.11-.15.162 0 .306.018.429.054.126.036.231.096.318.177.084.084.15.189.198.327.048.135.075.3.084.498.018.57-.249 1.272-.768 2.214-.522.942-1.296 2.118-2.286 3.639-.993 1.52-2.202 3.383-3.597 5.694-1.392 2.31-2.973 5.07-4.698 8.385-.012-.156-.078-1.011-.399-2.262s-.9-2.898-1.941-4.635c-1.041-1.74-2.544-3.571-4.712-5.191-2.169-1.619-5.004-3.029-8.713-3.926-.351-.087-.696-.159-1.038-.222s-.681-.114-1.017-.153c-.336-.042-.669-.072-.996-.093-.327-.018-.654-.03-.975-.03-3.081 0-5.832.897-8.265 2.316-2.436 1.418-4.551 3.356-6.36 5.442-1.809 2.082-3.312 4.311-4.512 6.309-1.202 1.995-2.105 3.756-2.717 4.905-.675 1.272-1.056 2.223-1.11 2.94-.051.717.225 1.2.861 1.53.639.327 1.638.501 3.036.606 1.397.105 3.191.138 5.411.18 2.223.039 4.836.195 7.509.414 2.673.222 5.403.507 7.854.816 2.451.306 4.629.636 6.195.939 1.564.303 2.518.579 2.524.786.006.204-.078.534-.321.999-.24.468-.639 1.071-1.269 1.83-.625.762-1.476 1.674-2.622 2.754-1.144 1.086-2.581 2.34-4.384 3.78-1.08-1.245-2.319-2.238-3.687-3.027s-2.859-1.377-4.446-1.809-3.267-.708-5.01-.876c-1.74-.168-3.543-.228-5.373-.228-.162 0-.327 0-.492 0-.168.003-.33.003-.495.006s-.33.003-.498.006c-.165.003-.33.006-.498.009-2.009.045-3.515.117-4.655.339-1.14.219-1.911.591-2.448 1.227-.538.639-.843 1.542-1.051 2.832-.206 1.29-.317 2.963-.464 5.144-.16 10.645.969 20.059 3.09 28.384 2.127 8.343 5.25 15.588 9.068 21.876 3.819 6.294 8.34 11.628 13.248 16.142 4.914 4.521 10.222 8.218 15.615 11.236-1.919-.294-4.76-.807-8.235-1.878-3.474-1.068-7.578-2.691-12.006-5.206-4.425-2.511-9.177-5.91-13.952-10.526-4.77-4.611-9.562-10.437-14.077-17.805-4.5-7.354-7.35-15.039-9.018-22.578-1.665-7.527-2.154-14.907-1.932-21.676.219-6.755 1.149-12.899 2.319-17.969 1.167-5.064 2.577-9.057 3.765-11.511 1.188-2.451 2.07-4.597 2.649-6.474.576-1.881.852-3.495.822-4.893-.027-1.395-.357-2.571-.987-3.573-.63-.999-1.563-1.824-2.793-2.517.237-.063.489-.12.759-.171.27-.048.561-.09.876-.126.318-.033.657-.06 1.029-.078.369-.021.768-.027 1.206-.027z"/></g></svg>