<svg xmlns="http://www.w3.org/2000/svg"><g fill="#fff"><path d="m0 0h29.718v8.745h-8.697v118.704h-10.512v-118.704h-10.509z"/><path d="m56.64 118.761h11.601v-83.166h10.146v83.166c0 5.385-4.89 9.195-9.906 9.195h-11.841c-5.298 0-10.026-4.311-10.026-9.303v-83.058h10.026z"/><path d="m274.824 55.908h15.495v72.132h-21.837c-4.668 0-10.419-3.576-10.419-8.997v-109.035c0-4.581 4.8-9.459 10.191-9.459h11.916c5.286 0 10.08 4.836 10.08 9.354v25.83h-10.443v-25.47h-11.868v108.861h12.141v-54.387h-5.256z"/><path d="m424.662 83.772v43.719h-9.783v-83.733c0-3.783 3.762-7.905 8.517-7.905h16.128v8.07h-14.862v30.939h12.237v8.949z"/><path d="m459.366 35.877h10.269v33.351l5.799 5.829 5.676-5.667v-33.513h10.146v31.731c0 3.873-10.023 14.082-10.023 14.082s10.146 10.203 10.146 14.337v31.65h-9.546v-32.952l-6.159-6.231-6.162 6.15v33.033h-10.146v-31.575c0-3.882 10.746-14.493 10.746-14.493s-10.746-10.092-10.746-14.16z"/><path d="m122.361 83.979c3.441 0 8.019-4.116 8.019-9.624v-30.096c0-4.329-4.938-8.361-10.557-8.361h-20.838v91.962h9.606v-43.206h3.624l10.689 43.044h9.423zm-1.902-8.994h-11.508v-30.177h11.508z"/><path d="m334.917 83.739c3.444 0 8.025-4.122 8.025-9.627v-30.096c0-4.329-4.944-8.367-10.557-8.367h-20.838v91.971h9.597v-43.212h3.627l10.695 43.041h9.42zm-2.04-9.096h-11.499v-30.177h11.499z"/><path d="m181.728 86.145c-.042-4.122-4.344-6.726-4.344-6.726s4.344-2.814 4.344-6.726v-28.074c0-5.298-4.665-8.745-9.42-8.745h-21.927v91.803h21.927c4.44 0 9.42-2.772 9.42-8.742 0 0 .051-28.674 0-32.79zm-9.873 32.538h-11.505v-34.218h11.505zm0-43.719h-11.505v-30.177h11.505z"/><path d="m223.725 35.196h-5.799-5.619c-5.754 0-9.942 4.917-9.942 8.658v74.559c0 4.818 5.367 9.189 9.897 9.189h12.414c4.848 0 9.693-5.004 9.693-8.997v-75.003c0-3.36-4.575-8.406-10.644-8.406zm.36 82.929h-11.115v-73.848h11.115z"/><path d="m384.909 35.853h-12.678c-5.712 0-9.063 4.707-9.063 8.406v83.232h9.603v-43.719h12.138v43.719h9.606v-82.728c-.003-5.49-3.801-8.91-9.606-8.91zm-.276 38.841h-11.499v-29.592h11.499z"/><path d="m549.174 84.606h29.733v11.091h-29.733z"/><path d="m552.843 34.578c-26.043 0-47.148 21.111-47.148 47.154s21.105 47.157 47.148 47.157c26.04 0 47.157-21.114 47.157-47.157s-21.114-47.154-47.157-47.154zm-16.047 66.528h-14.952v-5.238h4.821v-27.672h-4.731v-5.409h10.137v32.994h4.725zm47.265-28.269h-4.806v-4.812h-30.342v11.514h32.403l2.745 2.754v15.213l-3.435 3.435h-33.171l-3.438-3.435v-31.368l3.186-3.183h33.942l2.916 2.922z"/></g></svg>