<svg preserveAspectRatio="none" xmlns="http://www.w3.org/2000/svg"><g fill="#1e1e1e"><path d="m346.247 175.576-1.108.035c.14 3.071-.789 11.108-1.886 18.637-1.109 7.621-3.021 32.438 1.471 53.057 2.236 10.263 4.857 20.482 8.29 28.398 3.431 7.917 7.695 13.641 13.394 14.571 5.535.904 9.511-.962 12.39-4.984 2.879-4.021 4.775-10.13 6.611-17.91 3.661-15.525 7.534-32.882 8.341-36.547.366-1.661 1.649-3.6 3.34-5.072 1.691-1.471 3.779-2.47 5.625-2.405l.034-1.091c-2.255-.08-4.545 1.046-6.386 2.648s-3.245 3.692-3.686 5.694c-.803 3.654-4.699 21-8.359 36.513-1.825 7.74-3.718 13.738-6.42 17.513s-6.091 5.388-11.317 4.534c-5.062-.827-9.188-6.128-12.564-13.914-3.375-7.786-5.99-17.954-8.22-28.19-4.439-20.374-2.54-45.182-1.454-52.642 1.1-7.549 2.058-15.474 1.904-18.845z" transform="matrix(.965926 -.258819 .258819 .965926 -47.62807 104.303396)"/><path d="m385.627 111.871c-.427.012-1.037.114-2.458.26-1.533.157-7.62 1.191-14.38 2.492-6.761 1.3-14.113 2.843-18.015 4.032-3.92 1.194-8.196 3.433-11.594 5.452-1.7 1.008-3.184 1.952-4.275 2.699-.546.374-.996.699-1.332.952s-.527.402-.693.588c-.469.528-.55 1.248-.587 2.302-.039 1.054.012 2.475.086 4.378l1.107-.052c-.072-1.904-.121-3.297-.086-4.274s.196-1.496.312-1.627c-.02.022.217-.193.536-.432.318-.24.746-.551 1.281-.918 1.07-.732 2.528-1.668 4.205-2.665 3.354-1.991 7.603-4.199 11.369-5.347 3.786-1.153 11.148-2.699 17.894-3.997 6.745-1.298 12.954-2.357 14.276-2.492 1.435-.147 2.102-.235 2.371-.242.135-.003.14.001.139 0-.002-.001.049.037.19.139l.64-.9c-.115-.083-.199-.161-.38-.243s-.393-.11-.606-.105z" transform="matrix(.965926 -.258819 .258819 .965926 -19.702918 97.237939)"/><path d="m438.316 71.255c-20.115 0-38.244 4.966-51.067 12.962l-.312.19.052.346 6.87 48.471-9.864-36.478-1.056.293 12.183 45.115v.017l.017.052 1.073-.208v-.069l-.017-.069-8.064-56.899c12.585-7.753 30.403-12.615 50.185-12.615h.329c19.777 0 37.6 4.867 50.184 12.615l-8.064 56.968-.017.07 1.091.208 12.199-45.184-1.072-.294-9.88 36.583 6.886-48.575.052-.346-.293-.19c-12.824-7.995-30.97-12.962-51.085-12.962h-.33z" transform="matrix(.965926 -.258819 .258819 .965926 -12.685082 117.126235)"/><path d="m411.669 81.415s-1.477 3.032-2.735 6.507c-.631 1.746-.97 3.033-1.54 3.928-.569.894-1.347 1.483-3.132 1.937-1.751.447-6.919 1.127-13.013 2.181-6.096 1.054-13.173 2.501-19.001 4.568-19.298 6.845-32.845 25.62-32.845 47.278 0 27.844 22.589 49.764 50.409 50.426 12.258.292 20.596 1.85 26.269 4.102 5.674 2.252 8.684 5.176 10.452 8.289.806 1.419 1.693 5.154 2.492 10.037.799 4.882 1.571 10.963 2.337 17.322 1.53 12.717 3.055 26.525 4.931 34.212 2.272 9.308 5.252 20.31 9.432 29.037 2.089 4.365 4.488 8.151 7.268 10.886 2.78 2.733 5.977 4.412 9.604 4.412h1.193c3.629 0 6.842-1.679 9.622-4.412 2.78-2.735 5.162-6.521 7.25-10.886 4.181-8.728 7.16-19.73 9.432-29.037 1.877-7.686 3.418-21.495 4.95-34.212.765-6.359 1.52-12.439 2.318-17.322.8-4.883 1.687-8.618 2.492-10.037 1.77-3.113 4.796-6.037 10.468-8.289 5.674-2.252 13.996-3.81 26.254-4.102 27.821-.662 50.409-22.581 50.409-50.426 0-21.658-13.548-40.433-32.845-47.278-5.827-2.067-12.905-3.514-19-4.568s-11.263-1.734-13.014-2.181c-1.785-.454-2.563-1.043-3.133-1.937-.568-.895-.89-2.182-1.521-3.928-1.257-3.475-2.736-6.507-2.736-6.507l-1.004.485s1.45 2.978 2.681 6.385c.615 1.694.934 3.035 1.646 4.154.711 1.118 1.841 1.927 3.789 2.423 1.983.505 7.031 1.148 13.1 2.198 6.069 1.049 13.113 2.489 18.827 4.517 18.85 6.685 32.102 25.043 32.102 46.238 0 27.246-22.082 48.671-49.338 49.32-12.34.293-20.776 1.846-26.631 4.169-5.856 2.325-9.133 5.446-11.024 8.775-1.023 1.802-1.808 5.484-2.613 10.399-.803 4.917-1.57 11.013-2.336 17.375-1.53 12.725-3.077 26.55-4.913 34.074-2.268 9.286-5.253 20.244-9.363 28.83-2.055 4.292-4.386 7.994-7.026 10.59-2.639 2.595-5.553 4.083-8.843 4.083h-1.194c-3.29 0-6.203-1.488-8.843-4.083-2.639-2.596-4.97-6.298-7.026-10.59-4.11-8.586-7.095-19.545-9.361-28.83-1.837-7.525-3.384-21.349-4.914-34.074-.766-6.362-1.533-12.459-2.337-17.375-.803-4.915-1.589-8.598-2.613-10.399-1.891-3.329-5.167-6.45-11.023-8.775-5.855-2.323-14.293-3.877-26.632-4.169-27.256-.65-49.337-22.074-49.337-49.32 0-21.196 13.251-39.553 32.101-46.238 5.715-2.028 12.759-3.468 18.828-4.517 6.069-1.05 11.117-1.693 13.1-2.198 1.948-.496 3.077-1.304 3.79-2.423.712-1.119 1.031-2.459 1.643-4.154 1.233-3.407 2.682-6.385 2.682-6.385z" transform="matrix(.965926 -.258819 .258819 .965926 -35.715848 126.663524)"/><path d="m584.998 125.571c-.153 3.371.804 11.296 1.903 18.846 1.086 7.459 2.984 32.267-1.454 52.641-2.229 10.237-4.844 20.404-8.22 28.19s-7.501 13.088-12.562 13.915c-5.227.853-8.598-.76-11.301-4.535-2.702-3.774-4.612-9.774-6.437-17.513-3.66-15.513-7.537-32.859-8.342-36.513-.44-2.001-1.862-4.091-3.704-5.693-1.84-1.603-4.129-2.729-6.384-2.648l.051 1.091c1.845-.066 3.916.933 5.608 2.405 1.691 1.472 2.975 3.41 3.34 5.071.806 3.664 4.697 21.023 8.358 36.548 1.836 7.779 3.731 13.889 6.61 17.91 2.881 4.022 6.856 5.887 12.391 4.983 5.7-.93 9.963-6.654 13.395-14.57 3.432-7.917 6.053-18.135 8.289-28.398 4.492-20.619 2.581-45.436 1.471-53.057-1.097-7.531-2.044-15.567-1.904-18.638z" transform="matrix(.965926 -.258819 .258819 .965926 -28.326831 150.900293)"/><path d="m489.116 70.114c-.213-.005-.425.023-.606.105-.18.08-.283.159-.398.242l.64.9c.143-.101.212-.14.209-.139s-.014-.003.12 0c.27.007.937.096 2.371.243 1.323.135 7.53 1.193 14.276 2.491s14.126 2.844 17.911 3.997c3.765 1.149 7.998 3.357 11.352 5.347 1.678.997 3.136 1.933 4.204 2.665.537.368.981.679 1.298.918.319.239.54.455.52.432.116.132.294.65.329 1.627.036.978-.014 2.37-.087 4.274l1.09.052c.074-1.902.143-3.323.104-4.378-.037-1.054-.135-1.773-.605-2.302-.166-.187-.355-.335-.693-.588-.335-.252-.785-.578-1.332-.951-1.091-.748-2.558-1.691-4.256-2.7-3.399-2.018-7.691-4.257-11.612-5.451-3.902-1.19-11.254-2.732-18.014-4.033s-12.831-2.334-14.363-2.492c-1.421-.145-2.031-.247-2.458-.259z" transform="matrix(.965926 -.258819 .258819 .965926 -3.585174 136.14931)"/><path d="m373.444 144.235c-16.148 0-29.245 13.116-29.245 29.262 0 16.147 13.097 29.246 29.245 29.246s29.245-13.099 29.245-29.246c0-16.146-13.097-29.262-29.245-29.262zm0 1.108c15.549 0 28.138 12.605 28.138 28.154 0 15.55-12.589 28.139-28.138 28.139s-28.138-12.589-28.138-28.139c0-15.549 12.588-28.154 28.138-28.154z" transform="matrix(.965926 -.258819 .258819 .965926 -32.17745 102.56584)"/><path d="m452.884 146.733c-7.576 0-13.739 6.164-13.739 13.74 0 7.577 6.163 13.723 13.739 13.723 7.577 0 13.723-6.146 13.723-13.723.001-7.577-6.146-13.74-13.723-13.74zm0 1.108c6.978 0 12.615 5.654 12.615 12.632s-5.637 12.616-12.615 12.616c-6.977 0-12.632-5.638-12.632-12.616 0-6.979 5.655-12.632 12.632-12.632z" transform="matrix(.965926 -.258819 .258819 .965926 -26.099895 122.680619)"/><path d="m466.28 182.383c-15.5 0-28.085 12.586-28.085 28.086s12.585 28.069 28.085 28.069c15.501 0 28.068-12.568 28.068-28.069s-12.567-28.086-28.068-28.086zm0 1.107c14.902 0 26.962 12.076 26.962 26.979 0 14.902-12.06 26.961-26.962 26.961s-26.978-12.059-26.978-26.961c0-14.903 12.076-26.979 26.978-26.979z" transform="matrix(.965926 -.258819 .258819 .965926 -38.583395 127.851363)"/><path d="m452.887 150.106c-5.717 0-10.366 4.649-10.366 10.366 0 5.716 4.649 10.366 10.366 10.366s10.365-4.65 10.365-10.366c0-5.718-4.647-10.366-10.365-10.366zm0 1.107c5.118 0 9.258 4.14 9.258 9.258s-4.14 9.258-9.258 9.258c-5.119 0-9.258-4.14-9.258-9.258 0-5.119 4.139-9.258 9.258-9.258z" transform="matrix(.965926 -.258819 .258819 .965926 -26.101468 122.683522)"/><path d="m504.677 134.831c-6.283 0-11.388 5.103-11.388 11.386s5.105 11.387 11.388 11.387 11.388-5.104 11.388-11.387c-.001-6.283-5.106-11.386-11.388-11.386zm0 1.107c5.684 0 10.279 4.595 10.279 10.279s-4.595 10.279-10.279 10.279-10.279-4.595-10.279-10.279c-.001-5.684 4.595-10.279 10.279-10.279z" transform="matrix(.965926 -.258819 .258819 .965926 -20.647422 135.602163)"/><path d="m527.555 147.799c-6.285 0-11.389 5.103-11.389 11.386s5.104 11.387 11.389 11.387c6.282 0 11.386-5.104 11.386-11.387s-5.104-11.386-11.386-11.386zm0 1.107c5.683 0 10.278 4.595 10.278 10.279 0 5.685-4.595 10.279-10.278 10.279-5.685 0-10.281-4.594-10.281-10.279 0-5.684 4.596-10.279 10.281-10.279z" transform="matrix(.965926 -.258819 .258819 .965926 -23.224289 141.964903)"/><path d="m367.736 150.396c-2.079 0-3.773 1.694-3.773 3.772v8.583c0 .509-.067.841-.172.987-.107.146-.284.277-.918.277h-8.756c-2.078 0-3.772 1.694-3.772 3.772v11.422c0 2.078 1.694 3.772 3.772 3.772h8.635c.421.001.715.101.9.278.184.176.311.453.311.933v8.636c0 2.078 1.695 3.772 3.773 3.772h11.42c2.079 0 3.773-1.694 3.773-3.772v-8.653c0-.65.138-.886.277-1.003s.425-.191.883-.191h8.687c2.078 0 3.772-1.694 3.772-3.772v-11.422c0-2.078-1.694-3.772-3.772-3.772h-8.67c-.665 0-1.177-.426-1.177-1.211v-8.636c0-2.078-1.694-3.772-3.773-3.772zm0 1.107h11.42c1.479 0 2.665 1.186 2.665 2.664v8.636c0 1.337 1.072 2.319 2.285 2.319h8.67c1.479 0 2.664 1.185 2.664 2.665v11.421c0 1.479-1.185 2.665-2.664 2.665h-8.687c-.555 0-1.131.062-1.592.45-.462.386-.675 1.026-.675 1.851v8.652c0 1.479-1.186 2.665-2.665 2.665h-11.421c-1.48 0-2.665-1.186-2.665-2.665v-8.635c0-.702-.225-1.318-.657-1.731-.432-.412-1.034-.588-1.661-.588h-8.635c-1.481 0-2.665-1.186-2.665-2.665v-11.421c0-1.48 1.184-2.665 2.665-2.665h8.756c.819 0 1.462-.254 1.817-.744.355-.491.38-1.051.38-1.626v-8.583c-.001-1.479 1.185-2.665 2.665-2.665z" transform="matrix(.965926 -.258819 .258819 .965926 -32.179706 102.566867)"/><path d="m383.713 164.986c-.865 0-1.575.71-1.575 1.574v6.836c0 .865.71 1.592 1.575 1.592.311 0 .601-.102.849-.26.005-.004.011-.014.017-.018h.017l5.606-3.392h.017c.449-.278.744-.771.744-1.332 0-.595-.337-1.116-.831-1.384l-.016-.017-5.538-3.34c-.004-.003-.013.003-.017 0-.247-.163-.531-.259-.848-.259zm0 1.107c.1 0 .185.018.26.068v.018h.017l5.572 3.374h.017l.018.017c.149.079.259.229.259.416 0 .173-.093.316-.225.398l-5.641 3.392v.017h-.017c-.075.05-.159.087-.26.087-.266 0-.467-.218-.467-.485v-6.835c0-.266.201-.467.467-.467z" transform="matrix(.965926 -.258819 .258819 .965926 -30.824482 105.838798)"/><path d="m373.444 168.687c-2.644 0-4.794 2.166-4.794 4.81 0 2.645 2.15 4.794 4.794 4.794s4.794-2.149 4.794-4.794c0-2.644-2.15-4.81-4.794-4.81zm0 1.108c2.045 0 3.686 1.657 3.686 3.702 0 2.046-1.641 3.687-3.686 3.687-2.046 0-3.686-1.641-3.686-3.687 0-2.045 1.64-3.702 3.686-3.702z" transform="matrix(.965926 -.258819 .258819 .965926 -32.17745 102.56584)"/><path d="m369.935 155.98c-.587 0-1.096.331-1.367.813-.008.014-.028.02-.035.035l-3.322 5.537-.017-.017c-.006.01.006.025 0 .034-.156.245-.26.538-.26.848 0 .865.709 1.575 1.576 1.575h6.852c.866 0 1.575-.709 1.575-1.575 0-.319-.111-.616-.277-.866v-.016l-3.374-5.625h-.017c-.28-.446-.772-.743-1.334-.743zm0 1.107c.173 0 .315.092.398.225l3.391 5.625.017.016v.018c.051.074.087.16.087.259 0 .266-.199.467-.466.467h-6.853c-.268 0-.468-.2-.468-.467 0-.099.036-.184.087-.259v-.018l3.375-5.59v-.016h.017c.078-.151.228-.26.415-.26z" transform="matrix(.965926 -.258819 .258819 .965926 -28.907374 101.211523)"/><path d="m363.179 172.006c-.311 0-.603.084-.849.242l-.034.017-5.607 3.392h-.018c-.447.278-.743.787-.743 1.349 0 .596.338 1.117.831 1.385l.017.017 5.538 3.322.016.018v-.018c.249.162.533.277.849.277.865 0 1.592-.727 1.592-1.591v-6.836c0-.866-.727-1.574-1.592-1.574zm0 1.107c.266 0 .484.201.484.467v6.836c0 .266-.217.484-.484.484-.101 0-.185-.036-.26-.087l-.016-.017-5.573-3.357-.017-.017h-.017c-.15-.078-.26-.23-.26-.416 0-.173.092-.315.225-.397l5.642-3.41.016-.017c.075-.051.16-.069.26-.069z" transform="matrix(.965926 -.258819 .258819 .965926 -33.534042 99.296658)"/><path d="m373.527 182.173c-.866 0-1.576.71-1.576 1.576 0 .31.101.618.26.864l.017.035 3.374 5.607h.018c.278.448.77.744 1.332.744.587 0 1.096-.332 1.367-.814h.017c.006-.011.012-.023.018-.035l3.339-5.519v-.018c.162-.248.259-.549.259-.865 0-.866-.709-1.576-1.574-1.576h-6.851zm0 1.108h6.852c.267 0 .467.201.467.467 0 .099-.036.201-.087.276v.018l-3.374 5.572v.017l-.018.017c-.078.152-.229.243-.415.243-.174 0-.315-.075-.398-.208l-3.392-5.641-.017-.018c-.05-.074-.087-.177-.087-.276.001-.266.202-.467.469-.467z" transform="matrix(.965926 -.258819 .258819 .965926 -35.447583 103.920025)"/><path d="m465.225 193.162-.156.051-12.407 4.742-.276.104-.069.277-3.306 12.996-.035.172.052.174 4.741 12.407.104.26.277.069 13.012 3.305.157.036.173-.051 12.408-4.744.259-.103.07-.277 3.305-12.995.052-.174-.07-.172-4.741-12.39-.105-.278-.276-.069-12.996-3.304zm.07 1.159 12.546 3.184 4.568 11.976-3.185 12.546-11.974 4.568-12.546-3.184-4.57-11.975 3.184-12.546z" transform="matrix(.965926 -.258819 .258819 .965926 -38.582484 127.853352)"/><path d="m466.28 197.125c-7.361 0-13.342 5.98-13.342 13.341 0 7.362 5.981 13.325 13.342 13.325s13.343-5.963 13.343-13.325c0-7.361-5.982-13.341-13.343-13.341zm0 1.108c6.763 0 12.235 5.47 12.235 12.233 0 6.762-5.472 12.218-12.235 12.218-6.762 0-12.234-5.455-12.234-12.218s5.472-12.233 12.234-12.233z" transform="matrix(.965926 -.258819 .258819 .965926 -38.582376 127.853212)"/><path d="m513.956 152.04-.745.796 3.426 3.236.761-.814z" transform="matrix(.965926 -.258819 .258819 .965926 -22.314051 138.619855)"/><path d="m515.609 148.858-.76.813 3.445 3.219.76-.796z" transform="matrix(.965926 -.258819 .258819 .965926 -21.434363 138.937714)"/><g transform="matrix(.71643 -.191967 .191967 .71643 214.461288 124.569061)"><path d="m402.872 99.087c-.419 0-.812.114-1.143.326l-.047.024-7.559 4.572h-.023c-.604.376-1.003 1.039-1.003 1.797 0 .803.456 1.505 1.118 1.867l.024.023 7.466 4.503.023.023v-.023c.334.216.718.35 1.143.35 1.167 0 2.147-.957 2.147-2.123v-9.216c.002-1.168-.979-2.123-2.146-2.123zm0 1.493c.361 0 .653.271.653.63v9.216c0 .359-.291.629-.653.629-.132 0-.246-.025-.35-.093v-.023h-.022l-7.514-4.526-.022-.023h-.023c-.201-.106-.351-.332-.351-.583 0-.226.133-.399.304-.513l7.606-4.597h.022v-.023c.104-.07.216-.094.35-.094z"/><path d="m400.237 94.163c-6.428 0-11.644 5.24-11.644 11.666 0 6.427 5.216 11.643 11.644 11.643 6.425 0 11.665-5.216 11.665-11.643 0-6.426-5.24-11.666-11.665-11.666zm0 1.494c5.619 0 10.172 4.553 10.172 10.172 0 5.62-4.553 10.15-10.172 10.15s-10.149-4.53-10.149-10.15 4.53-10.172 10.149-10.172z"/><path d="m441.627 99.087c-1.167 0-2.147.957-2.147 2.123v9.216c0 1.167.98 2.123 2.147 2.123.419 0 .811-.113 1.144-.327.008-.005.016-.018.022-.023h.023l7.559-4.573h.024c.604-.375 1.003-1.039 1.003-1.797 0-.802-.455-1.505-1.12-1.867l-.023-.023-7.466-4.502c-.006-.005-.017.003-.022 0-.335-.219-.717-.35-1.144-.35zm0 1.493c.132 0 .247.024.349.093v.023h.024l7.513 4.527.022.023h.023c.207.107.351.33.351.583 0 .227-.135.401-.304.514l-7.605 4.595-.024.023c-.099.067-.211.093-.349.093-.359 0-.654-.27-.654-.629v-9.216c0-.359.295-.629.654-.629z"/><path d="m444.263 94.163c-6.427 0-11.665 5.24-11.665 11.666 0 6.427 5.238 11.643 11.665 11.643s11.643-5.216 11.643-11.643c-.001-6.426-5.217-11.666-11.643-11.666zm0 1.494c5.619 0 10.15 4.553 10.15 10.172 0 5.62-4.531 10.15-10.15 10.15-5.62 0-10.173-4.53-10.173-10.15s4.553-10.172 10.173-10.172z"/></g><g transform="matrix(.71643 -.191967 .191967 .71643 214.461288 124.569061)"><path d="m422.262 76.665c-.757 0-1.444.4-1.82 1.003v.023l-4.572 7.559c-.005.006.004.018 0 .024l-.024.023c-.211.332-.326.724-.326 1.143 0 1.166.956 2.146 2.123 2.146h9.216c1.167 0 2.147-.979 2.147-2.146 0-.426-.152-.808-.373-1.143v-.023l-4.504-7.467c-.004-.01-.017-.013-.023-.023-.362-.663-1.042-1.119-1.844-1.119zm0 1.493c.251 0 .454.147.56.35v.023l.023.023 4.526 7.513.023.023c.067.1.116.217.116.35 0 .359-.292.654-.653.654h-9.216c-.361 0-.63-.294-.63-.654 0-.136.025-.25.093-.35l.023-.023 4.597-7.606c.115-.171.31-.303.538-.303z"/><path d="m422.262 72.162c-6.427 0-11.666 5.215-11.666 11.642s5.239 11.666 11.666 11.666c6.428 0 11.642-5.239 11.642-11.666-.001-6.427-5.215-11.642-11.642-11.642zm0 1.493c5.619 0 10.148 4.528 10.148 10.149 0 5.62-4.529 10.173-10.148 10.173-5.62 0-10.173-4.553-10.173-10.173s4.553-10.149 10.173-10.149z"/><path d="m417.642 123.048c-1.167 0-2.123.979-2.123 2.146 0 .425.13.809.351 1.143h-.024l.024.024 4.503 7.466.022.023c.362.665 1.064 1.12 1.867 1.12.757 0 1.421-.401 1.796-1.003v-.023l4.574-7.56v-.023c.005-.008.018-.015.021-.024.214-.33.352-.721.352-1.143 0-1.167-.979-2.146-2.147-2.146zm0 1.493h9.216c.361 0 .653.294.653.653 0 .134-.046.248-.116.351l-.023.023-4.597 7.606c-.113.172-.287.304-.513.304-.253 0-.478-.147-.584-.35v-.023l-.023-.023-4.526-7.513-.023-.023c-.065-.099-.093-.215-.093-.351-.001-.361.269-.654.629-.654z"/><path d="m422.262 116.165c-6.427 0-11.666 5.239-11.666 11.666 0 6.426 5.239 11.642 11.666 11.642s11.642-5.216 11.642-11.642c-.001-6.427-5.216-11.666-11.642-11.666zm0 1.493c5.619 0 10.148 4.553 10.148 10.173 0 5.619-4.529 10.149-10.148 10.149-5.62 0-10.173-4.53-10.173-10.149 0-5.62 4.553-10.173 10.173-10.173z"/></g><path d="m526.188 104.765c-4.572 2.035-8.248 5.714-10.261 10.296l1.02.45c1.902-4.328 5.373-7.821 9.691-9.743z" transform="matrix(.965926 -.258819 .258819 .965926 -10.743536 138.670788)"/><path d="m523.752 130.032-1.003.449c2.024 4.517 5.654 8.143 10.175 10.158l.467-1.004c-4.27-1.903-7.726-5.337-9.639-9.603z" transform="matrix(.965926 -.258819 .258819 .965926 -17.033859 141.28593)"/><path d="m557.57 123.267c-1.901 4.233-5.303 7.643-9.534 9.552l.468 1.021c4.477-2.022 8.076-5.642 10.089-10.123z" transform="matrix(.965926 -.258819 .258819 .965926 -14.418354 147.588787)"/><path d="m541.742 98.027-.467 1.021c4.233 1.911 7.651 5.329 9.553 9.569l1.004-.467c-2.013-4.488-5.609-8.1-10.09-10.123z" transform="matrix(.965926 -.258819 .258819 .965926 -8.118349 144.978964)"/></g></svg>