<svg viewBox="0 0 200 40" xmlns="http://www.w3.org/2000/svg"><path d="m50.06 20.92 3.21-10.47h5.97l-6.09 18.75h-7.56v-6.9h-.33l-2.49 6.9h-6.93v-18.75h5.97l-.54 10.47h.18l3.9-10.47h4.53v10.47zm21.78 2.04 1.98 6.24h-6.27l-1.38-5.58h-1.23l-.96 5.58h-5.7l3.3-18.75h9c3.42 0 5.13 1.53 5.13 4.59 0 1.26-.19 2.46-.57 3.6-.7 2.16-1.8 3.6-3.3 4.32zm-4.29-7.71h-1.14l-.66 3.75h1.32c.68 0 1.193-.073 1.54-.22.353-.153.593-.583.72-1.29.133-.713.2-1.15.2-1.31 0-.4-.153-.657-.46-.77-.313-.107-.82-.16-1.52-.16zm22.11 2.52-.78 4.35h-5.7l-.39 2.28h6.99l-.84 4.8h-12.69l3.3-18.75h12.54l-1.56 4.8h-6.15l-.42 2.52zm1.95 11.1 1.68-4.95c1.68.46 3.22.69 4.62.69 1.4 0 2.53-.06 3.39-.18l.24-1.5-2.49-.24c-1.9-.18-3.247-.61-4.04-1.29-.787-.68-1.18-1.64-1.18-2.88 0-.54.06-1.14.18-1.8.46-2.56 1.293-4.32 2.5-5.28 1.213-.96 3.09-1.44 5.63-1.44 2.54 0 4.78.25 6.72.75l-1.56 4.8c-1.74-.3-3.14-.45-4.2-.45-1.06 0-1.96.05-2.7.15l-.24 1.47 2.01.21c2.04.22 3.49.707 4.35 1.46.86.747 1.29 1.75 1.29 3.01 0 1.28-.28 2.6-.84 3.96-.28.7-.587 1.287-.92 1.76-.327.467-.747.863-1.26 1.19-.507.333-.97.583-1.39.75-.42.173-.95.3-1.59.38-.94.14-2.09.21-3.45.21-2.48 0-4.73-.26-6.75-.78zm33.69-18.42-.87 4.8h-4.14l-2.43 13.95h-5.7l2.43-13.95h-4.11l.87-4.8zm11.34 13.95-.84 4.8h-11.4l3.3-18.75h5.7l-2.46 13.95zm6 4.8h-5.7l3.3-18.75h5.7zm19.38 0h-5.37l-3.06-6.66c-.08-.14-.12-.337-.12-.59 0-.247.02-.53.06-.85h-.24l-1.41 8.1h-5.7l3.3-18.75h5.37l3.06 6.66c.06.14.09.337.09.59 0 .247-.02.53-.06.85h.24l1.44-8.1h5.7zm14.01-5.52.15-.81h-1.44l.81-4.59h6.87l-1.77 10.02c-2.44.9-4.89 1.35-7.35 1.35-2.46 0-4.237-.49-5.33-1.47-1.087-.98-1.63-2.49-1.63-4.53 0-.86.14-2.13.42-3.81.6-3.48 1.66-5.99 3.18-7.53 1.52-1.54 4.04-2.31 7.56-2.31.74 0 1.683.08 2.83.24 1.153.16 2 .34 2.54.54l-1.65 4.59c-1.5-.28-2.877-.42-4.13-.42-1.247 0-2.14.1-2.68.3-.54.2-.86.6-.96 1.2l-1.47 8.49h1.89c.68 0 1.183-.073 1.51-.22.333-.153.55-.5.65-1.04z" fill="#fff"/><g transform="translate(11.232614 -1.966)"><path d="m20.077 16.312c-.015-.062-.031-.124-.05-.184-.002-.007-.005-.013-.007-.019-.185-.581-.596-1-.943-1.478-.26-.357-.518-.735-.777-1.036-1.077-1.249-2.887-2.061-4.748-2.129h-.835c-1.442.078-2.697.497-3.683 1.18-.776.536-1.25 1.164-1.842 1.957-.321.429-.773.968-.936 1.401-.005.013-.009.025-.014.038-.021.061-.039.123-.057.186-.198.724-.165 1.528-.288 2.317v.806c.134 3.446.879 6.705 1.928 9.353.156.393.292.843.49 1.151.294.461 1.152.817 1.726.978.935.262 2.125.369 2.992.633h.174c1.017-.274 2.055-.377 2.992-.633.506-.138 1.127-.364 1.497-.69.227-.201.42-.627.575-1.008 1.078-2.637 1.876-5.794 2.072-9.209v-1.755c-.09-.586-.114-1.259-.266-1.859zm-3.763 7.126c.431.489.463 1.886-.115 2.33 1.029.558.782 2.248.173 2.907-.288.311-.991.701-1.64.834-.432.089-1.002.134-1.583.133-.847-.001-1.716-.1-2.216-.305-.307-.126-.683-.346-.892-.518-.693-.571-1.075-2.486 0-3.051-.51-.46-.591-1.828-.058-2.33-1.62.018-2.766-.638-2.82-2.073-.015-.396.055-.812.115-1.208.082-.54.326-1.006.374-1.641.059-.767.106-1.463.374-2.014.043-.087.094-.175.15-.262.157-.247.351-.484.484-.659-.093.218-.144.441-.16.661-.111 1.536 1.503 2.986 3.21 2.246-.226.981.613 1.461 1.444 1.45h.002c.817-.012 1.625-.498 1.403-1.45 1.686.65 3.289-.578 3.187-2.19-.015-.242-.068-.492-.166-.746.156.205.347.454.522.748.224.376.422.826.486 1.353.036.299.002.629.029.949.058.71.401 1.404.46 2.216.134 1.841-.953 2.633-2.763 2.62z" fill="#aaa"/><g clip-rule="evenodd" fill-rule="evenodd"><path d="m8.66 15.581c-.733 1.735 1.097 3.753 3.05 2.907-.448 1.947 3.297 1.922 2.849 0 1.939.747 3.768-.989 3.021-2.936.355.468.894 1.162 1.008 2.101.036.299.002.629.029.949.058.71.401 1.404.46 2.216.134 1.841-.953 2.633-2.763 2.62.431.489.463 1.886-.115 2.33 1.029.558.782 2.248.173 2.907-.288.311-.991.701-1.64.834-1.06.218-2.956.174-3.799-.172-.307-.126-.683-.346-.892-.518-.693-.571-1.075-2.486 0-3.051-.51-.46-.591-1.828-.058-2.33-1.62.018-2.766-.638-2.82-2.073-.015-.396.055-.812.115-1.208.082-.54.326-1.006.374-1.641.059-.767.106-1.463.374-2.014.163-.333.455-.684.634-.921z" fill="#fff"/><path d="m9.236 19.696c.39-.028 1.027.116 1.697.23.513.089 1.212.245 1.266.662.055.419-.481 1.161-.805 1.295-.749.311-2.497-.016-2.879-.345-.284-.246-.379-.748-.2-1.18.131-.319.484-.63.921-.662z" fill="#141414"/><path d="m16.832 19.696c.108-.005.424.014.576.087.407.195.911.977.461 1.611-.257.361-1.137.528-1.728.576-.922.074-1.439-.05-1.812-.634-.12-.186-.327-.518-.288-.776.064-.42.874-.574 1.208-.634.606-.107 1.047-.203 1.583-.23z" fill="#141414"/><path d="m12.947 21.97c.24-.053.528.012.749.144.36.214.739.592 1.093 1.093.299.424.736 1.033.662 1.497-.08.497-.852.698-1.468.748-.924.074-3.091.087-3.194-.719-.045-.353.398-1.064.576-1.324.37-.544.912-1.291 1.582-1.439z" fill="#141414"/><path d="m11.134 26.775c.58-.123 1.324 0 2.188 0 .665 0 2.323-.307 2.244.518-.056.584-1.7.461-2.388.461-.424 0-.891-.009-1.353-.029-.499-.022-1.056-.037-1.122-.374-.067-.341.142-.514.431-.576z" fill="#141414"/></g></g></svg>