<svg xmlns="http://www.w3.org/2000/svg"><g fill="#fff"><path d="m19.496 97.512 1.452-19.184h7.942l1.6 19.184h19.602l-12.288-97.036h-25.329l-12.475 97.036zm8.246-35.195h-5.648l2.864-37.708zm54.337-61.841h-27.311v97.036h18.682v-55.263l7.726 55.262h12.132l7.423-54.961v54.961h18.681v-97.035h-27.351l-5.078 42.86zm40.73 11.808c-.012 6.687-.089 13.371-.035 20.061.035 1.093.102 2.186.165 2.972.142 1.656.272 2.161.549 3.236.283 1.063.762 2.391 1.515 3.565.354.562.752 1.096 1.343 1.742.592.646 1.377 1.402 2.205 2.109 1.705 1.476 3.563 2.614 5.428 3.599 4.076 2.253 8.126 4.478 12.229 6.762.55.348 1.134.641 1.714 1.204 1.409 1.354 1.405 2.929 1.385 4.435l.078 2.096.03 13.139c.013.96-.08 1.907-.542 2.926-.158.296-.375.571-.635.794-.828.689-1.871.87-2.902.458-.318-.132-.61-.324-.857-.562-1.04-1-.92-2.42-1.069-3.638l-.021-19.775h-20.653l.021 22.141c.017 2.718.035 5.294.624 7.957.316 1.372.821 2.799 1.587 4.076.767 1.278 1.79 2.406 2.991 3.288 1.2.88 2.576 1.513 3.663 1.889 1.088.375 1.888.494 2.688.59.8.097 1.599.202 2.402.202l20.982-.001c.951 0 1.903.043 3.075-.28 1.173-.322 2.563-.893 3.764-1.656 1.203-.765 2.218-1.72 2.917-2.745.698-1.024 1.083-2.119 1.414-3.105s.607-1.866.809-3.039c.203-1.173.332-2.64.405-4.108.07-1.468.035-2.937.035-4.406v-15.554c0-.292 0-.585-.009-1.243-.006-.657-.019-1.678-.064-2.845-.046-1.169-.125-2.481-.197-3.33-.071-.848-.135-1.231-.213-1.612-.078-.38-.173-.756-.28-1.131-.107-.374-.225-.745-.524-1.389-.298-.642-.776-1.559-1.353-2.409-.576-.851-1.249-1.637-2-2.337-.753-.7-1.583-1.313-2.508-1.946-1.913-1.298-4.045-2.626-6.103-3.767l-8.767-4.784c-.528-.288-1.049-.589-1.551-.92-.504-.331-.99-.684-1.282-.907-.526-.401-.527-.454-.748-.689-.087-.098-.171-.199-.316-.437-.33-.526-.729-1.451-.803-2.233-.052-.42-.007-.843-.007-1.268.005-3.054-.016-6.207.014-9.162-.018-.688-.001-1.474.254-2.208.118-.361.272-.711.464-1.005.995-1.33 2.185-1.525 3.498-.973.298.155.573.38.806.641s.424.558.56.878.218.662.272 1.135c.111.975.121 2.316.113 3.495v11.54h20.742c-.023-5.959.072-11.912-.067-17.877-.058-1.38-.158-2.759-.242-3.668s-.154-1.347-.241-1.782c-.09-.435-.195-.865-.318-1.292s-.26-.85-.586-1.576c-.324-.726-.836-1.754-1.507-2.67-.671-.917-1.501-1.72-2.436-2.371s-1.974-1.147-2.865-1.468c-1.753-.602-3.089-.704-4.613-.899-.747-.079-1.497-.153-2.248-.147l-17.954.144c-2.06.067-4.101.323-6.247.924-.654.2-1.268.452-1.852.761-1.175.642-2.153 1.343-3.168 2.59-.511.634-1.052 1.442-1.495 2.301-.91 1.758-1.45 3.674-1.492 5.564m50.736-11.808v15.651h10.346v81.384h20.741v-81.384h10.267v-15.651h-41.36m69.003 0h-22.083v97.036h20.711v-38.679c1.357.052 2.712-.114 4.088.31.29.104.562.261.796.461.957.821.883 1.87 1.03 2.86.18 1.991.039 3.991.089 5.984v29.063h20.709l-.019-30.335c-.033-2.99-.236-5.952-.888-8.943-.183-.675-.425-1.35-.728-2.016-.458-1.063-1.078-2.056-1.833-2.934-.755-.877-1.645-1.639-2.627-2.25-.982-.61-2.06-1.07-3.181-1.36.541-.134 1.076-.303 1.608-.508 1.065-.405 2.065-.984 2.948-1.706.882-.723 1.646-1.589 2.251-2.556.603-.966 1.051-2.031 1.321-3.139.221-.793.406-1.591.556-2.394.485-3.27.659-6.547.593-9.833v-10.16c.065-2.005-.03-4.023-.287-6.031-.124-1-.29-1.996-.467-2.822s-.367-1.483-.612-2.12c-.246-.638-.546-1.254-.895-1.839-.351-.586-.751-1.142-1.195-1.66-.695-.741-1.478-1.398-2.33-1.952-1.767-1.146-3.75-1.786-5.707-1.954-4.604-.536-9.229-.385-13.843-.523m-1.376 15.777c.978.008 1.948.019 2.929.024.468.042.948.16 1.411.37 1.347.887 1.416 2.013 1.539 3.101.087 1.221.082 2.45.124 3.677-.017 4.251.054 8.5-.05 12.75-.011.759-.074 1.516-.187 2.272-.035.353-.139.701-.305 1.016-.165.314-.393.595-.666.824-.626.564-1.46.593-2.213.682-.857.081-1.722.091-2.582.03zm50.493 81.259 1.451-19.184h7.944l1.598 19.184h19.602l-12.297-97.036h-25.326l-12.473 97.036h19.495m8.244-35.195h-5.649l2.864-37.708 2.783 37.708m71.671-55.853c-.711-1.14-1.628-2.154-2.695-2.966-1.069-.813-2.284-1.423-3.189-1.786s-1.497-.478-2.089-.582c-.594-.105-1.185-.198-1.78-.267-.596-.068-1.193-.111-2.611-.175-1.418-.062-3.656-.202-5.896-.203l-26.86-.009v97.036l32.918-.055c.819-.002 1.621-.235 2.426-.377 1.698-.305 3.192-.628 4.787-1.35.839-.377 1.742-.879 2.562-1.499.819-.619 1.558-1.356 2.254-2.493.696-1.138 1.352-2.673 1.833-4.552.48-1.877.848-4.097.843-6.319l-.144-66.231c-.005-1.512-.384-3.006-.77-4.388-.37-1.381-.868-2.645-1.577-3.784m-23.103 9.874c.441 0 .884-.035 1.31.018.429.053.838.152 1.177.258s.603.221.841.38c.237.159.446.362.612.595.718 1.076.629 2.608.692 3.965v55.884c0 .412-.002.825-.06 1.227-.061.4-.158.79-.287 1.128-.129.337-.288.626-.5.872-.209.245-.47.447-.756.609s-.587.359-.916.359h-3.392v-65.295h1.27"/><path d="m454.82 87.501h-22.646c-2.711-.085-4.807-.199-6.233-.331-1.174-.11-2.047-.505-2.715-1.247-.622-.624-.992-1.629-1.107-2.985-.134-1.593-.243-4.018-.331-7.179v-54.473c0-2.644.087-4.754.259-6.273.151-1.323.613-2.32 1.446-3.083.729-.731 1.557-1.141 2.531-1.249 1.162-.129 3.265-.196 6.25-.196h22.546v15.739h10.547v-25.748h-35.739c-2.623 0-5.268.16-7.861.478-2.763.341-5.242 1.492-7.4 3.458-2.225 2.224-3.523 4.921-3.863 8.017-.315 2.88-.475 6.402-.475 10.471v54.474c0 3.628.161 6.705.479 9.146.342 2.645 1.505 4.975 3.456 6.922 1.947 1.95 4.34 3.135 7.114 3.523 2.587.364 5.918.548 9.897.548h34.529v-25.749h-10.683v15.737z"/><path d="m535.708 17.25c0-1.896-.067-3.734-.204-5.461-.143-1.818-.562-3.458-1.244-4.877-.699-1.443-1.753-2.703-3.136-3.741-1.374-1.028-3.281-1.792-5.724-2.281-.647-.091-1.249-.16-1.809-.209-.548-.045-1.251-.089-2.114-.137-.885-.044-2.032-.067-3.417-.067h-43.742v10.009h9.145v77.017h-9.145v10.009h30.186v-10.009h-9.281v-34.11h21.884c1.904 0 3.771-.045 5.546-.135 1.865-.092 3.594-.378 5.144-.85 1.625-.494 3.074-1.346 4.306-2.534 1.233-1.188 2.203-2.822 2.888-4.881.38-1.239.619-2.632.715-4.142.089-1.46.089-3.395.002-5.712zm-11.355 3.81v12.152c0 2.304-.067 4.203-.199 5.645-.114 1.279-.447 2.276-.987 2.964-.512.654-1.393 1.118-2.617 1.38-1.394.298-3.461.45-6.142.45h-19.186v-33.165h18.651c2.624 0 4.697.088 6.17.265 1.284.152 2.234.513 2.823 1.071.58.551.97 1.506 1.16 2.836.211 1.522.317 3.677.317 6.402z"/><path d="m589.313 71.764v15.739h-22.646c-2.709-.086-4.806-.199-6.233-.332-1.171-.11-2.047-.505-2.712-1.246-.622-.625-.995-1.63-1.108-2.987-.132-1.588-.245-4.011-.331-7.178v-54.474c0-2.644.086-4.754.259-6.272.154-1.325.613-2.322 1.448-3.084.729-.732 1.558-1.141 2.528-1.249 1.162-.129 3.265-.196 6.251-.196h22.545v15.739h10.551v-25.748h-35.741c-2.623 0-5.267.16-7.859.478-2.766.341-5.244 1.492-7.402 3.458-2.224 2.224-3.523 4.921-3.861 8.016-.317 2.877-.478 6.4-.478 10.472v54.474c0 3.63.161 6.708.48 9.146.343 2.645 1.505 4.974 3.456 6.922 1.948 1.95 4.343 3.135 7.113 3.523 2.588.364 5.918.548 9.898.548h34.529v-25.749h-10.689z"/></g></svg>