<svg preserveAspectRatio="none" xmlns="http://www.w3.org/2000/svg"><g fill="#1e1e1e"><path d="m508.445 444.08c-11.288-.001-20.438-9.152-20.439-20.438v-209.115c.001-11.288 9.151-20.438 20.439-20.439h185.249c11.287.001 20.437 9.151 20.437 20.439v209.115c0 11.286-9.15 20.437-20.437 20.438zm-18.854-229.553v209.115c.018 10.413 8.442 18.834 18.854 18.852h185.249c10.412-.018 18.834-8.439 18.852-18.852v-209.115c-.018-10.412-8.44-18.835-18.852-18.853h-185.249c-10.412.018-18.835 8.44-18.854 18.853z" transform="matrix(.965926 -.258819 .258819 .965926 -62.10411 166.440532)"/><path d="m510.124 331.886c-.002-14.789 3.656-28.697 9.867-41.052.894-1.986 1.256-3.724 1.256-5.31.004-3.486-1.769-6.383-3.987-9.419-2.232-3.083-6.494-6.921-13.302-15.08-4.553-5.458-7.516-12.392-7.516-20.095.002-16.914 13.712-30.625 30.627-30.626 11.619.001 21.448 6.621 26.891 15.96 4.282 7.395 8.7 14.821 13.988 16.737 2.908 1.083 5.127 1.459 7.195 1.459 1.913 0 3.719-.326 5.822-.766 6.271-1.311 12.767-2.101 19.45-2.101 49.869.002 90.293 40.427 90.293 90.293 0 49.867-40.425 90.293-90.293 90.293-49.866 0-90.291-40.426-90.291-90.293zm11.297-40.37c-6.119 12.164-9.712 25.832-9.712 40.369 0 24.5 9.927 46.671 25.981 62.727 16.056 16.054 38.229 25.981 62.726 25.981 24.499 0 46.671-9.927 62.727-25.981 16.054-16.056 25.981-38.228 25.981-62.727 0-24.498-9.927-46.669-25.981-62.726-16.056-16.054-38.229-25.981-62.727-25.981-6.558 0-12.944.773-19.125 2.066-2.122.443-4.05.801-6.147.801-2.268 0-4.708-.426-7.748-1.559-6.158-2.353-10.472-10.061-14.804-17.425-5.202-8.911-14.525-15.174-25.522-15.171-8.023 0-15.277 3.248-20.535 8.505-5.257 5.257-8.505 12.512-8.505 20.534 0 7.291 2.796 13.863 7.146 19.082 6.763 8.11 10.943 11.842 13.366 15.161 2.239 3.073 4.286 6.293 4.29 10.352.001 1.831-.425 3.805-1.396 5.961l-.721-.325z" transform="matrix(.965926 -.258819 .258819 .965926 -61.623746 164.404222)"/><path d="m529.359 329.559c.003-41.347 33.52-74.865 74.868-74.865 41.348 0 74.865 33.518 74.866 74.865-.001 41.348-33.519 74.867-74.866 74.868-41.349-.002-74.865-33.521-74.868-74.868zm23.05-51.819c-13.264 13.265-21.464 31.579-21.464 51.818 0 20.239 8.201 38.556 21.464 51.819 13.262 13.263 31.578 21.466 51.818 21.466 20.239 0 38.555-8.203 51.817-21.466 13.263-13.263 21.465-31.58 21.465-51.819 0-20.239-8.202-38.553-21.465-51.818-13.261-13.262-31.578-21.463-51.817-21.463-20.24 0-38.556 8.203-51.818 21.463z" transform="matrix(.965926 -.258819 .258819 .965926 -64.708032 167.614739)"/><path d="m567.051 329.559c0-20.531 16.644-37.174 37.175-37.175 20.532.001 37.175 16.644 37.175 37.175 0 20.532-16.643 37.174-37.175 37.175-20.532-.001-37.175-16.643-37.175-37.175zm12.009-25.166c-6.441 6.444-10.422 15.336-10.423 25.166.001 9.831 3.982 18.723 10.423 25.167 6.442 6.441 15.337 10.423 25.166 10.423 9.83 0 18.722-3.982 25.167-10.423 6.442-6.444 10.424-15.336 10.424-25.167 0-9.83-3.982-18.722-10.424-25.166-6.445-6.44-15.336-10.423-25.167-10.423-9.829 0-18.724 3.983-25.166 10.423z" transform="matrix(.965926 -.258819 .258819 .965926 -64.70766 167.61469)"/><path d="m539.887 329.559c0-35.535 28.806-64.339 64.339-64.34 35.535.001 64.339 28.805 64.341 64.34-.002 35.534-28.807 64.339-64.341 64.339-35.534 0-64.339-28.805-64.339-64.339zm19.966-44.375c-11.358 11.361-18.382 27.043-18.382 44.375 0 17.332 7.024 33.014 18.382 44.373 11.358 11.359 27.042 18.382 44.373 18.382 17.332 0 33.015-7.023 44.375-18.382 11.357-11.359 18.38-27.043 18.38-44.373 0-17.333-7.023-33.017-18.38-44.375-11.36-11.359-27.043-18.381-44.375-18.381-17.332 0-33.015 7.022-44.373 18.381z" transform="matrix(.965926 -.258819 .258819 .965926 -64.707486 167.614935)"/><path d="m549.684 329.559c.002-30.123 24.42-54.541 54.542-54.542 30.121.001 54.54 24.419 54.54 54.542 0 30.121-24.419 54.541-54.54 54.541-30.122 0-54.54-24.42-54.542-54.541zm17.096-37.446c-9.584 9.587-15.511 22.82-15.511 37.447 0 14.626 5.927 27.859 15.511 37.445 9.586 9.584 22.818 15.51 37.446 15.512 14.625-.002 27.859-5.928 37.445-15.512 9.584-9.586 15.51-22.821 15.512-37.445-.002-14.627-5.928-27.86-15.512-37.447-9.586-9.584-22.821-15.51-37.445-15.51-14.627 0-27.86 5.926-37.446 15.51z" transform="matrix(.965926 -.258819 .258819 .965926 -64.707558 167.614392)"/><path d="m557.64 329.559c.002-25.728 20.857-46.586 46.586-46.586 25.728 0 46.584 20.858 46.584 46.586h.001c-.001 25.729-20.857 46.585-46.585 46.585-25.729 0-46.584-20.856-46.586-46.585zm14.766-31.819c-8.145 8.145-13.181 19.391-13.181 31.819 0 12.43 5.035 23.674 13.181 31.82 8.145 8.143 19.391 13.181 31.82 13.181 12.429 0 23.674-5.036 31.819-13.181 8.145-8.146 13.181-19.391 13.181-31.82 0-12.429-5.035-23.674-13.181-31.819-8.145-8.145-19.391-13.182-31.819-13.182-12.429 0-23.675 5.037-31.82 13.182z" transform="matrix(.965926 -.258819 .258819 .965926 -64.707539 167.614532)"/><path d="m487.406 259.759c.001-12.28 9.954-22.232 22.234-22.234 12.281.002 22.234 9.954 22.234 22.234 0 12.281-9.954 22.234-22.234 22.234-12.281 0-22.234-9.953-22.234-22.234zm1.585 0c.019 11.405 9.244 20.628 20.648 20.649 11.404-.02 20.629-9.244 20.65-20.649-.021-11.404-9.246-20.628-20.65-20.648-11.404.02-20.629 9.245-20.648 20.648z" transform="matrix(.965926 -.258819 .258819 .965926 -49.864979 140.75543)"/><path d="m593.354 356.601v-.794l.561-.561-.561.561v.794h-.328l-15.84-15.842v-22.402l15.84-15.839h22.4l15.842 15.839v22.403l-15.84 15.84h-22.074zm21.416-1.586 14.912-14.913v-21.086l-14.912-14.912h-21.088l-14.911 14.91v21.088l14.913 14.913z" transform="matrix(.965926 -.258819 .258819 .965926 -64.70769 167.614697)"/><path d="m596.789 329.559c0-4.109 3.328-7.439 7.436-7.439 4.109 0 7.439 3.33 7.439 7.439 0 4.11-3.33 7.437-7.439 7.437-4.108 0-7.436-3.328-7.436-7.437zm1.584 0c.007 3.232 2.621 5.847 5.852 5.854 3.233-.007 5.848-2.622 5.856-5.854-.008-3.233-2.623-5.848-5.856-5.854-3.231.006-5.845 2.621-5.852 5.854z" transform="matrix(.965926 -.258819 .258819 .965926 -64.70731 167.614521)"/><path d="m212.109 73.145h9.508v4.851h-9.508z" transform="matrix(.866028 -.49999 .499994 .866031 338.059787 302.280009)"/><path d="m198.83 77.987h9.509v4.851h-9.509z" transform="matrix(.765999 -.642848 .642858 .765994 344.439954 336.679806)"/><path d="m186.571 85.054h9.508v4.851h-9.508z" transform="matrix(.642755 -.766073 .766073 .642754 352.078489 367.748904)"/><path d="m175.741 94.147h9.508v4.851h-9.508z" transform="matrix(.5 -.866022 .86603 .499999 360.081016 397.02165)"/><path d="m166.648 104.977h9.508v4.851h-9.508z" transform="matrix(.342062 -.939676 .939671 .342069 368.432859 426.141181)"/><path d="m159.58 117.226h9.508v4.851h-9.508z" transform="matrix(.17364 -.984808 .984822 .173632 377.947526 456.527997)"/><path d="m154.741 130.512h9.508v4.851h-9.508z" transform="matrix(-.000013 -1 .999997 -.000013 390.153841 489.059229)"/><path d="m527.226 339.649-.828 9.471-8.883-.326 4.479-4.996.401-4.574z" transform="matrix(.965926 -.258819 .258819 .965926 -71.278861 146.926612)"/><path d="m530.058 352.885.828 9.473-4.831.423-.46-5.247-4.42-4.37z" transform="matrix(.965926 -.258819 .258819 .965926 -74.689953 148.339609)"/><path d="m154.74 172.511h9.509v4.851h-9.509z" transform="matrix(-.499993 -.866031 .866038 -.499984 462.205016 595.722753)"/><path d="m159.579 185.8h9.508v4.851h-9.508z" transform="matrix(-.642778 -.766051 .766055 -.642774 503.521016 628.588298)"/><path d="m166.648 198.047h9.508v4.85h-9.508z" transform="matrix(-.766073 -.642752 .642745 -.766077 554.523659 655.464996)"/><path d="m175.742 208.884h9.508v4.851h-9.508z" transform="matrix(-.866026 -.5 .500006 -.866025 614.326947 673.07097)"/><path d="m186.576 217.976h9.508v4.851h-9.508z" transform="matrix(-.939728 -.34194 .341942 -.939725 680.904164 678.342667)"/><path d="m198.822 225.044h9.508v4.85h-9.508z" transform="matrix(-.98481 -.173637 .173631 -.984809 751.122471 668.828957)"/><path d="m212.108 229.878h9.509v4.851h-9.509z" transform="matrix(-1 .00001 -.000013 -.999997 821.101586 642.997845)"/><path d="m614.143 406.583 9.472.829-.108 7.549-4.802-3.109-4.985-.436z" transform="matrix(.965926 -.258819 .258819 .965926 -85.235098 174.119822)"/><path d="m627.38 403.751 9.473-.828.423 4.832-4.934.432-4.853 3.114z" transform="matrix(.965926 -.258819 .258819 .965926 -83.822208 177.530302)"/><path d="m254.104 229.878h9.509v4.85h-9.509z" transform="matrix(-.866029 .499994 -.499994 -.86603 985.131872 471.581941)"/><path d="m267.398 225.044h9.509v4.851h-9.509z" transform="matrix(-.766058 .642772 -.642795 -.766051 1011.083639 391.033222)"/><path d="m279.665 217.99h9.509v4.85h-9.509z" transform="matrix(-.642801 .766038 -.766045 -.64279 1018.032751 305.52367)"/><path d="m290.479 208.883h9.509v4.851h-9.509z" transform="matrix(-.500006 .866023 -.866034 -.500002 1005.111782 220.099585)"/><path d="m299.587 198.06h9.509v4.851h-9.509z" transform="matrix(-.342008 .939695 -.939696 -.342019 972.932676 139.898001)"/><path d="m306.626 185.793h9.508v4.851h-9.508z" transform="matrix(-.17355 .984824 -.984836 -.173557 923.547179 69.646553)"/><path d="m311.472 172.511h9.508v4.851h-9.508z" transform="matrix(.000013 1.000003 -1.000009 .000013 860.302622 13.322788)"/><path d="m681.238 319.546.828-9.472 8.303.278-3.856 4.544-.444 5.073z" transform="matrix(.965926 -.258819 .258819 .965926 -58.165383 188.233129)"/><path d="m678.402 306.284-.829-9.471 4.833-.424.385 4.4 4.107 5.267z" transform="matrix(.965926 -.258819 .258819 .965926 -54.745021 186.843361)"/><path d="m311.481 130.515h9.508v4.852h-9.508z" transform="matrix(.500077 .865984 -.865985 .500074 631.478751 -51.344194)"/><path d="m306.639 117.225h9.508v4.851h-9.508z" transform="matrix(.642776 .766055 -.766056 .642782 557.871144 -38.046933)"/><path d="m299.587 104.985h9.509v4.852h-9.509z" transform="matrix(.766037 .6428 -.642783 .766045 492.294369 -10.49196)"/><path d="m290.482 94.145h9.508v4.852h-9.508z" transform="matrix(.866026 .5 -.500005 .866023 437.39695 28.044442)"/><path d="m279.647 85.056h9.509v4.852h-9.509z" transform="matrix(.939724 .341938 -.341938 .939723 394.627078 73.865438)"/><path d="m267.397 77.983h9.508v4.851h-9.508z" transform="matrix(.984812 .173636 -.173639 .984808 364.259792 123.208211)"/><path d="m254.105 73.145h9.508v4.852h-9.508z" transform="matrix(1 -.000016 .000013 .999997 345.360255 172.856016)"/></g></svg>