<svg xmlns="http://www.w3.org/2000/svg"><g fill="#fff"><path d="m104.061 181.851c-15.453-1.341-32.352-8.041-46.056-18.237-8.757-6.492-14.216-11.952-21.327-21.741-6.591-8.863-12.981-23.697-12.981-29.878 0-2.06-1.029-3.401-3.813-5.256-13.188-8.655-19.884-13.598-19.884-14.732 0-.721 5.049-4.534 11.232-8.554l11.229-7.31 2.268-7.012c2.574-7.725 10.506-24.621 12.876-27.195.825-.929 1.548-2.267 1.548-2.886 0-1.856 19.677-21.327 24.726-24.522 17.514-10.923 32.248-14.529 56.049-13.497 18.855.721 31.629 5.046 46.158 15.351 6.489 4.635 17.307 15.454 19.368 19.369 1.854 3.503-.825 3.401-5.46-.307-8.138-6.491-16.587-10.923-29.054-15.248-6.286-2.167-9.066-2.473-22.152-2.473s-15.864.306-22.153 2.473c-26.787 9.066-44.609 27.405-51.618 52.748-2.574 9.276-2.574 28.848 0 38.536 5.463 20.709 20.298 38.121 39.462 46.466 12.468 5.355 19.368 6.904 32.556 7.417 12.16.413 13.908.206 22.152-2.368 14.322-4.43 23.803-9.89 33.897-19.371 11.023-10.404 5.976 1.546-5.769 13.6-10.817 11.024-19.886 16.794-33.897 21.327-6.696 2.268-23.697 4.743-29.054 4.226-.826-.102-5.464-.518-10.303-.926z"/><path d="m161.757 143.729c-6.8-3.605-8.24-4.02-13.496-3.707-3.298.102-6.181 0-6.489-.313-.313-.309 1.44-5.151 3.915-10.614l4.532-10.094-4.43-4.432c-10.509-10.817-7.935-25.343 6.695-37.707 2.883-2.475 6.903-7.007 8.86-9.89 1.958-2.989 3.915-5.464 4.226-5.464.411 0 1.854 1.134 3.297 2.475 3.399 3.193 8.961 4.636 13.083 3.501 1.858-.41 4.947-2.574 6.904-4.635 3.092-3.09 3.813-3.503 4.328-2.06 1.236 2.987-1.649 13.496-5.256 19.473-1.956 3.191-3.501 6.077-3.501 6.387 0 .41 1.545 2.06 3.399 3.605 8.448 7.521 9.994 17.413 4.533 29.263-4.841 10.302-18.855 28.641-21.74 28.434-.616 0-4.636-1.852-8.86-4.222zm19.473-20.916c0-11.745-6.285-19.265-14.319-17.001-3.918 1.134-8.76 5.359-11.028 9.685-1.749 3.401-1.338 3.918 4.842 5.666 5.151 1.443 17.001 7.728 18.135 9.582 1.134 1.855 2.37-2.057 2.37-7.932zm-8.138-24.212c1.443-1.03 3.605-3.712 4.943-5.977l2.37-4.224-3.603.619c-5.154.824-10.716-1.441-16.281-6.697l-4.944-4.634-1.545 3.81c-1.856 4.43-.93 9.479 2.883 15.146 3.504 5.253 10.302 6.078 16.177 1.957z"/><path d="m208.636 141.873c-2.575-3.4-6.079-6.903-7.83-7.726-3.502-1.856-3.712-2.681-.928-5.154 1.96-1.748 2.062-3.191 2.062-23.9 0-20.401-.102-22.047-1.753-21.742-4.428.721-4.119-1.341 1.032-6.696 6.079-6.285 10.197-13.911 14.112-26.48 1.755-5.665 3.195-8.758 4.227-8.758 1.131 0 1.545 2.784 1.75 15.148l.312 15.146 6.387.307 6.387.312v5.663 5.667l-6.489.31-6.39.309.207 21.326.308 21.328h4.326c2.37 0 4.638.312 4.944.719.826.826-15.657 20.404-17.1 20.404-.413 0-2.987-2.781-5.564-6.183z"/><path d="m253.042 146.303c-.928-1.028-4.119-4.736-7.315-8.142-4.944-5.456-5.463-6.486-4.122-7.623 1.341-1.131 1.545-6.387 1.545-37.499v-36.267l-4.017-7.932c-2.265-4.33-3.708-8.142-3.089-8.452 1.439-.926 2.882.31 5.148 4.944l2.165 4.227 1.546-3.09c3.813-7.419 10.611-11.951 19.989-13.292 6.489-.928 7.004.617 1.955 5.666l-4.119 4.122.204 43.582.31 43.479 3.089.308c6.391.619 6.289 1.03-1.131 8.551-8.862 8.964-10.2 9.788-12.158 7.418z"/><path d="m342.061 141.669c-2.574-2.167-7.83-6.082-11.644-8.761-6.492-4.325-6.902-4.842-5.459-6.387 1.338-1.545 1.649-4.947 1.649-19.265v-17.413l-3.609-5.049c-4.43-6.179-4.532-8.651-.515-15.453 4.124-7.214 13.704-17.723 15.249-16.691 1.755 1.028 1.443 8.964-.307 11.333-2.369 3.091-1.856 4.944 2.574 10.921l4.123 5.561.102 19.063v19.163l5.256 4.017 5.355 4.02 3.918-4.532c2.265-2.577 4.634-6.801 5.562-9.892 1.442-4.943 1.442-5.978-.105-11.85-.928-3.605-4.221-11.745-7.312-18.132-3.197-6.284-5.568-12.156-5.256-12.981.31-.722 2.37-1.857 4.534-2.369 2.163-.619 9.683-2.784 16.692-4.845 8.858-2.676 13.083-3.502 13.805-2.781.721.719-1.239 3.503-6.285 8.757l-7.418 7.625 2.574 3.915c6.699 9.892 6.801 26.377.102 37.399-3.501 5.666-16.587 19.167-24.828 25.554l-4.122 3.192z"/><path d="m390.792 141.152c-3.707-3.503-5.46-6.077-5.975-8.552-.309-1.957-.514-14.835-.309-28.54l.309-24.828 2.577-2.783c1.443-1.545 5.768-4.329 9.683-6.283 4.02-1.958 9.583-5.669 12.571-8.141 2.988-2.574 5.772-4.636 6.285-4.636.414 0 3.09 2.265 5.769 5.049 2.784 2.781 7.728 6.489 11.127 8.347 7.212 3.809 7.833 4.532 5.151 6.386-3.603 2.574-4.222 6.489-4.222 26.991 0 21.64.412 23.185 5.563 21.844 1.443-.306 2.784-.204 3.09.207.309.515-3.4 5.049-8.241 10.098l-8.859 9.168-4.02-4.636c-2.268-2.577-4.842-6.39-5.77-8.552l-1.649-4.017-8.962 8.963-8.967 8.862zm20.608-16.589c1.544-1.338 1.751-3.81 1.751-22.254l-.105-20.706-4.532-3.915-4.639-3.918v25.55c0 17.62.415 26.067 1.137 26.788 1.341 1.341 3.709.722 6.388-1.545z"/><path d="m91.386 141.771c-5.87-4.843-7.106-8.244-7.827-20.811l-.62-11.131-6.079-3.293c-3.297-1.857-6.078-3.814-6.078-4.329 0-.619 2.781-2.37 6.282-4.123 5.875-2.883 6.288-3.296 6.39-6.696.207-6.696 1.752-12.467 4.224-15.041 1.236-1.341 5.256-3.915 8.76-5.562 3.502-1.654 8.961-5.154 12.156-7.731 3.193-2.574 5.976-4.636 6.387-4.636.309 0 2.988 2.062 5.773 4.636 2.883 2.577 7.929 6.39 11.228 8.345l6.078 3.814-2.577 2.987c-2.574 2.989-2.574 3.196-2.574 24.109 0 22.152.618 25.757 4.119 24.624 4.227-1.338 2.886 1.958-3.81 9.276-3.813 4.221-7.521 7.725-8.139 7.725-1.752 0-7.008-6.285-9.273-11.128-1.032-2.37-2.268-4.118-2.678-4.016-.31.101-2.679 2.061-5.152 4.325-2.472 2.37-6.285 5.872-8.655 8.037l-4.122 3.708zm19.476-16.588 2.985-2.37-.309-20.504-.204-20.503-5.049-4.842-5.049-4.844-.102 26.684c-.102 14.634.102 27.1.411 27.615 1.032 1.75 4.122 1.132 7.317-1.236z"/><path d="m291.576 141.771c-11.435-7.624-17.513-17.722-17.513-29.055 0-4.33-.414-5.049-4.639-8.554-2.577-2.057-4.637-4.118-4.637-4.634 0-.412 2.06-2.059 4.637-3.603 3.603-2.065 4.639-3.301 4.639-5.358 0-1.548.72-5.358 1.544-8.452 1.749-6.902 7.108-12.054 17.722-17.411 3.81-1.96 8.241-4.428 9.785-5.463l2.886-1.957 1.957 3.196c1.032 1.748 4.43 8.139 7.419 14.114l5.46 10.819-2.574 2.268c-1.443 1.13-7.626 6.284-13.603 11.228-6.077 4.948-11.024 9.787-11.024 10.614 0 1.648 3.194 8.136 5.357 10.819 3.403 4.221 11.128 6.179 15.457 3.915 1.338-.723 2.472-.723 3.089-.106 1.03 1.032-17.615 20.092-20.09 20.505-.724.204-3.298-1.134-5.872-2.885zm8.551-45.439 4.017-3.398-4.636-10.51c-7.211-16.071-6.801-16.278-6.903 2.574 0 18.859-.413 18.237 7.522 11.334z"/><path d="m550.489 140.636c-2.37-2.475-4.842-5.768-5.358-7.314-1.749-4.634-1.443-49.454.312-53.679 1.443-3.5 5.253-6.284 15.039-11.024 3.093-1.545 7.731-4.636 10.305-6.9l4.635-4.126 6.495 6.078c3.501 3.301 8.241 7.008 10.506 8.142 5.049 2.574 5.976 4.017 3.503 5.875-1.853 1.335-1.958 2.987-1.958 24.828v23.388l2.577.309c1.443.206 2.988.72 3.399 1.236.516.413-2.574 4.43-6.903 8.862l-7.728 8.139-3.606-3.607c-2.058-1.958-4.842-5.666-6.18-8.345l-2.37-4.846-8.655 8.659c-4.74 4.736-8.859 8.651-9.168 8.651-.312 0-2.578-1.955-4.845-4.326zm20.298-15.453 3.09-2.268v-20.913c0-11.54-.411-20.916-.825-20.916-.411 0-2.781-1.854-5.151-4.122l-4.326-4.224v27.405c0 26.788 0 27.304 2.061 27.304 1.236 0 3.504-1.03 5.151-2.266z"/><path d="m487.024 139.604c-6.696-8.138-6.903-9.372-6.903-36.882 0-21.636-.207-24.831-1.647-25.448-.828-.31-2.886.309-4.329 1.443l-2.784 2.06-.306 22.458c-.207 15.663.102 22.873.927 23.803.927 1.131.306 2.267-2.989 5.46-2.37 2.268-4.944 5.561-5.873 7.211-.825 1.753-1.855 3.193-2.163 3.193-.207 0-3.709-3.193-7.627-7.108-6.902-6.903-7.004-7.106-5.046-8.964 1.855-1.647 1.957-3.296 1.957-24.314 0-23.284-.513-26.583-4.119-26.583-1.032 0-2.268-.514-2.577-1.029-.72-1.236 13.599-17.515 15.351-17.515 2.574 0 8.757 7.83 10.097 12.672.619 2.679 1.545 4.843 1.96 4.843.306 0 1.44-1.029 2.574-2.164 1.029-1.236 5.46-5.154 9.891-8.757l7.829-6.492 2.679 3.402c1.443 1.956 4.534 5.358 7.006 7.624l4.329 4.121-2.784 3.295-2.781 3.299v21.739c0 12.054.516 22.563 1.032 23.388.513.824 1.956 1.545 3.192 1.545 1.239 0 2.472.515 2.679 1.029.207.618-3.297 4.742-7.83 9.171l-8.034 8.037z"/><path d="m521.128 139.604c-6.903-9.066-7.008-9.578-7.008-38.735 0-26.584 0-26.791-2.268-28.335-2.367-1.545-2.367-1.545 4.947-8.965l7.316-7.419 6.799 6.802c3.813 3.707 6.906 7.109 6.906 7.52 0 .517-.93 1.648-2.064 2.682-1.959 1.648-2.061 2.989-2.061 25.24 0 24.726.207 25.965 4.634 25.965 1.24 0 2.581.309 2.992.719.618.724-15.66 17.824-17.001 17.824-.414 0-1.854-1.545-3.192-3.298z"/><path d="m521.023 49.971c-1.44-2.574-3.915-5.461-5.358-6.387-1.44-.928-2.574-2.062-2.574-2.577 0-.514 2.574-3.607 5.666-6.801l5.668-5.767 6.077 5.974 6.079 6.08-3.813 3.603c-2.061 1.96-4.84 5.151-6.387 7.111l-2.577 3.5z"/></g></svg>