<svg xmlns="http://www.w3.org/2000/svg"><path d="m68.607 118.395h462.786c12.483 0 22.599 10.116 22.599 22.599v3.51c0 12.477-10.116 22.596-22.599 22.596h-462.786c-12.483 0-22.599-10.119-22.599-22.596v-3.51c0-12.483 10.116-22.599 22.599-22.599z" fill="#141414" fill-rule="evenodd"/><g fill="#fff"><path d="m162.021 139.149c0 .969-.171 1.92-.51 2.85-.339.921-.822 1.695-1.452 2.325-.864.852-1.827 1.497-2.892 1.935-1.056.435-2.376.654-3.954.654h-3.474v7.047h-5.58v-21.642h9.186c1.374 0 2.532.123 3.471.363.951.234 1.791.585 2.514 1.062.873.57 1.536 1.305 1.992 2.196.468.891.699 1.962.699 3.21zm-5.772.132c0-.609-.165-1.134-.492-1.569-.33-.447-.714-.756-1.149-.933-.582-.231-1.149-.357-1.701-.378-.552-.027-1.287-.042-2.208-.042h-.96v6.483h1.599c.948 0 1.728-.06 2.34-.174.618-.117 1.137-.351 1.554-.699.36-.309.615-.678.771-1.104.165-.435.246-.963.246-1.584z"/><path d="m187.125 153.96h-15.612v-21.642h5.58v17.457h10.032z"/><path d="m216.777 153.96h-5.772l-1.845-4.371h-10.98l-1.953 4.371h-5.625l9.876-21.642h6.426zm-9.288-8.343-3.87-7.758-3.84 7.758z"/><path d="m244.104 132.318-8.331 13.272v8.37h-5.58v-8.109l-8.535-13.533h6.339l5.1 8.373 4.872-8.373z"/><path d="m283.764 146.766c0 2.133-.906 3.867-2.718 5.205-1.8 1.326-4.254 1.989-7.356 1.989-1.794 0-3.357-.153-4.695-.465-1.326-.318-2.574-.72-3.735-1.206l1.791-4.179c.702.399 1.902.84 2.688 1.113 1.434.495 2.808.741 4.125.741.342 0 .786-.03 1.338-.087.555-.06 1.005-.153 1.353-.288.426-.177.774-.396 1.047-.657.279-.261.42-.651.42-1.161 0-.474-.204-.882-.609-1.221-.399-.348-.984-.618-1.758-.801-.816-.192-1.68-.372-2.589-.54-.9-.171-1.749-.39-2.544-.651-1.821-.591-3.135-1.392-3.939-2.397-.795-1.02-1.191-2.28-1.191-3.783 0-2.013.9-3.657 2.703-4.926 1.812-1.281 4.14-1.917 6.975-1.917 1.425 0 2.832.138 4.218.42 1.395.27 2.601.615 3.618 1.032l-2.352 3.867c-.453-.225-.936-.438-1.455-.624-1.263-.477-2.55-.714-3.867-.714-.468 0-.933.033-1.395.102-.456.057-.897.174-1.323.348-.378.147-.702.369-.975.669-.27.291-.408.624-.408 1.002 0 .57.219 1.014.654 1.323.438.3 1.263.579 2.472.828.795.165 1.557.327 2.283.48.738.156 1.527.369 2.367.639 1.659.543 2.88 1.287 3.666 2.223.792.933 1.191 2.145 1.191 3.636z"/><path d="m362.685 136.503h-6.756v17.457h-5.583v-17.457h-6.759v-4.185h19.098z"/><path d="m386.415 153.96h-16.647v-21.642h16.647v4.185h-11.094v3.738h10.368v4.185h-10.368v5.349h11.094z"/><path d="m423.642 153.96h-5.85l-.498-10.431-6.042 10.428h-3.852l-6.039-10.428-.498 10.431h-5.559l.795-21.642h5.439l7.941 14.955 7.929-14.955h5.439z"/><path d="m312.588 132.318-8.328 13.272v8.37h-5.586v-8.109l-8.529-13.533h6.339l5.1 8.373 4.869-8.373z"/><path d="m336.369 146.766c0 2.133-.906 3.867-2.721 5.205-1.8 1.326-4.254 1.989-7.353 1.989-1.791 0-3.357-.153-4.695-.465-1.329-.318-2.571-.72-3.735-1.206l1.794-4.179c.702.399 1.899.84 2.682 1.113 1.434.495 2.811.741 4.128.741.339 0 .786-.03 1.338-.087.552-.06 1.002-.153 1.353-.288.423-.177.774-.396 1.044-.657.282-.261.423-.651.423-1.161 0-.474-.204-.882-.612-1.221-.396-.348-.984-.618-1.758-.801-.813-.192-1.677-.372-2.586-.54-.903-.171-1.749-.39-2.544-.651-1.821-.591-3.135-1.392-3.939-2.397-.795-1.02-1.194-2.28-1.194-3.783 0-2.013.903-3.657 2.706-4.926 1.812-1.281 4.137-1.917 6.975-1.917 1.425 0 2.832.138 4.215.42 1.395.27 2.604.615 3.621 1.032l-2.352 3.867c-.453-.225-.939-.438-1.455-.624-1.263-.477-2.55-.714-3.87-.714-.462 0-.927.033-1.392.102-.456.057-.9.174-1.323.348-.378.147-.705.369-.975.669-.273.291-.408.624-.408 1.002 0 .57.219 1.014.654 1.323.438.3 1.26.579 2.472.828.795.165 1.557.327 2.28.48.738.156 1.527.369 2.373.639 1.656.543 2.877 1.287 3.66 2.223.798.933 1.194 2.145 1.194 3.636z"/><path d="m442.626 132.372v1.152h.03c.096 0 4.404.078 4.404 1.887v15.561c0 1.044-1.965 1.884-4.404 1.884h-.03v1.152h5.829 1.56 5.826v-1.152h-.027c-2.442 0-4.407-.84-4.407-1.884v-15.561c0-1.809 4.311-1.887 4.407-1.887h.027v-1.152h-5.826-1.56z" fill-rule="evenodd"/></g><path clip-rule="evenodd" d="m106.074 26.895-28.365 29.964-18.738-12.849s6.165-5.88.54-10.164c-4.383-3.342-16.686 3.744-16.152 17.661.627 16.053 10.545 25.146 21.501 25.146 10.176 0 12.849-8.202 12.849-8.202h22.797v18.912l32.046-84.552h36.663l29.436 75.993s2.139 4.008 4.278 5.079c0 0 .123-49.851.123-51.252 0-1.395-.186-2.937-1.059-3.939-1.434-1.653-3.882-2.337-3.882-2.337v-23.544h51.372c26.646 0 33.48 7.224 41.208 21.141 10.665-14.361 25.35-23.82 46.29-23.82 21.54 0 36.786 7.944 45.492 21.138 12.159-14.535 31.728-21.27 49.635-21.27 22.008 0 40.386 10.665 49.899 27.159v-24.348h49.494l5.217 13.239 3.885-13.239h51.105v23.007s-2.946.807-3.759 2.136c-.795 1.311-.654 5.496-.654 5.496l7.128 45.477c.3 1.479.825 3.024 2.1 4.155 1.479 1.323 3.477 1.074 3.477 1.074v26.214h-51.372v-19.803h-29.43v19.857h-48.297v-12.906s-17.652 15.525-40.401 15.525c-29.115 0-48.567-21.402-48.567-21.402v18.726s-2.136 0-34.242 0c-30.48 0-56.643-16.677-63.951-47.091-3.465 3.315-18.741 14.22-37.062 18.327-1.425.321-2.136.855-2.136 2.4 0 2.817 6.021 3.822 6.021 3.822v22.539s-158.4 0-187.827 0c-34.791.006-62.736-23.805-62.736-54.039 0-30.237 21.789-55.926 57.909-55.926 34.518 0 48.168 26.496 48.168 26.496z" fill="#141414" fill-rule="evenodd"/><path clip-rule="evenodd" d="m92.556 27.363-15.111 15.846s-.801.405-1.47.405-1.611-.675-1.611-.675l-1.869-1.596s-.54-.132-.54-.672c0-.528 1.476-1.875 1.476-4.416 0-2.544-.534-13.113-16.854-13.113s-23.547 15.252-23.547 27.831c0 12.576 7.755 35.586 33.183 35.586 14.787 0 17.919-8.304 17.919-8.304h5.082v21.681h-27.825c-33.174 0-51.642-25.962-51.642-44.688 0-28.716 24.972-44.652 47.631-44.652 21.939.003 35.178 16.767 35.178 16.767z" fill="#fff" fill-rule="evenodd"/><path clip-rule="evenodd" d="m139.389 12.981h22.875l27.831 72.777c.795 2.001 2.133 3.885 3.471 5.484 1.332 1.605 4.545 2.682 4.545 2.682v6.279h-33.57v-6.42s2.136.273 3.21-1.602c1.068-1.875 1.068-3.345.27-5.214-.804-1.878-6.435-16.725-6.435-16.725h-27.42s-5.613 14.982-6.156 16.317c-.537 1.338-.537 3.483 0 4.815.891 2.226 4.017 2.553 4.017 2.553v6.279h-26.895v-6.279s2.448-.843 4.281-2.682c2.007-2.007 2.673-4.152 2.673-4.152zm-.675 43.611h17.664l-9.096-25.416z" fill="#fff" fill-rule="evenodd"/><path clip-rule="evenodd" d="m208.815 12.981h42.813c15.786 0 31.569 5.613 31.569 23.805 0 18.198-11.505 24.621-21.402 29.172-11.427 5.25-26.487 9.369-26.487 9.369v13.908s.135.939 1.467 2.532c1.344 1.608 2.814 2.013 2.814 2.013v6.42h-31.038v-6.279s1.869-.408 3.216-1.743c1.332-1.338 1.605-2.943 1.605-2.943v-62.88s.123-2.676-.939-3.741c-1.071-1.08-3.615-2.547-3.615-2.547v-7.086zm26.757 13.107v37.191s25.149-10.431 25.149-25.149c0-18.195-25.149-12.042-25.149-12.042z" fill="#fff" fill-rule="evenodd"/><path clip-rule="evenodd" d="m375.915 27.516-15.117 15.846s-.804.402-1.476.402c-.663 0-1.599-.669-1.599-.669l-1.878-1.611s-.534-.126-.534-.657c0-.54 1.467-1.884 1.467-4.416 0-2.547-.528-13.116-16.854-13.116-16.323 0-23.547 15.249-23.547 27.828 0 12.567 7.761 35.583 33.186 35.583 14.787 0 17.922-8.298 17.922-8.298h5.088v21.675h-27.837c-33.171 0-51.639-25.953-51.639-44.682 0-28.713 24.966-44.655 47.628-44.655 21.942 0 35.19 16.77 35.19 16.77z" fill="#fff" fill-rule="evenodd"/><path clip-rule="evenodd" d="m430.098 102.714c-28.902 0-49.674-21.105-49.674-46.785 0-25.698 21.309-45.6 49.674-45.6 28.353 0 49.665 19.902 49.665 45.6 0 25.677-20.775 46.785-49.665 46.785zm-25.692-46.389c0 25.686 13.11 32.109 25.692 32.109 12.567 0 25.953-8.028 25.953-32.109 0-24.078-14.985-32.109-25.953-32.109-10.971 0-25.692 6.417-25.692 32.109z" fill="#fff" fill-rule="evenodd"/><path clip-rule="evenodd" d="m492.702 13.035h31.845l11.505 35.532 12.303-35.586h33.306v5.211s-2.214.939-3.198 2.145c-1.206 1.473-1.206 2.541-.939 4.686.267 2.136 8.826 60.201 9.096 62.343.273 2.142.534 3.345 1.068 4.818.531 1.458 3.081 2.67 3.081 2.67v5.397h-31.98v-5.796s2.811-.399 3.753-1.743c.936-1.341 1.332-2.145 1.068-4.278-.27-2.142-7.89-50.838-7.89-50.838l-13.914 43.077h-16.857l-13.785-40.41-6.954 47.631s-.27 2.859.804 4.419c1.47 2.142 4.155 2.142 4.155 2.142v5.748h-27.705v-6.147s2.205-.339 3.81-2.214c1.602-1.869 1.875-4.284 1.875-4.284l10.104-62.808s.609-2.346-.066-3.411c-.705-1.128-4.485-2.073-4.485-2.073z" fill="#fff" fill-rule="evenodd"/></svg>