<svg enable-background="new 0 0 598.189 350.26" preserveAspectRatio="none" xmlns="http://www.w3.org/2000/svg"><g fill="#1e1e1e"><path d="m365.304 241.574c-.512 0-.925-.414-.925-.925v-10.513c0-.512.414-.926.925-.926h10.513c.511 0 .925.414.925.926v10.512c0 .512-.414.925-.925.925h-10.513zm-.003-11.438v10.512l.003.003h10.512l.003-.003h-.001l.001-10.512-.003-.003h-10.512z" transform="matrix(.965926 -.258819 .258819 .965926 -48.297381 103.928883)"/><path d="m377.685 238.257c-.511 0-.925-.414-.926-.926v-10.513c.001-.511.414-.925.926-.925h10.513c.511.001.925.414.926.925v10.513c0 .512-.414.925-.926.925h-10.513zm-.002-11.439v10.513l.002.003h10.513l.003-.003h-.001l.001-10.513-.003-.003h-10.513z" transform="matrix(.965926 -.258819 .258819 .965926 -47.017016 107.020302)"/><path d="m390.066 234.939c-.511 0-.925-.414-.925-.926v-10.512c0-.512.414-.926.925-.926h10.514c.51 0 .924.414.925.926v10.512h-.001c0 .512-.413.925-.924.925h-10.514zm-.001-11.438-.001 10.512.002.003h10.514l.001-.003v-10.512l-.001-.003h-10.514s-.002.003-.001.003z" transform="matrix(.965926 -.258819 .258819 .965926 -45.736356 110.111809)"/><path d="m402.449 231.621c-.512 0-.926-.413-.926-.925v-10.513c0-.511.414-.925.926-.925h10.512c.511 0 .925.414.925.925v10.513c0 .511-.413.925-.925.925zm-.004-11.438v10.513l.003.003h10.513l.002-.003h-.001l.001-10.513-.002-.003h-10.513z" transform="matrix(.965926 -.258819 .258819 .965926 -44.455836 113.203335)"/><path d="m414.83 228.304c-.512 0-.926-.414-.927-.926v-10.513c0-.511.415-.925.927-.925h10.512c.512 0 .926.414.926.925v10.513c-.001.512-.414.925-.926.925h-10.512zm-.003-11.439v10.513l.003.003h10.512l.002-.003v-10.513l-.002-.003h-10.512z" transform="matrix(.965926 -.258819 .258819 .965926 -43.175332 116.294736)"/><path d="m427.21 224.986c-.511 0-.924-.413-.925-.925v-10.513c0-.511.414-.925.925-.925h10.513c.511.001.925.414.926.925v10.512c0 .512-.414.926-.926.926zm-.001-11.438v10.512l.001.003h10.513l.003-.003v-10.512l-.003-.003h-10.513z" transform="matrix(.965926 -.258819 .258819 .965926 -41.894813 119.386254)"/><path d="m439.593 221.668c-.512 0-.926-.413-.926-.925v-10.513c0-.511.414-.925.926-.925h10.513c.511 0 .925.414.925.925l-.001 10.513c-.001.512-.413.925-.924.925zm10.513-.922.002-.003v-10.513l-.002-.002h-10.514l-.003.002v10.513s.003.003.003.002z" transform="matrix(.965926 -.258819 .258819 .965926 -40.614142 122.477901)"/><path d="m451.974 218.351c-.512 0-.926-.415-.926-.925v-10.513c0-.511.415-.925.926-.925h10.513c.511 0 .924.414.924.925v10.513c0 .51-.413.925-.924.925zm-.003-11.438v10.513l.003.002h10.513l.002-.002v-10.513l-.002-.003h-10.513z" transform="matrix(.965926 -.258819 .258819 .965926 -39.333787 125.569188)"/><path d="m464.355 215.033c-.511 0-.926-.413-.927-.925l.001-10.513c0-.511.415-.925.926-.925h10.513c.511.001.924.414.925.925v10.513c-.001.511-.414.925-.925.925zm-.002-11.438v10.513l.002.002h10.513l.003-.002v-10.513l-.003-.003h-10.513z" transform="matrix(.965926 -.258819 .258819 .965926 -38.053166 128.660637)"/><path d="m476.736 211.716c-.511 0-.925-.414-.925-.925v-10.514c0-.511.414-.925.925-.925h10.513c.511 0 .926.414.926.925v10.513c0 .512-.414.925-.926.925h-10.513zm-.002-11.439-.001 10.513.003.002h10.513l.003-.002h-.001l.001-10.513s-.003-.002-.003-.001l-10.513-.001s-.003.002-.002.002z" transform="matrix(.965926 -.258819 .258819 .965926 -36.772567 131.752119)"/><path d="m489.119 208.397c-.512 0-.927-.413-.927-.925v-10.512c0-.512.415-.925.927-.926l10.512.001c.511 0 .924.413.926.925v10.513h-.001c0 .511-.414.925-.925.926zm-.003-11.437-.001 10.513.004.002h10.512l.002-.002v-10.513l-.002-.003h-10.512s-.004.003-.003.003z" transform="matrix(.965926 -.258819 .258819 .965926 -35.492071 134.843869)"/><path d="m501.5 205.081c-.513 0-.926-.414-.927-.926l.001-10.512c.001-.512.413-.925.926-.926l10.512.001c.511 0 .925.413.926.925v10.512h-.001c0 .512-.414.926-.925.926zm-.004-11.438v10.512l.004.003h10.512l.003-.003v-10.512l-.003-.003h-10.512z" transform="matrix(.965926 -.258819 .258819 .965926 -34.211567 137.935271)"/><path d="m387.494 248.872c-.512 0-.927-.414-.927-.926v-10.513c0-.51.415-.925.927-.925h10.513c.511 0 .925.414.925.925v10.513c0 .512-.414.926-.925.926zm-.003-11.439v10.512l.003.003h10.513l.002-.003v-10.512s-.002-.003-.002-.002l-10.513-.001z" transform="matrix(.965926 -.258819 .258819 .965926 -49.430171 109.920499)"/><path d="m399.874 245.554c-.51 0-.925-.413-.925-.926v-10.512c0-.511.414-.926.925-.926h10.514c.511.001.925.415.926.926v10.512c-.001.513-.415.925-.926.926zm-.002-11.439v10.513l.002.003h10.514l.003-.003h-.001l.001-10.513s-.003-.002-.003-.001l-10.514-.001z" transform="matrix(.965926 -.258819 .258819 .965926 -48.14951 113.012132)"/><path d="m412.256 242.236c-.51 0-.925-.413-.925-.925v-10.513c0-.511.415-.926.925-.926h10.513c.511 0 .926.415.926.926v10.513c0 .512-.415.925-.926.925zm-.002-11.438v10.512l.003.003h10.513l.002-.003v-10.512s-.002-.003-.002-.002l-10.513-.001z" transform="matrix(.965926 -.258819 .258819 .965926 -46.86885 116.103639)"/><path d="m424.638 238.919c-.511 0-.925-.414-.926-.926l.001-10.512c0-.511.413-.926.925-.926h10.513c.511 0 .925.414.925.926v10.512c0 .512-.413.926-.925.926zm-.003-11.439v10.513l.002.003h10.514l.002-.003v-10.513s-.002-.003-.002-.002l-10.514-.001z" transform="matrix(.965926 -.258819 .258819 .965926 -45.588479 119.19505)"/><path d="m437.019 235.601c-.51 0-.925-.413-.925-.926v-10.512c0-.511.415-.926.925-.926h10.513c.511 0 .926.415.926.926v10.512c0 .513-.414.926-.926.926zm-.003-11.439v10.513l.003.003h10.513l.003-.003v-10.513s-.003-.002-.003-.001l-10.513-.001z" transform="matrix(.965926 -.258819 .258819 .965926 -44.307817 122.286698)"/><path d="m449.4 232.283c-.511 0-.925-.413-.925-.925v-10.513c0-.511.414-.925.925-.926l10.513.001c.511 0 .925.413.926.925v10.513h-.001c0 .511-.413.925-.925.926zm-.002-11.438v10.513l.002.002h10.513l.003-.002h-.001l.001-10.513s-.003-.003-.003-.002l-10.513-.001z" transform="matrix(.965926 -.258819 .258819 .965926 -43.027307 125.378083)"/><path d="m461.782 228.966c-.511 0-.925-.414-.925-.926v-10.513c0-.511.414-.925.925-.925h10.513c.512 0 .925.414.926.925v10.513h-.001c0 .511-.414.926-.925.926zm10.513-.923.003-.003v-10.513s-.003-.003-.003-.002l-10.513-.001-.002.003v10.513s.002.003.002.002z" transform="matrix(.965926 -.258819 .258819 .965926 -41.746768 128.469748)"/><path d="m474.164 225.649c-.512 0-.925-.414-.926-.926l.001-10.513c0-.511.413-.925.925-.925h10.512c.511.001.925.414.926.925v10.513h-.001c0 .512-.413.925-.925.926zm-.003-11.44v10.514l.003.002h10.512l.002-.002v-10.514l-.002-.001h-10.512z" transform="matrix(.965926 -.258819 .258819 .965926 -40.466384 131.561068)"/><path d="m486.545 222.33c-.511 0-.926-.413-.927-.925l.001-10.513c0-.511.414-.926.926-.926h10.513c.51 0 .925.414.926.926v10.513h-.001c0 .512-.414.925-.925.926zm10.513-.922.003-.003v-10.512l-.003-.003h-10.513s-.003.003-.002.003l-.001 10.512s.003.003.003.002z" transform="matrix(.965926 -.258819 .258819 .965926 -39.185629 134.652533)"/><path d="m498.926 219.013c-.511 0-.925-.413-.925-.925v-10.512c0-.512.414-.926.925-.926h10.513c.512 0 .925.414.926.926v10.512h-.001c0 .512-.413.925-.925.925zm-.002-11.438v10.512l.002.002h10.513l.003-.002h-.001l.001-10.512-.003-.003h-10.513z" transform="matrix(.965926 -.258819 .258819 .965926 -37.905224 137.744199)"/><path d="m511.308 215.696c-.512-.001-.925-.415-.927-.926l.001-10.513c.001-.511.414-.924.926-.926l10.512.001c.511.001.924.414.926.925v10.513h-.001c-.001.511-.414.925-.925.927zm-.003-11.439v10.513l.003.003h10.512l.003-.003h-.001l.001-10.513-.003-.003h-10.512s-.003.003-.003.003z" transform="matrix(.965926 -.258819 .258819 .965926 -36.624738 140.835461)"/><path d="m523.689 212.378c-.511 0-.926-.414-.927-.925l.001-10.513c0-.512.415-.925.926-.925h10.513c.511 0 .925.413.927.925v10.513h-.002c0 .511-.414.925-.925.926zm-.003-11.439v10.513l.003.002h10.513l.003-.002v-10.513l-.003-.002h-10.513z" transform="matrix(.965926 -.258819 .258819 .965926 -35.344321 143.927158)"/><path d="m393.874 260.405c-.51 0-.925-.414-.926-.925l.001-10.514c0-.51.415-.924.925-.924l10.514-.001c.511 0 .925.415.925.925v10.514c0 .511-.414.925-.925.925zm10.514-.923.002-.002v-10.514s-.002-.003-.002-.002l-10.514-.001-.003.003v10.514s.003.002.003.001z" transform="matrix(.965926 -.258818 .258818 .965926 -52.197618 111.964723)"/><path d="m406.255 257.087c-.51 0-.924-.414-.924-.925v-10.514c0-.51.414-.924.924-.924h10.514c.511 0 .926.414.926.924v10.514c0 .511-.415.925-.926.925zm10.513-.923.003-.002v-10.514s-.003-.002-.003-.001l-10.513-.001-.002.002v10.514s.002.002.002.001z" transform="matrix(.965926 -.258819 .258819 .965926 -50.917148 115.05678)"/><path d="m418.637 253.77c-.512 0-.925-.414-.926-.925l.001-10.514c0-.511.413-.925.924-.925h10.514c.511 0 .925.414.925.925v10.514c0 .511-.414.925-.925.925zm10.513-.923.002-.002v-10.514s-.002-.003-.002-.002l-10.513-.001s-.003.003-.002.003l-.001 10.514s.003.002.003.001z" transform="matrix(.965926 -.258819 .258819 .965926 -49.636686 118.147919)"/><path d="m431.019 250.452c-.512 0-.926-.414-.926-.925v-10.514c0-.51.414-.925.926-.925h10.514c.511 0 .924.415.925.925v10.514h-.001c0 .511-.413.925-.924.925zm10.514-.923.002-.002h-.001l.001-10.514s-.002-.003-.002-.002l-10.514-.001-.003.003v10.514s.003.002.003.001z" transform="matrix(.965926 -.258819 .258819 .965926 -48.355992 121.23969)"/><path d="m443.4 247.135c-.511 0-.925-.414-.926-.925l.001-10.514c0-.511.414-.925.925-.925h10.513c.512 0 .926.414.926.925v10.514c0 .511-.414.925-.926.925zm10.513-.923.002-.003v-10.514s-.002-.002-.002-.001l-10.513-.001-.003.002v10.514s.003.003.003.002z" transform="matrix(.965926 -.258819 .258819 .965926 -47.075621 124.3311)"/><path d="m455.78 243.817c-.51 0-.924-.414-.924-.925v-10.514c0-.511.414-.925.924-.925h10.514c.511 0 .926.414.926.925v10.514c0 .511-.415.925-.926.925zm10.514-.923.003-.002v-10.514s-.003-.003-.003-.002l-10.514-.001-.001.003v10.514s.001.002.001.001z" transform="matrix(.965926 -.258819 .258819 .965926 -45.794928 127.422389)"/><path d="m468.163 240.499c-.512 0-.926-.414-.926-.925v-10.513c0-.511.414-.926.926-.926h10.513c.511 0 .925.415.925.926v10.513c0 .511-.414.925-.925.926zm-.002-11.438v10.513l.002.002h10.513l.002-.002v-10.513l-.002-.002h-10.513z" transform="matrix(.965926 -.258819 .258819 .965926 -44.514481 130.514092)"/><path d="m480.545 237.182c-.511-.001-.925-.414-.926-.926v-10.513c.001-.511.415-.924.926-.925h10.512c.512 0 .925.414.926.925v10.513h-.001c0 .511-.413.926-.925.926zm10.512-.923.002-.003v-10.513l-.002-.002h-10.512l-.003.002v10.513s.003.003.003.002z" transform="matrix(.965926 -.258819 .258819 .965926 -43.233928 133.605659)"/><path d="m492.926 233.864c-.511 0-.926-.414-.926-.925v-10.513c0-.512.414-.925.926-.925h10.512c.51.001.924.414.926.925v10.513h-.001c-.001.511-.414.925-.925.926zm-.003-11.438v10.513l.003.001h10.512l.003-.001v-10.513l-.003-.003h-10.512z" transform="matrix(.965926 -.258819 .258819 .965926 -41.953556 136.697078)"/><path d="m505.307 230.547c-.512 0-.925-.415-.925-.926v-10.513c0-.511.413-.925.925-.926l10.513.001c.511 0 .925.413.925.925v10.513c0 .512-.414.925-.925.926zm-.002-11.439v10.513l.002.002h10.513l.002-.002v-10.513s-.002-.003-.002-.002l-10.513-.001z" transform="matrix(.965926 -.258819 .258819 .965926 -40.672772 139.788568)"/><path d="m517.688 227.229c-.511-.001-.925-.415-.926-.925l.001-10.513c0-.511.414-.925.925-.926h10.513c.511 0 .925.415.925.926v10.513c0 .511-.414.925-.925.925zm10.513-.923.003-.002h-.001l.001-10.513-.003-.003h-10.513l-.002.003v10.513s.002.002.002.001z" transform="matrix(.965926 -.258819 .258819 .965926 -39.392286 142.87983)"/><path d="m528.283 223.05c-.511 0-.926-.414-.926-.926v-10.513c0-.511.415-.925.926-.925h8.163c.315-.022.295-.032.383-.159.088-.15.164-.577.162-1.273h-.001l.001-10.514c0-.511.414-.925.926-.926l10.513.001c.252-.01.526.132.656.331.135.197.169.402.171.594l-.001 23.385c0 .511-.414.926-.925.926h-20.048zm-.003-11.439v10.513l.003.002h20.048s.002-.002.002-.002v-23.385-.001h-10.416l-.003.001v10.515h-.462l.462.001c-.009.745-.049 1.265-.268 1.701-.22.46-.74.676-1.201.652-.775 0-6.375 0-8.162 0z" transform="matrix(.965926 -.258818 .258818 .965926 -36.121528 146.494045)"/><path d="m403.324 271.115c-.511 0-.925-.414-.925-.925v-10.513c0-.512.415-.926.925-.927l10.514.001c.511 0 .925.414.925.926v10.513c0 .511-.414.925-.925.926zm10.514-.922.002-.003v-10.513l-.002-.003h-10.514l-.002.003v10.513s.002.003.002.002z" transform="matrix(.965926 -.258819 .258819 .965926 -54.647632 114.775899)"/><path d="m374.96 276.544c-.512 0-.925-.414-.926-.925v-10.513c0-.512.414-.926.926-.926h26.721c.511 0 .926.414.926.926v10.513c-.001.511-.415.925-.926.926zm26.721-.922.002-.003v-10.513s-.002-.003-.002-.002l-26.721-.001-.002.003v10.513s.002.003.002.002z" transform="matrix(.965926 -.258818 .258818 .965926 -56.743156 109.716838)"/><path d="m415.706 267.797c-.512 0-.925-.414-.925-.925v-10.513c0-.512.413-.926.925-.927l10.512.001c.512 0 .926.414.927.926v10.513h-.001c0 .511-.414.925-.926.926zm10.512-.922.003-.003v-10.513l-.003-.003h-10.512s-.003.003-.002.003l-.001 10.513s.003.003.003.002z" transform="matrix(.965926 -.258819 .258819 .965926 -53.36697 117.86754)"/><path d="m428.088 264.479c-.512 0-.925-.413-.926-.924l.001-10.513c0-.512.413-.926.925-.927l10.513.001c.511 0 .925.414.925.926v10.513c0 .511-.413.924-.925.926zm10.513-.921.001-.003v-10.513l-.001-.003h-10.513l-.003.003v10.513s.003.003.003.002z" transform="matrix(.965926 -.258819 .258819 .965926 -52.086599 120.958951)"/><path d="m440.469 261.162c-.512 0-.925-.413-.926-.924v-10.513c0-.512.414-.926.926-.927l10.513.001c.511 0 .925.413.925.926v10.513c-.001.511-.413.924-.925.926zm10.513-.922.002-.002v-10.513l-.002-.003h-10.513l-.003.003v10.513s.003.002.003.001z" transform="matrix(.965926 -.258819 .258819 .965926 -50.806199 124.050289)"/><path d="m452.849 257.844c-.51 0-.924-.413-.925-.924v-10.513c.001-.512.415-.925.925-.927l10.514.001c.511.001.925.413.926.926v10.513c-.001.511-.414.924-.926.926zm10.514-.922.002-.002v-10.513l-.002-.003h-10.514l-.001.003v10.513s.001.002.001.001z" transform="matrix(.965926 -.258819 .258819 .965926 -49.525547 127.141795)"/><path d="m465.231 254.527c-.511 0-.924-.414-.925-.925v-10.513c0-.512.413-.926.925-.927l10.513.001c.512 0 .926.414.926.926v10.513c-.001.511-.414.925-.926.926zm10.513-.922.002-.003v-10.513l-.002-.003h-10.513l-.002.003v10.513s.002.003.002.002z" transform="matrix(.965926 -.258819 .258819 .965926 -48.244923 130.233385)"/><path d="m477.613 251.209c-.512 0-.926-.413-.926-.924v-10.514c0-.511.414-.925.926-.926l10.514.001c.51.001.923.414.924.925v10.514c0 .511-.413.924-.924.926zm10.514-.922.002-.002h-.001l.001-10.514-.002-.003h-10.514s-.003.003-.002.003l-.001 10.514s.003.002.003.001z" transform="matrix(.965926 -.258819 .258819 .965926 -46.964525 133.324718)"/><path d="m489.994 247.892c-.512 0-.925-.415-.925-.925v-10.513c.001-.512.414-.927.925-.927h10.514c.511 0 .923.415.925.927v10.513h-.001c0 .51-.413.925-.924.925zm-.002-11.438v10.513l.002.002h10.514l.002-.002h-.001l.001-10.513-.002-.003h-10.514z" transform="matrix(.965926 -.258818 .258818 .965926 -45.683688 136.416097)"/><path d="m502.376 244.574c-.512 0-.926-.414-.927-.924l.001-10.513c0-.512.414-.927.926-.927h10.513c.511 0 .923.415.925.927v10.513h-.001c0 .509-.412.924-.924.925zm-.003-11.437v10.513l.003.002h10.513l.002-.002v-10.513l-.002-.003h-10.513z" transform="matrix(.965926 -.258819 .258819 .965926 -44.403387 139.507712)"/><path d="m514.756 241.257c-.512-.001-.925-.413-.926-.925v-10.513c0-.511.415-.926.926-.926h10.514c.51 0 .924.415.925.926v10.513h-.001c0 .511-.413.924-.924.925zm10.514-.922.002-.003v-10.513s-.002-.003-.002-.003h-10.514l-.002.003v10.513s.002.003.002.002z" transform="matrix(.965926 -.258819 .258819 .965926 -43.122893 142.599099)"/><path d="m526.871 235.903c-.512 0-.925-.413-.927-.924l.002-10.513c0-.512.413-.926.925-.928h26.244c.511 0 .925.415.926.928v10.513h-.001c0 .51-.414.923-.925.924zm-.003-11.437-.001 10.513.004.003h26.244l.002-.003v-10.513l-.002-.003h-26.244s-.004.003-.003.003z" transform="matrix(.965926 -.258819 .258819 .965926 -41.056238 147.587849)"/><path d="m545.422 193.311c-.511 0-.926-.414-.926-.924v-10.514c0-.511.414-.925.927-.926h10.512c.511.001.925.415.926.926v10.513h-.001c0 .511-.413.925-.925.925zm-.002-11.438v10.513l.003.002h10.512l.004-.002h-.002l.002-10.513-.004-.003h-10.512z" transform="matrix(.965926 -.258819 .258819 .965926 -29.668646 148.90249)"/><path d="m557.471 190.083c-.512 0-.925-.414-.926-.925l.001-10.513c.001-.512.413-.925.925-.926l10.513.001c.51 0 .925.414.926.925v10.513h-.001c0 .511-.414.925-.925.925zm10.513-.922.003-.003h-.001l.001-10.513s-.003-.003-.003-.002l-10.513-.001s-.003.003-.002.003l-.001 10.513s.003.003.003.002z" transform="matrix(.965926 -.258819 .258819 .965926 -28.422617 151.911008)"/><path d="m569.597 186.833c-.512 0-.926-.413-.927-.925l.001-10.513c0-.511.414-.924.926-.925l10.513.001c.51 0 .925.413.926.924v10.513h-.001c0 .512-.414.925-.925.926zm-.003-11.438-.001 10.513.004.003h10.513l.003-.003h-.001l.001-10.513s-.003-.002-.003-.001l-10.512-.001c-.001 0-.005.002-.004.002z" transform="matrix(.965926 -.258819 .258819 .965926 -27.168532 154.938269)"/><path d="m548.733 205.668c-.511-.001-.926-.414-.926-.926v-10.513c0-.511.414-.925.926-.925h10.513c.511 0 .925.414.926.925v10.513h-.001c0 .512-.414.925-.925.926zm-.002-11.44v10.513l.002.003h10.513l.003-.003h-.001l.001-10.513-.003-.001h-10.513z" transform="matrix(.965926 -.258818 .258818 .965926 -32.754009 150.179979)"/><path d="m560.781 202.439c-.511 0-.924-.414-.926-.926l.001-10.512c.001-.511.414-.924.925-.927l10.514.001c.509 0 .924.414.925.925v10.513h-.001c0 .511-.414.925-.924.926zm10.514-.923.003-.003h-.001v-10.512s-.002-.003-.002-.002l-10.514-.001s-.002.003-.001.003l-.001 10.512s.002.003.002.002z" transform="matrix(.965926 -.258819 .258819 .965926 -31.507645 153.18835)"/><path d="m572.908 199.19c-.512 0-.927-.414-.927-.925v-10.512c0-.512.414-.927.927-.927h10.512c.511 0 .926.415.926.927v10.512c0 .511-.414.925-.925.925zm-.003-11.438-.001 10.513.004.002h10.513l.002-.002.001-10.513-.003-.003h-10.512c-.001 0-.005.003-.004.003z" transform="matrix(.965926 -.258819 .258819 .965926 -30.253691 156.216104)"/><path d="m552.044 218.023c-.512 0-.926-.414-.926-.924v-10.514c0-.511.414-.926.926-.926h10.513c.51 0 .925.415.926.926v10.514h-.001c0 .51-.414.924-.925.924zm-.003-11.438v10.513l.003.002h10.513l.003-.002h-.001l.001-10.513-.003-.003h-10.513z" transform="matrix(.965926 -.258819 .258819 .965926 -35.838933 151.458256)"/><path d="m564.092 214.795c-.511-.001-.924-.415-.926-.926l.001-10.513c.001-.51.414-.924.925-.925h10.514c.509 0 .925.413.925.925v10.513c0 .511-.415.926-.925.926zm-.001-11.439-.001 10.513.002.003h10.514l.003-.003h-.001l.001-10.513s-.003-.003-.003-.002l-10.514-.001s-.002.003-.001.003z" transform="matrix(.965926 -.258819 .258819 .965926 -34.592942 154.466523)"/><path d="m576.219 211.546c-.512 0-.927-.414-.927-.925v-10.513c0-.511.414-.925.927-.925h10.513c.51 0 .924.414.925.925v10.513c0 .511-.414.925-.925.925zm-.003-11.439-.001 10.514.004.001h10.513l.002-.001.001-10.514-.003-.001h-10.513s-.004.001-.003.001z" transform="matrix(.965926 -.258819 .258819 .965926 -33.338982 157.49428)"/><path d="m555.355 230.378c-.512 0-.926-.413-.927-.925v-10.513c0-.511.414-.925.927-.926h10.513c.51.001.924.415.925.926v10.513h-.001c0 .512-.413.925-.924.926zm10.513-.922.003-.003h-.001l.001-10.513-.003-.002h-10.513l-.003.002v10.513s.003.003.003.002z" transform="matrix(.965926 -.258819 .258819 .965926 -38.923983 152.735952)"/><path d="m567.403 227.15c-.512 0-.925-.414-.926-.924l.001-10.514c.001-.511.414-.925.925-.926l10.513.001c.51 0 .925.414.926.925v10.514h-.001c0 .51-.414.924-.925.925zm10.513-.922.003-.002h-.001l.001-10.514s-.003-.003-.003-.002l-10.513-.001s-.003.003-.002.003l-.001 10.514s.003.002.003.001z" transform="matrix(.965926 -.258819 .258819 .965926 -37.677958 155.744482)"/><path d="m579.529 223.901c-.512 0-.926-.414-.927-.924l.001-10.514c0-.512.414-.926.926-.926h10.513c.51 0 .925.414.926.926v10.514h-.001c0 .51-.414.924-.924.925zm10.514-.922.003-.002h-.001l.001-10.514-.003-.003h-10.513s-.004.003-.003.003l-.001 10.514s.004.002.004.001z" transform="matrix(.965926 -.258818 .258818 .965926 -36.423828 158.77153)"/><path d="m558.665 242.734c-.511 0-.926-.413-.926-.924v-10.513c.001-.512.414-.926.926-.926h10.513c.511 0 .925.414.926.926v10.513h-.001c0 .511-.414.924-.925.924zm-.003-11.437v10.513l.003.002h10.513l.004-.002h-.002l.002-10.513-.004-.003h-10.513z" transform="matrix(.965926 -.258819 .258819 .965926 -42.009124 154.013928)"/><path d="m570.714 239.506c-.511-.001-.925-.414-.926-.925l.001-10.513c0-.511.413-.925.925-.925h10.513c.511 0 .925.413.926.925v10.513h-.001c0 .511-.415.925-.925.926zm10.513-.922.003-.003h-.001l.001-10.513-.003-.003h-10.513s-.003.003-.002.003l-.001 10.513s.003.003.003.002z" transform="matrix(.965926 -.258819 .258819 .965926 -40.763237 157.022477)"/><path d="m582.84 236.257c-.512 0-.927-.413-.927-.924v-10.513c0-.512.415-.926.927-.927l10.513.001c.51 0 .924.414.925.926v10.513c0 .511-.414.924-.925.924zm10.513-.922.003-.002h-.001l.001-10.513s-.003-.004-.003-.002l-10.513-.002s-.004.004-.003.004l-.001 10.513s.004.002.004.001z" transform="matrix(.965926 -.258819 .258819 .965926 -39.508926 160.049904)"/><path d="m513.88 201.763c-.51 0-.925-.414-.925-.926v-10.512c0-.512.415-.925.925-.926l10.513.001c.512 0 .925.414.927.925v10.512h-.001c0 .512-.413.926-.926.926zm-.002-11.438v10.512l.002.003h10.513l.003-.003h-.001l.001-10.512-.003-.002h-10.513z" transform="matrix(.965926 -.258819 .258819 .965926 -32.930884 141.026754)"/><path d="m526.591 197.527c-.51-.001-.926-.414-.926-.925v-10.513c0-.512.415-.926.926-.926h16.711c.51.001.924.414.925.926v10.513c0 .51-.414.925-.925.925zm-.002-11.438-.001 10.513.003.002h16.711l.002-.002v-10.513s-.002-.003-.002-.002l-16.711-.001s-.003.003-.002.003z" transform="matrix(.965926 -.258819 .258819 .965926 -31.295872 144.97394)"/><path d="m536.554 247.382c-.512 0-.926-.413-.927-.924l.001-10.514c0-.511.414-.925.926-.926l20.048.001c.511 0 .924.414.925.925v10.514h-.001c0 .51-.414.923-.924.925zm20.048-.922.002-.002v-10.514s-.002-.003-.002-.002l-20.048-.001-.003.003v10.514s.003.002.003.001z" transform="matrix(.965926 -.258819 .258819 .965926 -43.803117 149.683227)"/><path d="m378.401 289.887c-.511 0-.926-.414-.926-.924v-10.514c0-.511.414-.926.926-.926h19.094c.511 0 .925.415.925.926v10.514c0 .511-.415.924-.925.925zm19.094-.922.002-.002v-10.514s-.002-.003-.002-.002l-19.094-.001-.003.003v10.514s.003.002.003.001z" transform="matrix(.965926 -.258819 .258819 .965926 -60.209389 110.075213)"/><path d="m371.763 265.052c-.511 0-.926-.414-.926-.925v-10.514c0-.51.414-.924.926-.924h20.048c.512 0 .926.414.926.924v10.514c0 .511-.414.925-.926.925zm20.047-.923.003-.002v-10.514s-.003-.002-.003-.002h-20.047l-.002.002v10.514s.002.002.002.001z" transform="matrix(.965926 -.258819 .258819 .965926 -53.991532 107.634521)"/><path d="m368.501 253.067c-.511 0-.926-.414-.926-.925v-10.514c0-.51.414-.925.926-.925h17.186c.512 0 .926.414.926.925v10.514c0 .511-.414.925-.926.925zm-.002-11.439-.001 10.513.003.002h17.186l.003-.002v-10.513s-.003-.003-.003-.002l-17.186-.001s-.003.003-.002.003z" transform="matrix(.965926 -.258818 .258818 .965926 -51.049288 106.011238)"/><path d="m517.408 252.831c-.511 0-.925-.413-.926-.924l.001-10.514c0-.511.414-.925.925-.925h17.664c.512 0 .925.414.926.925v10.514h-.001c0 .51-.413.923-.925.925zm-.002-11.438-.001 10.514.003.002h17.664l.003-.002h-.001l.001-10.514-.003-.002h-17.664s-.003.002-.002.002z" transform="matrix(.965926 -.258819 .258819 .965926 -45.906515 144.60531)"/><path d="m399.206 284.375c-.511 0-.925-.412-.926-.924l.001-10.513c0-.512.414-.926.925-.926h18.617c.512 0 .926.414.926.926v10.513c0 .511-.414.924-.926.925zm18.617-.921.002-.003v-10.513s-.002-.003-.002-.002l-18.617-.001-.002.003v10.513s.002.003.002.001z" transform="matrix(.965926 -.258819 .258819 .965926 -58.082105 115.210546)"/><path d="m418.095 268.522c-.512 0-.927-.414-.927-.925v-10.513c0-.512.414-.926.927-.927l99.18.001c.51 0 .925.414.925.926v10.513c0 .511-.414.925-.925.925zm-.003-11.438v10.513l.003.002h99.18l.003-.002h-.001l.001-10.513-.003-.003h-99.18z" transform="matrix(.965926 -.258819 .258819 .965926 -51.962509 129.98451)"/><path d="m364.265 267.257v-69.451h230.1v68.988.463zm229.639-.462v-.461zm-228.716-.461h228.254v-67.604h-228.254z" transform="matrix(.965926 -.258819 .258819 .965926 -43.851297 131.979062)"/><path d="m360.157 311.136v-.461l.462-.015-.462.015v.461h-.447l-4.082-129.395h254.085l-4.081 129.395zm244.58-.923 4.023-127.55h-252.179l4.023 127.55z" transform="matrix(.965926 -.258819 .258819 .965926 -47.336372 133.321492)"/><path d="m347.387 321.563v-158.476h268.119v158.015.461zm267.657-.461v-.463zm-266.734-.463h266.271v-156.629h-266.271z" transform="matrix(.965926 -.258819 .258819 .965926 -46.313432 132.864519)"/><path d="m381.822 350.27v-10.249h.923v10.249z" transform="matrix(.965926 -.258819 .258819 .965926 -76.304228 110.702779)"/><path d="m455.941 330.289v-10.131h.923v10.131z" transform="matrix(.965926 -.258819 .258819 .965926 -68.622525 129.207443)"/><path d="m544.366 306.716v-10.249h.924v10.249z" transform="matrix(.965926 -.258819 .258819 .965926 -59.493049 151.288323)"/><path d="m618.486 286.734v-10.129h.923v10.129z" transform="matrix(.965926 -.258818 .258818 .965926 -51.811232 169.792628)"/><path d="m348.161 215.922v-11.933h-.666v11.933h-.922v-12.855h2.511v12.855z" transform="matrix(.965926 -.258819 .258819 .965926 -42.369195 97.162972)"/><path d="m356.193 213.77v-11.933h-.666v11.933h-.923v-12.855h2.512v12.855z" transform="matrix(.965926 -.258819 .258819 .965926 -41.538549 99.168351)"/><path d="m364.224 211.618v-11.933h-.665v11.933h-.923v-12.855h2.512v12.855z" transform="matrix(.965926 -.258819 .258819 .965926 -40.707885 101.173862)"/><path d="m372.257 209.466v-11.933h-.667v11.933h-.923v-12.855h2.512v12.855z" transform="matrix(.965926 -.258819 .258819 .965926 -39.877258 103.179102)"/><path d="m380.288 207.314v-11.933h-.666v11.933h-.923v-12.856h2.511l.001 12.856z" transform="matrix(.965926 -.258819 .258819 .965926 -39.046461 105.184603)"/><path d="m388.319 205.162v-11.933h-.665v11.933h-.923v-12.856h2.511v12.856z" transform="matrix(.965926 -.258819 .258819 .965926 -38.215824 107.189976)"/><path d="m396.351 203.01v-11.933h-.666v11.933h-.922v-12.856h2.511l.001 12.856z" transform="matrix(.965926 -.258819 .258819 .965926 -37.385132 109.195534)"/><path d="m404.383 200.858-.001-11.933h-.665v11.933h-.923v-12.855h2.512v12.855z" transform="matrix(.965926 -.258819 .258819 .965926 -36.554648 111.200876)"/><path d="m412.415 198.706-.001-11.933h-.665v11.933h-.923v-12.855h2.511v12.855z" transform="matrix(.965926 -.258819 .258819 .965926 -35.723999 113.206247)"/><path d="m420.446 196.554v-11.934h-.666v11.934h-.923v-12.856h2.512l.001 12.856z" transform="matrix(.965926 -.258819 .258819 .965926 -34.893207 115.211741)"/><path d="m428.478 194.401v-11.933h-.666v11.933h-.923v-12.855h2.511l.002 12.855z" transform="matrix(.965926 -.258819 .258819 .965926 -34.062437 117.217373)"/><path d="m436.509 192.25v-11.933h-.665v11.933h-.924v-12.856h2.512v12.856z" transform="matrix(.965926 -.258819 .258819 .965926 -33.231948 119.222514)"/><path d="m444.541 190.097v-11.933h-.665v11.933h-.923v-12.856h2.511v12.856z" transform="matrix(.965926 -.258819 .258819 .965926 -32.400997 121.227969)"/><path d="m452.573 187.946v-11.933h-.666v11.933h-.923v-12.856h2.511l.001 12.856z" transform="matrix(.965926 -.258819 .258819 .965926 -31.570594 123.233238)"/><path d="m460.604 185.793v-11.933h-.665v11.933h-.924v-12.856h2.513v12.856z" transform="matrix(.965926 -.258819 .258819 .965926 -30.739692 125.238656)"/><path d="m468.636 183.642-.001-11.934h-.665v11.934h-.922v-12.856h2.511v12.856z" transform="matrix(.965926 -.258819 .258819 .965926 -29.909299 127.244264)"/><path d="m476.668 181.489v-11.933h-.667v11.933h.001-.924v-12.855h2.512l.001 12.855z" transform="matrix(.965926 -.258819 .258819 .965926 -29.078549 129.249575)"/><path d="m484.699 179.337v-11.933h-.666v11.933h.001-.923v-12.856h2.511l.001 12.856z" transform="matrix(.965926 -.258819 .258819 .965926 -28.247715 131.254879)"/><path d="m492.731 177.185v-11.934h-.666v11.934h-.923v-12.856h2.512v12.856z" transform="matrix(.965926 -.258819 .258819 .965926 -27.4171 133.260278)"/><path d="m500.763 175.033v-11.934h-.667v11.934h.001-.924v-12.856h2.513v12.856z" transform="matrix(.965926 -.258819 .258819 .965926 -26.586463 135.265748)"/><path d="m508.795 172.881v-11.933h-.667v11.933h.001-.923v-12.856h2.511v12.856z" transform="matrix(.965926 -.258819 .258819 .965926 -25.755793 137.271084)"/><path d="m516.826 170.729v-11.933h-.666v11.933h-.923v-12.856h2.512v12.856z" transform="matrix(.965926 -.258819 .258819 .965926 -24.925154 139.27663)"/><path d="m524.858 168.577v-11.933h-.667v11.933h.001-.923v-12.856h2.511l.001 12.856z" transform="matrix(.965926 -.258819 .258819 .965926 -24.094481 141.281978)"/><path d="m532.89 166.425-.001-11.933h-.665v11.933h-.924v-12.856h2.512l.001 12.856z" transform="matrix(.965926 -.258819 .258819 .965926 -23.26385 143.287514)"/><path d="m540.922 164.273-.001-11.934h-.666v11.934h-.922v-12.856h2.511l.001 12.856z" transform="matrix(.965926 -.258819 .258819 .965926 -22.433162 145.29298)"/><path d="m548.953 162.121v-11.935h-.667v11.935h.001-.923v-12.857h2.511l.001 12.857z" transform="matrix(.965926 -.258819 .258819 .965926 -21.60241 147.298379)"/><path d="m556.985 159.969v-11.934h-.667v11.934h-.923v-12.856h2.512l.001 12.856z" transform="matrix(.965926 -.258819 .258819 .965926 -20.771896 149.303767)"/><path d="m565.017 157.817-.001-11.934h-.666v11.934h-.923v-12.856h2.513v12.856z" transform="matrix(.965926 -.258819 .258819 .965926 -19.941235 151.309263)"/><path d="m573.048 155.664v-11.934h-.666v11.934h-.923v-12.856h2.511l.001 12.856z" transform="matrix(.965926 -.258819 .258819 .965926 -19.110328 153.314616)"/><path d="m581.079 153.512v-11.934h-.666v11.934h.001-.924v-12.855h2.512l.001 12.855z" transform="matrix(.965926 -.258819 .258819 .965926 -18.279815 155.320005)"/><path d="m337.831 232.135c-.001-2.01.885-3.815 2.286-5.042l.608.695c-1.209 1.06-1.971 2.612-1.971 4.347 0 1.703.736 3.231 1.91 4.29l-.618.686c-1.36-1.224-2.216-3.003-2.215-4.976z" transform="matrix(.965926 -.258819 .258819 .965926 -48.511791 95.72028)"/><path d="m364.071 330.06c-.001-2.009.885-3.814 2.286-5.04l.608.694c-1.21 1.06-1.972 2.612-1.972 4.346 0 1.704.736 3.232 1.911 4.291v.001l-.619.685c-1.359-1.225-2.215-3.003-2.214-4.977z" transform="matrix(.965926 -.258818 .258818 .965926 -72.962795 105.848193)"/><path d="m597.977 166.736c1.174-1.058 1.91-2.587 1.91-4.291 0-1.734-.762-3.286-1.971-4.346l.607-.694c1.401 1.226 2.287 3.032 2.286 5.04.001 1.974-.855 3.753-2.215 4.976v.001z" transform="matrix(.965926 -.258819 .258819 .965926 -21.612921 160.660527)"/><path d="m624.216 264.661c1.173-1.059 1.91-2.587 1.91-4.29 0-1.735-.761-3.286-1.971-4.347l.607-.695c1.401 1.227 2.287 3.033 2.287 5.042 0 1.973-.856 3.751-2.216 4.976z" transform="matrix(.965926 -.258819 .258819 .965926 -46.06355 170.788492)"/></g></svg>