<svg xmlns="http://www.w3.org/2000/svg"><g fill="#fff"><path d="m52.421 45.348c0-8.386-4.192-13.629-11.532-13.629-7.339 0-9.436 5.243-9.436 11.532 0 6.291 5.242 11.534 25.162 20.97s24.115 22.018 24.115 37.744-12.581 40.887-40.889 40.887-39.841-17.823-39.841-44.035h25.162c0 10.485 5.243 15.727 13.63 15.727s11.534-6.289 11.534-11.532c0-5.241.841-7.966-29.356-23.066-18.873-9.435-19.922-30.405-19.922-36.696 0-6.289 3.146-26.209 19.922-35.646 16.773-9.436 40.888-3.145 50.323 9.437 9.437 12.58 6.291 28.306 6.291 28.306-10.485.001-25.163.001-25.163.001z"/><path d="m278.884 4.459h-30.405v75.487l-49.276-76.535h-30.404v79.681l-51.374-78.633h-31.454l1.05 138.393h34.598v-20.967h30.404l12.581 19.92h38.792s0-58.714 0-67.102l44.035 68.149h34.597v-68.149l44.035 67.102h40.889zm-157.265 90.165v-19.921l13.628 19.92h-13.628z"/><path d="m373.243 140.755-87.02-136.296h175.089l-40.89 65.003s-10.484-6.289-24.115 14.679c-13.629 20.969-7.338 29.356-6.29 32.501-4.192 7.339-16.774 24.113-16.774 24.113z"/><path d="m583.229 66.078c-4.367 2.272-10.834.874-12.056-6.29 15.2-10.135 19.22-15.901 20.619-23.939 1.397-8.037-5.768-8.387-13.106-3.844s-17.298 16.25-17.648 31.102c-4.717 6.816-9.61 14.679-17.298 14.33 8.735-16.252 10.484-24.113 9.26-29.88-1.221-5.766-7.512-5.766-21.84 15.726 1.396-12.93 6.812-24.462 7.862-27.607 1.047-3.146 1.222-5.767-2.099-4.893-3.317.874-7.687 8.736-13.452 23.064-5.767 14.328-15.028 27.082-17.822 30.404-2.796 3.32-7.515 4.716-7.166-4.021.351-8.736 5.942-15.725 7.166-19.568 1.223-3.844-.875-10.31-3.321-8.737-2.447 1.573-10.31 16.6-14.154 23.239-3.843 6.64-8.561 12.755-10.308 14.502s-5.244 1.224-3.845-4.192c1.398-5.417 5.067-11.008 6.815-13.804s5.417-8.561 1.573-10.134-13.106 3.32-16.249 24.637c-2.621 5.416-5.942 8.912-9.96 10.309 1.572-7.689 3.493-26.558-4.018-22.89 1.223-4.193-.877-6.115-4.894-5.416-4.02.699-20.618 10.136-21.668 31.276-3.669 6.466-12.93 14.679-17.823 14.679-4.891 0-7.687-4.37-7.338-9.086.35-4.718 6.465-11.183 9.435-12.58 1.05 2.621 2.795 2.446 3.845 2.446 1.048 0 4.367-3.844 5.59-9.786 1.224-5.941.526-8.91-2.445-9.96-2.969-1.047-11.182 4.193-16.075 11.184-4.893 6.988-13.281 20.616-2.622 32.672 10.66 12.058 21.317-1.047 29.006-15.375 2.096 7.861 8.037 11.181 12.404 11.181 4.369 0 11.359-5.417 14.154-11.705 4.194.173 10.134-5.244 12.755-10.31-.175 5.591 6.815 10.833 11.01 9.96 4.193-.876 9.61-11.359 12.93-18.521 0 9.261-.525 16.25 6.116 16.075 6.639-.176 16.948-19.046 28.306-39.84-5.243 25.336-9.086 34.248-9.961 41.586-.874 7.338.699 18.173 3.842 18.173 3.147 0 5.944-15.552 6.816-29.355 6.639-1.923 8.039-2.446 9.261-2.446 1.225 0 5.766 1.924 12.579-2.97 6.816-4.893 10.833-11.183 15.727-17.648 3.67 8.912 9.959 12.056 20.268 6.29s15.726-21.842 16.6-25.86c-5.935 9.436-12.403 15.55-16.771 17.822zm-135.939 31.976c-.348 6.814-5.068 8.736-7.163 8.736-2.096 0-5.941-.348-5.941-6.989 0-6.638 5.941-14.502 12.23-20.618 2.447-2.271-.176 3.67-.874 10.309-.7 6.641.349 9.436 1.748 8.562zm82.648-19.394c1.922-10.134 9.434-21.317 13.104-21.317 3.668 0-1.049 11.532-3.145 15.726-2.097 4.193-5.592 4.544-9.959 5.591zm51.894-42.11c3.319-2.796 4.717 1.223 1.397 5.941-3.318 4.717-10.659 11.532-12.58 12.231.875-9.26 7.862-15.376 11.183-18.172z"/><path d="m570.474 27.464c.175-4.369 2.445-10.309 6.466-15.026 4.019-4.719 11.006-12.057 13.627-12.407 2.623-.349 3.846 2.272 3.846 6.466 0 4.193 0 5.591-2.972 7.862-2.971 2.272-12.755 9.261-14.327 10.833-1.574 1.573-6.815 6.989-6.64 2.272z"/></g></svg>