<svg preserveAspectRatio="xMidYMid meet" xmlns="http://www.w3.org/2000/svg"><g fill="#fff"><path d="m366.298 169.637c-13.377-12.479-5.171-36.985 12.254-36.985 5.508 0 10.23 2.248 12.815 6.07 2.473 3.935 2.249 5.284-.787 4.609-1.686-.449-3.147 0-4.159 1.124-2.473 3.036 1.461 9.219 6.857 10.792 6.97 2.136 11.804.562 15.064-5.058 6.071-10.343 3.148-21.36-9.555-36.086-5.734-6.633-14.39-16.863-19.336-22.933-2.473-3.035-2.361-10.68.225-16.525 3.26-7.307 6.183-10.343 12.928-13.49 9.78-4.609 18.661-3.036 26.755 4.946 3.485 3.372 4.159 3.71 4.159 1.911 0-1.237-1.124-6.857-1.124-8.094.113-4.159 5.396 3.935 6.745 10.342 1.911 9.331-.225 16.638-7.082 23.945-4.834 4.946-6.858 4.834-4.609-.45 2.248-5.396 1.124-9.78-3.71-15.176-4.497-4.946-9.78-5.958-13.04-2.361-4.722 5.284-1.237 12.141 12.815 25.069 13.265 12.254 16.638 17.987 17.537 30.578 1.237 16.3-5.733 30.352-18.324 36.76-4.384 2.248-7.194 2.81-13.49 2.81-6.857 0-8.543-.449-12.928-3.26-5.171-3.372-9.667-7.756-11.916-11.466-1.124-2.024-1.349-2.024-3.26-.225-2.136 2.023-2.698 7.419-1.236 12.478 1.011 3.71-.113 3.822-3.598.675z"/><path d="m15.109 167.388c-14.952-7.869-19.673-24.619-10.23-35.861 1.686-1.911 4.496-4.271 6.52-5.283 1.911-1.012 3.822-2.361 4.272-3.035.449-.675.899-28.667.899-62.167 0-53.173.225-61.042 1.686-61.042.9 0 1.911 1.124 2.136 2.586 4.272 19.335 8.431 29.565 11.692 28.553 1.011-.337 4.946-1.911 8.656-3.485 11.016-4.721 20.459-3.484 28.666 3.485 5.621 4.834 6.183 8.094.899 4.834-4.047-2.473-8.206-2.923-9.33-1.011-.45.674 1.236 4.047 3.709 7.531 10.343 14.839 8.432 22.371-10.792 40.92-10.005 9.668-13.04 10.792-16.862 5.958-1.237-1.574-2.586-2.81-2.923-2.81s-.674 12.366-.674 27.429c0 15.177-.45 27.767-1.012 28.105-.562.337-2.586-.225-4.609-1.125-4.722-2.36-12.141-1.461-14.839 1.799-4.272 5.284-1.687 14.052 6.407 21.921 4.722 4.497 4.947 5.059 2.586 5.059-1.349-.112-4.497-1.124-6.857-2.361zm32.713-98.926c5.846-6.52 6.295-8.319 3.597-13.94-3.26-6.857-5.958-8.993-8.993-7.307-3.035 1.574-5.621 7.644-5.621 12.815 0 5.172 3.148 13.041 5.171 13.041.9 0 3.485-2.136 5.846-4.609z"/><path d="m285.696 143.444c-3.71-1.687-10.118-10.905-11.355-7.645l-1.124 3.036-1.911-4.16c-1.012-2.361-1.798-7.082-1.798-10.455 0-5.508.449-6.745 3.26-9.667 5.058-5.059 12.365-4.497 15.288 1.349 2.473 4.609 2.136 5.171-2.473 5.058-3.597-.112-4.384.338-4.609 2.361-.45 2.923 3.373 7.082 6.52 7.082 3.598 0 6.745-4.047 6.745-8.431 0-6.183-2.923-11.129-16.075-26.868-7.42-8.993-9.331-13.939-8.207-21.471 1.686-10.68 12.029-16.975 21.022-12.478 1.911 1.011 3.822 1.798 4.047 1.798 1.012 0 .113-5.058-1.799-10.117-2.585-6.745-1.349-7.195 4.722-1.686 6.52 5.958 10.342 15.063 10.342 24.731 0 5.846-.562 8.656-2.136 11.017-1.124 1.686-2.36 3.035-2.81 3.035s-1.349-2.248-2.136-4.946c-2.361-9.106-13.715-14.614-14.614-7.082-.45 3.709 2.023 7.532 12.253 18.548 9.668 10.343 13.378 17.65 13.378 26.081 0 7.307-3.822 16.188-8.544 19.448-3.71 2.698-13.49 3.598-17.986 1.462z"/><path d="m568.536 142.657c-12.478-2.473-27.655-14.052-30.465-23.271-2.248-7.531-4.946-5.508-6.183 4.385-.562 5.058-.225 7.082 1.686 10.904 4.047 7.869 3.822 8.094-8.319 8.094-11.803 0-11.916-.112-8.993-7.082 1.349-3.373 1.686-10.455 1.686-38.896 0-21.359.45-35.074 1.125-35.524.562-.337 2.585.112 4.384 1.124 4.946 2.473 15.738 3.373 22.483 1.686 6.633-1.573 11.017-.449 13.49 3.598s2.81 15.288.675 21.134c-1.012 2.811-2.249 6.633-2.811 8.431-.45 1.911-1.686 5.172-2.698 7.42-4.047 9.443 4.722 20.685 18.999 24.507 6.182 1.686 12.253-.338 16.412-5.396 4.61-5.621 4.497-12.928-.112-21.359-3.935-6.97-3.822-6.858-1.911-6.858 2.136 0 6.857 5.396 9.668 10.905 3.035 6.07 3.147 15.963.225 22.258-3.71 8.319-14.277 15.401-22.034 15.064-1.237-.113-4.497-.562-7.307-1.124zm-31.814-46.316c1.124-1.461 10.455-11.691 10.455-14.389 0-1.574-12.816-1.237-14.39.337-1.349 1.349-1.911 11.691-.674 14.839.899 2.473 2.136 2.248 4.609-.787z"/><path d="m58.164 140.858c0-1.124 1.012-3.485 2.249-5.396 2.023-3.035 2.248-5.284 2.248-22.146 0-10.455-.337-18.886-.787-18.886-1.461 0-10.567 3.372-13.94 5.059-3.709 1.911-5.508 2.136-5.508.562 0-1.686 30.352-31.477 32.151-31.477 1.237 0 1.574 2.923 1.574 16.301 0 14.839.225 16.3 2.136 17.424 3.035 1.574 4.159 1.462 6.183-.674 1.461-1.462 1.798-4.947 1.798-20.91v-19.223l4.385-8.544c2.36-4.721 5.171-11.466 6.295-15.064 1.124-3.485 2.248-6.183 2.586-5.845.337.225.449 22.483.337 49.351-.225 40.47 0 49.351 1.349 52.049.899 1.686 1.911 4.496 2.361 6.295l.674 3.035h-10.68c-10.342 0-10.679-.112-10.679-2.473.112-1.461.787-3.822 1.686-5.396 2.248-3.935 2.136-13.94-.112-16.188-2.024-2.136-3.148-2.248-6.183-.675-1.686 1.012-2.136 2.474-2.136 7.757 0 3.598.787 8.431 1.686 10.567.899 2.249 1.686 4.609 1.686 5.284 0 .674-4.047 1.124-10.679 1.124-9.443 0-10.68-.225-10.68-1.911z"/><path d="m108.864 139.846c-3.597-4.496-4.834-10.005-5.396-23.382-.674-13.266.337-19.898 4.834-32.489 3.597-10.117 3.485-13.377-.674-17.986-1.799-2.136-3.373-4.16-3.373-4.61 0-.337 9.443-.674 20.91-.674 19.448 0 20.909.112 20.347 2.023-.337 1.012-1.799 4.947-3.148 8.657-2.023 5.733-2.473 9.218-2.473 23.607-.112 20.01 1.124 35.973 3.26 40.133.9 1.686 1.574 4.047 1.574 5.396 0 2.136-.674 2.248-10.68 2.248-9.892 0-10.679-.112-10.679-2.248 0-1.237 1.012-4.16 2.248-6.408 3.598-6.745 3.035-11.466-2.023-16.413-2.361-2.248-5.171-4.159-6.296-4.159-1.798 0-2.023.787-1.573 6.183.674 7.644 1.798 8.993 5.845 7.194 1.574-.787 3.26-1.011 3.598-.674 1.011 1.012-10.118 15.851-12.141 16.3-1.012.225-2.811-1.011-4.16-2.698zm16.076-43.393c.337-1.461.787-6.295 1.011-10.679.563-9.668-.899-10.792-4.496-3.373-3.71 7.532-4.272 11.804-1.911 14.39 2.585 2.81 4.834 2.698 5.396-.338z"/><path d="m148.098 140.296c.112-1.461.786-3.822 1.686-5.396 1.349-2.248 1.574-10.68 1.686-46.316 0-26.867.45-43.617 1.124-43.617.562 0 2.024 2.248 3.26 5.171 1.237 2.81 4.047 7.082 6.183 9.668 2.811 3.147 5.171 8.206 7.982 16.75 2.248 6.745 4.609 12.028 5.171 11.579.562-.338 1.012-6.521 1.012-13.715 0-14.952 1.236-18.212 8.319-22.708 4.159-2.474 17.537-4.609 17.537-2.698 0 .562-2.361 2.248-5.172 3.709-8.318 4.497-8.318 4.272-8.318 44.293 0 29.228.224 35.523 1.686 37.434.899 1.124 1.686 3.485 1.686 5.284v3.035h-10.117c-8.994 0-10.118-.225-10.118-2.023 0-1.125.787-3.036 1.686-4.272.9-1.124 1.687-3.373 1.687-4.947 0-4.159-8.319-28.441-10.006-29.003-1.911-.675-1.349 30.128.563 32.488.674.9 1.573 2.923 1.798 4.722l.562 3.035h-9.892c-9.668 0-10.005-.112-10.005-2.473z"/><path d="m195.313 141.083c0-1.012.899-3.148 2.023-4.722 1.574-2.473 2.024-6.969 2.81-24.506.45-11.692.9-24.17 1.125-27.543.224-5.171-.113-6.182-1.799-6.52-1.124-.225-3.035.45-4.272 1.462-2.923 2.698-3.485.899-3.035-9.556l.337-8.094 17.425-.225 17.424-.112.338 8.769.337 8.768-3.71-.337c-3.597-.337-3.71-.225-4.384 5.059-.45 3.035-1.349 6.969-2.024 8.88-.674 1.912-1.236 11.242-1.236 20.798 0 15.176.225 17.761 2.136 20.347 1.124 1.686 2.36 4.384 2.81 6.183l.675 3.035h-13.49c-11.355 0-13.49-.225-13.49-1.686z"/><path d="m234.883 140.184c-4.609-4.947-6.183-11.579-6.183-26.643 0-13.49.113-14.502 4.16-25.631 4.721-12.703 4.721-16.076 0-22.259-1.462-1.911-2.249-3.822-1.911-4.272 1.236-1.236 39.683-.786 39.683.45 0 .675-.675 2.586-1.574 4.384-3.597 6.745-5.396 20.91-4.722 35.299 1.012 21.135 2.249 32.601 3.823 35.299 3.035 5.396 2.135 5.958-9.331 5.958-5.846 0-10.68-.337-10.68-.787 0-.562 1.349-3.372 2.811-6.52 1.574-3.035 2.81-6.857 2.81-8.431 0-3.71-3.597-9.443-7.419-11.916-2.811-1.911-3.036-1.911-4.609.112-2.698 3.71.562 13.715 3.934 12.366 7.195-3.035 7.42-1.911 1.237 5.621-2.473 3.035-5.059 6.407-5.621 7.532-1.461 2.698-3.485 2.585-6.408-.562zm15.626-45.417c0-3.035.45-7.869 1.012-11.017 1.012-6.407.787-7.082-1.686-5.058-2.474 2.023-4.722 6.632-5.621 11.354-.562 3.035-.225 4.609 1.686 6.97 3.373 4.271 4.497 3.822 4.609-2.249z"/><path d="m311.102 141.083c0-1.012 2.023-3.71 4.496-6.183 7.532-7.42 7.42-13.94-.562-24.17-6.52-8.431-7.869-12.478-6.183-18.773 1.687-6.183 8.207-18.549 11.804-22.596 6.408-6.745 12.478-8.544 6.97-2.023-6.408 7.644-10.005 25.068-6.071 29.003 1.574 1.686 2.249 1.686 6.633-.112 12.253-4.722 18.099-15.851 15.514-29.791-1.237-7.082-7.982-21.471-13.94-29.79-2.136-3.148-3.71-5.846-3.485-6.071 2.136-2.248 22.371 18.437 27.654 28.104 3.261 6.071 3.823 8.094 3.71 14.39-.112 8.881-2.473 14.726-11.354 27.429-11.242 15.964-13.94 26.418-9.33 35.524 1.236 2.473 2.248 4.946 2.248 5.621 0 .674-5.059 1.124-14.052 1.124-11.916 0-14.052-.225-14.052-1.686z"/><path d="m437.008 140.746c0-1.125.787-3.036 1.687-4.272 1.236-1.574 1.573-5.733 1.686-16.975 0-8.881 2.248-21.247 2.136-28.666l-.113-12.366-2.922.674c-6.633 1.574-6.408 1.799-6.745-7.307-.225-6.295.112-8.881 1.236-9.892 1.124-.9 6.633-1.237 17.762-1.012l16.188.337 1.012 6.408c.449 3.597.562 7.757.225 9.33-.563 2.361-1.237 2.698-3.485 2.136-3.373-.899-6.183 1.124-6.183 4.497 0 1.237-.45 11.691-.9 23.158-.899 19.898-.449 26.53 2.024 28.104.562.337 1.461 2.248 1.798 4.272l.787 3.597h-13.152c-11.804 0-13.041-.225-13.041-2.023z"/><path d="m475.342 139.846c-3.934-4.946-5.171-11.354-5.058-26.867 0-13.378.337-15.514 3.597-25.182 4.384-12.703 4.384-15.401.675-20.909-1.687-2.473-2.474-4.609-1.799-5.284.562-.562 9.218-.787 19.448-.674 21.134.337 19.898-.45 15.626 11.579-3.373 9.555-4.272 31.589-1.799 43.28 1.012 4.609 1.799 10.455 1.799 12.928.112 2.473.787 5.733 1.686 7.307 3.485 6.183 2.698 6.745-8.993 6.745-6.633 0-10.68-.45-10.68-1.124 0-.675 1.012-3.148 2.248-5.621 1.237-2.473 2.249-6.632 2.249-9.33 0-4.385-.562-5.509-4.609-9.106-3.822-3.485-4.834-3.935-6.296-2.811-1.236 1.012-1.573 2.698-1.124 5.734.787 6.295 2.361 7.756 6.52 6.295 1.911-.675 3.598-.899 3.935-.562.337.225-1.461 2.923-3.822 5.958s-4.946 6.633-5.733 8.094c-1.799 3.372-5.059 3.148-7.87-.45zm16.076-41.144c.337-.787.787-5.958 1.124-11.354.45-7.307.225-9.781-.674-9.556-2.249.787-6.52 10.005-6.52 14.165 0 5.396 4.833 10.679 6.07 6.745z"/></g></svg>