<svg xmlns="http://www.w3.org/2000/svg"><g fill="#fff"><path d="m242.055 20.455c0 5.132.028 10.262-.009 15.392-.024 2.936-.474 3.359-3.356 3.453-.909.03-1.834-.072-2.734.021-2.622.275-4.541-.825-6.29-2.713-7.426-8.018-14.93-15.963-22.404-23.936-.311-.332-.598-.697-.955-.972-.586-.45-1.081-.345-1.166.453-.081.788-.048 1.592-.048 2.39-.003 6.954.012 13.911-.006 20.866-.012 3.538-.357 3.849-3.949 3.897-5.456.073-5.456.073-5.456-5.474 0-9.35 0-18.7 0-28.051 0-.797-.006-1.595.018-2.392.04-1.187.605-2 1.846-2.024 2.619-.049 5.257-.176 7.855.072.979.094 2.009.994 2.77 1.768 3.755 3.812 7.459 7.676 11.121 11.582 3.894 4.148 7.706 8.375 11.591 12.535.423.453 1.07.7 1.614 1.042.099-.647.29-1.293.293-1.943.021-6.725.012-13.452.012-20.18 0-.798-.052-1.601.024-2.393.172-1.84.716-2.483 2.544-2.514 7.857-.138 6.628-.395 6.679 6.121.037 4.335.009 8.668.006 13z"/><path d="m36.107 17.745h7.861c1.538 0 2.302.761 2.302 2.305-.006 4.559 0 9.114 0 13.673-.003 1.764-.897 2.493-2.628 3.009-1.734.52-7.085 1.616-13.081 2.142-5.997.523-10.622-.211-15.74-1.677-2.359-.676-4.613-1.9-6.74-3.172-10.537-6.311-11.033-20.93.07-28.334 4.341-2.894 9.147-4.308 14.289-5.154 5.716-.94 11.317-.326 16.957.23 1.009.096 2.021.35 2.985.667 1.858.613 2.293 1.275 2.369 3.257.105 2.8-.689 3.386-3.463 2.625-6.347-1.743-12.779-2.06-19.213-.68-3.251.701-6.209 2.194-8.632 4.592-5.516 5.456-4.631 14.743 1.883 18.951 2.712 1.753 5.679 2.583 8.993 2.777 3.311.19 3.861.19 7.178-.036 1.118-.076 2.23-.354 3.348-.496 1.552-.199 2.06-1.097 2.039-2.595-.115-7.483.858-6.127-6.036-6.266-.913-.018-1.831.067-2.734-.036-2.302-.254-3.459-2.453-2.447-4.531.537-1.1 1.501-1.269 2.58-1.263 2.619.012 5.238.003 7.86.003z"/><path d="m105.48 19.866c0-4.789-.012-9.583 0-14.375.015-3.933.235-4.175 4-4.184 7.528-.018 15.056-.03 22.585.006 2.782.015 3.148.396 3.202 2.789.061 2.64-.386 3.145-3.16 3.172-4.562.045-9.126-.006-13.688.018-3.094.018-3.103.045-3.154 2.991-.024 1.368-.033 2.737.003 4.105.072 2.526.145 2.623 2.806 2.647 4.221.036 8.441-.024 12.662.024 2.836.03 4.132 2.236 2.939 4.852-.544 1.187-1.619 1.106-2.634 1.112-3.538.018-7.075.009-10.61.009-.798 0-1.598-.018-2.396.003-2.64.072-2.704.124-2.767 2.691-.039 1.596-.039 3.197 0 4.792.057 2.359.078 2.402 2.577 2.417 4.562.033 9.123.009 13.688.009.683 0 1.369-.027 2.052.009 2.453.133 3.021.719 3.048 3.081.03 2.568-.538 3.239-3.209 3.254-8.099.045-16.198.045-24.298 0-2.906-.015-3.607-.74-3.634-3.683-.049-5.241-.012-10.492-.012-15.739z"/><path d="m304.679 19.902c0-5.018-.028-10.039.012-15.06.024-3.085.471-3.52 3.613-3.532 7.643-.027 15.283-.033 22.927.003 2.915.015 4.172 2.067 3.045 4.783-.502 1.211-1.562 1.181-2.589 1.181-4.106.015-8.214.003-12.32.012-5.468.009-4.888-.465-4.9 5.012-.015 5.214-.426 4.731 4.824 4.743 3.65.006 7.302-.009 10.949.009 1.015.006 2.335-.124 2.568 1.13.241 1.287.202 2.734-.173 3.973-.145.483-1.534.812-2.365.833-3.42.094-6.843.043-10.266.043-.682 0-1.371-.006-2.051 0-3.456.027-3.462.027-3.495 3.341-.012 1.483-.043 2.97.012 4.45.072 2.012.112 2.088 2.193 2.106 4.791.045 9.583.015 14.371.018.798 0 1.604-.058 2.393.033 1.939.23 2.462.997 2.399 3.362-.058 2.088-.58 2.792-2.493 2.922-1.704.121-3.423.042-5.132.042-6.505 0-13.006.021-19.504-.009-3.36-.018-3.997-.656-4.018-3.997-.028-5.133 0-10.265 0-15.398z"/><path d="m432.357 4.537c-.042 2.402-.637 3.024-2.873 2.332-4.353-1.344-8.773-1.239-13.199-.906-1.544.115-3.154.568-4.543 1.253-2.889 1.426-2.994 4.544-.215 6.157 1.758 1.018 3.713 1.707 5.604 2.484 3.782 1.553 7.607 2.994 11.35 4.637 1.329.583 2.622 1.447 3.65 2.465 3.903 3.87 3.326 8.619-.674 11.779-3.16 2.496-6.945 3.326-10.785 3.852-5.417.74-10.834.432-16.208-.532-.78-.142-1.553-.344-2.308-.586-2.233-.716-3.263-2.921-2.299-5.078.184-.411.831-.873 1.26-.87.882.003 1.773.272 2.646.483 5.109 1.254 10.235 2.145 15.492.94.22-.052.462-.024.68-.085 2.117-.589 4.522-1.187 4.858-3.676.314-2.327-1.632-3.611-3.568-4.46-2.07-.909-4.181-1.743-6.329-2.45-3.898-1.281-7.831-2.54-11.148-4.999-1.493-1.109-2.852-2.695-3.668-4.36-1.35-2.758-.142-6.202 2.42-8.226 2.556-2.015 5.499-3.26 8.662-3.825 6.084-1.081 12.199-1.19 18.304-.096 2.384.426 2.94 1.132 2.891 3.767z"/><path d="m597.581 4.537c-.042 2.402-.637 3.024-2.876 2.332-4.35-1.344-8.77-1.239-13.199-.906-1.543.115-3.151.568-4.54 1.253-2.888 1.426-2.997 4.544-.215 6.157 1.759 1.018 3.71 1.707 5.604 2.484 3.78 1.553 7.607 2.994 11.347 4.637 1.333.583 2.626 1.447 3.653 2.465 3.903 3.87 3.326 8.619-.674 11.779-3.16 2.496-6.945 3.326-10.785 3.852-5.417.74-10.833.432-16.208-.532-.779-.142-1.553-.344-2.305-.586-2.236-.716-3.263-2.921-2.302-5.078.181-.411.831-.873 1.26-.87.882.003 1.776.272 2.646.483 5.109 1.254 10.239 2.145 15.492.94.224-.052.462-.024.68-.085 2.118-.589 4.522-1.187 4.858-3.676.317-2.327-1.635-3.611-3.568-4.46-2.07-.909-4.181-1.743-6.329-2.45-3.9-1.281-7.831-2.54-11.148-4.999-1.492-1.109-2.852-2.695-3.667-4.36-1.348-2.758-.142-6.202 2.419-8.226 2.556-2.015 5.502-3.26 8.662-3.825 6.084-1.081 12.199-1.19 18.307-.096 2.381.426 2.937 1.132 2.888 3.767z"/><path d="m504.449 1.319c2.392 0 4.788-.078 7.175.028 1.709.072 2.12.643 2.19 2.389.078 1.952-.351 2.532-2.091 2.843-2.809.505-2.837.505-2.843 3.32-.015 6.952-.015 13.903.003 20.851.003 2.46.034 2.46 2.457 2.895 1.996.359 2.525.988 2.474 2.951-.052 1.891-.68 2.641-2.734 2.677-4.556.078-9.118.078-13.674-.009-1.864-.036-2.462-.768-2.57-2.493-.124-1.975.395-2.682 2.293-3.12 2.441-.559 2.477-.559 2.486-2.982.021-7.063.021-14.127 0-21.193-.012-2.42-.055-2.42-2.592-2.894-1.852-.344-2.239-.822-2.19-2.752.045-1.894.48-2.426 2.438-2.499 2.392-.087 4.791-.021 7.178-.021z"/><path d="m369.773 220.182c-2.731-2.879-10.075-3.139-11.217-3.139-51.439 0-102.876-.003-154.318 0-5.23 0-6.169.644-5.529-5.984 1.049-10.846 5.033-20.924 12.909-28.706 1.508-1.535 2.012-2.055 5.459-5.178 14.604-13.236 43.703-23.845 43.703-23.845s24.346-8.991 38.02-14.372c6.141-2.416 12.138-5.205 17.609-8.99 19.831-15.634 9.535-31.15-16.615-34.766-18.314-2.62-34.999 1.851-50.425 11.688-2.012 1.287-3.713 2.568-5.658 3.964-3.447 2.915-6.408 6.317-7.048 10.075-.345 2.027-.015 3.426.027 3.758.13 1.051.45 2.719-.329 3.483-.94.919-2.892-.003-3.759-.825-7.948-7.51-15.908-15.005-23.866-22.506-.498-.472-1.417-1.475-1.417-1.475s-.87-1.009-.9-1.7c-.033-.777.731-1.508 1.643-1.792 4.336-.801 6.336-1.054 8.937-2.958 7.003-5.117 14.319-9.694 22.135-13.504 10.447-5.096 21.434-8.123 32.938-9.673 8.849-1.193 34.836-5.242 65.192 8.256 8.005 3.511 14.872 8.484 20.047 15.498 3.064 4.151 14.607 26.912-8.918 45.093-8.41 6.749-18.449 10.918-28.594 14.461-8.683 3.031-15.054 5.308-29.262 9.414-10.788 3.208-18.531 5.719-30.875 11.577-9.818 4.655-16.265 10.317-16.265 10.317s-3.215 2.48-2.592 4.419c.537 1.686 3.223 1.517 4.8 1.52 37.981.024 75.964.015 113.945.018 3.93 0 7.74-.275 10.74-3.362.438-.451 1.592-.692 2.115-.432.501.25.848 1.284.854 1.972.058 8.897.061 17.991.01 26.885-.007.864-.29 1.172-.719 1.423-.65.377-2.028.178-2.777-.614z"/><path d="m86.807 219.065c-6.23-.381-12.477-1.182-18.634-2.269-25.048-4.417-36.7-10.332-43.691-13.078-3.341-1.312-6.607-2.553-10.238-1.221-.414.154-.9.145-1.353.154-2.308.024-3.015-.873-2.012-2.933 1.193-2.453 2.595-4.813 4.005-7.157 3.825-6.344 7.701-12.658 11.559-18.984.178-.29.381-.568.556-.864.785-1.318 1.649-2.535 3.453-2.284 1.695.238 2.06 1.637 2.414 2.96.776 2.885 2.537 5.033 4.852 6.822 5.477 4.241 11.667 7.093 18.156 9.359 8.42 2.937 17.084 4.773 25.884 6.154 10.42 1.637 20.894 1.846 31.356 1.239 8.87-.517 17.607-2.118 25.966-5.384 5.09-1.988 8.948-5.498 12.042-9.788 4.099-5.689 2.42-13.513-3.169-17.96-7.589-6.042-16.417-8.432-25.767-10.036-8.407-1.441-16.803-1.287-25.217-1.178-3.951.051-13.395.426-17.017 3.785-1.332 1.175-2.39 1.263-3.024.692-.635-.574-.662-1.484-.668-2.278-.072-8.214-.081-16.432-.027-24.643.018-2.689 1.275-3.504 3.359-2.042 2.632 1.843 5.556 2.649 8.607 3.042 5.067.65 21.61.076 24.99-.365 9.036-1.182 8.245-1.04 13.52-2.453 5.643-1.511 11.029-5.475 13.839-8.746.045-.055.091-.109.136-.164 3.918-4.718 2.601-10.15-1.042-14.041-3.502-3.734-7.9-6.124-12.8-7.568-8.03-2.369-16.254-3.665-24.598-3.272-15.108.71-29.923 3.018-43.582 10.045-3.126 1.61-6.06 3.634-8.948 5.662-2.465 1.728-3.707 4.262-3.776 7.313-.036 1.587.217 3.399-1.668 4.091-1.9.698-2.882-.955-3.966-2.054-6.958-7.067-13.885-14.163-20.821-21.253-.399-.408-.843-.798-1.139-1.275-.837-1.354-.321-2.481 1.284-2.665 1.797-.208 3.724.076 5.392-.468 2.468-.804 4.773-2.118 7.121-3.269 6.238-3.06 12.314-6.507 18.724-9.145 10.151-4.175 20.836-6.419 31.748-7.773 10.444-1.296 28.876-1.837 42.207.133 8.91 1.348 17.743 3.136 26.015 6.825 7.296 3.25 14.422 6.882 19.869 13.017 3.937 4.435 6.583 9.393 7.468 15.402.849 5.761-.096 11.024-2.562 16.193-1.694 3.558-4.232 5.863-7.721 7.957-6.846 4.106-10.897 5.13-11.764 5.658-1.378.837-1.438 1.955-.034 2.759 1.263.722 2.716 1.151 4.124 1.589 8.238 2.571 15.314 7.093 21.211 13.289 4.311 4.523 6.861 9.943 7.719 16.35.879 6.562-.662 12.362-3.499 18.066-2.205 4.438-5.864 7.562-9.712 10.392-7.786 5.731-16.453 9.607-25.749 12.36-6.915 2.045-13.927 3.432-21.026 4.371-24.271 2.653-36.67 1.278-42.352.931z"/><path d="m421.155 73.816c8.097 0 16.196 0 24.295.003.798 0 1.605-.061 2.393.033 1.807.214 2.085.979.952 2.453-2.024 2.637-2.006 2.921.296 5.359.078.082.163.16.241.242 11.302 11.432 22.604 22.866 33.909 34.298.562.568 1.09 1.184 1.737 1.643 1.133.816 2.35.834 3.465-.066.622-.496 1.172-1.085 1.731-1.653 11.163-11.256 22.323-22.513 33.482-33.772.402-.405.822-.798 1.179-1.242 1.489-1.849 1.453-2.501.066-4.483-1.251-1.689-1.251-2.719 1.299-2.782.556-.015 1.133-.03 1.704-.03 16.428 0 32.854-.003 49.279.006 1.018 0 2.067-.013 3.052.202.419.094.93.725 1 1.175.069.441-.239 1.218-.608 1.402-1.108.556-2.299 1.033-3.51 1.299-4.598 1.006-8.344 3.275-11.667 6.661-14.299 14.571-28.746 28.996-43.114 43.497-3.604 3.644-7.148 7.36-10.679 11.076-2.236 2.35-2.242 3.459.024 5.776 3.979 4.06 8.069 8.012 12.03 12.087 2.933 3.021 5.661 6.245 8.619 9.238 7.861 7.949 15.818 15.801 23.691 23.737 5.299 5.341 10.549 10.728 15.758 16.159 2.997 3.13 6.489 5.314 10.703 6.393 1.535.387 3.036.973 4.487 1.616.392.175.803.922.746 1.339-.064.429-.626.981-1.079 1.126-.74.233-1.571.236-2.359.236-16.77.012-33.537.009-50.307 0-.68 0-1.386.015-2.033-.169-1.066-.302-1.468-.946-.81-2.051.556-.931 1.432-1.991 1.333-2.904-.112-.966-1.106-1.915-1.882-2.706-13.009-13.275-26.039-26.525-39.066-39.779-.477-.489-.96-.975-1.453-1.45-2.879-2.782-3.933-2.818-6.815.052-8.329 8.283-16.667 16.564-24.921 24.929-5.359 5.432-10.583 11-15.857 16.522-1.988 2.079-1.985 2.212-.478 4.97.861 1.574.538 2.269-1.262 2.526-.78.114-1.59.069-2.39.069-16.196.003-32.395.021-48.591-.027-1.456-.006-3.891.39-4.018-1.381-.253-1.852 1.982-1.945 3.296-2.256 5.897-1.381 10.402-4.743 14.574-9.024 13.295-13.637 26.812-27.054 40.195-40.606 4.154-4.209 8.127-8.598 12.232-12.858 1.583-1.637 3.338-3.102 4.958-4.704 3.38-3.356 3.392-4.25.139-7.534-9.861-9.976-19.746-19.927-29.601-29.908-8.011-8.109-16.053-16.193-23.963-24.404-3.045-3.16-6.622-5.127-10.83-6.109-.776-.181-1.538-.423-2.302-.659-1.082-.335-2.42-.589-2.272-2.066.151-1.501 1.471-1.501 2.644-1.498.685.003 1.371-.003 2.054-.003z"/><path d="m588.231 31.485.1-.209-.148.157z"/><path d="m588.183 31.433-.169.151.217-.099z"/></g></svg>