<svg preserveAspectRatio="none" xmlns="http://www.w3.org/2000/svg"><g fill="#1e1e1e"><path d="m476.616 181.882c-20.276 0-41.968 1.451-60.818 5.987-18.848 4.535-34.87 12.141-43.744 24.521-9.425 13.149-14.571 26.589-14.831 38.993s4.381 23.767 14.458 32.676c10.334 9.139 18.575 12.763 25.167 14.874s11.473 2.731 15.247 5.771l.588-.716c-4.025-3.244-9.046-3.846-15.561-5.931-6.514-2.086-14.578-5.628-24.822-14.688-9.892-8.743-14.412-19.805-14.156-31.971.255-12.161 5.314-25.424 14.658-38.462 8.672-12.097 24.477-19.653 43.216-24.162 18.735-4.508 40.368-5.972 60.602-5.972h4.451c20.231 0 41.864 1.464 60.602 5.972 18.735 4.509 34.556 12.065 43.228 24.163 9.344 13.035 14.402 26.299 14.658 38.462.255 12.163-4.265 23.227-14.156 31.973-10.254 9.059-18.331 12.602-24.845 14.687-6.515 2.086-11.522 2.688-15.547 5.931l.575.718c3.773-3.04 8.668-3.66 15.261-5.771 6.592-2.112 14.818-5.735 25.153-14.873 10.076-8.911 14.732-20.273 14.471-32.677-.26-12.403-5.406-25.845-14.83-38.993-8.874-12.38-24.912-19.986-43.76-24.521-18.848-4.536-40.538-5.987-60.817-5.987h-4.451z" transform="matrix(.965926 -.258818 .258818 .965926 -46.652995 132.22447)"/><path d="m435.728 169.347c-5.126-.122-12.636.576-20.847 2.843-10.947 3.023-23.099 8.853-32.274 19.339-18.263 20.871-37.371 56.393-38.463 82.166v.015c-1.084 25.666 8.113 37.912 18.118 43.299 7.442 4.008 16.847 3.273 25.57.704s16.778-6.993 21.593-10.495c9.528-6.933 36.785-26.549 64.074-26.549h11.385c27.291 0 54.533 19.615 64.061 26.545 4.814 3.502 12.87 7.925 21.592 10.495 8.723 2.569 18.142 3.304 25.585-.703 10.007-5.389 19.192-17.639 18.103-43.314-1.093-25.769-20.191-61.291-38.448-82.162-9.179-10.486-21.344-16.316-32.292-19.339-10.944-3.022-20.646-3.264-25.107-2.484-8.775 1.536-21.037 6.935-37.617 6.935h-3.159c-16.58 0-28.825-5.399-37.6-6.935-1.116-.195-2.571-.317-4.279-.358zm0 .919c1.667.038 3.069.161 4.12.345 8.555 1.496 20.979 6.948 37.758 6.948h3.159c16.778 0 29.218-5.451 37.773-6.948 4.203-.736 13.885-.533 24.707 2.455 10.824 2.989 22.823 8.756 31.844 19.066 18.129 20.72 37.143 56.237 38.218 81.588 1.079 25.446-7.925 37.242-17.63 42.467-7.114 3.831-16.27 3.164-24.867.632-8.595-2.531-16.603-6.906-21.319-10.337-9.533-6.934-36.875-26.733-64.602-26.733h-11.385c-27.731 0-55.071 19.799-64.604 26.733-4.716 3.431-12.724 7.805-21.32 10.337s-17.765 3.2-24.879-.632c-9.708-5.228-18.712-17.021-17.633-42.468 1.075-25.351 20.102-60.868 38.232-81.592 9.02-10.31 21.006-16.077 31.83-19.066 8.117-2.241 15.597-2.914 20.6-2.8z" transform="matrix(.965926 -.258819 .258819 .965926 -46.973613 132.356122)"/><path d="m452.028 193.329c-.957 0-2.171.103-3.36.689-1.188.587-2.334 1.671-3.13 3.49-1.555 3.553-3.704 11.428-3.704 11.428l.89.243s2.183-7.935 3.661-11.313c.721-1.647 1.694-2.518 2.7-3.015 1.005-.496 2.058-.603 2.943-.603h13.323 4.451 13.322c.885 0 1.953.107 2.958.603 1.005.497 1.964 1.368 2.685 3.015 1.479 3.379 3.661 11.313 3.661 11.313l.891-.243s-2.15-7.875-3.705-11.428c-.795-1.819-1.942-2.902-3.13-3.49-1.188-.586-2.402-.689-3.36-.689h-13.322-4.451z" transform="matrix(.965926 -.258819 .258819 .965926 -36.156092 127.875336)"/><path d="m433.915 223.915c-14.786-10.389-37.04-4.021-49.741 14.056s-11.149 41.172 3.636 51.56c14.786 10.389 37.051 4.03 49.755-14.048 12.701-18.077 11.138-41.179-3.648-51.569zm-.528.751c14.285 10.038 15.894 32.542 3.424 50.288-12.47 17.747-34.188 23.862-48.473 13.824-14.281-10.034-15.879-32.531-3.409-50.278 12.468-17.745 34.176-23.868 48.459-13.831z" transform="matrix(.965926 -.258819 .258819 .965926 -52.445062 115.087661)"/><path d="m411.599 228.962c-15.562 0-28.197 12.621-28.197 28.182 0 15.562 12.635 28.197 28.197 28.197s28.182-12.635 28.182-28.197c0-15.561-12.62-28.182-28.182-28.182zm0 .919c15.065 0 27.263 12.199 27.263 27.263 0 15.065-12.198 27.278-27.263 27.278s-27.278-12.213-27.278-27.278c0-15.064 12.213-27.263 27.278-27.263z" transform="matrix(.965926 -.258819 .258819 .965926 -52.530992 115.289718)"/><path d="m410.519 232.809c-.967.041-1.919.148-2.858.301-.004 0-.009-.001-.014 0v.014c-.281.042-.59.166-.775.416-.189.256-.258.574-.287.948l-.604 7.71c-.198 2.574-1.016 4.423-2.383 5.599-1.366 1.177-3.33 1.723-5.929 1.522l-7.545-.588c-.379-.029-.683-.044-.991.072-.307.116-.548.389-.674.689v.029.014c-.598 1.823-.994 3.746-1.149 5.743-.147 1.907-.078 3.771.201 5.585v.014c.125.679.776 1.237 1.68 1.307l7.494.574c2.509.194 4.346 1.044 5.527 2.469 1.182 1.425 1.728 3.472 1.522 6.131l-.545 7.121c-.035.454-.03.814.1 1.134.131.32.407.545.689.675l.029.014.015.015c1.807.589 3.721.967 5.699 1.12 1.934.148 3.833.073 5.671-.216h.015l.014-.014c.314-.069.632-.24.847-.531s.323-.661.359-1.12l.545-7.093c.202-2.606 1.079-4.555 2.455-5.814 1.377-1.261 3.28-1.865 5.672-1.68l7.667.589c.418.032.764.04 1.105-.115.341-.156.57-.47.718-.848l.014-.014v-.014c.562-1.762.929-3.619 1.077-5.541.149-1.932.072-3.822-.215-5.657v-.029l-.015-.029c-.071-.263-.186-.546-.431-.775-.243-.23-.591-.371-1.005-.402l-7.911-.604c-2.364-.182-4.157-1.034-5.326-2.412-1.169-1.377-1.741-3.31-1.551-5.771l.575-7.566c.027-.357.077-.647 0-.976-.079-.33-.372-.644-.733-.776l-.014-.014c-1.835-.606-3.774-.993-5.786-1.148-.994-.077-1.971-.1-2.943-.058zm.029.919c.935-.04 1.885-.017 2.842.057 1.934.15 3.795.525 5.557 1.105.004.002.01-.001.014 0 .14.05.124.033.144.115.021.088.013.341-.015.704l-.588 7.566c-.204 2.641.416 4.841 1.766 6.432 1.35 1.59 3.409 2.53 5.958 2.728l7.916.615c.27.021.375.078.445.144.062.058.127.169.172.316.001.005-.001.009 0 .014.275 1.762.345 3.572.201 5.427-.142 1.841-.484 3.626-1.019 5.312-.003.009-.011.019-.015.029-.09.217-.153.281-.229.316-.082.038-.288.072-.661.043l-7.667-.603c-2.584-.2-4.791.474-6.374 1.924-1.583 1.449-2.528 3.642-2.742 6.417l-.538 7.094c-.027.351-.11.544-.186.645-.076.104-.146.153-.302.187-1.759.274-3.573.344-5.426.201-1.885-.145-3.705-.505-5.427-1.062-.157-.073-.191-.091-.23-.187s-.059-.326-.029-.718l.546-7.121c.218-2.822-.37-5.128-1.737-6.777-1.367-1.648-3.49-2.606-6.174-2.813l-7.48-.575c-.593-.045-.781-.287-.833-.531-.267-1.744-.343-3.546-.201-5.384.148-1.912.507-3.753 1.077-5.498.006-.015.01-.002.014-.014.002-.005-.001-.01 0-.015.05-.111.077-.138.13-.158.06-.023.261-.04.603-.014l7.552.574c2.763.213 5.012-.353 6.604-1.723 1.591-1.37 2.487-3.495 2.699-6.23l.588-7.719c.021-.273.089-.405.129-.459s.051-.072.158-.086h.014c.907-.149 1.822-.248 2.757-.287z" transform="matrix(.965926 -.258819 .258819 .965926 -52.530409 115.29043)"/><path d="m411.599 251.533c-3.099 0-5.628 2.514-5.628 5.614 0 3.099 2.529 5.628 5.628 5.628 3.1 0 5.614-2.529 5.614-5.628 0-3.1-2.514-5.614-5.614-5.614zm0 .919c2.604 0 4.695 2.091 4.695 4.695 0 2.603-2.091 4.709-4.695 4.709-2.603 0-4.709-2.106-4.709-4.709 0-2.604 2.106-4.695 4.709-4.695z" transform="matrix(.965926 -.258819 .258819 .965926 -52.531626 115.289936)"/><path d="m393.2 243.689.115.46.833 3.144.1.345.273-.23 2.139-1.838.273-.229-.326-.161-2.972-1.292-.431-.202z" transform="matrix(.965926 -.258819 .258819 .965926 -50.120376 110.621257)"/><path d="m399.776 271.806-.144.331-1.307 2.972-.201.431.46-.115 3.144-.833.344-.1-.229-.273-1.838-2.139z" transform="matrix(.965926 -.258819 .258819 .965926 -57.198724 112.87802)"/><path d="m428.932 266.668-.273.229-2.139 1.838-.273.229.33.144 2.973 1.307.431.201-.115-.474-.833-3.129z" transform="matrix(.965926 -.258819 .258819 .965926 -54.94205 119.957876)"/><path d="m425.056 238.762-.459.115-3.144.833-.345.1.23.273 1.838 2.139.229.272.159-.33 1.291-2.972z" transform="matrix(.965926 -.258819 .258819 .965926 -47.862949 117.700937)"/><path d="m514.356 212.632c-5.512 0-9.992 4.479-9.992 9.992 0 5.512 4.48 9.992 9.992 9.992 5.513 0 9.993-4.48 9.993-9.992 0-5.513-4.48-9.992-9.993-9.992zm0 .918c5.016 0 9.074 4.058 9.074 9.074s-4.058 9.074-9.074 9.074-9.073-4.058-9.073-9.074 4.057-9.074 9.073-9.074z" transform="matrix(.965926 -.258818 .258818 .965926 -40.093005 140.710636)"/><path d="m531.267 193.147c-5.513 0-9.993 4.48-9.993 9.993 0 5.512 4.48 9.992 9.993 9.992 5.512 0 9.992-4.48 9.992-9.992 0-5.513-4.48-9.993-9.992-9.993zm0 .919c5.015 0 9.073 4.057 9.073 9.074 0 5.016-4.058 9.073-9.073 9.073-5.016 0-9.074-4.057-9.074-9.073 0-5.017 4.058-9.074 9.074-9.074z" transform="matrix(.965926 -.258818 .258818 .965926 -34.473869 144.423338)"/><path d="m550.758 179.408c-5.513 0-9.993 4.48-9.993 9.992 0 5.513 4.48 9.993 9.993 9.993 5.511 0 9.992-4.48 9.992-9.993 0-5.512-4.481-9.992-9.992-9.992zm0 .919c5.015 0 9.073 4.058 9.073 9.073 0 5.016-4.058 9.074-9.073 9.074-5.016 0-9.074-4.058-9.074-9.074 0-5.015 4.058-9.073 9.074-9.073z" transform="matrix(.965926 -.258819 .258819 .965926 -30.253853 149.000172)"/><path d="m531.397 236.62c-7.665 0-13.883 6.217-13.883 13.883s6.218 13.897 13.883 13.897c7.667 0 13.898-6.231 13.898-13.897s-6.231-13.883-13.898-13.883zm0 .918c7.17 0 12.979 5.796 12.979 12.965s-5.809 12.978-12.979 12.978c-7.168 0-12.964-5.809-12.964-12.978.001-7.169 5.796-12.965 12.964-12.965z" transform="matrix(.965926 -.258819 .258819 .965926 -46.729582 146.073498)"/><path d="m551.825 213.505c-7.667 0-13.898 6.217-13.898 13.883s6.231 13.897 13.898 13.897c7.666 0 13.883-6.231 13.883-13.897s-6.217-13.883-13.883-13.883zm0 .918c7.169 0 12.964 5.796 12.964 12.965s-5.795 12.978-12.964 12.978c-7.17 0-12.979-5.81-12.979-12.978 0-7.169 5.81-12.965 12.979-12.965z" transform="matrix(.965926 -.258819 .258819 .965926 -40.051432 150.569156)"/><path d="m576.112 195.924c-7.665 0-13.897 6.232-13.897 13.898 0 7.665 6.232 13.882 13.897 13.882 7.666 0 13.884-6.217 13.884-13.882 0-7.666-6.218-13.898-13.884-13.898zm0 .919c7.169 0 12.965 5.81 12.965 12.979 0 7.168-5.795 12.963-12.965 12.963-7.168 0-12.978-5.794-12.978-12.963s5.81-12.979 12.978-12.979z" transform="matrix(.965926 -.258819 .258819 .965926 -34.673535 156.25628)"/><path d="m483.34 251.467c-4.766 0-9.081.925-12.247 2.441s-5.255 3.676-5.255 6.188 2.089 4.658 5.255 6.174 7.481 2.441 12.247 2.441c4.764 0 9.08-.925 12.246-2.441s5.254-3.662 5.254-6.174-2.089-4.672-5.254-6.188c-3.166-1.516-7.482-2.441-12.246-2.441zm0 .919c4.646 0 8.856.917 11.858 2.355 3.002 1.437 4.723 3.36 4.723 5.355 0 1.993-1.722 3.917-4.723 5.355-3.001 1.437-7.212 2.34-11.858 2.34-4.647 0-8.843-.903-11.845-2.34-3.002-1.438-4.737-3.362-4.737-5.355 0-1.994 1.735-3.918 4.737-5.355 3.002-1.438 7.199-2.355 11.845-2.355z" transform="matrix(.965926 -.258819 .258819 .965926 -50.846566 133.959478)"/><path d="m483.341 254.654c-3.204 0-6.097.557-8.24 1.493-1.072.469-1.964 1.024-2.599 1.679-.635.657-1.019 1.439-1.019 2.269s.383 1.598 1.019 2.254c.635.656 1.527 1.212 2.599 1.679 2.143.937 5.036 1.508 8.24 1.508 3.205 0 6.113-.571 8.256-1.508 1.071-.468 1.948-1.023 2.584-1.679.635-.656 1.034-1.424 1.034-2.254s-.399-1.612-1.034-2.269c-.636-.656-1.513-1.211-2.584-1.679-2.143-.936-5.051-1.493-8.256-1.493zm0 .919c3.096 0 5.896.554 7.882 1.421.993.434 1.778.943 2.297 1.479.52.536.776 1.077.776 1.622 0 .546-.257 1.086-.776 1.622s-1.304 1.045-2.297 1.479c-1.986.868-4.786 1.422-7.882 1.422-3.095 0-5.895-.554-7.881-1.422-.993-.433-1.778-.943-2.298-1.479-.518-.536-.76-1.076-.76-1.622s.242-1.086.76-1.622c.52-.536 1.304-1.045 2.298-1.479 1.986-.867 4.786-1.421 7.881-1.421z" transform="matrix(.965926 -.258819 .258819 .965926 -50.847859 133.962593)"/></g></svg>