<svg xmlns="http://www.w3.org/2000/svg"><path d="m13.51 32.348c2.221-1.679 5.394-3.767 9.029-5.587 3.639-1.949 7.733-3.702 12.28-5.456v.065c4.482-1.689 9.223-3.248 14.161-4.612 5.003-1.43 9.938-2.599 14.875-3.443 5.001-.974 9.808-1.56 14.357-1.82 4.678-.39 10.01-.027 11.353.065 1.344.093 3.262-.194 4.106-.843.846-.714 1.3-1.561 1.429-2.598.131-1.106-.194-2.079-.842-2.86-.715-.844-2.273-1.362-3.313-1.428-4.159-.456-8.12-.456-13.251-.132-4.809.325-9.876.974-15.267 1.949-5.132.909-10.33 2.144-15.527 3.573-5.197 1.43-10.131 3.054-14.809 4.806-4.872 1.886-10.137 4.271-13.124 5.784-2.986 1.512-6.833 3.683-10.084 6.365-3.251 2.681-4.628 3.964-6.806 7.339-2.178 3.376-2.677 7.204-1.336 9.496 3.451 5.901 15.758 3.967 20.436 3.058 3.767-.778 8.379-1.837 13.902-3.394 4.026-1.234 9.16-2.858 15.394-4.937l15.462-5.066c5.651-1.883 10.262-3.314 13.837-4.288 4.353-1.3 12.083-3.141 16.062-2.42-.2 2.493-3.296 9.169-17.105 15.347-5.133 2.339-10.848 4.483-17.15 6.561h-.065c-4.869 1.559-9.871 2.924-15.005 4.158-5.002 1.171-9.681 2.014-14.163 2.729l.066-.065c-7.05.983-17.186.108-19.189.37-3.965.252-4.929 2.749-4.971 3.832-.043 1.08-.096 3.613 5.184 3.941 5.281.328 10.211.765 20.081-.414 6.126-.903 9.614-1.623 14.746-2.792h.065c5.328-1.3 10.524-2.73 15.591-4.354 6.626-2.077 12.668-4.416 18.057-6.884 12.119-5.436 16.482-10.405 19.322-14.676 2.841-4.271 3.877-10.141.929-12.897-3.375-3.158-9.797-2.594-12.002-2.385-3.152.3-7.858 1.051-12.599 2.414-3.637 1.04-8.317 2.47-14.163 4.42l-15.459 5.066c-6.171 2.014-11.174 3.639-15.136 4.807-5.262 1.561-9.615 2.729-13.254 3.444-8.307 1.913-10.978.843-10.978.843-.112-2.38 2.654-5.402 4.874-7.081z" fill="#ccc"/><circle cx="52.571" cy="33.13" fill="#fff" r="33.13"/><path d="m21.177 46.07c3.767-.778 8.379-1.837 13.902-3.394 4.026-1.234 15.394-4.937 15.394-4.937l15.462-5.066c5.651-1.883 10.262-3.314 13.837-4.288 0 0 5.346-1.408 6.254-1.57-.325-3.373-2.261-7.427-2.261-7.427-1.952.377-4.041.86-6.137 1.463-3.637 1.039-8.316 2.469-14.163 4.418l-15.459 5.066c-6.171 2.014-11.174 3.639-15.136 4.807-8.158 2.543-13.707 3.546-13.927 3.595-.001 0 .735 4.832 2.234 7.333z" fill="#ccc"/><g fill="#fff"><path d="m163.955 17.066c-.608-1.014-1.43-1.624-2.449-1.961-18.583-5.215-30.567-4.466-35.874 2.372-1.908 2.235-3.065 4.403-3.406 6.636-.41 2.233-.138 4.333.883 6.367h-.07c.751 1.554 1.907 2.976 3.406 4.265h.068c1.225 1.014 2.518 1.829 4.016 2.508 1.018.54 3.404.878 7.215.945.751.069 2.181.069 4.357.069 1.906.069 3.406.069 4.492.135h.069c3.405.07 6.861.4 7.968.742 1.102.346 3.042 2.356 3.194 3.257.157.894 0 0 0 0 .206.539.411.685.216 2.055-.199 1.371-.619 1.127-1.166 1.805 0 0 .021-.06 0-.072-.935-.609-1.634.947-3.063 1.356-2.039.479-4.494.814-7.352.882-2.86.068-5.718 0-8.645-.338-2.792-.341-5.241-.818-7.285-1.424-1.02-.335-2.108-.27-3.065.274-1.019.474-1.702 1.285-2.04 2.369-.341 1.014-.204 2.097.268 3.112.547.947 1.366 1.622 2.386 1.966 2.449.808 5.376 1.348 8.781 1.76 3.338.337 6.602.474 9.871.404 3.543-.137 6.606-.539 9.124-1.149 3.538-.883 5.992-2.237 7.284-3.997h.068c1.087-1.358 1.903-2.579 2.38-3.663v-.069c.548-1.35.819-2.708.819-4.126v-.139c-.067-1.014.018-2.499-.527-3.923-.205-.743-.404-1.153-1.499-3.519-1.098-2.358-3.628-3.868-8.054-4.813h-.067c-2.179-.41-5.31-.748-9.325-.882-1.156-.07-2.723-.07-4.766-.139-2.04 0-3.469 0-4.221-.068-2.177-.063-3.606-.135-4.151-.267-.751-.341-1.43-.746-1.976-1.22-.609-.542-1.088-1.083-1.362-1.622v-.07c-.274-.405-.342-.882-.205-1.358.205-.88.683-1.824 1.567-2.706 4.083-3.927 13.206-3.927 27.434.136 1.094.269 2.113.204 3.064-.405 1.025-.539 1.702-1.355 1.976-2.438.345-1.01.21-2.029-.338-3.047z"/><path d="m204.011 13.633c-.819-.745-1.77-1.152-2.926-1.152h-27.233c-1.089 0-2.109.408-2.86 1.152-.816.81-1.224 1.764-1.224 2.912v33.865c0 1.083.41 2.102 1.224 2.845.751.819 1.769 1.221 2.86 1.221h27.233c1.156 0 2.107-.404 2.926-1.221.748-.743 1.158-1.762 1.158-2.845 0-1.154-.41-2.099-1.158-2.917-.819-.742-1.77-1.152-2.926-1.152h-23.146v-8.8h17.017c1.156 0 2.108-.404 2.927-1.219.747-.749 1.158-1.763 1.158-2.846 0-1.15-.41-2.098-1.158-2.912-.819-.752-1.771-1.156-2.927-1.156h-17.017v-8.801h23.144c1.157 0 2.108-.411 2.927-1.222.748-.747 1.158-1.69 1.158-2.845 0-1.145-.41-2.097-1.157-2.907z"/><path d="m251.024 18.425c-.2-1.176-.814-2.131-1.695-2.79-7.473-5.368-15.664-6.387-23.581-4.996-3.122.732-4.133.658-7.544 2.349-3.404 1.685-5.777 4.817-5.777 4.817-1.629 1.767-2.513 3.924-3.601 6.783-1.089 2.859-1.083 4.277-1.219 7.805-.136 3.532.336 6.768 1.355 9.851 1.018 3.093 2.581 5.815 4.69 8.094v-.08c2.038 2.357 4.552 4.187 7.473 5.366 2.921 1.252 6.115 1.915 9.578 1.915 8.152 0 14.07-1.845 17.738-5.517 4.281-3.748 6.045-9.404 5.367-16.975-.068-1.176-.54-2.064-1.292-2.868-.814-.738-1.696-1.106-2.787-1.106h-17.665c-1.083 0-2.101.437-2.859 1.249-.813.881-1.221 1.906-1.221 3.16 0 1.177.408 2.278 1.221 3.085.758.882 1.777 1.321 2.859 1.321h13.593c-.273 2.207-1.158 4.05-2.518 5.441-2.648 2.279-6.791 3.381-12.432 3.381-2.38 0-4.623-.439-6.591-1.248l-.069-.072c-1.769-.738-3.261-1.768-4.555-3.237-1.288-1.395-2.244-3.088-2.853-4.923-.679-1.985-.951-4.189-.881-6.542.066-2.497.34-3.854.812-5.542.344-1.254.884-2.279 1.632-3.088 0 0 1.216-1.888 3.264-2.907 2.05-1.025 3.533-1.323 6.047-1.986h.069c5.983-1.47 11.689-.221 17.195 3.82.947.663 1.967.882 3.05.663 1.09-.293 1.971-.884 2.585-1.912.612-.955.817-2.058.612-3.311z"/><path d="m302.471 54.148c.681-.947.949-1.892.815-3.045-4.288-28.244-11.979-42.062-23.144-41.383-11.159-.679-18.925 12.666-23.079 40.026-.139 1.083.07 2.099.753 2.984.679.945 1.563 1.485 2.651 1.624 1.092.199 2.111-.073 3.064-.752.883-.676 1.433-1.554 1.636-2.643.51-3.398 1.073-6.538 1.676-9.414h.022 26.41c.686 3.256 1.326 6.843 1.913 10.764.203 1.083.682 1.967 1.632 2.646.883.679 1.907.945 2.996.74 1.088-.122 1.971-.663 2.655-1.547zm-33.605-20.721c2.979-10.022 6.747-15.213 11.272-15.578 4.389.36 8.113 5.556 11.098 15.578z"/><path d="m367.376 16.705c-.613-1.023-1.44-1.637-2.469-1.979-18.741-5.259-30.825-4.508-36.178 2.392-1.924 2.253-3.091 4.438-3.436 6.692-.413 2.253-.138 4.368.892 6.419h-.069c.757 1.57 1.924 3.001 3.435 4.301h.068c1.233 1.022 2.539 1.843 4.05 2.528 1.028.548 3.433.889 7.274.955.76.067 2.202.067 4.394.067 1.925.07 3.436.07 4.532.14h.069c3.433.071 6.918.402 8.035.746 1.11.353 3.071 2.378 3.223 3.288.158.905 0 0 0 0 .204.544.415.687.214 2.07-.199 1.388-.625 1.138-1.174 1.822v-.069c-.621.543-1.65.95-3.091 1.366-2.056.479-4.531.82-7.415.886-2.885.074-5.766 0-8.719-.338-2.811-.343-5.282-.821-7.343-1.436-1.031-.341-2.127-.268-3.09.273-1.032.483-1.718 1.296-2.058 2.388-.343 1.023-.205 2.116.27 3.138.553.956 1.378 1.641 2.407 1.984 2.468.817 5.421 1.365 8.857 1.777 3.365.339 6.655.478 9.953.409 3.573-.137 6.662-.549 9.202-1.163 3.564-.891 6.041-2.252 7.345-4.029h.069c1.098-1.367 1.92-2.6 2.403-3.692v-.07c.552-1.364.825-2.729.825-4.163v-.137c-.067-1.023.022-2.518-.53-3.958-.207-.75-.41-1.163-1.511-3.544-1.109-2.382-3.662-3.906-8.123-4.857h-.07c-2.194-.414-5.353-.751-9.4-.887-1.168-.067-2.746-.067-4.807-.141-2.057 0-3.499 0-4.258-.069-2.193-.062-3.636-.136-4.186-.268-.757-.347-1.44-.755-1.993-1.231-.615-.545-1.097-1.093-1.373-1.636v-.07c-.277-.41-.343-.887-.206-1.366.206-.887.689-1.842 1.579-2.729 4.119-3.963 13.319-3.963 27.664.139 1.105.268 2.133.204 3.091-.411 1.034-.544 1.717-1.369 1.994-2.461.343-1.026.206-2.054-.346-3.076z"/><path d="m378.532 56.571c.893-.685 1.444-1.573 1.648-2.666.52-3.425 1.085-6.593 1.691-9.488h26.662c.694 3.283 1.334 6.9 1.924 10.855.205 1.093.684 1.984 1.647 2.664.892.682 1.92.957 3.022.751 1.098-.138 1.989-.686 2.675-1.569.684-.96.961-1.917.823-3.075-4.323-28.478-12.084-42.41-23.341-41.726-11.258-.684-19.016 12.773-23.274 40.362-.205 1.093.069 2.115.753 3.006.69.959 1.579 1.506 2.682 1.636 1.168.206 2.126-.064 3.088-.75zm5.382-20.354c3.008-10.105 6.811-15.336 11.373-15.704 4.466.357 8.21 5.598 11.202 15.704z"/><path d="m453.843 15.523c-.822-.749-1.786-1.16-2.951-1.16h-35.696c-1.102 0-2.131.411-2.888 1.16-.821.821-1.234 1.777-1.234 2.937 0 1.093.414 2.116 1.234 2.87.757.825 1.786 1.232 2.888 1.232h13.726v31.411c0 1.096.414 2.121 1.235 2.873.758.821 1.787 1.231 2.885 1.231 1.171 0 2.131-.411 2.95-1.231.759-.752 1.171-1.777 1.171-2.873v-31.413h13.728c1.166 0 2.129-.409 2.95-1.23.758-.754 1.167-1.777 1.167-2.87.002-1.159-.407-2.115-1.165-2.937z"/><path d="m501.944 14.707c-.822-.821-1.785-1.229-2.953-1.229-1.098 0-2.126.408-2.882 1.229-.823.747-1.237 1.775-1.237 2.868v20.28c0 1.576-.274 3.077-.887 4.443-.552 1.431-1.444 2.594-2.476 3.687-1.098 1.023-2.264 1.914-3.704 2.459-1.371.615-2.884.885-4.463.885h-6.11c-1.578 0-3.021-.266-4.461-.885-1.442-.545-2.606-1.436-3.705-2.459-1.033-1.093-1.856-2.254-2.475-3.622v-.065c-.543-1.366-.887-2.867-.887-4.443v-20.282c0-1.092-.415-2.12-1.169-2.867-.829-.821-1.782-1.229-2.951-1.229-1.095 0-2.131.408-2.883 1.229-.827.747-1.236 1.775-1.236 2.867v20.281c0 2.669.547 5.193 1.512 7.651h.067c.961 2.393 2.403 4.438 4.188 6.285 1.85 1.775 3.913 3.208 6.311 4.236 2.409 1.023 4.947 1.501 7.694 1.501h6.109c2.746 0 5.287-.478 7.759-1.501h-.07c2.4-1.028 4.461-2.461 6.319-4.236 1.78-1.847 3.223-3.892 4.257-6.285v.07c1.029-2.461 1.513-4.985 1.513-7.721v-20.281c-.011-1.091-.424-2.12-1.18-2.866z"/><path d="m507.476 14.747c-.728.747-1.166 1.628-1.166 2.71v35.274c0 1.082.438 2.1 1.239 2.848.879.811 1.975 1.219 3.142 1.219 1.239 0 2.26-.408 3.066-1.219.879-.748 1.313-1.766 1.313-2.848v-31.476c9.422-.539 16.642-.065 21.679 1.359 3.797 1.151 5.841 3.05 6.057 5.697.074 2.101-.8 3.596-2.627 4.482-2.923 1.221-7.229 1.559-12.917.946-1.023-.07-1.902.069-2.779.609-.876.472-1.461 1.151-1.826 2.037-.366.814-.366 1.69-.144 2.575.29.886.878 1.559 1.683 2.1l21.904 14.924c.948.669 2.04.946 3.211.743 1.24-.138 2.19-.679 2.918-1.633.659-.881.951-1.898.808-2.983-.222-1.154-.808-2.032-1.756-2.713l-11.607-7.869c1.682-.402 3.138-.885 4.382-1.489 4.966-2.313 7.45-6.239 7.527-11.737.289-6.507-3.801-10.984-12.117-13.431-6.5-2.032-16.212-2.51-29.134-1.489-1.097.073-2.046.545-2.856 1.364z"/><path d="m558.19 15.453c-.483.685-.753 1.438-.753 2.322v35.516c0 1.095.409 2.121 1.233 2.868.754.821 1.783 1.229 2.883 1.229 1.168 0 2.128-.407 2.949-1.229.756-.747 1.17-1.772 1.17-2.868v-25.334l27.252 28.136c.62.612 1.301 1.025 2.132 1.226.821.137 1.575.067 2.4-.201.759-.347 1.372-.821 1.856-1.57.482-.685.688-1.437.688-2.258v-35.515c0-1.159-.414-2.115-1.172-2.936-.823-.747-1.78-1.164-2.95-1.164-1.097 0-2.125.418-2.883 1.164-.822.821-1.235 1.777-1.235 2.936v25.339l-27.183-28.205c-.621-.544-1.305-.952-2.132-1.162-.82-.133-1.648-.067-2.4.276-.759.271-1.441.751-1.855 1.43z"/></g></svg>