<svg xmlns="http://www.w3.org/2000/svg"><g fill="#fff"><path d="m140.625 0-140.625 140.625h37.5l93.75-93.75v93.75h18.75l93.75-93.75v93.75h28.125v-140.625h-18.75l-93.75 93.75v-93.75zm182.813 0c-23.297 0-42.188 18.891-42.188 42.188 0 23.296 18.891 42.187 42.188 42.187h37.5c7.762 0 14.062 6.3 14.062 14.063 0 7.762-6.3 14.062-14.062 14.062h-79.688v28.125h79.688c23.296 0 42.187-18.891 42.187-42.187 0-23.297-18.891-42.188-42.187-42.188h-37.5c-7.763 0-14.063-6.3-14.063-14.062 0-7.763 6.3-14.063 14.063-14.063h79.687v-28.125zm89.062 0v98.438c0 23.296 18.891 42.187 42.188 42.187h37.5c23.296 0 42.187-18.891 42.187-42.187v-98.438h-28.125v98.438c0 7.762-6.3 14.062-14.062 14.062h-37.5c-7.763 0-14.063-6.3-14.063-14.062v-98.438zm168.75 0-37.5 37.5v18.75h28.125v84.375h28.125v-140.625z" fill-rule="evenodd"/><path d="m0 150v18.75h600v-18.75z"/><path d="m38.897 177.544h-11.531l-6.91 29.456-7.04-29.456h-11.672v37.097h7.434v-31.463l7.106 31.463h7.885l7.293-31.463v31.463h7.435z"/><path d="m74.85 177.544h-28.219v37.097h29.128v-6.563h-21.309v-9.609h18.769v-6.563h-18.769v-7.8h20.4z"/><path d="m82.266 214.641h16.622c4.237 0 7.95-1.397 10.49-3.872 3.525-3.563 5.475-9.047 5.475-15.45 0-11.26-5.728-17.775-15.637-17.775h-16.95zm7.828-30.741h7.687c2.607 0 4.566.675 5.935 1.959 1.95 1.913 2.99 5.279 2.99 9.666 0 8.062-3.253 12.759-8.793 12.759h-7.819z"/><path d="m128.203 177.544h-8.015v37.097h8.015z"/><path d="m143.878 207h14.147l2.475 7.641h8.738l-13.557-37.097h-9.262l-13.688 37.097h8.475zm7.106-21.244 4.829 14.888h-9.779z"/><path d="m217.416 177.544h-28.219v37.097h29.137v-6.563h-21.318v-9.609h18.778v-6.563h-18.778v-7.8h20.4z"/><path d="m248.306 203.587-15.384-26.043h-8.41v37.097h7.435v-26.607l15.834 26.607h7.95v-37.097h-7.425z"/><path d="m286.163 197.953v16.688h8.015v-37.097h-8.015v14.053h-14.991v-14.053h-8.025v37.097h8.025v-16.688z"/><path d="m310.125 207h14.147l2.475 7.641h8.737l-13.556-37.097h-9.253l-13.688 37.097h8.466zm7.106-21.244 4.828 14.888h-9.778z"/><path d="m364.012 203.587-15.374-26.043h-8.41v37.097h7.425v-26.607l15.844 26.607h7.95v-37.097h-7.435z"/><path d="m411.647 189.684c-.394-2.943-.975-4.49-2.409-6.562-2.935-4.181-7.95-6.563-14.016-6.563-10.95 0-17.794 7.547-17.794 19.641 0 12.038 6.713 19.425 17.597 19.425 5.081 0 9.384-1.65 12.319-4.809 2.222-2.372 3.262-4.491 4.303-8.888h-8.016c-.59 2.072-.975 3-1.828 4.088-1.565 1.912-3.844 2.897-6.647 2.897-5.99 0-9.581-4.763-9.581-12.666 0-8.166 3.647-12.966 9.844-12.966 2.672 0 4.95.928 6.319 2.475.853 1.088 1.303 1.913 1.893 3.928z"/><path d="m445.913 177.544h-28.219v37.097h29.137v-6.563h-21.318v-9.609h18.778v-6.563h-18.778v-7.8h20.4z"/><path d="m490.163 177.544h-11.541l-6.909 29.456-7.032-29.456h-11.672v37.097h7.435v-31.463l7.106 31.463h7.884l7.294-31.463v31.463h7.435z"/><path d="m526.116 177.544h-28.228v37.097h29.137v-6.563h-21.309v-9.609h18.768v-6.563h-18.768v-7.8h20.4z"/><path d="m556.997 203.587-15.385-26.043h-8.399v37.097h7.425v-26.607l15.834 26.607h7.959v-37.097h-7.434z"/><path d="m588.403 184.106h11.597v-6.562h-31.219v6.562h11.597v30.535h8.025z"/></g></svg>