<svg xmlns="http://www.w3.org/2000/svg"><path d="m162.268 0c-1.179.008-2.377.141-3.516.382-9.103 1.941-16.127 10.299-16.127 20.334v159.286h14.675v-156.23c0-3.347 2.111-5.45 4.508-5.963 2.398-.51 7.588.254 11.237 7.338l69.324 134.599c7.042 13.669 17.778 21.41 28.816 19.874 5.519-.767 10.455-4.127 13.606-8.867 3.149-4.742 4.74-10.746 4.74-17.579v-152.791h-14.676v112.053c-1.777 3.466-7.886 2.803-10.319-2.217l-14.446-29.962h-32.178l-33.706-65.351c-4.34-8.422-11.339-13.428-18.422-14.602-1.181-.193-2.337-.311-3.516-.304zm217.759 0c4.355 6.113 8.978 12.599 15.286 21.402 13.838 19.316 32.282 44.985 50.522 70.396-31.731 44.225-49.375 68.867-63.286 88.278h18.037c15.155-21.142 27.107-37.807 54.269-75.668 27.201 37.914 38.639 53.807 54.344 75.668h49.146l-79.49-109.148c18.951-26.4 23.1-32.09 37.45-52.124 5.539-7.731 9.375-13.106 13.453-18.804h-18.036c-2.607 3.655-4.318 6.027-7.339 10.242-13.553 18.921-31.677 44.08-49.528 68.945-17.133-23.86-34.581-48.147-47.62-66.345-3.782-5.282-6.051-8.464-9.17-12.842zm-348.613.383c-17.283 0-31.414 14.131-31.414 31.414v116.715c0 17.282 14.131 31.49 31.414 31.49h90.191v-14.371h-65.809c-4.234 0-7.645-3.407-7.645-7.642v-62.599h53.047v-14.675s-74.124 0-86.522 0v-48.918c0-9.407 7.331-16.74 16.738-16.74h90.191v-14.674zm290.37 0v179.619h41.886v-99.745h-27.212v-79.874zm256.893 141.097c-11.765 0-21.327 9.485-21.327 21.248 0 11.765 9.562 21.325 21.327 21.325 11.763 0 21.327-9.56 21.323-21.325 0-11.763-9.56-21.248-21.323-21.248z" fill="#fff"/></svg>