<svg xmlns="http://www.w3.org/2000/svg"><g stroke-width="1.874"><path d="m501.492 135.357c-4.227 1.407-8.901 2.349-13.593 3.288-8.922 1.878-19.278 4.701-30.072 7.521-11.268 2.814-23.478 6.108-35.676 9.396-5.637 1.878-10.776 3.729-16.422 5.136-40.377 12.21-78.888 25.854-97.674 33.834-4.227 1.878-7.05 3.759-8.928 4.698-3.756 2.817-8.928 10.776-8.928 10.776l-4.698 9.399s10.344-5.643 22.554-10.806c14.082-6.105 30.513-11.709 35.205-7.017 6.573 6.102-9.864 75.099-3.759 133.32 1.878-6.102 3.759-4.665 3.759-4.665l7.518 15.006 3.759-6.579 9.399 19.266.468-11.277 2.82 2.352c-3.408-33.684-.603-146.757 11.628-159.987 3.756-3.756 14.103-8.463 26.784-12.693 5.166-1.878 10.776-3.759 16.419-5.169 12.681-3.756 25.824-7.047 35.676-9.396l18.795-4.668s2.826-7.521 11.28-11.277c1.407-.468 2.349-.939 3.288-.939 0 0-3.312-5.172 10.305-9.399zm-13.593 29.571c-7.983.471-18.804 2.352-30.072 5.169-12.681 2.817-25.824 6.582-35.676 9.867-3.288.942-6.582 2.352-8.928 2.82 11.268 4.695 8.457 10.806 8.457 10.806l.471.471 7.05 4.698s6.582-1.878 12.69-2.349c3.285 35.685-1.881 75.12-1.881 75.12l-17.823 4.23h-.03l-1.848.471 1.848 2.757v.06l10.806 12.651-1.41 6.111 3.759-.471s-1.887 15.486-13.152 35.676v.063c-2.34 4.674-5.157 9.363-8.895 14.505 2.34.936 5.616.462 8.895-.471.009-.003.021.003.03 0 6.093-1.878 11.718-5.169 11.718-5.169l20.643-7.047v5.169l3.288-1.881 4.698-2.817s11.748-26.274 11.748-54.912c0 0 6.585-1.884 13.623-6.111 3.288-1.407 6.552-3.759 9.837-6.576 24.891 28.167 42.261 55.884 42.261 55.884l8.928-.939 2.349-6.111 8.46.942 1.878-3.759.942 1.407 8.457 6.579 4.698-5.637 6.549 1.407s-7.497-7.995-19.707-21.141c-11.268-12.207-27.237-29.109-44.61-46.491 7.515-6.573 16.452-14.556 17.382-35.676.471-23.007-13.611-46.491-41.319-49.308zm-8.961 23.436c3.186-.051 6.189.387 8.961 1.005 9.861 2.814 15.948 10.314 15.948 20.637-.939 13.614-7.962 23.499-15.948 30.075-3.756 3.285-7.992 6.078-11.277 7.488 0 0-1.413-34.725-2.82-58.674 1.293-.234 2.526-.396 3.759-.471.462-.027.924-.054 1.38-.06zm-198.579 6.606c-2.346.942-4.698 1.41-7.047 2.352v.03c-16.431 5.166-31.929 10.305-44.61 15.006-19.245 7.515-31.917 13.152-31.917 13.152l1.38-8.928s-12.189 7.989-23.937 9.87c-4.311.48-8.622.48-11.829-1.395-18.345 6.576-93.465 53.028-108.462 76.083-2.349 9.393-11.748 24.9-11.748 24.9l-6.579 20.64 4.698-.471-5.166 10.335 4.23-1.407v6.108s23.004-30.996 44.136-48.837c-2.817 16.428-2.82 32.859-2.82 32.859l-7.047 7.518-7.017 14.565h5.607l-.471 5.64 4.698-2.352-1.878 6.549h3.759s.942 23.034 3.759 36.177l15.036 5.136 2.352-2.787 8.457 6.546 6.546-5.169s-2.349-44.586-1.407-63.843c7.512-7.983 33.831-22.995 33.831-22.995l2.349-8.46-3.759-9.396 9.834-14.565c-18.783 9.861-41.79 23.967-41.79 23.967s2.352-30.984 5.64-36.618c3.285-5.637 24.888-19.278 54.942-36.651 16.431-9.39 34.755-18.774 54.471-29.1 14.556-7.041 29.58-14.073 44.607-21.108v-.033c2.349-.939 4.701-2.349 7.05-3.288zm150.264 8.928-47.895 14.094-2.82 106.557 25.842-7.515 14.535-4.701v-28.629l-20.169 2.82.471-15.039 5.169-1.41 13.122-4.227-.471-5.64 4.23-15.477-16.881 4.2-5.169 1.407 1.41-15.477 3.759-.939 5.262-1.536 13.503-3.633 4.701-6.108-4.701-1.881zm-105.255 23.487s-4.701 10.335-9.396 2.82c-1.41 5.163-5.172 7.05-7.989 7.518-1.881 0-3.291 0-3.291 0l-1.407 34.272-10.806 4.698 3.288-37.56-5.169 4.701-4.23-4.701-7.485 11.247-2.352-4.23-3.288 2.82-2.349 2.349s-7.986 68.568-5.169 98.619c3.288-3.756 4.701 2.82 4.701 2.82l2.817-3.759.939-1.41 7.989 18.795 3.258-11.277 5.169 2.349v-53.538l12.219-3.759.471 46.491 4.698 2.352 5.112 2.304 1.002-6.114 12.633 13.632s-5.163-77.949 2.817-129.612c-2.817 2.817-4.197-1.881-4.197-1.881zm-65.256 20.61s-15.489 3.297-31.458 12.219c-16.428 9.39-33.801 25.833-35.205 52.128-2.817 42.732 29.571 38.964 35.205 38.502.471 0 1.41-.471 1.41-.471v21.141l1.881-5.166 3.759 2.349 5.607-3.291 6.576 5.169 1.005-4.11 4.227.942 1.881-55.416 8.457-3.288-1.878-17.853-32.862 14.094-7.047 2.82 7.047 11.748.471.468 3.759-.939v8.457s-1.881.471-4.23.471c-4.695-.939-12.69-3.771-11.745-18.324.468-10.326 5.64-17.361 11.745-22.524 9.864-7.983 22.998-11.748 28.632-16.449l-4.23-1.881 6.108-2.82zm-79.353 22.554c-1.878 5.634-4.23 9.87-6.579 12.69-4.695 7.515-9.867 9.837-9.867 9.837s-10.335 44.148-6.579 92.976l3.759-1.881 3.762 3.288 3.759-1.407s2.349 5.169 5.166 8.457c2.817 2.817 6.111 4.227 9.399 2.349 2.346-1.407-3.282-69.477 7.989-113.172 0 0-6.114 5.154-10.809-13.152z" fill="#fff"/><path d="m533.571 0c-2.289.021-4.539.072-6.798.219-38.505 2.349-77.499 8.463-115.08 16.449-43.665 8.922-85.446 20.652-121.092 31.917-15.969 5.166-31.467 10.347-45.078 15.039-20.19 7.512-37.542 14.073-49.74 19.707-12.21 4.695-19.269 8.457-20.67 9.396 0 0-3.303 14.547-20.211 26.757l8.928-1.38-21.111 19.236s39.918-21.582 53.07-25.341c1.407-.468 2.787-.468 3.729-.468 2.814 3.285.027 18.303-3.729 36.147-4.695 23.946-11.277 53.517-7.989 68.544l7.989-7.518.939-.471c12.432 2.859 15.237-7.446 15.237-7.446l5.169 1.878 1.41-2.817h7.518s-.462-88.755 12.69-103.752c.468-.939 3.261-2.352 7.017-4.701 9.39-4.224 25.362-10.785 45.078-18.291 35.688-13.152 82.632-29.112 121.095-39.909 14.082-4.224 27.264-7.518 38.061-9.867 5.634-.939 4.668 4.704 6.546 9.867 1.41 4.695-3.258 10.317-4.197 17.823-.471 6.576-3.288 70.422-3.288 70.422l5.136-1.881 6.576.471 2.352-7.017 5.169 3.288 2.349-3.759 3.288 2.82 4.701-1.41s-1.401-86.397 12.219-95.319c7.512-5.634 30.051-6.579 44.607-6.111 24.888 1.41 50.211 3.3 48.807 16.452-1.407 13.152-16.419 18.765-16.419 18.765l3.288 4.23-4.23.468v6.579l-7.986 2.349 2.205 2.295-15.507 6.108 5.637 1.41-12.648 6.078s54.45-5.166 61.026-42.264c4.401-21.57-31.656-35.262-65.97-34.962zm-315.264 32.178c-7.98 2.349-15.477 4.2-22.524 6.078-92.505 24.888-127.71 54.93-127.71 85.926 0 33.342 34.275 44.607 35.679 50.241 10.836 43.656-103.752 64.335-103.752 64.335l6.579 6.111.468 5.136 9.399 10.806 10.305 1.881 3.288 6.576 18.324-2.349-1.41 7.047c16.431 2.817 92.484-27.246 109.866-60.114 12.681-23.949 5.64-41.319 5.64-41.319-8.421-28.701-43.605-30.084-43.605-55.434-.939-22.536 40.878-43.677 77.025-58.233 22.536-9.39 45.57-16.398 52.146-18.273-1.704-.21-18.144.972-24.861 1.353v-3.288h-7.047zm223.041 0-51.657 13.593-1.41 15.978-2.349 7.05-4.698 68.073 54.009-13.152 1.41-22.524-24.9 7.173v-.126l-6.078 1.881 1.881-17.853 23.937-7.518 2.82-18.768-25.341 5.64.939-14.094h1.848v-.471l27.255-7.518zm-62.952 16.44-46.494 15.036-.471 16.419-2.817 7.518-1.881 46.953-14.064-13.152s4.23-7.026 4.23-20.166c0-13.614-11.289-24.873-22.554-24.873-.939 0-2.352.441-3.759.441-11.739 2.817-36.159 14.103-45.081 18.795l-.342.189c-1.881.936-3.291 1.407-3.291 1.407l2.349 1.881.942 2.817.813.753 3.291 2.349.939 6.579 8.457-2.82s-3.756 18.777-2.349 28.158l-10.776 4.23h-.03l-2.787 1.41 2.787.939h.03l1.38.471v5.637l1.878 2.349v4.23l4.23-1.41-1.41 31.458 2.82-3.291 4.227-1.878 6.108.471v-4.23l6.579.939 1.41-3.759h6.579l.939-24.87s4.671-.942 10.305-3.759c3.285-1.878 6.579-4.701 9.396-8.928l21.612 23.028 7.959-2.352.468-5.637 5.64 2.817 9.825-.501-1.404-2.355 27.264-7.986 3.291-25.812-28.158 8.898 1.41-17.352 23.466-8.46.939-18.324-23.937 7.047 1.41-15.006 27.687-9.867zm-87.804 46.491c4.695.471 9.867 1.887 8.46 8.928-.939 5.166-4.704 9.87-8.46 12.69-4.695 4.227-9.837 6.078-9.837 6.078 0-14.085 3.729-27.225 3.729-27.225s2.82-.471 6.108-.471z" fill="#fefefe"/></g></svg>