<svg clip-rule="evenodd" fill-rule="evenodd" image-rendering="optimizeQuality" shape-rendering="geometricPrecision" text-rendering="geometricPrecision" xmlns="http://www.w3.org/2000/svg"><g fill="#fff"><path d="m100.89.003h-48.645c-44.979 8.298 9.915 79.671-7.158 80.67l-45.087.066.003 25.635 63.585-.063c43.302-5.973-14.064-77.85 7.854-78.852 19.386.453 29.448.039 29.448.039z"/><path d="m133.95.015-27.54-.012-.021 86.031c-.075 13.968 15.462 21.285 37.734 21.336 25.95-.114 39.303-5.337 39.312-21.198l.051-86.169h-25.683l-.096 71.388c-.024 3.933-2.025 5.613-5.463 5.586l-11.043.003c-5.085.018-7.344-1.959-7.332-5.544z"/><path d="m385.026.003h-48.648c-44.976 8.298 9.915 79.671-7.158 80.67l-45.087.066.006 25.635 63.585-.063c43.302-5.973-14.064-77.85 7.854-78.852 19.386.453 29.448.039 29.448.039z"/><path d="m218.355.003-25.695-.003v106.431l25.686-.018v-47.688c-.009-15.423 16.515 47.586 33.036 47.694h25.686l-.015-106.413-25.674.003-.03 47.706c-.024 16.359-19.701-47.805-32.994-47.712z"/><path d="m406.197.123h44.409c9.498 0 17.262 5.544 17.262 12.318v81.642c0 6.777-7.764 12.318-17.262 12.318h-44.409c-9.498 0-17.265-5.541-17.265-12.318v-81.642c0-6.774 7.767-12.318 17.265-12.318zm16.644 27.951h9.333c4.509 0 8.193 4.05 8.193 9.006v34.227c0 4.959-3.684 9.006-8.193 9.006h-9.333c-4.506 0-8.19-4.047-8.19-9.006v-34.227c0-4.956 3.684-9.006 8.19-9.006z"/><path d="m473.382 22.023c.012-11.664 9.321-22.02 23.865-22.014l29.358-.006v29.343l-25.689.006-.006 16.53 25.695-.006v27.519l-25.689.003v33.03h-27.522z"/><path d="m535.782.006-.024 25.668h18.354l.015 80.754h27.525v-80.739l18.348.006v-25.689z"/></g></svg>