<svg xmlns="http://www.w3.org/2000/svg"><g clip-rule="evenodd" fill="#fff" fill-rule="evenodd"><path d="m0 78.873c14.724 1.665 29.445 3.333 37.005 1.059 7.557-2.274 7.953-8.49 8.349-14.706 1.443-4.503 3.57-9.015 6.813-13.533 1.089-1.557 2.349-2.991 3.753-4.269 1.404-1.281 2.952-2.403 4.605-3.342s3.417-1.698 5.235-2.253l6.969-1.338 7.029-.981c2.982-.414 6.018-1.335 8.952-2.865 1.398-.729 2.733-1.569 4.251-2.784 1.521-1.218 3.222-2.805 4.734-4.551 1.515-1.752 2.838-3.663 3.957-5.685 1.116-2.028 2.022-4.167 2.7-6.375 1.77-4.902 3.426-9.822 4.971-14.757-12.801-3.21-27.867-3.231-35.775-.579s-8.664 7.974-9.39 11.601c-.729 3.624-1.425 5.55-2.22 7.44-.792 1.887-1.68 3.741-2.613 5.382-.93 1.644-1.905 3.084-3.027 4.401-1.119 1.314-2.388 2.511-3.762 3.561-1.443.978-2.889 1.956-4.38 2.679-2.964 1.461-6.117 2.022-9.207 2.904-4.368.813-8.826 1.353-13.206 2.634-2.169.627-4.263 1.515-6.222 2.637-1.956 1.119-3.774 2.481-5.406 4.035-1.629 1.554-3.066 3.306-4.275 5.202-.708 1.098-1.416 2.196-2.298 3.936-.885 1.74-1.944 4.122-2.997 6.504-1.758 4.644-3.27 9.327-4.545 14.043z"/><path d="m27.546 116.922c14.721 1.665 29.445 3.333 37.005 1.059 7.557-2.274 7.953-8.487 8.349-14.706 1.443-4.503 3.573-9.018 6.816-13.536 1.086-1.554 2.346-2.988 3.753-4.266 1.401-1.278 2.952-2.4 4.605-3.342 1.656-.942 3.414-1.698 5.235-2.253l6.969-1.338 7.029-.984c2.979-.408 6.018-1.332 8.952-2.859 1.395-.729 2.73-1.569 4.248-2.787 1.518-1.215 3.222-2.805 4.737-4.554 1.512-1.749 2.838-3.663 3.954-5.685 1.116-2.025 2.022-4.164 2.703-6.372 1.767-4.902 3.423-9.822 4.968-14.757-12.801-3.21-27.864-3.231-35.775-.576-7.911 2.649-8.667 7.974-9.393 11.598s-1.425 5.55-2.217 7.437c-.792 1.89-1.68 3.741-2.613 5.385-.93 1.644-1.908 3.078-3.027 4.398-1.119 1.314-2.388 2.511-3.762 3.564-1.443.978-2.889 1.953-4.38 2.676-2.964 1.464-6.117 2.022-9.207 2.904-4.371.816-8.826 1.356-13.209 2.634-2.169.63-4.263 1.515-6.219 2.637s-3.777 2.481-5.406 4.038c-3.675 3.456-6.09 7.959-8.049 12.042-2.592 5.835-4.446 11.712-6.066 17.643z"/><path d="m151.41 98.544 20.241.009 15.687-40.356 10.392 40.347h23.739l-10.167-40.455 36.339-34.638h-24.285l-34.473 31.221 11.118-31.215-20.541-.006z"/><path d="m304.179 36.174c-.708-2.004-1.758-3.894-3.069-5.583-1.314-1.686-2.892-3.171-4.665-4.371-1.77-1.2-3.735-2.112-5.982-2.835-4.575-1.449-9.969-2.115-15.042-2.01-2.577.054-5.145.303-8.184.885-3.039.579-6.546 1.494-9.837 2.916-3.288 1.422-6.369 3.354-9.075 5.697-2.706 2.337-5.046 5.088-6.768 7.482-1.722 2.391-2.832 4.422-3.894 6.474-1.059 2.052-2.076 4.119-3.006 6.228-1.791 4.167-3.45 8.205-4.746 12.117-.615 1.941-1.095 3.924-1.443 5.931-.348 2.004-.561 4.032-.663 5.556-.105 1.521-.102 2.535-.045 3.549.051 1.011.15 2.022.282 3.027.129 1.014.291 2.022.858 3.642.567 1.623 1.536 3.849 2.898 5.829 1.362 1.977 3.114 3.696 5.112 5.052 2.001 1.356 4.245 2.346 6.801 3.066 5.178 1.437 11.265 1.863 16.968 1.524 2.889-.177 5.763-.564 8.91-1.365 3.147-.804 6.561-2.031 9.705-3.756 3.147-1.725 6.021-3.951 8.472-6.555 2.451-2.601 4.482-5.586 6.261-8.859s3.309-6.831 4.767-10.413c1.452-3.585 2.835-7.191 3.795-9.87s1.5-4.428 1.908-6.21c.411-1.782.693-3.591.858-5.415.336-3.597.225-7.68-1.176-11.733zm-19.815 11.157c-1.098 4.086-2.196 8.175-3.528 12.189-1.329 4.014-2.889 7.95-4.449 11.886-1.14 2.7-2.706 5.451-4.725 7.983-1.341 1.68-2.73 2.847-4.26 3.714-1.755.996-3.588 1.539-5.379 1.764-2.727.339-5.52-.066-7.716-1.068-1.2-.555-2.427-1.392-3.417-2.463-1.503-1.662-1.983-3.396-2.079-5.055-.09-1.884.132-3.762.606-5.583 2.241-8.841 5.562-17.634 10.197-26.298.63-1.254 1.443-2.424 2.403-3.453s2.073-1.923 3.285-2.634c2.493-1.425 5.004-2.058 7.125-2.211 3.18-.162 6.558.114 9.273 2.406.819.708 1.5 1.572 2.001 2.532.501.957.819 2.01.93 3.084.114 1.074.021 2.163-.267 3.207z"/><path d="m315.255 98.553 19.998-56.094 1.821 56.094h29.172l28.029-75.102h-19.086l-19.794 54.612-1.56-54.612h-30.246l-27.495 75.102z"/><path d="m425.745 83.631-.423 14.931h19.647l1.338-75.117h-26.421l-49.326 75.111h20.394l10.188-14.88zm1.917-42.444-1.014 27.321-15.519.039z"/><path d="m510.126 23.466h-33.567l-28.053 75.084h19.125l20.769-55.695-4.32 55.707h20.232l35.64-54.921-20.775 54.915h19.716l28.188-75.084h-33.951l-29.595 48.462z"/><path d="m580.272 23.466-28.137 75.093h19.455l28.41-75.093z"/></g></svg>