<svg xmlns="http://www.w3.org/2000/svg"><g fill="#1e1e1e"><path d="m262.227 138.832c0-4.504 3.65-8.155 8.153-8.155 4.504 0 8.155 3.65 8.155 8.155h.001c-.001 4.504-3.652 8.154-8.156 8.154-4.503.001-8.153-3.65-8.153-8.154zm1.329 0c.007 3.768 3.055 6.817 6.824 6.823 3.77-.006 6.819-3.055 6.826-6.823-.007-3.77-3.056-6.818-6.826-6.825-3.769.007-6.817 3.055-6.824 6.825z" transform="matrix(.965926 -.258819 .258819 .965926 -26.719202 74.710414)"/><path d="m241.347 136.156c0-4.506 3.652-8.156 8.155-8.157 4.505.001 8.155 3.651 8.155 8.157 0 4.503-3.65 8.153-8.155 8.154-4.503-.001-8.155-3.651-8.155-8.154zm1.331 0c.006 3.768 3.055 6.816 6.825 6.824 3.769-.008 6.817-3.056 6.824-6.824-.007-3.77-3.055-6.819-6.824-6.825-3.769.006-6.819 3.055-6.825 6.825z" transform="matrix(.965926 -.258819 .258819 .965926 -26.737795 69.215204)"/><path d="m209.969 148.628c-1.057 0-1.913-.857-1.914-1.913v-8.267c.002-.187-.017-.317-.037-.376-.005-.05-.013-.039-.013-.042 0 .001-.005-.005-.046-.018-.056-.018-.174-.038-.351-.037h-8.29c-1.058-.001-1.914-.857-1.914-1.913v-8.322c0-1.058.856-1.913 1.914-1.913h8.3c.3-.002.365-.066.365-.069.005 0 .073-.083.073-.395v-8.276c.001-1.057.857-1.913 1.913-1.914l8.322.001c1.056 0 1.913.855 1.913 1.913v8.306c.003.33.06.369.061.369 0-.002.022.014.084.032.06.016.162.033.324.033h8.271c1.056 0 1.912.855 1.913 1.912v8.323c-.002 1.057-.858 1.912-1.913 1.913h-8.28c-.319.002-.382.066-.382.068-.003 0-.078.09-.078.437v8.235c0 1.056-.857 1.913-1.913 1.913zm-11.236-20.888v8.322c0 .321.262.583.584.583h8.29c.512 0 1.016.097 1.382.491.349.402.393.866.397 1.313v8.267c0 .32.259.582.582.582h8.322c.322 0 .582-.262.583-.582v-8.236c0-.497.092-.987.454-1.365.368-.373.861-.47 1.335-.47h8.28c.32 0 .582-.262.582-.583v-8.322c0-.32-.262-.583-.582-.583h-8.27c-.456-.002-.926-.069-1.311-.418-.381-.356-.49-.855-.487-1.345v-8.307c-.002-.321-.262-.583-.584-.583h-8.321c-.323 0-.583.261-.583.583v8.275c0 .477-.098.958-.452 1.325-.361.364-.846.471-1.316.468h-8.301c-.323 0-.584.264-.584.585z" transform="matrix(.965926 -.258819 .258819 .965926 -26.842023 59.915382)"/><path d="m200.915 128.621c1.224-2.44 3.209-4.431 5.647-5.661l.599 1.189c-2.182 1.1-3.961 2.885-5.058 5.069l.001.001z" transform="matrix(.965926 -.258819 .258819 .965926 -25.681928 57.105297)"/><path d="m205.202 139.485 1.185-.603c1.104 2.178 2.89 3.956 5.075 5.049l-.595 1.19c-2.442-1.221-4.433-3.204-5.665-5.636z" transform="matrix(.965926 -.258819 .258819 .965926 -29.653943 58.758854)"/><path d="m221.115 139.646c2.166-1.097 3.936-2.869 5.03-5.036l1.189.6c-1.224 2.422-3.198 4.397-5.618 5.623z" transform="matrix(.965926 -.258819 .258819 .965926 -28.004673 62.726289)"/><path d="m216.856 119.888.6-1.188c2.431 1.231 4.409 3.216 5.631 5.65l-1.189.597c-1.094-2.177-2.869-3.96-5.042-5.059z" transform="matrix(.965926 -.258819 .258819 .965926 -24.034878 61.083781)"/><path d="m210.031 131.903c.001-2.265 1.834-4.099 4.099-4.1 2.263.001 4.097 1.834 4.098 4.1-.001 2.262-1.834 4.096-4.098 4.097-2.264-.002-4.098-1.835-4.099-4.097zm1.331 0c.002 1.526 1.239 2.763 2.769 2.767 1.527-.003 2.764-1.24 2.767-2.767-.003-1.53-1.239-2.767-2.767-2.769-1.53.002-2.767 1.239-2.769 2.769z" transform="matrix(.965926 -.258819 .258819 .965926 -26.842329 59.915205)"/><path d="m212.487 307.918c-7.243-.205-18.142-5.078-19.614-23.356-.259-5.865-.381-11.365-.381-16.55-.007-40.338 7.498-61.555 17.907-86.347 1.483-3.536 2.123-7.016 2.123-10.65.005-7.853-3.027-16.47-7.127-27.561l.001.001 1.247-.461c4.094 11.098 7.205 19.817 7.21 28.021.001 3.792-.675 7.466-2.227 11.165-10.386 24.764-17.796 45.65-17.804 85.832 0 5.162.123 10.641.378 16.465 1.524 17.699 11.597 21.814 18.334 22.109.118.004.24.005.37.005 6.739.004 19.268-6.323 21.167-22.139 1.999-16.486 8.482-74.11 10.243-83.184 1.731-9.076 6.434-18.487 18.321-19.51 3.841-.335 6.578-.446 8.526-.448 3.901.013 4.633.416 4.883.557l-.739 1.106-.009.008c-.081-.028-.251-.077-.548-.127-.594-.104-1.688-.214-3.587-.212-1.897-.001-4.598.109-8.413.441-11.081.973-15.366 9.539-17.13 18.439-1.733 8.903-8.233 66.622-10.227 83.089-2.024 16.531-15.065 23.308-22.489 23.31-.136 0-.274 0-.415-.003z" transform="matrix(.965926 -.258819 .258819 .965926 -50.370192 68.315276)"/><path d="m325.564 121.861c0-4.506 3.65-8.155 8.155-8.156 4.504.001 8.155 3.65 8.156 8.156-.001 4.503-3.652 8.153-8.156 8.153-4.505.002-8.155-3.65-8.155-8.153zm8.155 6.825c3.769-.008 6.818-3.056 6.826-6.824-.008-3.769-3.057-6.818-6.826-6.826-3.769.008-6.818 3.057-6.824 6.826.006 3.767 3.055 6.816 6.824 6.824z" transform="matrix(.965926 -.258819 .258819 .965926 -20.168342 90.525192)"/><path d="m342.305 109.103c.001-4.505 3.652-8.155 8.156-8.156 4.505.001 8.156 3.653 8.156 8.156 0 4.504-3.651 8.155-8.156 8.155-4.504 0-8.155-3.65-8.156-8.155zm8.155 6.823c3.769-.005 6.819-3.054 6.825-6.823-.006-3.769-3.056-6.819-6.825-6.825-3.767.008-6.817 3.057-6.825 6.825.008 3.769 3.057 6.818 6.825 6.823z" transform="matrix(.965926 -.258819 .258819 .965926 -16.296133 94.423529)"/><path d="m374.808 104.459c-1.058-.001-1.914-.857-1.914-1.913v-8.235c0-.346-.071-.436-.076-.436s-.066-.068-.381-.069h-8.282c-1.056 0-1.912-.856-1.913-1.912v-8.322c.001-1.056.857-1.913 1.913-1.914h8.272c.322.001.407-.06.407-.064-.005-.005.058-.039.061-.37v-8.305c0-1.058.856-1.914 1.915-1.914h8.322c1.056 0 1.911.856 1.911 1.914v8.274c.002.312.069.396.075.396 0 .003.065.067.364.068h8.301c1.057.002 1.912.858 1.914 1.914l-.002 8.323c0 1.056-.855 1.912-1.912 1.913l-8.291-.001c-.268-.001-.372.04-.395.054-.001.001-.014.019-.024.066-.017.067-.032.188-.03.353v8.266c-.002 1.057-.857 1.912-1.913 1.914zm-.583-10.148v8.234c0 .322.261.582.583.582h8.323c.32 0 .581-.26.581-.582l.002-8.266c.003-.447.045-.909.396-1.312.365-.396.871-.492 1.383-.491h8.29c.322 0 .582-.26.582-.582v-8.322c0-.322-.262-.583-.582-.583l-8.301-.001c-.47.002-.957-.103-1.316-.469-.354-.367-.454-.849-.452-1.326l-.002-8.274c0-.322-.261-.583-.581-.583l-8.323-.001c-.322.001-.582.262-.584.584v8.303c.003.493-.106.991-.487 1.347-.385.348-.855.416-1.311.419l-8.272-.002c-.319.002-.582.264-.582.584v8.323c0 .321.262.583.582.583h8.282c.472-.001.964.096 1.333.469.363.378.455.868.456 1.366z" transform="matrix(.965926 -.258819 .258819 .965926 -9.793641 101.07388)"/><path d="m381.68 75.712.599-1.188c2.437 1.232 4.421 3.219 5.647 5.662h.001l-1.19.596c-1.095-2.183-2.876-3.969-5.057-5.07z" transform="matrix(.965926 -.258819 .258819 .965926 -6.986217 102.240405)"/><path d="m385.91 95.511c2.184-1.092 3.97-2.871 5.074-5.048l1.186.601c-1.233 2.435-3.225 4.417-5.666 5.636v.001z" transform="matrix(.965926 -.258819 .258819 .965926 -10.964587 103.879662)"/><path d="m370.027 95.309h.001l1.187-.6c1.095 2.167 2.865 3.94 5.031 5.036l-.601 1.188c-2.42-1.228-4.394-3.203-5.618-5.624z" transform="matrix(.965926 -.258819 .258819 .965926 -12.60362 99.907967)"/><path d="m365.755 84.452c1.222-2.433 3.201-4.419 5.63-5.649l.601 1.187c-2.175 1.1-3.949 2.882-5.042 5.059z" transform="matrix(.965926 -.258819 .258819 .965926 -8.635055 98.262231)"/><path d="m374.869 87.735c.002-2.265 1.836-4.098 4.098-4.1 2.263.002 4.098 1.835 4.099 4.1-.001 2.262-1.836 4.097-4.099 4.097-2.263-.001-4.096-1.836-4.098-4.097zm4.099 2.765c1.53-.003 2.765-1.24 2.768-2.767-.003-1.529-1.238-2.765-2.768-2.769-1.528.004-2.764 1.24-2.767 2.769.002 1.527 1.239 2.764 2.767 2.767z" transform="matrix(.965926 -.258819 .258819 .965926 -9.7941 101.07342)"/><g transform="matrix(.642548 -.17217 .17217 .642548 93.130249 119.889214)"><path d="m240.05 135.564-.047-.008-85.933-20.442.23-.974.298-.955-.298.955-.23.974-.039-.011-.027-.009c-21.646-6.732-37.356-26.919-37.359-50.778 0-29.362 23.806-53.166 53.17-53.168 5.151 0 10.135.734 14.789 2.087.785.191 2.231.853 4.596 1.973 2.33 1.111 5.43 2.652 9.068 4.497 7.273 3.692 16.695 8.602 26.357 13.726 19.335 10.258 39.567 21.333 45.583 25.287 11.246 7.595 18.64 20.466 18.642 35.062-.002 23.354-18.932 42.283-42.285 42.283-2.215 0-4.391-.169-6.515-.499zm6.515-1.5c11.127-.002 21.192-4.507 28.485-11.799 7.292-7.293 11.799-17.358 11.799-28.485 0-13.909-7.043-26.164-17.751-33.397-10.212-6.725-64.609-35.664-80.761-43.37-2.271-1.093-3.904-1.781-4.23-1.841-4.534-1.317-9.329-2.021-14.291-2.021-14.135 0-26.919 5.726-36.183 14.985-9.26 9.264-14.985 22.048-14.985 36.181-.002 22.957 15.12 42.383 35.94 48.865l85.794 20.41c2.015.311 4.079.472 6.183.472z"/><path d="m309.737 93.778c0-14.592 7.396-27.467 18.65-35.069 10.476-6.881 64.696-35.716 80.997-43.501 2.365-1.119 3.813-1.781 4.535-1.958 4.713-1.367 9.697-2.101 14.853-2.101 29.362 0 53.166 23.803 53.168 53.169-.002 23.857-15.713 44.046-37.358 50.776l-.025.007-85.985 20.455-.036.006c-2.122.33-4.299.5-6.513.5-23.355.001-42.286-18.928-42.286-42.284zm104.681-78.59c-.264.042-1.897.732-4.171 1.826-2.305 1.102-5.396 2.637-9.023 4.477-7.259 3.682-16.674 8.59-26.325 13.709-19.293 10.233-39.594 21.353-45.398 25.176-10.719 7.243-17.764 19.497-17.762 33.403 0 11.129 4.507 21.193 11.798 28.486 7.293 7.291 17.357 11.797 28.486 11.8 2.096 0 4.153-.162 6.164-.47l85.84-20.42c20.808-6.491 35.916-25.91 35.912-48.856 0-14.134-5.726-26.92-14.984-36.184-9.264-9.259-22.049-14.985-36.181-14.985-4.964-.001-9.759.704-14.356 2.038z"/></g><path d="m407.184 237.98c-1.995-16.469-8.495-74.188-10.229-83.091-1.765-8.9-6.048-17.466-17.131-18.438-3.814-.333-6.516-.442-8.413-.442-2.844-.002-3.891.254-4.133.34l-.009-.008-.739-1.106c.249-.143.98-.543 4.881-.558 1.95.002 4.685.114 8.528.448 11.888 1.025 16.591 10.435 18.322 19.511 1.762 9.072 8.244 66.698 10.243 83.184 1.897 15.816 14.427 22.144 21.167 22.14.127 0 .25-.001.368-.005 6.739-.297 16.811-4.411 18.335-22.083.253-5.85.376-11.33.376-16.493-.007-40.182-7.416-61.068-17.803-85.831-1.555-3.699-2.228-7.373-2.228-11.164.007-8.203 3.117-16.923 7.211-28.023h.001l1.247.461c-4.1 11.091-7.136 19.708-7.128 27.561 0 3.636.639 7.112 2.123 10.649 10.41 24.791 17.915 46.01 17.907 86.348-.002 5.183-.126 10.685-.38 16.576-1.47 18.252-12.371 23.125-19.614 23.329-.141.006-.28.007-.415.007-7.424-.005-20.467-6.782-22.487-23.312z" transform="matrix(.965926 -.258819 .258819 .965926 -32.371043 111.770436)"/><path d="m270.733 204.798c-2.713-.001-4.91-2.199-4.91-4.909v-47.936h1.33l-.001 47.936c.003 1.977 1.603 3.574 3.58 3.578h88.375c1.978-.004 3.575-1.601 3.579-3.578v-47.936h1.331l-.001 47.936c0 2.71-2.198 4.908-4.909 4.909z" transform="matrix(.965926 -.258819 .258819 .965926 -35.436318 87.585204)"/><path d="m261.262 100.212v-1.329h65.162v1.329z" transform="matrix(.965926 -.258819 .258819 .965926 -15.75233 79.444144)"/><path d="m270.339 104.608v-1.331h48.934v1.331z" transform="matrix(.965926 -.258819 .258819 .965926 -16.857026 79.843133)"/><path d="m290.869 113.772c-.474 0-.916-.165-1.226-.412l-6.716-4.609-.039-.037c-.388-.369-.633-.897-.633-1.475.002-1.126.914-2.038 2.039-2.038h24.332c1.125 0 2.038.913 2.038 2.038.002.578-.243 1.106-.632 1.477l-.04.035-6.679 4.583c-.345.273-.789.438-1.261.438v-.665-.666c.168 0 .316-.055.474-.178l6.621-4.543c.117-.128.187-.293.187-.48 0-.39-.318-.707-.708-.707h-24.332c-.391 0-.706.317-.708.707 0 .187.071.352.188.479l6.658 4.57c.122.097.268.152.437.152h11.183v.666.665z" transform="matrix(.965926 -.258819 .258819 .965926 -18.235577 80.459999)"/><path d="m293.642 112.321c0 .414-.335.749-.749.749h-.187c-.414 0-.749-.335-.749-.749v-4.182c0-.414.335-.75.749-.75h.187c.414 0 .749.336.749.75z" transform="matrix(.965926 -.258819 .258819 .965926 -18.552589 79.538043)"/><path d="m297.245 111.356c0 .414-.337.749-.75.749h-.186c-.414 0-.75-.335-.75-.749v-4.182c0-.414.336-.75.75-.75h.186c.413 0 .75.336.75.75z" transform="matrix(.965926 -.258819 .258819 .965926 -18.180078 80.437548)"/><path d="m300.846 110.391c0 .414-.335.749-.749.749h-.187c-.413 0-.749-.335-.749-.749v-4.182c0-.414.336-.75.749-.75h.187c.414 0 .749.336.749.75z" transform="matrix(.965926 -.258819 .258819 .965926 -17.807598 81.336813)"/><path d="m275.251 183.521c-3.815 0-6.907-3.093-6.907-6.907v-9.321h1.33v9.321c.006 3.08 2.496 5.57 5.578 5.576h77.062c3.077-.007 5.57-2.498 5.576-5.576v-9.321h.001 1.328l.002 9.321c-.002 3.814-3.093 6.907-6.907 6.907z" transform="matrix(.965926 -.258819 .258819 .965926 -34.706787 87.189703)"/><g transform="matrix(.642548 -.17217 .17217 .642548 93.130249 119.889214)"><g><path d="m148.631 64.521c0-3.027.602-5.918 1.692-8.554l1.847.762c-.991 2.399-1.54 5.029-1.54 7.792 0 2.759.546 5.384 1.538 7.781l-1.849.764c-1.088-2.633-1.688-5.523-1.688-8.545z"/><path d="m162.591 85.271.753-1.854c2.371.963 4.96 1.494 7.681 1.494 2.739 0 5.349-.538 7.734-1.517l.759 1.85c-2.619 1.075-5.491 1.667-8.493 1.667-2.982.001-5.831-.583-8.434-1.64z"/><path d="m189.888 72.279c.985-2.392 1.528-5.01 1.53-7.761-.002-2.72-.532-5.313-1.5-7.684h.002l1.851-.754c1.061 2.604 1.646 5.455 1.646 8.438 0 3.015-.597 5.896-1.68 8.525z"/><path d="m162.446 43.828c2.644-1.097 5.542-1.701 8.579-1.701 3.018 0 5.903.598 8.536 1.685l-.765 1.849c-2.396-.987-5.019-1.534-7.771-1.534-2.771 0-5.406.551-7.81 1.55z"/></g><g><path d="m405.168 64.521c0-3.027.603-5.918 1.694-8.555l1.85.765c-.995 2.399-1.543 5.028-1.543 7.79 0 2.758.548 5.384 1.538 7.781h.002l-1.851.765c-1.087-2.635-1.69-5.525-1.69-8.546z"/><path d="m419.13 85.271.753-1.853c2.37.964 4.961 1.495 7.681 1.495 2.739 0 5.351-.54 7.733-1.518v.002l.759 1.849c-2.619 1.075-5.49 1.667-8.492 1.667-2.982-.001-5.833-.584-8.434-1.642z"/><path d="m446.426 72.28c.985-2.391 1.529-5.011 1.529-7.762 0-2.721-.532-5.313-1.497-7.684l1.852-.754c1.063 2.606 1.646 5.458 1.646 8.438.002 3.015-.599 5.897-1.678 8.524z"/><path d="m418.985 43.829c2.641-1.096 5.542-1.702 8.576-1.702 3.021 0 5.903.6 8.537 1.686l-.766 1.849c-2.395-.989-5.018-1.533-7.771-1.533-2.77 0-5.404.55-7.81 1.547z"/></g></g></g></svg>