<svg xmlns="http://www.w3.org/2000/svg"><g fill="#fff"><path d="m0 .018 32.286 154.8 32.118-154.8h-17.382l-14.736 87.006-14.901-87.006z"/><path d="m71.523.018h17.385v154.8h-17.385z"/><path d="m104.46 0v154.827h17.391v-79.995l24.183 79.992h16.032l-19.347-73.2c10.749-6.447 13.914-14.889 13.914-14.889v-49.182c-7.122-15.81-19.404-17.553-19.404-17.553zm17.391 15.759h17.391v53.802h-17.391z"/><path d="m162.087.018h51.987v15.726h-17.385v139.074h-17.385v-139.071h-17.217z"/><path d="m310.26 0-33.585 154.662v.162h17.226l3.642-20.868h24.291l3.477 20.868h17.391zm0 66.732 7.935 53.313h-17.175z"/><path d="m349.668.018h17.388v139.071h25.995v15.729h-43.38z"/><path d="m535.599.018h15.894l16.224 66.723 14.736-66.723h17.547l-24.336 91.059v63.741h-17.385v-63.738z"/><path d="m504.402.018c-19.761 0-26.112 17.538-26.112 17.538.162.246 0 116.406 0 119.718 2.619 18.816 26.112 17.544 26.112 17.544 26.064 0 26.055-17.544 26.055-17.544v-119.721c-6.738-18.402-26.055-17.535-26.055-17.535zm-8.724 17.535h17.394v121.512h-17.394z"/><path d="m220.86.018h17.553v137.253h17.55v-137.253h17.217v137.253s-5.628 17.547-25.332 17.547c-19.701 0-26.988-17.547-26.988-17.547z"/><path d="m412.263 0v154.827h34.944c16.218-4.224 17.223-15.762 17.223-15.762s-.024-41.352-.024-52.041c-1.218-6.75-6.765-6.975-6.765-6.975s-.024-1.881 0-3.369c6.129-.471 6.792-7.122 6.792-7.122s-.027-41.313 0-52.008c-2.655-12.624-17.226-17.55-17.226-17.55zm17.442 17.661h17.499v51.897h-17.499zm-.051 67.605h17.55v53.799h-17.55z"/></g></svg>