<svg xmlns="http://www.w3.org/2000/svg"><path d="m462.264 14.97-18.331 123.034c-.147.997.112 1.976.726 2.756.611.777 1.506 1.256 2.505 1.343l16.985 1.482c2.02.177 3.899-1.316 4.177-3.328 0 0 9.32-67.031 9.916-71.349 1.226 4.207 21.929 75.297 21.929 75.297.533 1.822 2.427 3.409 4.315 3.611l11.326 1.204c1.877.199 4.087-.924 5.029-2.56 0 0 36.189-62.76 38.212-66.266-.346 4.009-5.908 68.658-5.908 68.658-.012.108-.018.216-.018.328 0 1.909 1.466 3.565 3.397 3.767l20.351 2.102c.993.105 1.963-.19 2.737-.822.771-.636 1.244-1.533 1.331-2.527l11.031-123.708c.087-.994-.217-1.964-.858-2.729-.645-.768-1.542-1.237-2.536-1.325l-19.104-1.659c-1.882-.166-4.066 1.006-4.975 2.662l-47.342 86.467c-.004.006-.006.006-.01.009 0-.003 0-.003-.003-.009l-25.335-93.962c-.496-1.846-2.376-3.439-4.276-3.632l-21.055-2.12c-2.03-.205-3.918 1.265-4.216 3.276z" fill="#fff"/><path d="m597.253 20.108c-2.021-2.406-4.855-3.885-7.983-4.156l-19.102-1.662c-5.05-.44-10.266 2.358-12.696 6.797 0 0-25.6 46.743-37.778 68.991-6.562-24.329-20.149-74.722-20.149-74.722-1.37-5.077-5.975-8.992-11.215-9.516l-21.055-2.12c-6.324-.639-12.007 3.785-12.943 10.07l-18.325 123.037c-.47 3.159.383 6.402 2.358 8.896 1.963 2.49 4.918 4.08 8.104 4.36l16.978 1.482c6.312.551 11.934-3.933 12.811-10.209 0 0 2.391-17.21 4.761-34.249 5.727 19.665 11.455 39.335 11.455 39.335 1.442 4.954 6.029 8.797 11.157 9.336l11.329 1.21c5.023.533 10.293-2.147 12.814-6.522 0 0 10.106-17.53 20.197-35.023-1.4 16.268-2.815 32.719-2.815 32.719-.031.337-.046.674-.046 1.006 0 5.956 4.563 11.118 10.589 11.741l20.348 2.108c3.143.325 6.218-.602 8.657-2.617 2.443-2.008 3.939-4.848 4.216-8.001l11.031-123.706c.283-3.125-.677-6.173-2.698-8.585zm-31.816 5.339c.705-1.289 2.482-2.24 3.945-2.111l6.291.545-6.45 19.345h-13.518zm-99.066-12.693 21.056 2.117c1.463.148 2.972 1.43 3.352 2.849l5.815 21.561h-24.42-.587l-.178.558-3.153 9.919h-10.097l5.162-34.631c.213-1.451 1.587-2.521 3.05-2.373zm-10.118 96.094 3.698 2.012.181.099h.201 10.983l-1.545 11.097-21.995-2.617 1.587-10.636zm7.986 33.674-16.984-1.482c-1.464-.13-2.485-1.421-2.268-2.876l2.554-17.138 22.01 2.62-2.288 16.466c-.199 1.452-1.56 2.536-3.024 2.41zm14.38-76.144c-.416-1.409-.913-1.373-1.118.081l-5.965 42.898h-11.001l-3.698-2.009-.175-.099-.201-.003-6.857-.042 8.311-55.844h10.922.585l.177-.557 3.153-9.919h24.266l11.693 43.367h-11.398-.807v.798 29.247h-3.942zm98.364 87.605-9.838-1.015.994-14.084 5.095-.669.422-.057.189-.382 1.298-2.623h6.204l-1.467 16.448c-.132 1.46-1.436 2.533-2.897 2.382zm4.505-20.435h-6.851-.497l-.219.445-1.325 2.689-5.319.702-.644.084-.048.654-1.033 14.678-8.92-.922c-1.458-.154-2.551-1.476-2.427-2.939l3.608-41.928h11.033.801l.003-.801.067-25.54 4.565-16.514 13.383.054zm6.324-70.943-14.132-.057h-.609l-.159.59-4.764 17.21-.027.105v.109l-.07 24.847h-10.1l2.349-27.25c.123-1.464-.376-1.62-1.108-.35l-39.278 68.118c-.729 1.274-2.53 2.184-3.99 2.03l-11.323-1.204c-1.464-.157-2.993-1.437-3.403-2.846l-8.158-28.009h4.276.801v-.804-29.244h11.034l6.966 25.826c.382 1.415 1.27 1.524 1.978.238l36.733-67.085h14.973.575l.187-.549 6.751-20.254 11.173.972c1.463.127 2.553 1.428 2.424 2.891z" fill="#141414"/><path d="m446.484 8.562-19.547 3.939c-1.888.379-3.569 2.168-3.831 4.074 0 0-10.907 79.225-11.043 80.215-.49-.87-39.862-70.924-39.862-70.924-.948-1.687-3.177-2.702-5.071-2.31l-22.513 4.653c-1.03.21-1.831.822-2.207 1.671-.377.849-.287 1.855.25 2.755l65.338 110.088c.985 1.651 3.225 2.665 5.104 2.31l11.405-2.159c1.879-.355 3.601-2.111 3.923-3.999l21.493-126.985c.177-1.042-.103-2.009-.765-2.65-.663-.639-1.638-.886-2.674-.678z" fill="#fff"/><path d="m455.632 2.56c-2.144-2.08-5.179-2.972-8.115-2.382l-24.781 4.996c-3.785.762-6.679 3.837-7.206 7.661 0 0-4.659 33.864-8.155 59.259-12.609-22.435-29.497-52.48-29.497-52.48-1.933-3.445-5.881-5.243-9.754-4.442l-27.744 5.734c-2.879.593-5.285 2.539-6.472 5.225-1.183 2.686-.996 5.779.5 8.302l68.07 114.675c1.945 3.285 5.74 4.995 9.495 4.288l16.644-3.144c3.734-.705 6.637-3.662 7.267-7.408l22.383-132.249c.497-2.945-.487-5.954-2.635-8.035zm-31.466 14.16c.199-1.454 1.542-2.882 2.979-3.174l7.423-1.494v5.671l-1.861 1.644-.271.241v.361 4.132l-1.913 2.042-.216.232v.316 12.542l-2.491 2.087h-7.041zm-62.712 32.599h.804v-.805-9.862h7.155.409l.241-.328 1.413-1.933h5.417l24.212 43.081-19.665 16.403-27.638-46.556zm-16.617-20.059 22.51-4.653c1.433-.298 3.201.506 3.924 1.786l4.719 8.398h-4.918-.409l-.244.329-1.416 1.933h-7.552-.804v.801 9.862h-7.797l-9.272-15.62c-.747-1.265-.184-2.541 1.259-2.836zm82.542 109.437c-.243 1.449-1.626 2.858-3.068 3.129l-11.401 2.156c-1.44.271-3.241-.539-3.991-1.801l-8.058-13.584 16.162-5.966.521-.193v-.56-7.245l4.014-3.072 5.674.045.283.003.22-.174 4.908-3.855zm2.394-68.088 2.108-2.063.241-.235v-.337-3.791h7.866l-3.752 22.176h-6.508zm19.096-58.894-8.61 50.866h-8.938-.804v.801 4.258l-2.108 2.06-.238.235-.003.337-.051 16.888-.003.804h.804 7.041l-2.924 17.267-6.071 4.77-5.671-.048h-.274l-.217.166-4.547 3.484-.316.238v.397 7.083l-15.915 5.876-17.761-29.922 19.634-16.382 9.483 16.864c.72 1.28 1.472 1.138 1.671-.316l7.505-54.516h7.555.289l.226-.189 3-2.515.286-.238v-.376-12.597l1.915-2.042.217-.232v-.316-4.089l1.858-1.648.268-.237v-.362-6.354l10.525-2.12c1.439-.292 2.418.657 2.174 2.105z" fill="#141414"/><path d="m374.105 70.242c16.062 6.414 20.287 27.452 17.704 51.296-1.121 10.338-1.346 23.314-11.456 24.739-3.439.482-7.326-.344-10.937-.783-3.243-.395-6.953-1.69-10.158-1.301-1.945.238-3.427 1.822-5.209 2.343-3.954 1.162-8.875.521-14.32.521-3.33 0-6.709.054-9.633-.521-1.765-.347-3.569-1.684-5.469-1.822-1.737-.13-3.496.828-5.468 1.039-5.304.566-12.414.738-17.97.262-1.99-.178-4.188-1.331-5.986-1.301-1.777.027-3.768 1.343-5.731 1.563-6.959.771-14.277-2.686-20.306-2.081-2.813.28-5.655 2.773-9.374 3.123-5.37.506-14.19.192-19.529-.78-2.003-.365-4.06-1.693-5.99-1.825-1.75-.118-3.746.861-5.728 1.042-5.062.473-11.386.515-16.665.262-1.521-.078-3.044-.608-4.43-.521-2.397.153-4.764 1.813-7.028 2.084-6.044.728-12.775.834-18.487.259-2.03-.205-4.09-1.28-6.249-1.301-2.927-.033-5.637 1.352-8.074 1.566-14.072 1.225-24.666-5.535-31.767-13.281-3.141 1.509-5.152 4.298-8.073 6.249-13.052 8.739-35.324 6.222-46.87-2.867-1.638-1.289-3.975-5.237-5.987-5.206-1.716.03-4.704 4.023-6.251 5.206-6.147 4.713-14.425 8.161-24.736 8.854-15.515 1.042-27.913-4.758-35.935-12.236-4.111-3.839-10.04-10.145-7.291-17.966 1.419-4.029 5.562-8.142 8.595-11.717 1.117-1.319 2.791-2.605 2.861-3.906.132-2.343-3.698-5.833-4.686-7.552-4.475-7.806-5.909-20.692-1.563-30.467 5.183-11.651 18.869-20.083 37.498-18.749 7.101.512 14.391 2.695 20.571 6.249 8.826 5.074 17.981 9.766 15.102 23.176 3.722-.798 5.857-3.445 9.113-4.948 11.313-5.222 29.424-4.855 39.838 1.825 1.306.837 3.309 2.846 4.429 2.861 2.072.027 4.614-4.147 6.508-4.948 4.243-1.789 17.882-1.885 23.959-1.301 2.418.238 4.896 1.927 6.766 1.825 2.042-.115 4.671-2.641 6.252-3.126 4.851-1.485 19.8-2.093 25.257-.521 1.794.515 3.71 2.626 5.73 2.867 1.919.226 4.418-.69 6.508-.783 3.879-.178 8.233-.443 11.976-.259 2.702.132 5.255 1.671 7.812 1.822 2.373.141 5.213-1.063 7.812-1.039 2.08.015 4.475.512 6.507 1.039 1.937.503 3.873 1.834 5.469 1.825 2.379-.018 4.924-1.804 7.032-2.346 7.29-1.87 15.4-1.458 22.913 1.304 1.681.617 4.731 3.394 6.508 3.385 2.111-.012 4.598-3.68 6.511-4.427 5.33-2.078 13.196-1.807 19.526-1.566 2.854.111 5.414 1.689 8.073 1.825 2.361.12 4.888-1.003 7.291-1.042 2.276-.036 4.472.515 6.511 1.042 2.05.53 4.218 1.801 5.73 1.825 2.015.024 3.999-1.587 5.728-2.087 7.872-2.268 17.222-1.915 25.266 1.298z" fill="#141414"/><path d="m68.965 100.609c1.641 3.243 2.466 7.104 2.466 11.585 0 4.321-.903 8.061-2.707 11.223-1.804 3.159-4.15 5.758-7.038 7.8-2.885 2.041-6.155 3.559-9.802 4.562-3.65 1-7.321 1.5-11.007 1.5-7.378 0-13.572-1.361-18.586-4.081-5.011-2.716-9.522-6.839-13.53-12.362l8.546-10.786c.789-.997 2.135-1.036 2.981-.091 0 0 .982 1.096 2.665 2.415 1.687 1.325 3.509 2.482 5.475 3.482 1.961 1.002 3.969 1.821 6.014 2.463 2.045.638 3.948.961 5.713.961 1.761 0 3.11-.323 4.029-.961.921-.642 1.385-1.84 1.385-3.602 0-1.521-.825-2.96-2.466-4.321-1.644-1.358-3.689-2.78-6.134-4.261-2.449-1.476-5.096-3.078-7.942-4.8-2.845-1.72-5.489-3.741-7.935-6.062-2.448-2.319-4.493-4.981-6.137-7.981-1.644-3.002-2.466-6.462-2.466-10.383 0-3.843.723-7.203 2.165-10.082 1.443-2.882 3.388-5.3 5.836-7.264 2.442-1.957 5.27-3.439 8.48-4.441 3.204-.997 6.613-1.5 10.224-1.5 6.414 0 12.166 1.183 17.261 3.541 5.093 2.361 9.923 5.863 14.497 10.501l-6.923 10.66c-.69 1.069-2.048 1.262-3.011.425 0 0-1.738-1.503-3.662-2.746-1.921-1.238-3.81-2.298-5.653-3.177-1.846-.883-3.571-1.542-5.173-1.982-1.605-.44-3.006-.662-4.21-.662-1.443 0-2.506.361-3.186 1.081-.687.722-1.024 1.641-1.024 2.761 0 1.44.819 2.78 2.466 4.02 1.641 1.241 3.707 2.521 6.195 3.843 2.484 1.322 5.152 2.801 8.001 4.439 2.843 1.641 5.511 3.622 7.998 5.941 2.485 2.325 4.548 5.105 6.195 8.342zm31.532-4.644c.916-.997 1.955-1.752 3.114-2.27 1.156-.515 2.295-.777 3.418-.777 3.355 0 5.848.837 7.489 2.511 1.636 1.675 2.379 3.385 2.379 3.385.503 1.162 1.922 1.864 3.153 1.56l14.539-3.629c-1.517-6.616-4.595-11.958-9.227-16.024-4.634-4.065-10.868-6.098-18.694-6.098-4.795 0-9.068.738-12.826 2.214-3.755 1.475-6.908 3.586-9.465 6.339-2.557 2.749-4.493 6.059-5.812 9.922-1.319 3.87-1.978 8.191-1.978 12.973 0 4.147.599 8.095 1.797 11.841 1.199 3.75 3.057 7.035 5.575 9.866 2.514 2.83 5.688 5.083 9.525 6.757 3.836 1.672 8.429 2.509 13.78 2.509 3.035 0 5.993-.464 8.868-1.376 2.876-.916 5.514-2.313 7.911-4.186s4.493-4.243 6.291-7.116c1.798-2.87 3.343-7.956 3.343-7.956.37-1.214-.328-2.491-1.545-2.843l-14.081-4.029c-.241 1.276-.759 2.43-1.557 3.466-.801 1.036-1.699 1.933-2.698 2.689-1 .762-2.018 1.361-3.057 1.798-1.039.439-1.997.656-2.876.656-3.114 0-5.652-1.195-7.607-3.586-1.96-2.394-2.936-5.538-2.936-9.45 0-2.069.298-3.864.898-5.382.599-1.508 1.358-2.764 2.279-3.764zm99.88 10.134c-.202-4.96-.401-10.013-.603-15.172-.198-5.155-.47-14.295-.47-14.295-.039-1.271-1.111-2.289-2.382-2.262l-19.682.428c.241 3.84.461 7.158.662 9.956.199 2.8.362 5.477.479 8.034.121 2.557.202 5.198.244 7.914.036 2.719.06 5.918.06 9.595 0 2.8-.921 5.017-2.764 6.655-1.843 1.641-4.044 2.457-6.61 2.457-2.722 0-4.767-.819-6.131-2.457-1.365-1.638-2.042-3.617-2.042-5.936 0-4.149.19-8.04.599-12.109.401-3.996.801-7.673 1.205-11.036.482-3.837 1.301-8.749 1.301-8.749.207-1.255-.66-2.273-1.934-2.258l-20.522.214c-.564 3.999-1.042 7.995-1.443 11.994-.4 3.439-.741 7.077-1.021 10.913-.283 3.837-.418 7.276-.418 10.312 0 4.318.521 8.209 1.563 11.669 1.039 3.463 2.644 6.405 4.806 8.826s4.948 4.288 8.353 5.598c3.406 1.307 7.472 1.967 12.2 1.967 1.361 0 2.761-.181 4.207-.542 1.439-.359 2.821-.859 4.146-1.5 1.319-.641 2.539-1.376 3.665-2.216.503-.377 1.388-1.572 2.114-1.322.94.331.41 2.442.41 3.144 0 1.27 1.039 2.288 2.313 2.261l18.839-.421c-.16-5.879-.34-11.384-.542-16.521-.205-5.137-.407-10.185-.602-15.141zm87.303-20.177c-1.837-2.828-4.354-5.041-7.546-6.637-3.198-1.593-7.351-2.391-12.465-2.391-3.836 0-7.131.837-9.889 2.511-.732.446-1.452.922-2.141 1.434-.62.461-1.223.952-1.783 1.482-.418.394-.78.996-1.388 1.105-.154.024-.316.066-.479.048-.554-.051-.708-.422-.994-.837-.798-1.157-1.831-2.132-2.981-2.933-2-1.392-4.514-2.093-7.55-2.093-1.517 0-2.957.241-4.315.719-1.361.476-2.575 1.097-3.653 1.852-.912.639-1.698 1.413-2.569 2.099-.427.338-.596.801-1.198.765-.617-.042-.53-.831-.572-1.252-.054-.503-.109-1.003-.157-1.506-.039-.368-.078-.735-.117-1.099-.13-1.262-1.274-2.271-2.545-2.241l-17.228.425c.241 4.863.421 9.525.542 13.991.12 4.463.199 8.986.238 13.569.039 4.584.039 9.426 0 14.527-.039 5.102-.054 14.554-.054 14.554-.003 1.268 1.033 2.289 2.3 2.271l16.72-.286c1.267-.021 2.327-1.078 2.352-2.343l.674-32.848c0-1.118.28-2.253.837-3.409.557-1.157 1.876-1.735 3.954-1.735.961 0 1.72.355 2.28 1.078.554.717 1.015 1.675 1.376 2.87.361 1.193.599 2.569.72 4.123.117 1.554.178 3.168.178 4.842v10.163c0 2.629-.022 4.921-.061 6.873-.039 1.96-.099 3.791-.177 5.501-.082 1.717-.154 3.617-.154 3.617-.045 1.265.949 2.325 2.219 2.358l19.626.425c-.163-1.196-.301-2.669-.419-4.424-.12-1.753-.202-3.548-.241-5.382-.039-1.83-.078-3.586-.12-5.26-.042-1.675-.06-3.03-.06-4.069 0-7.649.319-13.346.96-17.096.639-3.746 2.316-5.622 5.032-5.622 1.678 0 2.976.699 3.897 2.096.916 1.394 1.379 3.725 1.379 6.992 0 3.111-.382 7.077-1.141 11.899-.759 4.824-3.144 15.27-3.144 15.27-.28 1.235.518 2.373 1.78 2.536l19.761 2.463c.876-4.941 1.617-9.723 2.216-14.349.599-4.62.9-9.128.9-13.515 0-4.701-.34-9.025-1.017-12.973-.684-3.939-1.946-7.33-3.783-10.158zm94.254 10.164c-.68-3.945-1.936-7.336-3.77-10.164-1.837-2.828-4.358-5.041-7.553-6.637-3.198-1.593-7.347-2.391-12.461-2.391-3.833 0-7.128.837-9.889 2.511-.705.431-1.392.883-2.06 1.371-.626.46-1.229.948-1.795 1.478-.467.437-1.072 1.488-1.816 1.274-.527-.156-.991-.744-1.301-1.171-.759-1.039-1.737-1.919-2.791-2.65-2-1.395-4.517-2.096-7.55-2.096-1.524 0-2.957.241-4.315.719-1.358.479-2.578 1.097-3.653 1.852-1.081.759-1.96 1.557-2.638 2.391-.108.136-.217.269-.334.392-.172.178-.44.419-.711.352-.304-.069-.485-.527-.551-.795-.124-.469-.136-.969-.184-1.454-.063-.627-.126-1.256-.196-1.879-.132-1.262-1.276-2.271-2.541-2.241l-17.228.425c.238 4.863.421 9.525.539 13.991.12 4.463.198 8.986.241 13.569.039 4.584.039 9.429 0 14.53-.04 5.102-.058 14.551-.058 14.551-.003 1.268 1.033 2.292 2.307 2.271l16.719-.283c1.268-.024 2.325-1.075 2.352-2.346l.672-32.845c0-1.118.283-2.253.84-3.409.557-1.157 1.876-1.735 3.954-1.735.958 0 1.717.355 2.277 1.075.554.72 1.018 1.675 1.379 2.87.358 1.196.593 2.572.717 4.126.12 1.554.18 3.168.18 4.842v10.163c0 2.626-.021 4.921-.06 6.873-.039 1.957-.102 3.788-.181 5.501-.078 1.717-.153 3.614-.153 3.614-.048 1.268.948 2.328 2.222 2.358h.036c.636.015 1.265.027 1.904.042 1.367.027 2.737.06 4.107.09 1.674.034 3.349.07 5.026.109 1.581.033 3.162.066 4.74.105.97.021 2.105.232 3.06.012.804-.186.626-.822.602-1.466-.024-.973-.202-1.918-.274-2.888-.115-1.753-.199-3.548-.241-5.382-.039-1.83-.078-3.586-.12-5.26-.04-1.675-.061-3.027-.061-4.066 0-7.652.32-13.349.958-17.099.641-3.746 2.316-5.622 5.035-5.622 1.677 0 2.975.702 3.897 2.093.915 1.394 1.379 3.728 1.379 6.996 0 3.107-.376 7.076-1.141 11.898-.759 4.827-3.141 15.267-3.141 15.267-.283 1.238.515 2.379 1.777 2.536.542.066 1.078.136 1.611.202 2.704.34 5.402.674 8.103 1.012 1.714.213 3.43.394 5.147.596 1.039.117 2.069.349 3.108.467.641.069 1.457.397 1.975-.175.494-.551.464-1.554.578-2.231.175-1.024.28-2.054.365-3.087.126-1.581.331-3.132.551-4.704.192-1.319.364-2.641.536-3.963.599-4.623.9-9.128.9-13.512-.006-4.704-.346-9.028-1.027-12.973z" fill="#fff"/></svg>