<svg viewBox="0 0 200 40" xmlns="http://www.w3.org/2000/svg" xmlns:xlink="http://www.w3.org/1999/xlink"><mask id="a"><path d="m304 156.5a149 149 0 1 1 -298 0 149 149 0 1 1 298 0z" fill="#fff" fill-rule="evenodd" transform="matrix(.996644 0 0 .996644 2.02013 .525168)"/></mask><path d="m54.87 20.168c0 7.428-8.142 12.071-14.658 8.357-3.024-1.723-4.885-4.91-4.885-8.357 0-7.429 8.142-12.072 14.658-8.358 3.023 1.724 4.885 4.911 4.885 8.358z" fill="#fff" fill-rule="evenodd"/><g mask="url(#a)" transform="matrix(.065805 0 0 .064984 34.799545 9.99781)"><g fill="none" stroke="#141414"><path d="m592.8171 448.4119c-6.7551-10.5208-13.2729-15.3792-26.1358-18.6141" stroke-width="2.30567" transform="matrix(.650569 0 0 .650569 -87.30901 -182.4046)"/><path d="m50 45.375 13.5 13.75" stroke-width="1.5" transform="translate(.000016 -.000002)"/><path d="m48 92c-30.656969 21.95613-38.1250677 66.5057-37 66.25" stroke-width="1.5" transform="translate(.000016 -.000002)"/><path d="m87 95.25c-3.161261 23.33707 5.251479 48.91426 22.75 76.25" stroke-width="1.5" transform="translate(.000016 -.000002)"/><path d="m29.125 206.875c14.426728 14.42384 33.602088 12.20951 51.625 12.625" stroke-width="1.5" transform="translate(.000016 -.000002)"/><path d="m124.62757 264.85868c-3.12231 8.25159-2.31517 19.68415-.53033 31.90819" stroke-width="1.5" transform="translate(.000016 -.000002)"/><path d="m103.06081 28.41985c11.47697-11.491103 36.09496-18.9077039 68.23581-22.2738633" stroke-width="1.5" transform="translate(.000016 -.000002)"/><path d="m237.32271 50.074995c-7.98715-14.875774-22.05796-26.564868-36.94771-37.824995" stroke-width="1.5" transform="translate(.000016 -.000002)"/><path d="m127.98633 54.052471c17.64281 1.987199 49.48708 4.60109 74.77654 18.915107" stroke-width="1.5" transform="translate(.000016 -.000002)"/><path d="m222.5 124c-15.12241 20.853-33.37786 40.31354-54.5 58.5" stroke-width="1.5"/><path d="m177.5 238.25c19.35774 10.80051 40.56069 15.44485 66.25 11.25" stroke-width="1.5"/><path d="m268.5 136.5c9.88101 18.55214 11.33112 44.88666 12.75 71.25" stroke-width="1.5"/><path d="m277.75 96.75c8.13915.273647 16.0266 4.57442 23.5 15.5" stroke-width="1.5"/></g><path d="m40.25 98c20.653975 3.61865 29.152891 2.15978 46.25 3.75 10.106779-13.261723 27.26236-30.047846 45.25-47.25-7.42374-11.584726-14.43052-23.441076-23.25-30.75-22.390269 7.590533-38.335182 16.93889-53.5 26.5-9.518255 16.574036-14.564708 32.509244-14.75 47.75z" fill="#141414" fill-rule="evenodd"/><path d="m198 70.75c6.79286 18.669048 12.6345 35.43567 21.25 57.75 17.72598 4.68078 36.62577 10.30061 51.25 12.5 4.70076-9.43748 7.81084-27.6237 11.25-44-11.68034-18.118165-28.341-33.746166-45.25-49.25-12.43564 4.485122-25.40362 13.228984-38.5 23z" fill="#141414" fill-rule="evenodd"/><path d="m106.75 167c22.79472 3.75 44.78732 7.5 66.25 11.25 6.63556 20.83333 7.4943 41.66667 9.75 62.5-16.40955 13.63568-39.03853 17.94221-59 26.25-23.22635-15.01337-32.6832-31.74793-46-48 7.646852-17.58581 16.08235-35.07304 29-52z" fill="#141414" fill-rule="evenodd"/><path d="m1.0606602 148.80478c.0322268 1.04777 8.0467844 2.22601 10.9601548 1.06066 3.346348 21.4179 7.728694 42.14513 19.445437 57.98276-2.293995 11.22327-.134448 20.21976 3.18198 28.63782-20.318369 5.69467-18.552158 8.77396-26.516504 12.37437" fill="#141414" fill-rule="evenodd"/><path d="m75.660426 284.39251c19.310672 5.11252 33.378614 15.03674 48.260034 9.89949 4.37683 6.19991 16.48638 10.68355 48.08326 12.02082l-85.913469 7.60139" fill="#141414" fill-rule="evenodd"/><path d="m299.625 212.625c-5.63736-4.15431-11.46921-8.11413-18.75-10.625-14.5 19.3174-29 41.30773-43.5 48.25-.26726 11.90911-2.12316 22.54731-7.375 30.46875 10.95118.73852 22.38887.69864 35-1.21875" fill="#141414" fill-rule="evenodd"/></g><path d="m54.87 20.168c0 7.428-8.142 12.071-14.658 8.357-3.024-1.723-4.885-4.91-4.885-8.357 0-7.429 8.142-12.072 14.658-8.358 3.023 1.724 4.885 4.911 4.885 8.358z" fill="none" stroke="#141414" stroke-linecap="round" stroke-linejoin="round"/><path d="m61.572 28.87 1.68-4.95c1.68.46 3.22.69 4.62.69 1.4 0 2.53-.06 3.39-.18l.24-1.5-2.49-.24c-1.9-.18-3.247-.61-4.04-1.29-.787-.68-1.18-1.64-1.18-2.88 0-.54.06-1.14.18-1.8.46-2.56 1.293-4.32 2.5-5.28 1.213-.96 3.09-1.44 5.63-1.44 2.54 0 4.78.25 6.72.75l-1.56 4.8c-1.74-.3-3.14-.45-4.2-.45-1.06 0-1.96.05-2.7.15l-.24 1.47 2.01.21c2.04.22 3.49.707 4.35 1.46.86.747 1.29 1.75 1.29 3.01 0 1.28-.28 2.6-.84 3.96-.28.7-.587 1.287-.92 1.76-.327.467-.747.863-1.26 1.19-.507.333-.97.583-1.39.75-.42.173-.95.3-1.59.38-.94.14-2.09.21-3.45.21-2.48 0-4.73-.26-6.75-.78zm27.99-4.2h-3.72l-.78 4.53h-5.7l3.3-18.75h9c3.4 0 5.1 1.58 5.1 4.74 0 1.5-.21 2.853-.63 4.06-.42 1.213-.884 2.177-1.39 2.89-.514.707-1.217 1.307-2.11 1.8-.887.487-1.91.73-3.07.73zm-.75-9.42h-1.32l-.81 4.62h1.32c.68 0 1.193-.073 1.54-.22.353-.153.58-.5.68-1.04.26-1.48.39-2.29.39-2.43 0-.38-.15-.63-.45-.75-.3-.12-.75-.18-1.35-.18zm15.209 1.47-1.38 7.8h2.37c.78 0 1.36-.093 1.74-.28.38-.193.63-.63.75-1.31l1.38-7.8h-2.4c-.76 0-1.33.093-1.71.28-.38.193-.63.63-.75 1.31zm3.45-6.72c2.54 0 4.35.497 5.43 1.49 1.08.987 1.62 2.51 1.62 4.57 0 2.06-.326 4.217-.98 6.47-.646 2.247-1.676 3.993-3.09 5.24-1.406 1.253-3.466 1.88-6.18 1.88-2.706 0-4.6-.493-5.68-1.48-1.08-.993-1.62-2.52-1.62-4.58 0-.98.14-2.273.42-3.88.28-1.613.65-3.003 1.11-4.17.46-1.173 1.08-2.19 1.86-3.05 1.5-1.66 3.87-2.49 7.11-2.49zm21.54 12.96 1.98 6.24h-6.27l-1.38-5.58h-1.23l-.96 5.58h-5.7l3.3-18.75h9c3.42 0 5.13 1.53 5.13 4.59 0 1.26-.19 2.46-.57 3.6-.7 2.16-1.8 3.6-3.3 4.32zm-4.29-7.71h-1.14l-.66 3.75h1.32c.68 0 1.193-.073 1.54-.22.353-.153.593-.583.72-1.29.133-.713.2-1.15.2-1.31 0-.4-.153-.657-.46-.77-.313-.107-.82-.16-1.52-.16zm24.6-4.8-.87 4.8h-4.14l-2.43 13.95h-5.7l2.43-13.95h-4.11l.87-4.8zm-1.44 18.42 1.68-4.95c1.68.46 3.22.69 4.62.69 1.4 0 2.53-.06 3.39-.18l.24-1.5-2.49-.24c-1.9-.18-3.247-.61-4.04-1.29-.787-.68-1.18-1.64-1.18-2.88 0-.54.06-1.14.18-1.8.46-2.56 1.293-4.32 2.5-5.28 1.213-.96 3.09-1.44 5.63-1.44 2.54 0 4.78.25 6.72.75l-1.56 4.8c-1.74-.3-3.14-.45-4.2-.45-1.06 0-1.96.05-2.7.15l-.24 1.47 2.01.21c2.04.22 3.49.707 4.35 1.46.86.747 1.29 1.75 1.29 3.01 0 1.28-.28 2.6-.84 3.96-.28.7-.587 1.287-.92 1.76-.327.467-.747.863-1.26 1.19-.507.333-.97.583-1.39.75-.42.173-.95.3-1.59.38-.94.14-2.09.21-3.45.21-2.48 0-4.73-.26-6.75-.78z" fill="#fff"/></svg>