<svg xmlns="http://www.w3.org/2000/svg"><g fill="#fff"><path d="m192.557 84.291c-13.401-3.792-25.113-14.157-29.832-26.124-6.153-15.42-2.529-32.442 9.354-44.241 4.161-4.104 8.898-7.305 13.953-9.597 17.574-7.965 39-4.959 53.463 9.177 2.697 2.613 4.887 5.139 4.887 5.478 0 .42-10.113 5.898-22.416 12.135-12.303 6.234-22.5 11.628-22.752 11.88-.168.255 10.281 4.974 23.259 10.536 13.818 5.814 23.595 10.449 23.595 11.037 0 .591-2.781 3.876-6.069 7.332-6.573 6.573-13.23 10.449-21.741 12.726-6.321 1.686-19.383 1.515-25.701-.339zm30.084-9.099c5.055-2.361 12.471-8.343 12.471-10.029 0-.843-28.314-12.978-30.168-12.978-3.204 0 .759 2.277 12.471 7.248 7.164 3.033 13.401 5.898 13.821 6.234 1.011.927-6.657 6.405-11.715 8.343-2.358.843-6.402 1.854-9.099 2.193-6.912.843-6.153 2.442 1.011 1.938 4.044-.339 7.5-1.179 11.208-2.949zm-3.456-48.372c7.5-3.792 13.314-7.332 13.146-7.836-.504-1.35-.927-1.182-15.336 6.318-11.715 6.069-15 8.343-12.135 8.343.504 0 6.993-3.117 14.325-6.825z"/><path d="m.591 82.86c-.339-.339-.591-18.204-.591-39.693v-39.099l26.799.252 26.643.324 4.284 2.205c9.354 4.971 14.241 12.978 14.325 23.427 0 5.223-.42 7.161-2.361 11.124-4.719 9.606-12.471 14.241-24.774 14.829l-7.836.339-.171 13.23-.252 13.146-17.781.252c-9.69.084-17.949-.084-18.285-.336zm29.073-18.624.252-12.471 11.376-.423c9.354-.42 11.967-.843 14.748-2.274 4.296-2.193 7.752-5.646 9.774-9.693 1.686-3.369 2.193-8.256.759-8.256-.42 0-.843.672-.843 1.515 0 3.033-4.296 10.113-7.416 12.219-5.139 3.54-7.668 4.131-19.296 4.635l-11.208.423v12.051 12.048l-9.018.255c-6.237.168-9.102.588-9.354 1.347s2.106 1.011 9.861 1.011h10.11zm19.635-20.814c2.949-1.266 5.478-4.974 5.478-8.091 0-2.697-1.941-1.602-2.697 1.518-1.011 3.876-3.54 5.223-9.693 5.223-4.128 0-5.307.255-5.307 1.266 0 1.683 8.172 1.77 12.219.084zm-6.828-11.124c1.602-1.602 1.686-2.106.255-4.044-1.77-2.445-5.142-1.434-5.478 1.515-.423 3.624 2.697 5.142 5.223 2.529z"/><path d="m61.686 82.608c1.179-3.456 47.612-82.416 48.116-81.912 1.434 1.434 47.529 81.741 47.109 82.248-.843.759-95.561.504-95.225-.336zm80.309-14.16c-4.215-7.668-6.321-10.281-6.321-7.836 0 .591 1.518 3.876 3.456 7.248l3.369 6.234h-8.427c-7.668 0-10.197.591-8.763 2.025.252.252 5.139.504 10.869.504h10.281zm-25.62-6.573c2.697-1.431 5.817-5.814 5.817-8.172 0-2.022-1.434-1.938-2.109.084-1.011 3.201-3.96 5.982-7.245 6.825-1.77.507-3.288 1.263-3.288 1.686 0 1.263 4.044 1.011 6.825-.423zm-2.781-9.438c1.686-2.358 1.266-6.741-.843-8.172-2.526-1.77-4.212-1.686-6.909.42-2.949 2.361-2.949 5.898.084 8.343 2.529 2.022 5.814 1.686 7.668-.591z"/><path d="m335.392 42.072c0-22.668.339-41.292.675-41.292.42 0 9.438 9.018 20.055 20.058 10.62 10.953 19.467 20.055 19.806 20.223.252.084 9.099-8.847 19.803-19.971 10.617-11.04 19.551-20.142 19.971-20.226.336-.084.591 18.54.591 41.208v41.292h-40.452-40.449zm74.157 26.124c0-5.055-.336-8.427-.84-8.427-.507 0-.843 2.949-.843 7.164v7.161h-9.693c-8.088 0-9.69.255-9.69 1.266 0 1.095 1.77 1.263 10.533 1.263h10.533z"/><path d="m428.68 82.776c-.339-.255-.591-2.277-.591-4.467 0-3.54 1.77-6.993 21.153-40.533 11.628-20.142 21.405-36.828 21.741-37.164.507-.591 48.116 80.814 48.116 82.248 0 .675-89.744.675-90.419-.084zm75.083-14.58c-2.445-4.635-4.971-8.427-5.478-8.427-1.602 0-1.347.675 2.277 7.416 1.854 3.372 3.369 6.321 3.369 6.573 0 .168-3.792.336-8.427.336-6.908 0-8.426.255-8.426 1.266 0 1.095 1.77 1.263 10.532 1.263h10.62zm-25.028-6.993c3.372-2.193 6.489-7.839 5.142-9.186-.591-.591-1.266 0-2.106 1.938-1.434 3.456-3.879 5.73-6.996 6.573-1.263.336-2.445 1.011-2.697 1.602-.504 1.683 3.624 1.179 6.657-.927zm-3.201-9.186c2.022-2.361 1.77-4.635-.675-6.996-3.117-3.201-7.332-2.358-8.847 1.77-2.361 6.069 5.223 10.197 9.522 5.226z"/><path d="m525.588 82.776c-.672-.675-.756-80.646-.084-81.321.255-.252 9.018 8.679 19.551 19.803l19.131 20.31.252-18.708.168-18.708h17.697 17.697l-.168 39.438-.255 39.354-36.741.252c-20.139.084-36.993-.084-37.248-.42zm68.343-14.328c-.168-5.559-.588-8.256-1.263-8.511-.843-.252-1.095 1.518-1.095 6.912v7.245h-9.693c-8.088 0-9.69.255-9.69 1.266 0 1.095 1.77 1.263 10.956 1.263h11.04z"/><path d="m269.156 49.404c-.252-.675-.336-4.551-.168-8.679l.255-7.5 19.212-.252 19.214-.171-.255 8.598-.252 8.679-18.791.252c-15.084.168-18.792 0-19.215-.927z"/></g></svg>