<svg xmlns="http://www.w3.org/2000/svg"><g fill="#1e1e1e"><path d="m30.926 4.913c-1.341 0-2.593-.031-3.615.356-.511.194-.962.518-1.273.994-.31.476-.465 1.077-.465 1.816v178.416c0 .738.152 1.327.481 1.77.329.442.807.699 1.319.823 1.024.245 2.242.092 3.554.092h289.261c1.312 0 2.53.153 3.554-.092.513-.124.991-.381 1.32-.823.245-.332.361-.775.418-1.273h.062v-.496-178.417c0-.739-.139-1.34-.45-1.816-.31-.476-.776-.8-1.288-.994-1.023-.384-2.275-.354-3.616-.354h-289.261zm0 .992h289.261c1.343 0 2.522.016 3.26.295.369.139.626.328.807.606.184.276.298.668.298 1.272v177.92.497c0 .604-.116.96-.279 1.179-.164.22-.393.347-.761.434-.736.177-1.948.078-3.321.078h-289.261c-1.373 0-2.586.1-3.322-.078-.367-.089-.596-.218-.759-.437-.164-.218-.28-.576-.28-1.182v-178.41c0-.605.114-.996.295-1.273.181-.278.438-.466.807-.605.738-.28 1.916-.295 3.259-.295h-.004z" transform="matrix(.965926 -.258819 .258819 .965926 -19.141536 48.745197)"/><path d="m30.228 56.433c-4.463 0-8.38 2.309-10.631 5.804l.823.543c2.074-3.221 5.689-5.354 9.808-5.354h270.325c4.174 0 7.826 2.186 9.886 5.477l.839-.525c-2.236-3.573-6.202-5.945-10.725-5.945h-270.324z" transform="matrix(.965926 -.258819 .258819 .965926 -9.806067 44.851515)"/><path d="m25.57 61.611c-1.88 0-3.592.738-4.858 1.939l.683.73c1.088-1.033 2.554-1.676 4.175-1.676h281.499c1.792 0 3.39.785 4.5 2.017l.745-.668c-1.291-1.433-3.167-2.343-5.245-2.343z" transform="matrix(.965926 -.258819 .258819 .965926 -10.661702 45.247353)"/><path d="m39.532 109.188c-.94 0-1.707.767-1.707 1.707v9.84c0 .939.767 1.723 1.707 1.723h15.799c.939 0 1.723-.784 1.723-1.723v-.497h-.016v-9.343c0-.94-.767-1.707-1.707-1.707zm0 .993h15.799c.402 0 .714.311.714.714v9.84.031c-.019.385-.324.698-.714.698h-15.799c-.403 0-.714-.326-.714-.729v-9.84c0-.402.311-.714.714-.714z" transform="matrix(.965926 -.258819 .258819 .965926 -28.360733 16.224818)"/><path d="m64.866 102.402c-.939 0-1.707.767-1.707 1.707v9.84c0 .939.768 1.723 1.707 1.723h15.799c.94 0 1.707-.784 1.707-1.723v-.497-9.343c0-.939-.767-1.707-1.707-1.707zm0 .993h15.799c.403 0 .714.311.714.714v9.84c0 .403-.311.729-.714.729h-15.799c-.402 0-.714-.326-.714-.729v-9.84c.001-.402.313-.714.714-.714z" transform="matrix(.965926 -.258819 .258819 .965926 -25.741426 22.548441)"/><path d="m90.202 95.614c-.939 0-1.707.767-1.707 1.707v9.84c0 .939.768 1.723 1.707 1.723h15.799c.939 0 1.707-.784 1.707-1.723v-9.84c0-.94-.768-1.707-1.707-1.707zm0 .993h15.799c.402 0 .714.311.714.714v9.84c0 .403-.312.729-.714.729h-15.799c-.403 0-.714-.326-.714-.729v-9.84c0-.402.311-.714.714-.714z" transform="matrix(.965926 -.258819 .258819 .965926 -23.12126 28.874583)"/><path d="m115.536 88.827c-.94 0-1.723.767-1.723 1.707v9.84c0 .939.783 1.723 1.723 1.723h15.798c.94 0 1.707-.784 1.707-1.723v-9.84c0-.939-.767-1.707-1.707-1.707zm0 .993h15.798c.403 0 .715.311.715.714v9.84c0 .403-.311.729-.715.729h-15.798c-.404 0-.73-.326-.73-.729v-9.84c0-.402.327-.714.73-.714z" transform="matrix(.965926 -.258819 .258819 .965926 -20.501711 35.198046)"/><path d="m140.874 82.038c-.939 0-1.723.767-1.723 1.707v9.84c0 .939.783 1.723 1.723 1.723h15.799c.939 0 1.707-.784 1.707-1.723v-9.84c0-.94-.768-1.707-1.707-1.707zm0 .993h15.799c.402 0 .714.311.714.714v9.84c0 .403-.312.729-.714.729h-15.799c-.403 0-.73-.326-.73-.729v-9.84c0-.402.327-.714.73-.714z" transform="matrix(.965926 -.258819 .258819 .965926 -17.881203 41.52481)"/><path d="m166.193 75.25c-.939 0-1.707.767-1.707 1.707v9.84c0 .939.768 1.723 1.707 1.723h15.799c.939 0 1.723-.784 1.723-1.723v-9.84c0-.939-.783-1.707-1.723-1.707zm0 .993h15.799c.403 0 .73.311.73.714v9.84c0 .403-.328.729-.73.729h-15.799c-.402 0-.714-.326-.714-.729v-9.84c0-.402.312-.714.714-.714z" transform="matrix(.965926 -.258819 .258819 .965926 -15.261068 47.850697)"/><path d="m191.527 68.461c-.94 0-1.707.767-1.707 1.707v9.84c0 .939.767 1.723 1.707 1.723h15.798c.94 0 1.723-.784 1.723-1.723v-9.84c0-.939-.782-1.707-1.723-1.707zm0 .993h15.798c.403 0 .73.311.73.714v9.84c0 .403-.327.729-.73.729h-15.798c-.404 0-.715-.326-.715-.729v-9.84c0-.402.312-.714.715-.714z" transform="matrix(.965926 -.258819 .258819 .965926 -12.640726 54.176147)"/><path d="m216.861 61.675c-.94 0-1.707.767-1.707 1.707v9.84c0 .939.767 1.723 1.707 1.723h15.799c.939 0 1.707-.784 1.707-1.723v-9.84c0-.939-.767-1.707-1.707-1.707zm0 .993h15.799c.403 0 .714.311.714.714v9.84c0 .403-.311.729-.714.729h-15.799c-.403 0-.714-.326-.714-.729v-9.84c0-.402.312-.714.714-.714z" transform="matrix(.965926 -.258819 .258819 .965926 -10.0214 60.499917)"/><path d="m242.194 54.887c-.94 0-1.707.767-1.707 1.707v9.84c0 .939.767 1.723 1.707 1.723h15.798c.941 0 1.707-.784 1.707-1.723v-9.84c0-.939-.766-1.707-1.707-1.707zm0 .993h15.798c.404 0 .715.311.715.714v9.84c0 .403-.311.729-.715.729h-15.798c-.403 0-.714-.326-.714-.729v-9.84c.001-.402.312-.714.714-.714z" transform="matrix(.965926 -.258819 .258819 .965926 -7.401353 66.825135)"/><path d="m267.532 48.1c-.939 0-1.722.767-1.722 1.707v9.84c0 .939.783 1.723 1.722 1.723h15.799c.94 0 1.707-.784 1.707-1.723v-9.84c0-.939-.767-1.707-1.707-1.707zm0 .993h15.799c.403 0 .714.311.714.714v9.84c0 .403-.311.729-.714.729h-15.799c-.402 0-.729-.326-.729-.729v-9.84c0-.402.327-.714.729-.714z" transform="matrix(.965926 -.258819 .258819 .965926 -4.781614 73.150036)"/><path d="m59.554 130.367c-.94 0-1.707.767-1.707 1.707v9.855c0 .939.767 1.707 1.707 1.707h15.799c.94 0 1.707-.768 1.707-1.707v-9.855c0-.94-.767-1.707-1.707-1.707zm0 .993h15.799c.403 0 .713.311.713.714v9.855c0 .401-.31.714-.713.714h-15.799c-.402 0-.714-.313-.714-.714v-9.855c0-.404.312-.714.714-.714z" transform="matrix(.965926 -.258819 .258819 .965926 -33.16017 22.126461)"/><path d="m84.888 123.581c-.94 0-1.723.767-1.723 1.707v9.855c0 .939.783 1.707 1.723 1.707h15.799c.939 0 1.707-.768 1.707-1.707v-9.855c0-.94-.767-1.707-1.707-1.707zm0 .993h15.799c.402 0 .714.31.714.714v9.855c0 .402-.311.714-.714.714h-15.799c-.403 0-.73-.313-.73-.714v-9.855c0-.404.327-.714.73-.714z" transform="matrix(.965926 -.258819 .258819 .965926 -30.540867 28.450086)"/><path d="m110.227 116.791c-.94 0-1.723.767-1.723 1.707v9.855c0 .939.782 1.707 1.723 1.707h15.798c.94 0 1.707-.768 1.707-1.707v-9.855c0-.94-.766-1.707-1.707-1.707zm0 .993h15.798c.403 0 .714.311.714.714v9.855c0 .401-.31.714-.714.714h-15.798c-.403 0-.73-.313-.73-.714v-9.855c0-.404.327-.714.73-.714z" transform="matrix(.965926 -.258819 .258819 .965926 -27.920095 34.776811)"/><path d="m135.544 110.003c-.939 0-1.707.767-1.707 1.707v9.855c0 .939.767 1.707 1.707 1.707h15.799c.939 0 1.723-.768 1.723-1.707v-9.855c0-.94-.782-1.707-1.723-1.707zm0 .993h15.799c.403 0 .73.31.73.714v9.855c0 .401-.327.714-.73.714h-15.799c-.402 0-.714-.313-.714-.714v-9.855c.001-.404.312-.714.714-.714z" transform="matrix(.965926 -.258819 .258819 .965926 -25.300015 41.102307)"/><path d="m160.878 103.215c-.939 0-1.707.767-1.707 1.707v9.855c0 .939.767 1.707 1.707 1.707h15.799c.94 0 1.723-.768 1.723-1.707v-9.855c0-.94-.783-1.707-1.723-1.707zm0 .993h15.799c.403 0 .73.31.73.714v9.855c0 .402-.327.714-.73.714h-15.799c-.403 0-.714-.313-.714-.714v-9.855c0-.404.311-.714.714-.714z" transform="matrix(.965926 -.258819 .258819 .965926 -22.679919 47.427931)"/><path d="m186.213 96.427c-.94 0-1.708.766-1.708 1.707v9.855c0 .939.767 1.707 1.708 1.707h15.798c.94 0 1.723-.768 1.723-1.707v-9.855c0-.94-.783-1.707-1.723-1.707zm0 .993h15.798c.402 0 .73.311.73.714v9.855c0 .401-.328.714-.73.714h-15.798c-.403 0-.715-.313-.715-.714v-9.855c0-.403.312-.714.715-.714z" transform="matrix(.965926 -.258819 .258819 .965926 -20.059817 53.753555)"/><path d="m211.551 89.639c-.94 0-1.707.767-1.707 1.707v9.855c0 .939.767 1.707 1.707 1.707h15.799c.939 0 1.707-.768 1.707-1.707v-9.855c0-.94-.767-1.707-1.707-1.707zm0 .993h15.799c.402 0 .714.31.714.714v9.855c0 .401-.312.714-.714.714h-15.799c-.403 0-.714-.313-.714-.714v-9.855c0-.404.311-.714.714-.714z" transform="matrix(.965926 -.258819 .258819 .965926 -17.43982 60.0784)"/><path d="m236.884 82.851c-.94 0-1.707.767-1.707 1.707v9.855c0 .938.766 1.707 1.707 1.707h15.799c.94 0 1.707-.768 1.707-1.707v-9.855c0-.94-.767-1.707-1.707-1.707zm0 .993h15.799c.403 0 .714.311.714.714v9.855c0 .401-.312.714-.714.714h-15.799c-.403 0-.713-.312-.713-.714v-9.855c0-.404.31-.714.713-.714z" transform="matrix(.965926 -.258819 .258819 .965926 -14.819757 66.403773)"/><path d="m262.218 76.065c-.939 0-1.723.766-1.723 1.707v9.855c0 .939.783 1.707 1.723 1.707h15.799c.94 0 1.707-.768 1.707-1.707v-9.855c0-.94-.767-1.707-1.707-1.707zm0 .993h15.799c.403 0 .714.31.714.714v9.855c0 .401-.311.714-.714.714h-15.799c-.401 0-.729-.313-.729-.714v-9.855c0-.403.328-.714.729-.714z" transform="matrix(.965926 -.258819 .258819 .965926 -12.200449 72.727415)"/><path d="m287.552 69.277c-.939 0-1.723.767-1.723 1.707v9.855c0 .939.783 1.707 1.723 1.707h15.799c.94 0 1.707-.768 1.707-1.707v-9.855c0-.94-.767-1.707-1.707-1.707zm0 .993h15.799c.402 0 .714.31.714.714v9.855c0 .402-.311.714-.714.714h-15.799c-.403 0-.729-.313-.729-.714v-9.855c-.001-.404.326-.714.729-.714z" transform="matrix(.965926 -.258819 .258819 .965926 -9.580348 79.053023)"/><path d="m72.652 153.405c-.94 0-1.723.783-1.723 1.723v9.839c0 .939.783 1.707 1.723 1.707h15.799c.939 0 1.707-.767 1.707-1.707v-.496-9.343c0-.939-.767-1.723-1.707-1.723zm0 .993h15.799c.403 0 .714.327.714.729v9.84c0 .403-.311.714-.714.714h-15.799c-.402 0-.73-.311-.73-.714v-9.84c.001-.403.328-.729.73-.729z" transform="matrix(.965926 -.258819 .258819 .965926 -38.676814 26.299405)"/><path d="m97.97 146.617c-.939 0-1.707.783-1.707 1.723v9.839c0 .939.768 1.707 1.707 1.707h15.8c.939 0 1.722-.768 1.722-1.707v-9.839c0-.939-.783-1.723-1.722-1.723zm0 .993h15.8c.402 0 .729.327.729.729v9.84c0 .403-.326.714-.729.714h-15.8c-.403 0-.713-.311-.713-.714v-9.84c0-.403.31-.729.713-.729z" transform="matrix(.965926 -.258819 .258819 .965926 -36.056717 32.625029)"/><path d="m123.304 139.829c-.94 0-1.707.783-1.707 1.723v9.839c0 .939.767 1.707 1.707 1.707h15.799c.94 0 1.722-.767 1.722-1.707v-9.839c0-.94-.782-1.723-1.722-1.723zm0 .993h15.799c.402 0 .729.327.729.729v9.84c0 .403-.326.714-.729.714h-15.799c-.403 0-.714-.311-.714-.714v-9.84c0-.403.312-.729.714-.729z" transform="matrix(.965926 -.258819 .258819 .965926 -33.436638 38.950527)"/><path d="m148.643 133.039c-.939 0-1.707.783-1.707 1.723v9.839c0 .939.768 1.707 1.707 1.707h15.799c.939 0 1.723-.767 1.723-1.707v-9.839c0-.94-.783-1.723-1.723-1.723zm0 .993h15.799c.403 0 .73.327.73.729v9.84c0 .403-.327.714-.73.714h-15.799c-.402 0-.714-.311-.714-.714v-9.84c0-.403.312-.729.714-.729z" transform="matrix(.965926 -.258819 .258819 .965926 -30.815829 45.277508)"/><path d="m173.977 126.253c-.939 0-1.707.783-1.707 1.723v9.839c0 .939.767 1.707 1.707 1.707h15.799c.939 0 1.707-.767 1.707-1.707v-9.839c0-.939-.767-1.723-1.707-1.723zm0 .993h15.799c.402 0 .714.327.714.729v9.84c0 .403-.311.714-.714.714h-15.799c-.403 0-.714-.311-.714-.714v-9.84c0-.403.311-.729.714-.729z" transform="matrix(.965926 -.258819 .258819 .965926 -28.196522 51.601127)"/><path d="m199.31 119.465c-.94 0-1.707.783-1.707 1.723v9.839c0 .939.767 1.707 1.707 1.707h15.799c.939 0 1.707-.767 1.707-1.707v-9.839c0-.939-.767-1.723-1.707-1.723zm0 .993h15.799c.403 0 .714.327.714.729v9.84c0 .403-.311.714-.714.714h-15.799c-.403 0-.714-.311-.714-.714v-9.84c0-.403.312-.729.714-.729z" transform="matrix(.965926 -.258819 .258819 .965926 -25.576458 57.926505)"/><path d="m224.645 112.679c-.94 0-1.723.783-1.723 1.723v9.839c0 .939.783 1.707 1.723 1.707h15.798c.94 0 1.707-.767 1.707-1.707v-9.839c0-.939-.766-1.723-1.707-1.723zm0 .993h15.798c.403 0 .714.327.714.729v9.84c0 .403-.31.714-.714.714h-15.798c-.403 0-.73-.311-.73-.714v-9.84c0-.403.327-.729.73-.729z" transform="matrix(.965926 -.258819 .258819 .965926 -22.957133 64.25026)"/><path d="m249.983 105.889c-.94 0-1.723.783-1.723 1.723v9.839c0 .939.783 1.707 1.723 1.707h15.799c.939 0 1.707-.767 1.707-1.707v-9.839c0-.939-.767-1.723-1.707-1.723zm0 .993h15.799c.403 0 .714.327.714.729v9.84c0 .403-.311.714-.714.714h-15.799c-.403 0-.729-.311-.729-.714v-9.84c0-.403.326-.729.729-.729z" transform="matrix(.965926 -.258819 .258819 .965926 -20.336362 70.576973)"/><path d="m275.302 99.101c-.94 0-1.707.783-1.707 1.723v9.839c0 .939.766 1.707 1.707 1.707h15.798c.94 0 1.723-.768 1.723-1.707v-9.839c0-.939-.782-1.723-1.723-1.723zm0 .993h15.798c.404 0 .73.326.73.729v9.84c0 .403-.327.714-.73.714h-15.798c-.404 0-.714-.311-.714-.714v-9.84c0-.403.31-.729.714-.729z" transform="matrix(.965926 -.258819 .258819 .965926 -17.71625 76.902735)"/><path d="m91.238 174.981c-.938 0-1.723.767-1.723 1.707v9.84c0 .939.783 1.722 1.723 1.722h15.799c.94 0 1.707-.783 1.707-1.722v-9.84c0-.94-.767-1.707-1.707-1.707zm0 .993h15.799c.403 0 .714.311.714.714v9.84c0 .403-.311.729-.714.729h-15.799c-.402 0-.729-.327-.729-.729v-9.84c0-.404.326-.714.729-.714z" transform="matrix(.965926 -.258819 .258819 .965926 -43.627793 31.845001)"/><path d="m59.693 182.811c-.939 0-1.707.767-1.707 1.707v9.84c0 .939.767 1.722 1.707 1.722h20.424c.939 0 1.707-.782 1.707-1.722v-.497-9.343c0-.94-.768-1.707-1.707-1.707zm0 .993h20.424c.403 0 .714.311.714.714v9.84c0 .403-.311.729-.714.729h-20.424c-.402 0-.714-.327-.714-.729v-9.84c0-.404.311-.714.714-.714z" transform="matrix(.965926 -.258819 .258819 .965926 -46.650165 24.547957)"/><path d="m116.575 168.192c-.939 0-1.723.767-1.723 1.707v9.84c0 .938.783 1.722 1.723 1.722h15.799c.939 0 1.707-.782 1.707-1.722v-9.84c0-.94-.767-1.707-1.707-1.707zm0 .993h15.799c.401 0 .714.311.714.714v9.84c0 .403-.313.729-.714.729h-15.799c-.403 0-.73-.327-.73-.729v-9.84c0-.404.327-.714.73-.714z" transform="matrix(.965926 -.258819 .258819 .965926 -41.007338 38.171367)"/><path d="m141.893 161.404c-.939 0-1.707.767-1.707 1.707v9.84c0 .939.767 1.722 1.707 1.722h15.799c.94 0 1.723-.782 1.723-1.722v-9.84c0-.94-.783-1.707-1.723-1.707zm0 .993h15.799c.403 0 .729.311.729.714v9.84c0 .403-.326.729-.729.729h-15.799c-.402 0-.714-.327-.714-.729v-9.84c0-.404.311-.714.714-.714z" transform="matrix(.965926 -.258819 .258819 .965926 -38.387237 44.496998)"/><path d="m167.226 154.615c-.939 0-1.707.767-1.707 1.707v9.84c0 .938.768 1.722 1.707 1.722h15.799c.939 0 1.723-.782 1.723-1.722v-9.84c0-.94-.783-1.707-1.723-1.707zm0 .993h15.799c.403 0 .73.311.73.714v9.84c0 .403-.327.729-.73.729h-15.799c-.402 0-.714-.327-.714-.729v-9.84c0-.404.311-.714.714-.714z" transform="matrix(.965926 -.258819 .258819 .965926 -35.766912 50.822322)"/><path d="m192.561 147.829c-.94 0-1.707.767-1.707 1.707v9.84c0 .938.767 1.722 1.707 1.722h15.799c.939 0 1.707-.783 1.707-1.722v-9.84c0-.94-.768-1.707-1.707-1.707zm0 .993h15.799c.403 0 .713.31.713.714v9.84c0 .403-.309.729-.713.729h-15.799c-.404 0-.714-.327-.714-.729v-9.84c0-.404.31-.714.714-.714z" transform="matrix(.965926 -.258819 .258819 .965926 -33.147566 57.146207)"/><path d="m217.899 141.04c-.939 0-1.707.767-1.707 1.707v9.84c0 .938.767 1.722 1.707 1.722h15.799c.94 0 1.707-.782 1.707-1.722v-9.84c0-.94-.767-1.707-1.707-1.707zm0 .993h15.799c.404 0 .714.311.714.714v9.84c0 .403-.311.729-.714.729h-15.799c-.403 0-.714-.327-.714-.729v-9.84c0-.404.312-.714.714-.714z" transform="matrix(.965926 -.258819 .258819 .965926 -30.527076 63.472838)"/><path d="m243.233 134.252c-.939 0-1.707.767-1.707 1.707v9.84c0 .938.767 1.722 1.707 1.722h15.799c.939 0 1.707-.782 1.707-1.722v-9.84c0-.94-.768-1.707-1.707-1.707zm0 .993h15.799c.404 0 .714.311.714.714v9.84c0 .403-.31.729-.714.729h-15.799c-.404 0-.714-.327-.714-.729v-9.84c0-.404.31-.714.714-.714z" transform="matrix(.965926 -.258819 .258819 .965926 -27.906985 69.798501)"/><path d="m268.567 127.466c-.939 0-1.723.767-1.723 1.707v9.84c0 .938.783 1.722 1.723 1.722h15.799c.939 0 1.707-.782 1.707-1.722v-9.84c0-.94-.767-1.707-1.707-1.707zm0 .993h15.799c.403 0 .714.311.714.714v9.84c0 .403-.311.729-.714.729h-15.799c-.403 0-.729-.327-.729-.729v-9.84c0-.404.327-.714.729-.714z" transform="matrix(.965926 -.258819 .258819 .965926 -25.287665 76.122079)"/><path d="m294.305 119.035c-.938 0-1.707.767-1.707 1.707v9.84c0 .938.767 1.722 1.707 1.722h27.238c.939 0 1.706-.782 1.706-1.722v-9.84c0-.94-.767-1.707-1.706-1.707zm0 .993h27.238c.403 0 .714.311.714.714v9.84c0 .403-.312.729-.714.729h-27.238c-.403 0-.714-.327-.714-.729v-9.84c0-.404.311-.714.714-.714z" transform="matrix(.965926 -.258819 .258819 .965926 -22.033419 83.978526)"/><path d="m300.636 92.313c-.94 0-1.707.783-1.707 1.723v9.839c0 .939.767 1.707 1.707 1.707h15.799c.939 0 1.723-.767 1.723-1.707v-9.839c0-.939-.783-1.723-1.723-1.723zm0 .993h15.799c.403 0 .729.327.729.729v9.84c0 .403-.326.714-.729.714h-15.799c-.403 0-.714-.311-.714-.714v-9.84c0-.403.311-.729.714-.729z" transform="matrix(.965926 -.258819 .258819 .965926 -15.096133 83.228486)"/><path d="m306.142 133.62-8.024 18.748.916.387 8.008-18.747z" transform="matrix(.965926 -.258819 .258819 .965926 -26.749499 83.192513)"/><path d="m309.338 105.856-5.681 13.285.917.388 5.68-13.285z" transform="matrix(.965926 -.258819 .258819 .965926 -18.707713 83.28584)"/><path d="m321.954 47.278-18.406 43.037.916.388 18.406-43.037z" transform="matrix(.965926 -.258819 .258819 .965926 -7.183718 83.415268)"/><path d="m309.944 132.637-7.977 18.638.916.404 7.977-18.654z" transform="matrix(.965926 -.258819 .258819 .965926 -26.352402 84.149552)"/><path d="m313.151 104.875-5.649 13.223.9.388 5.666-13.226-.913-.387z" transform="matrix(.965926 -.258819 .258819 .965926 -18.315043 84.242492)"/><path d="m323.129 55.766-14.526 33.973.915.387 14.527-33.972z" transform="matrix(.965926 -.258819 .258819 .965926 -8.101336 84.356233)"/><path d="m313.832 131.558-8.117 18.996.915.387 8.117-18.995z" transform="matrix(.965926 -.258819 .258819 .965926 -25.98719 85.106639)"/><path d="m316.997 103.783-5.681 13.3.916.388 5.681-13.3z" transform="matrix(.965926 -.258819 .258819 .965926 -17.912146 85.197756)"/><path d="m324.803 64.766-12.354 28.868.916.388 12.353-28.867z" transform="matrix(.965926 -.258819 .258819 .965926 -9.676172 85.2902)"/><path d="m317.605 130.704-8.009 18.763.916.388 8.008-18.764-.914-.387z" transform="matrix(.965926 -.258819 .258819 .965926 -25.605737 86.064074)"/><path d="m328.962 73.758-17.646 41.298.9.404 17.662-41.315z" transform="matrix(.965926 -.258819 .258819 .965926 -13.562537 86.200352)"/><path d="m321.477 129.494-8.025 18.763.913.402 8.026-18.778-.915-.388z" transform="matrix(.965926 -.258819 .258819 .965926 -25.162602 87.023043)"/><path d="m330.274 82.482-14.249 33.321.917.388 14.247-33.322z" transform="matrix(.965926 -.258819 .258819 .965926 -14.683539 87.140489)"/><path d="m48.52 180.483v.993h299.005v-.993z" transform="matrix(.965926 -.258819 .258819 .965926 -40.093484 57.418717)"/></g></svg>