<svg xmlns="http://www.w3.org/2000/svg"><g fill="#fff"><path d="m.6 55.395v-8.184h64.098v-9.342h-64.098l-.405-25.209h72.825v8.163h-64.098l.402 8.883h64.098v25.692h-72.822z"/><path d="m78.696 55.395v-42.576h8.724v42.576z"/><path d="m92.103 55.395v-42.576h72.825v42.576h-8.727v-34.413h-55.374v34.419z"/><path d="m169.584 55.395v-42.576h72.876v8.166h-64.095v26.226h64.095v8.19h-72.876z"/><path d="m248.268 55.395v-55.395h8.727v55.398h-8.727z"/><path d="m339.72 55.395v-42.576h8.778v42.576z"/><path d="m353.769 55.395v-42.576h72.822v8.166h-64.095v34.416h-8.727z"/><path d="m261.651 12.819v8.166h64.095v9.336h-64.095v25.077h72.876v-42.579zm64.095 34.392h-55.32v-9.342h55.32z"/><path d="m78.696 8.19v-8.19h8.724v8.19z"/><path d="m339.72 8.19v-8.19h8.778v8.19z"/><path d="m0 84.9 10.254-12.261h-9.45v-3.531h15.045v3.318l-10.254 12.261h10.521v3.534h-16.116z"/><path d="m23.268 78.207-6.159-9.102h4.872l3.75 6.105 3.882-6.105h4.605l-6.132 9.129 6.666 9.987h-5.004l-4.179-6.612-4.257 6.612h-4.74z"/><path d="m46.749 81.879c0 2.541 1.98 3.531 4.23 3.531 1.473 0 3.723-.426 3.723-2.382 0-2.061-2.865-2.409-5.676-3.159-2.838-.75-5.703-1.845-5.703-5.436 0-3.909 3.696-5.781 7.149-5.781 3.99 0 7.656 1.737 7.656 6.156h-4.068c-.135-2.304-1.767-2.889-3.774-2.889-1.341 0-2.892.561-2.892 2.169 0 1.473.912 1.659 5.703 2.889 1.392.348 5.676 1.233 5.676 5.568 0 3.507-2.757 6.132-7.953 6.132-4.23 0-8.19-2.088-8.136-6.798z"/><path d="m60.858 74.382h3.615v1.767h.054c.909-1.473 2.409-2.142 4.122-2.142 4.338 0 6.291 3.507 6.291 7.44 0 3.696-2.034 7.149-6.075 7.149-1.662 0-3.24-.723-4.152-2.088h-.054v6.588h-3.801zm10.281 6.957c0-2.193-.885-4.47-3.321-4.47-2.49 0-3.291 2.223-3.291 4.47 0 2.25.855 4.392 3.321 4.392 2.487 0 3.291-2.142 3.291-4.392z"/><path d="m80.352 82.224c.105 2.409 1.284 3.507 3.399 3.507 1.524 0 2.757-.936 2.997-1.794h3.345c-1.071 3.264-3.345 4.656-6.477 4.656-4.365 0-7.068-2.997-7.068-7.281 0-4.152 2.865-7.311 7.068-7.311 4.71 0 6.987 3.966 6.72 8.22zm6.183-2.409c-.348-1.929-1.179-2.943-3.027-2.943-2.409 0-3.105 1.872-3.159 2.943z"/><path d="m102.009 79.251c-.243-1.551-1.23-2.379-2.811-2.379-2.436 0-3.24 2.46-3.24 4.494 0 1.983.774 4.365 3.159 4.365 1.767 0 2.784-1.125 3.024-2.808h3.666c-.483 3.666-3.024 5.673-6.666 5.673-4.176 0-6.99-2.943-6.99-7.095 0-4.308 2.571-7.497 7.068-7.497 3.27 0 6.267 1.713 6.507 5.25z"/><path d="m112.773 74.382h2.784v2.541h-2.784v6.855c0 1.287.321 1.608 1.605 1.608.405 0 .777-.027 1.179-.111v2.973c-.642.108-1.473.135-2.22.135-2.331 0-4.365-.537-4.365-3.294v-8.163h-2.304v-2.544h2.304v-4.152h3.801z"/><path d="m117.378 74.382h3.615v2.571h.054c.696-1.743 2.571-2.946 4.419-2.946.267 0 .588.054.828.138v3.531c-.348-.081-.909-.135-1.365-.135-2.781 0-3.747 2.007-3.747 4.443v6.24h-3.801z"/><path d="m140.778 88.221h-3.615v-1.929h-.081c-.963 1.554-2.625 2.304-4.23 2.304-4.044 0-5.061-2.274-5.061-5.7v-8.514h3.804v7.818c0 2.274.669 3.399 2.436 3.399 2.061 0 2.943-1.152 2.943-3.963v-7.254h3.801z"/><path d="m143.778 74.382h3.588v1.872h.054c.99-1.422 2.436-2.25 4.23-2.25 1.74 0 3.291.642 4.041 2.304.804-1.206 2.25-2.304 4.176-2.304 2.946 0 5.061 1.365 5.061 4.953v9.264h-3.801v-7.845c0-1.845-.159-3.372-2.328-3.372-2.142 0-2.544 1.767-2.544 3.507v7.71h-3.804v-7.764c0-1.608.108-3.453-2.304-3.453-.747 0-2.568.48-2.568 3.186v8.031h-3.801z"/></g><path d="m455.04 2.301-63.609 63.618h36.201l63.612-63.618z" fill="#ccc"/><path d="m491.325 2.301-63.612 63.618h36.204l63.612-63.618z" fill="#ddd"/><path d="m527.58 2.301-63.609 63.618h36.204l63.609-63.618z" fill="#eee"/><path d="m563.799 2.301-63.612 63.618h36.204l63.609-63.618z" fill="#fff"/></svg>