<svg preserveAspectRatio="none" xmlns="http://www.w3.org/2000/svg"><g fill="#1e1e1e"><path d="m526.474 126.874c-2.342 0-4.262 1.919-4.262 4.263v268.716c0 2.344 1.919 4.243 4.262 4.243h106.836c2.343 0 4.262-1.899 4.262-4.243v-268.716c0-2.344-1.919-4.263-4.262-4.263zm0 1.269h106.836c1.658 0 2.993 1.336 2.993 2.994v268.718c0 1.658-1.335 2.974-2.993 2.974h-106.836c-1.658 0-2.994-1.316-2.994-2.974l.001-268.718c0-1.658 1.336-2.994 2.993-2.994z" transform="matrix(.965926 -.258819 .258819 .965926 -48.953258 159.133356)"/><g transform="matrix(.799006 -.214093 .214093 .799006 303.084167 189.800262)"><path d="m299.563 84.906c-29.611 0-53.636 24.024-53.636 53.636 0 29.611 24.024 53.636 53.636 53.636 29.61 0 53.612-24.024 53.612-53.636 0-29.611-24.002-53.636-53.612-53.636zm0 1.534c28.782 0 52.077 23.319 52.077 52.102 0 28.782-23.295 52.102-52.077 52.102s-52.103-23.319-52.103-52.102c0-28.782 23.32-52.102 52.103-52.102z"/><path d="m299.563 109.876c-15.829 0-28.687 12.834-28.687 28.663s12.858 28.688 28.687 28.688 28.663-12.858 28.663-28.688-12.834-28.663-28.663-28.663zm0 1.534c15 0 27.129 12.129 27.129 27.129s-12.13 27.154-27.129 27.154c-15 0-27.153-12.154-27.153-27.154s12.153-27.129 27.153-27.129z"/><path d="m299.563 94.516c-1.584 0-2.9 1.292-2.9 2.876v7.597c0 1.583 1.316 2.876 2.9 2.876s2.875-1.293 2.875-2.876v-7.597c0-1.584-1.292-2.876-2.875-2.876zm0 1.533c.752 0 1.341.587 1.341 1.342v7.597c0 .755-.587 1.342-1.341 1.342s-1.366-.588-1.366-1.342v-7.597c0-.754.611-1.342 1.366-1.342z"/><path d="m299.563 91.517c-25.966 0-47.045 21.055-47.045 47.021s21.079 47.045 47.045 47.045c25.965 0 47.02-21.08 47.02-47.045 0-25.968-21.051-47.02-47.02-47.021zm0 1.534c25.136 0 45.487 20.351 45.487 45.487s-20.351 45.511-45.487 45.511c-25.137 0-45.511-20.375-45.511-45.511.001-25.132 20.376-45.485 45.512-45.485z"/><path d="m270.444 106.563c-.74 0-1.477.279-2.037.839-1.12 1.119-1.12 2.955 0 4.074l5.368 5.368c1.12 1.12 2.955 1.12 4.074 0 1.12-1.119 1.12-2.954 0-4.074l-5.369-5.369c-.56-.552-1.297-.836-2.037-.836zm0 1.51c.343 0 .692.141.958.407l5.369 5.369c.533.534.533 1.384 0 1.917-.521.52-1.334.517-1.87.024l-.048-.024-5.369-5.368c-.534-.534-.533-1.384 0-1.917.268-.267.617-.408.96-.408z"/><path d="m258.389 135.66c-1.584 0-2.876 1.292-2.876 2.875s1.292 2.9 2.876 2.9h7.597c1.583 0 2.876-1.317 2.876-2.9.001-1.583-1.293-2.875-2.876-2.875zm0 1.534h7.597c.754 0 1.342.588 1.342 1.342 0 .755-.588 1.366-1.342 1.366h-7.597c-.754 0-1.342-.612-1.342-1.366s.587-1.342 1.342-1.342z"/><path d="m275.813 159.412c-.739-.001-1.477.278-2.037.838l-5.368 5.369c-1.12 1.118-1.12 2.954 0 4.074 1.12 1.119 2.954 1.119 4.074 0l5.369-5.368c1.12-1.119 1.12-2.954 0-4.074-.561-.561-1.299-.839-2.038-.839zm0 1.509c.344 0 .692.141.959.408.533.533.533 1.36 0 1.894l-5.369 5.368c-.534.533-1.384.533-1.917 0-.534-.534-.533-1.36 0-1.893l5.369-5.369c.266-.268.614-.408.958-.408z"/><path d="m299.563 169.235c-1.583 0-2.9 1.293-2.9 2.876v7.597c0 1.584 1.317 2.876 2.9 2.876s2.875-1.292 2.875-2.876v-7.597c0-1.584-1.292-2.876-2.875-2.876zm0 1.534c.752 0 1.341.588 1.341 1.342v7.597c0 .754-.587 1.343-1.341 1.343-.753 0-1.366-.588-1.366-1.343v-7.597c0-.754.612-1.342 1.366-1.342z"/><path d="m323.291 159.412c-.739-.001-1.478.278-2.037.838-1.119 1.119-1.12 2.954 0 4.074l5.368 5.368c1.119 1.119 2.954 1.119 4.074 0 1.119-1.12 1.119-2.955 0-4.074l-5.369-5.369c-.558-.559-1.297-.837-2.036-.837zm0 1.509c.343 0 .692.14.958.408l5.369 5.369c.533.533.533 1.359 0 1.893-.534.533-1.384.533-1.918 0l-5.368-5.368c-.534-.534-.532-1.36 0-1.894.268-.268.615-.408.959-.408z"/><path d="m333.114 135.66c-1.584 0-2.876 1.293-2.876 2.875 0 1.307.909 2.384 2.109 2.732v.167h.767 7.598c1.583 0 2.875-1.317 2.875-2.9s-1.292-2.875-2.875-2.875h-7.598zm0 1.534h7.598c.754 0 1.342.588 1.342 1.342 0 .753-.587 1.366-1.342 1.366h-6.83-.768c-.754 0-1.342-.614-1.342-1.366 0-.755.586-1.342 1.342-1.342z"/><path d="m328.659 106.563c-.739 0-1.478.28-2.037.839l-5.368 5.369c-1.12 1.12-1.12 2.954 0 4.074 1.118 1.12 2.954 1.12 4.073 0l5.369-5.368c1.118-1.119 1.119-2.955 0-4.074-.559-.56-1.298-.84-2.037-.84zm0 1.51c.344 0 .691.141.959.407.533.534.532 1.385 0 1.917l-5.369 5.368c-.532.533-1.385.533-1.917 0-.534-.534-.534-1.383 0-1.917l5.32-5.32.048-.048c.267-.266.615-.407.959-.407z"/><path d="m299.563 121.572c-9.361 0-16.968 7.607-16.968 16.968s7.607 16.968 16.968 16.968 16.967-7.606 16.967-16.968c0-9.361-7.606-16.968-16.967-16.968zm0 1.533c8.532 0 15.433 6.902 15.433 15.434s-6.901 15.434-15.433 15.434-15.434-6.902-15.434-15.434c0-8.531 6.901-15.434 15.434-15.434z"/><path d="m299.563 115.291c-12.828 0-23.247 10.42-23.247 23.247s10.42 23.246 23.247 23.246 23.222-10.419 23.222-23.246c0-12.823-10.392-23.245-23.222-23.245zm0 1.534c11.999 0 21.689 9.715 21.689 21.713s-9.69 21.712-21.689 21.712-21.713-9.715-21.713-21.712c0-11.995 9.715-21.711 21.713-21.711z"/></g><path d="m496.997 136.203v.633 30.669.634h.634 103.348.634v-.634-30.667-.635h-.634-103.349zm1.268 1.268h102.079v29.4h-102.079z" transform="matrix(.965926 -.258819 .258819 .965926 -20.667639 147.355634)"/><path d="m499.733 142.858c-2.943 0-5.353 2.39-5.353 5.333v67.619c0 2.504 1.73 4.6 4.064 5.175l.297-1.231c-1.776-.439-3.093-2.025-3.093-3.947v-67.619c0-2.257 1.826-4.065 4.084-4.065h4.817c1.156 0 2.193.481 2.934 1.25l.913-.893c-.97-1.006-2.34-1.625-3.847-1.625h-4.816z" transform="matrix(.965926 -.258819 .258819 .965926 -29.999964 135.967356)"/><path d="m602.988 114.787c-1.507 0-2.875.618-3.846 1.626l.913.891c.742-.769 1.776-1.249 2.93-1.249h4.838c2.259 0 4.065 1.806 4.065 4.064v67.619c0 1.919-1.317 3.507-3.093 3.945l.318 1.23c2.333-.577 4.044-2.673 4.044-5.175v-67.619c-.012-2.945-2.398-5.335-5.341-5.335h-4.838z" transform="matrix(.965926 -.258819 .258819 .965926 -19.164878 162.125244)"/></g></svg>