<svg xmlns="http://www.w3.org/2000/svg"><g fill="#fff"><path d="m80.217 68.958c0 5.145-1.56 9.297-4.68 12.462-3.123 3.162-7.338 4.743-12.651 4.743h-61.491v-17.205h61.491v-17.208h-45.804c-5.061 0-9.174-1.602-12.336-4.809-3.165-3.204-4.746-7.338-4.746-12.399v-17.337c0-2.445.465-4.722 1.392-6.828.927-2.109 2.172-3.924 3.732-5.442s3.372-2.721 5.439-3.606c2.07-.885 4.242-1.329 6.519-1.329h57.318v17.205h-57.318v17.337h45.804c2.445 0 4.722.444 6.831 1.329s3.945 2.088 5.505 3.606 2.781 3.33 3.669 5.439c.885 2.109 1.326 4.389 1.326 6.834z"/><path d="m180.18 86.163h-68.955c-11.475 0-17.211-5.733-17.211-17.205v-51.753c0-2.445.465-4.722 1.392-6.828.927-2.109 2.172-3.924 3.735-5.442 1.56-1.518 3.375-2.721 5.439-3.606 2.067-.885 4.281-1.329 6.645-1.329h66.045v17.205h-66.045v51.753h51.621v-17.208h-34.29v-17.208h51.624z"/><path d="m244.917 51.75h-51.624v-17.208h51.624z"/><path d="m304.848 86.163h-51.624v-17.205h17.331v-51.753h-17.331v-17.205h34.542v68.958h17.082z"/><path d="m333.471 0c-2.277 0-4.443.441-6.51 1.326s-3.879 2.088-5.439 3.606-2.805 3.33-3.735 5.439c-.927 2.109-1.392 4.386-1.392 6.831v51.756c0 11.472 5.691 17.205 17.076 17.205h51.63c11.469 0 17.202-5.733 17.202-17.205v-51.756c0-2.358-.441-4.587-1.326-6.696-.885-2.106-2.103-3.945-3.663-5.505-1.56-1.563-3.399-2.79-5.508-3.675-2.109-.885-4.344-1.326-6.705-1.326zm0 17.202h51.63v51.756h-51.63z"/><path d="m432.324 0c-2.277 0-4.443.441-6.51 1.326s-3.879 2.088-5.439 3.606-2.805 3.33-3.735 5.439c-.927 2.109-1.392 4.386-1.392 6.831v51.756c0 11.472 5.691 17.205 17.076 17.205h51.63c11.469 0 17.202-5.733 17.202-17.205v-51.756c0-2.358-.438-4.587-1.326-6.696-.885-2.106-2.115-3.945-3.672-5.505-1.563-1.563-3.399-2.79-5.508-3.675-2.109-.885-4.335-1.326-6.696-1.326zm0 17.202h51.63v51.756h-51.63z"/><path d="m531.177 0c-2.274 0-4.452.441-6.522 1.326-2.067.885-3.876 2.088-5.436 3.606s-2.805 3.33-3.735 5.439c-.927 2.109-1.392 4.386-1.392 6.831v51.756c0 11.472 5.7 17.205 17.085 17.205h51.621c11.469 0 17.202-5.733 17.202-17.205v-51.756c0-2.358-.441-4.587-1.326-6.696-.885-2.106-2.103-3.945-3.663-5.505-1.56-1.563-3.399-2.79-5.508-3.675-2.109-.885-4.347-1.326-6.705-1.326zm0 17.202h51.621v51.756h-51.621z"/></g></svg>