<svg preserveAspectRatio="none" xmlns="http://www.w3.org/2000/svg"><g fill="#1e1e1e"><g transform="matrix(.51637 -.138361 .138361 .51637 299.679657 189.619553)"><path d="m82.189 26.116v83.276h-3.15v1.708h4.005.854v-.854-84.13z"/><path d="m47.081 25.262v.854 84.129.854h.854 27.768.854v-.854-84.129-.854h-.854-27.768zm1.708 1.709h26.058v82.42h-26.058z"/><path d="m269.116 25.262v.854 84.129.854h.854 280.184.854v-.854-84.129-.854h-.854-280.184zm1.708 1.709h278.476v82.42h-278.476z"/><path d="m89.532 26.116v83.276h-3.15v1.708h4.004.854v-.854-84.13z"/><path d="m96.874 26.116v83.276h-3.15v1.708h4.005.854v-.854-84.13z"/><path d="m104.243 26.116v83.276h-3.177v1.708h4.032.854v-.854-84.13z"/><path d="m111.585 26.116v83.276h-3.177v1.708h4.032.854v-.854-84.13z"/><path d="m118.928 26.116v83.276h-3.177v1.708h4.032.854v-.854-84.13z"/><path d="m126.271 26.116v83.276h-3.177v1.708h4.031.855v-.854-84.13z"/><path d="m133.611 26.116v83.276h-3.177v1.708h4.032.854v-.854-84.13z"/><path d="m140.959 26.116v83.276h-3.177v1.708h4.032.854v-.854-84.13z"/><path d="m148.298 26.116v83.276h-3.177v1.708h4.031.854v-.854-84.13z"/><path d="m155.638 26.116v83.276h-3.177v1.708h4.032.854v-.854-84.13z"/><path d="m162.985 26.116v83.276h-3.177v1.708h4.032.854v-.854-84.13z"/><path d="m170.324 26.116v83.276h-3.178v1.708h4.032.854v-.854-84.13z"/><path d="m177.663 26.116v83.276h-3.177v1.708h4.032.854v-.854-84.13z"/><path d="m185.011 26.116v83.276h-3.177v1.708h4.032.854v-.854-84.13z"/><path d="m192.35 26.116v83.276h-3.178v1.708h4.032.854v-.854-84.13z"/><path d="m199.689 26.116v83.276h-3.177v1.708h4.032.854v-.854-84.13z"/><path d="m207.037 26.116v83.276h-3.177v1.708h4.032.854v-.854-84.13z"/><path d="m214.376 26.116v83.276h-3.178v1.708h4.032.855v-.854-84.13z"/><path d="m221.724 26.116v83.276h-3.178v1.708h4.032.854v-.854-84.13z"/><path d="m229.063 26.116v83.276h-3.177v1.708h4.032.854v-.854-84.13z"/><path d="m236.402 26.116v83.276h-3.178v1.708h4.032.855v-.854-84.13z"/><path d="m243.749 26.116v83.276h-3.177v1.708h4.032.854v-.854-84.13z"/><path d="m251.088 26.116v83.276h-3.177v1.708h4.032.854v-.854-84.13z"/><path d="m258.436 26.116v83.276h-3.177v1.708h4.032.854v-.854-84.13z"/><path d="m265.775 26.116v83.276h-3.178v1.708h4.032.854v-.854-84.13z"/><path d="m341.737 35.461c-.906 0-1.656.749-1.656 1.655v32.893c0 .905.75 1.656 1.656 1.656h196.883c.906 0 1.655-.75 1.655-1.656v-32.893c0-.905-.749-1.655-1.655-1.655zm.054 1.708h196.772v32.787h-196.772z"/><path d="m347.53 40.24c-1.128 0-2.082.928-2.082 2.056v22.534c0 1.128.954 2.056 2.082 2.056h148.261c.799 0 1.368-.527 1.708-1.201h.348v-.855-22.534c0-1.128-.926-2.056-2.056-2.056zm0 1.709h148.261c.205 0 .347.142.347.347v21.68.854c0 .205-.142.347-.347.347h-148.261c-.204 0-.373-.143-.373-.347v-22.534c0-.205.169-.347.373-.347z"/><path d="m349.794 43.043c-.684 0-1.255.568-1.255 1.255v18.529c0 .687.571 1.255 1.255 1.255h143.988c.686 0 1.256-.571 1.256-1.255v-18.529c0-.685-.57-1.255-1.256-1.255zm.454 1.709h143.082v17.622h-143.082z"/><path d="m520.482 41.842c-6.465 0-11.721 5.257-11.721 11.722 0 6.464 5.255 11.721 11.721 11.721 6.465 0 11.722-5.257 11.722-11.721 0-6.465-5.257-11.722-11.722-11.722zm0 1.709c5.54 0 10.013 4.471 10.013 10.013 0 5.541-4.473 10.012-10.013 10.012-5.541 0-10.012-4.471-10.012-10.012.001-5.542 4.471-10.013 10.012-10.013z"/></g><path d="m352.65 205.325c-.483 0-.898.4-.898.885v111.471c0 .485.413.886.898.886l263.821.001c.485 0 .886-.402.886-.886v-111.471c0-.484-.402-.885-.886-.885h-263.821zm.014.914 263.781.001v111.416l-263.781-.001z" transform="matrix(.965926 -.258819 .258819 .965926 -51.285957 134.337567)"/><path d="m325.165 156.862c-.484 0-.899.4-.899.885v4.125h.912v-4.097h263.781v3.982h.913v-4.01c0-.485-.402-.886-.887-.886h-263.825z" transform="matrix(.965926 -.258819 .258819 .965926 -25.672828 123.728386)"/><path d="m363.12 264.148c-.96 0-1.755.795-1.755 1.755v8.551c0 .959.795 1.755 1.755 1.755h8.549c.962 0 1.743-.795 1.743-1.755v-.457-8.094c0-.959-.781-1.755-1.743-1.755zm0 .913h8.549c.468 0 .829.376.829.842v8.551c0 .465-.362.842-.829.842h-8.549c-.466 0-.842-.377-.842-.842v-8.551c0-.467.375-.842.842-.842z" transform="matrix(.965926 -.258819 .258819 .965926 -57.408866 104.293194)"/><path d="m375.447 260.843c-.961 0-1.756.796-1.756 1.756v8.551c0 .959.794 1.755 1.756 1.755h8.549c.96 0 1.755-.795 1.755-1.755v-8.551c0-.96-.797-1.756-1.755-1.756zm0 .913h8.549c.467 0 .841.377.841.843v8.551c0 .465-.374.841-.841.841h-8.549c-.468 0-.844-.377-.844-.841v-8.551c0-.467.376-.843.844-.843z" transform="matrix(.965926 -.258819 .258819 .965926 -56.133372 107.372484)"/><path d="m387.771 257.541c-.958 0-1.756.795-1.756 1.755v8.551c0 .959.795 1.756 1.756 1.756h8.549c.96 0 1.756-.796 1.756-1.756v-8.551c0-.959-.795-1.755-1.756-1.755zm0 .913h8.549c.466 0 .843.376.843.842v8.551c0 .465-.377.842-.843.842h-8.549c-.467 0-.842-.377-.842-.842v-8.551c0-.466.376-.842.842-.842z" transform="matrix(.965926 -.258819 .258819 .965926 -54.858803 110.449782)"/><path d="m400.098 254.236c-.96 0-1.741.795-1.741 1.756v8.55c0 .96.781 1.756 1.741 1.756h8.549c.961 0 1.756-.795 1.756-1.756v-8.55c0-.96-.795-1.756-1.756-1.756zm0 .913h8.549c.468 0 .843.376.843.843v8.55c0 .466-.376.842-.843.842h-8.549c-.466 0-.828-.377-.828-.842v-8.55c0-.467.36-.843.828-.843z" transform="matrix(.965926 -.258819 .258819 .965926 -53.58315 113.529642)"/><path d="m412.42 250.935c-.959 0-1.742.795-1.742 1.755v8.551c0 .959.782 1.755 1.742 1.755h8.564c.96 0 1.741-.795 1.741-1.755v-8.551c0-.959-.781-1.755-1.741-1.755zm0 .913h8.564c.466 0 .827.376.827.842v8.551c0 .465-.361.842-.827.842h-8.564c-.467 0-.828-.377-.828-.842v-8.551c0-.467.361-.842.828-.842z" transform="matrix(.965926 -.258819 .258819 .965926 -52.30879 116.606115)"/><path d="m424.746 247.632c-.96 0-1.741.795-1.741 1.755v8.551c0 .959.781 1.755 1.741 1.755h8.564c.96 0 1.741-.795 1.741-1.755v-8.551c0-.959-.782-1.755-1.741-1.755zm0 .913h8.564c.467 0 .828.376.828.842v8.551c0 .465-.361.842-.828.842h-8.564c-.467 0-.828-.378-.828-.842v-8.551c0-.467.361-.842.828-.842z" transform="matrix(.965926 -.258819 .258819 .965926 -51.033897 119.683899)"/><path d="m437.087 244.329c-.959 0-1.756.795-1.756 1.755v8.551c0 .959.795 1.755 1.756 1.755h8.549c.961 0 1.741-.795 1.741-1.755v-8.551c0-.959-.781-1.755-1.741-1.755zm0 .913h8.549c.466 0 .828.376.828.842v8.551c0 .465-.362.842-.828.842h-8.549c-.466 0-.841-.377-.841-.842v-8.551c-.001-.466.375-.842.841-.842z" transform="matrix(.965926 -.258819 .258819 .965926 -49.759013 122.76155)"/><path d="m449.413 241.024c-.959 0-1.756.795-1.756 1.756v8.55c0 .96.796 1.756 1.756 1.756h8.55c.959 0 1.755-.795 1.755-1.756v-8.55c0-.96-.796-1.756-1.755-1.756zm0 .913h8.55c.465 0 .841.376.841.843v8.55c0 .466-.376.842-.841.842h-8.55c-.466 0-.842-.377-.842-.842v-8.55c0-.467.376-.843.842-.843z" transform="matrix(.965926 -.258819 .258819 .965926 -48.483514 125.84117)"/><path d="m461.734 237.72c-.959 0-1.74.796-1.74 1.756v8.551c0 .959.78 1.755 1.74 1.755h8.55c.961 0 1.756-.795 1.756-1.755v-8.551c0-.959-.796-1.756-1.756-1.756zm0 .913h8.55c.468 0 .842.377.842.843v8.551c0 .465-.376.841-.842.841h-8.55c-.466 0-.826-.377-.826-.841v-8.551c-.002-.467.36-.843.826-.843z" transform="matrix(.965926 -.258819 .258819 .965926 -47.20826 128.919712)"/><path d="m474.06 234.418c-.958 0-1.74.795-1.74 1.755v8.551c0 .959.78 1.756 1.74 1.756h8.551c.96 0 1.755-.796 1.755-1.756v-8.551c0-.959-.795-1.755-1.755-1.755zm0 .913h8.551c.465 0 .841.376.841.842v8.551c0 .465-.376.842-.841.842h-8.551c-.466 0-.827-.377-.827-.842v-8.551c0-.466.361-.842.827-.842z" transform="matrix(.965926 -.258819 .258819 .965926 -45.933638 131.997407)"/><path d="m554.279 193.922c-.96 0-1.755.781-1.755 1.74v8.565c0 .959.795 1.74 1.755 1.74h8.549c.959 0 1.756-.781 1.756-1.74v-8.565c0-.959-.795-1.74-1.756-1.74zm0 .913h8.549c.466 0 .843.362.843.827v8.565c0 .466-.377.827-.843.827h-8.549c-.468 0-.842-.361-.842-.827v-8.565c0-.466.376-.827.842-.827z" transform="matrix(.965926 -.258819 .258819 .965926 -32.717175 151.377264)"/><path d="m566.6 190.619c-.96 0-1.742.781-1.742 1.74v8.564c0 .96.782 1.74 1.742 1.74h8.55c.96 0 1.755-.78 1.755-1.74v-8.564c0-.959-.793-1.74-1.755-1.74zm0 .913h8.55c.468 0 .842.36.842.827v8.564c0 .467-.374.828-.842.828h-8.55c-.466 0-.828-.361-.828-.828v-8.564c0-.467.364-.827.828-.827z" transform="matrix(.965926 -.258819 .258819 .965926 -31.442115 154.455294)"/><path d="m578.927 187.316c-.959 0-1.741.78-1.741 1.74v8.564c0 .959.782 1.74 1.741 1.74h8.563c.959 0 1.744-.78 1.744-1.74v-8.564c0-.96-.784-1.74-1.744-1.74zm0 .912h8.563c.466 0 .828.362.828.828v8.564c0 .467-.362.827-.828.827h-8.563c-.466 0-.828-.36-.828-.827v-8.564c0-.467.362-.828.828-.828z" transform="matrix(.965926 -.258819 .258819 .965926 -30.167153 157.533605)"/><path d="m486.387 231.115c-.96 0-1.741.795-1.741 1.755v8.551c0 .959.78 1.756 1.741 1.756h8.564c.959 0 1.741-.796 1.741-1.756v-8.551c0-.959-.782-1.755-1.741-1.755zm0 .913h8.564c.467 0 .828.376.828.842v8.551c0 .465-.363.842-.828.842h-8.564c-.466 0-.828-.377-.828-.842v-8.551c0-.466.362-.842.828-.842z" transform="matrix(.965926 -.258819 .258819 .965926 -44.658746 135.074967)"/><path d="m498.714 227.812c-.96 0-1.742.795-1.742 1.755v8.551c0 .96.781 1.756 1.742 1.756h8.563c.961 0 1.742-.796 1.742-1.756v-8.551c0-.959-.781-1.755-1.742-1.755zm0 .913h8.563c.467 0 .829.376.829.842v8.551c0 .465-.362.842-.829.842h-8.563c-.467 0-.828-.377-.828-.842v-8.551c0-.466.361-.842.828-.842z" transform="matrix(.965926 -.258819 .258819 .965926 -43.383852 138.15275)"/><path d="m511.054 224.509c-.959 0-1.756.795-1.756 1.755v8.551c0 .96.795 1.756 1.756 1.756h8.549c.961 0 1.742-.796 1.742-1.756v-8.551c0-.959-.783-1.755-1.742-1.755zm0 .913h8.549c.468 0 .828.376.828.842v8.551c0 .465-.361.842-.828.842h-8.549c-.466 0-.843-.377-.843-.842v-8.551c0-.466.375-.842.843-.842z" transform="matrix(.965926 -.258819 .258819 .965926 -42.108978 141.230394)"/><path d="m523.375 221.206c-.959 0-1.755.795-1.755 1.755v8.551c0 .959.796 1.755 1.755 1.755h8.549c.961 0 1.757-.795 1.757-1.755v-8.551c0-.959-.796-1.755-1.757-1.755zm0 .913h8.549c.467 0 .843.376.843.842v8.551c0 .465-.377.842-.843.842h-8.549c-.466 0-.842-.377-.842-.842v-8.551c0-.467.375-.842.842-.842z" transform="matrix(.965926 -.258819 .258819 .965926 -40.833865 144.308827)"/><path d="m535.702 217.901c-.961 0-1.742.795-1.742 1.756v8.55c0 .96.781 1.756 1.742 1.756h8.55c.959 0 1.754-.795 1.754-1.756v-8.55c0-.96-.795-1.756-1.754-1.756zm0 .913h8.55c.465 0 .841.377.841.843v8.55c0 .465-.377.842-.841.842h-8.55c-.467 0-.828-.377-.828-.842v-8.55c0-.466.361-.843.828-.843z" transform="matrix(.965926 -.258819 .258819 .965926 -39.55838 147.38811)"/><path d="m375.984 286.776c-.96 0-1.756.782-1.756 1.741v8.549c0 .961.796 1.756 1.756 1.756h11.348c.959 0 1.755-.795 1.755-1.756v-.456-8.093c0-.959-.795-1.741-1.755-1.741zm0 .914h11.348c.467 0 .842.362.842.827v8.549c0 .468-.375.843-.842.843h-11.348c-.467 0-.842-.375-.842-.843v-8.549c0-.466.377-.827.842-.827z" transform="matrix(.965926 -.258819 .258819 .965926 -62.777271 108.757059)"/><path d="m391.059 283.109c-.959 0-1.74.781-1.74 1.742v8.548c0 .961.78 1.756 1.74 1.756h8.549c.961 0 1.757-.795 1.757-1.756v-8.548c0-.961-.795-1.742-1.757-1.742zm0 .914h8.549c.469 0 .844.361.844.828v8.548c0 .468-.375.843-.844.843h-8.549c-.466 0-.827-.376-.827-.843v-8.548c0-.469.361-.828.827-.828z" transform="matrix(.965926 -.258819 .258819 .965926 -61.361926 112.173979)"/><path d="m403.387 279.806c-.96 0-1.742.781-1.742 1.742v8.548c0 .961.781 1.756 1.742 1.756h8.564c.96 0 1.741-.795 1.741-1.756v-8.548c0-.96-.781-1.742-1.741-1.742zm0 .914h8.564c.466 0 .827.361.827.828v8.548c0 .468-.361.843-.827.843h-8.564c-.467 0-.828-.376-.828-.843v-8.548c0-.468.361-.828.828-.828z" transform="matrix(.965926 -.258818 .258818 .965926 -60.086921 115.25149)"/><path d="m415.709 276.504c-.96 0-1.741.781-1.741 1.742v8.549c0 .96.781 1.756 1.741 1.756h8.563c.961 0 1.743-.796 1.743-1.756v-8.549c0-.961-.782-1.742-1.743-1.742zm0 .914h8.563c.468 0 .828.361.828.828v8.549c0 .467-.36.842-.828.842h-8.563c-.467 0-.828-.376-.828-.842v-8.549c0-.468.361-.828.828-.828z" transform="matrix(.965926 -.258819 .258819 .965926 -58.812635 118.328709)"/><path d="m428.048 273.202c-.958 0-1.754.781-1.754 1.741v8.549c0 .96.796 1.756 1.754 1.756h8.551c.96 0 1.741-.795 1.741-1.756v-8.549c0-.959-.781-1.741-1.741-1.741zm0 .914h8.551c.467 0 .828.361.828.827v8.549c0 .468-.363.843-.828.843h-8.551c-.466 0-.841-.376-.841-.843v-8.549c0-.468.375-.827.841-.827z" transform="matrix(.965926 -.258819 .258819 .965926 -57.537873 121.406175)"/><path d="m440.375 269.897c-.96 0-1.756.781-1.756 1.742v8.549c0 .96.796 1.755 1.756 1.755h8.55c.96 0 1.755-.795 1.755-1.755v-8.549c0-.961-.794-1.742-1.755-1.742zm0 .914h8.55c.466 0 .842.361.842.828v8.549c0 .467-.376.842-.842.842h-8.55c-.467 0-.842-.376-.842-.842v-8.549c0-.468.375-.828.842-.828z" transform="matrix(.965926 -.258819 .258819 .965926 -56.262265 124.485434)"/><path d="m452.702 266.594c-.96 0-1.756.781-1.756 1.742v8.549c0 .96.796 1.756 1.756 1.756h8.549c.96 0 1.755-.796 1.755-1.756v-8.549c0-.961-.795-1.742-1.755-1.742zm0 .914h8.549c.467 0 .841.361.841.828v8.549c0 .467-.374.842-.841.842h-8.549c-.466 0-.843-.376-.843-.842v-8.549c0-.468.377-.828.843-.828z" transform="matrix(.965926 -.258819 .258819 .965926 -54.987502 127.563251)"/><path d="m465.024 263.29c-.96 0-1.741.781-1.741 1.742v8.549c0 .96.781 1.756 1.741 1.756h8.549c.959 0 1.756-.796 1.756-1.756v-8.549c0-.961-.797-1.742-1.756-1.742zm0 .914h8.549c.466 0 .843.361.843.828v8.549c0 .467-.377.843-.843.843h-8.549c-.466 0-.829-.377-.829-.843v-8.549c0-.468.362-.828.829-.828z" transform="matrix(.965926 -.258819 .258819 .965926 -53.712257 130.641984)"/><path d="m477.349 259.988c-.958 0-1.741.781-1.741 1.741v8.549c0 .96.781 1.756 1.741 1.756h8.565c.96 0 1.741-.795 1.741-1.756v-8.549c0-.959-.781-1.741-1.741-1.741zm0 .914h8.565c.468 0 .827.361.827.827v8.549c0 .468-.36.843-.827.843h-8.565c-.465 0-.827-.376-.827-.843v-8.549c0-.468.362-.827.827-.827z" transform="matrix(.965926 -.258819 .258819 .965926 -52.437521 133.719523)"/><path d="m489.676 256.685c-.96 0-1.741.781-1.741 1.741v8.549c0 .961.781 1.756 1.741 1.756h8.564c.96 0 1.74-.795 1.74-1.756v-8.549c0-.959-.78-1.741-1.74-1.741zm0 .914h8.564c.468 0 .828.361.828.827v8.549c0 .468-.362.843-.828.843h-8.564c-.466 0-.828-.376-.828-.843v-8.549c0-.468.362-.827.828-.827z" transform="matrix(.965926 -.258819 .258819 .965926 -51.162623 136.797096)"/><path d="m502.016 253.382c-.96 0-1.755.781-1.755 1.742v8.548c0 .961.795 1.757 1.755 1.757h8.55c.96-.001 1.741-.796 1.741-1.757v-8.548c0-.961-.781-1.742-1.741-1.742zm0 .914h8.55c.467 0 .828.361.828.828v8.548c0 .467-.363.843-.828.843h-8.55c-.466 0-.842-.376-.842-.843v-8.548c0-.468.376-.828.842-.828z" transform="matrix(.965926 -.258819 .258819 .965926 -49.887854 139.874896)"/><path d="m514.342 250.078c-.959 0-1.756.781-1.756 1.741v8.549c0 .96.797 1.756 1.756 1.756h8.549c.96 0 1.757-.795 1.757-1.756v-8.549c0-.959-.797-1.741-1.757-1.741zm0 .914h8.549c.468 0 .843.361.843.827v8.549c0 .468-.375.843-.843.843h-8.549c-.467 0-.841-.376-.841-.843v-8.549c0-.468.374-.827.841-.827z" transform="matrix(.965926 -.258819 .258819 .965926 -48.612358 142.95432)"/><path d="m526.665 246.774c-.96 0-1.742.781-1.742 1.741v8.549c0 .961.782 1.756 1.742 1.756h8.548c.961 0 1.757-.795 1.757-1.756v-8.549c0-.959-.796-1.741-1.757-1.741zm0 .914h8.548c.468 0 .844.361.844.827v8.549c0 .468-.376.843-.844.843h-8.548c-.467 0-.829-.376-.829-.843v-8.549c0-.468.361-.827.829-.827z" transform="matrix(.965926 -.258819 .258819 .965926 -47.337101 146.032828)"/><path d="m538.99 243.471c-.958 0-1.741.781-1.741 1.742v8.549c0 .96.782 1.756 1.741 1.756h8.564c.961 0 1.742-.796 1.742-1.756v-8.549c0-.959-.781-1.742-1.742-1.742zm0 .914h8.564c.467 0 .828.361.828.828v8.549c0 .467-.361.843-.828.843h-8.564c-.467 0-.828-.377-.828-.843v-8.549c0-.468.361-.828.828-.828z" transform="matrix(.965926 -.258819 .258819 .965926 -46.062354 149.110521)"/><path d="m381.937 297.96c-.961 0-1.756.796-1.756 1.756v8.549c0 .96.795 1.756 1.756 1.756h14.572c.959 0 1.755-.795 1.755-1.756v-8.549c0-.96-.795-1.756-1.755-1.756zm0 .913h14.572c.467 0 .843.377.843.843v8.549c0 .467-.376.843-.843.843h-14.572c-.468 0-.844-.376-.844-.843v-8.549c0-.466.377-.843.844-.843z" transform="matrix(.965926 -.258819 .258819 .965926 -65.416063 111.096365)"/><path d="m400.182 293.877c-.96 0-1.742.795-1.742 1.755v8.549c0 .96.782 1.756 1.742 1.756h8.564c.96 0 1.741-.795 1.741-1.756v-8.549c0-.96-.781-1.755-1.741-1.755zm0 .912h8.564c.466 0 .827.377.827.843v8.549c0 .467-.361.843-.827.843h-8.564c-.466 0-.828-.376-.828-.843v-8.549c0-.466.362-.843.828-.843z" transform="matrix(.965926 -.258819 .258819 .965926 -63.83986 114.901882)"/><path d="m412.506 290.574c-.96 0-1.741.795-1.741 1.756v8.549c0 .96.781 1.755 1.741 1.755h8.563c.961 0 1.743-.794 1.743-1.755v-8.549c0-.961-.782-1.756-1.743-1.756zm0 .913h8.563c.468 0 .828.377.828.843v8.549c0 .467-.36.843-.828.843h-8.563c-.467 0-.828-.376-.828-.843v-8.549c0-.466.362-.843.828-.843z" transform="matrix(.965926 -.258819 .258819 .965926 -62.565018 117.979278)"/><path d="m424.847 287.271c-.962 0-1.756.796-1.756 1.756v8.549c0 .96.794 1.755 1.756 1.755h8.549c.96 0 1.741-.794 1.741-1.755v-8.549c0-.961-.781-1.756-1.741-1.756zm0 .913h8.549c.466 0 .828.376.828.843v8.549c0 .467-.361.843-.828.843h-8.549c-.468 0-.843-.376-.843-.843v-8.549c0-.467.375-.843.843-.843z" transform="matrix(.965926 -.258819 .258819 .965926 -61.290186 121.056885)"/><path d="m437.172 283.967c-.96 0-1.755.796-1.755 1.756v8.549c0 .959.795 1.755 1.755 1.755h8.55c.961 0 1.756-.795 1.756-1.755v-8.549c0-.961-.794-1.756-1.756-1.756zm0 .913h8.55c.467 0 .842.376.842.843v8.549c0 .466-.375.843-.842.843h-8.55c-.465 0-.841-.377-.841-.843v-8.549c-.001-.467.375-.843.841-.843z" transform="matrix(.965926 -.258819 .258819 .965926 -60.014771 124.13637)"/><path d="m449.499 280.664c-.961 0-1.755.796-1.755 1.756v8.549c0 .959.794 1.755 1.755 1.755h8.55c.959 0 1.755-.795 1.755-1.755v-8.549c0-.961-.796-1.756-1.755-1.756zm0 .912h8.55c.467 0 .842.377.842.844v8.549c0 .466-.375.842-.842.842h-8.55c-.467 0-.842-.376-.842-.842v-8.549c0-.467.375-.844.842-.844z" transform="matrix(.965926 -.258819 .258819 .965926 -58.739896 127.214228)"/><path d="m461.821 277.361c-.96 0-1.742.795-1.742 1.755v8.549c0 .96.781 1.756 1.742 1.756h8.55c.959 0 1.755-.795 1.755-1.756v-8.549c0-.959-.795-1.755-1.755-1.755zm0 .912h8.55c.465 0 .843.377.843.843v8.549c0 .467-.378.843-.843.843h-8.55c-.468 0-.828-.376-.828-.843v-8.549c0-.466.361-.843.828-.843z" transform="matrix(.965926 -.258819 .258819 .965926 -57.464908 130.292456)"/><path d="m474.146 274.058c-.958 0-1.74.795-1.74 1.756v8.548c0 .961.781 1.756 1.74 1.756h8.565c.96 0 1.74-.795 1.74-1.756v-8.548c0-.96-.78-1.756-1.74-1.756zm0 .912h8.565c.467 0 .827.377.827.844v8.548c0 .467-.36.843-.827.843h-8.565c-.465 0-.827-.376-.827-.843v-8.548c0-.467.362-.844.827-.844z" transform="matrix(.965926 -.258819 .258819 .965926 -56.190017 133.370015)"/><path d="m486.487 270.755c-.959 0-1.756.795-1.756 1.756v8.549c0 .96.795 1.755 1.756 1.755h8.549c.961 0 1.742-.795 1.742-1.755v-8.549c0-.96-.781-1.756-1.742-1.756zm0 .913h8.549c.467 0 .828.376.828.843v8.549c0 .466-.361.843-.828.843h-8.549c-.466 0-.841-.377-.841-.843v-8.549c0-.467.375-.843.841-.843z" transform="matrix(.965926 -.258819 .258819 .965926 -54.915179 136.447847)"/><path d="m498.813 267.452c-.96 0-1.754.795-1.754 1.755v8.549c0 .961.794 1.756 1.754 1.756h8.551c.959 0 1.741-.795 1.741-1.756v-8.549c0-.959-.781-1.755-1.741-1.755zm0 .912h8.551c.465 0 .827.377.827.843v8.549c0 .467-.362.843-.827.843h-8.551c-.466 0-.842-.376-.842-.843v-8.549c0-.466.376-.843.842-.843z" transform="matrix(.965926 -.258819 .258819 .965926 -53.640272 139.525986)"/><path d="m511.136 264.149c-.959 0-1.757.795-1.757 1.756v8.549c0 .959.798 1.755 1.757 1.755h8.549c.96 0 1.756-.795 1.756-1.755v-.456-8.094c0-.96-.796-1.756-1.756-1.756h-8.549zm0 .912h8.549c.466 0 .842.377.842.844v8.549c0 .466-.376.842-.842.842h-8.549c-.467 0-.843-.376-.843-.842v-8.549c0-.467.377-.844.843-.844z" transform="matrix(.965926 -.258819 .258819 .965926 -52.36516 142.603961)"/><path d="m523.462 260.844c-.96 0-1.742.795-1.742 1.756v8.549c0 .96.782 1.755 1.742 1.755h8.55c.958 0 1.755-.795 1.755-1.755v-8.549c0-.96-.795-1.756-1.755-1.756zm0 .913h8.55c.466 0 .842.376.842.843v8.549c0 .466-.376.843-.842.843h-8.55c-.468 0-.829-.377-.829-.843v-8.549c0-.467.363-.843.829-.843z" transform="matrix(.965926 -.258819 .258819 .965926 -51.089633 145.683507)"/><path d="m535.671 256.649c-.96 0-1.741.795-1.741 1.756v8.549c0 .96.781 1.755 1.741 1.755h15.444c.959 0 1.754-.794 1.754-1.755v-8.549c0-.96-.793-1.756-1.754-1.756zm0 .913h15.444c.465 0 .841.376.841.843v8.549c0 .467-.376.843-.841.843h-15.444c-.467 0-.829-.376-.829-.843v-8.549c0-.467.363-.843.829-.843z" transform="matrix(.965926 -.258819 .258819 .965926 -49.470467 149.592836)"/><path d="m403.501 306.215c-.961 0-1.756.781-1.756 1.741v8.563c0 .961.795 1.743 1.756 1.743h8.549c.96 0 1.756-.782 1.756-1.743v-.456-8.107c0-.959-.796-1.741-1.756-1.741zm0 .913h8.549c.466 0 .842.362.842.828v8.563c0 .468-.376.829-.842.829h-8.549c-.467 0-.842-.362-.842-.829v-8.563c0-.466.375-.828.842-.828z" transform="matrix(.965926 -.258819 .258819 .965926 -66.918631 116.17928)"/><path d="m415.824 302.912c-.959 0-1.756.781-1.756 1.742v8.563c0 .961.797 1.743 1.756 1.743h8.55c.96 0 1.756-.782 1.756-1.743v-8.563c0-.961-.796-1.742-1.756-1.742zm0 .914h8.55c.467 0 .841.362.841.828v8.563c0 .468-.375.829-.841.829h-8.55c-.466 0-.842-.362-.842-.829v-8.563c0-.466.376-.828.842-.828z" transform="matrix(.965926 -.258819 .258819 .965926 -65.643965 119.256297)"/><path d="m426.6 287.827c-.961 0-1.742.781-1.742 1.742v8.563c0 .961.781 1.742 1.742 1.742h99.582c.96 0 1.756-.781 1.756-1.742v-8.563c0-.96-.795-1.742-1.756-1.742zm0 .914h99.582c.466 0 .842.362.842.828v8.563c0 .468-.376.828-.842.828h-99.582c-.466 0-.828-.361-.828-.828v-8.563c0-.466.362-.828.828-.828z" transform="matrix(.965926 -.258819 .258819 .965926 -59.821213 133.31352)"/><path d="m369.073 275.344c-.96 0-1.756.781-1.756 1.742v8.564c0 .96.796 1.741 1.756 1.741h11.774c.798 0 1.448-.551 1.656-1.284h.1v-.456-8.564c0-.961-.795-1.742-1.756-1.742h-11.774zm0 .914h11.774c.468 0 .843.362.843.828v8.107.457c0 .466-.375.827-.843.827h-11.774c-.466 0-.842-.362-.842-.827v-8.565c0-.466.376-.827.842-.827z" transform="matrix(.965926 -.258819 .258819 .965926 -60.046821 106.634168)"/><path d="m384.569 271.624c-.961 0-1.755.781-1.755 1.742v8.564c0 .96.794 1.741 1.755 1.741h8.55c.959 0 1.755-.781 1.755-1.741v-8.564c0-.96-.794-1.742-1.755-1.742zm0 .913h8.55c.466 0 .842.363.842.829v8.564c0 .466-.376.828-.842.828h-8.55c-.468 0-.842-.362-.842-.828v-8.564c0-.467.375-.829.842-.829z" transform="matrix(.965926 -.258819 .258819 .965926 -58.610925 110.100854)"/><path d="m396.895 268.319c-.96 0-1.741.781-1.741 1.742v8.564c0 .96.781 1.741 1.741 1.741h8.549c.96 0 1.756-.781 1.756-1.741v-8.564c0-.96-.795-1.742-1.756-1.742zm0 .914h8.549c.467 0 .842.362.842.828v8.564c0 .466-.375.828-.842.828h-8.549c-.467 0-.828-.362-.828-.828v-8.564c0-.467.362-.828.828-.828z" transform="matrix(.965926 -.258819 .258819 .965926 -57.335271 113.180188)"/><path d="m409.217 265.017c-.96 0-1.741.782-1.741 1.743v8.563c0 .96.781 1.742 1.741 1.742h8.564c.96 0 1.741-.781 1.741-1.742v-8.563c0-.961-.781-1.743-1.741-1.743zm0 .914h8.564c.467 0 .828.362.828.829v8.563c0 .467-.361.829-.828.829h-8.564c-.466 0-.827-.362-.827-.829v-8.563c0-.467.361-.829.827-.829z" transform="matrix(.965926 -.258819 .258819 .965926 -56.060918 116.25686)"/><path d="m421.543 261.715c-.96 0-1.741.781-1.741 1.742v8.563c0 .961.78 1.742 1.741 1.742h8.565c.96 0 1.741-.781 1.741-1.742v-8.563c0-.961-.781-1.742-1.741-1.742zm0 .913h8.565c.467 0 .827.362.827.829v8.563c0 .467-.361.829-.827.829h-8.565c-.466 0-.827-.362-.827-.829v-8.563c0-.467.361-.829.827-.829z" transform="matrix(.965926 -.258819 .258819 .965926 -54.786173 119.334737)"/><path d="m433.884 258.412c-.96 0-1.755.781-1.755 1.742v8.563c0 .961.794 1.742 1.755 1.742h8.549c.961 0 1.742-.781 1.742-1.742v-8.563c0-.961-.781-1.742-1.742-1.742zm0 .913h8.549c.467 0 .828.363.828.829v8.563c0 .467-.361.829-.828.829h-8.549c-.467 0-.842-.362-.842-.829v-8.563c0-.467.375-.829.842-.829z" transform="matrix(.965926 -.258819 .258819 .965926 -53.51128 122.412514)"/><path d="m446.21 255.107c-.96 0-1.756.782-1.756 1.743v8.563c0 .961.796 1.741 1.756 1.741h8.55c.959 0 1.756-.78 1.756-1.741v-8.563c0-.961-.796-1.743-1.756-1.743zm0 .914h8.55c.466 0 .842.362.842.829v8.563c0 .467-.376.828-.842.828h-8.55c-.467 0-.843-.361-.843-.828v-8.563c0-.467.377-.829.843-.829z" transform="matrix(.965926 -.258819 .258819 .965926 -52.235622 125.491841)"/><path d="m458.536 251.802c-.959 0-1.741.782-1.741 1.743v8.563c0 .961.782 1.742 1.741 1.742h8.55c.96 0 1.755-.781 1.755-1.742v-8.563c0-.961-.794-1.743-1.755-1.743zm0 .914h8.55c.466 0 .841.362.841.829v8.563c0 .467-.375.828-.841.828h-8.55c-.466 0-.827-.362-.827-.828v-8.563c-.001-.467.361-.829.827-.829z" transform="matrix(.965926 -.258819 .258819 .965926 -50.960121 128.571248)"/><path d="m470.858 248.501c-.96 0-1.742.781-1.742 1.742v8.564c0 .96.782 1.741 1.742 1.741h8.55c.96 0 1.755-.781 1.755-1.741v-8.564c0-.96-.794-1.742-1.755-1.742zm0 .913h8.55c.466 0 .842.362.842.829v8.564c0 .466-.376.828-.842.828h-8.55c-.467 0-.828-.362-.828-.828v-8.564c0-.467.362-.829.828-.829z" transform="matrix(.965926 -.258819 .258819 .965926 -49.685804 131.64788)"/><path d="m483.185 245.198c-.961 0-1.743.781-1.743 1.742v8.564c0 .96.782 1.741 1.743 1.741h8.564c.959 0 1.741-.781 1.741-1.741v-8.564c0-.96-.782-1.742-1.741-1.742zm0 .913h8.564c.466 0 .827.362.827.829v8.564c0 .466-.362.828-.827.828h-8.564c-.466 0-.828-.363-.828-.828v-8.564c0-.467.362-.829.828-.829z" transform="matrix(.965926 -.258819 .258819 .965926 -48.41091 134.725665)"/><path d="m495.511 241.895c-.96 0-1.741.781-1.741 1.742v8.564c0 .96.781 1.741 1.741 1.741h8.565c.959 0 1.741-.781 1.741-1.741v-8.564c0-.96-.782-1.742-1.741-1.742zm0 .914h8.565c.466 0 .827.361.827.828v8.564c0 .466-.361.828-.827.828h-8.565c-.467 0-.828-.362-.828-.828v-8.564c0-.467.361-.828.828-.828z" transform="matrix(.965926 -.258819 .258819 .965926 -47.135963 137.803626)"/><path d="m507.852 238.593c-.96 0-1.757.781-1.757 1.742v8.563c0 .961.794 1.742 1.757 1.742h8.549c.959 0 1.742-.781 1.742-1.742v-8.563c0-.961-.782-1.742-1.742-1.742zm0 .913h8.549c.467 0 .827.362.827.829v8.563c0 .467-.361.829-.827.829h-8.549c-.468 0-.842-.363-.842-.829v-8.563c0-.467.375-.829.842-.829z" transform="matrix(.965926 -.258819 .258819 .965926 -45.861359 140.881195)"/><path d="m520.173 235.289c-.959 0-1.754.781-1.754 1.742v8.563c0 .961.794 1.742 1.754 1.742h8.551c.959 0 1.755-.781 1.755-1.742v-8.563c0-.961-.796-1.742-1.755-1.742zm0 .913h8.551c.466 0 .841.362.841.829v8.563c0 .467-.377.829-.841.829h-8.551c-.467 0-.842-.362-.842-.829v-8.563c-.002-.467.376-.829.842-.829z" transform="matrix(.965926 -.258819 .258819 .965926 -44.586093 143.959829)"/><path d="m532.386 231.122c-.96 0-1.742.781-1.742 1.742v8.563c0 .961.781 1.742 1.742 1.742h15.229c.96 0 1.741-.781 1.741-1.742v-8.563c0-.961-.78-1.742-1.741-1.742zm0 .913h15.229c.467 0 .828.362.828.829v8.563c0 .467-.362.829-.828.829h-15.229c-.467 0-.829-.362-.829-.829v-8.563c0-.467.362-.829.829-.829z" transform="matrix(.965926 -.258819 .258819 .965926 -42.977709 147.842754)"/><path d="m369.229 242.385c-.959 0-1.741.781-1.741 1.742v8.563c0 .961.782 1.741 1.741 1.741h13.732c.958 0 1.74-.78 1.74-1.741v-8.563c0-.961-.781-1.742-1.74-1.742zm0 .915h13.732c.465 0 .827.36.827.827v8.564c0 .467-.362.829-.827.829h-13.732c-.467 0-.828-.362-.828-.829v-8.564c0-.467.362-.827.828-.827z" transform="matrix(.965926 -.258819 .258819 .965926 -51.477611 105.804727)"/><path d="m387.386 237.522c-.96 0-1.754.78-1.754 1.741v8.563c0 .961.794 1.742 1.754 1.742h13.717c.96 0 1.756-.781 1.756-1.742v-8.563c0-.961-.796-1.741-1.756-1.741zm0 .914h13.717c.466 0 .841.361.841.827v8.564c0 .467-.375.829-.841.829h-13.717c-.466 0-.842-.362-.842-.829v-8.564c0-.466.376-.827.842-.827z" transform="matrix(.965926 -.258819 .258819 .965926 -49.600498 110.33685)"/><path d="m405.531 232.658c-.96 0-1.74.781-1.74 1.742v8.563c0 .96.78 1.741 1.74 1.741h13.73c.961 0 1.742-.78 1.742-1.741v-8.563c0-.961-.781-1.742-1.742-1.742zm0 .915h13.73c.467 0 .828.36.828.827v8.564c0 .467-.362.829-.828.829h-13.73c-.467 0-.827-.362-.827-.829v-8.564c0-.468.361-.827.827-.827z" transform="matrix(.965926 -.258819 .258819 .965926 -47.723085 114.868989)"/><path d="m423.686 227.795c-.961 0-1.756.782-1.756 1.742v8.563c0 .961.795 1.742 1.756 1.742h13.715c.961 0 1.757-.781 1.757-1.742v-.456-8.107c0-.961-.796-1.742-1.757-1.742zm0 .915h13.715c.467 0 .843.36.843.827v8.564c0 .467-.376.829-.843.829h-13.715c-.467 0-.842-.362-.842-.829v-8.564c0-.467.376-.827.842-.827z" transform="matrix(.965926 -.258819 .258819 .965926 -45.846232 119.400103)"/><path d="m441.832 222.932c-.961 0-1.743.78-1.743 1.741v8.563c0 .961.782 1.742 1.743 1.742h13.73c.959 0 1.741-.781 1.741-1.742v-8.563c0-.96-.781-1.741-1.741-1.741zm0 .914h13.73c.466 0 .828.36.828.827v8.564c0 .467-.362.829-.828.829h-13.73c-.467 0-.828-.362-.828-.829v-8.564c-.002-.467.361-.827.828-.827z" transform="matrix(.965926 -.258819 .258819 .965926 -43.968956 123.932455)"/><path d="m506.147 205.702c-.96 0-1.756.781-1.756 1.742v8.563c0 .961.796 1.741 1.756 1.741h13.715c.961 0 1.742-.78 1.742-1.741v-8.563c0-.961-.781-1.742-1.742-1.742zm0 .915h13.715c.468 0 .828.36.828.827v8.564c0 .466-.36.829-.828.829h-13.715c-.466 0-.843-.363-.843-.829v-8.564c0-.467.377-.827.843-.827z" transform="matrix(.965926 -.258819 .258819 .965926 -37.318494 139.9878)"/><path d="m524.287 200.838c-.959 0-1.741.78-1.741 1.741v8.563c0 .961.782 1.742 1.741 1.742h13.73c.96 0 1.742-.781 1.742-1.742v-8.563c0-.959-.781-1.741-1.742-1.741zm0 .914h13.73c.466 0 .828.36.828.827v8.564c0 .467-.362.829-.828.829h-13.73c-.466 0-.828-.362-.828-.829v-8.564c0-.467.362-.827.828-.827z" transform="matrix(.965926 -.258819 .258819 .965926 -35.440994 144.521107)"/><path d="m581.952 216.88c-1.937 0-3.877.739-5.353 2.21l-13.19 13.191c-2.948 2.947-2.948 7.742 0 10.691l12.988 12.974c2.948 2.949 7.743 2.947 10.69 0l13.189-13.189c2.944-2.943 2.948-7.726.014-10.676l-.014-.014-12.988-12.974c-1.475-1.475-3.404-2.212-5.34-2.212zm0 .9c1.7 0 3.398.655 4.695 1.954l12.99 12.989c2.599 2.598 2.599 6.792 0 9.392l-13.189 13.187c-2.599 2.599-6.793 2.6-9.391 0l-12.988-12.988c-2.6-2.599-2.598-6.794 0-9.391l13.187-13.189c1.3-1.299 2.995-1.954 4.696-1.954z" transform="matrix(.965926 -.258819 .258819 .965926 -41.648491 158.685132)"/><path d="m486.657 185.882c-3.104 0-6.207 1.187-8.569 3.551l-12.202 12.201-.16.16-.454.427.026.027-.16.133-12.201 12.201c-4.728 4.729-4.728 12.413 0 17.142l12.201 12.201.16.134-.026.026.454.427.16.16 12.202 12.201c4.727 4.729 12.413 4.729 17.141 0l12.199-12.201.16-.16.428-.427.16-.16 12.202-12.201c4.728-4.728 4.728-12.412 0-17.14l-12.202-12.202-.16-.16-.428-.427-.16-.161-12.199-12.199c-2.364-2.364-5.467-3.551-8.571-3.551v-.002zm0 1.709c2.664 0 5.332 1.007 7.369 3.044l11.586 11.585-18.957 18.958-18.955-18.958 11.586-11.585c2.038-2.037 4.705-3.044 7.369-3.044zm-20.931 16.607 18.957 18.956-18.957 18.957-11.588-11.587c-4.073-4.075-4.073-10.662 0-14.738l11.586-11.594zm41.864 0 11.586 11.587c4.075 4.074 4.075 10.662 0 14.738l-11.584 11.593-18.96-18.959 18.96-18.957zm-20.933 20.906 18.957 18.983-11.588 11.586c-4.073 4.077-10.662 4.077-14.738 0l-11.594-11.61 18.96-18.959z" transform="matrix(.51637 -.138361 .138361 .51637 299.679657 189.619553)"/><path d="m563.125 215.749c-1.673 0-3.04 1.368-3.04 3.04v37.454c0 1.672 1.367 3.04 3.04 3.04h37.453c1.674 0 3.04-1.368 3.04-3.04v-37.454c0-1.672-1.366-3.04-3.04-3.04zm0 .913h37.453c1.179 0 2.127.947 2.127 2.127v37.453c0 1.179-.947 2.127-2.127 2.127h-37.453c-1.178 0-2.127-.948-2.127-2.127v-37.453c0-1.18.949-2.127 2.127-2.127z" transform="matrix(.965926 -.258819 .258819 .965926 -41.64754 158.687326)"/><path d="m359.236 249.249c-.486 0-.885.402-.885.886v3.725c0 .484.4.899.885.899h4.881c.485 0 .885-.415.885-.899v-3.725c0-.484-.4-.886-.885-.886zm.028.915h4.824v3.682h-4.824z" transform="matrix(.965926 -.258819 .258819 .965926 -52.899612 102.195608)"/><path d="m366.005 294.572c-.484 0-.885.415-.885.899v1.428c0 .484.401.885.885.885h4.168c.484 0 .885-.4.885-.885v-1.428c0-.484-.401-.899-.885-.899z" transform="matrix(.965926 -.258819 .258819 .965926 -64.114178 105.360472)"/><path d="m553.795 244.256c-.484 0-.887.416-.887.9v1.427c0 .484.403.885.887.885h4.153c.483 0 .885-.399.885-.885v-1.427c0-.484-.4-.9-.885-.9z" transform="matrix(.965926 -.258819 .258819 .965926 -44.692927 152.247335)"/><path d="m342.013 239.405v2.397h.915v-2.397z" transform="matrix(.965926 -.258819 .258819 .965926 -50.603374 96.836269)"/><path d="m596.123 171.171v2.511h.912v-2.511z" transform="matrix(.965926 -.258819 .258819 .965926 -24.299327 160.281219)"/><path d="m497.84 161.435c-.484 0-.885.414-.885.898v7.579c0 .485.401.886.885.886h.272c.484 0 .884-.402.884-.886v-7.579c0-.484-.4-.898-.884-.898zm.03.912h.213v7.537h-.213z" transform="matrix(.965926 -.258819 .258819 .965926 -26.026005 134.545754)"/><path d="m551.994 146.924c-.484 0-.885.415-.885.898v7.58c0 .484.401.885.885.885h.272c.484 0 .884-.401.884-.885v-7.58c0-.483-.4-.898-.884-.898zm.029.913h.213v7.536h-.213z" transform="matrix(.965926 -.258819 .258819 .965926 -20.425031 148.067397)"/></g></svg>