<svg xmlns="http://www.w3.org/2000/svg"><path d="m0 204.888 52.05-204.888h48.267l25.08 89.433 26.025-89.433h45.426l42.585 150.945 103.905-.195c10.905-.108 11.577-22.662-.807-22.656l-60.513-.807c-25.983.249-53.385-27.861-52.05-65.301.279-34.341 30.222-61.383 68.532-61.374l154.338-.138 39.276 53.469 38.328-53.943 63.879.474-70.029 98.424 75.708 106.719-63.546-.198-44.064-61.233-41.919 61.233-64.824-.057 73.818-105.519-32.178-46.845-134.166.195c-14.64.135-14.103 23.169.117 22.737l56.526.867c23.892.153 57.54 24.981 56.703 63.741.363 45.06-40.221 65.646-59.76 64.548l-147.966.195-24.606-92.187-24.606 91.992h-46.71l-25.689-91.521-22.575 91.659z" fill="#fff"/></svg>