<svg xmlns="http://www.w3.org/2000/svg"><g fill="#fff"><path d="m434.546 87.273c-5.021 0-9.091 4.07-9.091 9.092 0 5.02 4.07 9.091 9.091 9.091 5.019 0 9.091-4.071 9.091-9.091 0-5.022-4.07-9.092-9.091-9.092zm-316.364 0c-5.02 0-9.091 4.07-9.091 9.092 0 5.02 4.071 9.091 9.091 9.091 5.021 0 9.092-4.071 9.092-9.091 0-5.022-4.071-9.092-9.092-9.092zm52.728 9.092c0 5.02 4.07 9.091 9.091 9.091 5.02 0 9.091-4.071 9.091-9.091 0-5.021-4.071-9.092-9.091-9.092-5.021 0-9.091 4.07-9.091 9.092zm92.727-9.092c-5.02 0-9.091 4.07-9.091 9.092 0 5.02 4.071 9.091 9.091 9.091 5.021 0 9.091-4.071 9.091-9.091 0-5.022-4.071-9.092-9.091-9.092zm318.99-87.273h-565.253c-9.595 0-17.374 7.778-17.374 17.374v136.162c0 9.594 7.779 17.374 17.374 17.374h565.252c9.595 0 17.374-7.778 17.374-17.374v-136.162c.001-9.596-7.778-17.374-17.373-17.374zm-506.263 116.365-10.91-18.182v18.182h-21.818v-69.093h32.727c10.909 0 21.819 7.273 21.819 21.819 0 14.545-10.91 18.182-14.546 18.182l18.182 29.092zm36.364 0c-7.272 0-14.545-7.274-14.545-18.182 0-12.394 10.908-14.547 14.545-14.5 1.326.018 6.196-.047 7.273-.047 7.273 0 3.637-7.273 0-7.273-3.636 0-14.545 0-14.545 0v-14.545h29.091c7.273 0 10 7.273 10 14.545 0 7.273.909 40 .909 40h-32.728zm94.545 0s-14.545 0-29.091 0c-21.818 0-25.454-18.182-25.454-29.092 0-6.689 3.636-25.455 25.454-25.455h7.273v-14.546h21.819v69.093zm25.455 0h-18.182v-54.547h18.182zm30.909 0c-15.062 0-27.273-12.21-27.273-27.273 0-15.062 12.21-27.274 27.273-27.274s27.273 12.21 27.273 27.274c0 15.061-12.21 27.273-27.273 27.273zm92.727-47.274c-7.272 0-10.909 3.636-10.909 10.909v14.545c0 14.546-3.636 21.82-32.727 21.82 0-14.547 0-21.82 0-21.82 7.273 0 14.545 0 14.545-10.909s0-10.909 0-18.182 3.637-18.182 29.091-18.182zm54.545 47.274h-21.817v-32.729c0-3.636-7.274-3.636-7.274 0v32.729h-18.182v-69.093h18.182v18.182c7.274-7.273 29.091-3.636 29.091 10.909zm18.182 0c-7.273 0-14.545-7.274-14.545-18.182 0-12.394 10.909-14.547 14.545-14.5 1.325.018 6.197-.047 7.274-.047 7.273 0 3.636-7.273 0-7.273-3.637 0-14.547 0-14.547 0v-14.545h29.091c7.273 0 10 7.273 10 14.545 0 7.273.909 40 .909 40h-32.727zm90.751-24.317-19.121-.018c-1.54-2.833-4.542-4.757-7.993-4.757-5.02 0-9.091 4.069-9.091 9.091 0 5.021 4.07 9.091 9.091 9.091 3.503 0 6.543-1.982 8.061-4.885l16.685-.002c-4.332 9.329-13.785 15.796-24.746 15.796-15.063 0-27.273-12.21-27.273-27.272s12.21-27.274 27.273-27.274c15.062 0 27.272 12.21 27.272 27.274.001.998-.053 1.985-.158 2.956zm29.25 24.317-7.273-21.82h-3.637v21.82h-14.545v-69.093h14.545v29.092h3.637l7.273-10.909h18.182l-10.91 18.182 14.546 32.728zm-481.819-43.638c-5.021 0-9.091 4.071-9.091 9.091 0 5.021 4.07 9.091 9.091 9.091s9.091-4.07 9.091-9.091c0-5.02-4.07-9.091-9.091-9.091z"/><path d="m130.842 190h53.267v10.654h-21.306v37.287h-10.654v-37.287h-21.307z"/><path d="m207.945 219.297v18.643h-10.653v-47.94h37.286c10.655 0 15.982 4.865 15.982 14.595 0 4.617-.764 8.008-2.291 10.174 1.527 2.522 2.291 5.806 2.291 9.855v13.316h-10.653v-13.316c0-3.552-1.776-5.327-5.329-5.327zm0-10.654h31.96v-7.99h-31.96z"/><path d="m328.976 219.297v-7.99h18.403v7.99z"/><path d="m412.296 200.654h-42.295v7.99h26.636c10.653 0 15.98 4.883 15.98 14.649s-5.327 14.648-15.98 14.648h-21.307c-9.02 0-14.222-3.551-15.607-10.654h42.239v-7.99h-26.633c-10.654 0-15.982-4.811-15.982-14.435 0-9.908 5.328-14.861 15.982-14.861h21.307c9.09-.001 14.311 3.551 15.66 10.653zm-52.573 26.633c-.25-1.278-.373-2.68-.373-4.208 0-3.764.815-6.8 2.449-9.109 2.557 3.552 7.066 5.327 13.531 5.327h-5.328v7.99zm50.389-13.317c1.669-2.343 2.504-5.45 2.504-9.321 0-1.42-.106-2.752-.32-3.995h-10.334v7.99h-5.328c6.429-.001 10.921 1.775 13.478 5.326z"/><path d="m421.217 221.961v-15.98c0-10.654 5.326-15.981 15.979-15.981h15.982c10.654 0 15.98 5.327 15.98 15.981v15.98c0 10.653-5.326 15.98-15.98 15.98h-15.982c-10.653-.001-15.979-5.327-15.979-15.98zm31.961 5.326c3.548 0 5.325-1.775 5.325-5.326v-15.98c0-3.552-1.776-5.327-5.325-5.327h-15.982c-3.552 0-5.327 1.775-5.327 5.327v15.98c0 3.551 1.775 5.326 5.327 5.326z"/><path d="m261.829 222.026h13.755c0 3.438 1.935 5.803 4.62 5.803h24.771c1.934 0 2.578-1.397 2.578-3.332 0-1.933.859-6.124-3.008-6.124-3.869 0-26.491 0-30.251 0s-12.572-3.116-12.572-13.646c0-10.531 6.876-14.399 11.713-14.399h36.533c4.406 0 8.487 2.041 8.487 13.324-3.224 0-12.999 0-12.999 0 0-2.471-1.291-4.216-5.803-4.216s-16.174 0-19.397 0c-3.224 0-4.405.241-4.405 5.291s2.901 4.645 5.048 4.645h30.68c5.265 0 10.209 5.347 10.209 13.621s-3.976 15.314-12.465 15.314c-8.488 0-32.126 0-36.427 0-4.296.001-11.067-2.097-11.067-16.281z"/></g></svg>