<svg xmlns="http://www.w3.org/2000/svg"><g fill="#1e1e1e"><path d="m228.854 126.51c-26.534 0-48.054 21.519-48.054 48.054 0 26.534 21.519 48.054 48.054 48.054 26.534 0 48.055-21.518 48.055-48.054-.004-26.533-21.521-48.054-48.055-48.054zm0 .932c26.031 0 47.123 21.09 47.123 47.122 0 26.03-21.09 47.122-47.123 47.122-26.03 0-47.122-21.092-47.122-47.122s21.092-47.122 47.122-47.122z" transform="matrix(.965926 -.258819 .258819 .965926 -37.382435 65.179965)"/><path d="m215.33 112.259c-7.821 0-14.898 2.058-20.525 5.08-1.02.549-1.659 1.823-2.228 3.436-.568 1.614-1.019 3.601-1.382 5.604-.727 4.006-1.139 8.165-1.397 9.361l.916.204c.306-1.416.68-5.451 1.397-9.405.359-1.977.8-3.913 1.339-5.444.54-1.531 1.222-2.628 1.806-2.941 5.494-2.951 12.417-4.964 20.073-4.964 7.714 0 14.831 1.809 20.176 5.022.889.535 1.662 1.792 2.242 3.45.58 1.659.974 3.696 1.251 5.692.278 1.996.437 3.954.539 5.503.051.774.083 1.443.116 1.965.034.521.054.864.102 1.106l.918-.188c-.017-.084-.055-.461-.088-.976s-.065-1.186-.116-1.965c-.104-1.558-.272-3.544-.553-5.576-.283-2.03-.682-4.111-1.296-5.866s-1.417-3.213-2.635-3.945c-5.525-3.321-12.796-5.152-20.655-5.152z" transform="matrix(.965926 -.258819 .258819 .965926 -24.785859 59.93569)"/><path d="m389.586 83.443c-26.534 0-48.055 21.518-48.055 48.053 0 26.534 21.52 48.054 48.055 48.054 26.534 0 48.054-21.518 48.054-48.054-.005-26.533-21.521-48.053-48.054-48.053zm0 .931c26.03 0 47.122 21.09 47.122 47.122 0 26.03-21.09 47.122-47.122 47.122-26.031 0-47.122-21.09-47.122-47.122 0-26.03 21.09-47.122 47.122-47.122z" transform="matrix(.965926 -.258819 .258819 .965926 -20.758991 105.312751)"/><path d="m191.81 145.501c-.521 8.033-1.78 28.632-2.911 47.803-.566 9.586-1.108 18.819-1.499 25.942-.392 7.127-.641 12.107-.641 13.336 0 17.221 13.975 31.196 31.195 31.196 5.873 0 10.142-1.631 13.553-4.47 3.411-2.838 5.966-6.851 8.53-11.631 4.857-9.051 10.483-19.917 15.416-29.259s9.197-17.198 11.238-20.132c2.064-2.968 3.886-4.713 6.114-5.779 2.227-1.067 4.899-1.457 8.661-1.588 7.537-.259 25.423 0 31.443 0h20.278c6.019 0 23.907-.259 31.443.001 3.762.13 6.434.52 8.662 1.587 2.227 1.067 4.064 2.812 6.128 5.779 2.041 2.934 6.289 10.79 11.223 20.132 4.934 9.343 10.573 20.209 15.431 29.259 2.564 4.78 5.105 8.793 8.515 11.632 3.411 2.839 7.681 4.469 13.553 4.469 17.221 0 31.196-13.974 31.196-31.195 0-1.231-.248-6.209-.641-13.334-.391-7.125-.918-16.356-1.484-25.941-1.132-19.172-2.404-39.773-2.926-47.804l-.932.073c.522 8.027 1.795 28.621 2.926 47.789.565 9.586 1.093 18.817 1.485 25.941.391 7.123.64 12.179.64 13.276 0 16.717-13.546 30.264-30.264 30.264-5.702 0-9.702-1.544-12.955-4.251-3.253-2.706-5.752-6.624-8.297-11.368-4.852-9.042-10.48-19.883-15.416-29.231-4.936-9.347-9.16-17.163-11.296-20.235-2.114-3.038-4.07-4.946-6.477-6.099-2.409-1.153-5.23-1.542-9.041-1.674-7.607-.263-25.479-.001-31.472-.001h-20.277c-5.993 0-23.864-.262-31.472 0-3.811.132-6.632.521-9.04 1.675-2.408 1.153-4.364 3.06-6.478 6.099-2.137 3.072-6.36 10.887-11.296 20.235-4.936 9.346-10.565 20.189-15.416 29.231-2.545 4.744-5.044 8.662-8.297 11.368-3.253 2.707-7.253 4.25-12.956 4.25-16.711 0-30.257-13.546-30.257-30.264 0-1.098.248-6.153.64-13.276s.919-16.355 1.485-25.941c1.131-19.17 2.404-39.764 2.926-47.789l-.932-.073z" transform="matrix(.965926 -.258819 .258819 .965926 -41.956983 90.584005)"/><path d="m376.055 69.143c-7.859 0-15.116 1.832-20.641 5.153-1.22.732-2.036 2.19-2.65 3.945s-1.013 3.835-1.296 5.866c-.282 2.032-.45 4.018-.553 5.576-.052.779-.083 1.45-.117 1.965-.033.515-.07.892-.087.976l.918.188c.048-.242.068-.585.102-1.105.034-.522.065-1.192.117-1.966.102-1.548.261-3.507.537-5.503.278-1.995.673-4.032 1.253-5.691.579-1.659 1.352-2.916 2.242-3.45 5.345-3.214 12.461-5.022 20.176-5.022 7.655 0 14.592 2.012 20.088 4.964.582.313 1.252 1.409 1.79 2.94.539 1.531.981 3.467 1.34 5.445.716 3.953 1.09 7.988 1.397 9.404l.912-.205c-.258-1.195-.67-5.354-1.396-9.36-.364-2.003-.801-3.991-1.369-5.604-.568-1.614-1.221-2.888-2.242-3.436-5.627-3.022-12.703-5.08-20.524-5.08z" transform="matrix(.965926 -.258819 .258819 .965926 -8.143695 100.113489)"/><path d="m250.556 119.56v.933h99.878v-.932z" transform="matrix(.965926 -.258819 .258819 .965926 -20.826022 81.863607)"/><path d="m216.711 136.783c-1.117 0-2.038.921-2.038 2.038v20.641l-.073.087h-20.656c-1.116 0-2.023.907-2.023 2.024v23.684c0 1.118.907 2.023 2.023 2.023h20.701l.029.03v20.7c0 1.118.921 2.037 2.038 2.037h23.669c1.117 0 2.038-.919 2.038-2.037v-20.671l.044-.058h20.685c1.117 0 2.038-.906 2.038-2.024v-23.683c0-1.117-.921-2.024-2.038-2.024h-20.671l-.058-.073v-20.656c0-1.117-.921-2.038-2.038-2.038zm0 .931h23.669c.614 0 1.107.494 1.107 1.107v20.817.16l.102.131.277.364.146.189h.233 20.904c.613 0 1.106.478 1.106 1.091v23.684c0 .614-.493 1.092-1.106 1.092h-20.934-.247l-.131.204-.262.364-.088.116v.16 20.817c0 .613-.493 1.105-1.106 1.105h-23.669c-.613 0-1.106-.492-1.106-1.105v-20.89-.189l-.131-.131-.299-.298-.131-.144h-.189-20.905c-.612 0-1.091-.478-1.091-1.092v-23.684c0-.613.479-1.092 1.091-1.092h20.904.218l.146-.19.306-.393.088-.116v-.161-20.8c0-.613.493-1.106 1.106-1.106z" transform="matrix(.965926 -.258819 .258819 .965926 -37.095342 65.062988)"/><path d="m378.334 92.125c-1.136 0-2.067.93-2.067 2.066v21.107l-.073.088h-21.107c-1.137 0-2.068.932-2.068 2.067v24.179c0 1.136.932 2.068 2.068 2.068h21.137l.043.028v21.166c0 1.136.932 2.067 2.067 2.067h24.194c1.137 0 2.068-.931 2.068-2.067v-21.136l.043-.058h21.137c1.136 0 2.067-.931 2.067-2.067v-24.178c0-1.137-.931-2.068-2.067-2.068h-21.122l-.058-.072v-21.124c0-1.136-.932-2.068-2.067-2.068zm0 .931h24.194c.632 0 1.135.503 1.135 1.135v21.282.16l.103.116.277.379.146.19h.232 21.356c.632 0 1.135.502 1.135 1.135v24.179c0 .632-.503 1.135-1.135 1.135h-21.385-.233l-.146.204-.262.379-.087.116v.146 21.282c0 .631-.503 1.135-1.135 1.135h-24.195c-.631 0-1.135-.504-1.135-1.135v-21.341-.203l-.131-.131-.306-.307-.146-.145h-.189-21.341c-.631 0-1.135-.503-1.135-1.136v-24.179c0-.632.504-1.135 1.135-1.135h21.341.233l.131-.189.32-.393.087-.131v-.16-21.252c.001-.632.504-1.136 1.136-1.136z" transform="matrix(.965926 -.258819 .258819 .965926 -20.22432 105.464978)"/><path d="m218.278 148.085c-1.981 0-3.594 1.627-3.594 3.611v7.83c0 .639.158 1.241.451 1.762l.029.044.044.044 6.201 6.55.015.029.014-.014c.755.932 1.896 1.543 3.188 1.543 1.32 0 2.493-.646 3.246-1.616l.015.014.029-.043 6.201-6.566.044-.043.029-.073c.253-.492.393-1.042.393-1.631v-7.831c0-1.983-1.613-3.611-3.595-3.611h-12.708zm0 .932h12.707c1.479 0 2.664 1.199 2.664 2.679v7.83c0 .429-.099.823-.276 1.18l-6.172 6.535-.015.015-.015.029c-.583.769-1.505 1.267-2.547 1.267-1.014 0-1.904-.474-2.489-1.208l-.015-.015-.015-.015-6.171-6.507c-.209-.38-.321-.816-.321-1.281l-.004-7.83c0-1.479 1.186-2.678 2.664-2.678z" transform="matrix(.965926 -.258819 .258819 .965926 -33.442116 63.549849)"/><path d="m220.569 141.21-.32.335-3.741 3.726-.786.801h1.12 7.469 1.121l-.801-.801-3.727-3.726zm.014 1.325 2.606 2.605h-5.226l2.622-2.605z" transform="matrix(.965926 -.258819 .258819 .965926 -29.661047 61.983963)"/><path d="m206.834 167.389c-1.982 0-3.61 1.613-3.61 3.596v12.708c0 1.982 1.628 3.596 3.61 3.596h7.832c.638 0 1.24-.172 1.761-.466l.044-.014.043-.045 6.551-6.201c.011-.009.018-.02.029-.029.929-.756 1.514-1.913 1.514-3.203 0-1.319-.632-2.477-1.601-3.231l.019-.023-.044-.03-6.566-6.201-.058-.044-.058-.029c-.491-.251-1.041-.393-1.63-.393h-7.832zm0 .932h7.832c.434 0 .833.109 1.194.291.003.003.01-.002.014 0l6.507 6.143.015.029.028.015c.77.582 1.253 1.491 1.253 2.533 0 1.015-.459 1.918-1.194 2.504l-.014.014-.015.015-6.521 6.172c-.38.208-.802.32-1.267.32h-7.832c-1.478 0-2.678-1.185-2.678-2.664v-12.708c0-1.479 1.199-2.664 2.678-2.664z" transform="matrix(.965926 -.258819 .258819 .965926 -38.608538 61.408066)"/><path d="m201.196 176.539-.786.787-3.741 3.74-.32.321.32.335 3.741 3.726.786.801v-1.121-7.468zm-.931 2.256v5.197l-1.805-3.377 2.591-2.604z" transform="matrix(.965926 -.258818 .258818 .965926 -40.175093 57.626733)"/><path d="m232.465 177.345c-1.32 0-2.492.632-3.246 1.601-.008.011-.021.019-.029.029l-6.201 6.58-.043.044-.03.058c-.253.492-.393 1.056-.393 1.645v7.831c0 1.983 1.613 3.597 3.596 3.597h12.708c1.982 0 3.595-1.614 3.595-3.597v-7.831c0-.638-.172-1.24-.465-1.761l-.029-.058-.029-.03-6.202-6.55c-.008-.011-.02-.019-.028-.029-.756-.93-1.914-1.528-3.204-1.529zm0 .932c1.015 0 1.92.474 2.504 1.208l.014.015.015.014 6.172 6.536c.2.374.321.796.321 1.252v7.83c0 1.48-1.185 2.664-2.664 2.664h-12.708c-1.479 0-2.664-1.184-2.664-2.664v-7.83c0-.429.099-.837.277-1.194l6.158-6.522.014-.028.019-.015c.582-.769 1.506-1.266 2.548-1.266z" transform="matrix(.965926 -.258819 .258819 .965926 -40.746369 66.575513)"/><path d="m231.676 200.76.786.8 3.741 3.727.32.334.335-.334 3.726-3.727.801-.8h-1.121-7.467zm2.242.93h5.226l-2.606 2.622z" transform="matrix(.965926 -.258819 .258819 .965926 -44.529982 68.14213)"/><path d="m242.444 159.549c-.639 0-1.24.158-1.761.451l-.058.029-.044.044-6.536 6.201-.029.029c-.929.755-1.529 1.899-1.529 3.188 0 1.324.628 2.506 1.602 3.26l.029.015 6.58 6.216.044.044.058.028c.492.253 1.055.394 1.645.394h7.831c1.982 0 3.595-1.613 3.595-3.596v-12.708c0-1.982-1.612-3.596-3.595-3.596zm0 .932h7.831c1.479 0 2.664 1.185 2.664 2.663v12.708c0 1.48-1.185 2.664-2.664 2.664h-7.831c-.418 0-.814-.106-1.165-.276l-6.55-6.173-.029-.015-.014-.014c-.77-.583-1.267-1.506-1.267-2.547 0-1.015.475-1.905 1.208-2.49l.015-.015.015-.014 6.477-6.158h.015c.384-.213.823-.334 1.295-.333z" transform="matrix(.965926 -.258819 .258819 .965926 -35.583177 68.714824)"/><path d="m255.898 160.581v1.121 7.467 1.121l.8-.801 3.727-3.726.335-.335-.335-.32-3.727-3.741zm.931 2.242 2.62 2.62-2.62 2.605z" transform="matrix(.965926 -.258819 .258819 .965926 -34.015504 72.497532)"/><path d="m291.759 168.8c-1.261 0-2.285 1.038-2.285 2.299v6.609c0 1.262 1.024 2.299 2.285 2.299h11.151c1.097 0 1.975-.801 2.198-1.834h.088v-.465-6.61c0-1.26-1.024-2.299-2.286-2.299h-11.151zm0 .931h11.151c.758 0 1.354.612 1.354 1.368v6.144.465c0 .759-.596 1.369-1.354 1.369h-11.151c-.758 0-1.354-.61-1.354-1.369v-6.609c0-.756.596-1.368 1.354-1.368z" transform="matrix(.965926 -.258819 .258819 .965926 -35.007366 82.898575)"/><path d="m326.952 159.269c-1.189 0-2.168.98-2.168 2.169v6.958c0 1.19.981 2.169 2.168 2.169.309 0 .595-.088.86-.203v.014l.073-.029 11.922-3.654.044-.014.029-.029c.685-.363 1.15-1.082 1.15-1.907 0-.808-.444-1.522-1.107-1.892l-.043-.029-.058-.014-12.126-3.407c-.014-.005-.03-.01-.044-.014-.221-.076-.456-.118-.7-.118zm0 .932c.15 0 .291.025.422.073l.015.014h.014l12.097 3.392c.362.214.598.608.598 1.063 0 .46-.258.85-.627 1.062l-11.936 3.683h-.03l-.028.014c-.162.078-.333.132-.525.132-.685 0-1.237-.551-1.237-1.238v-6.958c.001-.686.553-1.237 1.237-1.237z" transform="matrix(.965926 -.258819 .258819 .965926 -31.340119 91.78205)"/><path d="m367.92 123.424c-6.705 0-12.155 5.45-12.155 12.156 0 6.705 5.45 12.14 12.155 12.14s12.155-5.435 12.155-12.14-5.45-12.156-12.155-12.156zm0 .932c6.202 0 11.223 5.021 11.223 11.223s-5.02 11.209-11.223 11.209c-6.202 0-11.224-5.007-11.224-11.209.001-6.202 5.022-11.223 11.224-11.223z" transform="matrix(.965926 -.258819 .258819 .965926 -22.552042 99.844173)"/><path d="m396.466 139.908c-6.705 0-12.155 5.45-12.155 12.155 0 6.706 5.45 12.155 12.155 12.155s12.155-5.449 12.155-12.155c0-6.705-5.45-12.155-12.155-12.155zm0 .931c6.201 0 11.224 5.022 11.224 11.224 0 6.201-5.022 11.224-11.224 11.224s-11.224-5.023-11.224-11.224c0-6.202 5.022-11.224 11.224-11.224z" transform="matrix(.965926 -.258819 .258819 .965926 -25.847548 107.794337)"/><path d="m412.942 111.358c-6.703 0-12.14 5.451-12.14 12.159 0 6.705 5.436 12.14 12.141 12.14s12.155-5.435 12.155-12.14-5.45-12.155-12.155-12.155zm0 .932c6.201 0 11.223 5.021 11.223 11.224 0 6.202-5.021 11.208-11.223 11.208s-11.209-5.006-11.209-11.208 5.008-11.224 11.209-11.224z" transform="matrix(.965926 -.258819 .258819 .965926 -17.895161 111.087708)"/><path d="m384.398 94.869c-6.705 0-12.155 5.449-12.155 12.155 0 6.705 5.45 12.155 12.155 12.155s12.155-5.45 12.155-12.155c0-6.706-5.45-12.155-12.155-12.155zm0 .932c6.202 0 11.224 5.021 11.224 11.223s-5.022 11.223-11.224 11.223-11.224-5.021-11.224-11.223 5.022-11.223 11.224-11.223z" transform="matrix(.965926 -.258819 .258819 .965926 -14.601806 103.13625)"/></g></svg>