<svg xmlns="http://www.w3.org/2000/svg"><g fill="#fff"><path d="m181.056 31.612v31.449 31.446h5.509 5.508v-28.072-28.072h6.761c4.878 0 7.079.132 7.907.477 1.636.685 3.318 2.765 4.008 4.942.363 1.144.66 3.623.766 6.373.219 5.635-.433 9.135-2.153 11.405-1.795 2.372-2.891 2.744-7.961 2.744h-4.353v3.41 3.419l6.838-.132 6.842-.135 2.42-1.143c4.422-2.087 7.631-6.353 8.928-11.85.723-3.068.711-9.93-.024-13.224-.706-3.167-2.177-6.355-3.831-8.285-.69-.808-2.029-1.964-2.963-2.567-3.206-2.056-4.443-2.185-20.066-2.185zm48.681 0v31.449 31.446h5.509 5.508v-31.446-31.449h-5.508zm138.139 0c-4.932 0-10.009.174-11.282.378-2.864.456-6.211 1.972-8.105 3.686-1.909 1.723-3.54 4.314-4.419 7.037-.549 1.693-.721 3.236-.745 6.488-.03 4.485.349 6.394 1.889 9.414 1.002 1.966 3.674 4.803 5.508 5.863 2.129 1.234 4.855 1.888 9.538 2.266 3.563.289 4.395.466 5.554 1.234.912.601 1.711 1.588 2.386 2.963.952 1.937 1.006 2.339 1 6.506-.003 4.155-.063 4.566-.979 6.31-.618 1.183-1.513 2.222-2.452 2.843l-1.477.979-9.361.111-9.351.099v3.365 3.353h10.636c6.473 0 11.384-.159 12.528-.399 4.353-.918 7.976-3.74 9.735-7.586 1.483-3.236 2.006-6.566 1.811-11.561-.202-5.266-.982-8.132-3.087-11.279-2.611-3.908-5.532-5.25-12.956-5.929-2.747-.252-5.56-.696-6.254-.987-1.528-.649-2.957-2.279-3.584-4.089-.624-1.783-.615-6.953.021-9.135.624-2.159 2.522-4.143 4.521-4.744.964-.291 4.209-.432 9.67-.432h8.228v-3.377-3.377zm126.59 0v4.62 4.62h5.509 5.509v-4.62-4.62h-5.509zm-105.924 7.105.114 22.654c.096 22.299.111 22.686.877 24.71.426 1.128 1.339 2.819 2.029 3.761 1.414 1.925 3.251 3.272 5.575 4.086 1.12.393 3.017.546 6.629.558l5.064.021v-3.374-3.374h-3.308c-3.149 0-3.36-.045-4.254-.979-.556-.579-1.099-1.711-1.318-2.756-.243-1.129-.342-7.001-.279-16.169l.099-14.389 5.953-.102 5.95-.099v-3.362-3.368h-6.04-6.04v-3.909-3.909h-5.518zm76.075 0v22.375c0 21.641.027 22.455.736 24.61.84 2.564 2.554 5.107 4.419 6.527.711.543 2.119 1.276 3.131 1.621 1.408.486 2.984.636 6.727.645l4.885.012v-3.377-3.374h-3.153c-2.635 0-3.302-.114-4.073-.724-.511-.399-1.09-1.318-1.291-2.041-.225-.811-.366-7.199-.366-16.514v-15.191h6.052 6.052l-.099-3.287-.102-3.287-5.953-.099-5.947-.102v-3.897-3.897h-5.509zm-9.715 7.728-11.762.192c-12.644.192-13.953.348-17.667 2.23-4.151 2.105-7.045 6.191-8.357 11.792-.55 2.339-.646 4.35-.646 13.236 0 10.093.03 10.562.811 12.495 1.576 3.891 3.92 6.295 7.295 7.46 1.489.516 3.041.633 8.15.642l6.311.012v-3.377-3.374h-4.419c-4.185 0-4.47-.051-5.464-.889-.661-.552-1.195-1.477-1.444-2.464-.495-1.961-.519-17.421-.033-21.165.687-5.32 1.888-7.811 4.386-9.15.861-.459 2.344-.625 6.529-.733l5.419-.144v20.654 20.645h5.689 5.683v-13.272c0-7.295-.114-18.111-.243-24.028zm-166.889.012-11.813.177c-12.84.198-14.686.432-18.19 2.311-4.074 2.18-6.979 6.488-8.207 12.159-.781 3.602-1.144 18.354-.544 21.918.523 3.113 1.979 6.247 3.72 8.018 1.282 1.303 3.407 2.591 5.184 3.131.49.15 3.807.282 7.373.3l6.485.033v-3.377-3.371h-4.542c-5.122 0-5.794-.243-6.761-2.444-.432-.982-.6-2.909-.711-8.105-.159-7.385.354-15.398 1.155-18.058.718-2.389 2.057-4.224 3.63-4.995 1.15-.564 2.206-.673 6.694-.679l5.329-.012.09 20.522.09 20.519h5.509 5.509v-24.028zm11.861.078c-3.2 0-5.815.042-5.809.09s3.659 10.774 8.117 23.842l8.109 23.761-4.566 11.771c-2.51 6.482-4.563 11.828-4.563 11.882s2.179.054 4.842 0l4.842-.099 14.155-35.535c7.79-19.543 14.17-35.574 14.17-35.622.003-.048-2.297-.09-5.119-.09-3.722 0-5.208.123-5.407.447-.15.243-2.873 7.151-6.04 15.355-3.167 8.205-5.902 14.963-6.085 15.026-.186.06-2.702-6.851-5.584-15.359l-5.241-15.469zm194.592 0v23.986 23.983h5.509 5.509v-23.983-23.986h-5.509zm66.628.177-.105 23.896h.015l-.102 23.896h5.698 5.685v-20.642-20.654l5.416.144c5.755.15 6.716.391 8.331 2.12 1.267 1.357 2.173 3.827 2.576 7.04.21 1.681.378 9.405.378 17.502v14.49h5.509 5.505l-.012-14.124c0-14.98-.264-18.535-1.708-22.597-1.963-5.523-5.578-8.799-11.459-10.393-1.945-.528-4.022-.621-14.004-.645zm-27.85.102c-3.107 0-6.205.39-8.427 1.153-2.963 1.02-4.821 2.212-6.689 4.287-2.023 2.251-3.488 5.301-4.349 9.027-.529 2.284-.652 4.203-.622 9.771.03 5.86.147 7.358.778 9.673 1.071 3.93 2.47 6.577 4.596 8.73 2.095 2.116 5.19 3.741 8.676 4.53 1.567.354 3.74.465 7.061.378 5.727-.153 8.45-.888 11.792-3.176 2.8-1.915 4.92-4.935 6.121-8.739 1.714-5.431 2.017-14.383.699-20.987-.639-3.209-2.197-6.689-3.932-8.808-1.631-1.99-4.302-3.735-7.16-4.686-2.312-.763-5.44-1.153-8.544-1.153zm.132 6.616c1.612 0 3.23.313 4.497.955 1.654.838 2.696 2.3 3.596 5.062.592 1.807.739 3.452.88 9.429.18 7.805-.177 11.483-1.39 14.257-.853 1.96-2.233 3.482-3.752 4.13-.649.277-2.357.49-3.942.49-2.246 0-3.107-.159-4.362-.82-.988-.522-1.939-1.417-2.555-2.41-1.606-2.594-2.134-5.992-2.155-13.648-.018-7.289.357-10.219 1.702-13.182.453-1.005 1.372-2.233 2.053-2.756 1.294-.984 3.357-1.507 5.428-1.507z"/><path d="m87.746 25.695-.108 97.86-26.22-8.526v-115.029l33.47 8.85c21.423 5.758 34.533 16.95 34.319 36.565-.213 22.815-10.765 31.981-31.335 26.013v-44.989c-.003-5.437-10.126-5.755-10.126-.744z"/><path d="m49.371 96.05-12.362 4.161c-7.998 2.771-14.818-3.731-7.463-6.4l5.968-2.129-22.492-7.144c-6.925 2.347-13.431 7.358-13.002 14.394.427 7.142 16.734 8.85 29.312 10.874 11.723 1.918 22.384.852 32.083-2.561v-7.355zm38.477 27.508 22.918-7.994-23.131-7.355v14.818z"/><path d="m148.82 102.13.426-.108c10.021-3.516 14.284-8.424 13.218-13.005-1.705-7.677-13.962-11.834-32.83-13.218-13.536-.961-26.86 2.023-39.864 6.499l-2.132.748 23.344 7.253 13.641-4.588c14.284-2.665 20.042 2.027 6.293 6.398l-6.824 2.344zm-87.402-33.9-10.339 3.519 10.339 3.197z"/><path d="m110.769 115.561 38.051-13.431-24.731-7.677-36.451 12.474v1.279zm-49.351-23.56-12.044 4.049 12.044 3.84zm26.217 6.292v-15.244l23.344 7.25zm-52.121-6.611 25.901-9.276v-7.46l-10.339-3.197-37.519 12.684c-.105 0-.319.105-.532.105z"/></g></svg>