<svg xmlns="http://www.w3.org/2000/svg"><g fill="#1e1e1e"><path d="m318.065 101.402c-41.258 0-77.363 14.352-91.989 21.78-7.575 3.848-18.423 11.156-26.97 21.71-8.548 10.553-14.79 24.38-13.043 41.161 2.245 21.54 12.148 39.073 22.692 51.458 5.272 6.191 10.702 11.092 15.428 14.571 4.725 3.48 8.718 5.553 11.261 6.045 3.648.706 8.177.757 12.581-.87 4.404-1.625 8.659-4.953 11.711-10.939 6.034-11.837 9.461-23.466 21.542-29.62 12.135-6.182 27.864-7.349 31.232-7.349h14.979c3.37 0 19.098 1.168 31.233 7.349l.085.045c12.01 6.166 15.438 17.771 21.458 29.578 3.052 5.986 7.307 9.314 11.71 10.94 4.405 1.625 8.934 1.575 12.581.869 2.544-.492 6.537-2.565 11.262-6.045s10.156-8.38 15.427-14.572c10.545-12.382 20.448-29.915 22.692-51.458 1.748-16.781-4.496-30.607-13.043-41.162-8.545-10.553-19.392-17.86-26.964-21.709-14.626-7.426-50.731-21.78-91.988-21.78h-3.871zm0 .897h3.87c41.05 0 77.075 14.314 91.581 21.682 7.474 3.797 18.248 11.048 26.689 21.472s14.554 23.991 12.834 40.503c-2.221 21.321-12.029 38.705-22.484 50.979-5.225 6.138-10.606 10.996-15.27 14.43-4.666 3.437-8.654 5.443-10.898 5.877-3.52.682-7.895.727-12.103-.828-4.21-1.553-8.261-4.698-11.22-10.503-5.989-11.746-9.51-23.683-21.935-30.013-12.372-6.302-28.072-7.448-31.64-7.448h-14.979c-3.566 0-19.256 1.139-31.626 7.433l-.013.014c-12.427 6.33-15.947 18.268-21.935 30.013-2.96 5.806-7.01 8.95-11.22 10.504-4.208 1.554-8.583 1.508-12.103.828-2.239-.437-6.226-2.44-10.891-5.875-4.666-3.438-10.047-8.293-15.274-14.433-10.452-12.275-20.26-29.66-22.481-50.978-1.72-16.515 4.392-30.082 12.833-40.505 8.439-10.423 19.214-17.675 26.688-21.472 14.51-7.369 50.529-21.681 91.58-21.681z" transform="matrix(.965926 -.258819 .258819 .965926 -35.68358 88.955387)"/><path d="m248.196 147.096c-22.972 0-41.599 18.626-41.599 41.598 0 22.971 18.626 41.611 41.599 41.611 22.971 0 41.611-18.639 41.611-41.611s-18.64-41.598-41.611-41.598zm0 .898c22.486 0 40.714 18.213 40.714 40.7 0 22.486-18.228 40.714-40.714 40.714-22.487 0-40.701-18.228-40.701-40.714 0-22.487 18.214-40.7 40.701-40.7z" transform="matrix(.965926 -.258819 .258819 .965926 -40.382014 70.669235)"/><path d="m248.196 155.889c-18.12 0-32.804 14.685-32.804 32.805 0 18.119 14.684 32.817 32.804 32.817 18.118 0 32.817-14.699 32.817-32.817 0-18.12-14.699-32.805-32.817-32.805zm0 .898c17.634 0 31.92 14.272 31.92 31.907 0 17.634-14.286 31.92-31.92 31.92-17.635 0-31.906-14.286-31.906-31.92 0-17.635 14.271-31.907 31.906-31.907z" transform="matrix(.965926 -.258819 .258819 .965926 -40.381847 70.669297)"/><path d="m248.196 164.094c-13.587 0-24.6 11.013-24.6 24.599s11.013 24.613 24.6 24.613c13.585 0 24.613-11.027 24.613-24.613s-11.028-24.599-24.613-24.599zm0 .898c13.101 0 23.715 10.6 23.715 23.701s-10.614 23.716-23.715 23.716c-13.102 0-23.702-10.615-23.702-23.716s10.601-23.701 23.702-23.701z" transform="matrix(.965926 -.258819 .258819 .965926 -40.381866 70.669342)"/><path d="m243.735 165.945c-.817 0-1.487.67-1.487 1.487v12.51c0 .95-.279 1.618-.757 2.076-.478.457-1.197.729-2.174.729h-12.384c-.817 0-1.487.669-1.487 1.487v8.933c0 .818.67 1.488 1.487 1.488h12.384c.907 0 1.632.281 2.132.771.499.489.799 1.207.799 2.16v12.384c0 .817.67 1.487 1.487 1.487h8.933c.818 0 1.487-.669 1.487-1.487v-12.341c0-.949.237-1.683.687-2.174s1.157-.799 2.287-.799h12.341c.818 0 1.488-.67 1.488-1.488v-8.933c0-.817-.67-1.487-1.488-1.487h-12.328c-1.177 0-1.888-.301-2.328-.758-.439-.456-.659-1.125-.659-2.047v-12.511c0-.816-.669-1.486-1.487-1.486h-8.933zm0 .898h8.933c.332 0 .59.256.59.589v12.51c0 1.062.262 2.005.912 2.679.649.674 1.645 1.024 2.972 1.024h12.328c.333 0 .589.257.589.589v8.934c0 .331-.256.589-.589.589h-12.341c-1.299 0-2.311.388-2.959 1.094-.649.706-.912 1.683-.912 2.777v12.342c0 .333-.257.589-.59.589h-8.933c-.332 0-.589-.256-.589-.589v-12.384c0-1.148-.394-2.118-1.08-2.791s-1.651-1.038-2.749-1.038h-12.384c-.331 0-.589-.257-.589-.59v-8.933c0-.332.257-.589.589-.589h12.384c1.142 0 2.113-.333 2.791-.982s1.038-1.59 1.038-2.721v-12.511c0-.332.257-.589.589-.588z" transform="matrix(.965926 -.25882 .25882 .965926 -40.382244 70.669502)"/><path d="m250.181 170.478c0 5.634 4.839 10.827 10.842 10.827v-.897c-5.481 0-9.944-4.812-9.944-9.93z" transform="matrix(.965926 -.258819 .258819 .965926 -36.814633 72.147999)"/><path d="m259.717 169.541-.504.21-3.928 1.67-.322.126.252.238 2.315 2.174.237.224.127-.294 1.613-3.843zm-.827.842-1.29 3.029-1.823-1.725z" transform="matrix(.965926 -.258819 .258819 .965926 -35.712501 72.46052)"/><path d="m248.196 183.363c-2.946 0-5.33 2.384-5.33 5.329 0 2.946 2.384 5.344 5.33 5.344 2.945 0 5.343-2.398 5.343-5.344 0-2.945-2.398-5.329-5.343-5.329zm0 .897c2.46 0 4.445 1.972 4.445 4.432 0 2.461-1.985 4.446-4.445 4.446-2.461 0-4.432-1.985-4.432-4.446 0-2.46 1.971-4.432 4.432-4.432z" transform="matrix(.965926 -.258819 .258819 .965926 -40.381716 70.66929)"/><path d="m239.911 175.879c0 5.481-4.813 9.944-9.93 9.944v.897c5.634 0 10.827-4.839 10.827-10.841z" transform="matrix(.965926 -.258819 .258819 .965926 -38.902879 67.102187)"/><path d="m229.046 177.185.211.505 1.669 3.927.126.323.238-.253 2.174-2.314.224-.238-.294-.127-3.843-1.613zm.842.827 3.029 1.29-1.725 1.824z" transform="matrix(.965926 -.258819 .258819 .965926 -38.590541 66.000601)"/><path d="m235.385 196.094v.898c5.48 0 9.943 4.811 9.943 9.929h.897c0-5.634-4.838-10.827-10.84-10.827z" transform="matrix(.965926 -.258819 .258819 .965926 -43.948739 69.191094)"/><path d="m238.639 203.216-.127.295-1.613 3.842-.211.505.507-.211 3.925-1.668.323-.127-.252-.237-2.314-2.175zm.168.772 1.824 1.711-3.115 1.319z" transform="matrix(.965926 -.258819 .258819 .965926 -45.050925 68.878189)"/><path d="m266.424 190.68c-5.634 0-10.826 4.839-10.826 10.842h.897c0-5.48 4.813-9.944 9.929-9.944z" transform="matrix(.965926 -.258818 .258818 .965926 -41.860808 74.236282)"/><path d="m265.356 195.459-.238.253-2.174 2.314-.224.238.294.127 3.843 1.612.504.211-.21-.505-1.669-3.927zm-.155.814 1.319 3.114-3.029-1.291z" transform="matrix(.965926 -.258819 .258819 .965926 -42.172809 75.338614)"/><path d="m407.174 119.665c-1.826.034-3.769.134-5.792.308-8.095.697-17.503 2.632-26.198 6.746-6.49 3.071-13.865 7.71-20.195 12.553-6.331 4.842-11.61 9.871-13.913 13.842-2.312 3.987-2.605 9.205-1.725 14.15.88 4.947 2.926 9.626 5.47 12.567 5.043 5.832 13.73 9.122 24.809 6.157 5.533-1.48 9.075-3.684 12.749-6.255 3.672-2.571 7.482-5.518 13.688-8.583 12.434-6.141 23.01-8.428 28.765-10.295 2.908-.943 5.93-2.576 8.233-5.553 2.303-2.978 3.877-7.283 3.955-13.52.078-6.292-2.539-11.164-6.017-14.642-3.478-3.479-7.804-5.584-11.276-6.452-2.613-.654-7.074-1.127-12.553-1.023zm.028.911c5.428-.098 9.826.363 12.299.982 3.31.827 7.527 2.871 10.87 6.213 3.341 3.342 5.825 7.957 5.75 13.997-.076 6.093-1.591 10.185-3.758 12.987-2.168 2.803-5.003 4.339-7.798 5.246-5.64 1.828-16.317 4.144-28.821 10.307l-.07.042c-6.279 3.102-10.166 6.087-13.814 8.64-3.649 2.554-7.042 4.681-12.454 6.128-10.808 2.893-19.078-.302-23.899-5.876-2.388-2.762-4.418-7.328-5.273-12.131-.853-4.803-.544-9.829 1.614-13.548 2.166-3.736 7.405-8.77 13.687-13.576s13.616-9.42 20.027-12.454c8.568-4.055 17.892-5.972 25.904-6.662 2.003-.172 3.928-.262 5.736-.295z" transform="matrix(.965926 -.258819 .258819 .965926 -26.476816 105.636853)"/><path d="m413.864 125.236c-3.801-.115-7.845.637-11.767 2.159-10.329 4.008-23.26 9.091-29.328 12.202-4.824 2.475-11.23 5.095-16.674 8.57-5.444 3.473-9.965 7.831-10.841 13.8-1.737 11.846 8.726 20.596 19.79 18.541 5.473-1.017 9.183-3.221 13.014-5.891 3.831-2.669 7.804-5.794 13.927-8.779 6.129-2.988 12.649-5.141 18.345-6.873 5.693-1.731 10.541-3.042 13.393-4.389 2.909-1.375 5.554-4.387 6.844-8.177 1.289-3.789 1.207-8.362-1.402-12.79-2.611-4.43-6.796-7.021-11.599-7.966-1.201-.237-2.436-.369-3.702-.407zm-.029.897c1.221.037 2.412.166 3.563.393 4.598.904 8.518 3.329 10.995 7.531 2.477 4.203 2.548 8.491 1.332 12.061-1.216 3.571-3.743 6.412-6.381 7.658-2.696 1.273-7.556 2.583-13.267 4.319s-12.283 3.905-18.485 6.929c-6.209 3.026-10.256 6.216-14.054 8.863-3.798 2.648-7.347 4.749-12.664 5.736-10.516 1.953-20.39-6.243-18.736-17.516.819-5.592 5.087-9.771 10.434-13.184 5.347-3.412 11.723-6.023 16.605-8.527 5.956-3.055 18.93-8.152 29.255-12.159 3.824-1.484 7.74-2.213 11.403-2.104z" transform="matrix(.965926 -.258819 .258819 .965926 -26.37516 105.693361)"/><path d="m365.695 156.461c-7.583 0-13.744 6.16-13.744 13.744s6.161 13.745 13.744 13.745c7.584 0 13.744-6.161 13.744-13.745s-6.159-13.744-13.744-13.744zm0 .898c7.1 0 12.847 5.747 12.847 12.846s-5.747 12.847-12.847 12.847c-7.099 0-12.847-5.748-12.847-12.847s5.748-12.846 12.847-12.846z" transform="matrix(.965926 -.258819 .258819 .965926 -31.591666 100.448407)"/><path d="m365.696 158.999c-6.18 0-11.193 5.026-11.193 11.206s5.013 11.206 11.193 11.206 11.206-5.025 11.206-11.206c0-6.18-5.025-11.206-11.206-11.206zm0 .898c5.695 0 10.308 4.613 10.308 10.308s-4.612 10.309-10.308 10.309c-5.695 0-10.295-4.613-10.295-10.309.001-5.695 4.6-10.308 10.295-10.308z" transform="matrix(.965926 -.258819 .258819 .965926 -31.591274 100.450335)"/><path d="m386.862 137.159c-7.585 0-13.745 6.146-13.745 13.73 0 7.585 6.16 13.745 13.745 13.745 7.582 0 13.729-6.161 13.729-13.745s-6.145-13.73-13.729-13.73zm0 .898c7.098 0 12.832 5.732 12.832 12.832s-5.733 12.847-12.832 12.847c-7.1 0-12.848-5.748-12.848-12.847s5.748-12.832 12.848-12.832z" transform="matrix(.965926 -.258819 .258819 .965926 -25.873153 105.266818)"/><path d="m386.861 139.695c-6.181 0-11.207 5.012-11.207 11.192 0 6.181 5.026 11.206 11.207 11.206 6.179 0 11.192-5.025 11.192-11.206 0-6.18-5.013-11.192-11.192-11.192zm0 .898c5.694 0 10.294 4.598 10.294 10.294 0 5.695-4.6 10.309-10.294 10.309-5.696 0-10.31-4.613-10.31-10.309 0-5.695 4.613-10.294 10.31-10.294z" transform="matrix(.965926 -.258819 .258819 .965926 -25.872526 105.266609)"/><path d="m410.357 120.798c-7.585 0-13.744 6.16-13.744 13.745s6.159 13.744 13.744 13.744c7.584 0 13.744-6.159 13.744-13.744s-6.16-13.745-13.744-13.745zm0 .898c7.099 0 12.847 5.747 12.847 12.847s-5.748 12.847-12.847 12.847c-7.1 0-12.847-5.747-12.847-12.847s5.747-12.847 12.847-12.847z" transform="matrix(.965926 -.258819 .258819 .965926 -20.839581 110.792595)"/><path d="m410.357 123.336c-6.18 0-11.193 5.026-11.193 11.206 0 6.181 5.013 11.206 11.193 11.206s11.206-5.025 11.206-11.206c0-6.18-5.026-11.206-11.206-11.206zm0 .898c5.695 0 10.308 4.613 10.308 10.308s-4.612 10.309-10.308 10.309c-5.695 0-10.295-4.614-10.295-10.309s4.599-10.308 10.295-10.308z" transform="matrix(.965926 -.258819 .258819 .965926 -20.839231 110.794261)"/><path d="m370.68 111.369c-.842-.058-1.705.059-2.552.351l-18.446 6.339c-3.387 1.167-5.192 4.871-4.025 8.26 1.168 3.389 4.872 5.207 8.26 4.039l18.446-6.353c3.389-1.167 5.192-4.871 4.026-8.26-.877-2.541-3.182-4.202-5.709-4.376zm-.056.898c2.179.147 4.153 1.575 4.909 3.772 1.011 2.931-.533 6.102-3.464 7.111l-18.441 6.353c-2.93 1.01-6.101-.534-7.11-3.464s.533-6.116 3.464-7.125l18.441-6.353c.732-.252 1.476-.344 2.201-.294z" transform="matrix(.965926 -.258819 .258819 .965926 -19.024171 97.56367)"/><path d="m370.201 114.287c-.477-.034-.979.016-1.459.182l-17.853 6.157c-1.918.661-2.932 2.764-2.272 4.684.662 1.92 2.765 2.948 4.685 2.286l17.839-6.157c1.92-.661 2.947-2.764 2.287-4.684-.496-1.44-1.793-2.369-3.226-2.468zm-.07.883c1.084.073 2.076.783 2.455 1.879.502 1.461-.264 3.045-1.726 3.548l-17.853 6.143c-1.46.504-3.045-.263-3.548-1.725-.503-1.461.265-3.045 1.725-3.548l17.858-6.143c.366-.126.733-.178 1.094-.154z" transform="matrix(.965926 -.258819 .258819 .965926 -19.025145 97.563514)"/></g></svg>