<svg xmlns="http://www.w3.org/2000/svg"><g fill="#fffdfd"><path d="m332.787 4.932-8.481 25.83h4.188l8.496-24.942c.309-1.14 1.239-1.974 2.334-1.974 1.107 0 2.037.834 2.346 1.974l7.182 21.099h-11.268v3.843h16.77l-8.481-25.83c-.813-2.85-3.438-4.932-6.549-4.932-3.102 0-5.724 2.082-6.537 4.932zm4.965 16.041 1.485-4.407 1.548 4.407zm-.612-12.648-7.596 22.437h4.896l3.141-9.3v4.398h9.864l-5.856-17.535c-.3-.975-1.185-3.783-2.229-3.783-1.047 0-1.935 2.805-2.22 3.783zm-26.811-3.429h14.676v-4.197h-15.027c-4.053 0-7.338 3.294-7.338 7.347v15.381c0 4.053 3.285 7.338 7.338 7.338h15.027v-19.584h-11.88v3.846h7.683v11.535h-10.479c-1.935 0-3.492-1.563-3.492-3.492v-14.685c0-1.923 1.557-3.489 3.492-3.489zm2.796 11.181v4.2h2.442v1.047h-2.442c-.579 0-1.05-.471-1.05-1.047v-9.093c0-.579.471-1.05 1.05-1.05h11.88v-4.191h-13.626c-1.935 0-3.504 1.566-3.504 3.495v12.585c0 1.926 1.569 3.492 3.504 3.492h8.388v-9.438zm-26.907-11.181h14.676v-4.197h-15.03c-4.053 0-7.335 3.294-7.335 7.347v15.21c0 4.05 3.282 7.344 7.335 7.344h15.03v-4.197h-14.676c-1.929 0-3.495-1.563-3.495-3.492v-14.523c0-1.926 1.566-3.492 3.495-3.492zm11.526 10.131v-3.843h-9.783c0-.579.471-1.05 1.05-1.05h11.88v-4.191h-13.626c-1.926 0-3.489 1.566-3.489 3.495v5.589zm0 1.404v3.843h-9.783c0 .579.471 1.05 1.05 1.05h11.88v4.188h-13.626c-1.926 0-3.489-1.563-3.489-3.495v-5.589zm-35.91 5.238h-8.814v3.846h13.452.174c2.523-.093 4.542-2.172 4.542-4.716 0-2.604-2.109-4.722-4.716-4.722h-5.301c-2.142-.816-3.963-2.943-3.963-5.421 0-3.186 2.934-5.766 6.117-5.766h13.11v-4.194h-13.635c-5.4 0-9.78 4.389-9.78 9.789 0 5.409 4.731 9.789 10.131 9.789v-.045l.027.045h3.123c.378 0 .696.309.696.699 0 .387-.318.696-.696.696zm5.781-11.88h8.823v-3.846h-13.455-.18c-2.526.09-4.542 2.172-4.542 4.716 0 2.613 2.115 4.725 4.725 4.725h5.301c2.145.822 3.954 2.94 3.954 5.418 0 3.186-2.931 5.766-6.117 5.766h-13.101v4.197h13.626c5.403 0 9.789-4.38 9.789-9.789 0-5.4-4.731-9.789-10.134-9.789v.054l-.033-.054h-3.114c-.39 0-.699-.306-.699-.696 0-.378.309-.696.699-.696z"/><path d="m274.776 45.312v62.034h-20.889v-22.917l-40.032-22.782v45.699h-20.889v-62.034h21.759l39.162 22.281v-22.281z"/><path d="m479.967 45.012h21.714v62.43h-21.714z"/><path d="m346.413 57.498h-35.673v12.486h42.807l-20.514 12.486h-22.293v12.486h57.969l-20.514 12.486h-58.86v-48.159l21.405-14.271h56.184z"/><path d="m156.747 57.732h-35.472v12.411h42.567l-20.397 12.42h-22.17v12.414h57.645l-20.4 12.417h-58.53v-47.889l21.285-14.193h55.872z"/><path d="m0 59.508 21.291-14.196h64.764l-20.406 12.426h-44.358v37.257h39.924v-15.081h-24.84l20.403-12.42h25.731v25.728l-21.294 14.196h-61.215z"/><path d="m466.698 94.776-20.811 12.666h-64.239l20.811-12.666h40.713v-12.666h-61.524v-24.429l20.811-12.669h65.145l-20.811 12.669h-42.525v11.76h62.43z"/><path d="m443.172 94.776v-12.666h-61.524v-24.429l20.811-12.669h65.145l-20.811 12.669h-42.525v11.76h62.43v25.335l-20.811 12.666h-64.239l20.811-12.666z"/><path d="m599.097 94.776-20.811 12.666h-64.239l20.811-12.666h40.716v-12.666h-61.527v-24.429l20.811-12.669h65.142l-20.808 12.669h-42.525v11.76h62.43z"/><path d="m575.574 94.776v-12.666h-61.527v-24.429l20.811-12.669h65.142l-20.808 12.669h-42.525v11.76h62.43v25.335l-20.811 12.666h-64.239l20.811-12.666z"/></g></svg>