<svg preserveAspectRatio="none" xmlns="http://www.w3.org/2000/svg"><g fill="#1e1e1e"><path d="m408.312 218.214.644-1.352c14.916 15.043 34.354 24.212 56.701 26.168l-.135 1.539c-22.722-1.989-43.124-12.087-58.284-27.378z" transform="matrix(.965926 -.258819 .258819 .965926 -44.841955 120.822268)"/><path d="m477.077 221.825c31.306-3.005 57.881-21.327 72.118-47.73h.002l1.523.391c-14.474 26.842-41.658 45.82-73.495 48.878z" transform="matrix(.965926 -.258819 .258819 .965926 -33.924308 139.778238)"/><path d="m541.28 139.901c1.491-6.582 2.14-12.731 2.14-19.765 0-.704.066-.65.049-1.352h.002l1.469-.79c.016.711.024 1.426.024 2.142.001 7.149-.8 14.112-2.316 20.805z" transform="matrix(.965926 -.258819 .258819 .965926 -15.00222 144.981789)"/><path d="m436.902 53.129c-36.513 0-68.002 20.91-82.935 51.694v.002l-1.452-.361c15.182-31.3 47.265-52.88 84.387-52.88 44.323.001 81.461 30.762 91.226 72.106l-1.822-.646c-9.604-40.657-45.813-69.917-89.404-69.915z" transform="matrix(.965926 -.258819 .258819 .965926 -7.678537 116.949723)"/><path d="m370.075 185.589 1.497.069c1.031 4.962 1.939 8.435 3.733 13.069l-.902 1.515c-1.825-4.711-3.279-9.609-4.328-14.653z" transform="matrix(.965926 -.258819 .258819 .965926 -37.231096 103.03268)"/><path d="m401.791 140.564c0-16.739 0-76.996 0-76.996h1.545v32.221 44.775c0 11.95 4.842 22.759 12.671 30.591 7.832 7.829 18.643 12.67 30.591 12.67 11.948 0 22.759-4.842 30.591-12.67 7.831-7.832 12.671-18.643 12.671-30.591 0-17.897 0-77.381 0-77.381h1.546c-.001.01-.001 3.716 0 9.573-.001 5.856-.001 13.851 0 22.405-.001 17.108-.001 36.453 0 45.402-.001 24.748-20.063 44.807-44.808 44.807-24.747 0-44.807-20.058-44.807-44.806z" transform="matrix(.965926 -.258819 .258819 .965926 -16.947648 119.822795)"/><path d="m422.329 150.991c-2.134 0-3.863-1.729-3.863-3.863v-43.776c0-2.135 1.729-3.863 3.863-3.863h49.055c2.135 0 3.862 1.728 3.864 3.863v43.776h-.002c0 2.134-1.727 3.863-3.862 3.863zm-2.317-47.639v43.776c.001 1.279 1.038 2.316 2.317 2.317h49.055c1.28-.001 2.315-1.038 2.319-2.317h-.002l.002-43.776c-.004-1.281-1.039-2.316-2.319-2.319h-49.055c-1.28.003-2.316 1.039-2.317 2.319z" transform="matrix(.965926 -.258819 .258819 .965926 -17.188214 119.92252)"/><path d="m420.297 154.038c-1.8-.633-2.895-1.065-3.518-1.567-1.256-1.256-2.037-2.999-2.037-4.915v-45.034c0-1.918.781-3.661 2.082-4.957.579-.46 1.674-.894 3.474-1.528 1.776-.608 4.141-1.308 6.886-1.973 5.492-1.329 12.496-2.518 19.282-2.518 8.958.003 19.732 2.207 25.366 3.773 1.896.535 3.144.946 3.788 1.321 1.947 1.231 3.24 3.406 3.243 5.881v45.033c-.003 2.474-1.298 4.651-3.257 5.888-.63.368-1.879.779-3.776 1.315-1.878.522-4.328 1.114-7.091 1.673-5.527 1.115-12.304 2.098-18.276 2.1-10.176-.002-20.847-2.671-26.166-4.492zm.502-56.538c-1.693.564-2.897 1.139-2.927 1.198-.98.982-1.583 2.329-1.584 3.824v45.033c.001 1.495.605 2.84 1.54 3.781.075.1 1.278.677 2.972 1.242 1.72.589 4.046 1.278 6.748 1.932 5.402 1.308 12.312 2.476 18.918 2.476 8.711.004 19.443-2.181 24.952-3.717 1.819-.498 3.134-.979 3.376-1.14 1.518-.961 2.524-2.648 2.524-4.574v-45.033c0-1.928-1.006-3.615-2.51-4.568-.256-.169-1.571-.65-3.39-1.147-1.836-.511-4.254-1.095-6.981-1.647-5.457-1.103-12.164-2.071-17.97-2.069-.01 0-.019 0-.028 0-9.901 0-20.48 2.636-25.64 4.409z" transform="matrix(.965926 -.258819 .258819 .965926 -17.137788 119.901526)"/><path d="m520.179 112.289c.001-5.707 4.627-10.333 10.334-10.333 5.707 0 10.331 4.626 10.333 10.333-.002 5.706-4.626 10.332-10.333 10.332-5.707 0-10.333-4.626-10.334-10.332zm1.547 0c.009 4.853 3.935 8.777 8.787 8.787 4.852-.009 8.777-3.934 8.787-8.787-.01-4.853-3.935-8.779-8.787-8.787-4.854.009-8.781 3.935-8.787 8.787z" transform="matrix(.965926 -.258819 .258819 .965926 -10.985629 141.132846)"/><path d="m531.026 152.772c.001-5.708 4.627-10.333 10.334-10.333 5.707 0 10.331 4.625 10.333 10.333-.002 5.705-4.626 10.331-10.333 10.332-5.707-.001-10.333-4.627-10.334-10.332zm1.547 0c.009 4.85 3.935 8.778 8.787 8.786 4.851-.008 8.778-3.936 8.787-8.786-.009-4.853-3.935-8.779-8.787-8.788-4.854.009-8.781 3.935-8.787 8.788z" transform="matrix(.965926 -.258819 .258819 .965926 -21.093796 145.319673)"/><path d="m504.21 137.763c.002-5.709 4.628-10.333 10.335-10.335 5.706.002 10.331 4.628 10.332 10.335-.001 5.705-4.626 10.331-10.332 10.332-5.709-.001-10.333-4.626-10.335-10.332zm1.547 0c.009 4.852 3.935 8.777 8.788 8.785 4.85-.007 8.777-3.933 8.786-8.785-.009-4.854-3.934-8.78-8.786-8.788-4.854.009-8.781 3.935-8.788 8.788z" transform="matrix(.965926 -.258819 .258819 .965926 -18.122657 137.867733)"/><path d="m545.252 126.765c0-5.708 4.628-10.332 10.333-10.334 5.708.002 10.332 4.626 10.334 10.334-.002 5.706-4.626 10.332-10.334 10.333-5.707-.001-10.333-4.626-10.333-10.333zm1.546 0c.008 4.852 3.936 8.778 8.787 8.787 4.853-.01 8.779-3.935 8.787-8.787-.008-4.854-3.934-8.78-8.787-8.788-4.853.009-8.779 3.934-8.787 8.788z" transform="matrix(.965926 -.258819 .258819 .965926 -13.877958 148.115279)"/><g transform="matrix(.746209 -.199946 .199946 .746209 202.101028 105.108597)"><path d="m192.721 338.768c-2.901-.075-5.144-2.524-6.707-4.33-13.808-16.521-25.661-42.856-30.04-61.243-3.166-13.334-16.86-66.77-16.86-132.398 0-18.782 3.224-34.483 6.684-45.828 3.439-11.247 7.036-18.132 8.122-19.737.627-1.135 1.617-2.036 2.818-2.55.727-.348 2.667-1.014 5.65-1.958 3.015-.95 6.999-2.136 11.411-3.34 8.83-2.411 19.353-4.901 27.293-5.748h.002l.209 1.989c-11.597 1.229-29.36 6.18-38.314 9.006-2.96.93-5.058 1.679-5.383 1.854l-.04.019-.025.011c-.806.34-1.473.95-1.886 1.716l-.027.05-.034.048c-.797 1.123-4.489 8.062-7.882 19.223-3.411 11.186-6.596 26.693-6.596 45.245 0 65.371 13.638 118.603 16.806 131.935 4.271 18.033 16.104 44.277 29.626 60.423 1.408 1.741 3.613 3.69 5.173 3.614.657-.012 1.278-.23 2.035-1.049.743-.818 1.54-2.27 2.236-4.551 3.147-10.256 8.152-32.625 14.01-49.861 5.886-17.318 21.102-43.045 23.045-47.11l1.802.866c-2.056 4.268-17.175 29.872-22.955 46.889-5.809 17.098-10.802 39.396-13.991 49.805-.753 2.451-1.63 4.154-2.664 5.305-1.013 1.139-2.262 1.707-3.479 1.707-.012-.002-.026-.002-.039-.002z"/><path d="m402.321 337.061c-1.036-1.149-1.911-2.854-2.664-5.306-3.186-10.408-8.178-32.707-13.989-49.805-5.777-17.016-20.897-42.619-22.955-46.888l1.803-.866c1.942 4.064 17.158 29.792 23.046 47.11 5.856 17.237 10.864 39.604 14.01 49.864.695 2.279 1.49 3.729 2.233 4.547.755.818 1.378 1.039 2.036 1.05 1.563.075 3.768-1.873 5.174-3.614 13.525-16.146 25.354-42.39 29.627-60.423 3.168-13.332 16.807-66.565 16.807-131.935.002-18.552-3.186-34.059-6.596-45.245-3.394-11.161-7.084-18.1-7.883-19.223l-.035-.05-.025-.048c-.411-.766-1.08-1.376-1.948-1.746-.327-.176-2.424-.925-5.386-1.854-2.987-.942-6.95-2.121-11.337-3.319-8.77-2.396-19.252-4.867-26.979-5.687l.212-1.989c11.901 1.271 29.655 6.239 38.706 9.088 3.039.963 4.999 1.636 5.626 1.949 1.212.513 2.212 1.418 2.841 2.561 1.087 1.606 4.686 8.491 8.121 19.736 3.459 11.345 6.685 27.046 6.685 45.828 0 65.628-13.695 119.064-16.86 132.398-4.377 18.387-16.23 44.723-30.04 61.243-1.563 1.806-3.806 4.255-6.707 4.33-.013 0-.025 0-.04 0-1.222.001-2.47-.567-3.483-1.706z"/></g><path d="m482.585 254.016c-26.708 0-51.113 4.026-69.733 10.648v.002l-.518-1.458c18.833-6.697 43.387-10.735 70.251-10.735 26.89 0 51.466 4.048 70.308 10.756l-.519 1.455c-18.629-6.633-43.055-10.668-69.789-10.668z" transform="matrix(.965926 -.258819 .258819 .965926 -50.480414 133.720554)"/><path d="m489.653 229.145h.003l1.271-.874c2.743 3.999 4.591 9.158 5.149 14.889l-1.537.148c-.532-5.489-2.308-10.41-4.886-14.163z" transform="matrix(.965926 -.258819 .258819 .965926 -44.232888 135.597201)"/><path d="m459.077 251.371c.556-5.729 2.402-10.889 5.14-14.888l1.275.871c-2.573 3.755-4.346 8.676-4.877 14.166v.001z" transform="matrix(.965926 -.258819 .258819 .965926 -47.400359 127.961991)"/><path d="m475.609 244.452c-5.852-.011-10.358-.649-11.175-.872-.834-.262-1.438-1.034-1.457-1.95 0-.007 0-.015 0-.021 0-.022 0-.022 0-.022 0-.231.039-.457.103-.639.199-.624 2.021-5.145 4.749-9.931 1.774-3.099 4.153-6.534 5.441-8.235.457-.588.678-.895.928-1.106.347-.315.807-.516 1.307-.537.051-.006.086-.005.108-.003h.002c.519.006.999.206 1.37.54.33.321 1.278 1.498 2.557 3.209 1.255 1.691 2.748 3.826 3.92 5.829 1.17 1.998 2.305 4.29 3.171 6.177.817 1.797 1.368 3.113 1.543 3.724.123.266.195.564.194.877v.772h-.146c-.285.722-.961 1.243-1.77 1.306-.49.038-5.391.882-10.831.882-.003 0-.008 0-.014 0zm-11.087-2.855c0 .24.159.439.359.502.403.129 5.062.816 10.728.806 5.343-.002 10.023-.814 10.72-.876l.064.771-.057-.771c.27-.018.491-.25.491-.53-.001-.012-.002-.025-.001-.047-.005-.073-.025-.141-.058-.204l-.048-.095-.023-.106c-.016-.137-.623-1.694-1.464-3.515-.851-1.852-1.97-4.112-3.101-6.04-1.127-1.926-2.593-4.029-3.828-5.688-1.213-1.642-2.283-2.932-2.357-2.994-.09-.077-.197-.125-.321-.133h-.034c-.132.002-.25.049-.386.163v.001s0 0-.006.007c-.007.008-.017.019-.032.034-.037.04-.091.103-.156.18-.129.157-.304.378-.511.65-.413.545-.953 1.29-1.552 2.15-1.197 1.722-2.632 3.912-3.779 5.919-2.653 4.631-4.503 9.241-4.622 9.643-.015.041-.023.081-.027.127z" transform="matrix(.965926 -.258819 .258819 .965926 -44.043098 131.045393)"/><path d="m390.293 231.61c-3.186 0-6.23-.631-9.006-1.777l-.386-.16-.079-.409-.059-.301.002-11.43h-11.444l-.679-.044-.185-.444c-1.154-2.785-1.791-5.842-1.791-9.039 0-3.185.631-6.225 1.775-8.998l.097-.239.223-.132.266-.158h11.738v-11.735l.145-.202.256-.353.203-.084c2.792-1.164 5.721-1.749 8.924-1.747 3.185 0 6.226.631 9 1.775l.342.141.106.354.08.268v11.582h11.791l.228.241.238.248.056.135c1.168 2.793 1.787 5.688 1.785 8.905 0 3.174-.628 6.207-1.766 8.977l-.065.162-.135.119-.299.268-11.833-.001v11.636l-.113.184-.227.377-.233.097c-2.79 1.165-5.734 1.784-8.944 1.784-.002 0-.006 0-.011 0zm0-1.544c2.874 0 5.481-.52 7.983-1.511v-11.309c-.01-.338.115-.758.44-1.009.318-.241.62-.245.795-.249h11.377c.96-2.475 1.487-5.166 1.487-7.982-.002-2.896-.525-5.464-1.533-7.983h-11.294v-.773-.429.429.773c-.313.01-.749-.11-1.005-.45-.245-.332-.262-.649-.266-.904v-11.278c-2.477-.96-5.166-1.488-7.983-1.488-2.884 0-5.48.496-7.984 1.487v11.268c-.005.257-.016.567-.257.905-.254.347-.699.472-1.01.46h-11.345c-.959 2.476-1.486 5.166-1.486 7.984 0 2.817.526 5.506 1.487 7.982h11.355c.379-.017.836.17 1.048.506.211.323.203.6.208.739v11.344c2.475.961 5.165 1.488 7.983 1.488zm9.255-31.473v-.113z" transform="matrix(.965926 -.258819 .258819 .965926 -40.53129 108.101842)"/><path d="m383.822 207.984c.001-3.574 2.897-6.469 6.471-6.471 3.573.002 6.469 2.897 6.47 6.471-.001 3.574-2.896 6.469-6.47 6.471-3.573-.002-6.47-2.897-6.471-6.471zm1.547 0c.004 2.719 2.204 4.92 4.924 4.924 2.721-.004 4.921-2.205 4.926-4.924-.005-2.72-2.205-4.919-4.926-4.924-2.72.005-4.92 2.204-4.924 4.924z" transform="matrix(.965926 -.258819 .258819 .965926 -40.53129 108.101842)"/><path d="m331.723 156.884c0-15.707 12.732-28.439 28.439-28.439 15.707 0 28.438 12.732 28.438 28.439 0 15.707-12.731 28.439-28.438 28.439-15.707 0-28.439-12.733-28.439-28.439zm9.422-19.015c-4.869 4.868-7.877 11.588-7.877 19.016 0 7.428 3.008 14.147 7.877 19.018 4.869 4.867 11.588 7.875 19.016 7.875 7.429 0 14.148-3.008 19.016-7.875 4.869-4.871 7.878-11.589 7.878-19.018 0-7.429-3.009-14.148-7.878-19.016-4.869-4.869-11.588-7.878-19.016-7.878-7.428-.001-14.147 3.008-19.016 7.878z" transform="matrix(.965926 -.258819 .258819 .965926 -28.332351 98.562268)"/><path d="m340.317 156.884c0-10.961 8.884-19.843 19.845-19.845 10.959.002 19.843 8.884 19.843 19.845 0 10.96-8.884 19.844-19.843 19.845-10.961-.001-19.845-8.885-19.845-19.845zm1.544 0c.017 10.106 8.193 18.281 18.301 18.299 10.106-.017 18.28-8.192 18.299-18.299-.019-10.106-8.193-18.281-18.299-18.299-10.108.019-18.283 8.194-18.301 18.299z" transform="matrix(.965926 -.258819 .258819 .965926 -28.332377 98.562195)"/></g></svg>