<svg xmlns="http://www.w3.org/2000/svg"><g fill="#fff"><path d="m13.3 87.048c-7.344 0-13.3-5.954-13.3-13.3v-60.448c0-7.346 5.956-13.3 13.3-13.3 7.346 0 13.302 5.954 13.302 13.3v60.446c0 7.348-5.956 13.302-13.302 13.302z"/><path d="m193.676 31.176h-40.15v-7.234h40.15c6.61 0 11.968-5.36 11.968-11.97 0-6.612-5.358-11.97-11.968-11.97h-54.782c-6.61 0-11.97 5.358-11.97 11.97v61.776c0 7.346 5.956 13.3 13.302 13.3 7.344 0 13.3-5.954 13.3-13.3v-18.632h40.15c6.61 0 11.968-5.36 11.968-11.97.002-6.61-5.358-11.97-11.968-11.97z"/><path d="m599.484 69.86-17.218-60.052c-1.018-3.556-3.402-6.346-6.414-7.974-1.84-1.154-4.012-1.832-6.344-1.832h-63.178c-.414 0-.822.022-1.226.062-6.768.62-12.076 6.304-12.076 13.238v60.448c0 7.344 5.954 13.3 13.302 13.3 7.344 0 13.3-5.956 13.3-13.3v-49.808h5.89v49.808c0 7.346 5.956 13.3 13.3 13.3s13.3-5.954 13.3-13.3v-49.808h6.696l15.258 53.204c1.662 5.8 6.95 9.582 12.698 9.582 1.206 0 2.432-.166 3.65-.516 7.016-2.016 11.076-9.334 9.062-16.352z"/><path d="m277.662.002h-45.168c-12.568 0-22.85 10.28-22.85 22.848v41.35c0 12.566 10.282 22.848 22.85 22.848h45.168c12.568 0 22.848-10.282 22.848-22.848v-41.35c0-12.566-10.28-22.848-22.848-22.848zm-2.938 59.684c0 1.462-1.196 2.66-2.66 2.66h-33.974c-1.464 0-2.66-1.198-2.66-2.66v-32.324c0-1.46 1.196-2.658 2.66-2.658h33.974c1.464 0 2.66 1.198 2.66 2.658z"/><path d="m464.774.002h-45.17c-12.564 0-22.85 10.28-22.85 22.848v41.35c0 12.566 10.286 22.848 22.85 22.848h45.17c12.566 0 22.846-10.282 22.846-22.848v-41.35c0-12.566-10.28-22.848-22.846-22.848zm-2.938 59.684c0 1.462-1.198 2.66-2.658 2.66h-33.976c-1.462 0-2.66-1.198-2.66-2.66v-32.324c0-1.46 1.198-2.658 2.66-2.658h33.976c1.46 0 2.658 1.198 2.658 2.658z"/><path d="m116.896.002h-78.388c-3.33 0-6.03 2.7-6.03 6.028v67.718c0 7.346 5.954 13.3 13.3 13.3s13.146-5.954 13.146-13.3v-46.396c0-1.462 1.198-2.658 2.66-2.658h31.984c1.462 0 2.756 1.196 2.756 2.658v46.394c0 7.346 5.956 13.302 13.302 13.302 7.344 0 13.3-5.956 13.3-13.302v-50.382-17.332c0-3.33-2.7-6.03-6.03-6.03z"/><path d="m382.442 62.348h-47.55c-1.462 0-2.66-1.198-2.66-2.662v-32.324c0-1.46 1.198-2.658 2.66-2.658h47.55c6.82 0 12.354-5.528 12.354-12.352 0-6.82-5.532-12.352-12.354-12.352h-17.23-33.866-2.842c-12.502 0-22.73 10.228-22.73 22.73v41.588c0 12.498 10.228 22.73 22.73 22.73h2.842 33.866 17.23c6.82 0 12.354-5.53 12.354-12.354 0-6.822-5.532-12.346-12.354-12.346z"/></g></svg>