<svg xmlns="http://www.w3.org/2000/svg"><g fill="#fff"><path d="m.39 44.646c0 24.675 16.449 44.649 36.816 44.649h102.216c2.352 0 4.701 2.349 4.701 5.481s-1.959 5.484-4.701 5.484h-139.422v39.555h155.871c20.367 0 36.813-20.364 36.813-45.036 0-24.675-16.446-45.039-36.813-45.039h-101.826c-2.349 0-4.698-2.352-4.698-5.484s1.956-5.484 4.698-5.484h138.249v-38.772h-155.082c-20.364 0-36.813 19.974-36.813 44.646z"/><path d="m203.655 0v139.035h48.957v-87.339l93.21 87.339h50.916v-139.035h-48.957v86.946l-93.213-86.946z"/><path d="m457.05 61.098v-61.098h-49.74v139.035h49.74v-61.488l79.11 61.488h63.84l-90.078-69.321 90.078-69.714h-63.84z"/></g></svg>