<svg xmlns="http://www.w3.org/2000/svg"><path d="m518.545 107.957c-10.143 2.34-36.927 3.642-36.927 3.642l-3.297 10.575s13.266-1.128 22.974-.174c0 0 3.12-.261 3.468 3.468.171 3.816-.261 7.803-.261 7.803s-.258 2.34-3.468 2.946c-3.726.606-28.866 1.734-28.866 1.734l-4.074 13.695s-1.476 3.123 1.908 2.256c3.12-.867 29.472-5.895 32.94-5.202 3.642.867 7.8 5.895 6.588 10.401-1.389 5.46-27.741 22.278-43.689 21.15 0 0-8.409.525-15.432-10.833-6.759-10.836 2.343-31.209 2.343-31.209s-4.077-9.534-1.041-13.002c0 0 1.734-1.473 6.933-1.905l6.504-13.35s-7.371.435-11.703-4.941c-3.99-5.202-4.335-7.455-1.212-8.841 3.291-1.734 33.804-7.194 54.783-6.504 0 0 7.368-.867 13.872 11.877 0 0 2.943 5.202-2.259 6.414m-79.143 51.318c-2.601 6.33-9.792 13.002-18.462 8.931-8.842-4.164-22.798-32.595-22.798-32.595s-5.202-10.575-6.24-10.23c0 0-1.131-2.079-1.734 9.537-.867 11.529.171 33.978-4.596 37.533-4.335 3.468-9.537 1.995-12.483-2.079-2.427-4.077-3.468-13.872-2.079-30.948 1.557-17.076 5.46-35.28 10.401-40.917 5.202-5.721 9.36-1.557 10.923 0 0 0 6.675 6.069 17.943 24.012l1.909 3.297s10.227 17.076 11.268 16.989c0 0 .867.867 1.56.174 1.041-.261.692-5.808.692-5.808s-1.905-18.462-11.442-49.671c0 0-1.386-3.987-.431-7.803.867-3.468 4.593-1.734 4.593-1.734s14.388 6.936 21.411 30.342c6.936 23.403 2.256 44.643-.345 50.97m-70.651-60.072c-1.386 2.424-1.995 5.808-7.974 6.759 0 0-58.08 4.077-60.942 8.151 0 0-1.905 2.427 1.215 3.033 3.297.696 16.47 2.43 22.713 2.772 6.759 0 29.472.177 37.791 10.404 0 0 4.77 4.854 4.596 15.864-.171 11.268-2.166 15.255-6.588 19.332-4.596 3.813-43.95 21.498-69.348-5.55 0 0-11.613-13.002 4.077-22.884 0 0 11.265-6.933 40.131 1.125 0 0 8.67 3.123 8.322 6.33-.519 3.468-7.194 6.936-16.902 6.762-9.363-.258-16.299-4.77-14.907-3.987 1.299.432-10.146-5.55-13.701-1.473-3.465 3.81-2.598 6.069.867 8.406 8.67 5.028 42.738 3.207 52.878-8.148 0 0 4.077-4.593-2.079-8.322-6.066-3.468-23.751-5.634-30.6-5.892-6.501-.348-30.858 0-34.5-6.33 0 0-3.465-4.509.345-16.815 3.987-13.005 32.334-18.033 44.646-19.074 0 0 33.807-1.386 40.134 5.55 0 0 .867 1.557-.174 3.9m-95.871 76.281c-4.077 3.036-12.747 1.734-15.258-1.734-2.427-3.033-3.294-14.994-2.862-33.804.609-19.245.867-42.822 5.202-46.638 4.335-3.726 6.936-.435 8.67 2.082 1.731 2.598 3.987 5.457 4.332 11.442.522 6.066 1.992 37.272 1.992 37.272s1.911 28.434-1.992 31.38m8.58-101.421c-11.961 4.077-20.109 2.775-27.042-.258-3.033 5.46-4.857 7.107-7.11 7.455-3.468.345-6.501-5.202-6.936-6.936-.69-1.299-2.34-3.642-.345-8.928-6.762-6.066-7.281-14.217-6.066-19.68 1.557-6.411 13.002-30.51 47.676-33.372 0 0 16.989-1.215 19.935 7.803h.522s16.47 0 16.122 14.736c0 14.736-18.204 33.111-36.756 39.441m15.432-42.216c-10.92 1.734-27.741 16.299-35.799 28.347 12.393 2.253 34.065 1.386 43.773-18.207 0 0 4.593-12.306-7.974-10.14m-47.937 9.537c-3.468 5.634-3.639 9.015-1.992 11.268 4.074-6.069 11.268-15.603 22.104-23.058-8.322.867-15.345 4.335-20.112 11.79m295.339 133.233c-7.977 19.593-14.739 39.441-18.639 69.174 0 0-.867 5.808-5.634 3.903-4.77-1.734-12.57-9.537-14.304-20.544-1.731-14.391 4.68-38.661 17.772-66.573-3.816-6.069-6.504-15.087-4.335-27.741 0 0 3.468-23.403 26.874-44.556 0 0 2.772-2.34 4.335-1.56 1.905.867 1.125 8.322-.435 12.138-1.389 3.639-11.79 21.669-11.79 21.669s-6.501 12.309-4.68 21.93c12.309-18.897 40.308-57.213 57.645-45.075 11.007 7.8 11.007 32.94 2.772 47.502-6.501 11.529-24.879 35.37-49.41 29.82m36.063-58.947c-6.417 6.936-17.859 20.112-26.874 37.971 9.537-1.041 18.81-6.327 21.672-9.018 4.593-4.074 15.168-15.081 13.524-29.643 0 0-1.041-7.629-8.322.69m-388.351 69.09c-30.687 9.363-59.64 5.028-75.414.867-.435 6.414-1.128 9.102-2.169 10.14-1.215 1.389-11.268 7.11-16.818-1.038-2.427-3.903-3.639-10.923-4.335-17.34-35.538-16.119-52.011-39.873-52.53-40.74-.867-.867-8.928-9.276-.867-19.677 7.542-9.36 32.508-18.81 54.873-22.536.867-19.074 2.946-33.81 5.634-40.311 3.207-7.8 7.281-.867 10.923 4.335 2.946 3.9 4.764 20.631 4.941 33.981 14.562-.696 23.403.345 39.612 3.468 21.327 3.639 35.544 14.562 34.416 26.871-1.041 12.135-12.138 17.163-16.473 17.511-4.329.345-11.265-2.862-11.265-2.862-4.854-2.253-.435-4.335 5.202-6.759 6.24-3.033 4.854-6.069 4.854-6.069-2.253-6.936-29.91-11.532-57.39-11.532 0 15.171.609 40.308 1.044 54.96 19.242 3.639 33.633 2.862 33.633 2.862s70.212-1.995 72.207-46.812c2.169-44.901-70.215-87.897-123.525-101.421-53.223-13.956-83.391-4.074-85.989-2.772-2.862 1.386-.264 1.905-.264 1.905s2.862.432 8.064 2.166c5.199 1.734 1.041 4.335 1.041 4.335-9.105 3.12-19.245 1.302-21.24-2.859-1.992-4.077 1.299-7.803 5.202-13.263 3.642-5.634 7.8-5.46 7.8-5.46 65.883-22.974 146.325 18.204 146.325 18.204 75.243 37.965 88.071 82.611 86.685 99.945-1.215 17.076-7.803 45.942-54.177 59.985m-144.765-62.064c-7.455 3.465-2.253 9.015-2.253 9.015 14.043 14.997 31.206 24.444 47.676 30.342 1.908-26.007 1.734-35.283 1.734-48.372-25.485 1.734-40.221 5.892-47.157 9.015" fill="#fff"/></svg>