<svg xmlns="http://www.w3.org/2000/svg"><path d="m.005 93.368c.279-.279 3.075-1.509 6.258-2.793 7.041-2.796 12.348-5.475 18.441-9.165 7.71-4.695 9.273-6.927 27.321-39.168 14.358-25.647 15.867-28.665 15.591-30.396-.168-1.062-.672-2.346-1.176-2.904-.447-.504-.669-1.119-.447-1.398.282-.225.168-.279-.168-.114-.333.225-1.059-.111-1.62-.726-.558-.612-2.457-2.178-4.245-3.462-1.845-1.341-3.297-2.571-3.297-2.793 0-.282 11.064-.447 24.584-.447 23.019 0 24.585.054 24.585 1.005 0 2.682 1.62 18.159 1.956 18.438.168.168 2.124-1.452 4.359-3.576 2.232-2.178 7.095-6.648 10.782-9.891l6.762-5.976h109.179c120.189 0 114.936-.168 122.814 3.408 9.666 4.356 15.699 15.141 15.699 27.879 0 8.718-1.896 14.751-6.144 19.335-1.23 1.341-2.235 2.904-2.235 3.408.054 1.284 11.901 16.707 16.371 21.288 4.359 4.47 13.242 10.728 15.198 10.728.222 0-1.398-1.956-3.576-4.302-2.961-3.186-4.635-5.7-6.651-9.891-3.129-6.369-3.912-9.33-6.258-23.523-.891-5.532-2.175-12.684-2.793-15.924-1.788-9.444-1.338-14.805 1.788-20.841 2.124-3.912 5.364-6.987 10.059-9.441l3.519-1.848h72.639 72.636l4.191 1.287c7.317 2.289 15.924 7.095 20.451 11.4 5.196 4.914 8.1 9.219 16.146 23.913 3.633 6.594 7.767 14.136 9.222 16.761 2.793 5.088 6.144 12.294 7.32 15.927.387 1.227.726 4.749.726 7.821.054 4.695-.171 5.979-1.173 7.824-1.677 3.129-4.359 5.586-8.049 7.206l-3.129 1.455-66.435-.114-66.435-.168 5.028-2.736c7.656-4.248 12.573-9.444 12.573-13.353 0-2.238-19.224-57.999-21.456-62.19-2.4-4.638-4.134-5.922-9.945-7.431-5.478-1.509-5.532-1.509-2.904.39 6.423 4.695 9.552 11.007 16.425 33.078 5.979 19.164 6.705 22.182 6.705 28.218 0 12.012-6.315 20.898-16.764 23.691-1.896.501-17.823.615-63.975.501-53.697-.168-127.116.057-127.116.057h-29.337l3.915-2.067c13.746-7.434 16.761-9.723 18.606-13.914.729-1.731 1.566-6.147 2.292-12.459.672-5.364 1.452-11.679 1.731-13.971.837-6.48 2.793-24.585 2.793-26.091 0-1.341-.057-1.341-4.86-1.173l-4.92.165-2.514 3.747c-1.398 2.064-4.242 6.648-6.426 10.167-2.121 3.519-3.963 6.315-4.077 6.201-.114-.111.225-3.687.726-7.989.504-4.302.837-8.268.726-8.829-.111-.558-1.119 3.129-2.346 8.16-1.176 5.082-2.292 9.441-2.514 9.666-.225.222-1.008-2.682-1.734-6.426-.672-3.801-1.674-8.493-2.178-10.506l-.894-3.63-12.963-.168-12.963-.111-.615 2.346c-.336 1.341-.726 2.847-.894 3.408-.279.894.615.948 13.41.948 11.064 0 13.746.168 13.746.726 0 .45-1.005 5.535-2.235 11.346s-2.232 10.728-2.232 11.004c0 .225-6.654.393-14.754.393h-14.694l-.894 3.243c-.504 1.728-1.062 4.245-1.284 5.586l-.393 2.346h13.128 13.131l7.209-8.829c3.969-4.917 7.263-8.547 7.374-8.157.114.447-.558 5.589-1.506 11.511s-2.346 15.084-3.129 20.283c-.783 5.25-1.563 10.335-1.734 11.34l-.336 1.791h-71.352c-68.949 0-71.24-.057-69.618-1.008.952-.558 4.47-2.625 7.821-4.638 4.248-2.457 7.377-4.803 10.002-7.485 3.408-3.411 4.359-4.917 7.602-11.736 2.067-4.302 3.909-8.379 4.131-9.105.225-.672 1.398-3.411 2.628-6.036 1.23-2.682 2.178-5.028 2.067-5.307-.111-.225-2.793 2.121-6.033 5.25-4.974 4.863-8.94 8.493-19.836 18.384l-1.677 1.566-.39-2.682c-.225-1.455-.672-6.651-1.008-11.568-.783-11.901-1.116-14.862-1.788-14.472-.279.168-.393.447-.222.615.111.168-3.243 7.263-7.487 15.813-4.248 8.493-8.046 16.539-8.382 17.826-.948 3.519.057 5.811 4.638 10.56l3.912 4.023h-37.605c-22.125 0-37.437-.225-37.101-.504zm303.734-7.266c2.685-1.617 5.367-3.519 5.979-4.299 2.463-3.129 2.514-3.912 2.067-35.592-.444-34.143-.333-33.414-4.914-36.711l-2.403-1.788-.39 2.178c-.228 1.173-.393 4.638-.447 7.713-.057 6.702-1.398 26.985-1.788 27.432-.339.336-3.912-8.772-6.258-15.756-1.734-5.253-1.677-5.253-8.493-5.253h-4.47l-.672 10.785c-.393 5.865-1.062 16.149-1.509 22.74-.447 6.594-.84 14.193-.84 16.875 0 4.917 0 4.917 2.124 7.263 2.067 2.292 5.7 4.917 11.007 7.824 2.739 1.509 2.796 1.509 4.47.501.894-.558 3.855-2.289 6.537-3.912zm53.532 2.406c0-.168-.837-1.62-1.845-3.186-1.005-1.62-2.682-4.302-3.744-5.979-1.008-1.677-3.351-5.478-5.139-8.382-1.734-2.904-3.744-5.922-4.413-6.705l-1.119-1.395.333 6.426c.39 7.932.951 10.056 3.183 12.627 2.295 2.571 12.744 7.989 12.744 6.594zm-213.276-5.646c3.24-3.183 4.86-5.25 5.979-7.71 1.398-3.015 7.764-22.461 16.482-50.286 3.354-10.617 3.576-13.245 1.566-15.477-1.623-1.788-4.863-.84-8.439 2.568-2.571 2.346-3.519 4.413-7.935 16.764-4.47 12.405-10.167 28.104-15.03 41.013-1.899 4.971-3.408 9.945-3.408 10.95 0 1.509.504 2.346 2.514 4.191 1.341 1.227 2.796 2.289 3.129 2.289.336 0 2.628-1.953 5.142-4.302zm378.105-2.847c0-2.124-.837-4.584-4.638-13.245-8.715-20.058-13.8-31.791-16.428-37.992-5.586-13.245-7.821-16.485-12.738-18.384-2.067-.84-2.46-.84-5.31.057-3.963 1.284-4.023 2.01-1.227 9.663 3.63 9.666 13.185 34.365 16.872 43.305 1.902 4.638 3.804 9.387 4.305 10.617 1.23 3.072 5.925 7.767 10.056 10.113 1.956 1.116 3.687 2.235 3.855 2.568.225.393 1.398-.39 2.85-1.953 1.956-2.124 2.403-2.961 2.403-4.749zm41.013-18.552c.336-2.067-.057-2.961-4.248-10.785-2.514-4.638-5.64-10.449-6.927-12.906-2.181-4.134-2.628-4.581-7.545-7.935-5.25-3.573-5.25-3.573-9.273-3.573-2.178 0-4.191.276-4.359.555-.168.336-.054.561.225.561.333 0 .615.222.615.447 0 .279 3.909 8.436 8.661 18.159l8.661 17.712h6.927 6.87zm-135.555.225c.672-.45 1.23-1.287 1.23-1.788 0-1.173-7.041-27.603-7.935-29.949-.444-1.119-1.563-2.013-3.963-3.186-3.189-1.509-3.357-1.509-5.199-.615-1.062.447-1.899 1.116-1.899 1.398 0 .279.726 3.798 1.677 7.821.891 4.08 2.457 11.007 3.465 15.423l1.842 8.046 3.351 1.842c3.687 2.07 5.535 2.346 7.431 1.008zm-77.721-25.926 1.23-3.075-1.899-3.351-1.845-3.354-4.302-.168-4.245-.165.333 5.475c.558 8.661.171 8.046 5.199 7.878l4.302-.168zm182.319-5.031c0-.279-.108-.558-.222-.558-.168 0-.447.279-.615.558-.165.336-.054.558.225.558.336 0 .612-.222.612-.558z" fill="#fff"/></svg>