<svg xmlns="http://www.w3.org/2000/svg"><g fill="#fff"><path d="m59.52 38.994h21.681l29.991 48.525-.015-48.525h21.513v69.585h-21.483l-30.15-48.525v48.525h-21.546z"/><path d="m249.642 46.149h20.94v9.363h11.331v6.885h-11.331l.015 46.182h-20.955l.009-46.182h-11.379v-6.867l11.388-.009z"/><path d="m144.666 62.301 20.922.009v46.269h-20.922z"/><path d="m144.618 38.979h20.97v14.223h-20.97z"/><path d="m519.762 85.074s-.006 6.996-.006 9.801c0 7.377-4.359 10.422-8.55 10.422-4.2 0-8.574-3.045-8.574-10.422 0-2.805.009-9.978.009-9.978s.015-6.843.015-9.648c0-7.347 4.383-10.365 8.55-10.365 4.176 0 8.55 3.018 8.55 10.365 0 2.805-.009 7.992.015 9.849zm-8.406-25.929c-16.89 0-30.579 11.634-30.579 25.983 0 14.352 13.695 25.986 30.579 25.986 16.893 0 30.582-11.634 30.582-25.986 0-14.349-13.689-25.983-30.582-25.983z"/><path d="m453.312 38.994h20.652v69.585h-20.685s-.009-2.247-.009-2.676c-8.007 5.028-17.043 5.019-24.078 1.737-1.89-.879-14.31-6.837-14.31-22.941 0-12.216 11.52-25.554 26.604-24.231 4.965.438 8.493 2.247 11.841 4.128-.015-10.71-.015-25.602-.015-25.602zm.15 46.215s0-5.799 0-8.271c0-7.155-4.941-8.979-8.19-8.979-3.333 0-8.208 1.824-8.208 8.979 0 2.376.009 8.247.009 8.247s-.009 5.769-.009 8.232c0 7.146 4.875 9.018 8.199 9.018 3.258 0 8.208-1.872 8.208-9.018 0-2.973-.009-8.208-.009-8.208z"/><path d="m214.575 60.165c7.824-.222 23.697 4.902 23.586 23.22-.015 3.249-.009 25.179-.009 25.179h-20.787s0-27.498 0-30.39c0-4.032-3.858-8.517-9.561-8.517-5.697 0-9.936 4.485-9.936 8.517 0 1.977.024 30.39.024 30.39h-20.772l-.009-46.272 20.787-.015s-.024 3.72 0 4.869c4.002-3.816 9.762-6.78 16.677-6.981z"/><path d="m384.627 60.165c7.824-.222 23.697 4.902 23.586 23.22-.018 3.249-.009 25.179-.009 25.179h-20.787s0-27.498 0-30.39c0-4.032-3.858-8.517-9.564-8.517-5.697 0-9.936 4.485-9.936 8.517 0 1.977.024 30.39.024 30.39h-20.772l.018-46.272 20.763-.015s-.024 3.72 0 4.869c3.999-3.816 9.768-6.78 16.677-6.981z"/><path d="m301.401 78.435c-.03-4.053.057-6.762 1.389-9.075 1.632-2.853 4.635-4.206 7.362-4.221h-.009c2.724.015 5.73 1.368 7.362 4.221 1.332 2.319 1.386 5.028 1.356 9.084zm17.388 13.953s.015.207.015 2.805c0 8.463-5.568 10.341-8.661 10.341-3.09 0-8.757-1.878-8.757-10.341 0-2.535.015-9.555.015-9.555s39.42.018 39.42-.006c0-14.352-13.857-26.238-30.876-26.238-17.022 0-30.813 11.631-30.813 25.983 0 14.349 13.791 25.974 30.813 25.974 14.118 0 26.046-8.055 29.688-18.978z"/><path d="m78.477 147.813c-47.043-.015-78.477-33.354-78.477-73.776 0-40.419 31.506-74.139 78.405-74.037h443.19c46.899-.102 78.405 33.618 78.405 74.037 0 40.422-31.434 73.761-78.477 73.776zm.141-129.63c-37.242.072-60.102 24.963-60.102 55.761 0 30.786 22.719 55.884 60.102 55.749h442.764c37.383.129 60.108-24.963 60.108-55.749 0-30.789-22.86-55.68-60.102-55.752z"/></g></svg>