<svg preserveAspectRatio="none" xmlns="http://www.w3.org/2000/svg"><g fill="#1e1e1e"><path d="m364.157 250.898-.13.13s-8.025 7.897-9.022 8.92c-.403.413-.637.744-.769.988s-.16.465-.16.465l-.014.028v.03 1.075.465h.464 172.476.465v-.465-1.046c-.001-.001-.01.008.058-.116.084-.155.258-.422.609-.784.922-.945 9.007-8.891 9.007-8.891l.814-.799h-1.133-172.476zm.392.93h171.125c-1.201 1.181-7.301 7.189-8.207 8.12-.402.413-.624.744-.756.988-.131.244-.174.465-.174.465v.028.03.61h-171.546v-.552s-.012.01.073-.145c.084-.155.257-.422.609-.784.907-.931 8.647-8.535 8.876-8.76z" transform="matrix(.965926 -.258819 .258819 .965926 -51.305796 124.19082)"/><path d="m383.59 268.993s-8.024 7.896-9.021 8.92c-.403.412-.624.743-.756.987-.131.245-.173.465-.173.465v.029.029 1.075h.929v-1.046c0-.001-.008.009.059-.116.084-.155.256-.422.61-.784.919-.944 9.007-8.891 9.007-8.891z" transform="matrix(.965926 -.258819 .258819 .965926 -58.197286 107.439466)"/><path d="m400.246 264.53s-8.01 7.896-9.007 8.92c-.403.412-.638.743-.769.987-.132.245-.174.465-.174.465v.029.029 1.075h.93v-1.016s-.026.01.058-.145c.084-.156.257-.423.609-.785.92-.944 9.008-8.89 9.008-8.89z" transform="matrix(.965926 -.258819 .258819 .965926 -56.474545 111.598022)"/><path d="m416.902 260.067s-8.01 7.897-9.007 8.92c-.402.413-.637.744-.77.988-.131.244-.174.464-.174.464v.029.03 1.075h.931v-1.016s-.012.009.072-.146.257-.422.61-.784c.92-.944 8.992-8.891 8.992-8.891z" transform="matrix(.965926 -.258819 .258819 .965926 -54.752061 115.756588)"/><path d="m433.572 255.602s-8.025 7.897-9.021 8.92c-.403.413-.639.744-.77.988-.132.244-.16.464-.16.464l-.015.029v.03 1.075h.93v-1.016s-.011.01.073-.145c.084-.156.257-.423.61-.785.919-.944 9.006-8.891 9.006-8.891z" transform="matrix(.965926 -.258819 .258819 .965926 -53.028694 119.916892)"/><path d="m450.227 251.137s-8.025 7.898-9.021 8.92c-.402.413-.623.744-.755.988s-.174.464-.174.464v.029.03 1.075h.93v-1.046c-.001-.001-.01.008.058-.116.084-.155.257-.422.61-.784.921-.945 9.006-8.891 9.006-8.891z" transform="matrix(.965926 -.258819 .258819 .965926 -51.305255 124.077505)"/><path d="m466.883 246.675s-8.009 7.896-9.006 8.919c-.403.413-.638.744-.77.988-.132.245-.174.465-.174.465v.028.03 1.075h.93v-1.046c-.001-.001-.009.008.058-.116.084-.155.257-.422.61-.784.92-.944 9.006-8.891 9.006-8.891z" transform="matrix(.965926 -.258819 .258819 .965926 -49.58277 128.236486)"/><path d="m483.539 242.212s-8.01 7.896-9.007 8.92c-.401.412-.637.743-.77.987-.131.245-.174.465-.174.465v.029.029 1.075h.93v-1.016s-.011.01.073-.145c.083-.156.257-.423.61-.785.921-.944 8.991-8.89 8.991-8.89z" transform="matrix(.965926 -.258819 .258819 .965926 -47.86014 132.394979)"/><path d="m500.208 237.749s-8.023 7.897-9.02 8.92c-.403.412-.638.744-.77.988s-.16.464-.16.464l-.015.029v.03 1.075h.93v-1.016s-.01.009.073-.146c.084-.155.257-.422.609-.784.921-.944 8.993-8.891 8.993-8.891z" transform="matrix(.965926 -.258819 .258819 .965926 -46.137656 136.553763)"/><path d="m516.864 233.284s-8.024 7.897-9.021 8.92c-.402.413-.622.744-.756.988-.131.244-.174.464-.174.464l-.014.029v.03 1.075h.93v-1.016s-.011.009.073-.146.257-.422.61-.784c.92-.944 9.006-8.891 9.006-8.891z" transform="matrix(.965926 -.258819 .258819 .965926 -44.414216 140.71414)"/><path d="m390.503 213.751s-1.463-.117-2.804 1.133c-.003.004-.096.082-.102.087-.145-.35-.348-.678-.682-.915-.28-.198-.657-.302-1.047-.233s-.774.289-1.162.654l-.043.043c-.344.321-2.95 2.689-6.683 6.072-3.758 3.406-8.641 7.824-13.481 12.203-9.68 8.759-19.19 17.36-19.19 17.36l-.9.813h1.22 2.993.174l.13-.131s9.549-8.536 19.249-17.214c4.849-4.339 9.744-8.711 13.495-12.072 3.752-3.36 6.327-5.681 6.668-5.999h.015c1.083-1.005 2.048-.872 2.048-.872zm-4.474.988c.151-.027.237-.006.348.072.189.133.355.512.45.858-.753.683-2.522 2.28-5.781 5.2-3.751 3.36-8.646 7.733-13.496 12.072-9.634 8.62-18.989 16.984-19.117 17.098h-1.613c.818-.739 9.071-8.205 18.304-16.561 4.84-4.379 9.722-8.796 13.481-12.202s6.366-5.777 6.74-6.131c.301-.282.532-.379.684-.406z" transform="matrix(.965926 -.258819 .258819 .965926 -47.617913 103.021961)"/><path d="m394.6 212.651s-1.449-.117-2.789 1.133c-.004.004-.096.082-.102.087-.145-.35-.347-.678-.682-.915-.28-.198-.672-.302-1.061-.233s-.76.289-1.147.654c-.314.295-2.982 2.71-6.741 6.115-3.758 3.406-8.64 7.824-13.48 12.203-9.68 8.759-19.19 17.36-19.19 17.36l-.886.813h1.205 2.993.174l.131-.131s9.548-8.536 19.249-17.214c4.849-4.339 9.743-8.711 13.495-12.071 3.751-3.361 6.326-5.682 6.668-6l.057-.043c1.063-.954 2.005-.829 2.005-.829zm-4.46.988c.152-.027.238-.006.349.072.187.133.34.514.436.858-.757.686-2.527 2.284-5.782 5.2-3.751 3.36-8.631 7.733-13.481 12.072-9.634 8.62-18.989 16.984-19.117 17.098h-1.627c.817-.739 9.07-8.205 18.304-16.561 4.839-4.379 9.721-8.796 13.481-12.202 3.758-3.406 6.365-5.777 6.74-6.131.3-.282.545-.379.697-.406z" transform="matrix(.965926 -.258819 .258819 .965926 -47.193333 104.04694)"/><path d="m398.711 211.551s-1.463-.117-2.803 1.133c-.004.004-.096.082-.101.087-.146-.35-.348-.678-.684-.915-.279-.198-.656-.302-1.046-.233-.389.069-.774.289-1.161.654-.314.295-2.968 2.71-6.727 6.115-3.758 3.406-8.641 7.824-13.481 12.203-9.679 8.759-19.189 17.36-19.189 17.36l-.901.813h1.206 3.007.174l.131-.131s9.549-8.536 19.248-17.214c4.85-4.339 9.729-8.711 13.481-12.071 3.751-3.361 6.342-5.682 6.683-6 1.087-1.015 2.062-.872 2.062-.872zm-4.474.988c.152-.027.238-.006.349.072.189.133.355.513.45.858-.753.683-2.522 2.28-5.782 5.2-3.751 3.36-8.645 7.733-13.495 12.072-9.633 8.62-18.989 16.984-19.117 17.099h-1.612c.817-.74 9.07-8.206 18.303-16.562 4.84-4.379 9.723-8.796 13.482-12.202 3.635-3.295 6.019-5.459 6.522-5.927l.217-.203c.301-.283.532-.38.683-.407z" transform="matrix(.965926 -.258819 .258819 .965926 -46.768815 105.071517)"/><path d="m402.808 210.452s-1.449-.118-2.788 1.132c-.004.004-.097.083-.102.087-.146-.349-.348-.677-.683-.915-.28-.197-.671-.301-1.06-.232-.39.069-.775.289-1.163.654-.312.294-2.967 2.709-6.726 6.115-3.758 3.406-8.64 7.823-13.48 12.203-9.68 8.758-19.19 17.359-19.19 17.359l-.887.814h1.206 2.993.174l.131-.131s9.548-8.536 19.248-17.215c4.85-4.339 9.744-8.711 13.495-12.071 3.752-3.361 6.327-5.681 6.668-5.999 1.087-1.015 2.063-.872 2.063-.872zm-4.473.988c.151-.027.252-.007.362.072.192.135.342.522.437.872-.76.689-2.531 2.273-5.782 5.185-3.751 3.36-8.631 7.733-13.481 12.072-9.634 8.62-18.989 16.984-19.117 17.099h-1.627c.818-.74 9.071-8.206 18.304-16.561 4.84-4.38 9.721-8.797 13.481-12.203 3.759-3.406 6.366-5.777 6.74-6.13.3-.282.531-.38.683-.406z" transform="matrix(.965926 -.258819 .258819 .965926 -46.344527 106.096259)"/><path d="m406.92 209.352s-1.464-.118-2.803 1.132c-.005.004-.097.083-.102.087-.145-.349-.348-.677-.683-.915-.28-.197-.657-.301-1.046-.232s-.775.289-1.163.654c-.312.294-2.967 2.71-6.726 6.115-3.758 3.406-8.64 7.823-13.48 12.203-9.68 8.758-19.19 17.359-19.19 17.359l-.901.814h1.207 2.992.189l.131-.131s9.548-8.536 19.247-17.215c4.851-4.339 9.73-8.711 13.481-12.071 3.752-3.36 6.342-5.681 6.682-5.999 1.087-1.015 2.049-.872 2.049-.872zm-4.475.988c.152-.027.238-.007.35.072.187.133.339.514.435.857-.757.687-2.525 2.285-5.782 5.201-3.75 3.36-8.631 7.733-13.48 12.072-9.635 8.619-18.99 16.984-19.118 17.098h-1.612c.818-.74 9.056-8.206 18.289-16.561 4.841-4.379 9.736-8.796 13.496-12.203 3.636-3.294 6.02-5.459 6.522-5.926l.218-.204c.3-.282.531-.379.682-.406z" transform="matrix(.965926 -.258819 .258819 .965926 -45.919947 107.121031)"/><path d="m411.017 208.252s-1.448-.117-2.789 1.133c-.004.004-.11.096-.116.102-.145-.355-.344-.69-.683-.93-.28-.198-.657-.302-1.046-.232-.389.069-.775.288-1.162.654-.313.294-2.968 2.709-6.726 6.115-3.759 3.406-8.642 7.823-13.481 12.202-9.679 8.759-19.191 17.36-19.191 17.36l-.886.813h1.207 2.992.175l.131-.131s9.547-8.536 19.247-17.214c4.851-4.339 9.744-8.711 13.496-12.071 3.751-3.361 6.327-5.682 6.667-5.999 1.088-1.016 2.063-.873 2.063-.873zm-4.474.988c.151-.027.237-.006.349.073.19.135.356.522.449.871-.76.689-2.53 2.273-5.781 5.186-3.751 3.36-8.646 7.732-13.495 12.072-9.634 8.619-18.99 16.984-19.118 17.098h-1.612c.818-.739 9.07-8.206 18.303-16.561 4.84-4.379 9.723-8.796 13.482-12.203 3.759-3.405 6.365-5.777 6.74-6.13.3-.282.531-.379.683-.406z" transform="matrix(.965926 -.258819 .258819 .965926 -45.495431 108.145808)"/><path d="m415.115 207.154s-1.45-.117-2.789 1.133c-.004.004-.097.083-.102.087-.145-.35-.348-.678-.683-.915-.28-.198-.656-.302-1.047-.232-.388.069-.774.288-1.162.653-.313.295-2.982 2.71-6.74 6.116-3.759 3.406-8.641 7.823-13.481 12.202-9.679 8.759-19.176 17.36-19.176 17.36l-.9.813h1.205 2.993.175l.145-.131s9.534-8.536 19.233-17.214c4.85-4.339 9.744-8.711 13.496-12.071 3.752-3.361 6.341-5.682 6.682-6 1.087-1.015 2.048-.872 2.048-.872zm-4.46.988c.151-.027.237-.006.349.073.187.132.339.514.435.857-.757.686-2.525 2.284-5.781 5.2-3.752 3.36-8.632 7.733-13.481 12.072-9.635 8.62-18.99 16.984-19.117 17.099h-1.613c.817-.74 9.056-8.206 18.289-16.561 4.84-4.38 9.723-8.797 13.481-12.203 3.636-3.295 6.035-5.459 6.537-5.927l.219-.203c.299-.283.531-.38.682-.407z" transform="matrix(.965926 -.258819 .258819 .965926 -45.07161 109.169042)"/><path d="m419.227 206.054s-1.465-.117-2.804 1.133c-.004.004-.097.083-.102.087-.145-.35-.347-.678-.683-.915-.28-.198-.656-.302-1.046-.232-.389.069-.774.288-1.162.654-.314.294-2.968 2.709-6.726 6.115s-8.641 7.823-13.481 12.202c-9.678 8.759-19.19 17.36-19.19 17.36l-.901.813h1.221 2.992.175l.13-.131s9.549-8.536 19.248-17.214c4.85-4.339 9.73-8.711 13.481-12.071 3.752-3.361 6.341-5.682 6.683-5.999 1.087-1.016 2.062-.872 2.062-.872zm-4.475.988c.152-.027.238-.006.349.073.188.133.354.512.45.857-.754.683-2.522 2.28-5.782 5.2-3.751 3.36-8.646 7.733-13.495 12.072-9.634 8.62-18.989 16.984-19.118 17.099h-1.612c.818-.74 9.071-8.206 18.304-16.561 4.84-4.38 9.722-8.797 13.481-12.203s6.365-5.777 6.741-6.13c.299-.283.53-.38.682-.407z" transform="matrix(.965926 -.258819 .258819 .965926 -44.647117 110.194142)"/><path d="m423.295 204.964s-1.464-.117-2.804 1.133c-.004.004-.096.083-.101.087-.146-.35-.348-.678-.684-.915-.279-.198-.656-.302-1.045-.233-.39.069-.774.289-1.162.654-.313.295-2.982 2.71-6.741 6.115-3.758 3.407-8.627 7.824-13.466 12.203-9.679 8.759-19.19 17.36-19.19 17.36l-.9.813h1.206 2.992.175l.144-.131s9.549-8.536 19.248-17.214c4.85-4.339 9.73-8.711 13.481-12.071 3.752-3.361 6.342-5.682 6.683-6 1.087-1.015 2.048-.872 2.048-.872zm-4.474.988c.152-.027.238-.006.349.072.187.133.34.514.436.858-.758.686-2.526 2.284-5.781 5.2-3.752 3.36-8.632 7.733-13.482 12.072-9.633 8.62-18.989 16.984-19.117 17.099h-1.612c.818-.74 9.056-8.206 18.289-16.562 4.84-4.379 9.723-8.796 13.481-12.202 3.759-3.406 6.381-5.777 6.756-6.13.298-.283.529-.38.681-.407z" transform="matrix(.965926 -.258819 .258819 .965926 -44.226295 111.209876)"/><path d="m427.392 203.865s-1.463-.118-2.803 1.132c-.004.004-.097.083-.102.087-.146-.349-.348-.677-.684-.915-.279-.197-.655-.301-1.045-.232s-.774.289-1.162.654c-.313.294-2.968 2.709-6.726 6.115-3.759 3.406-8.64 7.823-13.481 12.203-9.679 8.758-19.189 17.359-19.189 17.359l-.887.814h1.206 2.992.175l.13-.131s9.548-8.536 19.248-17.215c4.849-4.339 9.744-8.711 13.495-12.071s6.327-5.681 6.668-5.999c1.087-1.015 2.063-.872 2.063-.872zm-4.474.988c.151-.027.237-.007.348.072.189.133.355.512.45.857-.753.684-2.522 2.28-5.781 5.201-3.751 3.36-8.646 7.733-13.495 12.071-9.634 8.62-18.989 16.985-19.118 17.099h-1.612c.818-.74 9.071-8.206 18.304-16.561 4.839-4.379 9.721-8.796 13.48-12.203 3.759-3.405 6.367-5.777 6.741-6.13.301-.282.532-.38.683-.406z" transform="matrix(.965926 -.258819 .258819 .965926 -43.802065 112.234882)"/><path d="m431.489 202.767s-1.449-.118-2.789 1.132c-.004.004-.097.083-.102.087-.145-.349-.347-.677-.682-.915-.28-.197-.671-.301-1.061-.232s-.759.289-1.148.654c-.312.294-2.982 2.709-6.739 6.115-3.759 3.406-8.642 7.823-13.482 12.203-9.679 8.758-19.175 17.359-19.175 17.359l-.901.814h1.207 2.992.174l.131-.131s9.548-8.536 19.248-17.215c4.849-4.339 9.745-8.711 13.495-12.071 3.752-3.361 6.342-5.681 6.683-5.999 1.086-1.015 2.048-.872 2.048-.872zm-4.459.988c.151-.027.238-.007.348.072.187.132.34.514.437.857-.757.687-2.527 2.285-5.782 5.201-3.751 3.36-8.631 7.733-13.481 12.071-9.634 8.62-18.99 16.985-19.117 17.099h-1.627c.817-.74 9.07-8.206 18.303-16.561 4.84-4.379 9.722-8.796 13.481-12.203 3.636-3.294 6.035-5.459 6.538-5.927l.217-.203c.3-.282.531-.38.683-.406z" transform="matrix(.965926 -.258819 .258819 .965926 -43.378212 113.257595)"/><path d="m435.601 201.667s-1.464-.118-2.803 1.132c-.004.004-.097.083-.102.088-.145-.35-.348-.678-.684-.916-.279-.197-.656-.301-1.046-.232-.388.069-.774.289-1.161.654-.313.294-2.969 2.71-6.725 6.115-3.76 3.406-8.642 7.824-13.482 12.203-9.68 8.758-19.19 17.36-19.19 17.36l-.9.813h1.205 3.008.173l.131-.131s9.548-8.536 19.248-17.215c4.85-4.339 9.729-8.711 13.481-12.071 3.751-3.361 6.341-5.681 6.683-5.999 1.087-1.015 2.062-.872 2.062-.872zm-4.474.988c.151-.027.237-.007.349.072.188.133.354.512.45.857-.754.684-2.523 2.281-5.782 5.201-3.751 3.36-8.645 7.733-13.495 12.072-9.634 8.619-18.989 16.984-19.117 17.098h-1.613c.818-.739 9.071-8.206 18.304-16.561 4.84-4.379 9.722-8.796 13.481-12.203 3.759-3.405 6.366-5.777 6.74-6.13.3-.282.53-.379.683-.406z" transform="matrix(.965926 -.258819 .258819 .965926 -42.953643 114.28256)"/><path d="m439.698 200.567s-1.449-.117-2.79 1.133c-.003.004-.096.083-.101.087-.146-.35-.348-.678-.683-.915-.28-.198-.671-.302-1.061-.232-.39.069-.759.288-1.148.654-.313.294-2.981 2.709-6.74 6.115-3.758 3.406-8.641 7.823-13.481 12.202-9.679 8.759-19.189 17.36-19.189 17.36l-.887.813h1.206 2.993.174l.131-.131s9.548-8.536 19.248-17.214c4.85-4.339 9.745-8.711 13.495-12.071 3.752-3.361 6.328-5.682 6.669-5.999 1.087-1.016 2.062-.873 2.062-.873zm-4.46.988c.151-.027.237-.006.349.073.187.132.339.514.435.857-.756.686-2.526 2.284-5.781 5.2-3.751 3.36-8.631 7.733-13.481 12.072-9.634 8.62-18.989 16.984-19.117 17.099h-1.628c.818-.74 9.071-8.206 18.305-16.561 4.839-4.38 9.722-8.797 13.481-12.203 3.758-3.406 6.366-5.777 6.74-6.13.3-.283.546-.38.697-.407z" transform="matrix(.965926 -.258819 .258819 .965926 -42.529123 115.307145)"/><path d="m443.81 199.467s-1.464-.117-2.804 1.133c-.004.004-.096.083-.102.087-.144-.35-.347-.678-.682-.915-.28-.198-.657-.302-1.046-.232-.39.069-.774.288-1.163.653-.312.295-2.966 2.71-6.725 6.116s-8.641 7.823-13.481 12.202c-9.679 8.759-19.19 17.36-19.19 17.36l-.9.813h1.206 2.992.189l.13-.131s9.549-8.536 19.249-17.214c4.85-4.339 9.729-8.711 13.481-12.071 3.751-3.361 6.341-5.682 6.682-5.999 1.087-1.016 2.063-.873 2.063-.873zm-4.475.988c.152-.027.238-.006.349.073.188.133.354.512.45.857-.754.683-2.523 2.28-5.782 5.2-3.751 3.36-8.646 7.733-13.495 12.072-9.633 8.62-18.989 16.984-19.117 17.099h-1.613c.817-.74 9.071-8.206 18.304-16.561 4.839-4.38 9.721-8.797 13.481-12.203 3.758-3.406 6.365-5.777 6.74-6.13.3-.283.532-.38.683-.407z" transform="matrix(.965926 -.258819 .258819 .965926 -42.10453 116.332233)"/><path d="m447.907 198.368s-1.449-.118-2.79 1.133c-.004.004-.11.096-.116.101-.145-.354-.343-.689-.683-.929-.28-.198-.656-.302-1.045-.233-.39.069-.775.289-1.163.654-.314.295-2.967 2.71-6.726 6.115-3.759 3.406-8.641 7.824-13.481 12.203-9.679 8.759-19.19 17.36-19.19 17.36l-.886.813h1.206 2.993.174l.13-.131s9.548-8.536 19.248-17.215c4.851-4.339 9.744-8.711 13.496-12.071 3.751-3.361 6.327-5.681 6.667-5.999 1.088-1.015 2.063-.872 2.063-.872zm-4.475.988c.151-.027.237-.007.349.072.191.135.356.523.45.872-.76.689-2.53 2.273-5.782 5.186-3.751 3.36-8.646 7.732-13.495 12.071-9.634 8.62-18.99 16.984-19.118 17.099h-1.612c.818-.74 9.07-8.206 18.304-16.561 4.839-4.38 9.722-8.797 13.481-12.203 3.758-3.406 6.366-5.777 6.74-6.13.301-.282.532-.379.683-.406z" transform="matrix(.965926 -.258819 .258819 .965926 -41.680258 117.356858)"/><path d="m452.004 197.27s-1.449-.118-2.789 1.132c-.004.004-.096.083-.102.088-.145-.35-.347-.678-.683-.916-.279-.197-.656-.301-1.045-.232-.39.069-.775.289-1.162.654-.314.294-2.982 2.71-6.741 6.115-3.759 3.406-8.642 7.824-13.481 12.203-9.679 8.758-19.175 17.36-19.175 17.36l-.901.813h1.206 2.993.174l.145-.131s9.534-8.536 19.234-17.215c4.849-4.339 9.744-8.711 13.495-12.071 3.751-3.361 6.341-5.681 6.682-5.999 1.087-1.015 2.049-.872 2.049-.872zm-4.46.988c.151-.027.237-.007.348.072.188.133.34.514.437.857-.757.687-2.526 2.285-5.782 5.201-3.752 3.36-8.632 7.733-13.481 12.072-9.634 8.619-18.989 16.984-19.117 17.098h-1.613c.818-.74 9.056-8.206 18.289-16.561 4.84-4.379 9.722-8.796 13.482-12.203 3.635-3.294 6.034-5.459 6.537-5.926l.217-.204c.3-.282.532-.379.683-.406z" transform="matrix(.965926 -.258819 .258819 .965926 -41.256464 118.379945)"/><path d="m456.158 196.159s-1.464-.118-2.804 1.132c-.004.004-.097.083-.102.087-.145-.349-.347-.678-.683-.915-.28-.197-.656-.302-1.046-.232-.389.069-.774.288-1.162.654-.313.294-2.967 2.709-6.726 6.115-3.758 3.406-8.64 7.823-13.481 12.203-9.679 8.758-19.189 17.359-19.189 17.359l-.901.814h1.206 2.993.189l.13-.131s9.549-8.536 19.248-17.215c4.851-4.339 9.73-8.711 13.481-12.071 3.751-3.361 6.341-5.682 6.682-5.999 1.087-1.015 2.063-.872 2.063-.872zm-4.475.987c.152-.026.237-.006.349.073.188.133.355.512.45.857-.755.684-2.523 2.28-5.782 5.201-3.751 3.36-8.646 7.733-13.495 12.071-9.634 8.62-18.989 16.984-19.117 17.099h-1.613c.817-.74 9.071-8.206 18.304-16.561 4.84-4.379 9.721-8.796 13.481-12.203 3.635-3.294 6.02-5.459 6.522-5.927l.218-.203c.301-.282.532-.38.683-.407z" transform="matrix(.965926 -.258819 .258819 .965926 -40.827682 119.415569)"/><path d="m460.254 195.059s-1.448-.117-2.788 1.133c-.005.004-.111.096-.117.102-.145-.355-.344-.691-.682-.93-.281-.198-.658-.302-1.047-.233-.39.069-.774.289-1.162.654-.313.295-2.968 2.71-6.726 6.115-3.759 3.406-8.641 7.824-13.481 12.203-9.679 8.759-19.19 17.36-19.19 17.36l-.886.813h1.206 2.993.174l.131-.131s9.548-8.536 19.248-17.214c4.85-4.339 9.744-8.711 13.495-12.071 3.752-3.361 6.327-5.682 6.668-6 1.087-1.015 2.063-.872 2.063-.872zm-4.473.988c.151-.027.252-.006.363.072.191.135.342.523.437.872-.761.688-2.531 2.273-5.782 5.186-3.751 3.36-8.646 7.732-13.496 12.071-9.634 8.62-18.975 16.984-19.103 17.099h-1.626c.817-.74 9.07-8.206 18.303-16.561 4.84-4.379 9.722-8.796 13.481-12.203 3.759-3.405 6.366-5.777 6.74-6.13.3-.282.531-.379.683-.406z" transform="matrix(.965926 -.258819 .258819 .965926 -40.403092 120.43979)"/><path d="m464.366 193.959s-1.462-.117-2.803 1.133c-.004.004-.096.082-.101.087-.147-.35-.348-.678-.683-.915-.28-.198-.657-.302-1.046-.233s-.775.289-1.163.654c-.313.295-2.968 2.71-6.726 6.115-3.758 3.406-8.641 7.824-13.48 12.203-9.68 8.759-19.191 17.36-19.191 17.36l-.9.813h1.205 2.993.174l.146-.131s9.548-8.536 19.248-17.214c4.85-4.339 9.729-8.711 13.481-12.071 3.751-3.361 6.341-5.682 6.682-6 1.087-1.015 2.048-.872 2.048-.872zm-4.474.988c.151-.027.237-.006.348.072.188.133.34.514.437.858-.758.686-2.527 2.284-5.782 5.2-3.751 3.36-8.631 7.733-13.481 12.072-9.634 8.62-18.989 16.984-19.117 17.098h-1.612c.817-.74 9.055-8.205 18.289-16.561 4.839-4.379 9.722-8.796 13.481-12.202 3.636-3.295 6.035-5.459 6.537-5.927l.218-.204c.299-.282.53-.379.682-.406z" transform="matrix(.965926 -.258819 .258819 .965926 -39.978528 121.464845)"/><path d="m468.463 192.86s-1.463-.118-2.803 1.132c-.004.004-.097.083-.102.087-.145-.349-.348-.677-.683-.915-.28-.197-.657-.301-1.046-.232s-.774.289-1.162.654c-.313.294-2.968 2.71-6.727 6.115-3.758 3.406-8.64 7.824-13.48 12.203-9.68 8.758-19.19 17.36-19.19 17.36l-.886.813h1.205 2.992.175l.131-.131s9.548-8.536 19.247-17.215c4.85-4.339 9.744-8.711 13.496-12.071s6.326-5.681 6.668-5.999c1.087-1.015 2.062-.872 2.062-.872zm-4.474.988c.151-.028.237-.007.348.072.189.133.355.512.451.857-.754.684-2.523 2.281-5.782 5.201-3.751 3.36-8.646 7.733-13.496 12.072-9.633 8.619-18.989 16.984-19.117 17.098h-1.612c.817-.739 9.07-8.206 18.304-16.561 4.839-4.379 9.722-8.796 13.481-12.203 3.759-3.405 6.365-5.777 6.741-6.13.299-.282.531-.379.682-.406z" transform="matrix(.965926 -.258819 .258819 .965926 -39.554225 122.489518)"/><path d="m472.56 191.762s-1.448-.118-2.789 1.132c-.004.004-.096.083-.102.087-.145-.349-.348-.677-.683-.915-.279-.197-.671-.301-1.06-.232s-.76.289-1.147.654c-.313.294-2.982 2.709-6.74 6.115-3.759 3.406-8.642 7.823-13.482 12.203-9.679 8.758-19.175 17.359-19.175 17.359l-.901.814h1.206 2.993.174l.131-.131s9.548-8.536 19.247-17.215c4.851-4.339 9.744-8.711 13.496-12.071 3.751-3.361 6.341-5.682 6.682-5.999 1.087-1.016 2.048-.872 2.048-.872zm-4.46.988c.152-.027.238-.007.35.072.187.133.339.514.436.857-.758.687-2.526 2.285-5.782 5.201-3.751 3.36-8.631 7.733-13.481 12.071-9.634 8.62-18.989 16.985-19.117 17.099h-1.613c.818-.74 9.056-8.206 18.29-16.561 4.839-4.379 9.722-8.796 13.481-12.203 3.636-3.294 6.034-5.459 6.537-5.927l.218-.203c.299-.282.53-.38.681-.406z" transform="matrix(.965926 -.258819 .258819 .965926 -39.130455 123.512549)"/><path d="m476.672 190.662s-1.444-.115-2.775 1.104l-.029.028c-.003.004-.096.083-.101.087-.146-.349-.348-.677-.684-.915-.279-.197-.655-.301-1.045-.232s-.774.289-1.162.654c-.313.294-2.968 2.71-6.726 6.115-3.759 3.406-8.641 7.824-13.481 12.203-9.68 8.758-19.19 17.359-19.19 17.359l-.901.814h1.206 3.007.175l.13-.131s9.548-8.536 19.248-17.215c4.85-4.339 9.73-8.711 13.481-12.071 3.752-3.361 6.342-5.681 6.682-5.999 1.088-1.015 2.063-.872 2.063-.872zm-4.475.988c.151-.028.238-.007.349.072.189.133.355.512.45.857-.753.684-2.522 2.281-5.781 5.201-3.751 3.36-8.646 7.733-13.495 12.072-9.634 8.619-18.99 16.984-19.118 17.098h-1.612c.818-.739 9.071-8.206 18.304-16.561 4.84-4.379 9.722-8.796 13.481-12.203 3.759-3.405 6.366-5.777 6.74-6.13.3-.282.531-.379.682-.406z" transform="matrix(.965926 -.258819 .258819 .965926 -38.705923 124.537469)"/><path d="m480.769 189.562s-1.45-.117-2.789 1.133c-.005.004-.097.083-.102.087-.146-.35-.348-.678-.683-.915-.28-.198-.671-.302-1.06-.232-.39.069-.761.288-1.148.653-.313.295-2.982 2.71-6.74 6.116-3.759 3.406-8.642 7.823-13.481 12.202-9.679 8.759-19.19 17.36-19.19 17.36l-.886.813h1.206 2.993.174l.131-.131s9.548-8.536 19.247-17.214c4.85-4.339 9.745-8.711 13.495-12.071 3.752-3.361 6.327-5.682 6.668-6 1.088-1.015 2.063-.872 2.063-.872zm-4.46.988c.152-.027.238-.006.349.073.188.132.339.514.436.857-.757.686-2.526 2.284-5.782 5.2-3.75 3.36-8.631 7.733-13.48 12.072-9.634 8.62-18.99 16.984-19.118 17.099h-1.626c.817-.74 9.071-8.206 18.303-16.561 4.84-4.38 9.723-8.797 13.481-12.203 3.759-3.406 6.366-5.777 6.741-6.13.299-.283.544-.38.696-.407z" transform="matrix(.965926 -.258819 .258819 .965926 -38.281336 125.562152)"/><path d="m484.881 188.462s-1.465-.117-2.805 1.133c-.003.004-.097.083-.101.087-.145-.35-.348-.678-.683-.915-.279-.198-.656-.302-1.046-.232-.389.069-.774.288-1.162.654-.313.294-2.967 2.709-6.725 6.115-3.759 3.406-8.642 7.823-13.482 12.202-9.679 8.759-19.19 17.36-19.19 17.36l-.9.813h1.206 2.992.189l.131-.131s9.548-8.536 19.248-17.214c4.85-4.339 9.73-8.711 13.481-12.071 3.752-3.361 6.342-5.682 6.682-5.999 1.088-1.016 2.064-.873 2.064-.873zm-4.475.988c.152-.027.238-.006.349.073.189.133.355.512.451.857-.754.683-2.522 2.28-5.782 5.2-3.751 3.36-8.646 7.733-13.495 12.072-9.634 8.62-18.989 16.984-19.118 17.099h-1.612c.817-.74 9.07-8.206 18.303-16.561 4.84-4.38 9.722-8.797 13.481-12.203 3.636-3.295 6.02-5.459 6.523-5.927l.218-.203c.3-.283.53-.38.682-.407z" transform="matrix(.965926 -.258819 .258819 .965926 -37.856788 126.587071)"/><path d="m488.935 187.374s-1.449-.117-2.789 1.133c-.004.004-.097.082-.102.087-.145-.35-.347-.678-.682-.915-.28-.198-.671-.302-1.061-.233-.389.069-.759.289-1.148.654-.312.295-2.981 2.71-6.74 6.115-3.758 3.406-8.641 7.824-13.48 12.203-9.679 8.759-19.19 17.36-19.19 17.36l-.886.813h1.205 2.993.175l.13-.131s9.548-8.536 19.248-17.214c4.85-4.34 9.745-8.711 13.495-12.072 3.753-3.361 6.327-5.681 6.669-5.999 1.087-1.015 2.062-.872 2.062-.872zm-4.459.988c.151-.027.238-.006.349.072.187.133.339.514.435.858-.757.686-2.526 2.284-5.782 5.2-3.75 3.36-8.63 7.733-13.479 12.072-9.635 8.62-18.99 16.984-19.118 17.098h-1.627c.818-.739 9.07-8.206 18.303-16.561 4.841-4.379 9.723-8.796 13.481-12.202s6.366-5.777 6.741-6.131c.3-.282.545-.379.697-.406z" transform="matrix(.965926 -.258819 .258819 .965926 -37.436783 127.601326)"/><path d="m493.047 186.274s-1.464-.117-2.804 1.133c-.003.004-.096.083-.102.087-.144-.35-.347-.678-.683-.915-.279-.198-.656-.302-1.045-.232-.39.068-.774.288-1.163.653-.312.295-2.966 2.71-6.725 6.115-3.758 3.406-8.64 7.824-13.481 12.203-9.679 8.759-19.19 17.36-19.19 17.36l-.9.813h1.205 2.993.189l.131-.131s9.548-8.536 19.247-17.214c4.85-4.339 9.73-8.711 13.481-12.071 3.752-3.361 6.341-5.682 6.683-6 1.086-1.015 2.062-.872 2.062-.872zm-4.475.988c.152-.027.239-.006.349.072.189.134.355.513.451.858-.754.684-2.523 2.28-5.782 5.2-3.751 3.36-8.646 7.733-13.496 12.072-9.632 8.62-18.988 16.984-19.117 17.099h-1.612c.817-.74 9.07-8.206 18.303-16.561 4.84-4.38 9.722-8.797 13.481-12.203 3.637-3.295 6.02-5.459 6.523-5.927l.218-.203c.3-.283.531-.38.682-.407z" transform="matrix(.965926 -.258819 .258819 .965926 -37.012275 128.626467)"/><path d="m497.145 185.174s-1.449-.117-2.791 1.133c-.004.004-.109.096-.116.102-.145-.355-.343-.691-.683-.93-.279-.198-.656-.302-1.045-.233-.39.069-.775.289-1.163.654-.313.295-2.967 2.71-6.725 6.115-3.758 3.406-8.641 7.824-13.481 12.203-9.678 8.759-19.189 17.36-19.189 17.36l-.886.813h1.205 2.993.174l.131-.131s9.548-8.536 19.247-17.214c4.851-4.339 9.745-8.711 13.495-12.071 3.752-3.361 6.328-5.682 6.668-6 1.089-1.015 2.063-.872 2.063-.872zm-4.476.988c.152-.027.253-.006.364.072.191.135.341.523.436.872-.759.689-2.53 2.273-5.782 5.186-3.751 3.36-8.645 7.732-13.495 12.071-9.634 8.62-18.975 16.985-19.103 17.099h-1.627c.818-.74 9.071-8.206 18.304-16.561 4.839-4.379 9.721-8.796 13.48-12.203 3.759-3.405 6.367-5.777 6.741-6.13.301-.282.531-.379.682-.406z" transform="matrix(.965926 -.258819 .258819 .965926 -36.587697 129.651433)"/><path d="m501.255 184.075s-1.462-.118-2.803 1.132c-.004.004-.096.083-.102.087-.145-.349-.347-.677-.682-.915-.28-.197-.656-.301-1.046-.232s-.775.289-1.163.654c-.313.294-2.967 2.709-6.725 6.115-3.759 3.406-8.641 7.823-13.481 12.203-9.679 8.758-19.19 17.359-19.19 17.359l-.901.814h1.206 2.993.174l.145-.131s9.548-8.536 19.248-17.215c4.85-4.339 9.729-8.711 13.481-12.071 3.752-3.361 6.342-5.682 6.682-5.999 1.088-1.016 2.049-.872 2.049-.872zm-4.474.988c.152-.027.238-.007.349.072.187.133.339.514.436.857-.757.687-2.525 2.285-5.782 5.201-3.751 3.36-8.631 7.733-13.481 12.071-9.633 8.62-18.989 16.985-19.117 17.099h-1.613c.818-.74 9.057-8.206 18.29-16.561 4.84-4.379 9.737-8.796 13.495-12.203 3.636-3.294 6.021-5.459 6.523-5.927l.218-.203c.3-.282.531-.38.682-.406z" transform="matrix(.965926 -.25882 .25882 .965926 -36.163453 130.676003)"/><path d="m505.352 182.975s-1.463-.117-2.803 1.133c-.004.004-.097.083-.102.087-.145-.35-.347-.678-.682-.915-.281-.198-.657-.302-1.046-.232-.39.069-.775.288-1.163.653-.313.295-2.966 2.71-6.726 6.116-3.759 3.406-8.64 7.823-13.481 12.202-9.679 8.759-19.189 17.36-19.189 17.36l-.886.813h1.206 2.992.174l.131-.131s9.548-8.536 19.248-17.214c4.849-4.339 9.744-8.711 13.495-12.071 3.752-3.361 6.328-5.682 6.668-6 1.087-1.015 2.063-.872 2.063-.872zm-4.474.988c.151-.027.238-.006.349.073.188.133.354.512.45.857-.754.683-2.522 2.28-5.781 5.2-3.751 3.36-8.646 7.733-13.496 12.072-9.633 8.62-18.989 16.984-19.117 17.099h-1.612c.817-.74 9.07-8.206 18.302-16.561 4.841-4.38 9.723-8.797 13.481-12.203 3.759-3.406 6.366-5.778 6.741-6.13.3-.283.532-.38.683-.407z" transform="matrix(.965926 -.258819 .258819 .965926 -35.738887 131.700764)"/><path d="m509.45 181.877s-1.448-.117-2.79 1.133c-.004.004-.096.083-.101.087-.146-.35-.348-.678-.683-.915-.28-.198-.657-.302-1.045-.232-.391.069-.776.288-1.163.653-.313.295-2.982 2.71-6.741 6.116-3.758 3.406-8.641 7.823-13.481 12.202-9.678 8.759-19.175 17.36-19.175 17.36l-.9.813h1.205 2.993.174l.13-.131s9.549-8.536 19.249-17.214c4.85-4.339 9.743-8.711 13.495-12.071 3.751-3.361 6.342-5.682 6.682-6 1.087-1.015 2.048-.872 2.048-.872zm-4.46.988c.151-.027.237-.006.348.073.188.132.34.514.437.857-.758.686-2.527 2.284-5.783 5.2-3.751 3.36-8.63 7.733-13.481 12.072-9.633 8.62-18.989 16.984-19.117 17.099h-1.612c.817-.74 9.057-8.206 18.289-16.561 4.84-4.38 9.722-8.797 13.481-12.203 3.636-3.295 6.035-5.459 6.537-5.927l.218-.203c.3-.283.531-.38.683-.407z" transform="matrix(.965926 -.258819 .258819 .965926 -35.315052 132.72365)"/><path d="m513.561 180.777s-1.463-.117-2.804 1.133c-.003.004-.096.083-.101.087-.145-.35-.348-.678-.683-.915-.279-.198-.656-.302-1.046-.232-.39.069-.774.288-1.162.653-.312.295-2.967 2.71-6.725 6.116s-8.641 7.823-13.481 12.202c-9.68 8.759-19.19 17.36-19.19 17.36l-.901.813h1.206 3.007.174l.13-.131s9.549-8.536 19.25-17.214c4.848-4.339 9.728-8.711 13.481-12.071 3.751-3.361 6.34-5.682 6.681-6 1.087-1.015 2.064-.872 2.064-.872zm-4.474.988c.152-.027.237-.006.348.073.19.133.355.512.451.857-.754.684-2.522 2.28-5.782 5.2-3.751 3.36-8.645 7.733-13.496 12.072-9.633 8.62-18.988 16.984-19.116 17.099h-1.613c.818-.74 9.072-8.206 18.304-16.561 4.84-4.38 9.722-8.797 13.481-12.203s6.366-5.777 6.741-6.13c.299-.283.531-.38.682-.407z" transform="matrix(.965926 -.258819 .258819 .965926 -34.890488 133.748185)"/><path d="m517.658 179.678s-1.448-.118-2.79 1.133c-.003.003-.096.082-.102.087-.144-.35-.347-.678-.681-.915-.281-.198-.672-.302-1.061-.233-.39.069-.76.289-1.148.654-.313.295-2.981 2.71-6.74 6.115-3.757 3.406-8.64 7.824-13.481 12.203-9.679 8.759-19.19 17.36-19.19 17.36l-.886.813h1.205 2.993.174l.131-.131s9.549-8.536 19.248-17.215c4.85-4.339 9.744-8.711 13.496-12.071 3.752-3.361 6.327-5.681 6.667-5.999 1.088-1.016 2.063-.872 2.063-.872zm-4.46.988c.152-.028.238-.007.349.072.187.133.34.514.436.858-.757.686-2.526 2.284-5.782 5.2-3.75 3.36-8.63 7.733-13.481 12.072-9.632 8.619-18.989 16.984-19.117 17.098h-1.627c.818-.739 9.071-8.206 18.304-16.561 4.84-4.379 9.722-8.796 13.48-12.203 3.759-3.405 6.367-5.777 6.741-6.13.301-.282.546-.379.697-.406z" transform="matrix(.965926 -.258819 .258819 .965926 -34.4662 134.772934)"/><path d="m521.643 178.61s-1.449-.117-2.789 1.133c-.005.004-.097.083-.102.087-.145-.35-.348-.678-.682-.915-.28-.198-.672-.302-1.061-.233s-.76.289-1.147.654c-.313.295-2.982 2.71-6.741 6.115-3.758 3.406-8.64 7.824-13.481 12.203-9.679 8.759-19.175 17.36-19.175 17.36l-.901.813h1.206 2.993.174l.131-.131s9.548-8.536 19.248-17.214c4.849-4.339 9.744-8.711 13.495-12.071 3.752-3.361 6.328-5.682 6.668-6 1.087-1.015 2.063-.872 2.063-.872zm-4.459.988c.152-.027.238-.006.348.072.187.133.34.514.437.858-.758.686-2.527 2.284-5.782 5.2-3.751 3.36-8.631 7.733-13.482 12.072-9.633 8.62-18.989 16.984-19.117 17.099h-1.627c.818-.74 9.072-8.206 18.304-16.562 4.84-4.379 9.722-8.796 13.481-12.202s6.381-5.778 6.754-6.13c.302-.283.532-.38.684-.407z" transform="matrix(.965926 -.258819 .258819 .965926 -34.054006 135.767946)"/><path d="m525.755 177.51s-1.464-.117-2.804 1.133c-.003.004-.096.082-.102.087-.145-.35-.348-.678-.682-.915-.28-.198-.656-.302-1.046-.233s-.774.289-1.162.654c-.314.295-2.967 2.71-6.726 6.115-3.759 3.406-8.641 7.824-13.482 12.203-9.679 8.759-19.189 17.36-19.189 17.36l-.901.813h1.206 2.992.189l.131-.131s9.548-8.536 19.248-17.214c4.85-4.339 9.729-8.711 13.481-12.071 3.752-3.361 6.342-5.682 6.682-6 1.086-1.015 2.063-.872 2.063-.872zm-4.474.988c.151-.027.238-.006.348.072.189.133.356.513.451.858-.754.684-2.522 2.28-5.782 5.2-3.751 3.36-8.645 7.733-13.495 12.072-9.634 8.62-18.99 16.984-19.118 17.098h-1.612c.818-.739 9.071-8.205 18.303-16.561 4.842-4.379 9.722-8.796 13.481-12.202 3.637-3.295 6.021-5.459 6.523-5.927l.218-.204c.3-.282.531-.379.683-.406z" transform="matrix(.965926 -.258819 .258819 .965926 -33.629463 136.792943)"/><path d="m529.851 176.411s-1.448-.118-2.789 1.132c-.003.004-.096.083-.101.087-.145-.349-.348-.677-.683-.915-.279-.197-.671-.301-1.06-.232-.386.068-.763.295-1.148.654-.003.003-.01-.004-.014 0-.319.299-2.971 2.713-6.725 6.115-3.759 3.406-8.641 7.823-13.481 12.203-9.679 8.758-19.19 17.359-19.19 17.359l-.887.814h1.206 2.993.173l.131-.131s9.549-8.536 19.249-17.215c4.85-4.339 9.744-8.711 13.495-12.071 3.752-3.36 6.328-5.682 6.668-5.999 1.086-1.015 2.063-.872 2.063-.872zm-4.473.988c.151-.027.252-.007.363.072.19.135.341.522.435.872-.759.689-2.53 2.273-5.782 5.185-3.75 3.36-8.63 7.733-13.48 12.072-9.634 8.62-18.99 16.984-19.117 17.099h-1.628c.818-.74 9.072-8.206 18.304-16.562 4.841-4.379 9.722-8.796 13.481-12.202s6.366-5.778 6.741-6.13c.3-.282.531-.38.683-.406z" transform="matrix(.965926 -.258819 .258819 .965926 -33.205177 137.81769)"/><path d="m533.963 175.311s-1.463-.118-2.803 1.132c-.004.004-.097.083-.101.087-.146-.349-.349-.677-.683-.915-.28-.197-.657-.301-1.046-.232-.39.069-.775.289-1.162.654-.314.294-2.968 2.709-6.726 6.115-3.759 3.406-8.641 7.823-13.481 12.203-9.68 8.758-19.19 17.359-19.19 17.359l-.901.814h1.206 2.992.189l.132-.131s9.548-8.536 19.248-17.215c4.849-4.339 9.728-8.711 13.481-12.071 3.751-3.361 6.341-5.682 6.681-5.999 1.087-1.015 2.064-.872 2.064-.872zm-4.473.988c.151-.027.237-.007.348.072.189.133.34.514.436.857-.758.687-2.526 2.285-5.782 5.201-3.751 3.36-8.63 7.733-13.481 12.072-9.633 8.619-18.989 16.984-19.116 17.098h-1.613c.818-.739 9.071-8.206 18.303-16.561 4.841-4.379 9.722-8.796 13.482-12.203 3.636-3.294 6.019-5.459 6.522-5.926l.218-.204c.3-.282.531-.379.683-.406z" transform="matrix(.965926 -.258819 .258819 .965926 -32.78062 138.842531)"/><path d="m538.06 174.211s-1.449-.117-2.789 1.133c-.004.004-.11.096-.116.102-.146-.355-.344-.69-.683-.93-.28-.198-.657-.302-1.046-.232-.39.069-.775.288-1.162.653-.313.295-2.968 2.71-6.726 6.116-3.759 3.406-8.641 7.823-13.481 12.202-9.679 8.759-19.19 17.36-19.19 17.36l-.886.813h1.205 2.993.175l.131-.131s9.548-8.536 19.247-17.214c4.851-4.339 9.744-8.711 13.495-12.071 3.753-3.361 6.328-5.682 6.669-6 1.086-1.015 2.062-.872 2.062-.872zm-4.474.988c.152-.027.238-.006.349.073.192.135.357.522.451.871-.76.689-2.531 2.273-5.783 5.186-3.75 3.36-8.644 7.732-13.495 12.072-9.634 8.619-18.989 16.984-19.118 17.098h-1.612c.819-.739 9.071-8.206 18.304-16.561 4.841-4.379 9.722-8.796 13.481-12.203 3.759-3.405 6.367-5.777 6.74-6.13.302-.282.532-.379.683-.406z" transform="matrix(.965926 -.258819 .258819 .965926 -32.356066 139.867074)"/><path d="m542.157 173.113s-1.448-.117-2.788 1.133c-.004.004-.097.083-.102.087-.145-.35-.349-.678-.683-.915-.28-.198-.657-.302-1.047-.232-.388.069-.773.288-1.161.653-.314.295-2.982 2.71-6.741 6.116-3.758 3.406-8.64 7.823-13.481 12.202-9.68 8.759-19.175 17.36-19.175 17.36l-.901.813h1.206 2.992.175l.145-.131s9.534-8.536 19.233-17.214c4.85-4.339 9.744-8.711 13.495-12.071 3.752-3.361 6.342-5.682 6.682-6 1.088-1.015 2.049-.872 2.049-.872zm-4.459.988c.151-.027.238-.006.349.073.187.132.34.514.436.857-.758.686-2.526 2.284-5.782 5.2-3.75 3.36-8.63 7.733-13.481 12.072-9.633 8.62-18.989 16.984-19.118 17.099h-1.612c.818-.74 9.056-8.206 18.289-16.561 4.841-4.38 9.722-8.797 13.481-12.203s6.381-5.777 6.755-6.13c.301-.283.531-.38.683-.407z" transform="matrix(.965926 -.258819 .258819 .965926 -31.932301 140.890192)"/><path d="m546.269 172.013s-1.463-.117-2.803 1.133c-.005.004-.097.083-.103.087-.144-.35-.347-.678-.682-.915-.28-.198-.656-.302-1.046-.232-.389.069-.775.288-1.162.654-.313.294-2.967 2.709-6.726 6.115s-8.641 7.823-13.481 12.202c-9.679 8.759-19.19 17.36-19.19 17.36l-.9.813h1.221 2.992.174l.131-.131s9.548-8.536 19.248-17.214c4.85-4.339 9.729-8.711 13.481-12.071 3.752-3.361 6.342-5.682 6.681-5.999 1.088-1.016 2.064-.872 2.064-.872zm-4.475.988c.152-.027.239-.006.35.073.189.133.354.512.45.857-.754.684-2.522 2.28-5.782 5.2-3.751 3.36-8.645 7.733-13.495 12.072-9.634 8.62-18.99 16.984-19.118 17.099h-1.612c.817-.74 9.07-8.206 18.304-16.561 4.84-4.38 9.721-8.797 13.481-12.203 3.759-3.406 6.366-5.777 6.74-6.13.301-.283.531-.38.682-.407z" transform="matrix(.965926 -.258819 .258819 .965926 -31.507737 141.915348)"/><path d="m550.366 170.914s-1.448-.118-2.789 1.132c-.004.004-.097.083-.102.088-.145-.35-.347-.678-.683-.916-.279-.197-.67-.301-1.06-.232-.389.069-.76.289-1.147.654-.313.295-2.982 2.71-6.74 6.115-3.759 3.406-8.642 7.824-13.482 12.203-9.679 8.758-19.175 17.36-19.175 17.36l-.901.813h1.207 2.992.174l.131-.131s9.549-8.536 19.248-17.215c4.85-4.339 9.745-8.711 13.495-12.071 3.753-3.361 6.328-5.681 6.668-5.999 1.088-1.015 2.063-.872 2.063-.872zm-4.46.988c.152-.027.238-.007.349.072.188.133.339.514.436.857-.757.687-2.525 2.285-5.781 5.201-3.752 3.36-8.632 7.733-13.481 12.072-9.634 8.619-18.99 16.984-19.118 17.098h-1.626c.817-.739 9.07-8.206 18.302-16.561 4.841-4.379 9.723-8.796 13.482-12.203 3.758-3.405 6.381-5.777 6.755-6.13.3-.282.531-.379.682-.406z" transform="matrix(.965926 -.258819 .258819 .965926 -31.083434 142.939934)"/><path d="m554.436 169.825s-1.464-.117-2.804 1.133c-.003.004-.096.082-.101.087-.145-.35-.349-.678-.683-.915-.28-.198-.656-.302-1.047-.233-.388.069-.773.289-1.161.654-.314.295-2.968 2.71-6.726 6.115-3.759 3.406-8.641 7.824-13.481 12.203-9.679 8.759-19.19 17.36-19.19 17.36l-.901.813h1.221 2.992.174l.131-.131s9.549-8.536 19.248-17.214c4.85-4.339 9.744-8.711 13.496-12.071 3.751-3.361 6.326-5.682 6.667-6 1.088-1.015 2.064-.872 2.064-.872zm-4.474.988c.151-.027.238-.006.349.072.188.133.354.512.449.858-.753.683-2.521 2.28-5.781 5.2-3.751 3.36-8.646 7.733-13.495 12.072-9.635 8.62-18.99 16.984-19.118 17.098h-1.612c.818-.739 9.07-8.205 18.303-16.561 4.841-4.379 9.722-8.796 13.481-12.202s6.366-5.777 6.741-6.131c.3-.282.531-.379.683-.406z" transform="matrix(.965926 -.258819 .258819 .965926 -30.663149 143.954099)"/><path d="m558.533 168.725s-1.45-.117-2.79 1.133c-.004.004-.097.082-.101.087-.145-.35-.348-.678-.683-.915-.279-.198-.671-.302-1.061-.233-.389.069-.76.289-1.147.654-.313.295-2.982 2.71-6.74 6.115-3.759 3.406-8.641 7.824-13.481 12.203-9.679 8.759-19.176 17.36-19.176 17.36l-.9.813h1.206 2.992.175l.13-.131s9.549-8.536 19.248-17.214c4.85-4.339 9.744-8.711 13.496-12.071 3.752-3.361 6.341-5.682 6.682-6 1.087-1.015 2.048-.872 2.048-.872zm-4.46.988c.152-.027.238-.006.349.072.187.133.339.514.436.858-.758.686-2.526 2.284-5.781 5.2-3.752 3.36-8.632 7.733-13.481 12.072-9.634 8.62-18.99 16.984-19.118 17.098h-1.627c.817-.739 9.071-8.205 18.304-16.561 4.84-4.379 9.722-8.796 13.481-12.202s6.381-5.778 6.755-6.131c.3-.282.53-.379.682-.406z" transform="matrix(.965926 -.258819 .258819 .965926 -30.23859 144.978942)"/><path d="m562.644 167.626s-1.464-.118-2.804 1.132c-.004.004-.096.083-.101.087-.146-.349-.348-.677-.683-.915-.279-.197-.656-.301-1.046-.232s-.774.289-1.162.654c-.313.294-2.967 2.709-6.726 6.115-3.758 3.406-8.641 7.823-13.481 12.203-9.679 8.758-19.19 17.359-19.19 17.359l-.9.814h1.206 3.007.174l.131-.131s9.548-8.536 19.247-17.215c4.851-4.339 9.73-8.711 13.482-12.071 3.752-3.361 6.341-5.682 6.683-5.999 1.086-1.015 2.063-.872 2.063-.872zm-4.474.988c.152-.027.238-.007.348.072.189.133.355.512.451.857-.753.684-2.522 2.28-5.782 5.201-3.751 3.36-8.645 7.733-13.496 12.071-9.633 8.62-18.988 16.985-19.117 17.099h-1.612c.818-.739 9.071-8.206 18.304-16.561 4.84-4.379 9.722-8.796 13.48-12.203 3.637-3.294 6.02-5.459 6.523-5.927l.218-.203c.301-.282.531-.38.683-.406z" transform="matrix(.965926 -.258819 .258819 .965926 -29.814314 146.003872)"/><path d="m566.742 166.526s-1.45-.118-2.79 1.132c-.003.004-.096.083-.102.087-.145-.349-.347-.677-.682-.915-.28-.197-.671-.301-1.06-.232-.39.069-.76.289-1.148.654-.313.295-2.982 2.71-6.74 6.115-3.759 3.406-8.641 7.823-13.481 12.203-9.679 8.758-19.19 17.359-19.19 17.359l-.887.814h1.207 2.992.175l.13-.131s9.548-8.536 19.248-17.215c4.85-4.339 9.744-8.711 13.495-12.071 3.752-3.36 6.328-5.682 6.669-5.999 1.086-1.015 2.062-.872 2.062-.872zm-4.461.988c.152-.027.239-.007.349.072.187.133.34.514.436.857-.757.687-2.526 2.285-5.782 5.201-3.75 3.36-8.63 7.733-13.481 12.072-9.633 8.619-18.989 16.984-19.117 17.098h-1.627c.818-.739 9.071-8.206 18.304-16.561 4.84-4.379 9.721-8.796 13.48-12.203 3.76-3.405 6.367-5.777 6.741-6.13.301-.282.545-.379.697-.406z" transform="matrix(.965926 -.258819 .258819 .965926 -29.389764 147.028882)"/><path d="m570.853 165.426s-1.464-.117-2.804 1.133c-.004.004-.097.083-.101.087-.145-.35-.348-.678-.683-.915-.28-.198-.656-.302-1.046-.232-.389.068-.774.288-1.162.653-.314.295-2.967 2.71-6.726 6.115-3.759 3.406-8.641 7.824-13.481 12.203-9.679 8.759-19.19 17.36-19.19 17.36l-.9.813h1.206 2.992.188l.131-.131s9.548-8.536 19.248-17.214c4.851-4.339 9.73-8.711 13.481-12.071 3.752-3.361 6.342-5.682 6.682-6 1.088-1.015 2.063-.872 2.063-.872zm-4.474.988c.151-.027.238-.006.349.072.188.133.354.513.45.858-.754.683-2.523 2.28-5.782 5.2-3.751 3.36-8.645 7.733-13.495 12.072-9.634 8.62-18.99 16.984-19.118 17.099h-1.613c.819-.74 9.072-8.206 18.305-16.561 4.839-4.38 9.721-8.797 13.48-12.203s6.367-5.778 6.741-6.13c.301-.283.531-.38.683-.407z" transform="matrix(.965926 -.258819 .258819 .965926 -28.965192 148.053371)"/><path d="m574.949 164.327s-1.448-.118-2.788 1.132c-.006.005-.111.097-.118.102-.144-.354-.342-.689-.681-.93-.281-.197-.657-.301-1.047-.232s-.774.289-1.162.654c-.313.294-2.967 2.71-6.726 6.115-3.758 3.406-8.641 7.823-13.481 12.203-9.679 8.758-19.189 17.359-19.189 17.359l-.887.814h1.206 2.993.174l.131-.131s9.548-8.536 19.248-17.215c4.85-4.339 9.744-8.711 13.495-12.071 3.752-3.361 6.328-5.682 6.668-5.999 1.087-1.015 2.064-.872 2.064-.872zm-4.473.988c.152-.027.238-.007.349.072.191.135.356.522.449.872-.759.689-2.53 2.273-5.78 5.185-3.752 3.36-8.646 7.733-13.496 12.072-9.634 8.62-18.989 16.984-19.117 17.099h-1.613c.818-.74 9.071-8.206 18.304-16.561 4.84-4.38 9.722-8.797 13.481-12.203 3.758-3.406 6.366-5.777 6.74-6.13.3-.282.531-.379.683-.406z" transform="matrix(.965926 -.258819 .258819 .965926 -28.540951 149.078025)"/><path d="m579.047 163.229s-1.448-.118-2.789 1.132c-.004.004-.096.083-.102.088-.145-.35-.347-.678-.682-.916-.28-.197-.656-.301-1.046-.232s-.775.289-1.163.654c-.313.295-2.981 2.71-6.74 6.115-3.759 3.406-8.64 7.824-13.481 12.203-9.679 8.758-19.175 17.36-19.175 17.36l-.901.813h1.206 2.993.174l.145-.131s9.534-8.536 19.233-17.215c4.85-4.339 9.744-8.711 13.496-12.071 3.751-3.36 6.341-5.682 6.682-5.999 1.086-1.015 2.048-.872 2.048-.872zm-4.459.988c.151-.027.237-.007.348.072.186.133.34.514.436.857-.757.687-2.526 2.285-5.782 5.201-3.751 3.36-8.63 7.733-13.48 12.072-9.634 8.619-18.989 16.984-19.117 17.098h-1.613c.818-.74 9.056-8.206 18.289-16.561 4.84-4.379 9.722-8.796 13.481-12.203 3.758-3.405 6.381-5.777 6.755-6.13.3-.282.531-.379.683-.406z" transform="matrix(.965926 -.258819 .258819 .965926 -28.117139 150.101432)"/><path d="m583.159 162.129s-1.464-.118-2.804 1.132c-.003.004-.096.083-.102.087-.144-.349-.347-.677-.682-.915-.28-.197-.657-.301-1.045-.232-.391.069-.775.289-1.163.654-.313.294-2.967 2.71-6.726 6.115-3.759 3.406-8.641 7.824-13.481 12.203-9.679 8.758-19.19 17.36-19.19 17.36l-.901.813h1.22 2.993.175l.13-.131s9.548-8.536 19.249-17.215c4.849-4.339 9.729-8.711 13.481-12.071 3.751-3.36 6.341-5.682 6.682-5.999 1.086-1.015 2.063-.872 2.063-.872zm-4.475.988c.153-.027.239-.007.349.072.189.133.355.512.451.857-.754.684-2.522 2.281-5.782 5.201-3.751 3.36-8.645 7.733-13.496 12.072-9.633 8.619-18.989 16.984-19.117 17.098h-1.612c.818-.739 9.07-8.206 18.303-16.561 4.84-4.379 9.722-8.796 13.482-12.203 3.758-3.405 6.366-5.777 6.74-6.13.3-.282.531-.379.682-.406z" transform="matrix(.965926 -.258819 .258819 .965926 -27.692559 151.125913)"/><path d="m587.298 161.018s-1.449-.117-2.79 1.133c-.004.004-.11.096-.116.101-.145-.354-.344-.69-.683-.929-.279-.198-.656-.302-1.046-.233-.389.069-.774.289-1.161.654-.313.295-2.968 2.71-6.727 6.115-3.757 3.406-8.641 7.824-13.481 12.203-9.679 8.759-19.189 17.36-19.189 17.36l-.887.813h1.206 2.992.175l.13-.131s9.549-8.536 19.248-17.214c4.851-4.34 9.745-8.711 13.496-12.072 3.752-3.361 6.328-5.681 6.668-5.999 1.088-1.015 2.063-.872 2.063-.872zm-4.474.988c.152-.027.252-.006.364.072.19.135.341.523.435.872-.759.689-2.531 2.273-5.782 5.186-3.75 3.36-8.645 7.732-13.495 12.071-9.634 8.62-18.975 16.984-19.103 17.099h-1.627c.819-.74 9.071-8.206 18.304-16.561 4.84-4.379 9.722-8.796 13.481-12.203 3.758-3.405 6.366-5.777 6.74-6.13.301-.282.531-.379.683-.406z" transform="matrix(.965926 -.258819 .258819 .965926 -27.26375 152.161126)"/><path d="m591.395 159.92s-1.449-.117-2.789 1.133c-.004.004-.097.083-.102.087-.145-.35-.348-.678-.683-.915-.279-.198-.656-.302-1.046-.232-.389.068-.775.288-1.161.653-.314.295-2.982 2.71-6.741 6.115-3.759 3.406-8.627 7.824-13.467 12.203-9.678 8.759-19.189 17.36-19.189 17.36l-.902.813h1.206 2.993.174l.145-.131s9.55-8.536 19.249-17.214c4.85-4.339 9.73-8.711 13.481-12.071 3.751-3.361 6.341-5.682 6.681-6 1.089-1.015 2.049-.872 2.049-.872zm-4.46.988c.152-.027.239-.006.349.072.187.133.34.514.436.858-.757.686-2.525 2.284-5.781 5.2-3.751 3.36-8.631 7.733-13.481 12.072-9.634 8.62-18.99 16.984-19.118 17.099h-1.613c.818-.74 9.057-8.206 18.29-16.562 4.841-4.379 9.722-8.796 13.481-12.202 3.758-3.406 6.38-5.777 6.754-6.13l.058-.044c.263-.228.487-.338.625-.363z" transform="matrix(.965926 -.258819 .258819 .965926 -26.839971 153.184268)"/><path d="m382.067 186.022c-.781-.011-1.77.014-2.848.014h-41.227c-.335 0-.686.005-1.031.203-.345.199-.566.629-.566 1.119 0-.016-.014.218-.03.537-.015.32-.043.762-.073 1.322-.059 1.121-.131 2.689-.232 4.547-.202 3.716-.486 8.611-.756 13.495-.269 4.886-.538 9.755-.74 13.438-.102 1.841-.174 3.392-.232 4.489-.03.548-.057.986-.073 1.293-.009.153-.011.262-.015.349-.004.086-.015.112-.015.174 0 .158-.054.573.073 1.003.064.214.183.44.407.61.223.169.527.261.857.261h270.08c1.084 0 1.599-.053 1.991-.363.195-.155.305-.421.319-.596.014-.174-.015-.28-.015-.319 0-.082.007-.086 0-.175-.004-.089-.018-.218-.028-.378-.021-.319-.051-.776-.088-1.351-.074-1.149-.179-2.759-.305-4.692-.253-3.867-.577-8.998-.914-14.106-.674-10.215-1.352-20.381-1.352-20.381l-.03-.436h-.435-4.969-.058c-.088-.006-1.447-.077-2.745 1.133-.004.004-.096.083-.102.087-.146-.35-.347-.678-.683-.915-.279-.198-.656-.302-1.045-.232-.39.069-.775.288-1.163.654-.313.295-2.967 2.709-6.726 6.115-3.758 3.405-8.64 7.823-13.48 12.202-9.68 8.759-19.19 17.36-19.19 17.36l-.887.814h1.206 2.993.174l.131-.132s9.549-8.536 19.249-17.214c4.849-4.339 9.744-8.711 13.495-12.071 3.751-3.361 6.327-5.681 6.667-5.999 1.087-1.016 2.064-.872 2.064-.872h.029.014 4.591c.028.42.662 9.962 1.321 19.959.336 5.108.663 10.225.915 14.091.126 1.933.232 3.544.305 4.692.038.574.067 1.033.087 1.351.01.159.025.291.029.378.006.087 0 .173 0 .117 0 .114.012.153.015.188-.023.01-.39.16-1.38.16h-270.079c-.183 0-.256-.046-.291-.073-.035-.026-.063-.048-.087-.13-.048-.164-.029-.468-.029-.742 0 .036.011-.031.015-.116s.006-.21.014-.363c.016-.306.029-.745.059-1.293.058-1.096.145-2.633.246-4.475.203-3.682.472-8.566.741-13.452.27-4.884.539-9.778.741-13.495.101-1.858.188-3.41.247-4.532.029-.56.056-1.015.072-1.337.017-.32.03-.477.03-.581 0-.285.034-.28.102-.319.067-.039.274-.073.566-.073h41.227c1.086 0 2.089-.025 2.847-.015.378.005.699.023.93.044s.396.089.32.044l.465-.8c-.25-.146-.437-.15-.712-.174-.276-.022-.614-.035-1.003-.041zm213.281 1.046c.151-.027.237-.007.348.072.19.133.356.512.451.858-.754.683-2.522 2.28-5.782 5.2-3.75 3.36-8.645 7.733-13.495 12.072-9.634 8.619-18.989 16.984-19.117 17.098h-1.613c.818-.739 9.071-8.206 18.304-16.561 4.84-4.379 9.721-8.796 13.48-12.203 3.759-3.405 6.367-5.777 6.741-6.13.301-.282.532-.379.683-.406z" transform="matrix(.965926 -.258819 .258819 .965926 -37.639406 128.99518)"/><path d="m343.185 229.207v.465 23.62.465h.465 272.841.465v-.465-23.62-.465h-.465-272.841zm.93.929h271.911v22.692h-271.911z" transform="matrix(.965926 -.258819 .258819 .965926 -46.142119 132.479613)"/><path d="m355.333 252.448v.465 67.811.465h.465 272.841.465v-.465-67.811-.465h-.465-272.841zm.93.93h271.911v66.881h-271.911z" transform="matrix(.965926 -.258819 .258819 .965926 -57.462105 137.168465)"/><path d="m345.03 262.755v2.426h.929v-2.426z" transform="matrix(.965926 -.258819 .258819 .965926 -56.547493 98.414996)"/><path d="m351.629 287.948v1.293h.929v-1.293z" transform="matrix(.965926 -.258819 .258819 .965926 -62.696428 100.962072)"/><path d="m607.364 192.509v2.425h.93v-2.425z" transform="matrix(.965926 -.258819 .258819 .965926 -29.427532 163.918438)"/><path d="m613.962 217.7v1.294h.931v-1.294z" transform="matrix(.965926 -.258819 .258819 .965926 -35.576257 166.465554)"/><path d="m551.05 208.681-.131.145-6.144 6.145-.8.799h1.119 54.112.203l.145-.159 5.549-6.145.697-.785h-1.046-53.5zm.392.93h52.282l-4.736 5.23h-52.776z" transform="matrix(.965926 -.258819 .258819 .965926 -35.339169 156.023053)"/><path d="m361.887 290.679c-.341 0-.624.285-.624.625v10.315c0 .34.285.625.624.625h10.314c.342 0 .625-.284.625-.625v-10.315c0-.34-.285-.625-.625-.625zm.305.93h9.704v9.705h-9.704z" transform="matrix(.965926 -.258819 .258819 .965926 -64.223112 105.099732)"/><path d="m372.636 287.797c-.341 0-.625.285-.625.626v10.314c0 .34.285.625.625.625h10.314c.341 0 .639-.284.639-.625v-10.314c0-.34-.299-.626-.639-.626zm.305.93h9.718v9.705h-9.718z" transform="matrix(.965926 -.258819 .258819 .965926 -63.110691 107.785186)"/><path d="m383.398 284.917c-.341 0-.639.285-.639.625v10.315c0 .34.299.625.639.625h10.314c.341 0 .625-.284.625-.625v-10.315c0-.34-.285-.625-.625-.625zm.291.93h9.718v9.705h-9.718z" transform="matrix(.965926 -.258819 .258819 .965926 -61.999059 110.468835)"/><path d="m394.147 282.036c-.341 0-.625.284-.625.625v10.314c0 .34.285.625.625.625h10.314c.341 0 .624-.284.624-.625v-10.314c0-.34-.285-.625-.624-.625zm.305.929h9.704v9.705h-9.704z" transform="matrix(.965926 -.258819 .258819 .965926 -60.88682 113.154447)"/><path d="m404.895 279.155c-.342 0-.625.285-.625.626v10.315c0 .339.285.624.625.624h10.314c.341 0 .624-.284.624-.624v-10.315c0-.34-.285-.626-.624-.626zm.305.93h9.704v9.706h-9.704z" transform="matrix(.965926 -.258819 .258819 .965926 -59.775062 115.838089)"/><path d="m415.658 276.274c-.341 0-.64.284-.64.625v10.315c0 .341.3.624.64.624h10.314c.34 0 .624-.284.624-.624v-10.315c0-.34-.285-.625-.624-.625zm.29.929h9.718v9.705h-9.718z" transform="matrix(.965926 -.258819 .258819 .965926 -58.662794 118.523629)"/><path d="m426.406 273.392c-.341 0-.625.285-.625.625v10.315c0 .339.285.624.625.624h10.314c.341 0 .624-.284.624-.624v-10.315c0-.34-.285-.625-.624-.625zm.305.93h9.704v9.705h-9.704z" transform="matrix(.965926 -.258819 .258819 .965926 -57.550394 121.209151)"/><path d="m437.154 270.512c-.341 0-.625.284-.625.625v10.315c0 .339.285.624.625.624h10.313c.342 0 .625-.284.625-.624v-10.315c0-.34-.285-.625-.625-.625zm.305.929h9.704v9.705h-9.704z" transform="matrix(.965926 -.258819 .258819 .965926 -56.43877 123.892804)"/><path d="m447.901 267.63c-.34 0-.624.285-.624.625v10.315c0 .341.285.625.624.625h10.329c.34 0 .625-.285.625-.625v-10.315c0-.34-.286-.625-.625-.625zm.305.93h9.719v9.705h-9.719z" transform="matrix(.965926 -.258819 .258819 .965926 -55.326493 126.57835)"/><path d="m458.665 264.748c-.341 0-.625.285-.625.625v10.315c0 .339.285.624.625.624l10.314.001c.34 0 .625-.285.625-.625v-10.315c0-.341-.286-.625-.625-.625zm.304.93h9.704v9.705h-9.704z" transform="matrix(.965926 -.258819 .258819 .965926 -54.214075 129.264012)"/><path d="m469.412 261.868c-.339 0-.624.285-.624.625v10.315c0 .341.285.624.624.624h10.315c.341 0 .625-.284.625-.624v-10.315c0-.341-.285-.625-.625-.625zm.307.93h9.703v9.705h-9.703z" transform="matrix(.965926 -.258819 .258819 .965926 -53.102326 131.947648)"/><path d="m480.161 258.986c-.34 0-.624.284-.624.625v10.315c0 .341.285.624.624.624h10.313c.341 0 .64-.285.64-.624v-10.315c0-.34-.3-.625-.64-.625zm.305.929h9.718v9.705h-9.718z" transform="matrix(.965926 -.258819 .258819 .965926 -51.989975 134.633402)"/><path d="m490.924 256.106c-.34 0-.639.285-.639.625v10.315c0 .341.299.624.639.624h10.314c.34 0 .624-.285.624-.624v-10.315c0-.34-.285-.625-.624-.625zm.29.93h9.718v9.705h-9.718z" transform="matrix(.965926 -.258819 .258819 .965926 -50.878276 137.316719)"/><path d="m380.612 297.136c-.341 0-.625.284-.625.625v10.314c0 .34.285.624.625.624h10.314c.34 0 .639-.285.639-.624v-.464h-.015v-9.85c0-.339-.286-.625-.624-.625zm.305.93h9.704v9.704h-9.704z" transform="matrix(.965926 -.258819 .258819 .965926 -65.255789 110.167779)"/><path d="m364.738 300.696c-.341 0-.624.284-.624.625v10.315c0 .339.285.624.624.624h15.5c.341 0 .624-.284.624-.624v-10.315c0-.34-.284-.625-.624-.625zm.305.931h14.891v9.703h-14.891z" transform="matrix(.965926 -.258819 .258819 .965926 -66.630106 106.849918)"/><path d="m391.375 294.256c-.34 0-.639.285-.639.625v10.314c0 .338.3.625.639.625h10.314c.342 0 .625-.284.625-.625v-10.314c0-.34-.286-.625-.625-.625zm.291.93h9.718v9.704h-9.718z" transform="matrix(.965926 -.258819 .258819 .965926 -64.14427 112.851705)"/><path d="m402.123 291.374c-.341 0-.625.284-.625.625v10.315c0 .339.286.624.625.624h10.314c.341 0 .625-.284.625-.624v-10.315c0-.34-.286-.625-.625-.625zm.305.931h9.704v9.703h-9.704z" transform="matrix(.965926 -.258819 .258819 .965926 -63.031879 115.537102)"/><path d="m412.872 288.494c-.342 0-.625.284-.625.625v10.315c0 .339.285.624.625.624h10.314c.341 0 .624-.284.624-.624v-10.315c0-.34-.285-.625-.624-.625zm.304.93h9.704v9.704h-9.704z" transform="matrix(.965926 -.258819 .258819 .965926 -61.920341 118.221171)"/><path d="m423.619 285.612c-.34 0-.624.284-.624.625v10.315c0 .339.285.624.624.624h10.329c.34 0 .624-.284.624-.624v-10.315c0-.34-.285-.625-.624-.625zm.306.931h9.718v9.703h-9.718z" transform="matrix(.965926 -.258819 .258819 .965926 -60.807846 120.906284)"/><path d="m434.382 282.73c-.34 0-.625.284-.625.625v10.315c0 .339.286.624.625.624h10.314c.341 0 .624-.284.624-.624v-10.315c0-.34-.285-.625-.624-.625zm.305.93h9.704v9.704h-9.704z" transform="matrix(.965926 -.258819 .258819 .965926 -59.69547 123.591683)"/><path d="m445.131 279.85c-.342 0-.625.284-.625.625v10.315c0 .339.285.624.625.624h10.313c.144 0 .272-.075.379-.16h.247v-.464-10.315c0-.34-.286-.625-.626-.625zm.304.931h9.704v9.544.16h-9.704z" transform="matrix(.965926 -.258819 .258819 .965926 -58.583769 126.275642)"/><path d="m455.878 276.968c-.341 0-.624.284-.624.625v10.314c0 .34.285.625.624.625h10.314c.34 0 .64-.284.64-.625l-.001-10.314c0-.342-.299-.625-.639-.625zm.305.93h9.718v9.704h-9.718z" transform="matrix(.965926 -.258819 .258819 .965926 -57.471379 128.961038)"/><path d="m466.641 274.088c-.341 0-.64.284-.64.626v10.314c0 .339.301.624.64.624h10.314c.341 0 .625-.284.625-.624v-10.314c0-.343-.285-.626-.625-.626zm.291.931h9.717v9.703h-9.717z" transform="matrix(.965926 -.258819 .258819 .965926 -56.35982 131.644717)"/><path d="m477.39 271.207c-.342 0-.625.283-.625.625v10.314c0 .342.284.624.625.624h10.313c.341 0 .625-.283.625-.624v-10.314c0-.343-.285-.625-.625-.625zm.305.93h9.703v9.704h-9.703z" transform="matrix(.965926 -.258819 .258819 .965926 -55.247587 134.33063)"/><path d="m488.137 268.324c-.34 0-.624.286-.624.625v10.315c0 .339.285.624.624.624h10.314c.34 0 .639-.285.639-.624v-10.315c0-.34-.3-.625-.639-.625zm.305.931h9.719v9.703h-9.719z" transform="matrix(.965926 -.258819 .258819 .965926 -54.135017 137.01578)"/><path d="m386.185 307.103c-.341 0-.625.283-.625.624v10.314c0 .34.285.625.625.625h10.314c.341 0 .639-.285.639-.625v-.464-9.85c0-.338-.3-.624-.639-.624zm.305.93h9.718v9.704h-9.718z" transform="matrix(.965926 -.258819 .258819 .965926 -67.645547 111.949793)"/><path d="m367.613 311.018c-.341 0-.626.284-.626.625v10.314c0 .34.286.625.626.625h18.245c.341 0 .625-.284.625-.625v-10.314c0-.34-.286-.625-.625-.625zm.304.93h17.636v9.704h-17.636z" transform="matrix(.965926 -.258819 .258819 .965926 -69.156907 108.300825)"/><path d="m396.948 304.223c-.341 0-.64.283-.64.624v10.314c0 .34.3.625.64.625h10.314c.341 0 .625-.284.625-.625v-10.314c0-.34-.286-.624-.625-.624zm.291.929h9.718v9.704h-9.718z" transform="matrix(.965926 -.258819 .258819 .965926 -66.533905 114.633577)"/><path d="m407.696 301.341c-.342 0-.625.283-.625.624v10.314c0 .34.285.625.625.625h10.314c.341 0 .624-.284.624-.625v-10.314c0-.34-.284-.624-.624-.624zm.305.93h9.704v9.704h-9.704z" transform="matrix(.965926 -.258819 .258819 .965926 -65.421522 117.318976)"/><path d="m418.444 298.459c-.341 0-.624.283-.624.624v10.314c0 .34.285.625.624.625h10.314c.341 0 .64-.284.64-.625v-10.314c0-.34-.3-.624-.64-.624zm.306.929h9.717v9.704h-9.717z" transform="matrix(.965926 -.258819 .258819 .965926 -64.309087 120.004762)"/><path d="m429.207 295.579c-.341 0-.64.283-.64.624v10.314c0 .34.299.625.64.625h10.314c.341 0 .624-.284.624-.625v-10.314c0-.34-.285-.624-.624-.624zm.29.93h9.719v9.704h-9.719z" transform="matrix(.965926 -.258819 .258819 .965926 -63.197489 122.688149)"/><path d="m439.955 292.697c-.34 0-.625.283-.625.624v10.315c0 .34.287.625.625.625h10.314c.34 0 .625-.284.625-.625v-10.315c0-.341-.286-.624-.625-.624zm.305.93h9.704v9.704h-9.704z" transform="matrix(.965926 -.258819 .258819 .965926 -62.085204 125.373821)"/><path d="m450.703 289.817c-.341 0-.624.283-.624.624v10.314c0 .34.284.625.624.625h10.314c.342 0 .625-.284.625-.625v-10.314c0-.34-.285-.624-.625-.624zm.306.93h9.703v9.704h-9.703z" transform="matrix(.965926 -.258819 .258819 .965926 -60.973431 128.05758)"/><path d="m461.452 286.935c-.341 0-.625.284-.625.624v10.315c0 .34.285.625.625.625h10.329c.339 0 .624-.284.624-.625v-10.315c0-.341-.286-.624-.624-.624zm.305.93h9.718v9.704h-9.718z" transform="matrix(.965926 -.258819 .258819 .965926 -59.861154 130.743134)"/><path d="m472.214 284.053c-.341 0-.625.283-.625.624v10.315c0 .34.285.625.625.625h10.313c.342 0 .625-.285.625-.625v-10.315c0-.341-.284-.624-.625-.624zm.305.93h9.704v9.704h-9.704z" transform="matrix(.965926 -.258819 .258819 .965926 -58.748797 133.428394)"/><path d="m482.963 281.173c-.341 0-.626.284-.626.624v10.315c0 .342.286.625.626.625h10.313c.34 0 .625-.286.625-.625v-10.315c0-.339-.286-.624-.625-.624zm.305.93h9.704v9.704h-9.704z" transform="matrix(.965926 -.258819 .258819 .965926 -57.637153 136.112186)"/><path d="m394.581 316.315c-.34 0-.625.3-.625.64v10.314c0 .338.286.624.625.624h10.314c.143 0 .257-.077.364-.16h.26v-.464-10.314c0-.341-.284-.64-.624-.64zm.305.93h9.704v9.558.16h-9.704z" transform="matrix(.965926 -.258819 .258819 .965926 -69.745897 114.43504)"/><path d="m370.324 320.971c-.341 0-.625.299-.625.64v10.315c0 .339.286.624.625.624h24.071c.34 0 .624-.284.624-.624v-.466-9.848c0-.341-.285-.64-.624-.64h-24.071zm.305.93h23.461v9.718h-23.461z" transform="matrix(.965926 -.258819 .258819 .965926 -71.543243 110.09583)"/><path d="m405.329 313.433c-.341 0-.625.299-.625.64v10.314c0 .34.285.624.625.624h10.314c.341 0 .639-.284.639-.624v-10.314c0-.341-.299-.64-.639-.64zm.305.93h9.719v9.718h-9.719z" transform="matrix(.965926 -.258819 .258819 .965926 -68.633457 117.120493)"/><path d="m416.077 310.553c-.341 0-.624.299-.624.64v10.314c0 .339.285.624.624.624h10.328c.341 0 .625-.284.625-.624v-10.314c0-.341-.286-.64-.625-.64zm.306.93h9.718v9.718h-9.718z" transform="matrix(.965926 -.258819 .258819 .965926 -67.521823 119.804277)"/><path d="m426.84 307.671c-.341 0-.625.3-.625.64v10.314c0 .34.285.624.625.624h10.314c.341 0 .625-.284.625-.624v-10.314c0-.341-.286-.64-.625-.64zm.304.93h9.704v9.718h-9.704z" transform="matrix(.965926 -.258819 .258819 .965926 -66.409447 122.489876)"/><path d="m437.588 304.791c-.34 0-.625.299-.625.64v10.314c0 .341.286.624.625.624h10.314c.342 0 .625-.284.625-.624v-10.314c0-.341-.285-.64-.625-.64zm.306.93h9.703v9.718h-9.703z" transform="matrix(.965926 -.258819 .258819 .965926 -65.297822 125.173528)"/><path d="m448.336 301.909c-.341 0-.625.299-.625.64v10.314c0 .34.286.624.625.624h10.329c.341 0 .625-.284.625-.624v-10.314c0-.34-.286-.64-.625-.64zm.305.93h9.718v9.718h-9.718z" transform="matrix(.965926 -.258819 .258819 .965926 -64.185423 127.85905)"/><path d="m459.099 299.027c-.341 0-.625.3-.625.64v10.315c0 .339.285.624.625.624h10.314c.341 0 .624-.285.624-.624v-10.315c0-.34-.285-.64-.624-.64zm.305.93h9.704v9.718h-9.704z" transform="matrix(.965926 -.258819 .258819 .965926 -63.073171 130.544466)"/><path d="m469.847 296.147c-.341 0-.624.299-.624.64v10.314c0 .34.285.624.624.624l10.314.001c.34 0 .624-.285.624-.625v-10.314c0-.342-.285-.64-.624-.64zm.305.93h9.704v9.718h-9.704z" transform="matrix(.965926 -.258819 .258819 .965926 -61.96163 133.22856)"/><path d="m385.484 329.483c-.341 0-.625.284-.625.624v10.315c0 .341.284.624.625.624h15.979c.344 0 .625-.282.625-.624v-10.315c0-.339-.285-.624-.625-.624zm.305.93h15.369v9.704h-15.369z" transform="matrix(.965926 -.258819 .258819 .965926 -73.365522 113.262242)"/><path d="m499.59 298.908c-.34 0-.624.286-.624.625v10.314c0 .341.284.625.624.625h15.979c.343 0 .626-.283.626-.625v-10.314c0-.342-.286-.625-.626-.625zm.305.931h15.369v9.703h-15.369z" transform="matrix(.965926 -.258819 .258819 .965926 -61.564194 141.753572)"/><path d="m400.293 314.195c-.34 0-.624.284-.624.625v10.314c0 .341.284.625.624.625h100.467c.142 0 .257-.076.363-.16h.262v-.465-10.314c0-.339-.285-.625-.625-.625zm.305.931h99.857v9.544.16h-99.857z" transform="matrix(.965926 -.258819 .258819 .965926 -67.464775 127.507853)"/><path d="m491.358 290.385c-.341 0-.639.299-.639.64v10.315c0 .34.299.624.639.624h10.314c.341 0 .624-.285.624-.625v-10.314c0-.342-.284-.64-.624-.64zm.291.93h9.717v9.718h-9.717z" transform="matrix(.965926 -.258819 .258819 .965926 -59.737471 138.597343)"/><path d="m502.038 286.763c-.34 0-.625.298-.625.639v10.315c0 .341.285.624.625.624h15.98c.34 0 .624-.284.624-.624v-10.315c0-.342-.284-.639-.624-.639zm.304.929h15.369v9.718h-15.369z" transform="matrix(.965926 -.258819 .258819 .965926 -58.339216 141.973139)"/><path d="m480.581 293.269c-.341 0-.624.299-.624.64v10.314c0 .341.284.624.624.624h10.328c.341 0 .625-.284.625-.624v-10.314c0-.342-.285-.64-.625-.64zm.305.93h9.718v9.718h-9.718z" transform="matrix(.965926 -.258819 .258819 .965926 -60.850576 135.910507)"/><path d="m493.71 278.292c-.34 0-.624.283-.624.624v10.314c0 .342.285.625.624.625h10.314c.341 0 .639-.286.639-.625v-10.314c0-.34-.299-.624-.639-.624zm.306.929h9.717v9.704h-9.717z" transform="matrix(.965926 -.258819 .258819 .965926 -56.524847 138.797635)"/><path d="m523.29 270.369c-.34 0-.639.285-.639.625v10.314c0 .34.299.625.639.625h10.314c.34 0 .625-.286.625-.625v-10.314c0-.34-.286-.625-.625-.625zm.291.93h9.718v9.704h-9.718z" transform="matrix(.965926 -.258819 .258819 .965926 -53.466947 146.17978)"/><path d="m511.248 263.425c-.34 0-.625.285-.625.625v10.315c0 .089.006.076 0 .13h-7.597c-.34 0-.626.284-.626.624v10.315c0 .342.286.625.626.625h18.579c.159 0 .295-.06.406-.16h.219v-.465-21.383c0-.343-.285-.625-.625-.625h-10.357zm.305.931h9.748v20.613.16h-17.97v-9.704h7.539c.107 0 .253-.027.377-.117.124-.088.196-.214.233-.319.075-.21.073-.382.073-.624z" transform="matrix(.965926 -.258819 .258819 .965926 -53.651713 141.958326)"/><path d="m498.9 265.445c-.339 0-.639.285-.639.625v10.314c0 .34.3.624.639.624h10.315c.339 0 .624-.285.624-.624v-10.314c0-.341-.285-.625-.624-.625zm.29.93h9.719v9.704h-9.719z" transform="matrix(.965926 -.258819 .258819 .965926 -53.023458 139.699398)"/><path d="m520.411 259.679c-.341 0-.626.284-.626.625v10.314c0 .342.285.624.626.624h10.313c.341 0 .625-.285.625-.624v-10.314c0-.34-.285-.625-.625-.625zm.305.93h9.703v9.704h-9.703z" transform="matrix(.965926 -.258819 .258819 .965926 -50.797981 145.072121)"/><path d="m535.425 255.658c-.341 0-.64.284-.64.625v10.314c0 .342.299.624.64.624h10.314c.34 0 .626-.283.626-.624v-10.314c0-.342-.287-.625-.626-.625zm.291.93h9.718v9.704h-9.718z" transform="matrix(.965926 -.258819 .258819 .965926 -49.245848 148.819254)"/><path d="m546.299 252.74c-.341 0-.625.285-.625.625v10.315c0 .339.285.624.625.624h10.314c.34 0 .639-.284.639-.624v-10.315c0-.342-.3-.625-.639-.625zm.305.931h9.717v9.703h-9.717z" transform="matrix(.965926 -.258819 .258819 .965926 -48.119744 151.537881)"/><path d="m557.188 249.825c-.34 0-.625.285-.625.625v10.314c0 .34.285.624.625.624h10.314c.34 0 .624-.285.624-.624v-10.314c0-.341-.285-.625-.624-.625zm.305.93h9.704v9.704h-9.704z" transform="matrix(.965926 -.258819 .258819 .965926 -46.994377 154.254869)"/><path d="m538.302 266.392c-.34 0-.639.298-.639.639v10.314c0 .342.299.625.639.625h10.315c.34 0 .625-.284.625-.625v-10.314c0-.342-.286-.639-.625-.639zm.291.93h9.719v9.718h-9.719z" transform="matrix(.965926 -.258819 .258819 .965926 -51.927938 149.930217)"/><path d="m549.177 263.474c-.341 0-.624.3-.624.639v10.314c0 .34.284.625.624.625h10.314c.341 0 .639-.284.639-.625v-10.314c0-.342-.299-.639-.639-.639zm.305.93h9.718v9.718h-9.718z" transform="matrix(.965926 -.258819 .258819 .965926 -50.801633 152.648871)"/><path d="m560.065 260.558c-.34 0-.624.3-.624.64v10.314c0 .34.285.625.624.625h10.315c.34 0 .624-.286.624-.625v-10.314c0-.34-.285-.64-.624-.64zm.306.931h9.704v9.718h-9.704z" transform="matrix(.965926 -.258819 .258819 .965926 -49.67628 155.36575)"/><path d="m571.682 245.941c-.34 0-.624.283-.624.625v10.314c0 .342.285.624.624.624h10.315c.34 0 .625-.283.625-.624v-10.314c0-.343-.286-.625-.625-.625zm.305.93h9.704v9.704h-9.704z" transform="matrix(.965926 -.258819 .258819 .965926 -45.495206 157.874229)"/><path d="m582.571 243.023c-.34 0-.625.285-.625.625v10.314c0 .34.286.625.625.625h10.315c.34 0 .624-.284.624-.625v-10.314c0-.342-.285-.625-.624-.625zm.305.93h9.704v9.704h-9.704z" transform="matrix(.965926 -.258819 .258819 .965926 -44.369094 160.592854)"/><path d="m593.445 240.108c-.339 0-.624.285-.624.625v10.314c0 .339.286.624.624.624h10.315c.34 0 .639-.284.639-.624v-10.314c0-.343-.3-.625-.639-.625zm.305.93h9.719v9.703h-9.719z" transform="matrix(.965926 -.258819 .258819 .965926 -43.243767 163.310347)"/><path d="m604.236 237.218c-.341 0-.625.284-.625.625v10.314c0 .342.285.625.625.625h10.314c.34 0 .625-.284.625-.625v-10.314c0-.342-.286-.625-.625-.625zm.305.93h9.704v9.704h-9.704z" transform="matrix(.965926 -.258819 .258819 .965926 -42.128468 166.002557)"/><path d="m568.791 235.15c-.341 0-.625.284-.625.625v10.314c0 .341.285.625.625.625h10.314c.34 0 .625-.285.625-.625v-10.314c0-.342-.284-.625-.625-.625zm.304.93h9.705v9.704h-9.705z" transform="matrix(.965926 -.258819 .258819 .965926 -42.800963 156.758047)"/><path d="m579.68 232.233c-.341 0-.625.285-.625.624v10.315c0 .338.285.624.625.624h10.314c.34 0 .624-.284.624-.624v-10.315c0-.341-.283-.624-.624-.624zm.305.929h9.703v9.704h-9.703z" transform="matrix(.965926 -.258819 .258819 .965926 -41.674844 159.476782)"/><path d="m590.554 229.317c-.341 0-.625.285-.625.624v10.315c0 .338.286.624.625.624h10.314c.341 0 .639-.284.639-.624v-10.315c0-.341-.297-.624-.639-.624zm.304.93h9.719v9.704h-9.719z" transform="matrix(.965926 -.258819 .258819 .965926 -40.549374 162.193972)"/><path d="m601.345 226.427c-.342 0-.626.284-.626.625v10.314c0 .341.285.625.626.625h10.314c.34 0 .624-.285.624-.625v-10.314c0-.342-.283-.625-.624-.625zm.305.93h9.703v9.704h-9.703z" transform="matrix(.965926 -.25882 .25882 .965926 -39.43413 164.886739)"/><path d="m574.56 256.674c-.339 0-.624.299-.624.64v10.314c0 .341.285.624.624.624h10.315c.34 0 .625-.284.625-.624v-10.314c0-.342-.286-.64-.625-.64zm.305.93h9.705v9.719h-9.705z" transform="matrix(.965926 -.258819 .258819 .965926 -48.177018 158.985293)"/><path d="m585.449 253.757c-.34 0-.625.3-.625.639v10.314c0 .34.286.625.625.625h10.314c.34 0 .625-.284.625-.625v-10.314c0-.342-.286-.639-.625-.639zm.305.93h9.704v9.718h-9.704z" transform="matrix(.965926 -.258819 .258819 .965926 -47.051009 161.703706)"/><path d="m596.323 250.841c-.339 0-.625.3-.625.639v10.315c0 .34.286.624.625.624h10.314c.341 0 .64-.284.64-.624v-10.315c0-.342-.3-.639-.64-.639zm.305.93h9.718v9.719h-9.718z" transform="matrix(.965926 -.258819 .258819 .965926 -45.925517 164.420678)"/><path d="m607.114 247.951c-.341 0-.625.299-.625.64v10.314c0 .341.285.625.625.625h10.315c.339 0 .624-.285.624-.625v-10.314c0-.342-.285-.64-.624-.64zm.305.931h9.704v9.718h-9.704z" transform="matrix(.965926 -.258819 .258819 .965926 -44.810276 167.113589)"/><path d="m577.44 267.424c-.34 0-.624.283-.624.624v10.328c0 .343.284.625.624.625h10.315c.342 0 .625-.282.625-.625v-10.328c0-.342-.286-.624-.625-.624zm.305.929h9.704v9.718h-9.704z" transform="matrix(.965926 -.258819 .258819 .965926 -50.861058 160.096977)"/><path d="m588.329 264.506c-.34 0-.625.285-.625.624v10.328c0 .342.284.625.625.625h10.315c.342 0 .624-.282.624-.625v-10.328c0-.342-.285-.624-.624-.624zm.306.929h9.703v9.718h-9.703z" transform="matrix(.965926 -.258819 .258819 .965926 -49.734793 162.815339)"/><path d="m599.203 261.59c-.339 0-.624.285-.624.625v10.328c0 .341.284.625.624.625h10.315c.342 0 .639-.283.639-.625v-10.328c0-.342-.3-.625-.639-.625zm.305.929h9.719v9.719h-9.719z" transform="matrix(.965926 -.258819 .258819 .965926 -48.609407 165.532467)"/><path d="m611.438 258.51c-.341 0-.625.284-.625.625v21.485c0 .342.285.625.625.625h10.314c.34 0 .625-.284.625-.625v-21.485c0-.342-.286-.625-.625-.625zm.305.93h9.703v20.875h-9.703z" transform="matrix(.965926 -.258819 .258819 .965926 -48.839443 168.782174)"/><path d="m580.13 276.725c-.341 0-.624.285-.624.625v10.314c0 .342.285.64.624.64h21.485c.34 0 .625-.301.625-.64v-10.314c0-.339-.284-.625-.625-.625zm.305.93h20.875v9.719h-20.875z" transform="matrix(.965926 -.258819 .258819 .965926 -52.986584 162.555447)"/><path d="m602.083 272.338c-.34 0-.625.286-.625.625v10.314c0 .339.286.639.625.639h10.314c.342 0 .64-.299.64-.639v-10.314c0-.342-.298-.625-.64-.625zm.305.93h9.719v9.719h-9.719z" transform="matrix(.965926 -.258819 .258819 .965926 -51.293081 166.643976)"/><path d="m501.671 253.224c-.339 0-.624.285-.624.626v10.314c0 .341.285.625.624.625h10.315c.34 0 .625-.284.625-.625v-10.314c0-.342-.285-.626-.625-.626zm.306.93h9.703v9.705h-9.703z" transform="matrix(.965926 -.258819 .258819 .965926 -49.766037 140.002448)"/><path d="m512.489 249.653c-.34 0-.625.286-.625.625v10.315c0 .339.285.624.625.624h15.325c.34 0 .64-.286.64-.624v-10.315c0-.34-.301-.625-.64-.625zm.304.929h14.731v9.705h-14.731z" transform="matrix(.965926 -.258819 .258819 .965926 -48.387424 143.33062)"/><path d="m532.451 244.261c-.341 0-.626.286-.626.625v10.315c0 .339.286.624.626.624h15.66c.34 0 .625-.285.625-.624v-10.315c0-.34-.285-.625-.625-.625zm.305.93h15.049v9.705h-15.049z" transform="matrix(.965926 -.258819 .258819 .965926 -46.30628 148.354916)"/><path d="m548.781 239.864c-.34 0-.625.286-.625.625v10.315c0 .339.286.624.625.624h15.82c.34 0 .624-.285.624-.624v-10.315c0-.34-.285-.625-.624-.625zm.305.93h15.21v9.705h-15.21z" transform="matrix(.965926 -.258819 .258819 .965926 -44.609125 152.45247)"/></g></svg>