<svg xmlns="http://www.w3.org/2000/svg"><g fill="#fff"><path d="m172.222 5.115c3.782-4.84 11.607-5.664 16.247-1.608 1.897 1.598 3.226 3.804 3.904 6.177 8.589 29.553 17.216 59.091 25.794 88.646-5.07.003-10.141-.006-15.209.003-2.39-8.143-4.724-16.309-7.084-24.462-9.8-.029-19.599-.009-29.397-.012-2.401 8.151-4.768 16.31-7.126 24.48-5.041-.021-10.08-.009-15.123-.012 8.159-28.19 16.328-56.38 24.527-84.562.974-2.947 1.338-6.243 3.467-8.65m8.947 18.108c-3.594 12.243-7.115 24.511-10.687 36.76 7.122.032 14.243.012 21.363.012-3.564-12.256-7.112-24.514-10.676-36.772z"/><path d="m278.992 5.751c2.64-3.831 7.747-5.693 12.241-4.509 4.117.949 7.266 4.496 8.354 8.489 8.579 29.532 17.188 59.05 25.766 88.576-5.074.045-10.148 0-15.223.022-2.358-8.153-4.694-16.321-7.071-24.471-9.784.003-19.567-.021-29.351.007-2.338 8.163-4.748 16.303-7.088 24.461-5.037.003-10.072 0-15.107.003 8.153-28.342 16.405-56.662 24.625-84.987.863-2.56 1.194-5.38 2.854-7.591m-1.234 54.244c7.093.01 14.182.003 21.274.003-3.526-12.281-7.111-24.546-10.631-36.83-3.542 12.277-7.12 24.545-10.643 36.827z"/><path d="m206.818 1.095h55.001v14.835c-6.75.006-13.499-.007-20.247.006 0 27.465.004 54.929-.003 82.395-4.832 0-9.672 0-14.506 0 0-27.465-.004-54.928.005-82.395-6.751-.013-13.499 0-20.249-.006-.001-4.945-.005-9.889-.001-14.835z"/><path d="m341.474 1.698c1.392-.482 2.879-.646 4.35-.611 5.781.022 11.561.003 17.344.008 9.735.177 19.028 6.223 23.242 14.985 2.917 5.69 3.219 12.309 2.482 18.552-.504 6.536-3.248 13.07-8.27 17.399-2.654 2.369-5.96 3.802-8.799 5.904-1.56 1.191-1.634 3.494-.83 5.144 7.673 11.847 15.651 23.503 23.482 35.25-5.728.012-11.457-.015-17.185.012-7.502-11.266-14.924-22.589-22.395-33.867-2.196-3.208-2.79-7.462-1.477-11.129 1.025-2.809 3.484-4.868 6.219-5.926 5.223-1.992 10.369-5.125 13.264-10.052 2.198-3.707 2.088-8.274 1.099-12.329-1.162-5.262-6.289-9.406-11.706-9.222-3.748.025-7.492-.022-11.233.017-1.693-.039-3.287 1.432-3.266 3.153-.019 26.447.01 52.901-.006 79.353-4.872-.009-9.74 0-14.613-.009-.01-28.471.008-56.953-.01-85.425.024-4.994 3.575-9.691 8.308-11.207z"/><path d="m402.134 1.095h15.376c-.006 32.416.004 64.824-.01 97.235-5.12-.012-10.242 0-15.367-.003.001-32.412.001-64.819.001-97.232z"/><path d="m43.353.916c2.461-.008 4.922 0 7.388-.004.008 5.789 0 11.58.003 17.367.023 4.833-.112 9.663-.312 14.493-.33 6.97-.768 13.957-1.92 20.845-.794 4.749-2.44 9.335-4.476 13.686-3.325 7.008-8.552 12.939-14.427 17.926-5.254 4.627-11.527 7.996-18.125 10.269-3.733 1.292-7.575 2.278-11.484 2.832.003-4.856.003-9.714 0-14.568 4.709-.709 9.235-2.38 13.437-4.59 4.986-2.637 9.476-6.182 13.256-10.365 3.903-4.315 7.013-9.315 9.373-14.62 2.78-6.099 4.268-12.694 5.28-19.292 1.268-8.39 1.796-16.882 1.992-25.356.031-2.872.007-5.747.015-8.623z"/><path d="m53.71.926c4.533-.029 9.065-.003 13.6-.01.001 32.469.001 64.943 0 97.411-4.523.012-9.046-.02-13.568.022-.055-10.351-.007-20.713-.023-31.063-.006-22.118.008-44.237-.009-66.36z"/><path d="m70.335.916c2.45-.004 4.897-.008 7.344 0-.081 9.9.258 19.822 1.437 29.655.966 7.641 2.329 15.34 5.372 22.456 2.884 6.885 7.042 13.285 12.461 18.448 5.177 4.935 11.445 8.729 18.258 10.91 1.901.605 3.844 1.081 5.822 1.375-.001 4.854-.004 9.706 0 14.56-3.883-.529-7.691-1.531-11.397-2.79-4.412-1.534-8.681-3.523-12.602-6.077-2.862-1.834-5.464-4.039-7.963-6.336-4.121-3.803-7.807-8.118-10.579-13.012-2.165-3.808-3.746-7.922-4.986-12.115-1.135-4.216-1.617-8.58-2.058-12.913-.852-9.373-1.171-18.789-1.111-28.194.002-5.323 0-10.644.002-15.967z"/><path d="m53.71.926c.016 22.122.004 44.242.009 66.358.015 10.35-.034 20.708.023 31.064 4.522-.041 9.046-.011 13.568-.022.001-32.468.001-64.941 0-97.414-4.533.011-9.066-.014-13.6.014"/><path d="m70.335.916c-.002 5.321 0 10.644 0 15.965-.061 9.402.259 18.82 1.111 28.194.441 4.333.923 8.697 2.058 12.912 1.238 4.194 2.821 8.309 4.986 12.116 2.771 4.894 6.458 9.209 10.579 13.011 2.501 2.301 5.102 4.503 7.963 6.337 3.921 2.553 8.19 4.54 12.602 6.077 3.705 1.258 7.514 2.258 11.397 2.789-.004-4.853-.001-9.706 0-14.559-1.976-.29-3.922-.771-5.822-1.375-6.813-2.181-13.082-5.975-18.258-10.91-5.419-5.156-9.577-11.561-12.461-18.448-3.043-7.116-4.406-14.815-5.372-22.456-1.18-9.833-1.518-19.755-1.437-29.655-2.45-.006-4.898-.002-7.346.002"/><path d="m458.164 62.704 1.771 1.391c6.194 4.803 13.653 8.723 21.618 8.723 3.413 0 8.848-1.39 8.848-5.691 0-4.298-4.552-4.675-7.711-5.308l-6.954-1.263c-13.526-2.402-24.904-10.368-24.904-25.287-.001-22.627 20.607-35.269 41.34-35.269 10.871 0 20.858 2.655 30.213 8.344l-9.355 24.399c-5.941-4.044-12.64-7.205-20.099-7.205-3.035 0-7.46 1.135-7.46 5.054 0 3.542 4.3 4.046 6.952 4.677l7.839 1.773c14.663 3.285 25.283 11.124 25.283 27.306 0 22.754-20.732 34.007-41.338 34.007-12.012 0-25.917-3.288-36.663-8.723z"/><path d="m527.184 1.517h72.816v26.741l-19.088.054v68.526h-34.638v-68.527l-19.09-.053z"/></g></svg>