<svg xmlns="http://www.w3.org/2000/svg"><g fill="#fff"><path d="m170.924 37.234c1.758 1.215 3.075 2.535 3.954 3.951.945 1.692 1.521 3.582 1.722 5.677v46.726c0 2.839-.522 5.053-1.569 6.64s-2.214 2.853-3.498 3.801c-1.485 1.08-3.177 1.824-5.068 2.23h-31.524v-71.057h28.482c3.246.138 5.746.814 7.501 2.032zm2.232 9.424c-.204-1.486-.642-2.836-1.317-4.054-.543-1.011-1.386-1.941-2.535-2.787s-2.707-1.2-4.663-1.065l-26.456.102v64.161h26.861c1.419-.27 2.704-.741 3.853-1.419.945-.54 1.857-1.35 2.736-2.433.876-1.08 1.386-2.565 1.521-4.459zm-14.902 4.107c.609.573 1.08 1.2 1.419 1.875.339.744.54 1.587.609 2.532v29.397c.066 1.69-.084 2.992-.456 3.901-.372.915-.828 1.572-1.368 1.977-.609.54-1.284.843-2.029.912h-6.081l-.201-41.659h5.472c1.15.135 2.029.489 2.635 1.065zm-1.215 4.407c-.135-.54-.339-.978-.607-1.317-.609-.741-1.656-.945-3.144-.609v34.87c.606.201 1.182.27 1.722.201.474-.066.897-.267 1.266-.606.376-.336.628-.981.763-1.927z"/><path d="m200.726 35.509v70.548h-19.664v-70.548zm-3.447 4.056h-12.974v62.64h12.974z"/><path d="m226.573 58.62v-2.94c.066-1.351-.237-2.161-.912-2.434-.27-.132-.642-.132-1.113 0-.543 0-.93.12-1.167.357s-.39.522-.456.861c-.138.336-.138.741 0 1.216v3.852l15.608 10.138c1.959 1.08 3.462 2.229 4.512 3.444 1.047 1.218 1.773 2.367 2.178 3.448.474 1.218.711 2.499.711 3.852v15.505c-.135 2.233-.711 4.042-1.725 5.425-1.011 1.386-2.16 2.451-3.444 3.192-1.488.879-3.145 1.521-4.969 1.927h-20.474c-2.568-.066-4.578-.709-6.03-1.927-1.452-1.212-2.518-2.499-3.193-3.849-.813-1.623-1.317-3.447-1.521-5.476v-23.111l18.449 11.254v3.952c0 .609.081 1.065.252 1.368.168.303.387.525.657.66.27.201.609.303 1.014.303 1.014-.069 1.59-.474 1.725-1.218.066-.267.033-.639-.102-1.113v-4.663l-13.48-8.107c-2.367-1.284-4.14-2.655-5.322-4.107-1.183-1.452-2.047-2.754-2.584-3.903-.609-1.351-.912-2.704-.912-4.054v-16.621c.132-2.569.741-4.561 1.824-5.98 1.081-1.419 2.299-2.466 3.649-3.144 1.554-.741 3.276-1.182 5.169-1.317h18.143c3.108.135 5.509.711 7.198 1.725 1.689 1.011 2.973 2.16 3.852 3.444.945 1.488 1.554 3.144 1.824 4.969v25.844zm-1.623-8.818c1.08.135 1.911.387 2.485.762.576.372 1.032.792 1.368 1.266.339.54.576 1.149.711 1.824v2.938l13.177 7.905-.204-17.329c.066-1.759-.321-3.193-1.167-4.309-.843-1.116-1.773-1.977-2.787-2.583-1.216-.744-2.602-1.218-4.156-1.422h-19.664c-1.554.138-2.772.561-3.648 1.269-.879.708-1.554 1.434-2.028 2.178-.54.948-.912 1.962-1.116 3.042v16.421c-.066 1.35.204 2.532.813 3.546.606 1.015 1.284 1.891 2.025 2.635.813.879 1.791 1.656 2.94 2.331l16.625 10.744v6.589c0 1.284-.273 2.283-.813 2.991-.54.711-1.149 1.233-1.824 1.569-.745.408-1.621.678-2.635.813-1.284-.135-2.265-.42-2.94-.861-.675-.438-1.182-.927-1.521-1.47-.405-.606-.675-1.317-.81-2.13v-3.241l-11.86-7.095-.201 16.621c.066 1.96.489 3.463 1.266 4.513.777 1.047 1.638 1.839 2.583 2.382 1.08.606 2.331.978 3.75 1.113h19.766c1.959-.066 3.43-.507 4.411-1.317.978-.81 1.704-1.689 2.178-2.634.54-1.149.813-2.433.813-3.853v-15.103c.066-.813-.135-1.623-.609-2.436-.474-.81-1.014-1.518-1.62-2.128-.744-.744-1.557-1.452-2.433-2.13l-18.044-11.656v-7.501c.066-1.149.387-1.992.963-2.532.573-.54 1.167-.948 1.773-1.218.747-.267 1.557-.435 2.433-.504z"/><path d="m289.418 62.067-7.297 8.41 7.297 8.92v26.66h-18.752v-19.663l-2.634-2.434v22.299h-18.956v-70.849h18.956v22.298l2.634-3.145v-19.153h18.752zm-3.244-22.604h-11.758l-.102 16.928-9.529 9.73-.405-27.063h-11.86v63.045h11.758v-26.153l9.226 8.718v17.534h12.466v-22.4l-8.008-9.325 8.212-9.526z"/><path d="m344.458 58.62v-2.94c.066-1.351-.237-2.161-.912-2.434-.27-.132-.642-.132-1.116 0-.543 0-.93.12-1.167.357s-.387.522-.456.861c-.135.336-.135.741 0 1.216v3.852l15.61 10.138c1.959 1.08 3.463 2.229 4.513 3.444 1.047 1.218 1.773 2.367 2.178 3.448.471 1.218.711 2.499.711 3.852v15.505c-.138 2.233-.711 4.042-1.725 5.425-1.014 1.386-2.163 2.451-3.448 3.192-1.485.879-3.141 1.521-4.965 1.927h-20.474c-2.568-.066-4.578-.709-6.034-1.927-1.452-1.212-2.514-2.499-3.192-3.849-.81-1.623-1.317-3.447-1.521-5.476v-23.111l18.449 11.254v3.952c0 .609.084 1.065.255 1.368.165.303.387.525.657.66.27.201.609.303 1.014.303 1.014-.069 1.587-.474 1.722-1.218.069-.267.033-.639-.102-1.113v-4.663l-13.48-8.107c-2.364-1.284-4.141-2.655-5.323-4.107-1.179-1.452-2.043-2.754-2.583-3.903-.606-1.351-.912-2.704-.912-4.054v-16.621c.135-2.569.744-4.561 1.827-5.98 1.08-1.419 2.298-2.466 3.648-3.144 1.555-.741 3.277-1.182 5.17-1.317h18.143c3.108.135 5.505.711 7.197 1.725 1.69 1.011 2.974 2.16 3.853 3.444.945 1.488 1.554 3.144 1.824 4.969v25.844zm-1.623-8.818c1.08.135 1.911.387 2.484.762.573.372 1.032.792 1.368 1.266.339.54.573 1.149.711 1.824v2.938l13.175 7.905-.201-17.329c.066-1.759-.321-3.193-1.164-4.309-.847-1.116-1.777-1.977-2.791-2.583-1.215-.744-2.601-1.218-4.155-1.422h-19.664c-1.554.138-2.772.561-3.651 1.269-.877.708-1.555 1.434-2.026 2.178-.543.948-.912 1.962-1.113 3.042v16.421c-.069 1.35.201 2.532.81 3.546.606 1.015 1.281 1.891 2.026 2.635.813.879 1.791 1.656 2.94 2.331l16.624 10.744v6.589c0 1.284-.273 2.283-.813 2.991-.54.711-1.146 1.233-1.824 1.569-.744.408-1.62.678-2.634.813-1.284-.135-2.265-.42-2.94-.861-.675-.438-1.182-.927-1.522-1.47-.405-.606-.678-1.317-.81-2.13v-3.241l-11.86-7.095-.201 16.621c.066 1.96.489 3.463 1.266 4.513.777 1.047 1.638 1.839 2.584 2.382 1.08.606 2.331.978 3.75 1.113h19.766c1.959-.066 3.429-.507 4.41-1.317.978-.81 1.705-1.689 2.179-2.634.543-1.149.813-2.433.813-3.853v-15.103c.066-.813-.138-1.623-.609-2.436-.474-.81-1.014-1.518-1.621-2.128-.744-.744-1.557-1.452-2.433-2.13l-18.044-11.656v-7.501c.066-1.149.387-1.992.964-2.532.573-.54 1.164-.948 1.773-1.218.744-.267 1.554-.435 2.433-.504z"/><path d="m409.531 35.611v60.209c-.069 2.365-.558 4.24-1.47 5.626s-1.941 2.448-3.09 3.192c-1.287.813-2.772 1.386-4.461 1.723h-29.901v-17.231h19.055v-3.346h-12.974c-2.499-.132-4.392-.741-5.676-1.824-1.284-1.08-2.196-2.298-2.737-3.648-.678-1.554-1.014-3.276-1.014-5.17v-39.531h19.463v32.334h3.346v-32.334zm-3.345 3.75h-12.262v27.675c-.069.876-.306 1.653-.711 2.328-.339.609-.861 1.149-1.572 1.623s-1.74.744-3.091.81c-1.014.069-1.893-.033-2.637-.303-.675-.27-1.281-.744-1.824-1.419-.54-.678-.846-1.758-.909-3.243v-27.468h-11.86v35.982c.066 1.351.372 2.569.912 3.649.471.945 1.197 1.806 2.178 2.583.978.777 2.415 1.167 4.308 1.167h15.104v5.269c-.138.879-.441 1.656-.915 2.331-.405.543-1.014 1.047-1.824 1.521-.813.474-1.894.711-3.244.711h-13.582v10.033h25.848c1.149-.135 2.163-.471 3.042-1.011.741-.474 1.434-1.182 2.076-2.13.642-.945.963-2.229.963-3.853z"/><path d="m435.277 58.62v-2.94c.069-1.351-.237-2.161-.912-2.434-.27-.132-.642-.132-1.113 0-.543 0-.93.12-1.167.357s-.39.522-.456.861c-.135.336-.135.741 0 1.216v3.852l15.607 10.138c1.959 1.08 3.463 2.229 4.513 3.444 1.047 1.218 1.773 2.367 2.181 3.448.471 1.218.708 2.499.708 3.852v15.505c-.135 2.233-.708 4.042-1.725 5.425-1.011 1.386-2.16 2.451-3.445 3.192-1.485.879-3.141 1.521-4.965 1.927h-20.477c-2.568-.066-4.578-.709-6.031-1.927-1.452-1.212-2.517-2.499-3.192-3.849-.81-1.623-1.317-3.447-1.521-5.476v-23.111l18.449 11.254v3.952c0 .609.081 1.065.252 1.368.168.303.387.525.657.66.273.201.609.303 1.017.303 1.011-.069 1.584-.474 1.722-1.218.066-.267.033-.639-.102-1.113v-4.663l-13.48-8.107c-2.367-1.284-4.141-2.655-5.323-4.107s-2.046-2.754-2.583-3.903c-.609-1.351-.912-2.704-.912-4.054v-16.621c.132-2.569.744-4.561 1.824-5.98s2.298-2.466 3.648-3.144c1.555-.741 3.277-1.182 5.17-1.317h18.143c3.108.135 5.508.711 7.197 1.725 1.69 1.011 2.974 2.16 3.853 3.444.945 1.488 1.554 3.144 1.824 4.969v25.844zm-1.62-8.818c1.08.135 1.908.387 2.484.762.573.372 1.029.792 1.368 1.266.336.54.573 1.149.708 1.824v2.938l13.178 7.905-.204-17.329c.069-1.759-.321-3.193-1.164-4.309-.847-1.116-1.774-1.977-2.788-2.583-1.218-.744-2.601-1.218-4.155-1.422h-19.667c-1.554.138-2.769.561-3.648 1.269-.877.708-1.555 1.434-2.026 2.178-.543.948-.915 1.962-1.116 3.042v16.421c-.069 1.35.201 2.532.813 3.546.606 1.015 1.281 1.891 2.025 2.635.811.879 1.792 1.656 2.941 2.331l16.621 10.744v6.589c0 1.284-.27 2.283-.81 2.991-.543.711-1.149 1.233-1.827 1.569-.741.408-1.62.678-2.634.813-1.284-.135-2.262-.42-2.937-.861-.678-.438-1.182-.927-1.522-1.47-.408-.606-.678-1.317-.813-2.13v-3.241l-11.86-7.095-.201 16.621c.069 1.96.489 3.463 1.266 4.513.777 1.047 1.638 1.839 2.587 2.382 1.08.606 2.328.978 3.75 1.113h19.766c1.959-.066 3.429-.507 4.407-1.317.981-.81 1.707-1.689 2.182-2.634.54-1.149.81-2.433.81-3.853v-15.103c.069-.813-.135-1.623-.606-2.436-.474-.81-1.018-1.518-1.624-2.128-.744-.744-1.554-1.452-2.433-2.13l-18.041-11.656v-7.501c.066-1.149.387-1.992.964-2.532.573-.54 1.164-.948 1.773-1.218.741-.267 1.554-.435 2.433-.504z"/><path d="m495.184 35.815v18.445h-8.719v51.999h-20.474v-51.999h-8.314v-18.85zm-3.954 3.648h-29.901v10.744h8.514v52.403h12.365v-52.1h9.022z"/><path d="m518.295 54.059v8.209h12.974v18.449h-13.379v7.804h13.379v18.044l-32.944-.204v-70.951h33.349v18.649zm-3.954 11.96v-15.71h13.378v-10.744h-25.643v64.059h25.643v-11.251h-13.582v-15.406h13.783v-10.948z"/><path d="m596.24 37.993c1.35 1.116 2.298 2.28 2.838 3.498.678 1.419.981 2.973.912 4.663v60.51h-19.259v-50.882c-.069-.742-.336-1.216-.81-1.42-.273-.066-.543-.102-.813-.102-.405 0-.726.102-.963.306-.237.201-.42.405-.555.606-.204.27-.306.544-.306.814v50.477h-19.055v-50.378c0-.742-.27-1.318-.81-1.723-.27-.201-.54-.336-.813-.405-.471 0-.843.102-1.116.303-.27.204-.471.441-.606.711-.201.27-.303.606-.303 1.012v50.174h-18.449v-70.648h23.618c1.486-.135 2.788-.018 3.901.354 1.116.372 2.079.828 2.889 1.368.879.609 1.689 1.32 2.433 2.13.405-.744.912-1.335 1.521-1.773.607-.441 1.216-.795 1.825-1.065.678-.27 1.386-.507 2.13-.711h15.913c2.566.339 4.528 1.068 5.878 2.181zm.204 7.654c-.069-1.15-.339-2.164-.81-3.043-.408-.744-1.101-1.434-2.079-2.079-.981-.639-2.349-.96-4.108-.96h-13.885c-1.08.066-2.094.336-3.039.81-.813.405-1.642 1.014-2.485 1.824-.846.813-1.506 1.893-1.977 3.243-.543-1.281-1.182-2.397-1.926-3.345-.744-.81-1.656-1.554-2.736-2.229-1.083-.675-2.503-.978-4.258-.909l-18.953.201v63.45h11.252v-47.03c-.069-.948.099-1.791.504-2.535.339-.678.897-1.284 1.674-1.824.777-.543 1.944-.813 3.498-.813.81 0 1.587.204 2.331.609.54.336 1.065.927 1.569 1.773.508.846.763 2.079.763 3.7v46.12h11.962v-47.033c0-.81.201-1.587.606-2.331.336-.609.879-1.167 1.623-1.671.741-.507 1.857-.762 3.345-.762.81-.066 1.587.033 2.329.303.609.273 1.167.744 1.671 1.422.507.675.762 1.755.762 3.241v46.828h12.367z"/><path d="m135.151 0h12.413v4.326h-8.065v5.248h8.065v4.464h-8.065v9.328h-4.348z"/><path d="m161.68 23.366h-4.23v-3.639h-8.191l-2.427 3.639h-4.978l16.382-23.366h3.444zm-4.23-8.052v-6.82l-5.002 6.82z"/><path d="m163.336 0h4.906l6.915 15.707 6.964-15.707h4.954v23.366h-4.366v-11.782l-5.394 11.782h-4.414l-5.199-11.782v11.782h-4.366z"/><path d="m268.467 0h4.905l6.916 15.707 6.963-15.707h4.957v23.366h-4.366v-11.782l-5.397 11.782h-4.414l-5.199-11.782v11.782h-4.365z"/><path d="m188.452 0h4.518v23.366h-4.518z"/><path d="m194.212 0h4.519v19.106h5.886v4.26h-10.405z"/><path d="m199.598 0h5.019l4.747 9.574 4.608-9.574h4.975l-7.483 14.86v8.506h-4.381v-8.506z"/><path d="m243.504 6.445c-1.986-3.781-5.946-6.361-10.513-6.361-6.553 0-11.866 5.314-11.866 11.866 0 6.553 5.31 11.863 11.866 11.863 4.597 0 8.584-2.613 10.555-6.438l-5.376.045c-1.327 1.221-3.097 1.968-5.044 1.968-4.107 0-7.438-3.33-7.438-7.438 0-4.11 3.331-7.441 7.438-7.441 1.92 0 3.666.727 4.987 1.921z"/><path d="m255.244 23.876c-6.588 0-11.926-5.34-11.926-11.926 0-6.585 5.341-11.926 11.926-11.926 6.589 0 11.926 5.341 11.926 11.926.003 6.589-5.337 11.926-11.926 11.926zm7.594-11.926c0-4.167-3.381-7.546-7.549-7.546-4.167 0-7.546 3.379-7.546 7.546 0 4.168 3.379 7.546 7.546 7.546 4.168 0 7.549-3.378 7.549-7.546z"/><path d="m301.512.003c3.954.318 7.063 3.627 7.063 7.663 0 4.035-3.109 7.344-7.063 7.663l-3.417-.015v8.052h-4.381v-23.366h4.381zm-3.414 4.494v6.337l3.414-.003c1.494-.279 2.625-1.59 2.625-3.165s-1.131-2.887-2.625-3.166z"/><path d="m356.708 23.669h-4.338v-23.468l6.024-.009 3.415.003c3.954.318 7.065 3.627 7.065 7.663 0 3.297-2.076 6.108-4.992 7.2l5.056 8.608h-4.747l-7.084-12.103h-.399zm5.104-12.646c1.494-.279 2.625-1.59 2.625-3.165s-1.131-2.887-2.625-3.166h-5.104v6.337z"/><path d="m314.284 13.501.003 3.415c.282 1.497 1.59 2.625 3.165 2.625 1.576 0 2.887-1.131 3.169-2.625l.003-3.415.009-13.3h4.488v13.3l-.006 3.415c-.318 3.954-3.627 7.062-7.663 7.062-4.035 0-7.344-3.108-7.662-7.062l.018-3.415-.009-13.3h4.503z"/><path d="m329.601 23.669h4.425v-19.046h3.969v-4.422h-12.229v4.422h3.835z"/><path d="m351.23 23.669h-12.16v-23.468h12.16v4.296h-7.801v5.572h7.801v4.383h-7.801v4.882h7.801z"/><path d="m3.159 94.524c.006-4.797 2.782-8.944 6.82-10.915 0-2.034 0-4.194 0-6.513-5.953-3.328-9.976-9.694-9.979-16.997.003-7.303 4.026-13.672 9.979-16.997 0-14.62 0-27.056 0-29.406.003-7.44 6.031-13.471 13.471-13.471h72.289c7.441 0 13.472 6.031 13.472 13.471v29.406c5.952 3.325 9.976 9.694 9.979 16.997-.003 7.303-4.027 13.669-9.979 16.997v6.513c4.041 1.971 6.816 6.118 6.819 10.915-.003 6.706-5.433 12.14-12.142 12.14h-34.755v-2.662c-.009-5.232-4.246-9.469-9.478-9.478v-2.664-2.661c7.267.003 13.306 5.238 14.56 12.145h29.676c3.766-.009 6.814-3.057 6.817-6.82.006-3.096-2.067-5.709-4.888-6.543l-1.101-.324-.828-1.635v-.637c0-2.976 0-6.219 0-9.853v-.594l.717-1.533.903-.402c4.927-2.214 8.362-7.155 8.359-12.907.003-5.725-3.399-10.645-8.287-12.874l-.192-.087-1.5-.993v-1.429c0-15.307 0-28.583 0-31.02-.009-4.5-3.651-8.139-8.152-8.148h-72.289c-4.5.009-8.139 3.648-8.148 8.148v31.02 1.429l-1.195.789-.309.204-.189.087c-4.89 2.229-8.289 7.152-8.286 12.874-.003 5.752 3.432 10.693 8.358 12.907l.9.402.721 1.533v.594 9.853.637l-.832 1.635-1.101.324c-2.82.834-4.893 3.447-4.887 6.543.006 3.766 3.051 6.811 6.817 6.82h29.675c1.258-6.907 7.297-12.142 14.564-12.145h.111v2.661 2.664h-.108c-5.236.009-9.469 4.246-9.481 9.478v2.662h-34.758c-6.706-.003-12.14-5.434-12.143-12.14z"/><path d="m17.573 40.525c.003-11.053 8.962-20.009 20.015-20.012 11.053.003 20.012 8.959 20.012 20.012 0 11.053-8.959 20.012-20.012 20.012-11.053 0-20.012-8.959-20.015-20.012zm3.327 0c.018 9.217 7.471 16.67 16.688 16.688 9.214-.018 16.669-7.471 16.687-16.688-.018-9.214-7.473-16.67-16.687-16.685-9.217.015-16.67 7.471-16.688 16.685z"/><circle cx="22.245" cy="54.787" r="1.552" transform="matrix(3.000294 0 0 3.000291 -16.236731 -123.794456)"/><path d="m61.593 40.525c0-11.053 8.959-20.009 20.012-20.012 11.053.003 20.012 8.959 20.012 20.012 0 11.053-8.959 20.012-20.012 20.012-11.053 0-20.012-8.959-20.012-20.012zm20.012 16.688c9.214-.015 16.67-7.471 16.685-16.685-.015-9.214-7.471-16.67-16.685-16.688-9.214.018-16.673 7.474-16.688 16.688.018 9.214 7.474 16.667 16.688 16.685z"/><circle cx="28.305" cy="54.787" r="1.552" transform="matrix(3.000297 0 0 3.000291 -16.236814 -123.794456)"/></g></svg>