<svg xmlns="http://www.w3.org/2000/svg"><g fill="#fff"><path d="m476.729 123.203h49.262l74.009-123.203h-49.245z"/><g stroke-width="1.11043"><path d="m192.538 33.612v67.134h40.281c12.53-2.055 19.696-9.075 22.422-20.14.025-8.959.005-17.895 0-26.854-2.726-11.065-9.892-18.085-22.422-20.14zm15.754 13.471h17.858c5.609.995 10.931 2.754 13.472 11.189l-.045 17.903c-2.563 8.423-7.863 10.194-13.472 11.189h-17.857z"/><path d="m20.159 100.76v-51.453h-20.153l-.006-15.661h62.701l-6.722 15.661-15.673.006v51.447z"/><path d="m69.414 33.657-24.616 67.089h20.185l7.788-24.571 7.832 11.189h13.427l4.476 13.382h20.319l-24.795-67.089zm12.219 17.857 7.921 20.185h-15.664z"/><path d="m120.867 100.76v-67.114h24.669l24.626 49.24v-49.24h15.674l-.013 67.114h-24.622l-24.629-49.198-.007 49.198z"/><path d="m273.129 69.479-26.847-35.833h20.135l14.602 22.339 14.531-22.339h22.348l-26.931 35.721.05 31.393h-17.87z"/></g><path d="m412.059 123.203h49.262l74.009-123.203h-49.245z"/><path d="m347.389 123.203h49.262l74.009-123.203h-49.246z"/></g></svg>