<svg xmlns="http://www.w3.org/2000/svg"><g fill="#fff" stroke="#fff"><path d="m374.451 61.609h2.375c2.219 0 6.012.456 7.574 1.371 1.563.91 2.594 1.931 3.09 3.06.499 1.129.751 3.618.751 7.464v15.098c0 4.556-4.815 6.877-7.134 7.381-2.329.502-4.592.754-6.797.754-6.357 0-11.843-1.653-16.469-4.963-4.621-3.311-7.968-8.487-10.047-15.546-2.072-7.049-3.106-15.246-3.106-24.607 0-7.721.946-15.252 2.842-22.589 1.899-7.339 5.128-13.056 9.688-17.161 4.56-4.1 10.276-6.152 17.138-6.152 7.182 0 11.386 1.819 16.671 7.313 5.407 5.617 10.594 11.999 13.622 21.367h4.422v-34.397h-2.516c-.907 2.755-1.898 4.626-2.98 5.614-1.088.991-2.264 1.484-3.525 1.484-.814 0-3.45-.895-7.896-2.686-4.446-1.793-7.666-2.881-9.653-3.266-3.656-.763-6.498-1.148-11.056-1.148-14.724 0-26.946 5.06-36.66 15.179-9.712 10.127-14.566 22.523-14.566 37.198 0 8.2 1.576 15.61 4.74 22.228 2.484 5.133 5.928 9.744 10.331 13.849 4.405 4.1 9.491 7.411 15.244 9.933 5.762 2.515 13.001 3.774 21.717 3.774 6.824 0 13.401-.705 19.751-2.114 6.348-1.413 12.452-3.505 18.337-6.278v-20.289c0-3.555.201-5.791.606-6.7.722-1.733 1.746-2.969 3.079-3.717 1.328-.748 4.958-1.234 8.34-1.479v-3.321h-47.929v3.321z"/><path d="m484.621 87.887c-5.461 4.182-12.731 6.272-21.797 6.272h-5.167c-2.77 0-4.771-.377-6.016-1.139-1.234-.762-2.088-1.738-2.538-2.925-.453-1.189-.68-4.447-.68-9.766v-27.251c4.656 0 10.109.606 12.557 1.822 2.446 1.212 4.592 3.583 6.437 7.109 1.853 3.524 3.063 7.417 3.639 12.941h3.93v-50.148h-3.93c-.77 7.534-2.544 12.593-5.329 16.453-2.782 3.86-7.271 5.791-13.458 5.791h-3.852v-33.639c-.03-5.846 5.182-5.17 5.182-5.17h6.09c7.362 0 12.377.432 15.054 1.29 4.588 1.427 8.14 3.664 10.649 6.71 2.512 3.048 4.456 8.067 5.843 15.065h3.297v-28.644h-81.936v3.923h2.583c3.149 0 5.632.666 7.443 1.996 1.29.903 2.174 2.192 2.648 3.855.242.994.361 3.683.361 8.06v60.602c0 4.85-.263 7.847-.789 8.991-.668 1.615-1.626 2.757-2.863 3.424-1.721 1-3.985 1.499-6.796 1.499h-2.586v4.558h83.323l5.006-30.817h-4.571c-2.387 8.579-6.312 14.96-11.777 19.139"/><path d="m549.092 1.137c-13.962-.576-25.731 3.974-35.287 13.661-9.574 9.678-14.347 21.781-14.347 36.291 0 12.928 3.675 24.098 11.032 33.517 9.305 11.915 22.476 17.881 39.516 17.881 16.983 0 30.14-6.246 39.449-18.746 7.028-9.407 10.545-20.321 10.545-32.724 0-14.511-4.716-26.597-14.133-36.259-9.428-9.663-21.676-14.201-36.758-13.62m22.272 77.559c-2.281 6.749-5.468 11.662-9.563 14.73-3.213 2.406-7.217 3.605-12.015 3.605-7.122 0-12.655-2.788-16.62-8.357-5.679-7.972-8.522-20.289-8.522-36.962 0-14.029 1.838-24.785 5.517-32.276 4.515-9.122 11.097-13.685 19.755-13.685 4.702 0 8.857 1.323 12.464 3.966 3.606 2.639 6.573 7.169 8.9 13.578 2.331 6.417 3.494 16.077 3.494 29.005 0 10.854-1.139 19.657-3.424 26.408"/><path d="m239.715 101.922c16.983 0 30.138-6.249 39.45-18.747 7.026-9.417 10.544-20.318 10.544-32.723 0-14.51-4.716-26.596-14.135-36.259-9.426-9.661-21.675-14.198-36.756-13.619-13.963-.576-25.731 3.975-35.287 13.661-9.574 9.677-14.348 21.782-14.348 36.291 0 12.928 3.675 24.099 11.034 33.517 9.303 11.914 22.475 17.88 39.515 17.88m-19.995-82.996c4.514-9.122 11.098-13.685 19.758-13.685 4.701 0 8.854 1.32 12.461 3.963 3.607 2.642 6.574 7.17 8.904 13.58 2.327 6.416 3.491 16.075 3.491 28.995 0 10.853-1.139 19.66-3.422 26.408-2.279 6.749-5.468 11.662-9.565 14.738-3.209 2.402-7.214 3.602-12.013 3.602-7.122 0-12.657-2.786-16.623-8.356-5.678-7.973-8.52-20.288-8.52-36.96 0-14.029 1.837-24.785 5.515-32.277"/><path d="m190.505 67.975h-4.574c-2.387 8.576-6.314 14.959-11.776 19.136-5.462 4.182-12.731 6.271-21.789 6.271h-5.169c-2.769 0-4.768-.38-6.012-1.137-1.239-.763-2.087-1.738-2.54-2.926-.452-1.19-.681-4.447-.681-9.769v-27.25c4.656 0 10.11.607 12.559 1.824 2.446 1.211 4.594 3.585 6.438 7.109 1.851 3.526 3.063 7.417 3.64 12.944h3.929v-50.151h-3.929c-.771 7.531-2.547 12.592-5.331 16.453-2.778 3.861-7.27 5.789-13.457 5.789h-3.852v-33.638c-.032-5.847 5.184-5.17 5.184-5.17h6.084c7.368 0 12.389.431 15.065 1.287 4.592 1.427 8.141 3.667 10.65 6.712 2.513 3.046 4.459 8.07 5.847 15.063h3.293v-28.668h-81.935v3.949h2.582c3.149 0 5.631.666 7.443 1.994 1.288.904 2.17 2.192 2.645 3.855.242.996.362 3.683.362 8.059v60.604c0 4.85-.262 7.847-.788 8.984-.666 1.614-1.625 2.762-2.86 3.425-1.719 1-3.985 1.498-6.803 1.498h-2.582v4.559h83.323l5.009-30.816z"/><path d="m33.245 94.171h-2.21c-3.173 0-5.992-.974-8.457-2.924-2.459-1.949-3.69-5.699-3.69-11.261v-58.531l63.402 79.039 4.11.005v-80.613c0-4.583.381-5.914 1.137-7.8.756-1.887 1.814-3.248 3.164-4.084 1.353-.834 4.004-1.514 7.948-2.04v-4.101h-31.452v4.101c5.184-.094 8.888 1.24 11.081 4.011 1.608 2.053 2.411 4.087 2.411 9.915v42.216l-49.357-60.243h-30.032v3.253c2.855.095 2.957 1.051 4.477 1.858l8.045 8.098-.012 64.909c0 5.134-1.014 8.767-3.038 10.903-2.027 2.139-5.619 3.231-10.772 3.278v3.924h33.231v-3.924z"/><path d="m316.764 51.244c0 6.442-5.221 11.66-11.659 11.66-6.442 0-11.661-5.223-11.661-11.66 0-6.443 5.224-11.66 11.661-11.66 6.441 0 11.659 5.222 11.659 11.66z" stroke-width=".133"/></g></svg>