<svg xmlns="http://www.w3.org/2000/svg"><g fill="#fff"><ellipse cx="519.627" cy="127.938" rx="80.373" ry="72.03" stroke-width="1.591"/><path d="m0 86.802h50.985v107.028h31.182v-106.608h50.565v-26.544h-132.732z" fill-rule="evenodd" stroke-width="1.41487"/><path d="m306.123 86.802h50.985v107.028h31.182v-106.608h50.565v-26.544h-132.732z" fill-rule="evenodd" stroke-width="1.41487"/><path d="m265.041 61.521h31.602v131.046h-31.602z" stroke-width="1.41487"/><ellipse cx="284.955" cy="698.276" rx="24.651" ry="24.018" stroke-width="1.41487" transform="matrix(1 0 0 .999999 -5.379181 -674.257129)"/><path d="m96.072 193.83h43.401c4.638-44.046 29.265-93.612 58.149-116.718l-19.806-33.711z" fill-rule="evenodd" stroke-width="1.41487"/><path d="m174.024 192.987c-1.554-40.227 9.585-82.986 30.762-103.656l56.463 103.656z" fill-rule="evenodd" stroke-width="1.41487"/><path d="m198.465 76.689 5.478 10.533c3.816-5.046 24.444-28.8 39.609-37.923-17.313 3.864-31.149 16.32-45.087 27.39z" fill-rule="evenodd" stroke-width="1.41487"/></g><ellipse cx="519.165" cy="128.547" fill="#141414" rx="47.649" ry="47.502" stroke-width="1.46703"/></svg>