<svg xmlns="http://www.w3.org/2000/svg"><g fill="#fff"><path d="m25.334 64.783 59.108 101.328h80.219l-59.108-101.328zm12.666 6.332h61.219l50.484 86.553h-61.222z"/><path d="m46.467 119.1-46.467 47.011h73.888zm-2.486 13.237 17.241 27.442h-44.334z"/><path d="m141.517 111.76 46.467-47.007h-73.888zm2.486-13.23-17.242-27.443h44.331z"/><path d="m200.725 130.76c-.112-.151-.351 1.145-.716 3.876-.366 2.73-.571 4.763-.607 6.086.38 2.831 1.344 2.852 2.909 4.28 1.302.801 2.413.577 5.542.928 3.133.359 21.773.365 24.927.015 3.144-.344 5.775-.773 7.494-1.906 3.35-2.102 5.621-5.132 6.812-13.306.851-4.413 1.223-5.546 1.123-7.627-.127-2.788-1.546-4.661-4.262-5.603-2.715-.943-6.678-.487-11.083-.487h-8.699c-9.352 0-15.016.042-17.816 1.979-3.19 2.129-4.455 4.966-5.624 11.765zm66.871-32.571h-13.243c.444-3.19.323-5.323.233-7.271-.091-1.985-.296-3.725-1.196-4.362-1.885-1.625-9.57-1.48-17.747-1.48h-7.648c-8.134 0-12.892-.048-15.363 1.782-3.193 2.483-5.123 6.283-5.79 11.394l-2.154 8.787s1.435-2.154 4.658-2.498c5.657-.613 15.079-.042 18.619-.042 8.627.148 15.756-.36 20.392.398 4.637.771 9.685 1.767 12.098 4.386 2.133 2.187 3.299 5.546 3.51 10.068.142 2.985-.45 7.863-1.767 14.617-.737 3.259-1.595 6.201-2.58 8.811-.978 2.616-2.332 5.045-4.063 7.283-1.721 2.238-3.775 6.114-6.162 7.41-3.763 1.921-8.59 1.794-12.955 2.307-4.362.514-11.358 0-18.287 0-6.186 0-12.463.142-16.967-.392-4.51-.535-8.225-1.84-11.146-3.906-3.568-2.598-5.573-6.89-6.002-12.871-.021-3.09.323-6.6 1.033-10.548l7.382-38.737c1.402-8.482 3.997-15.094 10.168-19.036 3.434-2.138 7.6-3.552 12.499-4.241 4.903-.698 12.989-1.042 20.045-1.042h10.85c7.377 0 9.431.985 14.602 2.948 5.171 1.964 7.896 5.881 8.171 11.76.085 1.715-.317 9.358-1.19 14.475z"/><path d="m318.479 81.388c-8.703 0-16.629.395-19.547 1.184-2.852.794-4.64.725-5.927 2.764-1.28 2.042-2.096 4.18-2.446 6.425-.354 2.238-.671 5.249-.946 9.022.275 2.266 1 3.827 2.175 4.67 2.251 1.423 10.14 1.55 20.386 1.55 9.177 0 16.022-.191 19.61-1.746 1.52-.598 2.831-1.948 3.927-4.045 1.106-2.105 1.773-3.64 2.556-7.6.435-2.398.625-4.425.592-6.092-.052-2.121-.707-3.528-1.967-4.232-1.383-.758-3.504-1.266-6.352-1.52-2.858-.253-6.875-.38-12.061-.38zm22.213 31.426c5.456 2.239 5.456 7.504 5.598 13.56.021.855.223 5.461-.058 7.059-.281 1.589-.19 2.816-.287 3.329-1.205 5.558-1.598 8.008-3.477 11.294-1.878 3.293-2.984 5.649-6.261 7.41-2.858 1.619-6.483 2.743-10.866 3.371-4.392.625-12.082.942-18.857.942h-8.754c-7.579 0-13.506-.274-17.783-.821-4.271-.55-6.79-2.522-9.303-4.821-2.372-2.069-4.622-7.093-5.012-11.935.127-2.259.529-3.413 1.197-7.669.882-3.933 1.09-7.102 1.788-9.213.698-2.102 2.09-4.582 3.625-6.516 1.525-1.927 3.784-3.343 6.461-4.869 1.646-.942 2.138-1.302.456-2.709-1.852-1.541-2.344-2.985-2.864-4.87-.269-.589-.408-6.331-.438-6.521.819-13.11 4.25-19.788 10.394-24.833 3.61-3.096 5.202-4.933 13.21-5.504 4.108-.332 15.375-.492 21.129-.492 7.938 0 15.656.169 18.942.508 2.888.419 5.392 1.039 7.531 1.848 2.142.816 1.921 2.202 3.552 4.166 1.432 1.809 2.19 4.679 2.284 8.605.06 2.71-.115 5.534-.535 8.479-.417 2.943-1.184 5.779-2.302 8.519-1.111 2.733-2.555 4.917-4.328 6.557-2.223 2.42-1.912 4.118-4.857 5.081-.632.212-.97.064-.955-.036.006-.079.26-.13.77.081zm-31.094 5.848c-5.594 0-11.315-.021-14.333.318-3.018.338-5.489.984-7.425 1.936-1.779.8-3.208 2.25-4.292 4.35-1.091 2.102-2.048 5.029-2.885 8.781-.71 4.349-.619 5.213-.752 6.479.269 2.308.752 3.667 2.498 4.434 1.752.767 4.271 2.106 7.739 2.254 2.646.284 9.551.429 16.484.429 7.198 0 12.84.498 16.746-.958 1.843-.81 3.875-1.036 5.044-3.117 1.176-2.079 1.683-4.229 2.577-8.241.71-3.069 1.048-5.473 1.006-7.219-.048-1.985-.604-5.609-1.683-6.645-.891-1.006-2.884-1.752-5.965-2.245-3.084-.498-8.467-.556-14.759-.556z"/><path d="m385.488 159.779c-7.892 0-16.266-.501-20.905-1.498-4.637-1-8.005-2.755-10.126-5.265-2.615-2.942-2.132-7.144-2.498-12.892.154-4.6.734-9.21 1.471-13.544l4.779-25.108c1-5.383 2.414-10.252 4.25-14.614 1.831-4.356 4.413-7.99 7.733-10.886 1.903-1.837 4.398-3.287 7.488-4.365 3.084-1.069 6.603-1.773 10.542-2.102 3.933-.333 8.775-.502 14.508-.502 4.335 0 8.235.148 11.69.444 3.462.296 6.495.831 9.104 1.613 2.613.779 4.827 1.948 6.643 3.495 3.295 2.993 5.017 7.7 5.165 14.125.064 2.588-.329 7.035-1.175 13.342l-4.875 25.219c-2.637 14.333-5.794 23.742-13.675 28.231-3.199 1.773-7.05 2.933-11.56 3.483-4.513.55-12.103.824-18.559.824zm14.956-77.778c-6.017 0-10.322.115-12.914.338-2.588.218-4.818.698-6.69 1.438-1.438.583-2.725 1.426-3.873 2.516-1.139 1.1-2.277 2.936-3.413 5.504-1.13 2.576-2.124 3.936-2.969 8.282l-5.404 28.675c-.617 4.244-1.006 5.58-1.154 8.235.163 2.377.556 4.117 1.196 5.219.64 1.106 1.592 1.985 2.836 2.64 1.589.822 3.619 1.351 6.087 1.583 2.471.233 6.546.351 12.225.351 6.902 0 12.031-.212 15.408-.62 3.38-.413 5.938-1.365 7.684-2.842 3.223-2.897 5.081-7.231 6.981-16.26l4.996-26.437c.725-5.053 1.054-6.769 1-9.376-.085-3.61-.211-5.494-1.779-6.606-1.507-1.142-3.619-1.864-6.328-2.175-2.716-.311-7.338-.465-13.889-.465z"/><path d="m467.819 159.779c-7.893 0-16.266-.501-20.906-1.498-4.636-1-8.004-2.755-10.125-5.265-2.616-2.942-2.132-7.144-2.498-12.892.157-4.6.731-9.21 1.471-13.544l4.779-25.108c1-5.383 2.413-10.252 4.25-14.614 1.83-4.356 4.413-7.99 7.736-10.886 1.9-1.837 4.398-3.287 7.485-4.365 3.084-1.069 6.6-1.773 10.542-2.102 3.933-.333 8.775-.502 14.508-.502 4.335 0 8.234.148 11.69.444 3.462.296 6.494.831 9.107 1.613 2.61.779 4.824 1.948 6.639 3.495 3.296 2.993 5.018 7.7 5.169 14.125.063 2.588-.332 7.035-1.178 13.342l-4.876 25.219c-2.637 14.333-5.79 23.742-13.671 28.231-3.205 1.773-7.05 2.933-11.563 3.483s-12.104.824-18.559.824zm14.955-77.778c-6.017 0-10.324.115-12.913.338-2.589.218-4.821.698-6.694 1.438-1.434.583-2.721 1.426-3.869 2.516-1.139 1.1-2.278 2.936-3.413 5.504-1.13 2.576-2.124 3.936-2.97 8.282l-5.404 28.675c-.619 4.244-1.006 5.58-1.154 8.235.164 2.377.556 4.117 1.197 5.219.64 1.106 1.592 1.985 2.836 2.64 1.589.822 3.616 1.351 6.087 1.583 2.471.233 6.545.351 12.224.351 6.902 0 12.031-.212 15.408-.62 3.378-.413 5.939-1.365 7.685-2.842 3.223-2.897 5.081-7.231 6.981-16.26l4.996-26.437c.725-5.053 1.054-6.769 1-9.376-.085-3.61-.212-5.494-1.779-6.606-1.508-1.142-3.619-1.864-6.329-2.175-2.715-.311-7.337-.465-13.889-.465z"/><path d="m550.15 159.779c-7.893 0-16.269-.501-20.906-1.498-4.637-1-8.008-2.755-10.125-5.265-2.616-2.942-2.133-7.144-2.498-12.892.154-4.6.731-9.21 1.471-13.544l4.778-25.108c1-5.383 2.414-10.252 4.25-14.614 1.831-4.356 4.411-7.99 7.733-10.886 1.9-1.837 4.398-3.287 7.488-4.365 3.081-1.069 6.601-1.773 10.539-2.102 3.936-.333 8.775-.502 14.512-.502 4.334 0 8.231.148 11.686.444 3.465.296 6.495.831 9.108 1.613 2.61.779 4.827 1.948 6.642 3.495 3.293 2.993 5.017 7.7 5.165 14.125.064 2.588-.332 7.035-1.175 13.342l-4.875 25.219c-2.64 14.333-5.793 23.742-13.674 28.231-3.202 1.773-7.051 2.933-11.563 3.483-4.51.55-12.101.824-18.556.824zm14.955-77.778c-6.017 0-10.325.115-12.913.338-2.589.218-4.818.698-6.691 1.438-1.438.583-2.725 1.426-3.872 2.516-1.139 1.1-2.278 2.936-3.414 5.504-1.129 2.576-2.123 3.936-2.969 8.282l-5.404 28.675c-.619 4.244-1.006 5.58-1.154 8.235.163 2.377.556 4.117 1.196 5.219.641 1.106 1.592 1.985 2.837 2.64 1.589.822 3.615 1.351 6.086 1.583 2.468.233 6.546.351 12.222.351 6.905 0 12.034-.212 15.411-.62 3.38-.413 5.939-1.365 7.685-2.842 3.223-2.897 5.08-7.231 6.98-16.26l4.997-26.437c.724-5.053 1.054-6.769.999-9.376-.084-3.61-.211-5.494-1.779-6.606-1.507-1.142-3.619-1.864-6.328-2.175-2.716-.311-7.34-.465-13.889-.465z"/><path d="m201.833 1.909v46.23h15.832v-18.365h30.399v18.365h15.831v-46.23h-15.831v17.731h-30.399v-17.731z"/><path d="m299.678 11.886 10.013 16.622h-20.032zm15.744 26.119 6.107 10.134h18.366l-27.866-46.233h-6.334-12.034l-27.866 46.233h12.035l6.107-10.131h31.485z"/><path d="m408.291 1.909v46.23h15.2v-16.74c5.017 1.021 10.733 1.541 16.783 1.541 20.111 0 29.279-7.235 29.448-16.149.196-10.696-11.871-16.782-31.982-16.782-5.22 0-7.051.217-14.249.631-7.198.417-15.2 1.269-15.2 1.269zm15.2 7.309s3.71-.434 7.05-.655c3.335-.208 4.223-.169 6.643-.169 9.331 0 14.898 2.972 14.807 8.461-.079 4.573-4.335 8.288-13.665 8.288-2.81 0-7.039-.395-9.89-.794-2.848-.396-4.945-1.302-4.945-1.302z"/><path d="m341.795 1.909v46.23h15.2v-38.921s3.709-.434 7.05-.655c3.335-.208 4.223-.169 6.642-.169 9.331 0 15.529 2.972 15.439 8.461-.079 4.573-4.969 7.02-14.3 7.02-2.806 0-6.262-.387-9.113-.78-.154-.021-3.187 4.897-3.187 4.897l22.8 20.147h22.8l-20.136-17.326c12.605-2.108 18.861-7.838 18.867-14.022.015-12.004-11.929-17.024-32.614-16.782-5.223.063-7.053.217-14.251.631-7.195.417-15.197 1.269-15.197 1.269z"/><path d="m191.699 15.84s5.307-9.739 5.066-10.131c-.239-.396-10.708-5.939-31.666-5.7-32.472.365-32.296 13.931-32.296 13.931s-3.245 12.611 21.996 15.2c15.49 1.582 26.521 4.171 26.458 7.938-.064 3.773-6.564 3.546-9.479 3.307-25.337-2.054-34.393-9.155-34.393-9.155l-5.498 11.385s12.231 7.657 37.647 7.424c25.446-.232 28.928-6.27 29.394-14.396.576-10.119-13.56-14.103-13.56-14.103s-7.757-1.701-15.822-2.855c-9.265-1.332-18.922-2.815-17.716-6.476 0-.124 2.736-5.368 22.165-1.722 9.443 1.764 17.704 5.353 17.704 5.353z"/></g></svg>