<svg preserveAspectRatio="none" xmlns="http://www.w3.org/2000/svg"><g fill="#1e1e1e"><path d="m405.464 220.155c-.881-.022-2.196.001-4.593.044-4.773.083-28.467.173-29.01.173-.383 0-.843.148-1.232.536s-.739.987-1.13 1.942c-.128.311-.34 1.008-.667 2.174-.326 1.165-.759 2.744-1.246 4.665-.974 3.842-2.199 9.034-3.404 14.882-2.41 11.696-4.724 26.035-4.724 37.576v2.883c0 11.543 2.314 25.88 4.724 37.575 1.206 5.849 2.43 11.025 3.405 14.867.489 1.922.92 3.516 1.247 4.681.326 1.165.54 1.863.666 2.174.391.954.742 1.554 1.131 1.942.387.389.848.535 1.231.535.545 0 24.238.091 29.011.175 2.397.041 3.712.05 4.593.028.882-.021 1.336-.087 1.899-.217.326-.076 1.278-.344 2.593-.724 1.317-.381 2.977-.86 4.594-1.333 3.235-.95 6.332-1.87 6.332-1.87l-.26-.898s-3.098.92-6.333 1.869c-1.616.474-3.265.968-4.579 1.348s-2.33.658-2.55.71c-.531.122-.867.182-1.711.203-.842.02-2.167-.002-4.564-.044h-.014c-4.831-.088-28.377-.181-29.01-.181-.206 0-.337-.018-.579-.261-.243-.243-.561-.743-.927-1.637-.063-.152-.3-.931-.624-2.087-.323-1.155-.759-2.723-1.246-4.637-.972-3.829-2.189-9.007-3.39-14.839-2.405-11.663-4.71-25.967-4.71-37.384v-2.883c0-11.418 2.306-25.723 4.71-37.386 1.201-5.832 2.418-11.01 3.39-14.839.486-1.914.922-3.496 1.247-4.651.324-1.156.561-1.92.623-2.073.366-.895.684-1.395.927-1.637.242-.242.373-.261.58-.261.632 0 24.179-.089 29.01-.173h.014c2.398-.043 3.723-.065 4.567-.045.843.02 1.179.081 1.711.203l.097.029c.271.066 1.187.317 2.448.68 1.315.38 2.963.859 4.58 1.333 3.233.95 6.332 1.87 6.332 1.87l.261-.885s-3.097-.919-6.332-1.869c-1.618-.474-3.278-.953-4.594-1.334-1.312-.38-2.262-.648-2.592-.724-.561-.129-1.015-.21-1.897-.231z" transform="matrix(.965926 -.258819 .258819 .965926 -60.101871 110.646662)"/><path d="m405.766 219.299c-.881-.021-2.21-.012-4.608.03-4.763.082-36.754.173-37.3.173-.581 0-1.19.106-1.724.493-.533.387-.964 1.013-1.347 1.985-.119.302-.331 1.004-.652 2.159-.322 1.156-.737 2.726-1.218 4.637-.96 3.823-2.172 9.004-3.361 14.882-2.377 11.756-4.663 26.319-4.663 38.547v4.738c-.001 12.224 2.286 26.791 4.665 38.546 1.189 5.877 2.401 11.045 3.362 14.867.48 1.91.896 3.496 1.217 4.651.32 1.155.533 1.856.652 2.159.383.973.814 1.599 1.347 1.985.533.388 1.143.494 1.725.494.544 0 32.536.075 37.299.158 2.397.042 3.727.065 4.608.044s1.337-.088 1.899-.218c.336-.078 1.335-.369 2.739-.782 1.403-.413 3.164-.945 4.897-1.463 3.467-1.038 6.796-2.043 6.796-2.043l-.264-.877s-3.331 1.006-6.797 2.043c-1.732.518-3.496 1.052-4.897 1.463-1.401.412-2.47.704-2.681.753v.015c-.531.123-.882.168-1.725.188-.842.022-2.167-.001-4.564-.043-4.824-.084-36.68-.16-37.314-.16-.484 0-.838-.074-1.173-.318-.336-.244-.683-.702-1.029-1.579-.063-.161-.305-.928-.623-2.072-.319-1.146-.739-2.705-1.217-4.609-.958-3.808-2.161-8.976-3.348-14.838-2.373-11.732-4.652-26.255-4.652-38.363v-4.739c0-12.107 2.279-26.649 4.652-38.372 1.186-5.861 2.39-11.016 3.347-14.823.48-1.905.899-3.477 1.218-4.623.318-1.146.56-1.898.623-2.058.345-.877.693-1.336 1.029-1.579.335-.244.69-.319 1.174-.319.633 0 32.489-.09 37.313-.174 2.397-.042 3.722-.05 4.565-.029s1.193.066 1.724.188c.211.049 1.28.356 2.681.769 1.402.412 3.166.944 4.898 1.463 3.468 1.037 6.798 2.044 6.798 2.044l.261-.9s-3.33-1.005-6.796-2.042c-1.733-.519-3.494-1.037-4.897-1.45-1.4-.413-2.402-.705-2.736-.782-.562-.13-1.021-.196-1.902-.217z" transform="matrix(.965926 -.258819 .258819 .965926 -60.482911 109.728866)"/><path d="m433.254 314.704-.797.477c.882 1.469 1.885 2.203 2.985 2.203h29.04 72.481 29.054c1.099 0 2.089-.734 2.971-2.203l-.797-.478c-.802 1.331-1.484 1.753-2.175 1.753h-29.056-72.482-29.039c-.694 0-1.388-.421-2.188-1.754z" transform="matrix(.965926 -.258819 .258819 .965926 -64.736188 140.365256)"/><path d="m564.937 169.224c-.882.022-1.336.103-1.898.232-.327.075-1.277.344-2.594.725-1.316.38-2.961.858-4.579 1.333-3.236.949-6.333 1.869-6.333 1.869l.262.883s3.099-.92 6.332-1.869c1.617-.474 3.265-.953 4.579-1.332 1.314-.38 2.315-.66 2.536-.711.531-.123.882-.182 1.724-.203.843-.02 2.169.002 4.565.044 4.816.084 28.392.174 29.025.174.207 0 .323.018.565.261.242.242.576.742.942 1.637.062.152.299.917.623 2.073.325 1.155.746 2.737 1.232 4.651.972 3.829 2.204 9.007 3.405 14.839 2.405 11.664 4.709 25.968 4.709 37.386v2.884c0 11.416-2.305 25.723-4.709 37.386-1.201 5.832-2.433 11.01-3.405 14.839-.486 1.915-.907 3.481-1.232 4.637-.324 1.155-.561 1.935-.623 2.086-.366.896-.7 1.395-.942 1.638s-.358.261-.565.261c-.633 0-24.21.09-29.025.174-2.396.041-3.721.063-4.565.043-.842-.02-1.193-.081-1.724-.203-.221-.05-1.222-.33-2.536-.71-1.314-.379-2.962-.873-4.579-1.347-3.234-.95-6.332-1.87-6.332-1.87l-.262.898s3.097.92 6.333 1.87c1.618.475 3.263.953 4.579 1.333 1.317.38 2.268.649 2.594.725.562.129 1.016.195 1.898.218.882.02 2.211.011 4.608-.029 4.773-.084 28.465-.174 29.011-.174.382 0 .842-.149 1.232-.537.387-.388.739-.987 1.13-1.942.126-.311.34-1.009.666-2.174.327-1.165.744-2.759 1.232-4.681.975-3.841 2.199-9.019 3.405-14.867 2.41-11.694 4.739-26.032 4.739-37.574v-2.883c0-11.542-2.329-25.879-4.739-37.575-1.206-5.844-2.434-11.036-3.408-14.878-.487-1.921-.905-3.501-1.229-4.666-.33-1.164-.542-1.863-.668-2.174-.394-.955-.742-1.553-1.132-1.941-.388-.389-.849-.537-1.232-.537-.543 0-24.237-.09-29.009-.173-2.398-.043-3.729-.065-4.61-.044z" transform="matrix(.965926 -.258819 .258819 .965926 -40.444047 158.106542)"/><path d="m564.65 166.401c-.881.022-1.351.088-1.913.218-.335.077-1.335.369-2.738.783-1.403.413-3.165.93-4.898 1.449-3.468 1.037-6.797 2.043-6.797 2.043l.275.899s3.317-1.007 6.782-2.043c1.733-.519 3.496-1.052 4.897-1.464s2.484-.719 2.696-.768c.531-.123.866-.168 1.71-.189.843-.02 2.167-.012 4.564.029 4.824.085 36.696.174 37.328.174.485 0 .839.075 1.174.319s.682.702 1.028 1.58c.063.16.291.912.609 2.057.319 1.146.739 2.718 1.218 4.623.957 3.809 2.175 8.962 3.361 14.824 2.373 11.722 4.652 26.263 4.652 38.371v4.739c0 12.108-2.279 26.634-4.652 38.357-1.186 5.861-2.404 11.03-3.361 14.838-.479 1.904-.9 3.463-1.218 4.609-.318 1.145-.545 1.912-.609 2.072-.345.877-.693 1.336-1.028 1.579-.335.244-.689.319-1.174.319-.633 0-32.504.074-37.328.159-2.397.043-3.722.064-4.564.044-.843-.021-1.18-.066-1.711-.188v-.015c-.211-.049-1.294-.341-2.695-.754-1.401-.412-3.166-.944-4.897-1.463-3.465-1.036-6.782-2.042-6.782-2.042l-.276.883s3.33 1.006 6.796 2.043c1.734.519 3.494 1.05 4.898 1.464 1.403.412 2.403.704 2.738.782.563.13 1.032.196 1.913.217.882.022 2.196-.001 4.594-.043 4.763-.084 36.769-.16 37.314-.16.582 0 1.177-.104 1.71-.492.534-.388.965-1.012 1.348-1.985.119-.302.33-1.004.652-2.159.321-1.156.736-2.742 1.217-4.652.961-3.822 2.172-8.99 3.362-14.866 2.379-11.756 4.68-26.322 4.68-38.546v-4.738c0-12.225-2.301-26.791-4.68-38.545-1.19-5.879-2.401-11.061-3.362-14.883-.481-1.911-.896-3.482-1.217-4.637-.322-1.155-.533-1.857-.652-2.159-.384-.973-.815-1.598-1.348-1.985s-1.128-.493-1.71-.493c-.545 0-32.551-.09-37.313-.174-2.403-.047-3.72-.056-4.6-.035z" transform="matrix(.965926 -.258819 .258819 .965926 -40.064729 159.022276)"/><path d="m419.193 198.095c-.458 0-.924.012-1.376.261s-.835.686-1.275 1.42v.029l-.014.014c-7.299 14.773-10.749 40.175-10.749 57.281v2.044c0 17.107 3.452 42.511 10.752 57.282l.015.013v.015c.44.733.823 1.171 1.275 1.419.452.25.919.262 1.377.262h29.039 73.947 29.039c.459 0 .91-.012 1.363-.261.451-.248.834-.687 1.275-1.42l.014-.015v-.013c7.294-14.77 10.763-40.176 10.763-57.282v-2.043c0-17.108-3.466-42.511-10.766-57.282v-.014l-.014-.029c-.441-.734-.824-1.172-1.276-1.42-.452-.249-.903-.261-1.363-.261h-29.038-73.948zm0 .927h29.04 73.947 29.039c.439 0 .678.016.913.145.23.127.525.421.913 1.058.009.014.005.014.014.028 7.154 14.5 10.651 39.877 10.651 56.846v2.043c0 16.966-3.501 42.331-10.651 56.831-.401.669-.692.958-.928 1.088-.235.129-.473.144-.913.144h-29.039-73.946-29.04c-.438 0-.692-.015-.927-.144-.226-.126-.52-.427-.898-1.044-.003-.006-.012-.009-.014-.015-7.16-14.495-10.652-39.882-10.652-56.859v-2.043c.001-16.981 3.501-42.381 10.666-56.878.383-.628.669-.932.898-1.058.235-.129.488-.144.927-.144z" transform="matrix(.965926 -.258819 .258819 .965926 -50.272009 134.376332)"/><path d="m404.402 198.85c-1.1 0-2.104.747-2.985 2.217l.797.478c.801-1.333 1.494-1.768 2.188-1.768h29.039 72.482 29.053c.694 0 1.374.435 2.174 1.768l.798-.478c-.886-1.47-1.874-2.217-2.973-2.217h-29.053-72.481-29.04z" transform="matrix(.965926 -.258819 .258819 .965926 -35.810895 128.384407)"/><g transform="matrix(.533849 -.143044 .143044 .533849 301.545471 203.885956)"><path d="m453.166 177.22c-.043-14.803-1.193-29.6-3.442-44.23-.111-.727.445-1.419 1.247-1.547.804-.127 1.548.366 1.66 1.099 2.28 14.808 3.438 29.789 3.476 44.771.001.558.001.836 0 1.393-.037 14.982-1.194 29.961-3.476 44.768-.113.736-.856 1.227-1.66 1.1-.802-.127-1.358-.816-1.247-1.543 2.248-14.633 3.399-29.428 3.442-44.23v-1.578z"/><path d="m459.777 177.294c-.044-15.282-1.23-30.562-3.555-45.667-.115-.75.462-1.465 1.29-1.595.829-.131 1.597.375 1.714 1.133 2.354 15.288 3.552 30.759 3.588 46.227.002.576.002.862 0 1.437-.036 15.471-1.234 30.939-3.588 46.229-.117.758-.885 1.266-1.714 1.133-.828-.131-1.404-.844-1.288-1.596 2.32-15.104 3.51-30.385 3.553-45.666.008-.654.008-.982.008-1.637z"/><path d="m144.998 177.22c.037-14.802 1.191-29.6 3.441-44.23.111-.727-.446-1.419-1.249-1.546-.802-.126-1.547.365-1.661 1.098-2.278 14.806-3.441 29.79-3.475 44.771-.001.558-.001.836 0 1.393.035 14.982 1.194 29.961 3.475 44.768.114.736.857 1.229 1.661 1.102.803-.125 1.36-.818 1.249-1.545-2.25-14.631-3.404-29.43-3.441-44.23v-1.578z"/><path d="m138.386 177.294c.043-15.282 1.232-30.56 3.552-45.667.115-.75-.459-1.464-1.288-1.595s-1.598.375-1.714 1.133c-2.35 15.29-3.554 30.758-3.586 46.227-.001.576-.001.862 0 1.437.035 15.471 1.236 30.939 3.586 46.229.117.758.885 1.266 1.714 1.133s1.403-.844 1.288-1.596c-2.322-15.105-3.51-30.385-3.552-45.666-.017-.654-.017-.982-.008-1.637z"/><path d="m467.538 177.664c-.047-15.872-1.4-31.745-4.057-47.394-.132-.776.452-1.529 1.31-1.679.856-.149 1.666.367 1.799 1.152 2.685 15.858 4.05 31.935 4.103 48.021.002.599.002.897 0 1.496-.053 16.087-1.418 32.161-4.103 48.021-.133.787-.942 1.303-1.799 1.152-.857-.148-1.443-.902-1.312-1.68 2.656-15.643 4.011-31.521 4.059-47.393 0-.672 0-1.015-.009-1.693z"/><path d="m476.33 177.53c-.043-16.548-1.467-33.093-4.229-49.409-.138-.81.473-1.593 1.366-1.749.896-.157 1.735.382 1.873 1.2 2.801 16.531 4.235 33.295 4.275 50.063.002.622.002.934 0 1.559-.04 16.766-1.476 33.529-4.274 50.061-.139.822-.979 1.357-1.874 1.201-.894-.156-1.505-.938-1.367-1.752 2.765-16.313 4.187-32.859 4.229-49.406-.008-.705-.008-1.057-.008-1.763z"/><path d="m487.565 177.697c-.055-17.239-1.667-34.47-4.804-51.422-.156-.843.464-1.667 1.393-1.845.928-.177 1.811.37 1.969 1.223 3.187 17.186 4.811 34.67 4.863 52.154.002.648.002.975 0 1.625-.053 17.482-1.673 34.961-4.863 52.152-.157.852-1.041 1.4-1.969 1.223-.93-.176-1.548-1.002-1.393-1.846 3.137-16.949 4.748-34.184 4.804-51.422.008-.738.008-1.107 0-1.846z"/><path d="m500.259 177.538c-.053-18.236-1.766-36.464-5.081-54.396-.165-.891.492-1.765 1.474-1.951.98-.187 1.917.391 2.084 1.293 3.364 18.185 5.091 36.674 5.143 55.169.002.688.002 1.032 0 1.719-.052 18.494-1.777 36.98-5.144 55.168-.167.902-1.103 1.482-2.083 1.295-.981-.189-1.639-1.061-1.474-1.953 3.32-17.93 5.027-36.162 5.081-54.395.009-.771.009-1.167 0-1.947z"/><path d="m514.287 177.128c-.063-19.234-1.859-38.458-5.358-57.371-.174-.941.435-1.844 1.365-2.021.932-.177 1.833.447 2.01 1.397 3.546 19.156 5.36 38.634 5.417 58.12.001.724.001 1.085 0 1.808-.057 19.482-1.865 38.963-5.419 58.117-.176.951-1.075 1.578-2.008 1.4-.931-.18-1.539-1.084-1.365-2.023 3.501-18.912 5.295-38.137 5.358-57.371-.008-.839-.008-1.25-.008-2.063z"/></g><path d="m564.268 181.524c-.274-.052-.566-.049-.855.014l-14.621 3.232c-1.152.253-1.877 1.397-1.623 2.55v.029l.014.029 4.608 13.332.015.058h.013c.282 1.114 1.406 1.829 2.537 1.579l14.62-3.231c1.153-.254 1.878-1.399 1.623-2.551v-.029l-.014-.029-4.608-13.332c-.003-.015-.011-.028-.015-.043-.204-.84-.887-1.457-1.694-1.608zm-.652.927c.662-.146 1.303.265 1.449.928l.014.029v.029l4.623 13.332c.146.661-.265 1.302-.928 1.449l-14.621 3.217c-.663.146-1.303-.265-1.449-.928l-.015-.014v-.029l-4.622-13.332c-.001-.004.001-.009 0-.014-.137-.657.271-1.304.928-1.449z" transform="matrix(.965926 -.258819 .258819 .965926 -30.634796 151.19014)"/><path d="m558.875 184.495c-4.106 0-7.434 3.342-7.434 7.448s3.328 7.448 7.434 7.448 7.449-3.342 7.449-7.448-3.34-7.448-7.448-7.448zm0 .928c3.605 0 6.521 2.916 6.521 6.52 0 3.605-2.916 6.521-6.521 6.521s-6.505-2.916-6.505-6.521 2.9-6.52 6.505-6.52z" transform="matrix(.965926 -.258819 .258819 .965926 -30.635033 151.189542)"/><path d="m582.56 172.152c-.273-.051-.566-.049-.855.015l-14.62 3.217c-1.152.253-1.877 1.397-1.624 2.55v.029l.015.029 4.608 13.332.015.058h.014c.281 1.114 1.406 1.828 2.536 1.579l14.621-3.217c1.151-.254 1.876-1.413 1.623-2.565v-.029l-.014-.015-4.608-13.345c-.004-.016-.012-.028-.015-.044-.205-.84-.888-1.443-1.696-1.594zm-.653.913c.663-.146 1.303.264 1.449.927l.014.029v.029l4.622 13.332c.146.662-.265 1.303-.927 1.448l-14.621 3.217c-.662.147-1.302-.264-1.449-.927l-.014-.014v-.029l-4.622-13.332c-.001-.004 0-.009 0-.014-.137-.657.27-1.304.927-1.449l14.625-3.216z" transform="matrix(.965926 -.258819 .258819 .965926 -27.584043 155.60509)"/><path d="m577.186 175.122c-4.105 0-7.448 3.328-7.448 7.434s3.343 7.448 7.448 7.448c4.107 0 7.434-3.343 7.434-7.448 0-4.106-3.328-7.434-7.434-7.434zm0 .928c3.605 0 6.506 2.901 6.506 6.506s-2.901 6.52-6.506 6.52c-3.604 0-6.52-2.915-6.52-6.52s2.916-6.506 6.52-6.506z" transform="matrix(.965926 -.258819 .258819 .965926 -27.583883 155.60559)"/><path d="m596.944 266.014c-.801.15-1.47.764-1.681 1.594h-.014l-.015.058-4.608 13.331-.013.015v.028c-.255 1.153.471 2.312 1.622 2.566l14.621 3.217c1.131.249 2.254-.466 2.537-1.58h.013l.015-.058 4.608-13.331.014-.029v-.015c.253-1.152-.472-2.311-1.624-2.565l-14.62-3.217c-.288-.063-.581-.065-.855-.014zm.652.912 14.62 3.232c.657.145 1.064.777.928 1.435-.001.006.001.01 0 .014l-4.622 13.332v.029l-.015.029c-.146.663-.786 1.074-1.449.927l-14.62-3.23c-.657-.146-1.064-.778-.929-1.436.002-.005 0-.009 0-.014l4.624-13.331.013-.03v-.028c.147-.664.788-1.074 1.45-.929z" transform="matrix(.965926 -.258819 .258819 .965926 -51.020278 165.312641)"/><path d="m602.337 268.986c-4.106 0-7.448 3.327-7.448 7.434 0 4.105 3.342 7.447 7.448 7.447s7.434-3.342 7.434-7.447c0-4.107-3.329-7.434-7.434-7.434zm0 .927c3.604 0 6.506 2.903 6.506 6.507s-2.902 6.52-6.506 6.52-6.52-2.915-6.52-6.52 2.915-6.507 6.52-6.507z" transform="matrix(.965926 -.258819 .258819 .965926 -51.020584 165.313656)"/><path d="m576.41 267.033c-.801.149-1.47.763-1.681 1.593h-.014l-.014.058-4.609 13.331-.013.03v.014c-.255 1.152.471 2.312 1.623 2.565l14.621 3.217c1.137.249 2.276-.455 2.55-1.58.003-.015.012-.028.014-.043l4.608-13.346.014-.014v-.029c.255-1.152-.47-2.311-1.623-2.565l-14.621-3.217c-.287-.064-.58-.066-.855-.014zm.653.912 14.621 3.232c.657.145 1.064.778.927 1.435-.001.004.001.009 0 .013l-4.622 13.331v.03l-.015.029c-.145.662-.786 1.073-1.449.928l-14.62-3.228c-.658-.145-1.064-.777-.928-1.435.001-.004-.001-.009 0-.014l4.623-13.331v-.029l.014-.029c.146-.663.787-1.073 1.449-.928z" transform="matrix(.965926 -.258819 .258819 .965926 -51.98359 160.033208)"/><path d="m581.786 270.005c-4.107 0-7.434 3.342-7.434 7.449 0 4.106 3.328 7.433 7.434 7.433s7.448-3.328 7.448-7.433c0-4.107-3.342-7.449-7.448-7.449zm0 .927c3.604 0 6.52 2.916 6.52 6.522 0 3.604-2.915 6.505-6.52 6.505-3.606 0-6.506-2.901-6.506-6.505 0-3.606 2.901-6.522 6.506-6.522z" transform="matrix(.965926 -.258819 .258819 .965926 -51.984153 160.032651)"/><path d="m374.105 265.48c-1.256 0-2.289 1.033-2.289 2.289v5.318c0 1.272-1.004 2.391-2.377 2.391h-5.318c-1.257 0-2.29 1.018-2.29 2.275v11.274c0 1.256 1.033 2.29 2.29 2.29h5.318c.583 0 1.177.19 1.623.58.446.388.754.966.754 1.811v5.303c0 1.258 1.033 2.29 2.289 2.29h11.274c1.257 0 2.29-1.032 2.29-2.29v-5.303c0-.864.24-1.436.637-1.811.398-.376.977-.58 1.739-.58h5.318c1.257 0 2.29-1.033 2.29-2.29v-11.274c0-1.266-1.032-2.282-2.29-2.282h-5.318c-.933 0-1.487-.242-1.841-.622-.353-.381-.536-.961-.536-1.768v-5.319c0-1.256-1.033-2.289-2.289-2.289h-11.274zm0 .927h11.274c.756 0 1.362.607 1.362 1.362v5.318c0 .951.219 1.785.783 2.391s1.422.927 2.522.927h5.318c.756 0 1.362.592 1.362 1.347v11.274c0 .755-.606 1.362-1.362 1.362h-5.318c-.934 0-1.772.254-2.377.826s-.927 1.442-.927 2.493v5.303c0 .756-.607 1.363-1.362 1.363h-11.275c-.755 0-1.362-.607-1.362-1.363v-5.303c0-1.083-.421-1.952-1.057-2.508-.637-.554-1.455-.811-2.246-.811h-5.319c-.755 0-1.362-.607-1.362-1.362v-11.273c0-.756.607-1.348 1.362-1.348h5.319c1.879 0 3.303-1.548 3.303-3.318v-5.318c0-.755.607-1.362 1.362-1.362z" transform="matrix(.965926 -.258819 .258819 .965926 -60.406611 107.940771)"/><path d="m214.576 253.787v-.84-.84h171.275c6.782.034 13.987-5.523 15.46-12.22 4.438-21.566 6.657-42.906 6.657-64.246 0-21.331-2.219-42.662-6.653-64.204-1.477-6.711-8.682-12.266-15.464-12.232-38.064 0-76.124 0-114.184 0-19.031 0-38.06 0-57.091 0-6.784-.034-13.985 5.521-15.458 12.218-4.442 21.552-6.663 42.885-6.663 64.218 0 21.342 2.219 42.684 6.661 64.231 1.477 6.711 8.678 12.269 15.46 12.234v.84.841c-7.649-.033-15.352-5.961-17.1-13.56-4.467-21.669-6.699-43.129-6.699-64.586 0-21.45 2.233-42.899 6.701-64.573 1.746-7.584 9.449-13.509 17.098-13.543 19.031.002 38.06 0 57.091 0h114.184c7.648.034 15.355 5.959 17.104 13.558 4.459 21.663 6.692 43.111 6.692 64.558 0 21.457-2.231 42.911-6.694 64.599-1.746 7.586-9.453 13.514-17.102 13.547z" transform="matrix(.533849 -.143044 .143044 .533849 301.545471 203.885956)"/><path d="m442.345 225.46c-.962 0-1.753.791-1.753 1.753v55.834c0 .963.791 1.754 1.753 1.754h88.247c.964 0 1.754-.792 1.754-1.754v-55.834c0-.962-.79-1.753-1.754-1.753zm0 .927h88.247c.462 0 .826.365.826.827v55.834c0 .461-.364.826-.826.826h-88.247c-.461 0-.826-.365-.826-.826v-55.835c0-.46.365-.826.826-.826z" transform="matrix(.965926 -.258819 .258819 .965926 -49.456638 134.60096)"/><path d="m415.099 220.715c-.87 0-1.58.709-1.58 1.579s.71 1.594 1.58 1.594 1.579-.724 1.579-1.594c0-.869-.709-1.579-1.579-1.579zm0 .927c.368 0 .652.284.652.652 0 .369-.284.667-.652.667-.369 0-.652-.298-.652-.667 0-.368.283-.652.652-.652z" transform="matrix(.965926 -.258819 .258819 .965926 -43.391753 115.010275)"/><path d="m379.768 266.482c-3.873 0-7.027 3.141-7.027 7.014 0 1.163-.254 1.839-.696 2.246-.442.408-1.164.623-2.26.623-3.873 0-7.014 3.14-7.014 7.014 0 3.873 3.141 7.027 7.014 7.027 1.85 0 2.956 1.306 2.956 3.058 0 3.873 3.155 7.013 7.028 7.013s7.027-3.14 7.027-7.013c0-1.123.282-1.861.768-2.333.487-.473 1.227-.725 2.246-.725 3.873 0 7.014-3.155 7.014-7.028 0-3.874-3.141-7.013-7.014-7.013-1.024 0-1.78-.152-2.246-.523-.465-.37-.768-1.02-.768-2.347 0-3.873-3.155-7.013-7.028-7.013zm0 .927c3.372 0 6.101 2.714 6.101 6.086 0 1.477.374 2.482 1.115 3.073.742.589 1.727.724 2.826.724 3.372 0 6.087 2.714 6.087 6.087 0 3.372-2.715 6.1-6.087 6.1-1.174 0-2.18.301-2.884.985-.703.684-1.057 1.713-1.057 3 0 3.373-2.729 6.086-6.101 6.086-3.373 0-6.101-2.713-6.101-6.086 0-2.174-1.571-3.985-3.883-3.985-3.373 0-6.087-2.728-6.087-6.1 0-3.373 2.714-6.087 6.087-6.087 1.21 0 2.206-.232 2.898-.869.691-.637.985-1.624.985-2.927.001-3.373 2.729-6.087 6.101-6.087z" transform="matrix(.965926 -.258819 .258819 .965926 -60.428551 107.958022)"/><path d="m413.729 245.39c-.645-.108-1.269.341-1.377.986l-1.943 11.607c-.108.644.341 1.268.985 1.377l4.145.696c.644.106 1.269-.342 1.376-.986l1.942-11.607c.108-.644-.341-1.269-.985-1.377l-4.145-.695h.002zm-.145.914 4.144.695c.15.025.242.155.217.304l-1.942 11.622c-.024.149-.153.242-.303.217l-4.145-.696c-.15-.024-.257-.155-.232-.303l1.957-11.606v-.015c.025-.149.154-.242.305-.217z" transform="matrix(.965926 -.258819 .258819 .965926 -51.281198 115.926298)"/><path d="m425.107 283.062-4.145.695c-.643.109-1.079.718-.971 1.363l1.941 11.621c.108.645.718 1.078 1.362.97l4.159-.695c.645-.108 1.079-.717.971-1.362l-1.943-11.62c-.108-.645-.732-1.081-1.377-.972zm.159.913c.148-.025.279.066.304.218l1.942 11.607c.024.149-.069.279-.217.304l-4.145.696c-.15.024-.28-.069-.304-.218l-1.942-11.607c-.025-.15.066-.279.218-.304z" transform="matrix(.965926 -.258819 .258819 .965926 -60.702937 119.687439)"/><path d="m415.54 264.888c-.653 0-1.188.549-1.188 1.203v11.767c0 .653.536 1.203 1.188 1.203h4.203c.653 0 1.202-.55 1.202-1.203v-11.767c0-.653-.549-1.203-1.202-1.203zm0 .927h4.203c.151 0 .275.124.275.276v11.767c0 .153-.123.275-.275.275h-4.203c-.152 0-.261-.122-.261-.275v-11.767c0-.152.109-.276.261-.276z" transform="matrix(.965926 -.258819 .258819 .965926 -56.161082 117.362481)"/><path d="m413.006 243.419c-.459-.076-.903.046-1.275.261s-.705.532-.783 1l-2.42 14.448c-.078.468.138.879.42 1.203.282.325.657.59 1.116.667l6.202 1.029c.46.077.903-.046 1.275-.261s.705-.532.783-1l2.42-14.447c.079-.467-.138-.864-.42-1.188s-.657-.589-1.116-.667l-6.202-1.043zm-.145.913 6.188 1.044c.172.029.418.177.58.362.161.186.209.396.202.435l-2.419 14.447c-.007.039-.121.21-.334.334-.212.122-.479.187-.652.159l-6.202-1.043c-.172-.029-.418-.162-.579-.348-.161-.185-.21-.396-.203-.435l2.421-14.461c.006-.039.12-.21.333-.333s.494-.188.667-.16z" transform="matrix(.965926 -.258819 .258819 .965926 -51.281236 115.92721)"/><path d="m546.801 210.089-4.145.695c-.644.108-1.092.733-.985 1.378l1.942 11.606c.109.643.733 1.093 1.376.986l4.145-.696c.644-.109 1.094-.732.985-1.377l-1.941-11.606c-.108-.645-.732-1.094-1.377-.986zm.159.913c.15-.025.28.068.304.218v.014l1.943 11.607c.025.148-.067.278-.218.304-.15.025-.293-.066-.319-.217l-1.942-11.622c-.025-.149.067-.279.217-.304l4.159-.695z" transform="matrix(.965926 -.258819 .258819 .965926 -37.65535 148.82189)"/><path d="m555.555 247.625c-.645-.11-1.268.327-1.377.97l-1.941 11.622c-.107.643.341 1.254.984 1.362l4.145.695c.644.108 1.269-.326 1.377-.97l1.941-11.622c.11-.644-.342-1.253-.984-1.362zm-.159.913 4.144.696c.15.025.257.154.232.304l-1.957 11.607c-.025.149-.155.242-.304.218l-4.144-.697c-.149-.024-.242-.154-.218-.304l1.942-11.606c.026-.152.156-.244.305-.218z" transform="matrix(.965926 -.258819 .258819 .965926 -47.024746 152.709658)"/><path d="m550.664 228.682c-.654 0-1.188.55-1.188 1.203v11.767c0 .653.535 1.202 1.188 1.202h4.202c.653 0 1.203-.549 1.203-1.202v-11.767c0-.653-.549-1.203-1.203-1.203zm0 .927h4.202c.153 0 .275.124.275.276v11.767c0 .153-.122.275-.275.275h-4.202c-.153 0-.261-.122-.261-.275v-11.767c0-.152.109-.276.261-.276z" transform="matrix(.965926 -.258819 .258819 .965926 -42.186007 151.10181)"/></g></svg>