<svg xmlns="http://www.w3.org/2000/svg"><g fill="#fff"><path d="m472.341 59.181-56.019 20.313h56.376l21.447-11.835z"/><path d="m420.03.552h66.546l88.614 44.922h-34.755l-24.429-11.232-15.069 6.129z"/><path d="m543.969 21.132 56.031-20.304h-56.376l-21.435 11.826z"/><path d="m596.301 79.761h-66.555l-88.617-44.922h34.758l24.426 11.232 15.069-6.129z"/><path d="m0 .009h44.112v53.904h-44.112z"/><path d="m0 60.513h113.037v16.503h-113.037z"/><path d="m71.679.009h52.392l35.844 30.246-25.908 19.008z"/><path d="m137.856 52.257v24.756h41.355v-24.756l79.95-52.248h-38.595l-79.95 52.248z"/><path d="m264.684 8.253 44.106 27.504v41.256h-44.106z"/><path d="m270.195.009 113.043 77.004h24.81v-77.013h-21.504v54.159l-80.505-54.15z"/></g></svg>