<svg viewBox="0 0 200 40" xmlns="http://www.w3.org/2000/svg"><g fill="#ccc" transform="matrix(.033284 0 0 .035943 21.600298 8.201198)"><path d="m573.864 323.679 25.6-201.737-189.476-71.896-211.995 101.243-197.993-83.611 27.935 220.105-25.712 218.226 208.665 39.135 200.136-38.125 189.865 43.823zm-363.009 198.946-184.215-34.549 23.732-199.335-23.569-185.734 171.761 72.543 212.423-101.467 164.331 62.361-23.755 187.142 23.648 198.602-163.764-37.782z"/><path d="m506.021 405.449c-5.509 0-10.604 1.596-15.049 4.167-17.531-12.832-35.583-27.904-36.47-47.735-1.217-27.195 15.439-53.227-3.623-78.182-18.625-24.382-66.301-7.944-84.73-26.264 2.873-4.617 4.593-10.01 4.593-15.844 0-16.671-13.519-30.192-30.187-30.192-16.68 0-30.192 13.515-30.192 30.192 0 9.561 4.534 17.98 11.467 23.513-2.907 7.358-4.729 15.167-5.048 23.141-.496 12.596 3.121 25.126.391 37.634-2.252 10.391-16.875 9.729-24.757 9.788-19.875.177-48.202-3.57-61.023 10.462-3.783-2.843-8.207-4.812-13.077-5.621-2.87-25.848 2.098-51.102-20.824-70.985-14.736-12.794-38.846-18.344-52.438-32.719 2.873-4.619 4.61-10.031 4.61-15.871 0-16.674-13.515-30.198-30.189-30.198-16.668 0-30.192 13.515-30.192 30.198 0 16.668 13.515 30.183 30.192 30.183 5.562 0 10.707-1.604 15.179-4.229 10.048 10.083 23.915 16.784 36.892 23.56 16.529 8.627 28.844 19.698 31.108 39.283 1.241 10.734.762 21.291 1.46 31.854-12.135 3.918-20.978 15.16-20.978 28.602 0 16.681 13.515 30.192 30.195 30.192 16.668 0 30.189-13.512 30.189-30.192 0-3.942-.81-7.701-2.189-11.159 10.024-18.063 56.066-5.745 73.423-11.55 12.644-4.238 17.13-16.083 18.247-28.365 1.063-11.473-2.637-22.757-.91-34.283.686-4.69 1.867-9.224 3.439-13.55 1.644.271 3.311.502 5.024.502 5.308 0 10.22-1.489 14.559-3.904 18.684 18.713 55.768 6.174 79.328 20.271 28.017 16.754-.792 64.046 8.051 89.309 6.123 17.472 22.13 30.499 37.994 42.232-2.902 4.64-4.664 10.084-4.664 15.953 0 16.681 13.507 30.192 30.198 30.192 16.657 0 30.192-13.512 30.192-30.192.001-16.663-13.523-30.193-30.191-30.193z"/></g><path d="m45.32 28.87 1.68-4.95c1.68.46 3.22.69 4.62.69 1.4 0 2.53-.06 3.39-.18l.24-1.5-2.49-.24c-1.9-.18-3.247-.61-4.04-1.29-.787-.68-1.18-1.64-1.18-2.88 0-.54.06-1.14.18-1.8.46-2.56 1.293-4.32 2.5-5.28 1.213-.96 3.09-1.44 5.63-1.44 2.54 0 4.78.25 6.72.75l-1.56 4.8c-1.74-.3-3.14-.45-4.2-.45-1.06 0-1.96.05-2.7.15l-.24 1.47 2.01.21c2.04.22 3.49.707 4.35 1.46.86.747 1.29 1.75 1.29 3.01 0 1.28-.28 2.6-.84 3.96-.28.7-.587 1.287-.92 1.76-.327.467-.747.863-1.26 1.19-.507.333-.97.583-1.39.75-.42.173-.95.3-1.59.38-.94.14-2.09.21-3.45.21-2.48 0-4.73-.26-6.75-.78zm33.69-18.42-.87 4.8h-4.14l-2.43 13.95h-5.7l2.43-13.95h-4.11l.87-4.8zm12.66 12.51 1.98 6.24h-6.27l-1.38-5.58h-1.23l-.96 5.58h-5.7l3.3-18.75h9c3.42 0 5.13 1.53 5.13 4.59 0 1.26-.19 2.46-.57 3.6-.7 2.16-1.8 3.6-3.3 4.32zm-4.29-7.71h-1.14l-.66 3.75h1.32c.68 0 1.193-.073 1.54-.22.353-.153.593-.583.72-1.29.133-.713.2-1.15.2-1.31 0-.4-.153-.657-.46-.77-.313-.107-.82-.16-1.52-.16zm14.13 10.98-1.17 2.97h-6l7.89-18.75h8.82l1.32 18.75h-6.03l-.12-2.97zm4.26-10.02h-.3l-2.1 5.25h2.4zm23.43-5.76-.87 4.8h-4.14l-2.43 13.95h-5.7l2.43-13.95h-4.11l.87-4.8zm12.51 7.32-.78 4.35h-5.7l-.39 2.28h6.99l-.84 4.8h-12.69l3.3-18.75h12.54l-1.56 4.8h-6.15l-.42 2.52zm12.69 5.91.15-.81h-1.44l.81-4.59h6.87l-1.77 10.02c-2.44.9-4.89 1.35-7.35 1.35-2.46 0-4.237-.49-5.33-1.47-1.087-.98-1.63-2.49-1.63-4.53 0-.86.14-2.13.42-3.81.6-3.48 1.66-5.99 3.18-7.53 1.52-1.54 4.04-2.31 7.56-2.31.74 0 1.683.08 2.83.24 1.153.16 2 .34 2.54.54l-1.65 4.59c-1.5-.28-2.877-.42-4.13-.42-1.247 0-2.14.1-2.68.3-.54.2-.86.6-.96 1.2l-1.47 8.49h1.89c.68 0 1.183-.073 1.51-.22.333-.153.55-.5.65-1.04zm8.04-13.23h6.3l.39 6.6h.21l2.76-6.6h6.3l-7.56 13.65-.87 5.1h-5.7l.87-5.1z" fill="#fff"/></svg>