<svg xmlns="http://www.w3.org/2000/svg"><g fill="#fff"><path d="m152.385 139.422v36.396h5.682v-32.901h5.262s3.816-.018 5.127 1.698c1.107 1.455 1.308 4.083 1.308 5.862 0 1.908-.114 4.842-.759 5.922-.966 1.641-2.55 1.968-4.011 1.968h-3.471v3.225h4.986s4.503.198 6.447-1.773c2.373-2.424 2.973-5.661 2.973-9.999 0-3.954-1.428-7.932-4.356-9.273-2.421-1.125-6.789-1.125-6.789-1.125z"/><path d="m180.39 175.818h5.694v-36.396h-5.694z"/><path d="m216.282 147.9 10.395 27.246-5.964 14.604h4.713l17.175-41.85h-5.259l-7.485 20.4-6.966-20.4z"/><path d="m246.882 175.581v-3.432s6.006.234 7.254.234c2.775 0 4.155-.594 5.193-1.701.618-.663 1.176-3.639 1.176-4.692 0-1.068-.198-3.348-.612-4.275-.426-.918-1.392-1.773-2.85-1.89-1.029-.096-2.637-.294-4.5-.384-2.622-.12-4.356-1.497-5.196-2.472-.822-.993-1.935-2.457-1.935-7.017 0-4.536 1.176-7.074 2.349-8.262 1.185-1.185 2.913-1.704 4.233-1.935 1.515-.267 4.011-.285 4.011-.285l7.956.237v3.435s-5.805-.225-7.05-.225c-2.775 0-3.606.585-4.647 1.698-.606.672-1.086 2.502-1.086 3.564 0 1.047.123 3.177.534 4.095.417.927 1.389 1.773 2.838 1.905 1.029.075 2.64.285 4.503.378 2.634.129 4.365 1.488 5.193 2.478.831.99 1.944 3.069 1.944 7.608s-1.182 7.782-2.358 8.952c-1.176 1.197-2.901 1.719-4.224 1.947-1.524.276-4.02.276-4.02.276z"/><path d="m277.866 142.917h-5.676v26.7s.138 2.436.273 3.285c.144.861 1.392 2.91 4.644 2.91l5.886-.126v-3.426s-1.602.12-2.559.12c-.975 0-2.16-.072-2.361-1.725-.21-1.632-.21-3.606-.21-3.606v-15.723h6.411v-3.426h-6.411z"/><path d="m332.661 175.818h5.682v-27.918h-5.682z"/><path d="m332.661 144.489h5.682v-5.067h-5.682z"/><path d="m356.289 147.669c3.864 0 6.861.87 8.472 2.172 1.623 1.308 3.618 4.053 3.618 12.015 0 7.965-1.995 10.704-3.618 12.027-1.611 1.302-4.608 2.169-8.472 2.169-3.873 0-6.861-.867-8.478-2.169-1.617-1.323-3.612-4.062-3.612-12.027 0-7.959 1.995-10.704 3.612-12.015 1.617-1.299 4.605-2.172 8.478-2.172zm-3.885 5.355c-.786.957-1.734 2.988-1.734 8.832 0 5.862.948 7.875 1.734 8.832.771.954 2.202 1.602 4.062 1.602 1.866 0 3.291-.645 4.083-1.602.774-.954 1.731-2.97 1.731-8.832 0-5.844-.954-7.872-1.731-8.832-.792-.954-2.22-1.59-4.083-1.59-1.86 0-3.294.636-4.062 1.59z"/><path d="m380.148 151.833 5.562-.24c1.464 0 3.171.396 3.999 1.443.78.996 1.266 2.175 1.266 4.083v18.654h5.685v-19.119c0-3.618-1.11-5.712-2.781-7.032-2.385-1.893-6.645-1.725-6.645-1.725l-12.732.243v27.63h5.646z"/><path d="m321.372 142.917h-5.688v26.7s.135 2.436.276 3.285c.138.861 1.377 2.91 4.635 2.91l5.892-.126v-3.426s-1.599.12-2.565.12c-.96 0-2.148-.072-2.355-1.725-.198-1.632-.198-3.606-.198-3.606v-15.723h6.393v-3.426h-6.393v-4.983z"/><path d="m207.624 157.122c0-1.908-.489-3.087-1.266-4.083-.831-1.047-2.547-1.44-4.005-1.44l-7.491.237v-3.69l9.021-.243s4.263-.168 6.648 1.725c1.659 1.317 2.775 3.414 2.775 7.032v18.852l-10.887.234s-4.935.024-7.41-.99c-2.424-.984-3.744-3.687-3.744-7.431 0-3.615 1.113-5.727 2.775-7.047 2.388-1.887 6.642-1.704 6.642-1.704h3.48v3.225h-1.953c-1.455 0-2.958.27-3.786 1.308-.786.999-1.2 1.851-1.2 3.759 0 2.499.486 3.621 1.662 4.473 1.038.756 2.901.921 4.986.921l3.753-.234z"/><path d="m303.381 157.122c0-1.908-.477-3.087-1.257-4.083-.837-1.047-2.547-1.44-4.002-1.44l-7.485.237v-3.69l9.003-.243s4.266-.168 6.651 1.725c1.662 1.317 2.766 3.414 2.766 7.032v18.852l-10.872.234s-4.935.024-7.422-.99c-2.412-.984-3.738-3.687-3.738-7.431 0-3.615 1.119-5.727 2.772-7.047 2.388-1.887 6.654-1.704 6.654-1.704h3.468v3.225h-1.95c-1.446 0-2.964.27-3.789 1.308-.777.999-1.2 1.851-1.2 3.759 0 2.499.498 3.621 1.662 4.473 1.038.756 2.91.921 4.989.921l3.75-.234z"/><path d="m447.603 144.129c.072 4.194-.132 6.402-1.542 8.499-1.242 1.845-3.702 3.525-9.138 3.525l-6.744-.198c-1.068.018-3.819.33-5.124 1.725-1.116 1.206-1.203 2.109-1.317 5.319v9.417h22.923v4.611h-25.059l-1.203-.009c-1.704 0-3.378-1.155-3.378-3.468v-7.023c.12-8.205.708-9.381 2.49-11.532 1.236-1.488 4.14-3.153 7.662-3.33.693-.03 1.995-.12 3.825-.069 1.332.06 2.664.096 3.249.108 3.123.03 4.26-.546 5.115-1.662.975-1.26 1.5-2.748 1.5-5.184 0-2.28-.468-4.431-1.338-5.43-1.053-1.155-2.061-1.929-4.992-1.929-7.416-.018-16.068.177-16.068.177v-4.356s8.457-.36 17.082-.486c5.37-.093 8.331 1.335 9.837 3.3 1.59 2.046 2.148 3.981 2.22 7.995z"/><path d="m592.596 7.395v40.641h-179.52v55.428h186.924v-7.392h-179.526v-40.641h179.526v-55.431h-186.924v7.395z"/><path d="m385.374 0v7.395h-95.349v96.069h-103.101v-7.392h95.349v-96.072z"/><path d="m7.395 103.464v-48.033h179.529v-55.431h-186.924v7.275l179.535.12v40.641h-179.535v55.428z"/></g></svg>