<svg viewBox="0 0 99 19" xmlns="http://www.w3.org/2000/svg"><path d="m24 15.85v-12.6h4.6c1.347 0 2.407.32 3.18.96.773.647 1.16 1.6 1.16 2.86 0 .873-.187 1.59-.56 2.15-.367.553-.893 1-1.58 1.34l2.84 5.29h-2.57l-2.43-4.68h-2.34v4.68zm2.3-6.61h1.69c1.693 0 2.54-.683 2.54-2.05 0-.66-.193-1.16-.58-1.5-.38-.34-1.003-.51-1.87-.51h-1.78zm16.538 6.61-1.04-2.99h-4.59l-1.04 2.99h-2.24l4.49-12.6h2.17l4.49 12.6zm-4.91-5h3.15l-1.57-4.5zm8.59 5v-12.6h2.26l5.39 8.14v-8.14h2.3v12.6h-1.89l-5.76-8.64v8.64zm12.725 0v-12.6h4.71c1.2 0 2.274.253 3.22.76.94.5 1.674 1.223 2.2 2.17.527.953.79 2.077.79 3.37 0 1.293-.263 2.417-.79 3.37-.526.947-1.26 1.67-2.2 2.17-.946.507-2.02.76-3.22.76zm2.3-2.05h2.41c1.2 0 2.117-.377 2.75-1.13.627-.747.94-1.787.94-3.12 0-1.333-.313-2.373-.94-3.12-.633-.753-1.55-1.13-2.75-1.13h-2.41zm16.11 2.3c-1.187 0-2.25-.273-3.19-.82-.947-.547-1.687-1.313-2.22-2.3-.533-.993-.8-2.137-.8-3.43 0-1.293.267-2.437.8-3.43.533-.987 1.273-1.753 2.22-2.3.94-.547 2.003-.82 3.19-.82 1.187 0 2.253.273 3.2.82.94.547 1.677 1.313 2.21 2.3.533.993.8 2.137.8 3.43 0 1.293-.267 2.437-.8 3.43-.533.987-1.27 1.753-2.21 2.3-.947.547-2.013.82-3.2.82zm0-2.23c1.227 0 2.167-.397 2.82-1.19.653-.793.98-1.837.98-3.13 0-1.293-.327-2.337-.98-3.13-.653-.793-1.593-1.19-2.82-1.19-1.227 0-2.167.397-2.82 1.19-.653.793-.98 1.837-.98 3.13 0 1.293.327 2.337.98 3.13.653.793 1.593 1.19 2.82 1.19zm7.522 1.98 1.75-12.6h1.89l3.08 5.74 3.06-5.74h1.89l1.74 12.6h-2.39l-1.08-8.44-3.22 5.79-3.24-5.77-1.08 8.42z" fill="#666"/><g stroke="#666"><ellipse cx="6.101" cy="5.323" fill="#666" rx="2.5" ry="2.5" transform="matrix(1 0 -.000001 1 3.398841 1.177)"/><ellipse cx="6.101" cy="5.323" fill="none" rx="2.5" ry="2.5" transform="matrix(1 0 -.000001 1 -3.100992 1.177)"/><ellipse cx="6.101" cy="5.323" fill="none" rx="2.5" ry="2.5" transform="matrix(1 0 -.000002 1 9.898855 1.177)"/><ellipse cx="6.101" cy="5.323" fill="none" rx="2.5" ry="2.5" transform="matrix(1 0 -.000001 1 3.398838 7.677334)"/><ellipse cx="6.101" cy="5.323" fill="none" rx="2.5" ry="2.5" transform="matrix(1 0 -.000001 1 -3.100992 7.677334)"/><ellipse cx="6.101" cy="5.323" fill="none" rx="2.5" ry="2.5" transform="matrix(1 0 -.000002 1 9.898867 7.677334)"/></g></svg>