<svg viewBox="0 0 102 19" xmlns="http://www.w3.org/2000/svg"><g stroke="#666"><ellipse cx="7.321" cy="6.388" fill="none" rx="3" ry="3" transform="matrix(1 0 -.000001 1 2.179012 -2.888)"/><ellipse cx="7.321" cy="6.388" fill="none" rx="3" ry="3" transform="matrix(1 0 -.000001 1 2.116377 9.112)"/><ellipse cx="7.321" cy="6.388" fill="#666" fill-rule="evenodd" rx="3" ry="3" transform="matrix(1 0 -.000001 1 -3.820991 3.112001)"/><ellipse cx="7.321" cy="6.388" fill="none" rx="3" ry="3" transform="matrix(1 0 -.000001 1 8.179002 3.112001)"/></g><path d="m24 15.85v-12.6h7.75v2.23h-5.45v2.68h4.21v2.24h-4.21v5.45zm16.066 0-1.04-2.99h-4.59l-1.04 2.99h-2.24l4.49-12.6h2.17l4.49 12.6zm-4.91-5h3.15l-1.57-4.5zm15.228-7.6h2.32l-4.48 12.6h-2.18l-4.48-12.6h2.32l3.24 9.27zm8.964 12.85c-1.187 0-2.25-.273-3.19-.82-.947-.547-1.687-1.313-2.22-2.3-.534-.993-.8-2.137-.8-3.43 0-1.293.266-2.437.8-3.43.533-.987 1.273-1.753 2.22-2.3.94-.547 2.003-.82 3.19-.82 1.186 0 2.253.273 3.2.82.94.547 1.676 1.313 2.21 2.3.533.993.8 2.137.8 3.43 0 1.293-.267 2.437-.8 3.43-.534.987-1.27 1.753-2.21 2.3-.947.547-2.014.82-3.2.82zm0-2.23c1.226 0 2.166-.397 2.82-1.19.653-.793.98-1.837.98-3.13 0-1.293-.327-2.337-.98-3.13-.654-.793-1.594-1.19-2.82-1.19-1.227 0-2.167.397-2.82 1.19-.654.793-.98 1.837-.98 3.13 0 1.293.326 2.337.98 3.13.653.793 1.593 1.19 2.82 1.19zm8.229 1.98v-12.6h4.6c1.347 0 2.407.32 3.18.96.774.647 1.16 1.6 1.16 2.86 0 .873-.186 1.59-.56 2.15-.366.553-.893 1-1.58 1.34l2.84 5.29h-2.57l-2.43-4.68h-2.34v4.68zm2.3-6.61h1.69c1.694 0 2.54-.683 2.54-2.05 0-.66-.193-1.16-.58-1.5-.38-.34-1.003-.51-1.87-.51h-1.78zm8.968 6.61v-12.6h2.3v12.6zm7.516 0v-10.37h-3.56v-2.23h9.43v2.23h-3.56v10.37zm7.532 0v-12.6h8.06v2.23h-5.71v2.68h4.43v2.24h-4.43v3.22h5.89v2.23z" fill="#666"/></svg>