<svg viewBox="0 0 91 19" xmlns="http://www.w3.org/2000/svg"><path d="m24 15.85v-12.6h2.3v10.55h5.18v2.05zm16.57 0-1.04-2.99h-4.59l-1.04 2.99h-2.24l4.49-12.6h2.17l4.49 12.6zm-4.91-5h3.15l-1.57-4.5zm13.354 5.25c-1.727 0-3.027-.5-3.9-1.5-.88-1-1.32-2.383-1.32-4.15v-7.2h2.31v6.61c0 .873.076 1.6.23 2.18.153.587.443 1.04.87 1.36.426.327 1.03.49 1.81.49.78 0 1.383-.163 1.81-.49.426-.32.716-.773.87-1.36.16-.58.24-1.307.24-2.18v-6.61h2.3v7.2c0 1.767-.437 3.15-1.31 4.15-.88 1-2.184 1.5-3.91 1.5zm7.854-.25v-12.6h2.26l5.39 8.14v-8.14h2.3v12.6h-1.89l-5.76-8.64v8.64zm18.425.25c-1.273 0-2.396-.27-3.37-.81-.98-.54-1.74-1.303-2.28-2.29-.54-.993-.81-2.143-.81-3.45 0-1.293.28-2.437.84-3.43.554-.987 1.327-1.753 2.32-2.3.987-.547 2.11-.82 3.37-.82 1.214 0 2.3.247 3.26.74l-.25 2.19c-.513-.227-1.006-.403-1.48-.53-.48-.127-.993-.19-1.54-.19-1.286 0-2.273.397-2.96 1.19-.693.793-1.04 1.843-1.04 3.15 0 1.307.34 2.357 1.02 3.15.674.793 1.647 1.19 2.92 1.19.567 0 1.087-.06 1.56-.18.474-.12.98-.3 1.52-.54l.25 2.19c-1.04.493-2.15.74-3.33.74zm5.262-.25v-12.6h2.3v4.99h5.76v-4.99h2.3v12.6h-2.3v-5.45h-5.76v5.45z" fill="#666"/><g stroke="#666"><ellipse cx="6.101" cy="5.323" fill="none" rx="2.5" ry="2.5" transform="matrix(1 0 -.000001 1 3.398841 1.177)"/><ellipse cx="6.101" cy="5.323" fill="#666" fill-rule="evenodd" rx="2.5" ry="2.5" transform="matrix(1 0 -.000001 1 -3.100992 1.177)"/><ellipse cx="6.101" cy="5.323" fill="none" rx="2.5" ry="2.5" transform="matrix(1 0 -.000002 1 9.898857 1.177)"/><ellipse cx="6.101" cy="5.323" fill="none" rx="2.5" ry="2.5" transform="matrix(1 0 -.000001 1 3.398839 7.677333)"/><ellipse cx="6.101" cy="5.323" fill="none" rx="2.5" ry="2.5" transform="matrix(1 0 -.000001 1 -3.100992 7.677333)"/><ellipse cx="6.101" cy="5.323" fill="none" rx="2.5" ry="2.5" transform="matrix(1 0 -.000002 1 9.898869 7.677333)"/></g></svg>