<svg xmlns="http://www.w3.org/2000/svg"><g fill="#fff"><path d="m.229 3.27h85.744v25.608h-29.268v75.226h-28.581v-75.226h-28.124z"/><path d="m93.975 3.27h28.124v101.063h-28.581z"/><path d="m130.787 40.311h25.38v19.892h-25.38z"/><path d="m162.659 82.068 29.638-3.486c.78 3.873 2.097 6.608 3.952 8.203 1.853 1.595 4.122 2.392 6.805 2.392 4.781 0 8.513-2.256 11.196-6.768 1.951-3.326 3.415-10.367 4.391-21.122-3.562 3.418-7.221 5.925-10.977 7.52-3.757 1.595-8.099 2.392-13.025 2.392-9.612 0-17.722-3.189-24.333-9.57-6.611-6.379-9.915-14.446-9.915-24.199 0-6.653 1.683-12.715 5.05-18.183 3.365-5.469 8-9.605 13.903-12.407 5.902-2.803 13.319-4.204 22.247-4.204 10.732 0 19.343 1.72 25.832 5.161 6.487 3.441 11.672 8.909 15.551 16.405 3.878 7.497 5.817 17.397 5.817 29.702 0 18.092-4.074 31.343-12.221 39.75-8.148 8.408-19.442 12.612-33.882 12.612-8.538 0-15.27-.923-20.197-2.768-4.928-1.845-9.026-4.546-12.294-8.1-3.269-3.555-5.781-7.998-7.538-13.33zm54.884-44.706c0-5.423-1.463-9.673-4.39-12.749s-6.489-4.614-10.684-4.614c-3.952 0-7.233 1.39-9.843 4.17s-3.914 6.95-3.914 12.509c0 5.605 1.353 9.89 4.061 12.852 2.707 2.962 6.086 4.443 10.136 4.443 4.195 0 7.683-1.436 10.465-4.307 2.779-2.87 4.169-6.972 4.169-12.304z"/><path d="m255.128 82.068 29.637-3.486c.78 3.873 2.098 6.608 3.952 8.203 1.853 1.595 4.123 2.392 6.806 2.392 4.78 0 8.513-2.256 11.196-6.768 1.951-3.326 3.415-10.367 4.391-21.122-3.562 3.418-7.221 5.925-10.976 7.52-3.758 1.595-8.1 2.392-13.027 2.392-9.611 0-17.722-3.189-24.332-9.57-6.611-6.379-9.915-14.446-9.915-24.199 0-6.653 1.683-12.715 5.049-18.183 3.366-5.469 8-9.605 13.904-12.407 5.902-2.803 13.318-4.204 22.246-4.204 10.732 0 19.344 1.72 25.832 5.161s11.672 8.909 15.551 16.405c3.878 7.497 5.818 17.397 5.818 29.702 0 18.092-4.074 31.343-12.221 39.75-8.148 8.408-19.442 12.612-33.882 12.612-8.538 0-15.27-.923-20.197-2.768-4.928-1.845-9.027-4.546-12.294-8.1-3.269-3.555-5.782-7.998-7.538-13.33zm54.884-44.706c0-5.423-1.463-9.673-4.39-12.749s-6.489-4.614-10.684-4.614c-3.951 0-7.233 1.39-9.843 4.17s-3.915 6.95-3.915 12.509c0 5.605 1.354 9.89 4.062 12.852 2.707 2.962 6.085 4.443 10.135 4.443 4.195 0 7.683-1.436 10.465-4.307 2.78-2.87 4.17-6.972 4.17-12.304z"/><path d="m377.958 3.041h13.987l-45.73 104.035h-12.386z"/><path d="m429.009 108.781v-18.73h-54.298v-27.646l56.202-62.405h30.934v61.591h13.466v28.46h-13.466v18.73zm6.861-25.589-.002 18.729h19.12v-18.729l13.464-.001v-14.741h-13.464l-.001-61.59h-21.021l-52.396 58.178v18.154m54.3-14.742h-39.879l39.879-43.834m-24.364 36.975h17.503v-19.241z"/><path d="m557.716 108.782-5.367-16.544h-32.63l-5.229 16.544h-41.437l43.081-107.074h40.794l43.072 107.074zm-.382-23.403 5.368 16.542h27.144l-37.553-93.352h-31.524l-37.562 93.352h26.258l5.229-16.542h40.148v3.43l-3.262 1.058 3.262-1.058v-3.43zm-4.632-14.809h-33.018l16.421-50.492m-6.977 43.632h14.101l-7.088-21.56z"/><path d="m60.82 151.71 7.053.706c-.77 3.746-2.743 6.678-5.917 8.797-3.175 2.119-7.074 3.177-11.697 3.177-5.791 0-10.447-1.458-13.967-4.375s-5.281-7.098-5.281-12.542c0-3.521.758-6.602 2.272-9.242 1.515-2.64 3.819-4.621 6.915-5.941 3.094-1.321 6.461-1.981 10.101-1.981 4.596 0 8.355.895 11.278 2.687 2.922 1.791 4.795 4.334 5.619 7.63l-6.974.828c-.665-2.189-1.84-3.837-3.527-4.943-1.687-1.105-3.725-1.657-6.117-1.657-3.614 0-6.549.997-8.807 2.993s-3.387 5.153-3.387 9.472c0 4.381 1.089 7.564 3.268 9.549 2.177 1.986 5.021 2.978 8.527 2.978 2.816 0 5.167-.665 7.054-1.995 1.886-1.33 3.082-3.377 3.587-6.141z"/><path d="m71.34 147.35c0-6.038 2.178-10.51 6.535-13.417 3.64-2.415 8.077-3.623 13.311-3.623 5.818 0 10.573 1.469 14.266 4.405 3.692 2.938 5.539 6.996 5.539 12.175 0 4.196-.816 7.497-2.45 9.901-1.634 2.406-4.012 4.273-7.134 5.604-3.122 1.33-6.529 1.995-10.221 1.995-5.925 0-10.714-1.462-14.366-4.39-3.654-2.927-5.48-7.143-5.48-12.65zm7.372 0c0 4.176 1.182 7.303 3.547 9.38 2.364 2.078 5.34 3.117 8.926 3.117 3.56 0 6.522-1.045 8.887-3.132 2.364-2.088 3.547-5.271 3.547-9.549 0-4.032-1.19-7.087-3.567-9.165-2.378-2.077-5.334-3.116-8.867-3.116-3.586 0-6.562 1.033-8.926 3.101-2.365 2.068-3.547 5.189-3.547 9.364z"/><path d="m119.4 163.654v-32.607h6.416v4.575c1.327-1.597 3.094-2.881 5.3-3.853 2.204-.972 4.715-1.459 7.532-1.459 3.134 0 5.704.502 7.711 1.504 2.005 1.004 3.42 2.405 4.244 4.207 3.347-3.807 7.704-5.711 13.07-5.711 4.198 0 7.425.895 9.684 2.687 2.257 1.791 3.387 4.549 3.387 8.274v22.383h-7.133v-20.541c0-2.21-.233-3.802-.697-4.774-.466-.973-1.309-1.755-2.531-2.349-1.222-.593-2.657-.89-4.303-.89-2.977 0-5.447.763-7.412 2.287-1.966 1.525-2.949 3.966-2.949 7.323v18.944h-7.173v-21.185c0-2.456-.585-4.299-1.753-5.527-1.17-1.228-3.083-1.842-5.739-1.842-2.019 0-3.886.409-5.599 1.228-1.714.819-2.956 2.016-3.726 3.592-.771 1.576-1.157 3.849-1.157 6.816v16.918z"/><path d="m187.385 176.151v-45.104h6.535v4.237c1.54-1.658 3.281-2.902 5.221-3.731 1.938-.829 4.289-1.243 7.052-1.243 3.613 0 6.802.717 9.565 2.149 2.762 1.433 4.848 3.454 6.256 6.064s2.112 5.471 2.112 8.582c0 3.336-.777 6.34-2.331 9.011s-3.812 4.718-6.774 6.14c-2.963 1.423-6.077 2.134-9.345 2.134-2.391 0-4.537-.389-6.436-1.166-1.9-.778-3.461-1.76-4.683-2.948v15.874h-7.172zm6.495-28.616c0 4.196 1.102 7.297 3.308 9.303 2.204 2.006 4.875 3.009 8.01 3.009 3.188 0 5.917-1.039 8.189-3.117 2.271-2.076 3.407-5.295 3.407-9.655 0-4.156-1.11-7.267-3.327-9.335-2.219-2.067-4.869-3.101-7.951-3.101-3.055 0-5.758 1.101-8.109 3.301s-3.527 5.399-3.527 9.595z"/><path d="m260.51 163.654v-4.79c-3.294 3.685-7.771 5.527-13.429 5.527-2.498 0-4.829-.369-6.994-1.105-2.166-.737-3.773-1.663-4.822-2.778-1.05-1.116-1.787-2.483-2.212-4.1-.293-1.084-.438-2.803-.438-5.158v-20.202h7.173v18.083c0 2.887.146 4.832.438 5.834.452 1.454 1.409 2.595 2.87 3.423 1.461.829 3.267 1.244 5.419 1.244s4.171-.424 6.057-1.274c1.887-.85 3.221-2.006 4.005-3.47.784-1.463 1.176-3.587 1.176-6.371v-17.47h7.173v32.607z"/><path d="m293.825 158.711 1.036 4.882c-2.019.327-3.825.492-5.419.492-2.604 0-4.623-.319-6.057-.953-1.435-.634-2.445-1.468-3.029-2.502-.584-1.033-.877-3.209-.877-6.524v-18.76h-5.26v-4.298h5.26v-8.076l7.133-3.316v11.392h7.213v4.298h-7.213v19.067c0 1.576.126 2.589.379 3.04.252.45.663.808 1.235 1.074.571.266 1.388.4 2.45.4.798-.001 1.847-.072 3.149-.216z"/><path d="m329.809 153.153 7.414.706c-1.17 3.337-3.335 5.926-6.497 7.769-3.162 1.842-7.199 2.762-12.114 2.762-6.19 0-11.098-1.468-14.724-4.405-3.627-2.937-5.44-7.057-5.44-12.358 0-5.486 1.833-9.744 5.5-12.773 3.665-3.028 8.421-4.544 14.266-4.544 5.659 0 10.281 1.484 13.868 4.452s5.38 7.143 5.38 12.527c0 .327-.014.819-.041 1.474h-31.561c.266 3.582 1.581 6.324 3.945 8.228s5.313 2.856 8.847 2.856c2.631 0 4.875-.532 6.734-1.597 1.859-1.064 3.334-2.763 4.423-5.097zm-23.551-8.935h23.631c-.319-2.742-1.222-4.799-2.71-6.171-2.285-2.129-5.246-3.193-8.886-3.193-3.295 0-6.064.849-8.309 2.548-2.245 1.7-3.487 3.972-3.726 6.816z"/><path d="m346.149 163.654v-32.607h6.455v4.943c1.647-2.313 3.169-3.839 4.563-4.575 1.394-.737 2.929-1.105 4.603-1.105 2.416 0 4.874.594 7.372 1.781l-2.471 5.127c-1.753-.798-3.507-1.197-5.26-1.197-1.568 0-2.976.363-4.224 1.089-1.249.728-2.139 1.735-2.67 3.025-.797 1.965-1.196 4.114-1.196 6.448v17.071z"/></g></svg>