<svg xmlns="http://www.w3.org/2000/svg"><g fill="#fff"><path d="m323.556 3.618c-.501 1.65-1.005 3.309-1.503 4.977-.504 1.668-1.008 3.348-1.509 5.034-.507 1.686-1.008 3.378-1.512 5.079-.501 1.701-1.005 3.411-1.509 5.121.252-.009.498-.021.75-.027.249-.012.495-.024.747-.03.249-.012.495-.024.744-.036.249-.009.498-.021.747-.03.507-1.647 1.008-3.285 1.512-4.917.507-1.626 1.011-3.252 1.512-4.863.504-1.611 1.008-3.216 1.512-4.809.501-1.593 1.005-3.177 1.509-4.752.054-.213.141-.417.246-.594.105-.18.234-.336.378-.465.144-.132.309-.234.48-.3.177-.069.363-.099.558-.096.198.009.387.054.561.132.177.078.342.189.486.324.144.138.276.3.381.48s.186.384.243.597c.426 1.329.855 2.652 1.281 3.963.426 1.314.852 2.616 1.275 3.909.426 1.293.855 2.577 1.281 3.855.423 1.272.852 2.535 1.278 3.792-.669.042-1.338.087-2.007.126-.669.042-1.338.084-2.01.12-.666.039-1.335.078-2.007.114-.669.033-1.338.069-2.007.102v.732.729.732.732c.993-.066 1.992-.132 2.985-.201s1.995-.144 2.985-.222c.996-.075 1.992-.156 2.985-.24.99-.084 1.989-.171 2.982-.258-.504-1.485-1.008-2.985-1.509-4.5-.504-1.518-1.005-3.048-1.509-4.599-.504-1.545-1.008-3.108-1.506-4.683-.504-1.578-1.008-3.168-1.512-4.776-.144-.531-.369-1.026-.66-1.482-.294-.453-.648-.858-1.059-1.206-.408-.342-.87-.624-1.365-.825-.495-.204-1.029-.327-1.584-.351-.549-.027-1.083.048-1.578.213-.492.162-.951.411-1.359.732-.405.321-.765.714-1.053 1.164-.288.447-.513.954-.66 1.503zm3.549 12.273c.087-.279.174-.561.261-.843s.177-.561.264-.843c.084-.279.174-.561.261-.84.084-.279.174-.558.261-.837.09.276.186.552.276.825.093.276.186.552.276.825s.183.549.276.822c.09.273.183.546.273.819-.177.009-.36.012-.537.018-.18.006-.363.015-.54.021-.177.003-.36.009-.537.015s-.354.015-.534.018zm-.441-9.618c-.453 1.416-.903 2.844-1.353 4.278-.45 1.437-.9 2.877-1.35 4.326s-.9 2.913-1.356 4.374c-.447 1.467-.897 2.937-1.347 4.413.291-.015.582-.027.876-.042.288-.015.579-.03.87-.045.294-.018.585-.03.876-.048s.582-.033.873-.051c.189-.606.372-1.212.561-1.815.189-.6.369-1.206.561-1.806.183-.597.369-1.2.555-1.797s.369-1.194.558-1.788v.834.837.834.837c.588-.03 1.17-.057 1.761-.087.585-.027 1.17-.057 1.755-.087s1.17-.063 1.755-.093c.588-.033 1.17-.066 1.758-.099-.348-1.053-.696-2.112-1.047-3.177-.348-1.062-.696-2.133-1.047-3.21-.345-1.077-.696-2.163-1.041-3.252-.354-1.092-.702-2.184-1.047-3.291-.054-.183-.132-.453-.234-.756-.099-.306-.222-.639-.363-.951-.141-.309-.294-.6-.462-.819-.165-.213-.345-.354-.534-.36-.186-.006-.366.123-.534.33s-.324.492-.462.801c-.141.312-.258.645-.363.948-.09.303-.171.576-.219.762zm-19.119-2.895c.876.003 1.743.009 2.619.018.876.006 1.743.015 2.619.024.873.009 1.743.021 2.616.03.876.009 1.746.024 2.619.033 0-.273-.003-.546-.003-.822 0-.273 0-.546 0-.822s0-.549 0-.825 0-.549 0-.822c-.891-.024-1.785-.042-2.679-.063s-1.785-.033-2.682-.048c-.891-.015-1.785-.03-2.679-.036-.894-.012-1.785-.021-2.682-.027-.723-.003-1.413.156-2.037.453-.63.294-1.191.726-1.665 1.26-.477.534-.858 1.17-1.122 1.878-.264.705-.411 1.479-.411 2.289v3.087 3.081 3.084 3.084c-.003.813.144 1.587.411 2.292.264.708.651 1.338 1.125 1.872.471.531 1.032.96 1.665 1.254.621.297 1.314.453 2.037.444.891-.012 1.785-.027 2.682-.042.894-.018 1.785-.036 2.682-.06.894-.027 1.785-.054 2.682-.084.891-.03 1.785-.066 2.682-.102 0-1.281 0-2.565 0-3.846-.003-1.281-.003-2.568-.003-3.846 0-1.284 0-2.568 0-3.846 0-1.281-.003-2.568-.003-3.846-.705-.003-1.413-.003-2.121-.003-.708-.003-1.41-.003-2.121-.006-.705 0-1.41 0-2.115 0-.708 0-1.413-.003-2.121-.003v.768.765.768.765c.456 0 .915-.003 1.371-.003.456-.003.915-.003 1.374-.006.456 0 .912-.003 1.368-.006s.912-.006 1.368-.006v2.283c.003.762 0 1.521 0 2.286 0 .762.003 1.521.003 2.28v2.286c-.624.018-1.242.03-1.869.045-.624.012-1.245.027-1.869.036-.624.006-1.245.021-1.869.027-.624.009-1.248.018-1.869.024-.345.006-.672-.072-.972-.207-.3-.141-.567-.345-.789-.597-.225-.252-.411-.552-.537-.888-.126-.333-.198-.705-.198-1.089 0-.984 0-1.965 0-2.943.003-.984 0-1.962 0-2.943 0-.984 0-1.965 0-2.946.003-.984.003-1.962.003-2.943 0-.387.066-.756.195-1.092.123-.336.309-.636.534-.888.225-.255.489-.456.789-.597.297-.138.624-.216.972-.213zm1.995 8.949v.84.837.84.84c.144-.003.294-.003.438-.006.144 0 .291 0 .432-.003.144 0 .294-.003.435-.003.144-.003.291-.003.432-.006 0 .072.003.141 0 .207 0 .072.003.144.003.21v.207.21c-.144.003-.291.003-.435.006-.141 0-.291.003-.435.003-.141.003-.288.003-.432.006-.144 0-.294.003-.438.003-.102 0-.198-.024-.291-.063-.09-.039-.171-.105-.24-.18s-.12-.165-.162-.264c-.036-.099-.057-.21-.057-.324 0-.606 0-1.215 0-1.821s0-1.212 0-1.818 0-1.215 0-1.821c0-.603 0-1.212 0-1.818 0-.114.021-.225.057-.324.039-.099.093-.192.162-.267s.147-.138.24-.18c.087-.039.186-.066.291-.066.708.003 1.413.003 2.118.006.708 0 1.413.003 2.124.006.705 0 1.41.003 2.118.006s1.413.006 2.118.009c0-.273 0-.546 0-.819 0-.276.003-.549 0-.822 0-.276.003-.549 0-.822 0-.276 0-.549 0-.822-.81-.012-1.617-.021-2.43-.027-.81-.009-1.617-.021-2.427-.027s-1.62-.015-2.433-.021c-.81-.003-1.617-.009-2.427-.015-.345 0-.675.078-.972.216-.3.141-.567.345-.795.597-.225.252-.408.552-.537.888-.126.333-.198.705-.198 1.089v2.52 2.523 2.523c.003.84 0 1.68 0 2.52 0 .387.072.756.198 1.089.129.336.312.636.537.888.228.255.498.456.795.594.3.141.63.213.975.21.498-.006.993-.012 1.497-.018.495-.009.996-.015 1.497-.027.501-.009.996-.018 1.5-.027.498-.009.996-.021 1.497-.033 0-.621 0-1.242 0-1.869 0-.621 0-1.248 0-1.869 0-.624 0-1.248 0-1.872-.003-.621 0-1.245-.003-1.869-.393.003-.789.003-1.185.006-.393.003-.789.006-1.182.009-.396.003-.789.003-1.185.006-.396 0-.804.009-1.2.009zm-19.191-8.88c.873-.012 1.743-.024 2.619-.03.873-.009 1.743-.018 2.616-.024s1.746-.012 2.619-.018c.873-.003 1.74-.006 2.616-.009 0-.279 0-.561 0-.843 0-.279 0-.558 0-.84 0-.279 0-.561 0-.843 0-.279 0-.561 0-.84-.894.003-1.785.006-2.682.015-.891.006-1.785.015-2.676.027-.894.012-1.788.024-2.682.036-.897.015-1.785.03-2.682.051-.72.015-1.41.195-2.037.501-.624.309-1.188.744-1.662 1.275s-.858 1.158-1.119 1.848c-.264.69-.417 1.443-.414 2.232v2.967c0 .99 0 1.974-.003 2.961v2.964 2.964c0 .792.147 1.548.411 2.238.264.699.651 1.329 1.122 1.869.474.537 1.038.987 1.662 1.299.624.315 1.314.504 2.037.531.894.03 1.785.057 2.682.084.894.024 1.785.042 2.685.06.888.018 1.782.033 2.679.042.894.015 1.788.021 2.682.027 0-.282 0-.561 0-.84 0-.282 0-.561 0-.843 0-.279.003-.561.003-.84 0-.282 0-.561 0-.843-.876-.003-1.746-.009-2.619-.018s-1.746-.021-2.619-.033-1.743-.027-2.616-.045c-.876-.018-1.749-.039-2.622-.06-.342-.009-.666-.096-.966-.246-.3-.147-.57-.357-.795-.609-.225-.255-.405-.558-.531-.888-.129-.333-.201-.696-.201-1.077 0-.951 0-1.902.003-2.856 0-.951 0-1.902 0-2.856 0-.951 0-1.902 0-2.856s.003-1.899 0-2.856c0-.378.072-.741.198-1.071s.312-.63.537-.879c.225-.255.492-.456.792-.6.291-.144.618-.222.963-.228zm8.217 8.049c0-.258 0-.516 0-.771s0-.513.003-.768c0-.255 0-.516 0-.771s0-.513 0-.768c-.582 0-1.161 0-1.743 0-.585 0-1.164.003-1.746.003-.579 0-1.161 0-1.74 0-.582 0-1.161 0-1.746.003 0-.117.021-.225.057-.324.039-.099.093-.189.162-.264.069-.078.147-.138.237-.18s.192-.066.294-.069c.705 0 1.41-.003 2.118-.003s1.413-.003 2.121-.006c.708 0 1.41 0 2.121-.003h2.118c-.003-.279-.003-.561-.003-.84.003-.282.003-.561.003-.84 0-.282 0-.561 0-.84s0-.558 0-.84c-.81.003-1.617.003-2.43.009-.81 0-1.617.006-2.43.012-.81.006-1.617.009-2.43.018-.81.006-1.617.015-2.427.024-.345.003-.672.084-.972.225-.297.141-.564.348-.792.6-.225.255-.408.549-.534.879s-.198.693-.198 1.071v1.104 1.101 1.104 1.104c.831.006 1.665.012 2.49.015.831.003 1.665.006 2.49.012.831.003 1.665.006 2.493.006.825-.009 1.653-.006 2.484-.003zm0 1.119v.771.771c0 .255.003.513 0 .768 0 .255.003.513 0 .768-.582-.003-1.161-.006-1.743-.012-.582-.003-1.161-.009-1.743-.015-.579-.006-1.161-.012-1.743-.021-.582-.006-1.161-.012-1.746-.021 0 .117.024.225.057.324.039.099.096.192.162.267s.147.141.237.183.192.069.294.069c.705.009 1.41.021 2.118.027.708.009 1.413.018 2.121.024s1.413.012 2.124.015c.705.006 1.41.009 2.118.012v.84.837.84.84c-.81-.003-1.617-.009-2.43-.015-.813-.009-1.617-.018-2.433-.027-.81-.012-1.617-.027-2.43-.039-.81-.015-1.617-.03-2.43-.051-.342-.009-.669-.093-.969-.24-.297-.147-.564-.357-.789-.612-.228-.255-.408-.552-.537-.885-.123-.333-.195-.699-.195-1.077 0-.366 0-.735 0-1.101 0-.369 0-.735 0-1.104 0-.366 0-.735 0-1.104 0-.366 0-.735 0-1.104.831.009 1.662.018 2.49.024.831.006 1.662.012 2.49.018.831.003 1.665.012 2.49.015.828.012 1.656.015 2.487.015zm-25.602 3.609c-.522-.021-1.047-.039-1.569-.06-.522-.024-1.047-.045-1.566-.066-.525-.024-1.044-.045-1.569-.066-.519-.024-1.047-.048-1.566-.072v.684.684.681.681c.798.054 1.596.102 2.394.15s1.599.093 2.397.141c.798.045 1.596.09 2.394.132.798.045 1.596.087 2.394.123.012 0 .021.003.03.003h.03c.006 0 .021 0 .03.003.009 0 .021.003.03.003.447.003.876-.087 1.263-.255.387-.174.738-.423 1.029-.732.294-.312.528-.687.69-1.104s.255-.876.255-1.365c0-.495-.093-.972-.264-1.407-.168-.432-.414-.825-.717-1.158s-.663-.597-1.068-.786c-.402-.189-.843-.294-1.308-.303-.312-.003-.63-.006-.942-.012-.315-.006-.63-.009-.945-.015s-.63-.009-.945-.015c-.312-.003-.627-.009-.939-.015-.384-.156-.753-.369-1.089-.636-.336-.261-.639-.57-.897-.915-.255-.348-.468-.729-.615-1.137-.141-.405-.225-.837-.225-1.284 0-.576.132-1.128.366-1.635.231-.504.561-.963.966-1.356.402-.39.876-.714 1.389-.945.516-.228 1.071-.366 1.638-.384.78-.024 1.557-.045 2.337-.066.78-.024 1.557-.042 2.337-.063s1.557-.039 2.337-.057c.777-.018 1.554-.033 2.337-.048 0-.27 0-.54 0-.813 0-.27 0-.543 0-.816 0-.27 0-.54 0-.813s0-.54 0-.816c-.81.027-1.62.054-2.43.084s-1.62.06-2.43.09-1.617.066-2.43.102-1.62.072-2.43.111c-.96.045-1.875.297-2.709.699-.831.402-1.584.96-2.214 1.623-.633.663-1.14 1.437-1.497 2.283-.351.846-.543 1.764-.543 2.721 0 .96.207 1.875.585 2.712.375.837.918 1.602 1.578 2.253.66.654 1.443 1.2 2.298 1.587.858.387 1.785.621 2.748.651 0-.003 0-.006 0-.009 0 0 0-.006 0-.009s0-.006 0-.009 0-.006 0-.009c0 .003.003.006.006.009s.003.006.006.012c0 .003.003.006.006.006 0 .003.003.006.003.009.186.006.366.015.555.021.183.003.369.012.552.015.189.009.372.012.558.018.183.009.369.015.555.021.066 0 .132.018.192.045.057.027.114.069.156.114.045.048.084.108.108.171.027.063.039.132.039.204s-.015.141-.039.204c-.03.06-.063.117-.108.162-.048.045-.099.084-.159.108s-.123.036-.192.033c-.264-.012-.531-.021-.795-.03-.264-.012-.531-.021-.795-.03-.267-.006-.531-.018-.795-.027-.27.006-.531-.006-.798-.015zm4.119-8.82c.525-.003 1.047-.009 1.572-.015.525-.003 1.047-.006 1.572-.012.525-.003 1.047-.009 1.572-.012s1.047-.009 1.572-.012c0-.249 0-.495 0-.744s0-.498 0-.747 0-.495 0-.744 0-.495 0-.744c-.801.012-1.599.027-2.397.042-.801.015-1.602.03-2.4.048s-1.599.033-2.397.057c-.801.021-1.599.036-2.4.06-.009 0-.021 0-.03 0s-.021 0-.03 0c-.012 0-.021 0-.03 0s-.024 0-.03 0c-.45.03-.879.147-1.269.342-.384.192-.732.456-1.026.771-.291.318-.528.69-.69 1.101-.162.405-.255.846-.255 1.311 0 .477.093.927.264 1.338.168.411.417.783.72 1.101.306.312.666.57 1.068.753.402.18.846.285 1.311.291.315.003.63.009.945.012.312.003.627.006.942.012.312.003.63.006.945.009.312.003.63.006.942.012.381.159.75.381 1.083.651.339.273.642.597.9.963.255.366.468.768.609 1.2.144.429.225.891.225 1.365 0 .612-.132 1.191-.363 1.71-.231.522-.564.981-.966 1.362-.405.378-.876.678-1.392.876-.516.195-1.074.288-1.641.255-.777-.042-1.554-.087-2.331-.132-.774-.045-1.554-.09-2.331-.141-.777-.048-1.557-.096-2.331-.147s-1.557-.105-2.331-.159v.747.747.747.744c.807.072 1.617.141 2.421.21.81.072 1.617.138 2.427.198.807.066 1.614.129 2.424.189s1.617.117 2.427.174c.96.069 1.878-.084 2.712-.408.834-.327 1.59-.837 2.22-1.488.633-.648 1.146-1.443 1.5-2.337.354-.891.549-1.887.549-2.934s-.21-2.052-.588-2.961c-.375-.912-.918-1.731-1.581-2.418-.66-.684-1.443-1.233-2.298-1.611-.858-.381-1.791-.582-2.751-.579v.012.012.009.012c-.003-.003-.006-.006-.006-.012-.003-.003-.006-.006-.006-.009-.003-.003-.006-.006-.006-.009-.003-.003-.006-.009-.006-.012-.186 0-.369.003-.555.003s-.369 0-.555.003c-.183 0-.369.003-.552.003-.186 0-.369 0-.555 0-.069 0-.138-.012-.198-.036-.06-.027-.111-.063-.153-.108-.045-.045-.084-.102-.108-.165s-.036-.132-.036-.204c0-.069.012-.138.036-.198.027-.06.063-.117.108-.165.042-.048.093-.084.153-.111.06-.03.126-.042.195-.042.267-.003.531-.009.795-.012s.531-.003.795-.006c.264-.006.531-.009.795-.012.267 0 .534-.003.795-.006z"/><path d="m474.768 49.851 6.027 9.03h16.47l-6.024-9.03zm50.016 0-6.024 9.03h16.47l6.024-9.03zm-524.784.774v8.259h73.194 7.311c0-4.512-3.264-8.181-7.311-8.259zm88.89 0v8.259h52.98v-8.259zm67.947 0c-4.086.027-7.395 3.714-7.395 8.259h7.395 7.485 47.733v-8.259h-55.176zm70.011 0c-4.065.051-7.353 3.729-7.353 8.259h7.353 7.485 36.81 7.656c0-4.56-3.336-8.259-7.44-8.259-.075 0-.141-.003-.213 0zm86.781 0v8.259h54.573 7.353c0-4.527-3.291-8.205-7.353-8.259zm78.531 0v.042c-3.828.339-6.84 3.876-6.84 8.217h6.84 7.998 27.309 3.525 12.084 2.796c0-4.53-3.288-8.208-7.353-8.259zm62.526 0v8.259h14.841v-8.259zm92.331 0v8.259h52.98v-8.259zm-547.017 11.007v24.516h14.709v-24.516zm32.727 0v24.516h14.748v-24.516zm32.769 0v24.516h14.88v-24.516zm23.394 0v15.699c.198 4.902 4.698 8.814 10.194 8.814h42.789v-8.256h-34.833c-1.827 0-3.267-1.488-3.267-3.309v-2.064h35.523v-7.569h-32.256c-1.827 0-3.267-1.488-3.267-3.309h-1.38zm60.552 0v15.957h.042c.321 4.497 4.248 8.1 9.201 8.514v.042h43.476v-.042c5.526-.36 9.891-4.92 9.891-10.539 0-5.853-4.722-10.62-10.578-10.62-.057 0-.114-.003-.171 0h-25.416v7.566h18.36c1.488 0 2.67 1.224 2.67 2.712s-1.182 2.664-2.67 2.664h-27.264c-1.485 0-2.667-1.179-2.667-2.664v-13.59zm70.053 0v24.516h14.838v-24.516zm44.424 0v7.314h-26.964v9.636h26.964v7.566h14.88v-24.516zm49.71 0v24.516h14.838v-24.516zm47.052 0v13.593c0 1.488-1.179 2.667-2.67 2.667h-27.48v8.256h35.697v-.042c5.214-.396 9.333-4.32 9.333-9.117v-15.357zm24.639 0v24.516h14.838v-24.516zm45.669 0v4.647c0 .03.006.057 0 .087-.039 1.443-1.212 2.577-2.664 2.577h-3.267-21.588v9.636h20.73l7.524 7.566h17.763l-10.236-10.278c3.876-1.572 6.627-5.367 6.627-9.807v-4.431h-.99zm23.697 0v24.516h14.841v-24.516zm27.912 0 16.338 24.516h1.677 14.793 1.677l16.341-24.516h-16.473l-8.946 13.419-8.946-13.419zm64.419 0v15.699c.198 4.902 4.698 8.814 10.191 8.814h42.792v-8.256h-34.833c-1.824 0-3.312-1.488-3.312-3.309v-2.064h35.526v-7.569h-32.214c-1.824 0-3.312-1.488-3.312-3.309z"/></g></svg>