<svg xmlns="http://www.w3.org/2000/svg"><g fill="#fff"><path d="m102.054 130.142c-4.005-3.193-7.044-16.922-6.029-27.609 1.671-17.529 9.371-35.563 25.786-60.386 7.244-11.045 6.989-10.589 6.281-10.133-.356.203-4.865 5.521-10.083 11.853-23.454 28.372-29.231 34.856-41.388 46.153-23.859 22.289-43.416 37.232-51.723 39.514-1.62.405-2.231.405-3.142-.203-.657-.456-1.164-1.115-1.164-1.52 0-.455 1.571-2.33 3.446-4.205 12.461-12.309 28.876-36.171 40.425-58.611 13.425-26.141 17.63-44.327 12.413-53.702-3.194-5.724-10.641-7.952-20.772-6.28-17.022 2.734-36.475 18.793-46.557 38.398-4.658 9.071-5.877 13.173-5.877 20.569-.049 5.421.103 6.332 1.115 8.359 2.434 4.661 5.421 6.585 10.082 6.585 4.965-.049 10.79-3.495 16.971-10.08 6.788-7.143 10.994-14.339 14.591-24.621 3.039-8.815 4.203-15.199 3.899-20.821-.252-4.409.051-5.776 1.267-5.776 1.115 0 3.193 9.07 3.953 17.326 1.012 10.589-.659 20.112-4.813 27.508-4.661 8.411-16.059 17.375-25.533 20.213-4.002 1.167-10.487 1.064-13.932-.252-3.443-1.267-7.548-4.913-9.168-8.107-9.018-17.73 12.258-54.409 39.514-68.186 9.778-4.965 18.086-6.688 27.205-5.676 23.199 2.586 33.385 19.301 26.442 43.367-5.418 18.945-23.252 42.908-48.582 65.299-4.053 3.546-7.244 6.585-7.092 6.688.508.556 12.565-8.311 21.277-15.555 11.197-9.422 27.052-25.278 38.198-38.246 9.626-11.246 27.508-34.349 41.288-53.346 3.242-4.509 6.381-8.359 6.94-8.511 1.164-.404 1.976.052 1.976 1.015 0 .404-3.75 11.042-8.308 23.658-17.226 47.57-27.053 76.293-27.508 80.651-.256 2.479-.052 2.175 5.165-7.296 15.807-28.675 27.104-45.087 40.022-58.007 9.474-9.471 19.049-16.159 18.997-13.272 0 1.015-.508 1.419-5.825 5.369-18.441 13.628-37.591 41.036-55.98 80.094-2.583 5.421-5.421 11.498-6.333 13.425-2.33 4.913-4.861 6.384-7.444 4.357z"/><path d="m372.422 129.887c-2.027-.86-4.813-3.646-5.624-5.725-.405-.96-.708-3.494-.708-6.229 0-2.483-.101-4.561-.253-4.561-.151 0-2.585 2.331-5.42 5.22-8.208 8.156-14.033 11.498-20.213 11.498-9.727 0-16.567-9.778-14.743-21.224.355-2.13.759-4.613.911-5.524.508-2.735-.76-1.62-7.344 6.435-15.251 18.742-24.47 23.808-32.373 17.934-3.495-2.586-4.61-7.144-3.394-13.932.963-5.624 2.534-9.878 7.143-19.757 5.673-12.109 5.369-12.008-4.813 1.568-15.096 20.064-22.847 28.068-31.206 32.373-3.242 1.62-8.967 2.127-11.194.964-8.967-4.613-8.411-17.278 1.619-37.539 5.065-10.234 4.813-10.082-5.421 3.09-21.124 27.305-28.368 34.345-36.475 35.409-4.658.659-8.915-1.823-10.942-6.281-1.164-2.534-1.264-3.19-1.064-8.156.304-6.636 2.279-12.968 7.548-23.81 1.927-4.002 3.394-7.396 3.294-7.496-.1-.103-3.494 4.202-7.548 9.623-19.504 26.041-28.672 35.008-36.879 36.12-4.206.559-8.715-1.671-10.538-5.266-1.419-2.89-1.671-5.98-.811-10.842.963-5.624 2.534-9.878 7.195-19.86 2.075-4.406 3.646-8.104 3.546-8.207-.355-.353-4.053 4.053-9.374 11.045-4.661 6.232-5.773 7.296-6.737 6.688-1.267-.76.304-3.294 9.019-14.491 14.488-18.542 15.248-19.402 18.49-20.213 1.619-.404 5.673-.656 10.03-.708h7.345l-.152 1.267c-.049.657-4.154 8.208-9.068 16.716-10.537 18.085-16.514 29.79-17.73 34.551-.811 3.139-.811 3.495-.103 4.255.763.711 1.015.711 2.99-.304 6.232-3.191 22.391-21.784 43.619-50.152 13.425-18.034 15.348-20.821 24.771-36.983 15.503-26.494 17.074-29.128 18.037-29.988.556-.459 1.872-1.067 2.987-1.37 2.938-.809 13.476-1.265 14.439-.608.96.711-.507 3.546-13.932 27.153-34.145 59.982-47.973 86.73-47.265 91.492.203 1.723 2.431 1.875 5.117.304 2.634-1.571 9.119-8.208 14.132-14.54 23.455-29.635 41.541-53.394 44.583-58.563.96-1.671 6.836-11.65 13.017-22.239 6.232-10.587 11.857-19.958 12.513-20.821 1.419-1.923 4.002-2.683 10.842-3.09 5.572-.353 7.599 0 7.599 1.215 0 .912-2.027 4.662-16.87 30.751-29.028 51.167-41.541 75.029-44.175 84.148-1.316 4.506-.356 5.317 3.649 3.19 5.673-3.09 12.513-10.537 32.319-35.36 8.158-10.182 15.25-18.845 15.755-19.353 1.978-1.671 10.538-2.734 16.922-2.026 3.139.355 3.29.407 3.139 1.622-.049.657-4.154 8.208-9.068 16.716-16.818 28.979-21.276 39.717-16.363 39.109 3.142-.352 10.386-7.295 23.759-22.795 18.39-21.428 25.433-28.268 32.93-32.221 5.217-2.735 9.422-3.951 13.728-4.002 5.825-.101 8.563 1.063 13.072 5.472l3.747 3.647.811-1.416c.507-.763 1.267-2.131 1.723-2.99 1.315-2.383 3.546-3.039 10.13-3.039 7.5 0 9.526.352 9.526 1.62 0 1.267-.863 2.938-10.234 19.352-14.743 25.886-19.2 36.069-16.159 37.032 3.899 1.215 15.956-11.197 33.078-34.093 8.615-11.55 11.602-15.047 16.059-18.998 7.548-6.688 16.466-7.396 19.505-1.571 2.279 4.306.963 14.589-3.19 25.33l-1.52 3.902 1.772-1.723c1.015-.963 4.813-5.725 8.459-10.59 13.729-18.237 21.532-23.91 28.928-21.072 2.786 1.063 5.117 3.646 5.928 6.484.912 3.494.252 11.398-1.522 18.338-.912 3.342-1.52 6.232-1.468 6.433.1.203 2.331-2.431 5.017-5.774 13.98-17.63 22.491-24.925 29.735-25.533 3.395-.252 5.625.863 8.156 4.105 5.928 7.496 2.938 20.769-8.815 39.058-6.129 9.523-7.903 13.525-6.837 15.452 2.227 4.202 13.881-6.284 28.116-25.33 3.039-4.054 11.043-14.388 17.731-23.051 6.736-8.611 13.88-17.882 15.855-20.568s3.95-5.017 4.409-5.218c1.671-.607 2.279-.303 2.279 1.164 0 1.064-.76 2.434-2.635 4.661-2.382 2.839-2.634 3.395-2.582 5.522.048 2.482 1.871 7.396 6.684 18.085 3.75 8.208 5.169 13.476 5.473 20.164.152 3.091 0 6.585-.255 7.801l-.505 2.178 1.52-1.419c.811-.808 3.038-3.291 4.861-5.521 3.698-4.406 4.157-4.862 4.917-4.661 1.416.456.504 2.382-3.649 7.852-13.221 17.377-23.659 24.014-35.157 22.391-5.573-.808-8.815-2.331-12.513-5.773-2.938-2.738-4.257-5.421-4.561-9.271-.456-6.08 1.978-9.778 6.636-10.182 3.294-.256 5.525.708 6.941 3.09 1.218 1.975 1.318 5.876.255 7.903-.812 1.62-3.546 4.102-4.458 4.102-1.622.052-1.978.86-1.167 2.431 1.064 2.027 2.535 2.787 4.61 2.431 5.32-1.012 13.984-16.971 17.022-31.203 1.975-9.475 1.471-25.433-.86-26.193-.507-.152-18.441 22.443-28.827 36.323-10.991 14.741-18.134 22.088-24.315 25.127-3.394 1.671-4.053 1.823-7.043 1.622-7.8-.507-11.802-7.043-10.486-17.174 1.063-8.459 4.357-16.111 11.956-28.016 7.244-11.346 8.156-14.336 4.306-14.132-6.232.303-21.276 18.389-41.744 50.152-3.95 6.129-5.318 7.803-6.585 8.259-.86.352-5.369.708-10.03.86l-8.511.303v-1.163c0-1.116 3.394-7.904 13.12-26.242 9.171-17.326 13.121-27.56 11.501-29.738-2.889-3.951-16.466 11.197-37.742 42.048-10.486 15.247-9.271 13.932-13.476 14.436-4.054.559-13.121.659-14.792.204-.659-.204-1.167-.608-1.167-.912 0-.356 3.902-7.448 8.715-15.807 13.628-23.81 20.516-37.891 19.401-39.717-1.72-2.787-8.408 3.953-22.795 22.798-9.575 12.513-14.032 17.882-19.605 23.355-8.916 8.864-16.871 12.613-21.936 10.383zm-25.785-4.102c6.28-3.142 13.272-10.486 20.72-21.784 5.013-7.648 8.256-13.273 10.638-18.49 1.267-2.738 1.519-3.953 1.519-7.295v-3.951l-1.975-1.723c-5.877-5.117-12.261.201-25.937 21.581-9.931 15.502-14.288 25.229-13.173 29.635.863 3.394 3.954 4.154 8.208 2.027z"/><path d="m189.085 45.49c-3.394-1.064-5.369-4.206-5.369-8.46 0-3.497 1.216-6.332 3.595-8.614 7.651-7.244 17.833-1.264 14.895 8.715-1.723 5.977-8.004 9.978-13.121 8.359z"/><path d="m325.257 44.527c-3.85-1.772-5.421-6.081-4.05-10.942 2.023-6.941 9.319-10.79 14.688-7.7 2.635 1.519 3.853 3.901 3.853 7.648 0 3.75-1.37 6.74-4.105 9.07-3.343 2.887-6.84 3.546-10.386 1.924z"/></g></svg>