<svg viewBox="0 0 200 40" xmlns="http://www.w3.org/2000/svg"><path d="m994.141 1044.927c-13.094-4.136-28.257-10.338-32.392-14.474-13.784-11.027-11.028-92.353 5.513-150.246 28.947-106.138 82.015-192.288 183.329-297.048 78.569-82.016 88.218-102.692 67.541-147.49-12.405-25.501-53.068-58.582-72.366-58.582-6.203 0-17.23-4.825-24.812-10.338-6.891-5.514-24.122-10.338-37.906-10.338-32.393 0-42.042-8.271-75.124-65.475-31.703-54.447-32.392-62.717-14.473-110.272l13.095-34.461 36.527-3.446c30.326-3.446 48.935-11.027 97.868-43.42 33.082-21.365 67.542-39.284 75.812-39.284 8.271 0 25.501 6.202 37.907 13.784 19.987 12.405 34.46 13.784 139.908 13.783 107.516 0 119.233 1.379 137.842 13.784 17.919 13.095 20.676 13.784 39.974 4.135 17.23-9.648 20.676-9.648 24.122-.689 2.757 8.271 6.892 8.96 21.365 2.068 12.406-5.514 19.987-5.514 24.811-.689 5.514 5.513 12.406 5.513 24.812-.001 13.095-5.513 17.919-5.513 22.054 1.379 4.825 6.892 8.96 7.581 20.677.689 11.716-5.514 17.919-6.203 24.811 0s13.095 5.514 24.122 0c13.095-6.892 16.541-5.514 25.501 6.203 9.648 14.473 12.405 14.473 401.806 14.472h391.469l79.948-31.015c75.123-29.636 81.326-31.014 99.245-21.365 47.555 24.811 142.666 174.368 137.842 216.41-2.068 17.23-4.824 18.608-41.353 20.676-31.702 1.378-40.663 4.824-48.933 17.919l-10.338 15.852-281.197 4.136-281.195 4.825-17.23 19.987-17.919 20.676-261.898 17.92c-144.044 9.649-266.033 19.298-271.547 21.365-6.892 2.068-8.27 11.717-5.513 38.596 2.757 19.297 7.581 38.596 11.716 42.731 10.338 10.338 8.271 35.839-4.135 46.177-7.581 6.203-35.839 11.027-73.745 13.095l-62.029 3.446-88.218 158.517c-84.083 150.247-88.907 160.585-88.907 197.113 0 22.744-3.446 42.041-8.27 46.176-15.852 12.406-221.924 62.03-274.304 66.165-28.258 2.068-62.718 0-75.813-3.446z" fill="#ccc" transform="matrix(.0113809245 -.00520391847 .00520391847 .0113809245 11.76175386453 23.44025418789)"/><path d="m61.638 24.4-.84 4.8h-11.4l3.3-18.75h5.7l-2.46 13.95zm6 4.8h-5.7l3.3-18.75h5.7zm13.74-5.52.15-.81h-1.44l.81-4.59h6.87l-1.77 10.02c-2.44.9-4.89 1.35-7.35 1.35-2.46 0-4.237-.49-5.33-1.47-1.087-.98-1.63-2.49-1.63-4.53 0-.86.14-2.13.42-3.81.6-3.48 1.66-5.99 3.18-7.53 1.52-1.54 4.04-2.31 7.56-2.31.74 0 1.683.08 2.83.24 1.153.16 2 .34 2.54.54l-1.65 4.59c-1.5-.28-2.877-.42-4.13-.42-1.247 0-2.14.1-2.68.3-.54.2-.86.6-.96 1.2l-1.47 8.49h1.89c.68 0 1.183-.073 1.51-.22.333-.153.55-.5.65-1.04zm23.07 5.52h-5.7l1.14-6.63h-4.29l-1.14 6.63h-5.7l3.3-18.75h5.7l-1.17 6.63h4.29l1.17-6.63h5.7zm19.71-18.75-.87 4.8h-4.14l-2.43 13.95h-5.7l2.43-13.95h-4.11l.87-4.8zm9.3 13.23.15-.81h-1.44l.81-4.59h6.87l-1.77 10.02c-2.44.9-4.89 1.35-7.35 1.35-2.46 0-4.237-.49-5.33-1.47-1.087-.98-1.63-2.49-1.63-4.53 0-.86.14-2.13.42-3.81.6-3.48 1.66-5.99 3.18-7.53 1.52-1.54 4.04-2.31 7.56-2.31.74 0 1.683.08 2.83.24 1.153.16 2 .34 2.54.54l-1.65 4.59c-1.5-.28-2.877-.42-4.13-.42-1.247 0-2.14.1-2.68.3-.54.2-.86.6-.96 1.2l-1.47 8.49h1.89c.68 0 1.183-.073 1.51-.22.333-.153.55-.5.65-1.04zm10.26-13.23h5.7l-2.49 14.07h2.04c.7 0 1.2-.093 1.5-.28.3-.193.51-.63.63-1.31l2.22-12.48h5.7l-1.86 10.53c-.3 1.7-.647 3.07-1.04 4.11-.387 1.04-.93 1.92-1.63 2.64-.7.72-1.567 1.22-2.6 1.5-1.027.28-2.33.42-3.91.42-2.42 0-4.117-.367-5.09-1.1-.967-.727-1.45-1.98-1.45-3.76 0-.98.14-2.25.42-3.81zm31.17 18.75h-5.37l-3.06-6.66c-.08-.14-.12-.337-.12-.59 0-.247.02-.53.06-.85h-.24l-1.41 8.1h-5.7l3.3-18.75h5.37l3.06 6.66c.06.14.09.337.09.59 0 .247-.02.53-.06.85h.24l1.44-8.1h5.7z" fill="#fff"/></svg>