<svg enable-background="new 0 0 598.189 350.26" preserveAspectRatio="none" xmlns="http://www.w3.org/2000/svg"><g fill="#1e1e1e"><path d="m357.497 253.258v-7.486h13.741v6.991.495zm13.246-.495v-.495zm-12.257-.495h11.762v-5.506h-11.762z" transform="matrix(.965926 -.258819 .258819 .965926 -52.163762 102.807409)"/><path d="m375.171 248.523v-7.486h13.741v6.991.495zm13.246-.496v-.494zm-12.256-.494h11.762v-5.508h-11.762z" transform="matrix(.965926 -.258819 .258819 .965926 -50.335938 107.220183)"/><path d="m392.845 243.787v-7.486h13.74v6.991.495zm13.246-.496v-.494zm-12.256-.494h11.761v-5.508h-11.761z" transform="matrix(.965926 -.258819 .258819 .965926 -48.507993 111.63311)"/><path d="m410.52 239.051v-7.486h13.741v6.991.495zm13.246-.496v-.494zm-12.257-.494h11.762l-.001-5.508h-11.761z" transform="matrix(.965926 -.258819 .258819 .965926 -46.679921 116.046416)"/><path d="m428.194 234.315v-7.485h13.74v6.99.495zm13.246-.495v-.495zm-12.257-.495h11.763v-5.507h-11.763z" transform="matrix(.965926 -.258819 .258819 .965926 -44.852079 120.459294)"/><path d="m445.869 229.579v-7.486h13.74v6.991.495zm13.245-.495v-.495zm-12.256-.495h11.761v-5.507h-11.761z" transform="matrix(.965926 -.258819 .258819 .965926 -43.023922 124.872525)"/><path d="m463.543 224.844v-7.486h13.74v6.99.495h-13.74zm13.246-.496v-.494zm-12.257-.494h11.762v-5.507h-11.762z" transform="matrix(.965926 -.258819 .258819 .965926 -41.196194 129.285544)"/><path d="m481.217 220.108v-7.486h13.741v6.99.496zm13.245-.496v-.494zm-12.256-.494h11.762l-.001-5.507h-11.761z" transform="matrix(.965926 -.258819 .258819 .965926 -39.368191 133.698752)"/><path d="m498.891 215.371v-7.485h13.741v6.991.494zm13.246-.494v-.495zm-12.257-.495h11.762v-5.506h-11.762z" transform="matrix(.965926 -.258819 .258819 .965926 -37.540086 138.111811)"/><path d="m516.565 210.635v-7.485h13.74v6.991.495h-13.74zm13.246-.494v-.495zm-12.257-.495h11.762v-5.506h-11.762z" transform="matrix(.965926 -.258819 .258819 .965926 -35.71222 142.524513)"/><path d="m534.24 205.899v-7.486h13.74v6.991.495zm13.245-.495v-.494zm-12.255-.494h11.761l-.001-5.507h-11.76z" transform="matrix(.965926 -.258819 .258819 .965926 -33.883931 146.937726)"/><path d="m551.914 201.163v-7.484h13.74v6.99.494zm13.245-.494v-.494zm-12.255-.494h11.761v-5.507h-11.761z" transform="matrix(.965926 -.258819 .258819 .965926 -32.056196 151.350744)"/><path d="m569.588 196.428v-7.485h13.741v6.99.495zm13.246-.495v-.494zm-12.256-.494h11.761v-5.507h-11.761z" transform="matrix(.965926 -.258819 .258819 .965926 -30.228326 155.764068)"/><path d="m354.034 272.867v-7.485h13.741v6.989.496zm13.245-.496v-.495zm-12.256-.495h11.762v-5.506h-11.762z" transform="matrix(.965926 -.258819 .258819 .965926 -57.356987 102.579039)"/><path d="m371.708 268.131v-7.485h13.741v6.99.495zm13.246-.495v-.495zm-12.257-.495h11.762v-5.507h-11.762z" transform="matrix(.965926 -.258819 .258819 .965926 -55.528987 106.992031)"/><path d="m389.383 263.395v-7.485h13.739v6.99.495zm13.245-.495v-.495zm-12.256-.495h11.761v-5.507h-11.761z" transform="matrix(.965926 -.258819 .258819 .965926 -53.700995 111.405023)"/><path d="m407.057 258.659v-7.485h13.74v6.99.495zm13.245-.495v-.495zm-12.256-.495h11.761v-5.507h-11.761z" transform="matrix(.965926 -.258819 .258819 .965926 -51.873071 115.81842)"/><path d="m424.731 253.923v-7.484h13.74v6.989.495zm13.245-.495v-.495zm-12.256-.495h11.763v-5.506h-11.763z" transform="matrix(.965926 -.258819 .258819 .965926 -50.045127 120.231149)"/><path d="m442.405 249.187v-7.485l13.741.001v6.989.495zm13.246-.495v-.495zm-12.257-.495h11.763v-5.506h-11.763z" transform="matrix(.965926 -.25882 .25882 .965926 -48.21708 124.644628)"/><path d="m460.08 244.452v-7.485h13.74v6.99.495zm13.246-.495v-.495zm-12.258-.495h11.762v-5.507h-11.762z" transform="matrix(.965926 -.258819 .258819 .965926 -46.38926 129.057489)"/><path d="m477.754 239.715v-7.485h13.738v6.991.494zm13.246-.494v-.495zm-12.257-.495h11.761l-.001-5.507h-11.76z" transform="matrix(.965926 -.258819 .258819 .965926 -44.561022 133.470093)"/><path d="m495.427 234.979v-7.484h13.741v6.99.494zm13.246-.494v-.495zm-12.256-.495h11.761v-5.506h-11.761z" transform="matrix(.965926 -.258819 .258819 .965926 -42.733147 137.883219)"/><path d="m513.101 230.243v-7.485h13.741v6.991.494zm13.247-.494v-.495zm-12.257-.495h11.762v-5.506h-11.762z" transform="matrix(.965926 -.258819 .258819 .965926 -40.905022 142.296201)"/><path d="m530.776 225.508v-7.486l13.741.001v6.99.495zm13.246-.495v-.495zm-12.257-.495h11.762v-5.505h-11.762z" transform="matrix(.965926 -.258819 .258819 .965926 -39.077174 146.709815)"/><path d="m548.451 220.772v-7.484h13.74v6.989.495zm13.246-.495v-.494zm-12.258-.494h11.762v-5.507h-11.762z" transform="matrix(.965926 -.25882 .25882 .965926 -37.249439 151.123158)"/><path d="m566.124 216.037v-7.486h13.741v6.991.495zm13.247-.495v-.495zm-12.257-.495h11.761v-5.507h-11.761z" transform="matrix(.965926 -.258819 .258819 .965926 -35.421403 155.535469)"/><path d="m582.857 211.554v-7.485h13.74v6.989.496zm13.246-.496v-.495zm-12.257-.495h11.762v-5.505h-11.762z" transform="matrix(.965926 -.258819 .258819 .965926 -33.691099 159.713425)"/><path d="m363.816 288.924v-7.485h13.74v6.99.495zm13.246-.495v-.495zm-12.256-.495h11.761v-5.506h-11.761z" transform="matrix(.965926 -.258819 .258819 .965926 -61.179542 105.657811)"/><path d="m381.49 284.188v-7.485h13.741v6.991.494zm13.245-.494v-.496zm-12.256-.496h11.762v-5.506h-11.762z" transform="matrix(.965926 -.258819 .258819 .965926 -59.35163 110.071189)"/><path d="m399.165 279.453v-7.486h13.74v6.991.495zm13.245-.495v-.495zm-12.256-.495h11.761v-5.506h-11.761z" transform="matrix(.965926 -.258819 .258819 .965926 -57.523657 114.484061)"/><path d="m416.838 274.717v-7.486h13.741v6.991.495zm13.247-.495v-.495zm-12.257-.495h11.761v-5.507h-11.761z" transform="matrix(.965926 -.258819 .258819 .965926 -55.695675 118.896921)"/><path d="m434.513 269.981v-7.485h13.74v6.99.495zm13.246-.495v-.495zm-12.257-.495h11.761v-5.506h-11.761z" transform="matrix(.965926 -.258819 .258819 .965926 -53.867885 123.310353)"/><path d="m452.187 265.245v-7.485h13.74v6.99.495zm13.246-.495v-.495zm-12.257-.495h11.762v-5.505h-11.762z" transform="matrix(.965926 -.258819 .258819 .965926 -52.039829 127.723129)"/><path d="m469.862 260.51v-7.486h13.739v6.991.495zm13.246-.495v-.495zm-12.257-.495h11.762l-.001-5.506h-11.761z" transform="matrix(.965926 -.258819 .258819 .965926 -50.211922 132.136187)"/><path d="m487.536 255.774v-7.485h13.741v6.99.495zm13.245-.495v-.495zm-12.256-.495h11.761v-5.506h-11.761z" transform="matrix(.965926 -.258819 .258819 .965926 -48.3841 136.549765)"/><path d="m505.21 251.037v-7.484h13.741v6.99.494zm13.246-.494v-.495zm-12.257-.495h11.762l-.001-5.507h-11.761z" transform="matrix(.965926 -.258819 .258819 .965926 -46.555906 140.96242)"/><path d="m522.883 246.302v-7.485h13.741v6.99.495zm13.247-.495v-.495zm-12.257-.495h11.762l-.001-5.505h-11.761z" transform="matrix(.965926 -.258819 .258819 .965926 -44.72808 145.375173)"/><path d="m540.559 241.566v-7.485h13.74v6.99.495zm13.246-.495v-.495zm-12.257-.495h11.761v-5.505h-11.761z" transform="matrix(.965926 -.258819 .258819 .965926 -42.90003 149.788545)"/><path d="m558.233 236.83v-7.484h13.74v6.99.494zm13.245-.494v-.494zm-12.256-.494h11.761v-5.507h-11.761z" transform="matrix(.965926 -.258819 .258819 .965926 -41.072219 154.201912)"/><path d="m575.632 230.009v-7.485h29.861v6.99.495zm29.365-.495v-.495zm-28.375-.495h27.88v-5.506h-27.88z" transform="matrix(.965926 -.258819 .258819 .965926 -38.439138 160.558499)"/><path d="m377.549 303.925v-7.485h13.741v6.991.494zm13.246-.494v-.496zm-12.256-.496h11.762v-5.506h-11.762z" transform="matrix(.965926 -.258819 .258819 .965926 -64.594154 109.723516)"/><path d="m395.224 299.19v-7.485h13.74v6.99.495zm13.245-.495v-.495zm-12.256-.495h11.761v-5.507h-11.761z" transform="matrix(.965926 -.258819 .258819 .965926 -62.766371 114.136593)"/><path d="m412.898 294.454v-7.485h13.74v6.99.495zm13.246-.495v-.495zm-12.257-.495h11.761v-5.507h-11.761z" transform="matrix(.965926 -.258819 .258819 .965926 -60.938379 118.549586)"/><path d="m430.573 289.718v-7.485h13.739v6.99.495zm13.244-.495v-.495zm-12.255-.495h11.761v-5.507h-11.761z" transform="matrix(.965926 -.258819 .258819 .965926 -59.110371 122.962702)"/><path d="m448.246 284.982v-7.485h13.741v6.991.494zm13.245-.494v-.496zm-12.256-.496h11.763l-.001-5.506h-11.762z" transform="matrix(.965926 -.258819 .258819 .965926 -57.282473 127.375996)"/><path d="m465.92 280.246v-7.484h13.74v6.99.494zm13.246-.494v-.495zm-12.256-.495h11.761v-5.507h-11.761z" transform="matrix(.965926 -.258819 .258819 .965926 -55.454538 131.788564)"/><path d="m483.595 275.51v-7.485h13.741v6.991.494zm13.246-.494v-.495zm-12.257-.495h11.762v-5.507h-11.762z" transform="matrix(.965926 -.25882 .25882 .965926 -53.626555 136.20268)"/><path d="m501.269 270.774v-7.485h13.741v6.991.494zm13.246-.494v-.495zm-12.257-.495h11.761v-5.507h-11.761z" transform="matrix(.965926 -.25882 .25882 .965926 -51.798524 140.615595)"/><path d="m518.943 266.039v-7.485h13.741v6.991.494zm13.246-.494v-.496zm-12.257-.496h11.762l-.001-5.506h-11.761z" transform="matrix(.965926 -.258819 .258819 .965926 -49.970646 145.027923)"/><path d="m536.617 261.303v-7.486l13.741.001v6.991.494zm13.246-.494v-.495zm-12.256-.495h11.761v-5.507h-11.761z" transform="matrix(.965926 -.258819 .258819 .965926 -48.142579 149.441261)"/><path d="m554.291 256.567v-7.486h13.742v6.992.494zm13.246-.494v-.495zm-12.256-.495h11.762v-5.507h-11.762z" transform="matrix(.965926 -.258819 .258819 .965926 -46.314505 153.854028)"/><path d="m571.966 251.832v-7.486h13.741v6.991.495zm13.245-.495v-.495zm-12.256-.495h11.761v-5.507h-11.761z" transform="matrix(.965926 -.258819 .258819 .965926 -44.486808 158.267547)"/><path d="m416.148 312.264v-7.486h13.739v6.991.495zm13.246-.495v-.495zm-12.258-.495h11.763l-.001-5.507h-11.762z" transform="matrix(.965926 -.258819 .258819 .965926 -65.437204 119.997754)"/><path d="m433.823 307.528v-7.486h13.739v6.991.495zm13.245-.495v-.495zm-12.257-.495h11.762v-5.507h-11.762z" transform="matrix(.965926 -.258819 .258819 .965926 -63.609065 124.410708)"/><path d="m450.248 293.311v-7.485h86.998v6.991.494zm86.504-.494v-.495zm-85.514-.495h85.019v-5.507h-85.019z" transform="matrix(.965926 -.258819 .258819 .965926 -58.121867 137.658115)"/><path d="m539.815 279.126v-7.485h13.741v6.991.494zm13.247-.494v-.495zm-12.257-.495h11.762v-5.508h-11.762z" transform="matrix(.965926 -.258819 .258819 .965926 -52.646599 150.875935)"/><path d="m557.491 274.39v-7.485h13.74v6.991.494zm13.245-.494v-.496zm-12.257-.496h11.762v-5.507h-11.762z" transform="matrix(.965926 -.258819 .258819 .965926 -50.818565 155.289308)"/><path d="m328.772 204.762c-.616-.009-1.113-.035-1.52-.419-.383-.407-.411-.902-.418-1.519v-44.989c0-1.471 1.19-2.66 2.659-2.661h263.199c1.471.001 2.66 1.191 2.661 2.66v44.99c-.009.617-.035 1.112-.419 1.519-.406.384-.902.41-1.519.419zm264.643-.99c.578.008.804-.089.819-.128.041-.016.137-.241.128-.82l.002-44.99c-.002-.922-.748-1.669-1.672-1.671h-263.199c-.922.002-1.668.749-1.669 1.672v44.989c-.009.579.089.804.128.82.016.04.242.136.82.128z" transform="matrix(.965926 -.258819 .258819 .965926 -30.867755 125.47199)"/><path d="m351.755 235.756.989-.027 2.727 103.13-.989.027z" transform="matrix(.965926 -.25882 .25882 .965926 -62.311755 101.311938)"/><path d="m605.753 270.801 2.726-103.13.99.026-2.727 103.13z" transform="matrix(.965926 -.258819 .258819 .965926 -36.041957 164.731857)"/><path d="m366.317 315.679c-1.47 0-2.66-1.191-2.66-2.66v-8.5c0-.656.131-1.23.538-1.64.412-.408.985-.54 1.641-.54l259.75.002c.656-.002 1.229.13 1.641.538.407.41.538.984.538 1.64v8.5c-.001 1.469-1.191 2.659-2.66 2.659zm-1.423-12.101c-.135.131-.248.401-.249.94v8.501c.002.923.749 1.668 1.672 1.671h258.788c.923-.003 1.669-.748 1.67-1.671v-8.501c0-.54-.113-.809-.249-.94-.131-.137-.4-.249-.94-.249h-259.75c-.54 0-.809.112-.942.249z" transform="matrix(.965926 -.258819 .258819 .965926 -63.086423 138.828528)"/><path d="m532.009 149.459c-1.335 0-2.42-1.083-2.42-2.419v-8.42c0-1.337 1.084-2.419 2.42-2.42l37.772.001c1.336 0 2.419 1.082 2.42 2.419v8.42c-.001 1.336-1.084 2.419-2.42 2.419zm-1.43-10.839v8.42c.001.79.64 1.429 1.43 1.43h37.772c.789-.001 1.429-.64 1.43-1.43v-8.42c-.001-.79-.641-1.43-1.43-1.431h-37.772c-.79.001-1.429.641-1.43 1.431z" transform="matrix(.965926 -.258819 .258819 .965926 -18.195699 147.448952)"/></g></svg>