<svg preserveAspectRatio="none" xmlns="http://www.w3.org/2000/svg"><g fill="#1e1e1e"><path d="m427.212 216.189c-.164.012-.308.113-.374.264-.269.593-.68 1.123-1.196 1.529-.193.153-.225.432-.073.625.153.193.432.225.625.072.001 0 .003-.001.004-.002.626-.49 1.13-1.119 1.459-1.849.109-.221.019-.487-.202-.595-.075-.038-.159-.053-.243-.044z" transform="matrix(.965926 -.258819 .258819 .965926 -41.752592 117.819577)"/><path d="m355.311 220.965c-2.049 0-3.724 1.662-3.724 3.71 0 2.049 1.675 3.725 3.724 3.725h68.659c2.048 0 3.725-1.676 3.725-3.725 0-2.048-1.675-3.71-3.725-3.71zm0 .89h68.659c1.569 0 2.836 1.253 2.836 2.821s-1.267 2.835-2.836 2.835h-68.659c-1.568 0-2.836-1.267-2.836-2.835 0-1.569 1.268-2.821 2.836-2.821z" transform="matrix(.965926 -.258819 .258819 .965926 -44.875402 108.502327)"/><path d="m424.595 198.278c-.245.022-.428.239-.406.484.022.247.24.428.485.406h.005 25.488 38.832 73.213c.245.003.447-.193.451-.438.003-.246-.194-.448-.439-.452-.004 0-.008 0-.012 0h-73.213-38.832-25.488c-.028-.002-.057-.002-.084 0z" transform="matrix(.965926 -.258819 .258819 .965926 -34.620279 134.47908)"/><path d="m424.697 197.362c-.246.011-.437.219-.426.465.011.245.219.436.465.424h.002 25.183 38.831 72.912c.245.003.446-.193.451-.438.003-.245-.194-.448-.439-.452-.004 0-.009 0-.012 0h-72.912-38.831-25.183c-.013 0-.027 0-.041.001z" transform="matrix(.965926 -.258819 .258819 .965926 -34.390867 134.387537)"/><path d="m334.679 208.084c-.207.047-.352.233-.347.444v.932c0 .245.199.445.445.445h117.3 76.731 79.412c.247 0 .445-.2.445-.445v-.932c0-.245-.198-.444-.445-.444h-79.412-76.731-117.3c-.032-.004-.065-.004-.098 0zm.542.89h116.856 76.731 78.968v.042h-78.968-76.731-116.856z" transform="matrix(.965926 -.258819 .258819 .965926 -38.025435 129.153969)"/><path d="m353.754 208.285c-.246.011-.436.219-.425.465.012.245.219.436.465.425h.001 68.66.013.264.014 29.088 38.832 76.815.014.264.013 11.12c.245.003.447-.193.451-.439.003-.245-.192-.448-.438-.451-.006 0-.01 0-.013 0h-11.106-.014-.263c-.004 0-.009 0-.014 0h-76.828-38.832-29.103-.277-.014-68.642c-.014-.001-.028-.001-.041 0z" transform="matrix(.965926 -.258819 .258819 .965926 -38.133243 127.808824)"/><path d="m423.699 199.917c-.245.021-.427.237-.406.484.022.245.239.427.485.406.002 0 .003 0 .005-.001h26.823 38.832 74.546c.247.004.448-.193.451-.439.004-.245-.193-.447-.437-.45-.005 0-.01 0-.013 0h-74.547-38.832-26.823c-.028-.003-.056-.003-.084 0z" transform="matrix(.965926 -.258819 .258819 .965926 -35.029434 134.648293)"/><path d="m560.044 180.247c-.247.006-.441.21-.435.456.002.063.017.127.045.184.329.727.833 1.358 1.46 1.848.19.154.472.125.625-.066.154-.191.125-.472-.066-.626-.001-.001-.003-.001-.003-.003-.517-.405-.927-.935-1.196-1.528-.073-.168-.244-.273-.427-.265z" transform="matrix(.965926 -.258819 .258819 .965926 -27.879869 151.311653)"/><path d="m424.499 195.787-.042.014c-.236.049-.39.277-.347.514.038.218.055.437.055.667 0 .261-.021.519-.07.765-.068.236.069.484.305.552.236.069.483-.068.552-.304.007-.026.012-.054.016-.08.06-.303.083-.613.083-.932 0-.106-.021-.202-.028-.306h24.698 38.83 72.421c-.006.103-.028.2-.028.306 0 .319.036.642.098.945.015.245.227.432.473.416.244-.016.43-.227.415-.472-.003-.044-.012-.085-.026-.125-.049-.245-.072-.504-.072-.765 0-.229.018-.449.055-.667.043-.238-.113-.467-.351-.513l-.04-.014c-.033-.004-.065-.004-.097 0h-72.853-38.831-25.128c-.032-.004-.065-.004-.098 0h.01z" transform="matrix(.965926 -.258819 .258819 .965926 -34.205445 134.313646)"/><path d="m422.343 193.32c-.245-.012-.453.177-.465.422-.009.181.093.349.257.425h.014c.448.381.808.856 1.042 1.404.091.217.334.326.556.25h25.309 38.831 73.048c.218.068.452-.04.543-.25.234-.552.605-1.022 1.056-1.404.222-.104.319-.368.215-.591-.076-.163-.244-.265-.424-.256h-74.442-38.829-26.713zm1.056.889h25.657 38.831 73.382c-.172.224-.315.469-.445.722h-72.937-38.832-25.211c-.131-.253-.272-.498-.445-.722z" transform="matrix(.965926 -.258819 .258819 .965926 -33.585698 134.055458)"/><path d="m333.185 198.474c-.224.028-.39.219-.389.444v.932c0 .245.199.444.445.444h15.524c-.17.221-.302.474-.431.723h-15.093c-.246 0-.445.2-.445.445v.946c0 .245.199.444.445.444h14.579c-.007.104-.029.201-.029.305 0 .138.031.27.043.404h-14.593c-.246 0-.444.199-.445.445v.945c0 .245.199.444.445.444h15.135c.153.286.322.557.528.806h-15.663c-.246 0-.446.199-.446.444v.015l.028.959c.008.241.204.431.445.431h19.291c.246.004.447-.193.451-.438.003-.246-.193-.448-.439-.452-.004 0-.008 0-.012 0h-18.859v-.069h16.26.028c.155-.004.297-.087.375-.222.118-.195.07-.446-.111-.585-.005-.003-.009-.009-.014-.013-.507-.395-.924-.897-1.195-1.474-.004-.009-.01-.019-.014-.028-.001-.004.001-.01 0-.013-.004-.005-.008-.01-.013-.014-.004-.015-.009-.029-.014-.043l-.014-.012c-.11-.172-.322-.245-.514-.181h-14.789v-.056h14.525c.139.04.289.009.402-.083l.014-.014c.143-.118.198-.311.139-.486-.004-.005-.009-.01-.013-.014-.042-.224-.071-.458-.071-.695 0-.233.017-.46.057-.681.038-.243-.128-.471-.371-.509-.02-.003-.04-.004-.06-.005h-.097-14.525v-.056h14.802.098c.174-.001.331-.104.402-.264.242-.56.621-1.049 1.084-1.432.19-.156.215-.436.059-.625-.065-.079-.154-.132-.253-.153l-.041-.014c-.033-.008-.066-.013-.098-.014h-16.053v-.041h18.194 69.77 28.894 38.832 76.618 12.218 28.032v.041h-25.879c-.033.001-.065.007-.097.014l-.056.014c-.239.056-.388.294-.333.534.022.096.075.182.152.244.465.383.829.872 1.07 1.432.073.164.238.268.417.264h.013.042 24.67v.056h-24.364-.083c-.246.005-.441.206-.436.453 0 .021.002.041.004.061h-.014c.04.222.071.448.071.681 0 .237-.03.471-.071.695-.001.01-.011.019-.013.027v.015c-.047.167.008.345.139.458l.014.014c.117.096.272.128.417.083h24.336v.056h-24.629c-.187-.058-.391.016-.498.181l-.014.013c-.011.014-.019.027-.028.042-.005.01-.011.019-.014.029-.272.587-.68 1.099-1.196 1.5-.004.004-.009.009-.014.014-.197.145-.242.423-.096.622.004.006.008.011.013.017.084.106.212.167.347.167h.056 26.059v.07h-28.687c-.245-.003-.447.192-.451.439-.003.245.194.447.439.45h.012 29.116c.241 0 .438-.19.446-.43l.027-.959c.008-.246-.185-.451-.43-.459-.005 0-.01 0-.014 0h-25.489c.206-.249.375-.52.529-.806h24.961c.245 0 .444-.199.444-.445v-.945c0-.245-.199-.445-.444-.445h-24.42c.011-.133.042-.266.042-.403 0-.104-.022-.202-.028-.305h24.405c.245 0 .444-.2.444-.445v-.945c0-.246-.199-.445-.444-.445h-24.919c-.129-.25-.262-.502-.431-.723h25.35c.246 0 .444-.199.444-.445v-.932c0-.245-.198-.443-.444-.443h-28.477-12.216-76.619-38.832-28.894-69.77-18.637c-.019-.003-.038-.003-.056-.001z" transform="matrix(.965926 -.258819 .258819 .965926 -36.594307 128.561352)"/><path d="m562.975 173.031c-2.05 0-3.712 1.662-3.712 3.71s1.662 3.725 3.712 3.725h11.118c2.049 0 3.71-1.676 3.71-3.725 0-2.048-1.661-3.71-3.71-3.71zm0 .889h11.118c1.568 0 2.821 1.254 2.821 2.822s-1.253 2.835-2.821 2.835h-11.118c-1.569 0-2.822-1.267-2.822-2.835 0-1.569 1.253-2.822 2.822-2.822z" transform="matrix(.965926 -.258819 .258819 .965926 -26.373585 153.169644)"/><path d="m332.362 189.895c-1.089 0-1.973.885-1.973 1.973v6.116c0 .246.198.445.444.445h273.529c.245 0 .444-.199.444-.445v-6.116c0-1.088-.886-1.973-1.973-1.973h-270.474zm0 .889h270.473c.606 0 1.084.477 1.084 1.084v5.671h-272.639v-5.671c0-.607.477-1.084 1.085-1.084z" transform="matrix(.965926 -.258819 .258819 .965926 -34.319836 127.639148)"/><path d="m349.835 208.547c-.207.046-.352.233-.347.445v111.38c0 1.089.885 1.973 1.973 1.973h270.474c1.087 0 1.973-.885 1.973-1.973l-.006-111.38c0-.246-.199-.445-.445-.445h-273.526c-.032-.004-.065-.004-.098 0zm.543.89h272.638v110.935c0 .608-.476 1.085-1.084 1.085h-270.473c-.607 0-1.084-.477-1.084-1.085z" transform="matrix(.965926 -.258819 .258819 .965926 -52.118253 135.011427)"/><path d="m360.061 266.079c-.822 0-1.487.679-1.487 1.501v9.243c0 .822.665 1.5 1.487 1.5h9.242c.822 0 1.5-.678 1.5-1.5v-9.243c0-.822-.678-1.501-1.5-1.501zm0 .89h9.242c.341 0 .611.27.611.612v9.242c0 .341-.271.611-.611.611h-9.242c-.342 0-.599-.271-.599-.611v-9.242c.001-.342.257-.612.599-.612z" transform="matrix(.965926 -.258819 .258819 .965926 -58.02432 103.663301)"/><path d="m372.667 262.705c-.821 0-1.501.679-1.501 1.5v9.244c0 .82.679 1.5 1.501 1.5h9.228c.821 0 1.501-.679 1.501-1.5v-9.244c0-.821-.68-1.5-1.501-1.5zm0 .89h9.228c.341 0 .611.27.611.611v9.243c0 .341-.27.611-.611.611h-9.228c-.341 0-.612-.271-.612-.611v-9.243c0-.341.271-.611.612-.611z" transform="matrix(.965926 -.258819 .258819 .965926 -56.721988 106.807514)"/><path d="m385.259 259.329c-.822 0-1.502.679-1.502 1.501v9.243c0 .822.679 1.5 1.502 1.5h9.242c.752 0 1.345-.579 1.445-1.306.005-.01.009-.018.014-.028 0-.005 0-.009 0-.013.005-.014.01-.028.013-.042.008-.027.012-.055.015-.083.005-.011.01-.019.014-.028v-9.243c0-.822-.68-1.501-1.501-1.501zm0 .89h9.242c.341 0 .612.27.612.612v9.158c-.001.019-.001.038 0 .055-.006.011-.011.019-.014.029 0 .34-.257.611-.597.611h-9.243c-.341 0-.612-.271-.612-.611v-9.243c0-.341.27-.611.612-.611z" transform="matrix(.965926 -.258819 .258819 .965926 -55.418932 109.953209)"/><path d="m397.849 255.954c-.822 0-1.487.679-1.487 1.501v9.243c0 .821.665 1.5 1.487 1.5h9.242c.822 0 1.501-.679 1.501-1.5v-9.243c0-.822-.68-1.501-1.501-1.501zm0 .89h9.242c.341 0 .612.27.612.612v9.242c0 .341-.271.611-.612.611h-9.242c-.341 0-.598-.271-.598-.611v-9.242c0-.342.256-.612.598-.612z" transform="matrix(.965926 -.258819 .258819 .965926 -54.116167 113.098673)"/><path d="m410.458 252.579c-.823 0-1.502.679-1.502 1.501v9.243c0 .822.679 1.501 1.502 1.501h9.228c.821 0 1.5-.679 1.5-1.501v-9.243c0-.822-.679-1.501-1.5-1.501zm0 .89h9.228c.34 0 .611.27.611.612v9.242c0 .341-.271.612-.611.612h-9.228c-.341 0-.612-.271-.612-.612v-9.242c0-.342.27-.612.612-.612z" transform="matrix(.965926 -.258819 .258819 .965926 -52.81366 116.243257)"/><path d="m423.049 249.205c-.821 0-1.502.679-1.502 1.501v9.244c0 .821.681 1.5 1.502 1.5h9.242c.821 0 1.487-.679 1.487-1.5v-9.244c0-.822-.666-1.501-1.487-1.501zm0 .89h9.242c.341 0 .597.27.597.612v9.243c0 .34-.256.611-.597.611h-9.242c-.341 0-.612-.271-.612-.611v-9.243c0-.342.271-.612.612-.612z" transform="matrix(.965926 -.258819 .258819 .965926 -51.511361 119.387214)"/><path d="m435.639 245.828c-.822 0-1.487.679-1.487 1.5v9.244c0 .821.665 1.5 1.487 1.5h9.243c.82 0 1.5-.679 1.5-1.5v-9.244c0-.821-.68-1.5-1.5-1.5zm0 .89h9.243c.34 0 .611.27.611.611v9.243c0 .341-.271.611-.611.611h-9.243c-.341 0-.597-.271-.597-.611v-9.243c0-.341.256-.611.597-.611z" transform="matrix(.965926 -.258819 .258819 .965926 -50.207686 122.53433)"/><path d="m448.248 242.453c-.822 0-1.501.679-1.501 1.501v9.243c0 .822.679 1.5 1.501 1.5h9.229c.821 0 1.5-.678 1.5-1.5v-9.243c0-.822-.679-1.501-1.5-1.501zm0 .89h9.229c.34 0 .61.27.61.612v9.242c0 .341-.271.611-.61.611h-9.229c-.34 0-.611-.271-.611-.611v-9.242c0-.342.271-.612.611-.612z" transform="matrix(.965926 -.258819 .258819 .965926 -48.905013 125.679158)"/><path d="m460.84 239.079c-.823 0-1.502.679-1.502 1.501v9.243c0 .822.679 1.501 1.502 1.501h9.242c.821 0 1.487-.679 1.487-1.501v-9.243c0-.822-.666-1.501-1.487-1.501zm0 .89h9.242c.341 0 .598.27.598.612v9.242c0 .341-.258.612-.598.612h-9.242c-.342 0-.613-.271-.613-.612v-9.242c0-.342.271-.612.613-.612z" transform="matrix(.965926 -.258819 .258819 .965926 -47.602859 128.823202)"/><path d="m473.43 235.704c-.822 0-1.501.678-1.501 1.5v9.244c0 .82.679 1.5 1.501 1.5h9.242c.821 0 1.501-.679 1.501-1.5v-9.244c0-.822-.679-1.5-1.501-1.5zm0 .89h9.242c.341 0 .612.27.612.611v9.243c0 .34-.272.611-.612.611h-9.242c-.341 0-.611-.271-.611-.611v-9.243c0-.341.27-.611.611-.611z" transform="matrix(.965926 -.258819 .258819 .965926 -46.29997 131.968651)"/><path d="m486.039 232.327c-.823 0-1.502.679-1.502 1.501v9.243c0 .82.679 1.5 1.502 1.5h9.228c.822 0 1.501-.678 1.501-1.5v-9.243c0-.822-.679-1.501-1.501-1.501zm0 .89h9.228c.341 0 .611.27.611.612v9.242c0 .34-.271.611-.611.611h-9.228c-.342 0-.612-.271-.612-.611v-9.242c0-.342.271-.612.612-.612z" transform="matrix(.965926 -.258819 .258819 .965926 -44.99657 135.115188)"/><path d="m498.63 228.953c-.822 0-1.502.679-1.502 1.501v9.244c0 .82.68 1.5 1.502 1.5h9.242c.821 0 1.487-.679 1.487-1.5v-9.244c0-.822-.666-1.5-1.487-1.501zm0 .891h9.242c.34 0 .598.27.598.611v9.243c0 .34-.258.611-.598.611h-9.242c-.342 0-.612-.271-.612-.611v-9.243c0-.341.271-.611.612-.611z" transform="matrix(.965926 -.258819 .258819 .965926 -43.694366 138.258771)"/><path d="m511.22 225.576c-.821 0-1.486.679-1.486 1.501v9.243c0 .821.665 1.5 1.486 1.5h9.243c.821 0 1.5-.678 1.5-1.5v-9.243c0-.822-.679-1.501-1.5-1.501zm0 .89h9.243c.341 0 .611.27.611.612v9.242c0 .34-.271.611-.611.611h-9.243c-.341 0-.598-.271-.598-.611v-9.242c0-.342.257-.612.598-.612z" transform="matrix(.965926 -.258819 .258819 .965926 -42.390733 141.406262)"/><path d="m523.829 222.201c-.822 0-1.501.679-1.501 1.501v9.241c0 .822.679 1.502 1.501 1.502h9.228c.822 0 1.502-.68 1.502-1.502 0-.013 0-.027 0-.041v-9.201c0-.821-.679-1.501-1.502-1.501zm0 .89h9.228c.342 0 .611.27.611.612v9.241c0 .342-.27.612-.611.612h-9.228c-.341 0-.612-.271-.612-.612v-9.242c0-.341.272-.611.612-.611z" transform="matrix(.965926 -.258819 .258819 .965926 -41.087929 144.55106)"/><path d="m382.608 273.392c-.822 0-1.501.679-1.501 1.501v9.24c0 .823.679 1.488 1.501 1.488h9.242c.752 0 1.343-.567 1.446-1.292.005-.01.009-.018.013-.028.001-.005-.001-.01 0-.014.006-.013.01-.026.015-.04.007-.027.011-.055.014-.085.004-.008.009-.016.013-.026v-9.242c0-.821-.68-1.501-1.501-1.501h-9.242zm0 .889h9.242c.341 0 .611.272.611.612v9.158.041c-.005.015-.009.03-.013.045 0 .34-.257.598-.598.598h-9.242c-.341 0-.611-.258-.611-.596v-9.242c0-.341.27-.612.611-.612z" transform="matrix(.965926 -.258819 .258819 .965926 -59.147046 109.746068)"/><path d="m363.284 277.674c-.823 0-1.488.679-1.488 1.501v9.241c0 .823.665 1.488 1.488 1.488h15.913c.821 0 1.501-.665 1.501-1.488v-9.241c0-.822-.68-1.501-1.501-1.501zm0 .889h15.913c.341 0 .61.272.61.612v9.241c0 .342-.27.599-.61.599h-15.913c-.343 0-.599-.258-.599-.599v-9.241c0-.34.256-.612.599-.612z" transform="matrix(.965926 -.258819 .258819 .965926 -60.800016 105.755553)"/><path d="m395.201 270.017c-.821 0-1.501.68-1.501 1.502v9.24c0 .823.68 1.488 1.501 1.488h9.242c.822 0 1.501-.665 1.501-1.488v-9.24c0-.822-.679-1.502-1.501-1.502zm0 .889h9.242c.342 0 .612.272.612.613v9.24c0 .342-.27.599-.612.599h-9.242c-.341 0-.612-.257-.612-.599v-9.24c0-.341.27-.613.612-.613z" transform="matrix(.965926 -.258819 .258819 .965926 -57.844599 112.890466)"/><path d="m407.805 266.642c-.822 0-1.5.679-1.5 1.501v9.24c0 .824.679 1.488 1.5 1.488h9.229c.821 0 1.501-.664 1.501-1.488v-9.24c0-.822-.68-1.501-1.501-1.501zm0 .889h9.229c.34 0 .611.272.611.612v9.24c0 .342-.271.6-.611.6h-9.229c-.341 0-.611-.258-.611-.6v-9.24c0-.341.27-.612.611-.612z" transform="matrix(.965926 -.258819 .258819 .965926 -56.541778 116.036315)"/><path d="m420.396 263.268c-.821 0-1.5.679-1.5 1.501v9.241c0 .823.679 1.488 1.5 1.488h9.242c.822 0 1.488-.665 1.488-1.488v-9.241c0-.822-.666-1.501-1.488-1.501zm0 .889h9.242c.342 0 .599.272.599.612v9.241c0 .342-.257.599-.599.599h-9.242c-.34 0-.611-.258-.611-.599v-9.241c0-.34.271-.612.611-.612z" transform="matrix(.965926 -.258819 .258819 .965926 -55.239529 119.179879)"/><path d="m432.991 259.89c-.821 0-1.487.679-1.487 1.501v9.241c0 .823.666 1.487 1.487 1.487h9.243c.822 0 1.501-.664 1.501-1.487v-9.241c0-.822-.679-1.501-1.501-1.501zm0 .889h9.243c.341 0 .611.272.611.612v9.241c0 .342-.27.599-.611.599h-9.243c-.341 0-.597-.258-.597-.599v-9.241c0-.341.257-.612.597-.612z" transform="matrix(.965926 -.258819 .258819 .965926 -53.935495 122.328087)"/><path d="m445.595 256.516c-.821 0-1.501.679-1.501 1.501v9.241c0 .823.68 1.488 1.501 1.488h9.23c.821 0 1.5-.665 1.5-1.488v-9.241c0-.822-.679-1.501-1.5-1.501zm0 .889h9.23c.34 0 .61.272.61.612v9.241c0 .342-.271.599-.61.599h-9.23c-.34 0-.612-.258-.612-.599v-9.241c0-.34.272-.612.612-.612z" transform="matrix(.965926 -.258819 .258819 .965926 -52.633364 125.471671)"/><path d="m458.187 253.142c-.822 0-1.501.68-1.501 1.502v9.24c0 .823.679 1.488 1.501 1.488h9.242c.821 0 1.488-.665 1.488-1.488v-9.24c0-.822-.666-1.502-1.488-1.502zm0 .889h9.242c.34 0 .597.272.597.613v9.24c0 .342-.257.599-.597.599h-9.242c-.341 0-.612-.257-.612-.599v-9.24c0-.341.271-.613.612-.613z" transform="matrix(.965926 -.258819 .258819 .965926 -51.331037 128.615664)"/><path d="m470.778 249.767c-.821 0-1.502.679-1.502 1.501v9.24c0 .824.681 1.488 1.502 1.488h9.243c.82 0 1.5-.664 1.5-1.488v-9.24c0-.822-.679-1.501-1.5-1.501zm0 .889h9.243c.341 0 .611.272.611.612v9.24c0 .342-.27.6-.611.6h-9.243c-.342 0-.612-.258-.612-.6v-9.24c0-.341.27-.612.612-.612z" transform="matrix(.965926 -.258819 .258819 .965926 -50.028158 131.760986)"/><path d="m483.386 246.39c-.821 0-1.501.679-1.501 1.501v9.241c0 .823.68 1.488 1.501 1.488h9.228c.821 0 1.502-.665 1.502-1.488v-9.241c0-.822-.68-1.501-1.502-1.501zm0 .889h9.228c.341 0 .612.272.612.612v9.241c0 .341-.272.599-.612.599h-9.228c-.34 0-.612-.258-.612-.599v-9.241c.001-.341.272-.612.612-.612z" transform="matrix(.965926 -.258819 .258819 .965926 -48.724861 134.907562)"/><path d="m495.978 243.016c-.822 0-1.502.679-1.502 1.501v9.241c0 .823.679 1.488 1.502 1.488h9.242c.821 0 1.487-.665 1.487-1.488v-9.241c0-.822-.665-1.501-1.487-1.501zm0 .889h9.242c.341 0 .597.272.597.612v9.241c0 .342-.257.599-.597.599h-9.242c-.341 0-.611-.258-.611-.599v-9.241c0-.34.27-.612.611-.612z" transform="matrix(.965926 -.258819 .258819 .965926 -47.422598 138.051471)"/><path d="m508.569 239.641c-.821 0-1.502.679-1.502 1.501v9.241c0 .823.679 1.488 1.502 1.488h9.242c.822 0 1.5-.665 1.5-1.488v-9.241c0-.822-.678-1.501-1.5-1.501zm0 .889h9.242c.34 0 .611.272.611.612v9.241c0 .341-.271.599-.611.599h-9.242c-.342 0-.612-.258-.612-.599v-9.241c-.001-.341.271-.612.612-.612z" transform="matrix(.965926 -.258819 .258819 .965926 -46.119833 141.196936)"/><path d="m521.177 236.264c-.821 0-1.501.68-1.501 1.501v9.241c0 .823.679 1.488 1.501 1.488h9.229c.821 0 1.5-.665 1.5-1.488v-9.241c0-.821-.678-1.501-1.5-1.501zm0 .889h9.229c.34 0 .611.272.611.612v9.241c0 .342-.271.599-.611.599h-9.229c-.342 0-.611-.257-.611-.599v-9.241c-.001-.34.269-.612.611-.612z" transform="matrix(.965926 -.258819 .258819 .965926 -44.816391 144.343527)"/><path d="m533.768 232.89c-.821 0-1.5.679-1.5 1.501v9.241c0 .823.678 1.488 1.5 1.488h9.243c.821 0 1.487-.665 1.487-1.488v-9.241c0-.822-.666-1.501-1.487-1.501zm0 .889h9.243c.34 0 .598.272.598.612v9.241c0 .341-.258.599-.598.599h-9.243c-.342 0-.61-.258-.61-.599v-9.241c0-.34.268-.612.61-.612z" transform="matrix(.965926 -.258819 .258819 .965926 -43.514077 147.4876)"/><path d="m578.183 219.978c-.821 0-1.501.679-1.501 1.501v9.241c0 .823.68 1.488 1.501 1.488h16.775c.821 0 1.502-.665 1.502-1.488v-9.241c0-.822-.68-1.501-1.502-1.501zm0 .889h16.775c.341 0 .612.272.612.612v9.241c0 .342-.272.599-.612.599h-16.775c-.341 0-.611-.257-.611-.599v-9.241c0-.34.27-.612.611-.612z" transform="matrix(.965926 -.258819 .258819 .965926 -38.530238 159.519608)"/><path d="m546.143 228.727c-.82 0-1.501.679-1.501 1.501v9.24c0 .824.679 1.488 1.501 1.488h15.553c.822 0 1.502-.664 1.502-1.488v-9.24c0-.822-.68-1.501-1.502-1.501zm0 .889h15.553c.341 0 .611.272.611.612v9.24c0 .343-.27.6-.611.6h-15.553c-.34 0-.611-.258-.611-.6v-9.24c0-.341.272-.612.611-.612z" transform="matrix(.965926 -.258819 .258819 .965926 -41.90707 151.367014)"/><path d="m536.421 218.827c-.823 0-1.502.679-1.502 1.501v9.244c0 .82.679 1.5 1.502 1.5h9.241c.822 0 1.488-.678 1.488-1.5v-9.244c0-.822-.666-1.501-1.488-1.501zm0 .89h9.241c.342 0 .598.271.598.612v9.243c0 .34-.257.611-.598.611h-9.241c-.342 0-.612-.271-.612-.611v-9.243c0-.341.271-.612.612-.612z" transform="matrix(.965926 -.258819 .258819 .965926 -39.785902 147.694934)"/><path d="m363.353 291.904c-.822 0-1.501.68-1.501 1.502v9.229c0 .822.679 1.501 1.501 1.501h9.241c.822 0 1.488-.679 1.488-1.501v-9.229c0-.822-.666-1.502-1.488-1.502zm0 .891h9.241c.342 0 .599.271.599.611v9.229c0 .342-.257.612-.599.612h-9.241c-.342 0-.612-.271-.612-.612v-9.229c0-.34.27-.611.612-.611z" transform="matrix(.965926 -.258819 .258819 .965926 -64.595054 105.39159)"/><path d="m375.945 288.528c-.822 0-1.501.68-1.501 1.502v9.229c0 .822.679 1.501 1.501 1.501h9.241c.823 0 1.501-.679 1.501-1.501v-9.229c0-.822-.679-1.502-1.501-1.502zm0 .891h9.241c.342 0 .613.271.613.611v9.229c0 .342-.271.612-.613.612h-9.241c-.342 0-.612-.271-.612-.612v-9.229c0-.34.27-.611.612-.611z" transform="matrix(.965926 -.258819 .258819 .965926 -63.292005 108.537294)"/><path d="m388.536 285.153c-.821 0-1.487.68-1.487 1.502v9.229c0 .822.666 1.501 1.487 1.501h9.242c.749 0 1.354-.572 1.46-1.292.006-.015.01-.028.013-.043.021-.053.029-.109.028-.166v-9.228c0-.823-.68-1.501-1.501-1.501h-9.242zm0 .891h9.242c.342 0 .612.27.612.611v9.159c-.001.014-.001.028 0 .042v.028c0 .341-.271.611-.612.611h-9.242c-.341 0-.597-.271-.597-.611v-9.229c0-.341.256-.611.597-.611z" transform="matrix(.965926 -.258819 .258819 .965926 -61.989175 111.682965)"/><path d="m401.143 281.779c-.822 0-1.5.679-1.5 1.502v9.229c0 .821.678 1.501 1.5 1.501h9.242c.822 0 1.486-.68 1.486-1.501v-9.229c0-.823-.665-1.502-1.486-1.502zm0 .891h9.242c.341 0 .598.27.598.611v9.229c0 .341-.257.611-.598.611h-9.242c-.341 0-.612-.271-.612-.611v-9.229c0-.341.27-.611.612-.611z" transform="matrix(.965926 -.258819 .258819 .965926 -60.686848 114.827365)"/><path d="m413.734 278.403c-.821 0-1.501.68-1.501 1.502v9.229c0 .822.68 1.501 1.501 1.501h9.242c.821 0 1.501-.679 1.501-1.501v-9.229c0-.822-.68-1.502-1.501-1.502zm0 .891h9.242c.341 0 .611.27.611.611v9.229c0 .341-.27.611-.611.611h-9.242c-.341 0-.612-.271-.612-.611v-9.229c0-.341.271-.611.612-.611z" transform="matrix(.965926 -.258819 .258819 .965926 -59.383817 117.972929)"/><path d="m426.329 275.026c-.822 0-1.488.68-1.488 1.502v9.229c0 .822.666 1.501 1.488 1.501h9.242c.822 0 1.502-.679 1.502-1.501v-9.229c0-.822-.68-1.502-1.502-1.502zm0 .891h9.242c.342 0 .611.271.611.611v9.229c0 .342-.271.612-.611.612h-9.242c-.341 0-.598-.271-.598-.612v-9.229c0-.34.257-.611.598-.611z" transform="matrix(.965926 -.258819 .258819 .965926 -58.080353 121.119419)"/><path d="m438.933 271.652c-.821 0-1.5.68-1.5 1.502v9.229c0 .822.678 1.501 1.5 1.501h9.242c.822 0 1.487-.679 1.487-1.501v-9.229c0-.822-.665-1.502-1.487-1.502zm0 .891h9.242c.342 0 .598.271.598.611v9.229c0 .342-.257.612-.598.612h-9.242c-.341 0-.611-.271-.611-.612v-9.229c0-.34.271-.611.611-.611z" transform="matrix(.965926 -.258819 .258819 .965926 -56.778115 124.263189)"/><path d="m451.525 268.277c-.822 0-1.502.679-1.502 1.502v9.229c0 .822.679 1.501 1.502 1.501h9.242c.821 0 1.5-.679 1.5-1.501v-9.229c0-.823-.679-1.502-1.5-1.502zm0 .891h9.242c.341 0 .611.27.611.611v9.229c0 .341-.27.611-.611.611h-9.242c-.343 0-.613-.271-.613-.611v-9.229c0-.341.27-.611.613-.611z" transform="matrix(.965926 -.258819 .258819 .965926 -55.475333 127.408582)"/><path d="m464.115 264.901c-.821 0-1.487.68-1.487 1.502v9.229c0 .822.666 1.501 1.487 1.501h9.242c.821 0 1.501-.679 1.501-1.501v-9.229c0-.822-.68-1.502-1.501-1.502zm0 .891h9.242c.341 0 .611.271.611.611v9.229c0 .342-.27.612-.611.612h-9.242c-.341 0-.598-.271-.598-.612v-9.229c0-.34.257-.611.598-.611z" transform="matrix(.965926 -.258819 .258819 .965926 -54.172333 130.5543)"/><path d="m476.724 261.527c-.822 0-1.501.679-1.501 1.502v9.229c0 .821.679 1.501 1.501 1.501h9.242c.821 0 1.486-.68 1.486-1.501v-9.229c0-.822-.665-1.502-1.486-1.502zm0 .891h9.242c.341 0 .598.27.598.611v9.229c0 .341-.258.611-.598.611h-9.242c-.342 0-.611-.271-.611-.611v-9.229c0-.341.269-.611.611-.611z" transform="matrix(.965926 -.258819 .258819 .965926 -52.869909 133.698957)"/><path d="m489.315 258.151c-.821 0-1.501.68-1.501 1.502v9.229c0 .822.679 1.501 1.501 1.501h9.242c.82 0 1.5-.679 1.5-1.501v-9.229c0-.822-.679-1.502-1.5-1.502zm0 .891h9.242c.341 0 .612.271.612.611v9.229c0 .342-.273.612-.612.612h-9.242c-.342 0-.612-.271-.612-.612v-9.229c0-.34.27-.611.612-.611z" transform="matrix(.965926 -.258819 .258819 .965926 -51.56687 136.844528)"/><path d="m501.905 254.775c-.82 0-1.486.68-1.486 1.502v9.229c0 .822.666 1.501 1.486 1.501h9.243c.821 0 1.502-.679 1.502-1.501v-9.229c0-.822-.681-1.502-1.502-1.502zm0 .891h9.243c.341 0 .611.271.611.611v9.229c0 .342-.271.612-.611.612h-9.243c-.341 0-.597-.271-.597-.612v-9.229c0-.34.257-.611.597-.611z" transform="matrix(.965926 -.258819 .258819 .965926 -50.263757 139.990186)"/><path d="m514.514 251.4c-.821 0-1.5.68-1.5 1.503v9.228c0 .822.677 1.502 1.5 1.502h9.243c.821 0 1.486-.68 1.486-1.502v-9.228c0-.823-.665-1.503-1.486-1.503zm0 .891h9.243c.34 0 .597.271.597.612v9.228c0 .342-.257.612-.597.612h-9.243c-.341 0-.612-.271-.612-.612v-9.228c0-.341.271-.612.612-.612z" transform="matrix(.965926 -.258819 .258819 .965926 -48.961247 143.134749)"/><path d="m527.105 248.025c-.82 0-1.501.68-1.501 1.502v9.229c0 .822.679 1.501 1.501 1.501h9.242c.821 0 1.501-.679 1.501-1.501v-9.229c0-.822-.68-1.502-1.501-1.502zm0 .891h9.242c.341 0 .611.27.611.611v9.229c0 .341-.27.611-.611.611h-9.242c-.342 0-.612-.271-.612-.611v-9.229c0-.341.271-.611.612-.611z" transform="matrix(.965926 -.258819 .258819 .965926 -47.658391 146.280393)"/><path d="m581.521 232.435c-.821 0-1.501.68-1.501 1.502v9.229c0 .822.68 1.501 1.501 1.501h16.775c.821 0 1.502-.679 1.502-1.501v-9.229c0-.822-.68-1.502-1.502-1.502zm0 .891h16.775c.341 0 .612.27.612.611v9.229c0 .341-.272.611-.612.611h-16.775c-.341 0-.611-.271-.611-.611v-9.229c0-.341.27-.611.611-.611z" transform="matrix(.965926 -.258819 .258819 .965926 -41.640866 160.808038)"/><path d="m539.832 242.948c-.821 0-1.5.68-1.5 1.502v9.229c0 .822.678 1.501 1.5 1.501h21.695c.821 0 1.487-.679 1.487-1.501v-9.229c0-.822-.666-1.502-1.487-1.502zm0 .891h21.695c.341 0 .598.271.598.611v9.229c0 .342-.257.612-.598.612h-21.695c-.341 0-.611-.271-.611-.612v-9.229c0-.34.271-.611.611-.611z" transform="matrix(.965926 -.258819 .258819 .965926 -45.698771 151.011223)"/><path d="m366.691 304.364c-.822 0-1.501.666-1.501 1.486v9.243c0 .821.679 1.501 1.501 1.501h9.241c.822 0 1.488-.679 1.488-1.501v-9.243c0-.822-.666-1.486-1.488-1.486zm0 .889h9.241c.342 0 .599.257.599.597v9.243c0 .341-.257.611-.599.611h-9.241c-.342 0-.612-.271-.612-.611v-9.243c0-.341.27-.597.612-.597z" transform="matrix(.965926 -.258819 .258819 .965926 -67.705944 106.680062)"/><path d="m379.176 300.171c-.822 0-1.501.666-1.501 1.486v9.243c0 .821.679 1.501 1.501 1.501h15.552c.747 0 1.353-.572 1.459-1.292 0-.005 0-.01 0-.014.001-.01.012-.018.014-.028.016-.045.025-.092.028-.139 0-.01 0-.018 0-.028v-9.243c0-.822-.68-1.486-1.501-1.486zm0 .889h15.552c.341 0 .612.257.612.597v9.215.028c0 .341-.271.611-.612.611h-15.552c-.342 0-.612-.27-.612-.611v-9.243c0-.34.27-.597.612-.597z" transform="matrix(.965926 -.258819 .258819 .965926 -66.087561 110.586934)"/><path d="m397.983 295.979c-.821 0-1.501.666-1.501 1.486v9.243c0 .821.68 1.501 1.501 1.501h9.242c.822 0 1.487-.678 1.487-1.501v-9.243c0-.822-.665-1.486-1.487-1.486zm0 .889h9.242c.341 0 .599.257.599.597v9.243c0 .341-.258.611-.599.611h-9.242c-.341 0-.612-.271-.612-.611v-9.243c.001-.34.271-.597.612-.597z" transform="matrix(.965926 -.258819 .258819 .965926 -64.469495 114.493312)"/><path d="m410.576 292.603c-.821 0-1.501.666-1.501 1.486v9.243c0 .821.68 1.501 1.501 1.501h9.242c.822 0 1.502-.679 1.502-1.501v-9.243c0-.822-.68-1.486-1.502-1.486zm0 .889h9.242c.342 0 .612.257.612.597v9.243c0 .341-.27.611-.612.611h-9.242c-.341 0-.612-.271-.612-.611v-9.243c0-.341.271-.597.612-.597z" transform="matrix(.965926 -.258819 .258819 .965926 -63.166349 117.639459)"/><path d="m423.18 289.228c-.821 0-1.501.665-1.501 1.486v9.243c0 .821.68 1.501 1.501 1.501h9.229c.822 0 1.501-.679 1.501-1.501v-9.243c0-.822-.679-1.486-1.501-1.486zm0 .888h9.229c.342 0 .611.257.611.598v9.243c0 .341-.269.611-.611.611h-9.229c-.341 0-.611-.271-.611-.611v-9.243c0-.341.27-.598.611-.598z" transform="matrix(.965926 -.258819 .258819 .965926 -61.86363 120.784868)"/><path d="m402.685 293.885c-.82 0-1.501.678-1.501 1.5v9.242c0 .822.68 1.502 1.501 1.502h115.019c.822 0 1.501-.68 1.501-1.502v-9.242c0-.822-.679-1.5-1.501-1.5zm0 .889h115.019c.341 0 .611.271.611.611v9.242c0 .341-.271.612-.611.612h-115.019c-.34 0-.611-.27-.611-.612v-9.242c0-.341.27-.611.611-.611z" transform="matrix(.965926 -.258819 .258819 .965926 -61.966736 129.329443)"/><path d="m435.772 285.854c-.822 0-1.5.665-1.5 1.486v9.243c0 .821.678 1.5 1.5 1.5h9.242c.822 0 1.488-.678 1.488-1.5v-9.243c0-.822-.666-1.486-1.488-1.486zm0 .888h9.242c.341 0 .599.257.599.598v9.243c0 .341-.258.611-.599.611h-9.242c-.341 0-.612-.271-.612-.611v-9.243c0-.341.27-.598.612-.598z" transform="matrix(.965926 -.258819 .258819 .965926 -60.561165 123.929071)"/><path d="m448.367 282.477c-.822 0-1.501.666-1.501 1.486v9.243c0 .821.679 1.501 1.501 1.501h9.242c.822 0 1.502-.678 1.502-1.501v-9.243c0-.821-.68-1.486-1.502-1.486zm0 .889h9.242c.342 0 .612.257.612.597v9.243c0 .342-.27.612-.612.612h-9.242c-.341 0-.612-.271-.612-.612v-9.243c0-.34.271-.597.612-.597z" transform="matrix(.965926 -.25882 .25882 .965926 -59.257989 127.075898)"/><path d="m460.971 279.102c-.821 0-1.501.665-1.501 1.486v9.243c0 .82.68 1.5 1.501 1.5h9.228c.822 0 1.501-.678 1.501-1.5v-9.243c0-.822-.679-1.486-1.501-1.486zm0 .888h9.228c.341 0 .612.257.612.598v9.243c0 .341-.271.611-.612.611h-9.228c-.341 0-.612-.271-.612-.611v-9.243c0-.341.272-.598.612-.598z" transform="matrix(.965926 -.258819 .258819 .965926 -57.95502 130.220716)"/><path d="m473.563 275.728c-.822 0-1.502.666-1.502 1.486v9.243c0 .821.68 1.501 1.502 1.501h9.241c.822 0 1.488-.679 1.488-1.501v-9.243c0-.822-.666-1.486-1.488-1.486zm0 .889h9.241c.341 0 .598.256.598.597v9.243c0 .341-.257.611-.598.611h-9.241c-.341 0-.612-.271-.612-.611v-9.243c0-.341.27-.597.612-.597z" transform="matrix(.965926 -.258819 .258819 .965926 -56.652854 133.364682)"/><path d="m486.158 272.351c-.821 0-1.501.666-1.501 1.486v9.243c0 .821.68 1.501 1.501 1.501h9.242c.822 0 1.502-.679 1.502-1.501v-9.243c0-.822-.68-1.486-1.502-1.486zm0 .889h9.242c.341 0 .612.257.612.597v9.243c0 .341-.271.611-.612.611h-9.242c-.341 0-.612-.27-.612-.611v-9.243c0-.341.272-.597.612-.597z" transform="matrix(.965926 -.25882 .25882 .965926 -55.349486 136.511929)"/><path d="m498.762 268.975c-.821 0-1.501.664-1.501 1.486v9.243c0 .821.68 1.501 1.501 1.501h9.228c.823 0 1.502-.678 1.502-1.501v-9.243c0-.822-.679-1.486-1.502-1.486zm0 .889h9.228c.342 0 .612.257.612.597v9.243c0 .342-.271.612-.612.612h-9.228c-.341 0-.611-.271-.611-.612v-9.243c0-.34.27-.597.611-.597z" transform="matrix(.965926 -.258819 .258819 .965926 -54.046377 139.656812)"/><path d="m511.353 265.602c-.821 0-1.501.664-1.501 1.486v9.243c0 .821.679 1.501 1.501 1.501h9.242c.822 0 1.487-.678 1.487-1.501v-9.243c0-.822-.665-1.486-1.487-1.486zm0 .889h9.242c.341 0 .598.257.598.597v9.243c0 .341-.257.611-.598.611h-9.242c-.341 0-.611-.271-.611-.611v-9.243c-.001-.34.271-.597.611-.597z" transform="matrix(.965926 -.258819 .258819 .965926 -52.74436 142.800546)"/><path d="m523.828 261.342c-.821 0-1.502.664-1.502 1.485v9.244c0 .82.679 1.5 1.502 1.5h16.08c.821 0 1.501-.678 1.501-1.5v-9.244c0-.821-.68-1.485-1.501-1.485zm0 .888h16.08c.341 0 .611.257.611.597v9.244c0 .341-.271.611-.611.611h-16.08c-.341 0-.611-.271-.611-.611v-9.244c-.001-.34.27-.597.611-.597z" transform="matrix(.965926 -.258819 .258819 .965926 -51.09988 146.770718)"/><path d="m542.82 257.17c-.821 0-1.5.666-1.5 1.486v9.243c0 .821.679 1.501 1.5 1.501h9.229c.82 0 1.501-.678 1.501-1.501v-9.243c0-.822-.679-1.486-1.501-1.486zm0 .889h9.229c.341 0 .611.257.611.597v9.243c0 .341-.27.611-.611.611h-9.229c-.341 0-.61-.27-.61-.611v-9.243c0-.34.27-.597.61-.597z" transform="matrix(.965926 -.258819 .258819 .965926 -49.489764 150.657753)"/><path d="m584.86 244.895c-.821 0-1.501.665-1.501 1.486v9.243c0 .821.679 1.5 1.501 1.5h16.774c.822 0 1.502-.678 1.502-1.5v-9.243c0-.822-.68-1.486-1.502-1.486zm0 .888h16.774c.342 0 .613.258.613.598v9.243c0 .341-.272.611-.613.611h-16.774c-.342 0-.611-.271-.611-.611v-9.243c-.001-.341.269-.598.611-.598z" transform="matrix(.965926 -.258819 .258819 .965926 -44.751609 162.096609)"/><path d="m555.412 253.797c-.821 0-1.502.665-1.502 1.486v9.243c0 .821.679 1.5 1.502 1.5h9.242c.821 0 1.486-.678 1.486-1.5v-9.243c0-.822-.666-1.486-1.486-1.486zm0 .888h9.242c.341 0 .598.258.598.598v9.243c0 .341-.258.611-.598.611h-9.242c-.342 0-.612-.271-.612-.611v-9.243c-.001-.341.269-.598.612-.598z" transform="matrix(.965926 -.258819 .258819 .965926 -48.187641 153.801331)"/><path d="m549.011 215.452c-.821 0-1.501.678-1.501 1.5v9.244c0 .821.679 1.5 1.501 1.5h9.242c.821 0 1.502-.679 1.502-1.5v-9.244c0-.822-.681-1.5-1.502-1.5zm0 .89h9.242c.343 0 .612.27.612.611v9.243c0 .34-.271.611-.612.611h-9.242c-.341 0-.611-.271-.611-.611v-9.243c0-.341.27-.611.611-.611z" transform="matrix(.965926 -.258819 .258819 .965926 -38.482996 150.840506)"/><path d="m574.847 207.52c-.821 0-1.501.679-1.501 1.5v9.244c0 .82.68 1.5 1.501 1.5h16.775c.821 0 1.502-.678 1.502-1.5v-9.244c0-.821-.68-1.5-1.502-1.5zm0 .89h16.775c.341 0 .612.27.612.611v9.243c0 .34-.272.611-.612.611h-16.775c-.341 0-.611-.271-.611-.611v-9.243c0-.341.27-.611.611-.611z" transform="matrix(.965926 -.258819 .258819 .965926 -35.421342 158.231717)"/><path d="m360.918 238.866c-.23.021-.404.215-.403.445v25.349h-3.058c-.246 0-.445.2-.445.446v27.531c0 .246.198.444.445.444h34.996v12.189c0 .246.199.446.444.446h120.177c.246 0 .446-.2.446-.446v-12.355h53.591c.246 0 .444-.199.444-.444v-25.349h3.405c.247 0 .445-.2.445-.446v-27.365c0-.245-.198-.444-.445-.444h-210.001c-.014-.002-.028-.002-.041-.001zm.486.89h209.112v26.476h-3.406c-.244 0-.444.198-.444.444v25.349h-53.592c-.245 0-.443.2-.443.446v12.355h-119.289v-12.189c0-.245-.199-.444-.445-.444h-34.995v-26.642h3.058c.245 0 .445-.2.445-.445z" transform="matrix(.965926 -.258819 .258819 .965926 -54.656499 129.424089)"/><path d="m577.547 205.68c-.223.028-.39.219-.389.444v52.631c0 .245.2.445.445.445h21.222c.246 0 .446-.2.446-.445v-52.631c0-.245-.2-.444-.446-.444h-21.222c-.019-.002-.038-.002-.056 0zm.501.889h20.332v51.741h-20.332z" transform="matrix(.965926 -.258819 .258819 .965926 -40.116753 160.161007)"/><path d="m354.449 228.114c-1.113 0-2.029.903-2.029 2.015v72.63c0 1.112.916 2.03 2.029 2.03h265.438c1.112 0 2.014-.916 2.014-2.03v-72.63c0-1.113-.902-2.015-2.014-2.015zm0 .889h265.438c.632 0 1.126.494 1.126 1.126v72.63c0 .631-.494 1.14-1.126 1.14h-265.438c-.632 0-1.14-.508-1.14-1.14v-72.63c0-.633.508-1.126 1.14-1.126z" transform="matrix(.965926 -.25882 .25882 .965926 -52.363212 135.165866)"/><path d="m603.371 173.71c-.245 0-.444.198-.444.444v.014 1.543c-.004.246.192.447.439.451.244.003.447-.193.45-.438 0-.005 0-.009 0-.013v-1.543c.008-.245-.185-.45-.43-.458-.005 0-.009 0-.015 0z" transform="matrix(.965926 -.258819 .258819 .965926 -24.717389 162.124959)"/><path d="m602.776 171.703c-.245 0-.445.199-.445.444v.015 1.111c-.004.247.193.448.439.451.245.004.447-.192.45-.439 0-.004 0-.008 0-.012v-1.111c.009-.246-.184-.452-.429-.459-.005 0-.01 0-.015 0z" transform="matrix(.965926 -.258819 .258819 .965926 -24.162469 161.894803)"/><path d="m602.11 169.113c-.223.029-.389.22-.388.445v1.738c-.003.246.193.447.439.451.245.003.447-.193.451-.439 0-.003 0-.008 0-.012v-1.738c.002-.245-.195-.446-.441-.448-.021 0-.04.001-.061.003z" transform="matrix(.965926 -.258819 .258819 .965926 -23.591801 161.659414)"/><path d="m601.491 166.633c-.245 0-.444.199-.444.444v.014 1.667c-.004.246.192.448.439.452.244.003.447-.193.45-.439 0-.004 0-.008 0-.013v-1.667c.008-.246-.185-.451-.43-.458-.005 0-.009 0-.015 0z" transform="matrix(.965926 -.258819 .258819 .965926 -22.965953 161.399187)"/><path d="m600.793 164.284c-.228.029-.397.228-.388.459v1.556c-.003.245.193.448.439.452.245.003.447-.194.451-.439 0-.004 0-.009 0-.013v-1.556c.01-.245-.182-.452-.427-.462-.025-.001-.05 0-.075.003z" transform="matrix(.965926 -.258819 .258819 .965926 -22.365184 161.151343)"/><path d="m600.233 162.156c-.245 0-.445.199-.445.445v.014 1.223c-.004.246.193.448.439.451.245.004.447-.192.45-.438 0-.005 0-.009 0-.013v-1.223c.009-.246-.185-.451-.429-.459-.005 0-.01 0-.015 0z" transform="matrix(.965926 -.258819 .258819 .965926 -21.792667 160.913423)"/><path d="m336.858 232.713c-.224.028-.391.219-.389.444v1.251c-.004.246.193.448.438.452.245.003.448-.193.452-.439 0-.004 0-.009 0-.013v-1.251c0-.246-.197-.445-.442-.447-.02-.002-.04.001-.059.003z" transform="matrix(.965926 -.258819 .258819 .965926 -49.027843 95.16572)"/><path d="m337.426 234.828c-.206.045-.352.233-.347.445v1.584c-.004.245.193.448.438.452.246.003.448-.194.452-.44 0-.004 0-.008 0-.012v-1.584c.006-.246-.188-.45-.434-.455-.037-.001-.073.001-.109.01z" transform="matrix(.965926 -.258819 .258819 .965926 -49.596832 95.40125)"/><path d="m338.095 237.394c-.206.046-.352.233-.347.445v1.446c-.004.246.193.447.438.451.246.004.448-.193.452-.439 0-.004 0-.008 0-.011v-1.447c.006-.245-.188-.448-.434-.454-.037-.002-.073.002-.109.009z" transform="matrix(.965926 -.258819 .258819 .965926 -50.220277 95.659481)"/><path d="m338.737 239.701c-.206.046-.352.232-.347.443v1.627c-.004.246.193.448.438.452.246.004.448-.193.452-.439 0-.004 0-.009 0-.013v-1.627c.006-.244-.188-.448-.434-.454-.037-.001-.073.002-.109.011z" transform="matrix(.965926 -.258819 .258819 .965926 -50.818552 95.90724)"/><path d="m339.37 242.313c-.206.047-.352.233-.347.445v1.127c-.004.245.193.447.439.45.245.004.447-.193.451-.438 0-.004 0-.009 0-.012v-1.127c.006-.245-.188-.45-.434-.455-.037-.001-.073.003-.109.01z" transform="matrix(.965926 -.258819 .258819 .965926 -51.40853 96.151803)"/><path d="m340 244.404c-.224.029-.392.219-.39.445v1.32c-.003.246.194.448.439.452.245.003.448-.193.451-.439 0-.005 0-.009 0-.013v-1.32c.001-.245-.196-.447-.441-.449-.02 0-.04.001-.059.004z" transform="matrix(.965926 -.258819 .258819 .965926 -51.955687 96.378225)"/><path d="m573.462 172.88c-1.435 0-2.612 1.164-2.612 2.599s1.177 2.613 2.612 2.613c1.437 0 2.612-1.178 2.612-2.613s-1.175-2.599-2.612-2.599zm0 .889c.955 0 1.723.755 1.723 1.71s-.768 1.723-1.723 1.723c-.954 0-1.723-.768-1.723-1.723s.769-1.71 1.723-1.71z" transform="matrix(.965926 -.258819 .258819 .965926 -25.878873 154.402344)"/></g></svg>