<svg xmlns="http://www.w3.org/2000/svg"><g fill="#fff"><path d="m60.855 26.64h38.94l-17.049 17.775h-21.891z"/><path d="m60.819 66.777h38.937l-17.046-17.775h-21.891z"/><path d="m60.009 1.833v22.395c-3.981-2.463-8.406-3.681-13.284-3.681-4.653 0-8.973 1.167-12.951 3.519-3.984 2.331-7.116 5.523-9.405 9.57-2.289 4.023-3.435 8.361-3.435 12.969 0 4.662 1.149 8.967 3.435 12.945 2.289 3.966 5.433 7.116 9.435 9.441 3.996 2.319 8.301 3.492 12.921 3.492 4.833 0 9.264-1.179 13.281-3.516v22.494c-4.314 1.302-8.742 1.95-13.281 1.95-8.331 0-16.107-2.1-23.31-6.303-7.197-4.203-12.909-9.921-17.112-17.118s-6.303-14.997-6.303-23.382c0-6.213 1.215-12.198 3.654-17.949 2.439-5.742 5.823-10.767 10.164-15.072 4.329-4.302 9.303-7.638 14.895-10.014 5.607-2.382 11.607-3.573 18.012-3.573 4.425 0 8.853.624 13.284 1.833"/><path d="m163.659 50.055c-.198 5.556-.891 7.947-3.066 10.125-3.165 3.216-7.224 4.065-20.292 4.065-10.173 0-14.454-.705-17.748-3.093-3.231-2.241-4.284-5.829-4.284-14.601 0-7.998.984-11.511 3.927-13.89 3.156-2.595 7.512-3.363 18.732-3.363 11.01 0 15.855.837 19.023 3.432 2.67 2.103 3.561 4.707 3.759 10.944h-12.609c-.423-3.78-2.871-5.052-10.173-5.052-8.631 0-10.239 1.332-10.239 8.277 0 4.356.702 6.039 2.949 6.954 1.47.636 4.137.981 7.431.981 7.296 0 9.402-.981 9.963-4.776z"/><path d="m208.971 32.379c3.363 2.454 4.302 5.466 4.302 13.821 0 9.123-.843 12.219-3.858 14.739-3.165 2.601-7.32 3.309-19.587 3.309-12.417 0-16.572-.708-19.689-3.309-3.117-2.52-3.909-5.613-3.909-15.234 0-7.779.99-10.938 4.305-13.326 3.066-2.244 7.911-3.021 19.242-3.021 11.328 0 16.125.774 19.194 3.021m-30.324 14.667c0 4.419.594 5.892 2.817 6.807 1.536.699 4.353 1.05 8.361 1.05 9.399 0 11.031-1.197 11.031-8.217 0-4.488-.744-6.099-3.018-7.005-1.581-.633-4.503-.99-8.013-.99-9.495 0-11.178 1.263-11.178 8.355"/><path d="m227.469 30.207v4.977h.645c1.83-3.993 6.036-5.826 13.404-5.826 8.016 0 12.417 2.037 15.09 6.954 2.127-4.986 6.183-6.954 14.295-6.954 6.873 0 10.98 1.269 13.848 4.281 2.868 2.946 3.513 5.685 3.513 14.235v15.522h-12.417v-15.522c-.099-5.532-.249-6.159-1.437-7.359-1.236-1.26-3.363-1.824-6.972-1.824-3.759 0-6.084.633-7.371 2.109-1.434 1.542-1.83 3.507-1.83 8.904v13.692h-12.417v-15.522c0-5.181-.147-6.096-1.332-7.359-1.14-1.26-3.315-1.824-6.879-1.824-3.759 0-6.183.633-7.566 2.034-1.434 1.404-1.83 3.51-1.83 8.979v13.692h-12.417v-33.189z"/><path d="m302.856 30.207v4.977h.594c1.83-3.993 6.033-5.826 13.404-5.826 8.016 0 12.417 2.037 15.09 6.954 2.127-4.986 6.183-6.954 14.343-6.954 6.876 0 10.932 1.269 13.8 4.281 2.868 2.946 3.513 5.685 3.513 14.235v15.522h-12.414v-15.522c-.051-5.532-.201-6.159-1.386-7.359-1.287-1.26-3.366-1.824-7.026-1.824-3.708 0-6.033.633-7.371 2.109-1.431 1.542-1.827 3.507-1.827 8.904v13.692h-12.417v-15.522c0-5.181-.15-6.096-1.335-7.359-1.14-1.26-3.315-1.824-6.876-1.824-3.711 0-6.186.633-7.569 2.034-1.434 1.404-1.83 3.51-1.83 8.979v13.692h-12.414v-33.189z"/><path d="m409.014 32.379c3.36 2.454 4.251 5.466 4.251 13.821 0 9.123-.84 12.219-3.855 14.739-3.168 2.601-7.272 3.309-19.59 3.309-12.417 0-16.521-.708-19.686-3.309-3.069-2.52-3.861-5.613-3.861-15.234 0-7.779.99-10.938 4.305-13.326 3.066-2.244 7.914-3.021 19.191-3.021 11.379 0 16.128.774 19.245 3.021m-30.324 14.667c0 4.419.543 5.892 2.817 6.807 1.536.699 4.353 1.05 8.31 1.05 9.447 0 11.031-1.197 11.031-8.217 0-4.488-.693-6.099-3.018-7.005-1.533-.633-4.5-.99-8.013-.99-9.447 0-11.127 1.263-11.127 8.355"/><path d="m462.783 63.396h-11.676v-4.353h-.645c-2.373 4.002-5.685 5.202-14.688 5.202-8.958 0-13.257-.918-16.128-3.51-2.724-2.529-3.561-5.904-3.561-14.184 0-8.424 1.335-12.417 4.845-14.727 3.018-1.974 6.432-2.526 14.988-2.526 8.706 0 11.574 1.119 13.95 5.334h.495v-18.042h12.414v46.806zm-34.284-16.983c0 7.29 1.386 8.418 10.737 8.418 4.551 0 7.914-.558 9.348-1.542 1.386-.921 1.878-2.679 1.878-6.534 0-6.861-1.632-8.133-10.485-8.133-9.792 0-11.478 1.128-11.478 7.791"/><path d="m507.747 32.379c3.363 2.454 4.302 5.466 4.302 13.821 0 9.123-.84 12.219-3.858 14.739-3.168 2.601-7.32 3.309-19.59 3.309-12.414 0-16.521-.708-19.689-3.309-3.114-2.52-3.855-5.613-3.855-15.234 0-7.779.99-10.938 4.254-13.326 3.117-2.244 7.965-3.021 19.245-3.021 11.376 0 16.122.774 19.191 3.021m-30.276 14.667c0 4.419.546 5.892 2.823 6.807 1.482.699 4.299 1.05 8.307 1.05 9.396 0 11.031-1.197 11.031-8.217 0-4.488-.693-6.099-3.018-7.005-1.533-.633-4.5-.99-8.013-.99-9.447 0-11.13 1.263-11.13 8.355"/><path d="m526.296 30.207v4.977h.645c2.274-4.215 5.787-5.826 12.762-5.826 9.99 0 13.356 3.372 13.356 13.335v2.244h-11.676c0-4.917-1.434-6.246-6.528-6.246-2.82 0-5.145.846-6.333 2.388-1.188 1.614-1.533 3.438-1.533 8.562v13.755h-12.417v-33.189z"/><path d="m599.751 52.8c-.939 9.195-5.49 11.445-23.25 11.445-9.594 0-14.148-.849-17.166-3.093-3.264-2.454-4.203-5.763-4.203-14.253 0-8.91.936-12.21 4.452-14.658 3.264-2.244 7.371-2.943 18.201-2.943 11.181 0 15.138.699 18.156 3.147 2.919 2.457 4.059 6.177 4.059 13.686 0 .42 0 1.959-.051 3.36h-32.451c0 3.375.399 4.491 1.584 5.412 1.335.984 3.909 1.41 8.409 1.41 7.914 0 9.396-.564 9.894-3.51zm-12.216-10.107c-.102-2.598-.246-3.225-.993-4.002-1.137-1.197-3.657-1.683-8.553-1.683-8.361 0-10.338 1.053-10.488 5.685z"/></g></svg>