<svg xmlns="http://www.w3.org/2000/svg"><g fill="#1e1e1e"><path d="m285.017 213.789c-1.347 0-2.452 1.105-2.452 2.452v8.704c0 .03.002-.001 0 .017h-8.719c-1.348 0-2.453 1.105-2.453 2.451v9.369c0 1.348 1.105 2.453 2.453 2.453h8.719c.003.024 0-.009 0 .033v8.687c0 1.348 1.105 2.453 2.452 2.453h9.369c1.346 0 2.453-1.105 2.453-2.453v-8.687c0-.06-.003-.013 0-.033h8.719c1.348 0 2.453-1.105 2.453-2.453v-9.369c0-1.346-1.105-2.451-2.453-2.451h-8.703c-.025 0 0 .002-.017 0v-8.72c0-1.347-1.106-2.452-2.452-2.452h-9.369zm0 1.039h9.369c.785 0 1.413.628 1.413 1.413v8.752c0 .304.127.632.373.813.247.179.492.194.683.194h8.703c.786 0 1.413.628 1.413 1.413v9.369c0 .787-.627 1.413-1.413 1.413h-8.719c-.274-.001-.601.057-.812.308-.212.251-.228.528-.228.764v8.687c0 .786-.628 1.412-1.413 1.412h-9.369c-.785 0-1.413-.627-1.413-1.412v-8.687c0-.196.023-.434-.162-.699-.184-.265-.527-.374-.827-.374h-8.769c-.786 0-1.413-.627-1.413-1.412v-9.37c0-.785.627-1.412 1.413-1.412h8.768c.23 0 .509-.047.73-.276.222-.229.261-.514.261-.78v-8.703c0-.786.628-1.413 1.412-1.413z" transform="matrix(.965926 -.258819 .258819 .965926 -50.200141 82.888913)"/><path d="m326.258 252.174c-.639.014-1.28.146-1.9.423l-11.676 5.212c-2.475 1.106-3.59 4.02-2.484 6.495s4.036 3.591 6.512 2.484l11.659-5.211c2.476-1.108 3.591-4.021 2.485-6.496-.831-1.857-2.679-2.944-4.596-2.907zm.032 1.04c1.513-.032 2.964.819 3.622 2.29.876 1.962-.003 4.254-1.965 5.131l-11.662 5.206c-1.964.877-4.254-.003-5.131-1.964-.877-1.964.002-4.255 1.964-5.132l11.66-5.212c.491-.219 1.008-.314 1.51-.325z" transform="matrix(.965926 -.258819 .258819 .965926 -56.292199 91.807078)"/><path d="m350.102 245.785c-.64.014-1.281.147-1.901.423l-11.676 5.212c-2.476 1.106-3.59 4.02-2.484 6.495s4.02 3.591 6.496 2.484l11.674-5.211c2.476-1.108 3.591-4.021 2.485-6.496-.83-1.857-2.679-2.944-4.594-2.907zm.016 1.04c1.511-.032 2.962.819 3.62 2.29.878 1.962.014 4.254-1.95 5.131l-11.676 5.207c-1.961.876-4.238-.004-5.114-1.965-.878-1.964-.016-4.255 1.949-5.132l11.675-5.212c.492-.219.99-.314 1.495-.325z" transform="matrix(.965926 -.258819 .258819 .965926 -53.826197 97.76024)"/><path d="m363.821 262.268c-.28.028-.566.115-.828.259-1.047.574-1.436 1.908-.859 2.956l9.857 17.944c.574 1.048 1.892 1.435 2.939.86 1.047-.574 1.436-1.892.859-2.939l-9.847-17.959c-.431-.786-1.283-1.204-2.127-1.119zm.537 1.072c.276.081.531.275.681.552l9.842 17.949c.306.554.115 1.239-.438 1.543-.554.304-1.238.115-1.542-.439l-9.84-17.96c-.306-.554-.117-1.24.438-1.542.276-.152.583-.178.859-.098z" transform="matrix(.965926 -.258819 .258819 .965926 -58.19067 104.810312)"/><path d="m369.656 256.692c-.281.027-.567.116-.828.26-1.049.573-1.436 1.908-.861 2.955l9.841 17.944c.575 1.048 1.909 1.452 2.957.876 1.048-.573 1.435-1.907.86-2.954l-9.841-17.961c-.431-.786-1.286-1.205-2.128-1.12zm.537 1.071c.276.081.53.275.68.553l9.842 17.96c.305.555.1 1.223-.454 1.528-.556.304-1.24.115-1.543-.439l-9.841-17.961c-.305-.553-.1-1.239.454-1.542.278-.154.583-.18.862-.099z" transform="matrix(.965926 -.258819 .258819 .965926 -56.550086 106.130589)"/><path d="m375.478 251.127c-.28.028-.565.101-.827.244-1.048.573-1.436 1.907-.861 2.955l9.857 17.961c.572 1.043 1.894 1.425 2.939.859.007-.003.01-.012.016-.016 1.033-.58 1.433-1.897.861-2.939l-9.857-17.961c-.43-.783-1.283-1.186-2.128-1.103zm.536 1.056c.278.081.53.275.683.552l9.841 17.96c.304.556.117 1.24-.439 1.542-.554.306-1.239.1-1.542-.453l-9.841-17.961c-.306-.554-.116-1.239.438-1.542.277-.154.584-.178.86-.098z" transform="matrix(.965926 -.258819 .258819 .965926 -54.908915 107.449147)"/><path d="m381.31 245.547c-.28.029-.565.1-.827.244-1.048.573-1.436 1.908-.861 2.955l9.841 17.961c.574 1.046 1.909 1.435 2.957.86 1.049-.573 1.435-1.908.861-2.956l-9.848-17.948c-.432-.787-1.284-1.205-2.128-1.121zm.537 1.072c.277.082.53.259.683.536l9.84 17.96c.306.555.101 1.239-.454 1.542-.555.304-1.238.1-1.543-.455l-9.836-17.958c-.305-.555-.1-1.222.454-1.526.278-.153.582-.18.861-.099z" transform="matrix(.965926 -.258819 .258819 .965926 -53.266214 108.767173)"/><path d="m387.129 239.966c-.277.028-.555.12-.812.261-.005.002-.013-.004-.017 0v.016c-1.031.579-1.432 1.882-.86 2.923l9.857 17.96c.575 1.048 1.908 1.436 2.956.861 1.047-.575 1.435-1.908.861-2.956l-9.859-17.943c-.432-.785-1.285-1.205-2.126-1.122zm.552 1.072c.277.081.513.258.665.536l9.841 17.961c.306.555.117 1.237-.438 1.543-.555.303-1.239.099-1.543-.455l-9.842-17.939c-.304-.555-.116-1.239.439-1.543.276-.151.598-.179.876-.097z" transform="matrix(.965926 -.258819 .258819 .965926 -51.624015 110.0854)"/><path d="m392.965 234.388c-.28.027-.566.115-.828.259-1.047.574-1.436 1.909-.86 2.956l9.842 17.944c.573 1.047 1.907 1.435 2.955.86 1.047-.573 1.437-1.908.86-2.957l-9.848-17.941c-.43-.788-1.283-1.206-2.126-1.121zm.536 1.071c.277.081.53.275.681.553l9.843 17.948c.305.554.1 1.239-.454 1.543-.556.304-1.24.1-1.543-.455l-9.837-17.944c-.305-.553-.1-1.238.454-1.542.278-.152.583-.178.862-.098z" transform="matrix(.965926 -.258819 .258819 .965926 -49.981454 111.403373)"/><path d="m344.385 291.021c-.18 0-.372.06-.536.195-.165.136-.275.365-.275.585v3.15c0 .205-.033.372.048.618.042.123.145.275.293.372.148.098.31.131.439.131h.941c.142 0 .341-.057.471-.179.13-.121.168-.267.194-.374.054-.212.049-.37.049-.567v-3.151c0-.142-.025-.342-.177-.519-.154-.178-.398-.261-.601-.261zm.228 1.04h.357v2.89c-.001.051.001.041 0 .081h-.357c-.004-.043 0-.024 0-.081z" transform="matrix(.965926 -.258819 .258819 .965926 -64.22704 99.24008)"/><path d="m347.476 290.186c-.445 0-.795.342-.795.78v3.151c0 .229-.007.401.064.618.036.108.099.235.227.339.13.107.31.164.439.164h1.038c.167 0 .368-.102.472-.228.105-.127.142-.246.162-.341.04-.19.032-.348.032-.552v-3.151c0-.186-.067-.385-.21-.535-.143-.151-.352-.243-.552-.243zm.243 1.041h.357v2.89c0 .044.001.044 0 .08h-.357c-.002-.04 0-.026 0-.08z" transform="matrix(.965926 -.258819 .258819 .965926 -63.905082 100.01657)"/><path d="m250.945 74.17c-.341 0-.682.211-.828.471-.146.258-.179.529-.179.78v217.306c0 3.123 2.544 5.668 5.668 5.668l57.634-.001c.275 0 .545-.177.682-.39.136-.212.177-.456.177-.73v-3.151c0-.178-.056-.411-.227-.568s-.396-.211-.583-.211h-8.251c-1.483 0-2.679-1.18-2.679-2.663 0-1.484 1.196-2.679 2.679-2.679h16.515c1.484 0 2.68 1.197 2.68 2.679 0 1.255-.855 2.288-2.014 2.582v.016c-.24.064-.393.253-.455.406s-.081.293-.081.438v3.151c.002.172-.018.331.05.567.033.118.1.275.243.39.143.114.326.163.471.163h38.388c17.999 0 32.592-14.61 32.592-32.609v-190.533c0-.252-.071-.499-.243-.715s-.467-.373-.779-.373h-141.459zm.065 1.039h141.359c.005.01.016.017.016.048v190.534c0 17.437-14.116 31.569-31.552 31.569h-38.113c-.002-.041.001-.03 0-.08v-3.102c1.476-.494 2.55-1.856 2.55-3.492 0-2.044-1.674-3.719-3.72-3.719h-16.515c-2.045 0-3.718 1.675-3.718 3.719 0 2.045 1.673 3.703 3.718 3.703h8.022v2.891c0 .068-.009.054-.016.08l-57.436.001c-2.564.005-4.63-2.063-4.63-4.625v-217.307c0-.119.022-.178.032-.211z" transform="matrix(.965926 -.258819 .258819 .965926 -37.251609 89.604844)"/><path d="m359.493 207.172c-5.294 0-9.597 4.303-9.597 9.596 0 5.294 4.303 9.598 9.597 9.598 5.293 0 9.597-4.304 9.597-9.598 0-5.293-4.303-9.596-9.597-9.596zm0 1.038c4.732 0 8.557 3.826 8.557 8.558s-3.826 8.558-8.557 8.558c-4.732 0-8.558-3.825-8.558-8.558 0-4.732 3.825-8.558 8.558-8.558z" transform="matrix(.965926 -.258819 .258819 .965926 -43.854508 100.429821)"/><path d="m379.554 190.567c-5.294 0-9.597 4.304-9.597 9.597 0 5.295 4.303 9.598 9.597 9.598s9.597-4.303 9.597-9.598c0-5.293-4.303-9.597-9.597-9.597zm0 1.04c4.733 0 8.558 3.826 8.558 8.557 0 4.732-3.826 8.558-8.558 8.558s-8.557-3.826-8.557-8.558c0-4.73 3.825-8.557 8.557-8.557z" transform="matrix(.965926 -.258819 .258819 .965926 -38.873387 105.056209)"/><path d="m250.579 82.861c-3.022 0-5.472 2.467-5.472 5.489v81.438c0 3.023 2.45 5.489 5.472 5.489l97.953-.001c4.642 0 9.268-2.351 12.748-5.861 3.482-3.508 5.831-8.201 5.831-12.956v-68.109c0-3.023-2.469-5.489-5.487-5.489zm0 1.038h111.044c2.46 0 4.449 1.99 4.449 4.45v68.104c0 4.412-2.219 8.88-5.538 12.228s-7.715 5.554-12 5.554h-97.953c-2.461 0-4.433-1.989-4.433-4.449v-81.439c0-2.459 1.973-4.449 4.433-4.449z" transform="matrix(.965926 -.258819 .258819 .965926 -22.975101 83.624734)"/><path d="m268.822 93.263c-.738 0-1.348.61-1.348 1.348v68.381c0 .738.61 1.347 1.348 1.347h75.187c.738 0 1.348-.61 1.348-1.347v-68.381c0-.738-.61-1.349-1.348-1.349zm0 1.039h75.187c.176 0 .309.133.309.308v68.381c0 .177-.134.309-.309.309l-75.187.001c-.176 0-.308-.133-.308-.31v-68.38c-.001-.176.132-.309.308-.309z" transform="matrix(.965926 -.258819 .258819 .965926 -22.895167 83.694908)"/><path d="m241.37 78.203c-.172 0-.366.086-.472.194-.104.109-.149.219-.178.308-.058.182-.064.336-.064.471v2.323c0 .186.067.384.21.536.144.151.368.227.568.227h.862c.444 0 .811-.324.811-.763v-2.323c0-.169-.001-.354-.113-.568-.113-.215-.426-.406-.683-.406h-.941zm.324 1.04h.374v1.98h-.374z" transform="matrix(.965926 -.258819 .258819 .965926 -12.523655 65.337359)"/><path d="m244.427 77.371c-.16 0-.353.097-.455.211-.101.114-.141.207-.162.291-.044.173-.049.32-.049.471v2.323c0 .141.042.326.195.503s.398.261.601.261h.845c.179 0 .37-.045.535-.179.164-.134.275-.364.275-.584v-2.323c0-.141-.01-.318-.097-.519-.087-.202-.376-.455-.681-.455zm.373 1.04h.373v1.981h-.373z" transform="matrix(.965926 -.258819 .258819 .965926 -12.202779 66.112674)"/><path d="m232.756 65.244c-.346 0-.656.191-.828.406-.171.215-.242.442-.243.698v10.068c0 .471.389.86.86.86h116.546c.341 0 .543-.264.633-.47.092-.207.13-.421.13-.698v-9.694c0-.339-.097-.673-.325-.893-.222-.221-.513-.276-.742-.276h-101.362c-.224 0-.546.106-.699.341-.152.236-.146.446-.146.633v2.323c0 .177.073.394.244.552s.38.211.568.211h12.666c1.483 0 2.68 1.196 2.68 2.679 0 1.484-1.197 2.679-2.68 2.679h-20.932c-1.483 0-2.679-1.195-2.679-2.679 0-1.256.872-2.306 2.03-2.598.238-.065.392-.253.453-.405.063-.154.065-.293.065-.439v-2.323c0-.218-.051-.443-.194-.633-.144-.189-.402-.341-.683-.341h-5.358-.004zm116.059 1.024c-.027-.026 0-.021 0 .146v9.694c0 .081-.01.081-.017.129h-116.079v-9.888c0 .014.001-.047.017-.065.014-.018 0 0 .016 0h5.196v2.209c-1.47.495-2.55 1.86-2.55 3.491 0 2.045 1.674 3.719 3.719 3.719h20.932c2.046 0 3.72-1.673 3.72-3.719 0-2.045-1.674-3.719-3.72-3.719h-12.438v-1.981h101.169c.069 0 .058.009.032-.016z" transform="matrix(.965926 -.258819 .258819 .965926 -8.535718 77.684782)"/><path d="m227.744 82.311c-3.517 0-6.382 2.864-6.382 6.381v4.758c0 .219.094.507.308.682.217.174.468.211.715.211h9.548c.471 0 .861-.389.861-.86v-10.067c0-.269-.081-.509-.244-.715-.161-.206-.44-.39-.763-.39zm0 1.04h3.979c.01.018.033.045.033.065v9.889h-9.353v-4.612c-.001-2.956 2.386-5.342 5.341-5.342z" transform="matrix(.965926 -.258819 .258819 .965926 -15.123211 61.781748)"/><path d="m349.924 48.132c-.322 0-.585.182-.747.39-.163.207-.26.446-.26.714v10.068c0 .471.405.86.878.86h9.547c.247 0 .499-.036.715-.211s.293-.463.293-.682v-4.757c0-3.517-2.848-6.383-6.361-6.383h-4.06zm.064 1.04h3.996c2.956 0 5.326 2.386 5.326 5.342v4.612h-9.354v-9.889c0-.02.022-.047.032-.065z" transform="matrix(.965926 -.258819 .258819 .965926 -1.930568 93.630873)"/><path d="m223.499 94.841v2.029h1.039v-2.029z" transform="matrix(.965926 -.258819 .258819 .965926 -17.175981 61.246432)"/><path d="m230.828 81.639v1.04h2.209v-1.04z" transform="matrix(.965926 -.258819 .258819 .965926 -13.361404 62.828026)"/><path d="m238.953 79.462v1.041h2.209v-1.041z" transform="matrix(.965926 -.258819 .258819 .965926 -12.521231 64.856768)"/><path d="m242.299 78.602v1.041h1.932v-1.041z" transform="matrix(.965926 -.258819 .258819 .965926 -12.189352 65.657616)"/><path d="m245.468 77.754v1.04h1.931v-1.04z" transform="matrix(.965926 -.258819 .258819 .965926 -11.861784 66.448781)"/><path d="m346.244 50.714v1.04h2.209v-1.04z" transform="matrix(.965926 -.258819 .258819 .965926 -1.424725 91.646133)"/><path d="m360.337 58.206v1.932h1.039v-1.932z" transform="matrix(.965926 -.258819 .258819 .965926 -3.018956 95.412745)"/><path d="m242.876 83.407-.391.211-2.451 1.348-.406.227.406.227 2.451 1.348.391.211v-.437-2.696z" transform="matrix(.965926 -.258819 .258819 .965926 -13.829102 65.343439)"/><path d="m259.642 78.044v.438 2.696.438l.374-.212 2.451-1.348.423-.227-.423-.227-2.451-1.347z" transform="matrix(.965926 -.258819 .258819 .965926 -11.759102 70.340719)"/></g></svg>