<svg xmlns="http://www.w3.org/2000/svg"><g fill="#fff"><path d="m573.944.968h26.056l-36.734 57.146-5.959 44.582h-23.547l6.901-50.87-23.547-50.858h25.43l12.563 28.89z"/><path d="m299.546 62.507h31.074l3.141-22.605h-30.764l2.203-16.329h35.781l3.461-22.605h-59.34l-14.129 101.728h59.022l3.141-22.614h-35.79z"/><path d="m118.703 52.454 7.85-21.033 2.514 21.033h-10.361zm-8.476 20.094h21.347l3.772 30.139h38.614l17.898-55.257 8.792 55.257h20.409l22.605-58.395 3.768 58.395h22.602l-6.279-101.722h-27.001l-21.039 53.685-8.164-53.685h-24.174l-27.629 83.513-10.361-83.513h-30.139l-33.597 84.452 4.396-32.963h-40.82l-2.827 20.091h17.898l-1.258 6.907c-3.138 1.882-10.358 2.199-13.185 2.199-2.824 0-23.86-1.882-22.919-24.49.935-22.602 31.074-43.639 66.865-32.022l3.457-21.664c-23.863-8.161-86.533-3.593-92.936 52.43-3.765 32.967 26.377 48.665 46.468 48.354 11.616.628 24.805-3.768 29.512-6.282l-1.569 4.71h23.863l11.616-30.139z"/><path d="m491.682.029c-16.326-.63-39.875 8.79-47.723 46.779-7.848 37.987 13.185 53.372 32.652 55.885 19.467 2.511 46.782-9.733 51.803-46.151 5.03-36.421-12.878-55.571-36.732-56.513zm-2.507 21.664c6.593 0 20.719 4.396 17.264 30.764-3.451 26.373-19.777 29.514-25.742 28.887-5.969-.631-18.212-4.71-14.758-28.887 3.461-24.171 16.33-31.081 23.242-30.764z"/><path d="m392.467 39.902h13.188c9.731 0 11.617-6.279 11.927-8.789.314-2.513-2.51-7.537-7.531-7.537h-15.384l-2.191 16.326zm-5.651 40.186h17.898c9.73 0 11.927-7.534 12.241-10.047.314-2.51-2.511-7.534-7.534-7.534h-20.092l-2.51 17.581zm-26.365 22.605 14.13-101.722h43.324c10.364 0 25.432 11.933 23.55 27.942-1.883 16.013-6.907 16.957-10.362 19.467 5.341 4.707 10.675 12.241 8.479 26.371-2.2 14.13-13.816 27.942-34.221 27.942h-44.897z"/></g></svg>