<svg preserveAspectRatio="none" xmlns="http://www.w3.org/2000/svg"><g fill="#1e1e1e"><path d="m471.625 148.505-.154.262-2.961 4.58.833.54 2.791-4.333 45.15 4.888 1.666 4.041.91-.371-1.774-4.317-.107-.278-.294-.031-45.752-4.95z" transform="matrix(-.258819 -.965926 .965926 -.258819 473.82569 670.567215)"/><path d="m629.721 178.563-187.897 10.301-.2.015-.139.154-4.842 5.69-.123.139v.185 24.472 19.414l-.001 24.472v.185l.124.139 4.842 5.69.139.155.2.015 187.897 10.301.185.015.154-.123 8.712-6.816 38.798-2.869 6.245 5.66.2.185.247-.062 2.914-.725.155-.046.092-.124 3.763-4.348.062-.077.031-.093 2.421-7.263.031-.077v-.093-2.051-.493h-.262v-.293h.262v-.494-29.158-2.637-29.16-.494h-.262v-.293h.262v-.493-2.051-.077l-.031-.077-2.421-7.278-.031-.093-.062-.062-3.763-4.364-.092-.123-.155-.046-2.914-.725-.247-.062-.2.185-6.261 5.675-38.782-2.884-8.712-6.816-.155-.108h-.184zm-.124 1.002 8.697 6.785.124.093.138.015 39.137 2.899.2.015.17-.138 6.23-5.644 2.514.648 3.562 4.147 2.375 7.14v1.45h-.262v.493 1.28.494h.262v28.666 2.637 28.667h-.262v.493 1.28.494h.262v1.449l-2.375 7.125-3.578 4.179-2.498.632-6.23-5.644-.17-.139-.2.015-39.137 2.899-.138.016-.124.093-8.697 6.784-187.495-10.271-4.596-5.397v-24.287-19.414-24.287l4.596-5.397z" transform="matrix(-.258819 -.965926 .965926 -.258819 489.96761 834.432336)"/><path d="m613.443 123.186-1.665 4.04-45.151 4.888-2.791-4.333-.833.54 2.961 4.595.154.247.309-.031 45.752-4.95.293-.031.108-.278 1.774-4.317z" transform="matrix(-.258819 -.965926 .965926 -.258819 617.232696 729.96825)"/><path d="m631.401 195.113-190.764 2.591h-.046-.062l-2.946.74-.385.093v.385 20.478 19.815 20.478.401l.385.093 2.946.725.062.015h.046l190.764 2.591h.016l61.681-1.958-.031-.987-61.651 1.958h-.031l-190.687-2.59-2.514-.633v-20.092-19.816-20.093l2.514-.616 190.687-2.591h.031l61.651 1.943.031-.987-61.681-1.943z" transform="matrix(-.258819 -.965926 .965926 -.258819 489.917347 834.557805)"/><path d="m646.61 256.829-.508.016-127.202 1.572h-.062l-.062.015-2.914.849.278.94 2.776-.817h.031l126.677-1.573v18.705 25.705 18.705l-126.677-1.573h-.031l-2.776-.817-.278.94 2.914.849.062.015h.062l127.202 1.573.508.015v-.508-19.199-25.705-19.198z" transform="matrix(-.258819 -.965926 .965926 -.258819 452.143115 925.718572)"/><path d="m281.418 226.729-7.46-7.463.002-32.573v-4.283l9.912-.002v-1.219h-9.912v-4.119l9.912-.002v-1.22h-9.912v-4.763h9.91v-1.222h-9.91v-4.853h9.912v-1.224h-9.912v-4.393h9.912v-1.224h-9.912v-4.208l9.91-.002v-1.219h-9.91v-4.579h9.91v-1.222h-9.91v-4.578h9.91v-1.222h-9.91v-4.396h9.91v-1.222h-9.912v-32.532l7.46-7.458h110.2l8.32 8.316v31.674h-10.957v1.222h10.955v4.396h-10.955v1.222h10.955v4.578h-10.955v1.222h10.955v4.579h-10.955v1.221h10.955v4.208h-10.955v1.224h10.955v4.393h-10.955v1.224h10.955v4.853h-10.955v1.222h10.955v4.763l-10.955-.002v1.224h10.955v4.119h-10.955v1.221h10.957v5.021 30.979l-8.32 8.32h-110.2zm-5.459-40.037v31.745l6.287 6.289h108.544l7.146-7.148v-30.148-3.021h-10.955v-4.222-1.002h10.955v-.116h-10.955v-5.223h10.957v-.762h-10.957v-5.222h10.957v-.853h-10.957v-5.224h10.957v-.394h-10.957v-5.223h10.955v-.208h-10.955v-5.221h10.955v-.579h-10.955v-5.222l10.955-.002v-.577h-10.955v-5.221l10.957-.002v-.394h-10.957v-5.222h10.955v-28.844l-7.146-7.146h-108.543l-6.289 6.287v29.704h9.912v5.222h-9.912v.396h9.912v5.221h-9.912v.579h9.912v5.222h-9.912v.579h9.912v5.221h-9.912v.208h9.912v5.223h-9.912v.394h9.912v5.224h-9.912v.853h9.912v5.222h-9.912v.762h9.912v5.223h-9.912v.116h9.912v5.224h-9.912z" transform="matrix(-.127714 -.476635 .476635 -.127714 522.495239 377.360565)"/><path d="m401.804 95.75 8.444.234v128.288l-7.418.184-.025-.999.025.999-1.026.023zm2.002 126.681 4.44-.109v-124.393l-4.44-.125zm7.021-126.428 7.982.222v127.833l-6.956.174-.025-.999.025.999-1.026.025zm2.002 126.204 3.982-.1v-123.937l-3.982-.112zm6.559-125.965 7.985.222v127.38l-6.959.175-.025-.998.025.998-1.026.025zm2.002 125.751 3.983-.101v-123.481l-3.983-.112zm6.561-125.511 7.982.222v126.926l-6.958.174-.023-.999.023.999-1.024.025zm2 125.298 3.982-.099v-123.03l-3.982-.112zm6.562-125.059 7.986.224v126.472l-6.961.176-.025-1.001.025 1.001-1.025.025zm2.001 124.845 3.983-.101v-122.575l-3.983-.112zm6.561-124.604 7.984.224v126.018l-6.958.173-.025-.999.025.999-1.026.023zm2.002 124.39 3.98-.099v-122.122l-3.98-.112zm6.56-124.149 7.984.222v125.565l-6.958.174-.025-.999.025.999-1.026.025zm2.002 123.936 3.982-.1v-121.67l-3.982-.112zm6.56-123.696 7.984.222v125.112l-6.96.173-.023-.999.023.999-1.024.025zm2 123.484 3.985-.101v-121.216l-3.985-.109zm6.56-123.245 7.984.222v124.66l-6.959.174-.024-.999.024.999-1.025.025zm2.002 123.032 3.982-.099v-120.766l-3.982-.112zm6.562-122.793 7.984.224v124.206l-6.96.173-.025-.998.025.998-1.024.025zm1.998 122.577 3.984-.099v-120.31l-3.984-.112zm6.564-122.336 7.984.222v123.754l-6.96.173-.023-.999.023.999-1.024.023zm2 122.123 3.984-.099v-119.856l-3.984-.112zm6.562-121.883 7.982.222v123.3l-6.958.174-.023-.999.023.999-1.024.025zm2 121.67 3.983-.1v-119.401l-3.983-.112zm6.562-121.431 7.982.222v122.847l-6.958.175-.025-.999.025.999-1.024.023zm1.998 121.217 3.984-.099v-118.949l-3.984-.112zm6.562-119.948v-1.029l8.447.234v122.369l-8.447.21zm2 119.734 4.445-.107v-118.474l-4.443-.125zm-1.026-118.735.027-.999z" transform="matrix(-.127714 -.476635 .476635 -.127714 522.495239 377.360565)"/><path d="m529.208 177.001-10.086 9.668.694.71 10.085-9.653z" transform="matrix(-.258819 -.965926 .965926 -.258819 484.283125 735.983468)"/><path d="m530.926 219.213-.663.725 10.44 9.653.679-.725z" transform="matrix(-.258819 -.965926 .965926 -.258819 457.747922 800.046305)"/><path d="m592.954 205.212-10.44 9.653.664.725 10.455-9.653z" transform="matrix(-.258819 -.965926 .965926 -.258819 537.04642 832.892174)"/><path d="m572.067 163-.694.709 10.085 9.669.694-.71z" transform="matrix(-.258818 -.965926 .965926 -.258818 563.580767 768.829242)"/><path d="m531.592 170.424-8.312 11.426.802.586 8.312-11.426z" transform="matrix(-.258819 -.965926 .965926 -.258819 494.033016 731.94486)"/><path d="m538.278 221.311-.848.509 7.664 12.444.848-.509z" transform="matrix(-.258819 -.965926 .965926 -.258819 461.858956 809.971805)"/><path d="m588.095 209.789-7.664 12.444.849.509 7.663-12.444z" transform="matrix(-.258819 -.965926 .965926 -.258819 527.11874 837.003394)"/><path d="m567.247 158.857-.802.587 8.312 11.426.802-.586z" transform="matrix(-.258819 -.965926 .965926 -.258819 559.542275 759.078883)"/><path d="m556.465 172.408c-13.264 0-24.025 10.761-24.025 24.025 0 13.263 10.761 24.025 24.025 24.025 13.263 0 24.025-10.762 24.025-24.025 0-13.264-10.762-24.025-24.025-24.025zm0 .987c12.729-.001 23.038 10.308 23.038 23.038 0 12.729-10.309 23.038-23.038 23.038-12.73 0-23.038-10.309-23.038-23.038 0-12.73 10.308-23.038 23.038-23.038z" transform="matrix(-.258818 -.965926 .965926 -.258818 510.74837 784.777469)"/><path d="m352.864 207.148-.347-1.938c13.755-5.082 24.455-16.47 28.612-30.646l1.961.283v20.393l-11.911 11.909h-18.315zm4.868-2.001 12.619-.002 10.737-10.737v-13.829c-4.596 10.721-12.923 19.455-23.356 24.568zm-55.143 2.001-13.103-13.109v-19.519l1.962-.274c4.09 14.324 14.843 25.842 28.701 30.963l-.348 1.938h-17.212zm-11.101-13.936 11.934 11.937h11.514c-10.504-5.149-18.873-13.971-23.449-24.794zm-1.962-18.417.961-.274zm-.04-26.505v-19.658-.415l13.104-13.107h18.825l.313 1.95c-14.615 4.81-26.038 16.642-30.281 31.504zm2-5.832c4.747-11.226 13.578-20.294 24.639-25.348h-12.705l-11.934 11.936zm59.452-25.398.313-1.95h19.515v.999l-.708.708.708-.708v-.999h.413l11.909 11.909v20.948l-1.959.28c-4.313-14.714-15.681-26.414-30.191-31.187zm30.152 25.176-.001-14.387-10.737-10.74h-13.809c10.986 5.02 19.777 14.005 24.547 25.127z" transform="matrix(-.127714 -.476635 .476635 -.127714 522.495239 377.360565)"/><path d="m535.262 98.365v.987h3.207v-.987z" transform="matrix(-.258818 -.965926 .965926 -.258818 580.32594 643.017267)"/><path d="m533.542 91.945v.987h3.207v-.987z" transform="matrix(-.258819 -.965926 .965926 -.258819 584.362643 633.274197)"/><path d="m531.821 85.526v.987h3.208v-.987z" transform="matrix(-.258819 -.965926 .965926 -.258819 588.397149 623.531959)"/><path d="m530.087 79.084v.987h3.223v-.987z" transform="matrix(-.258819 -.965926 .965926 -.258819 592.446189 613.754958)"/><path d="m528.371 72.679v.987h3.223v-.987z" transform="matrix(-.258819 -.965926 .965926 -.258819 596.472867 604.034685)"/><path d="m519.716 74.969v.987h3.146v-.987z" transform="matrix(-.258819 -.965926 .965926 -.258819 583.317415 598.520171)"/><path d="m521.401 81.373v.987h3.208v-.987z" transform="matrix(-.258818 -.965926 .965926 -.258818 579.291146 608.239223)"/><path d="m523.104 87.815v.987h3.254v-.987z" transform="matrix(-.258819 -.965926 .965926 -.258819 575.241912 618.015603)"/><path d="m524.834 94.243v.987h3.238v-.987z" transform="matrix(-.258819 -.965926 .965926 -.258819 571.200686 627.770658)"/><path d="m526.579 100.67v.987h3.193v-.987z" transform="matrix(-.258819 -.965926 .965926 -.258819 567.160957 637.524855)"/><path d="m526.091 147.933 9.241.405v33.498l-8.196.362-.043-1 .043 1-1.045.045zm2.002 32.219 5.239-.231v-29.668l-5.239-.23zm11.748-31.613 8.964.396v32.303l-7.921.352-.043-.997.043.997-1.043.047zm1.998 31.007 4.966-.22v-28.479l-4.966-.22zm11.473-30.415 8.966.396v31.118l-7.923.352-.043-.999.043.999-1.043.045zm1.998 29.82 4.968-.22v-27.289l-4.968-.22zm11.472-29.223 8.968.395v29.93l-7.923.35-.043-.997.043.997-1.045.047zm2.002 28.628 4.966-.218v-26.102l-4.966-.22zm11.469-28.035 8.968.396v28.739l-7.923.352-.043-.998.043.998-1.045.047zm2.002 27.443 4.966-.22v-24.914l-4.966-.22zm11.472-25.804v-1.045l9.489.418v27.508l-9.489.418zm1.999 25.208 5.488-.24v-23.68l-5.488-.242zm-1.044-24.208.045-1z" transform="matrix(-.127714 -.476635 .476635 -.127714 522.495239 377.360565)"/></g></svg>