<svg xmlns="http://www.w3.org/2000/svg"><g fill="#fff"><path d="m130.047 3.317c2.967-3.797 9.11-4.446 12.75-1.26 1.489 1.256 2.533 2.984 3.066 4.846 6.741 23.193 13.512 46.375 20.243 69.57-3.978.005-7.959-.006-11.935.005-1.876-6.395-3.708-12.802-5.56-19.205-7.693-.017-15.382-.003-23.074-.006-1.883 6.398-3.742 12.803-5.592 19.212-3.956-.014-7.913-.003-11.87-.008 6.404-22.124 12.815-44.25 19.25-66.367.751-2.311 1.037-4.896 2.709-6.787m7.017 14.212c-2.821 9.61-5.584 19.236-8.389 28.849 5.591.025 11.179.009 16.768.009-2.783-9.62-5.566-19.239-8.371-28.858z"/><path d="m213.844 3.815c2.074-3.007 6.082-4.466 9.61-3.537 3.229.744 5.701 3.527 6.553 6.661 6.733 23.176 13.492 46.345 20.225 69.521-3.985.028-7.965 0-11.949.017-1.852-6.401-3.684-12.81-5.551-19.209-7.679.003-15.357-.014-23.036.006-1.835 6.406-3.729 12.797-5.564 19.201-3.953.004-7.904-.004-11.856.004 6.401-22.247 12.876-44.475 19.328-66.705.688-2.01.952-4.224 2.254-5.959m-.963 42.574c5.568.007 11.133.003 16.699.003-2.769-9.639-5.583-19.266-8.345-28.906-2.783 9.636-5.587 19.262-8.35 28.903z"/><path d="m157.203.162h43.17v11.642c-5.299.004-10.595-.007-15.892.004 0 21.554.003 43.112-.003 64.665h-11.384c0-21.552-.004-43.11.002-64.665-5.298-.011-10.594 0-15.895-.004.011-3.881 0-7.76.011-11.642z"/><path d="m262.887.635c1.094-.377 2.261-.507 3.415-.478 4.537.017 9.075.003 13.611.006 7.641.14 14.935 4.881 18.241 11.758 2.29 4.466 2.527 9.659 1.949 14.558-.398 5.13-2.549 10.258-6.492 13.657-2.084 1.857-4.678 2.98-6.905 4.633-1.225.933-1.285 2.745-.653 4.038 6.021 9.296 12.282 18.448 18.431 27.666-4.497.008-8.993-.01-13.49.008-5.886-8.841-11.71-17.727-17.572-26.581-1.723-2.52-2.192-5.857-1.161-8.733.806-2.205 2.732-3.82 4.879-4.653 4.099-1.564 8.14-4.021 10.41-7.887 1.727-2.907 1.638-6.495.861-9.676-.911-4.13-4.935-7.38-9.188-7.237-2.94.021-5.88-.015-8.816.013-1.329-.029-2.58 1.125-2.563 2.472-.014 20.759.007 41.52-.006 62.28-3.824-.008-7.644 0-11.468-.004-.008-22.349.006-44.7-.008-67.049.022-3.916 2.805-7.601 6.52-8.791z"/><path d="m310.49.162h12.067c-.003 25.439.008 50.875-.006 76.315-4.019-.011-8.039 0-12.061-.005.011-25.438.011-50.874.011-76.31z"/><path d="m34.029.007c1.933-.007 3.865 0 5.799-.005.008 4.545 0 9.09.003 13.634.02 3.793-.087 7.585-.244 11.374-.259 5.472-.602 10.956-1.509 16.364-.622 3.728-1.912 7.326-3.512 10.739-2.611 5.503-6.713 10.161-11.324 14.078-4.125 3.63-9.05 6.274-14.228 8.061-2.93 1.009-5.945 1.786-9.015 2.22.003-3.812.003-7.623 0-11.435 3.696-.554 7.248-1.868 10.548-3.6 3.916-2.069 7.44-4.855 10.407-8.137 3.064-3.388 5.505-7.31 7.358-11.479 2.183-4.79 3.351-9.964 4.145-15.146.994-6.587 1.409-13.247 1.564-19.905.021-2.254.002-4.509.008-6.763z"/><path d="m42.16.013c3.557-.023 7.117-.003 10.675-.01.001 25.49.001 50.979 0 76.467-3.55.008-7.101-.018-10.65.015-.045-8.128-.007-16.257-.019-24.385-.003-17.363.007-34.722-.006-52.087z"/><path d="m55.209.004c1.922-.001 3.844-.005 5.765.002-.062 7.772.202 15.556 1.128 23.278.759 5.997 1.828 12.04 4.216 17.625 2.264 5.407 5.528 10.43 9.782 14.483 4.062 3.871 8.985 6.85 14.333 8.565 1.492.476 3.018.852 4.569 1.077-.002 3.811-.003 7.62 0 11.43-3.048-.415-6.036-1.2-8.946-2.188-3.464-1.205-6.813-2.766-9.891-4.767-2.247-1.444-4.289-3.173-6.251-4.978-3.235-2.982-6.13-6.372-8.305-10.21-1.701-2.988-2.942-6.22-3.914-9.513-.891-3.311-1.271-6.733-1.617-10.136-.668-7.355-.918-14.749-.871-22.131.002-4.183.001-8.361.002-12.537z"/><path d="m34.029.007c-.006 2.255.013 4.51-.009 6.765-.154 6.657-.569 13.318-1.563 19.905-.794 5.182-1.962 10.355-4.145 15.146-1.853 4.168-4.295 8.092-7.358 11.48-2.967 3.284-6.492 6.067-10.407 8.136-3.3 1.735-6.852 3.046-10.548 3.599.003 3.813.003 7.624 0 11.437 3.07-.433 6.085-1.212 9.015-2.22 5.179-1.788 10.103-4.432 14.228-8.062 4.611-3.917 8.713-8.575 11.324-14.078 1.6-3.415 2.89-7.011 3.512-10.739.907-5.409 1.25-10.892 1.509-16.363.157-3.79.264-7.582.244-11.375-.003-4.544.005-9.089-.003-13.634-1.934.003-3.866-.004-5.799.003"/><path d="m42.16.013c.013 17.364.001 34.726.007 52.087.012 8.128-.027 16.257.019 24.385 3.549-.031 7.1-.007 10.65-.015.001-25.488.001-50.977 0-76.467-3.559.007-7.119-.014-10.676.01"/><path d="m55.209.004c-.001 4.176 0 8.356 0 12.533-.047 7.384.203 14.775.871 22.131.347 3.403.726 6.825 1.618 10.136.971 3.293 2.213 6.525 3.913 9.512 2.174 3.839 5.07 7.229 8.305 10.211 1.962 1.805 4.006 3.534 6.251 4.977 3.077 2.002 6.428 3.563 9.891 4.768 2.91.99 5.899 1.775 8.946 2.188-.003-3.81-.002-7.619 0-11.43-1.551-.226-3.077-.599-4.569-1.078-5.348-1.714-10.271-4.693-14.333-8.565-4.254-4.05-7.517-9.074-9.782-14.483-2.389-5.584-3.458-11.627-4.216-17.624-.926-7.722-1.19-15.506-1.128-23.279-1.923-.002-3.844.002-5.767.003"/><path d="m463.407 36.501c5.589-3.294 9.075-8.87 9.075-15.06 0-14.619-15.441-21.277-29.787-21.277-14.349 0-29.788 6.658-29.788 21.277 0 6.192 3.485 11.766 9.074 15.06-7.948 3.681-12.396 9.951-12.396 17.763 0 14.724 16.655 22.427 33.108 22.427 16.452 0 33.107-7.703 33.107-22.427.032-7.812-4.424-14.084-12.372-17.763zm-20.711-9.267c-3.66 0-6.637-2.36-6.637-5.264s2.977-5.265 6.637-5.265c3.656 0 6.634 2.361 6.634 5.265s-2.974 5.264-6.635 5.264zm0 18.759c4.071 0 7.385 2.716 7.385 6.061 0 3.244-3.314 5.883-7.385 5.883-4.075 0-7.386-2.637-7.386-5.883 0-3.345 3.323-6.061 7.387-6.061z"/><path d="m527.287 12.618c-6.11-8.147-15.087-12.456-25.959-12.456-10.871 0-19.849 4.306-25.96 12.456-5.137 6.853-7.968 16.066-7.968 25.942 0 19.111 10.491 38.397 33.93 38.397s33.932-19.287 33.932-38.397c0-9.877-2.826-19.09-7.969-25.942zm-25.96 41.601c-8.172 0-9.066-10.622-9.066-15.749 0-5.078.897-15.572 9.066-15.572 8.171 0 9.065 10.494 9.065 15.572 0 5.127-.899 15.749-9.069 15.749z"/><path d="m592.025 12.618c-6.11-8.147-15.088-12.456-25.959-12.456s-19.848 4.306-25.959 12.456c-5.138 6.853-7.969 16.066-7.969 25.942 0 19.111 10.492 38.397 33.93 38.397 23.439 0 33.931-19.287 33.931-38.397 0-9.877-2.836-19.09-7.969-25.942zm-25.961 41.601c-8.172 0-9.066-10.622-9.066-15.749 0-5.078.896-15.572 9.066-15.572s9.066 10.494 9.066 15.572c0 5.127-.9 15.749-9.07 15.749z"/><path d="m356.146 1.234v23.3h31.898l-23.802 52.075h26.956l32.003-75.375z"/></g></svg>