<svg xmlns="http://www.w3.org/2000/svg"><g fill="#1e1e1e"><path d="m1814.194 4273.227c-4.911-3.266-8.749-6.317-9.893-7.843-1.717-2.313-2.813-4.315-3.409-6.365-.382-1.264-.382-1.335.095-1.693 1.096-.93 6.007-1.383 17.259-1.645 5.221-.119 9.584-.309 9.679-.405.095-.095.477-1.001.834-1.979.811-2.193 3.076-6.746 4.84-9.774 3.385-5.793 7.008-8.963 9.678-8.462 1.169.238 2.885 1.788 3.386 3.099.524 1.43.333 3.552-.501 5.578-.739 1.764-1.144 2.384-4.792 7.319-2.574 3.48-3.313 4.601-3.146 4.72.047.047.834.476 1.764.953 2.312 1.216 3.695 2.646 3.838 4.029.167 1.502-.406 2.598-2.432 4.577-2.05 2.003-7.771 5.626-8.987 5.698l-.787.024v-2.98-2.98l-2.026-.763c-4.267-1.621-8.272-2.026-11.014-1.168-3.075.977-3.242 2.503-.977 8.463.715 1.907 1.788 5.101 1.668 5.006-.023-.024-2.312-1.55-5.077-3.409z"/><path d="m1904.019 4275.325c.096-.429.739-2.313 1.407-4.172.763-2.17 1.263-4.005 1.335-4.983.119-1.43.071-1.621-.501-2.312-1.549-1.836-6.675-2.026-11.562-.405-3.409 1.096-3.671 1.359-3.433 3.027.096.692.191 1.884.191 2.67 0 1.311-.048 1.431-.548 1.502-.668.096-3.409-1.382-6.675-3.599-3.504-2.385-5.054-4.315-5.054-6.365 0-1.765 1.502-3.362 4.482-4.745.691-.333 1.239-.643 1.239-.738 0-.072-.929-1.383-2.074-2.861-6.245-8.248-7.747-11.538-6.651-14.375.477-1.168.906-1.717 2.098-2.646 3.052-2.313 7.39 1.144 12.277 9.774.93 1.645 3.147 6.508 3.981 8.701l.429 1.097 1.788.167c1.002.071 3.958.143 6.604.143 9.44.024 18.189.834 18.88 1.788.787 1.072-1.931 6.364-4.744 9.201-1.644 1.669-5.983 5.007-6.317 4.864-.167-.048-.262-.024-.215.071.072.096-1.525 1.24-3.528 2.551-3.528 2.336-3.623 2.384-3.409 1.645z"/><path d="m1859.416 4274.824c-.405-1.574-1.764-4.553-3.289-7.152-4.768-8.296-6.032-12.229-6.032-18.856 0-1.955.072-3.91.143-4.315l.167-.739h1.717 1.74l.167-1.836c.238-3.051-.405-6.341-1.74-8.654-.811-1.43-2.933-3.623-4.697-4.886-.786-.573-2.717-1.74-4.267-2.623-2.98-1.644-4.672-2.837-4.672-3.265 0-.31 2.598-5.746 13.469-28.321 7.867-16.33 7.509-15.615 7.843-15.114.167.238.906 1.645 1.621 3.075 1.883 3.814 19.023 37.141 19.238 37.427.119.143.477.858.81 1.621l.62 1.359-1.955 1.288c-1.072.691-3.099 1.93-4.481 2.741-7.486 4.434-9.655 7.247-9.917 12.897-.072 1.383-.024 2.932.095 3.456l.215.954 1.93.072 1.908.071.143 1.597c.167 2.122-.191 7.772-.668 10.275-.906 4.744-2.574 8.606-5.697 13.254-1.145 1.717-2.48 3.934-2.956 4.935-.501 1.025-.93 1.859-1.002 1.859-.071 0-.286-.5-.453-1.12z"/><path d="m1812.549 4241.95c-4.982-.429-9.297-.786-9.56-.786l-.524-.024.572-1.765c.31-.977 1.359-3.933 2.336-6.603.978-2.67 2.36-6.532 3.076-8.558 1.239-3.552 4.052-11.419 6.341-17.641 1.215-3.338 1.359-4.649.62-5.554-.263-.334-1.049-1.312-1.741-2.17-.715-.858-1.358-1.573-1.478-1.573-.262 0-6.985 7.366-15.042 16.449-3.814 4.291-11.085 12.849-15.948 18.761-.978 1.192-1.86 2.193-1.955 2.193-.262.024-5.984-4.791-8.845-7.461-2.717-2.528-8.51-8.583-8.51-8.892 0-.167 2.598-2.218 6.794-5.317 2.241-1.668 8.105-6.102 10.132-7.628 1.692-1.311 8.796-6.556 13.254-9.822 3.6-2.598 9.798-6.937 11.729-8.177.81-.524 1.478-1.072 1.478-1.215 0-.144-.358-1.073-.787-2.027-.453-.977-1.168-2.836-1.597-4.148-.429-1.311-.811-2.431-.858-2.455-.072-.119-6.341 2.074-12.73 4.434-2.813 1.049-5.555 2.027-6.079 2.193-.525.167-3.099 1.097-5.722 2.074-2.622.978-6.531 2.408-8.701 3.171-2.169.763-5.53 1.978-7.509 2.741-1.955.739-4.482 1.669-5.602 2.027-1.121.381-3.362 1.168-5.006 1.787-1.645.62-3.791 1.431-4.792 1.788l-1.812.668-1.859-3.361c-1.025-1.86-2.742-4.935-3.815-6.842-1.072-1.907-2.622-4.696-3.456-6.198-.835-1.502-2.408-4.339-3.481-6.318-1.096-1.954-1.955-3.576-1.931-3.599.072-.096 13.66-1.955 18.642-2.575 6.675-.834 14.757-1.716 19.668-2.169 6.865-.596 20.501-1.74 25.865-2.146 2.765-.214 5.245-.429 5.507-.501.477-.095.524-.262.643-4.076.096-2.217.215-4.553.31-5.197l.143-1.216-3.051-.429c-1.693-.238-4.625-.62-6.532-.858s-8.129-1.144-13.826-2.002c-12.564-1.884-19.429-2.885-22.29-3.243-1.168-.143-4.601-.619-7.629-1.072-3.003-.453-10.179-1.526-15.948-2.36-5.745-.859-10.465-1.574-10.513-1.621-.119-.191-3.409-11.038-4.458-14.733-.667-2.288-2.05-6.961-3.099-10.37-2.169-7.033-2.431-7.962-2.288-8.105.119-.119 4.505 1.311 9.249 3.004 1.907.667 5.388 1.883 7.748 2.717 2.36.811 6.389 2.265 8.939 3.219 2.551.953 5.841 2.145 7.271 2.622 1.455.5 4.077 1.478 5.841 2.145 1.764.692 4.672 1.764 6.437 2.384 1.764.644 5.196 1.931 7.628 2.861 2.432.953 5.435 2.074 6.675 2.503s4.148 1.502 6.437 2.384c2.288.882 5.888 2.241 7.986 3.003 2.097.763 5.363 1.956 7.271 2.694 4.314 1.645 10.751 3.958 11.156 4.029.167.024.811-.93 1.454-2.121 3.433-6.389 7.2-11.228 12.206-15.591 2.789-2.456 2.718-2.432 1.764-.334-3.218 6.961-5.745 15.4-6.937 23.219-.31 1.979-.429 4.148-.429 7.867 0 9.631 1.525 15.662 5.244 20.526 2.599 3.409 5.531 5.53 11.634 8.439 4.72 2.24 6.46 3.742 8.081 6.913.978 1.979 1.383 3.719 1.383 6.127.024 5.793-3.314 10.679-8.01 11.752-1.12.262-1.192.31-1.359 1.216-.095.501-.763 4.148-1.478 8.081-.715 3.934-1.549 8.558-1.812 10.251-.262 1.717-.929 5.34-1.43 8.058-.524 2.717-.954 5.054-.954 5.173 0 .286.692.334-10.131-.62z"/><path d="m1898.489 4242.427c0-.095-.477-2.765-1.073-5.912-.572-3.171-1.264-7.08-1.526-8.725-.524-3.243-3.051-17.045-3.266-17.665-.071-.238-.477-.429-1.049-.524-.5-.072-1.43-.382-2.074-.668-1.263-.643-3.885-3.075-3.885-3.671 0-.191-.096-.358-.215-.358-.238 0-1.025-1.788-1.55-3.552-.476-1.645-.5-5.197-.023-7.009.429-1.668 1.478-3.766 2.55-5.101 1.288-1.621 3.052-2.789 7.533-4.959 4.745-2.312 6.652-3.623 9.226-6.341 3.528-3.79 5.126-7.438 6.246-14.351.572-3.433.548-11.681-.024-15.543-1.073-7.438-3.433-15.447-6.579-22.528-.644-1.43-1.121-2.622-1.073-2.622s1.144.93 2.432 2.074c3.742 3.314 7.39 7.557 9.797 11.419 1.168 1.883 3.195 5.602 3.409 6.27.096.262.525.166 2.122-.406 13.255-4.887 28.774-10.656 29.918-11.132.405-.167 1.144-.43 1.669-.597.524-.167 2.193-.786 3.695-1.359 1.502-.595 5.745-2.169 9.416-3.528 3.671-1.335 7.271-2.694 7.986-2.979.715-.286 2.813-1.05 4.649-1.693 1.835-.644 5.817-2.074 8.82-3.195 10.919-4.004 24.888-8.82 25.031-8.653.024.048-.31 1.263-.762 2.694-.453 1.454-1.24 3.957-1.741 5.602-.524 1.645-1.335 4.386-1.812 6.079-.452 1.716-1.954 6.698-3.289 11.085l-2.456 7.986-.691.072c-.381.047-5.411.762-11.181 1.621-14.089 2.074-22.599 3.289-27.057 3.909-2.026.286-9.369 1.359-16.33 2.384-6.937 1.049-15.161 2.217-18.237 2.622-3.075.406-5.745.787-5.935.859-.263.071-.286.405-.144 1.478.096.739.239 3.075.334 5.173l.143 3.814 3.815.286c8.892.692 32.278 2.741 36.354 3.195 8.701.929 28.535 3.504 29.87 3.861.167.048-2.598 5.126-8.939 16.497-3.099 5.531-5.483 9.75-5.531 9.822-.024.024-1.311-.453-2.884-1.049-1.574-.596-5.054-1.859-7.748-2.813-6.461-2.313-19.477-7.033-32.779-11.92-6.246-2.288-14.232-5.125-14.422-5.125-.072 0-.501 1.097-.93 2.456-.453 1.335-1.168 3.218-1.597 4.195-.453.953-.811 1.883-.811 2.026s1.478 1.264 3.29 2.48c5.554 3.742 8.034 5.554 7.962 5.793-.024.142.048.19.167.095.143-.072 1.144.548 2.241 1.359 1.096.834 3.767 2.789 5.912 4.386 2.146 1.573 5.173 3.838 6.746 5.006 1.55 1.168 3.552 2.67 4.435 3.314.905.667 3.337 2.479 5.411 4.053 2.074 1.573 4.529 3.456 5.483 4.171.953.715 1.716 1.431 1.74 1.598 0 .167-2.288 2.574-5.054 5.387-5.22 5.221-11.848 10.99-12.396 10.752-.167-.072-.62-.525-.977-1.002-.358-.476-1.359-1.692-2.194-2.67-.834-.977-2.336-2.741-3.313-3.933-6.175-7.462-18.547-21.503-25.127-28.464l-1.239-1.335-.668.811c-.357.429-1.144 1.382-1.764 2.074-1.478 1.668-1.597 2.384-.786 4.648.357.954 1.215 3.433 1.907 5.459.691 2.027 1.907 5.412 2.693 7.51.811 2.098 1.979 5.387 2.623 7.27.667 1.908 1.74 4.959 2.431 6.795 1.216 3.289 3.338 9.416 3.266 9.416-.31 0-17.831 1.454-18.809 1.574-.763.071-1.382.047-1.382-.048z"/><path d="m1816.244 4166.428c0-.119 3.433-6.151 4.768-8.367.643-1.049 1.788-3.028 2.574-4.411 1.288-2.312 5.316-9.249 8.821-15.233.81-1.359 1.549-2.551 1.645-2.622.095-.072.214-.31.262-.501.095-.429 3.6-6.389 3.862-6.556.095-.071.739.883 1.43 2.098 1.669 2.909 5.96 10.299 8.821 15.186 1.287 2.169 2.503 4.314 2.741 4.768.238.453 1.407 2.502 2.622 4.529 1.192 2.026 3.171 5.388 4.363 7.462l2.145 3.742h-22.027c-12.11 0-22.027-.047-22.027-.095z"/><path d="m1861.109 4165.999c.191-.31 1.621-2.742 3.171-5.436 1.525-2.693 2.884-4.982 2.98-5.125.166-.214 2.026-3.433 7.795-13.469 1.239-2.169 2.36-4.029 2.455-4.172.096-.119.406-.62.668-1.072 3.79-6.795 4.648-8.13 4.934-7.82.167.167 1.097 1.669 2.051 3.338.977 1.669 2.908 5.006 4.291 7.39 1.382 2.408 3.695 6.412 5.149 8.892 1.454 2.503 4.005 6.89 5.674 9.774 1.668 2.885 3.409 5.864 3.838 6.627.453.763.81 1.43.81 1.502 0 .048-9.941.095-22.075.095h-22.075z"/><path d="m1838.748 4127.522c.071-.19 1.287-2.312 2.694-4.696 1.382-2.384 3.409-5.84 4.482-7.676 1.072-1.836 2.813-4.839 3.862-6.675 1.048-1.835 3.194-5.53 4.767-8.224 1.574-2.694 3.528-6.079 4.387-7.557.834-1.478 1.597-2.67 1.668-2.694.072 0 .549.787 1.049 1.74.501.93 1.478 2.67 2.193 3.814.692 1.145 1.765 2.98 2.361 4.053.619 1.073 1.978 3.457 3.075 5.292 1.073 1.836 3.147 5.388 4.577 7.867 1.454 2.504 3.862 6.628 5.34 9.178 1.502 2.551 2.837 4.935 3.004 5.293l.286.667h-21.956c-19.882 0-21.932-.024-21.789-.382z"/></g></svg>