<svg height="298" viewBox="0 0 614 298" width="614" xmlns="http://www.w3.org/2000/svg"><path d="m85 0 27 30v37h-38v-27h-33v45h10v38h-23l-28-29v-63l28-31zm84 0v177h12v39h-22l-31-31v-185zm36 0h41v185l-31 31h-22v-39h12zm98 0v216h-41v-216zm40 0 32 30v82l-30 30h-30v-40h18v-62h-18v-40zm139 0v40h-50v136h50v40h-91v-216zm57 0v216h-41v-216zm43 0 32 31v51l-25 26 25 26v82h-42v-87h-21v-40h21v-49h-21v-40zm-108 82v40h-30v-40zm-392 3 30 30v68l-28 33h-57l-27-30v-37h38v27h32v-53h-7v-38zm86 152v12h-64v37h50v-12h-24v-12h38v36h-70c-4.418278 0-8-3.581722-8-8v-45c0-4.418278 3.581722-8 8-8zm90 8v21c0 4.418278-3.581722 8-8 8h-12l21 24h-16l-21-24h-25v24h-14v-61h67c4.418278 0 8 3.581722 8 8zm-14 4h-47v13h47zm80-12 30 61h-16l-24-49h-7l-24 49h-16l31-61zm110 0v12h-57v12h50v12h-50v25h-14v-61zm29 0 20 20 20-20h20l-29 29 31 32h-20l-22-20-22 20h-20l31-32-29-29z" fill="#fff"/></svg>