<svg height="190" viewBox="0 0 300 190" width="300" xmlns="http://www.w3.org/2000/svg"><path d="m52.7334911 111.393524-.0001895.003157c2.0207172-.541452 4.055084-.819459 6.0582331-.862376l.0144889-.003883c.4777831.00967.9291359.164114 1.2336967.48937.3043019.324291.4543195.748933.5979646 1.285022l3.6102801 13.473702c.1206102.450122.2798558.673518.4457835.775032.1659277.101513.4425208.148527.9708823.006953l13.4321669-3.599151c.5650668-.15141.998666-.244817 1.436232-.14569.4368589.100352.7687937.42345 1.0165272.845721l.0036234.013523c.9666011 1.756683 1.7393521 3.655377 2.28158 5.678992.5000403 1.866169.7865551 3.742965.8587308 5.596441l.004554.013523c.0045585.441628-.0526497.919726-.3238367 1.352667-.2714457.431975-.7519256.752246-1.4473923.938596l-13.4456899 3.602774c-.470406.126046-.685021.302609-.7919141.494824-.1056683.192923-.1412116.47369-.0301778.888072l3.6102802 13.473702c.1620213.604669.1679315 1.129006.0153318 1.560195-.1516338.430929-.4539485.743837-.7902194.941609l-.013523.003624c-1.7337783.943899-3.6123963 1.698847-5.6022039 2.232017-2.0139557.539639-4.0420601.829427-6.0398619.872982l-.0183712-.010607-.0280119.007506c-.3228881-.030468-.7228845-.116886-1.0609566-.40107-.3378133-.283217-.5845487-.732672-.7569228-1.375979l-3.6066567-13.460179c-.1376922-.513873-.3119444-.735318-.474318-.827432-.1621147-.091147-.4159367-.111134-.8486715.004817l-13.5287596 3.625033c-.5901808.158139-1.0832749.21883-1.5316606.067732-.4496105-.151804-.7696124-.51537-1.0153632-.94956l-.013523.003624c-.9216458-1.708683-1.6542712-3.558083-2.1781229-5.513117-.5453337-2.035206-.8306203-4.069693-.8696228-6.085279l.0057583-.032602-.0033646-.012557c.0395255-.505453.220724-.938093.551416-1.222369.3312096-.282344.7400179-.421908 1.2229809-.551318l13.5432484-3.628915c.5409186-.144939.6974393-.314218.7677845-.472829.0707936-.160802.0727003-.451191-.0432511-.883926l-3.6102802-13.473701c-.1490803-.556374-.1803769-1.032497-.0483899-1.463339.1317976-.427685.4219664-.770467.7863321-1.014073l.0415348-.011129c1.7375727-.949057 3.6162414-1.715407 5.6118446-2.250129zm.2388908.89155c-1.9096357.511687-3.7097041 1.235235-5.3735754 2.138662-.006951.004968-.0017238.012885-.0098995.017146-.2333143.160868-.3575298.303891-.417074.498949-.0615961.202854-.0617604.495882.0606615.952765l3.6102802 13.473701c.1358805.507112.2134772 1.024664.0015449 1.504879-.2126393.48144-.6944133.796882-1.3773229.979867l-13.5432485 3.628915c-.4462578.119575-.7242686.233409-.8598535.349455-.137258.11753-.1999824.2389-.2278947.598373l-.013523.003624c.0409616 1.930168.3230493 3.875443.8453481 5.824682.5049578 1.884521 1.2193964 3.662184 2.1072112 5.306427.1870087.330873.3244763.442083.5079429.504733.1844326.062392.4871886.06409.9942998-.07179l13.5297254-3.625292c.548646-.14701 1.0882991-.165306 1.5455083.092131.4562433.257696.7350994.742026.9064383 1.381469l3.6069155 13.461145c.1420922.530293.3157945.776733.4653894.902293.1441783.120801.2984405.163323.5263719.187142.0085039.000827.0093497.007847.0168877.008933 1.9114183-.045255 3.8370466-.327254 5.7650349-.843859 1.9106016-.511946 3.7104112-1.23646 5.3730578-2.140594.1926625-.11167.3266252-.237634.4014161-.449201.0757568-.211825.0942365-.540818-.0336206-1.017986l-3.610539-13.474668c-.1488215-.555407-.1400719-1.102307.1167785-1.565571.2556256-.46397.7345017-.778635 1.3555921-.945056l13.4466559-3.603034c.5496119-.147268.7834067-.337253.9126362-.5427.1254352-.20029.1656879-.475072.1641731-.832835-.0709449-1.78655-.3384457-3.600112-.8206274-5.399632-.5215223-1.946341-1.2666167-3.77273-2.1937807-5.463369-.0020012-.003605-.0023294-.008694-.0033646-.012557-.179503-.302861-.2731707-.362656-.4194974-.394882-.150001-.034347-.4651567-.008912-.9925523.132404l-13.4331329 3.59941c-.6558638.175739-1.2393997.180947-1.6950238-.097621s-.6997762-.776338-.8501507-1.337541l-3.6102804-13.473702c-.127598-.476201-.2626312-.759919-.3885956-.893882-.1232561-.131582-.2461604-.184578-.5580072-.193158-.0050885 0-.0103664.003813-.0144889.003882-1.9248212.041599-3.8703736.307197-5.8138167.827943zm4.5564824 17.006377c3.65603-.97963 7.4304352 1.198707 8.4100651 4.854737.97963 3.65603-1.1987079 7.430436-4.8557037 8.410324-3.6560299.97963-7.4294693-1.198966-8.409358-4.855962-.9796299-3.65603 1.1989667-7.42947 4.8549966-8.409099zm.2381135.888651c-3.1749987.850739-5.0544891 4.106111-4.2034923 7.282075.8507381 3.174999 4.1061103 5.05449 7.2811091 4.203752 3.1749987-.850739 5.0554551-4.10637 4.204717-7.281368-.8509969-3.175965-4.107335-5.055197-7.2823338-4.204459zm35.3297746-89.5090943c-.1811173.071555-.4294539.173462-.744115.2995101-.6741741.2696789-1.6494719.6635255-2.8654375 1.1560232-2.433156.9842883-5.8567872 2.3830545-9.9569727 4.0542079-8.2015956 3.3415995-19.0807401 7.7754189-29.9431171 12.2254509-10.8623771 4.4500321-21.7191987 8.9130694-29.8974363 12.2877507-4.0894723 1.687953-7.4996313 3.0944974-9.91491514 4.1029846-1.20654659.5044678-2.15843549.9199945-2.82196584 1.2023505-.33041101.142368-.59979782.2497497-.77652509.3281621-.08884659.0393356-.15347569.0763232-.19751075.0974399-.01467836.0070389-.01887024.0029857-.02704593.007247-1.62437186 1.2903893-2.42405692 3.4716911-1.85154708 5.6083194l26.11778503 97.472559c.7705071 2.875561 3.7057056 4.568562 6.5783696 3.798832l255.4603814-68.450643c2.870732-.769213 4.579895-3.709778 3.810682-6.58051l-26.117526-97.4715924c-.546628-2.04003571-2.205978-3.49204-4.140272-3.88375402-.004122.00006936-.017594-.0060723-.032601-.0060723-.003415 0-.008434.00360925-.012557.0036786-.047987.00250528-.124124.00427129-.219769.0143703-.193033.01755906-.47971.04882202-.840195.09054432-.719038.08292697-1.750297.22156105-3.056193.38616157-2.609602.32964934-6.30045.79683316-10.703021 1.37811239-8.806623 1.16088543-20.479647 2.72851134-32.153687 4.30779774-11.675972 1.5798041-23.351925 3.1751323-32.163771 4.386075-4.407501.6053766-8.104348 1.1197199-10.719639 1.4860931-1.307292.1825742-2.34833.3310756-3.073076.4352021-.250366.0370518-.457133.0653846-.626939.0895068l8.353475 31.1756041c5.851639 21.8386209-7.119722 44.3084998-28.960274 50.1606567-21.838621 5.851638-44.293563-7.1257949-50.145202-28.9644159zm78.8732356-22.0629712c.190163-.0312542.43307-.0757582.737796-.1201102.727384-.105869 1.764817-.2523692 3.072109-.4349434 2.617223-.3668907 6.317694-.8677111 10.724229-1.4728289 8.812812-1.2112015 20.488506-2.8074957 32.165703-4.3865926 11.676231-1.5788381 23.344165-3.14613587 32.151496-4.30824605 4.403795-.58057212 8.084966-1.06069191 10.701588-1.39118706 1.305896-.16460053 2.344383-.29171285 3.075271-.37677973.363383-.04249876.648576-.07543475.853459-.09513373.102925-.00997889.181632-.01760982.247781-.02221483.032722 0 .075241.00295408.105065.00220979.029823-.00220979.033618-.00590211.12221.01177051 2.300358.43649537 4.271145 2.14669136 4.916383 4.5547449l26.117268 97.4706268c.898105 3.351763-1.11113 6.810654-4.462893 7.708759l-255.4594151 68.450385c-3.3517633.898105-6.8062541-1.094709-7.7051359-4.44937l-26.11726743-97.470627c-.67189672-2.5075439.27199072-5.0856905 2.19685702-6.5953244.0684742-.0535471.08098048-.0455101.10454163-.058035.02285405-.0113001.03753241-.018339.06495727-.0318992.05678157-.0276379.13307113-.0636089.22552261-.1049457.18490296-.0826736.43933399-.1995065.77483346-.3422027.66591048-.2850643 1.63037502-.6884315 2.83911229-1.192451 2.41766395-1.0111955 5.83534235-2.432178 9.92481465-4.120131 8.1799106-3.3761649 19.0374579-7.8249028 29.9008009-12.2751937 10.8614111-4.4497732 21.7369321-8.8971155 29.9382689-12.239681 4.1033421-1.6709639 7.5388232-3.07187 9.9717204-4.0571242 1.2169316-.4927566 2.1748427-.8819444 2.8509487-1.1521409.3385359-.1352277.6105803-.2288276.7978126-.3028079.0184804-.0073825.036342-.0145596.0535421-.0214888l-.8294199-3.0954383c-.1304448-.4868267-.1593472-1.0081085.0204511-1.4807486s.6035561-.8770983 1.1840777-1.0326485l-.0004483.0021907 75.5585953-20.2458575c.595976-.1596913 1.160583-.0500874 1.563945.2652601.402655.3165723.642457.78652.779114 1.2965289zm-78.4968809 16.4587854.0012247.0007071c-.33904.0908455-.4763302.235301-.5634703.4625995-.0859154.2280056-.0849889.5714692.0089624.9221003l9.4261881 35.179025c5.722747 21.3575897 27.658138 34.0342432 49.016693 28.3112379 21.35759-5.7227469 34.031587-27.6719196 28.308581-49.0304754l-9.426188-35.1790249c-.104304-.3892682-.278441-.6759673-.456912-.8165665-.179437-.1403403-.371079-.1987292-.756483-.0954605zm-64.5975155 44.1335599-.0040532.0041919 53.6040634-14.3631604c1.9801483-.5305789 3.6484043-.1928472 4.901274.8162715 1.2511966 1.0106022 2.0765661 2.6343075 2.6162038 4.6482632l1.0955808 4.0887648c7.3778944 27.5346862 35.6671056 43.8560422 63.2027576 36.4778892 27.534687-7.377894 43.873189-35.6572057 36.495036-63.1928582l-1.095322-4.0877988c-.508839-1.8990106-.443832-3.7737146.269059-5.3323332.714823-1.5591362 2.097007-2.7835942 4.090678-3.3177966l51.349593-13.7590768c3.351763-.898102 6.807027 1.0976128 7.70487 4.4484101l13.979591 52.172561c.24769.9243912.359211.9928605.657869 1.2844995.002967.003346-.000568.0094697.003624.0135229 3.029415 2.751692 5.329079 6.3770261 6.466589 10.6222709 3.157333 11.7833312-3.840646 23.9055982-15.623978 27.0629312l-171.7802795 46.028371c-2.6080002.698811-5.2953496-.853547-5.993902-3.460581-.3457822-1.290478-.1392343-2.609894.4713594-3.688687l.0205061-.035517.5847998-1.155738.0168826-.049041.0340291-.039141c5.7216917-7.025263 8.1000522-16.602154 5.5752728-26.024762-4.1765622-15.587148-20.18617-24.829484-35.7723519-20.653181-4.9919056 1.337577-9.3224808 3.891432-12.7809941 7.254143-.0030872.003933-.0101769.000656-.0135229.003623-.6661854.701319-2.0285582 1.632661-3.5865759 1.69089-.7810701.029149-1.60901-.190033-2.3172929-.8088-.7085417-.619733-1.2931279-1.599827-1.6821329-3.051614l-6.9376433-25.8916464c-.8978431-3.3507973 1.096647-6.8067688 4.4484102-7.7048708zm.2386311.8905838.0020012.0036049c-2.871698.7694689-4.5666335 3.7051827-3.7947872 6.5741731l6.9371257 25.8897144c.3571702 1.332978.8653989 2.128547 1.3944851 2.592416.5297933.462644 1.0871067.614577 1.679576.592482 1.183714-.044897 2.4697142-.901942 2.9585259-1.419076l.013523-.003624c3.5675006-3.4737 8.054879-6.12237 13.2051964-7.502393 16.0672131-4.305196 32.5961128 5.236955 36.9015669 21.305134 2.5990604 9.699828.146071 19.570029-5.7366565 26.813403-.0088135.009608-.0122103.023977-.020765.034551l-.5399052 1.099192.0036235.013523-.0098995.017147c-.5085994.883748-.6844657 1.950618-.399506 3.014103.5696606 2.126003 2.73965 3.378031 4.8656531 2.80837l171.7793139-46.028112c11.303266-3.0287 18.002139-14.6329 14.973698-25.9352001-1.092216-4.0762078-3.29372-7.5477057-6.201641-10.1859783l-.003623-.0135229-.013523.0036234c-.312976-.3064374-.634429-.6986021-.909036-1.7234496l-13.979332-52.1715951c-.76921-2.870732-3.70589-4.5654087-6.575656-3.7964574l-51.35249 13.7598533c-1.761849.4720858-2.893716 1.4793564-3.499062 2.7979622-.603605 1.3212447-.674787 2.9874424-.210206 4.7212796l1.095322 4.0877988c7.507045 28.0166837-9.130305 56.8150281-37.146023 64.3218141-28.015717 7.506786-56.8229954-9.113676-64.3300405-37.1303593l-1.0955808-4.0887647c-.5101323-1.9038402-1.2731314-3.3527315-2.2976251-4.1818239-1.0254597-.8288336-2.3148175-1.1086582-4.0901895-.6329489zm190.7095513 10.6446627c7.387402-1.9794477 14.984703 2.4191046 16.963185 9.8067657 1.979707 7.388368-2.400733 14.99531-9.78717 16.974499-7.389333 1.979965-14.999451-2.416189-16.978639-9.802625-1.979966-7.389334 2.414256-14.9989331 9.802624-16.9786397zm.238372.8896179c-6.907337 1.8508147-11.001934 8.9442788-9.151379 15.8506498 1.850556 6.906371 8.943313 11.002193 15.85065 9.151379 6.906371-1.850556 10.987446-8.940397 9.13689-15.846768-1.850556-6.9063706-8.92979-11.0058167-15.836161-9.1552608zm.308699 1.1522837c6.260166-1.677406 12.708707 2.0464783 14.386113 8.3066451 1.677147 6.2592-2.045512 12.708448-8.305679 14.385854-6.260166 1.677406-12.708707-2.046478-14.385854-8.305678-1.677406-6.260167 2.045253-12.7094152 8.30542-14.3868211zm.238372.8896178c-5.779135 1.5485141-9.202947 7.4787293-7.654433 13.2578643 1.548514 5.779136 7.478729 9.202948 13.257864 7.654434 5.77817-1.548256 9.201982-7.478471 7.653468-13.257606-1.548773-5.7801014-7.47873-9.2029475-13.256899-7.6546923zm-1.712696-6.3938056 31.188785-8.357039c9.302833-2.4926954 18.875706 3.035011 21.368143 12.3368784 2.492954 9.3037995-3.033786 18.8764135-12.33662 21.3691095l-31.188784 8.357039c-9.302833 2.492695-18.875448-3.034045-21.368402-12.337844-2.492437-9.3018678 3.034045-18.8754485 12.336878-21.3681439zm.238373.8896179c-8.821802 2.363803-14.04873 11.4171255-11.685634 20.240152 2.36458 8.8247 11.418351 14.049437 20.240153 11.685634l31.188784-8.357039c8.823734-2.364321 14.049955-11.416418 11.685634-20.2401523-2.364062-8.822768-11.417384-14.0496956-20.240152-11.6856337zm31.874918-5.7840656c7.387402-1.9794477 14.985669 2.4188458 16.965117 9.8062478 1.979706 7.388368-2.400734 14.9953098-9.789102 16.9750168-7.387402 1.979447-14.999451-2.416189-16.97864-9.8026246-1.979706-7.388368 2.416189-14.9994511 9.802625-16.97864zm.238372.8896179c-6.906371 1.8505558-11.000969 8.94402-9.150413 15.8503909 1.850556 6.9063708 8.943313 11.0021938 15.849684 9.1516378 6.907337-1.850815 10.987446-8.9403968 9.13689-15.8467677s-8.928824-11.0060757-15.836161-9.155261zm.309674 1.1523168c6.261132-1.6776712 12.710903 2.0469149 14.388057 8.3061154 1.677413 6.2601664-2.046208 12.7096785-8.30734 14.3873505-6.260166 1.677412-12.708713-2.046467-14.386125-8.3066334-1.677154-6.2592005 2.045241-12.7094201 8.305408-14.3868325zm.238632.8905838c-5.778169 1.5482612-9.202943 7.4787402-7.654423 13.2578754 1.548521 5.7791357 7.479448 9.2017177 13.257617 7.6534567 5.779135-1.54852 9.204167-7.4780332 7.655647-13.2571685-1.548779-5.7801012-7.479706-9.2026837-13.258841-7.6541636zm-117.433936 38.0505531 11.596908-3.107381c2.292142-.614177 4.661007.765735 5.275444 3.058843.613659 2.290211-.751247 4.657125-3.043389 5.271303l-11.596908 3.107381c-2.291176.613919-4.657125-.751246-5.271302-3.043389-.614436-2.293108.748071-4.672838 3.039247-5.286757zm.238632.890584c-1.811112.485285-2.873547 2.34669-2.388261 4.157801.485285 1.811111 2.331942 2.876463 4.143053 2.391177l11.596908-3.107381c1.811111-.485285 2.877687-2.331235 2.392402-4.142346-.485545-1.812077-2.336084-2.891918-4.147195-2.406632zm-.859575-3.207727 11.596907-3.107381c3.57779-.958666 7.275554 1.177056 8.233961 4.75388s-1.179714 7.261772-4.757504 8.220438l-11.596907 3.107381c-3.576824.958407-7.257442-1.167416-8.215849-4.74424-.958406-3.576824 1.162568-7.271671 4.739392-8.230078zm.238631.890584c-3.095793.829515-4.916954 4.00507-4.087439 7.100863s3.989875 4.922061 7.086634 4.092287l11.596907-3.107381c3.095793-.829515 4.935066-3.99543 4.105551-7.091223-.829515-3.095792-4.008953-4.931442-7.104745-4.101927zm32.47343-7.172452 11.596907-3.107393c2.292143-.61418 4.661009.765731 5.275448 3.058839.613662 2.290211-.751242 4.657127-3.043384 5.271307l-11.596908 3.107393c-2.291176.613921-4.657127-.751242-5.271307-3.043384-.614438-2.293109.747101-4.672582 3.039244-5.286762zm.238632.890584c-1.811112.485287-2.873545 2.346693-2.388258 4.157804.485288 1.811112 2.331946 2.876462 4.143057 2.391174l11.596908-3.107393c1.811111-.485287 2.877686-2.331238 2.392398-4.14235-.485287-1.811111-2.337053-2.891657-4.147198-2.406628zm-.859093-3.207606 11.596907-3.107393c3.57779-.958669 7.261068 1.180932 8.219479 4.757756.95841 3.576824-1.165218 7.257893-4.743008 8.216562l-11.596908 3.107393c-3.57779.958669-7.271933-1.163527-8.230344-4.740351-.95841-3.576824 1.176084-7.275298 4.753874-8.233967zm.238632.890584c-3.096759.829777-4.93144 4.008958-4.101922 7.104751s4.004369 4.918176 7.101128 4.088399l11.596908-3.107393c3.097724-.830036 4.920574-3.991553 4.091056-7.087346s-3.992538-4.93584-7.090263-4.105804zm-116.2713492-12.887392c19.5863403-5.2471067 39.7275306 6.382234 44.9770177 25.965866 3.0261118 11.293607.4401856 22.792717-6.0492744 31.488619l-.9120269 1.213396-.2724864.370136-.3711027-.272227-2.4403139-1.820431-.3713615-.273193.2722276-.371103.9117681-1.214361c5.7928839-7.767997 8.1096429-18.007523 5.4075032-28.095913-2.3433473-8.745494-8.0038822-15.691107-15.2686213-19.887857-7.2668603-4.193075-16.1092888-5.607689-24.8550416-3.265308-5.5820864 1.495715-10.4302307 4.328015-14.3020846 8.07997l-1.0859966 1.066413-.3336221.311979-.3262082-.328774-2.1180798-2.17491-.312944-.333363.329481-.327433 1.0898788-1.051925c4.3391614-4.206387 9.786576-7.406316 16.0312876-9.079581zm.2383723.889618c-6.0911294 1.632113-11.400403 4.752581-15.6314736 8.852359l-.7555496.738722 1.4822922 1.525329.7545836-.738463c3.9823943-3.857148 8.9645385-6.784364 14.701173-8.32149 8.9853025-2.406569 18.0819689-.947232 25.5509122 3.362515 7.4675291 4.312198 13.2932065 11.456851 15.7022244 20.443568 2.7759031 10.363679.3988148 20.895789-5.5553638 28.880931l-.6390923.841068 1.6975908 1.274043.6390923-.841068c6.3259745-8.479205 8.8529855-19.688181 5.9016724-30.702635-5.1198881-19.103826-24.7427525-30.433094-43.8480616-25.314879zm2.694835 10.054865-.0009659.000259c2.0207172-.54145 4.0550837-.819455 6.0582324-.86237 9.4170809-.200139 18.2249986 4.887566 22.7625929 13.140359.9649261 1.758167 1.7393481 3.655378 2.2813151 5.678027.5002972 1.867135.7848782 3.744448.8580181 5.597665.3799083 9.620484-4.7742355 18.675-13.2120886 23.271499-1.7340376.942931-3.6126559 1.697877-5.6024635 2.231044-2.0149216.539897-4.0427669.830649-6.0408271.873236-9.4885087.207889-18.3714318-4.954963-22.8822304-13.316393-.9213851-1.707717-1.6540085-3.557118-2.1778582-5.512152-.5453316-2.035206-.8306161-4.069693-.8698755-6.086244-.1837869-9.425603 4.9323081-18.24734 13.2140466-22.765773 1.737832-.948089 3.6155351-1.714178 5.6121041-2.249157zm.2386311.890583c-1.9248317.516793-3.7363527 1.25169-5.4119357 2.1655-7.9791177 4.353488-12.9125896 12.856084-12.7348176 21.938552.0380111 1.942346.3165106 3.905146.8424308 5.867908.5052147 1.885488 1.2196514 3.663151 2.1074644 5.307394 4.3453365 8.056877 12.9115684 13.03852 22.0545616 12.839354 1.9235959-.042304 3.8667494-.320716 5.8101925-.841459 1.918329-.514015 3.7305064-1.238735 5.4001044-2.147836 8.1306615-4.429294 13.0909192-13.156475 12.7244436-22.425458-.0708055-1.78655-.3380457-3.599146-.8204843-5.399632-.5225556-1.950205-1.267528-3.783873-2.1983643-5.476634-4.3709769-7.951656-12.8737251-12.850923-21.9452905-12.659508-1.9299092.041926-3.8797733.310747-5.8283049.831819z" fill="#1e1e1e"/></svg>