<svg xmlns="http://www.w3.org/2000/svg"><g fill="#1e1e1e"><path d="m383.878 96.869c-2.166.124-4.334.666-6.403 1.683-15.345 7.545-28.291 16.801-38.846 27.641-10.564 10.827-18.681 23.194-24.602 36.561-3.739 8.427.068 18.303 8.497 22.042 2.2.977 4.51 1.451 6.773 1.451 6.405.001 12.507-3.706 15.27-9.933 4.484-10.086 10.295-18.896 17.98-26.792 7.69-7.885 17.322-14.904 29.678-20.99 8.273-4.07 11.68-14.083 7.608-22.358-3.053-6.206-9.455-9.675-15.955-9.305zm.055.862c6.158-.354 12.223 2.939 15.119 8.826 3.863 7.849.625 17.332-7.224 21.195-12.433 6.124-22.132 13.193-29.898 21.154-7.757 7.971-13.635 16.882-18.158 27.051-2.621 5.908-8.408 9.415-14.476 9.414-2.144 0-4.33-.442-6.417-1.368-7.996-3.548-11.593-12.898-8.045-20.894 5.883-13.278 13.936-25.552 24.424-36.302 10.48-10.761 23.334-19.956 38.6-27.461 1.962-.966 4.023-1.497 6.075-1.615z" transform="matrix(.965926 -.258819 .258819 .965926 -24.467523 97.239777)"/><path d="m337.778 164.193c-6.348 0-11.508 5.146-11.508 11.494 0 6.347 5.16 11.507 11.508 11.507s11.493-5.16 11.493-11.507c.001-6.349-5.145-11.494-11.493-11.494zm0 .874c5.874 0 10.618 4.744 10.618 10.619 0 5.874-4.744 10.631-10.618 10.631s-10.632-4.757-10.632-10.631c0-5.875 4.758-10.619 10.632-10.619z" transform="matrix(.965926 -.258819 .258819 .965926 -33.963566 93.408022)"/><path d="m346.009 137.707c-6.348 0-11.508 5.159-11.508 11.506 0 6.349 5.16 11.494 11.508 11.494s11.494-5.145 11.494-11.494c0-6.348-5.147-11.506-11.494-11.506zm0 .874c5.874 0 10.618 4.758 10.618 10.632s-4.744 10.618-10.618 10.618-10.632-4.744-10.632-10.618 4.758-10.632 10.632-10.632z" transform="matrix(.965926 -.258819 .258819 .965926 -26.827876 94.635984)"/><path d="m359.084 114.017c-6.348 0-11.508 5.16-11.508 11.506 0 6.348 5.16 11.508 11.508 11.508s11.493-5.16 11.493-11.508c0-6.347-5.145-11.506-11.493-11.506zm0 .874c5.874 0 10.618 4.758 10.618 10.632 0 5.875-4.744 10.632-10.618 10.632s-10.632-4.757-10.632-10.632c0-5.874 4.758-10.632 10.632-10.632z" transform="matrix(.965926 -.258819 .258819 .965926 -20.252768 97.212925)"/><path d="m377.243 95.193c-6.348 0-11.494 5.161-11.494 11.508 0 6.348 5.146 11.494 11.494 11.494s11.507-5.146 11.507-11.494-5.16-11.508-11.507-11.508zm0 .876c5.874 0 10.631 4.757 10.631 10.632 0 5.874-4.757 10.618-10.631 10.618-5.875 0-10.618-4.744-10.618-10.618 0-5.875 4.743-10.632 10.618-10.632z" transform="matrix(.965926 -.258819 .258819 .965926 -14.759972 101.274838)"/><path d="m257.013 135.897c-19.217 0-34.809 15.593-34.809 34.81 0 19.218 15.592 34.796 34.809 34.796s34.796-15.58 34.796-34.796c0-19.217-15.579-34.81-34.796-34.81zm0 .877c18.744 0 33.92 15.19 33.92 33.933 0 18.745-15.176 33.921-33.92 33.921-18.743 0-33.934-15.176-33.934-33.921 0-18.743 15.191-33.933 33.934-33.933z" transform="matrix(.965926 -.258819 .258819 .965926 -35.423138 72.334653)"/><path d="m257.013 153.699c-9.383 0-17.008 7.626-17.008 17.008 0 9.383 7.625 16.995 17.008 16.995s16.994-7.612 16.994-16.995c0-9.384-7.611-17.008-16.994-17.008zm0 .876c8.91 0 16.119 7.222 16.119 16.132 0 8.911-7.209 16.119-16.119 16.119s-16.132-7.208-16.132-16.119c0-8.91 7.223-16.132 16.132-16.132z" transform="matrix(.965926 -.258819 .258819 .965926 -35.423269 72.334507)"/><path d="m281.958 112.556c-2.179-.292-4.195 1.241-4.487 3.421-.293 2.18 1.254 4.195 3.434 4.489l10.002 1.354c2.18.293 4.195-1.255 4.488-3.434.293-2.18-1.254-4.195-3.434-4.489zm-.109.876 10.002 1.34c1.711.231 2.898 1.792 2.668 3.504-.23 1.71-1.792 2.898-3.503 2.669l-10.002-1.342c-1.711-.229-2.898-1.791-2.668-3.502.23-1.712 1.792-2.899 3.503-2.669z" transform="matrix(.965926 -.258819 .258819 .965926 -20.570508 78.127368)"/><path d="m324.095 103.662-10.003 1.341c-2.179.293-3.714 2.308-3.42 4.488.292 2.179 2.308 3.727 4.487 3.434l10.003-1.355c2.179-.293 3.713-2.308 3.421-4.487-.294-2.181-2.309-3.714-4.488-3.421zm.122.875c1.711-.229 3.274.958 3.503 2.669.23 1.71-.957 3.273-2.668 3.503l-10.016 1.34c-1.71.23-3.273-.957-3.503-2.668-.231-1.711.971-3.273 2.682-3.503z" transform="matrix(.965926 -.258819 .258819 .965926 -17.137345 86.415611)"/><path d="m191.728 92.285c-1.936 0-3.516 1.58-3.516 3.516v168.398c0 1.938 1.58 3.517 3.516 3.517h256.544c1.936 0 3.516-1.579 3.516-3.517v-168.398c0-1.936-1.579-3.517-3.516-3.517h-256.544zm0 .876h256.544c1.463 0 2.64 1.177 2.64 2.64v168.398c0 1.464-1.177 2.641-2.64 2.641h-256.544c-1.463 0-2.64-1.177-2.64-2.641v-168.398c0-1.463 1.177-2.64 2.64-2.64z" transform="matrix(.965926 -.258819 .258819 .965926 -35.683683 88.955419)"/><path d="m177.896 95.165-.055.876s22.973 1.376 48.001 2.75c25.027 1.374 52.092 2.75 60.41 2.75h23.741c8.648 0 35.724-1.376 60.67-2.75s47.741-2.75 47.741-2.75l-.055-.876s-22.798 1.377-47.741 2.75c-24.943 1.374-52.061 2.751-60.616 2.751h-23.74c-8.222 0-35.344-1.377-60.37-2.751-25.024-1.374-47.986-2.75-47.986-2.75z" transform="matrix(.965926 -.258819 .258819 .965926 -15.297346 80.510981)"/></g></svg>