<svg xmlns="http://www.w3.org/2000/svg"><g fill="#fff"><path d="m0 313.731c0-.855 1.282-1.816 2.885-2.244 5.77-1.389 5.664-1.068 5.664-28.317v-25.539l-2.779-2.137c-1.603-1.282-3.526-2.244-4.274-2.244-.855 0-1.496-.427-1.496-1.068s4.702-1.069 12.075-.962h11.968l14.425 18.059 14.426 18.165.321-14.105c.32-15.708-.642-18.593-6.198-19.768-6.625-1.282-2.778-2.458 8.014-2.458 10.793 0 14.64 1.282 8.549 2.778-5.664 1.39-5.877 2.885-5.877 33.233 0 22.974-.214 28.103-1.496 28.103-.748 0-9.724-10.151-19.983-22.654-10.258-12.502-19.448-23.615-20.409-24.897-1.817-2.03-1.817-1.069-1.924 18.914 0 23.081.214 23.829 6.519 25.111 1.709.32 3.098 1.282 3.098 2.03 0 1.175-2.457 1.496-11.754 1.496-9.296 0-11.754-.321-11.754-1.496z"/><path d="m68.388 313.624c0-.961.962-1.603 2.458-1.603 1.389 0 3.419-.641 4.595-1.496 1.923-1.496 2.03-2.992 2.03-27.889 0-24.898-.107-26.394-2.03-27.89-1.176-.855-3.206-1.496-4.595-1.496s-2.458-.427-2.458-1.068 9.831-1.069 27.249-1.069h27.248v9.617c0 7.587-.32 9.617-1.496 9.617-.855 0-1.816-1.389-2.244-3.205-1.71-7.694-8.228-11.755-18.7-11.755h-6.411v11.755 11.754h2.671c3.847 0 7.801-4.381 8.656-9.51.427-2.672 1.282-4.382 2.137-4.382 1.175 0 1.496 3.313 1.496 17.098 0 13.784-.321 17.097-1.496 17.097-.855 0-1.71-1.71-2.137-4.382-.748-5.022-5.557-10.578-9.083-10.578-2.137 0-2.244.534-2.244 11.54 0 7.587.427 11.968 1.282 12.823 1.71 1.71 12.93 1.603 17.204-.214 4.061-1.603 10.045-8.121 11.006-11.861.641-2.671 3.633-3.847 3.633-1.389 0 1.282-1.923 13.678-2.778 17.738l-.427 2.351h-27.783c-23.936 0-27.783-.214-27.783-1.603z"/><path d="m155.69 313.731c-16.67-6.198-24.791-24.043-19.341-42.315 2.244-7.587 11.434-16.99 19.021-19.555 6.732-2.351 19.982-2.351 26.607-.107 6.518 2.244 14.105 8.976 17.631 15.815 3.74 7.266 4.061 20.944.534 28.531-2.885 6.411-9.189 13.357-14.639 16.242-5.556 2.885-23.508 3.74-29.813 1.389zm20.196-4.808c1.817-1.069 4.381-4.275 5.877-7.16 2.244-4.702 2.565-6.625 2.565-19.127s-.214-14.426-2.565-19.021c-6.091-12.395-19.768-12.395-25.966.107-2.137 4.488-2.458 6.518-2.458 18.914 0 12.502.214 14.425 2.565 19.02 4.274 8.656 12.609 11.755 19.982 7.267z"/><path d="m255.281 313.838c-19.342-7.159-27.676-27.569-18.7-45.414 3.419-6.732 12.074-14.533 18.486-16.67 7.159-2.457 20.837-2.244 28.744.428l6.305 2.244 1.816-2.244c3.313-4.168 4.061-2.565 4.061 9.082 0 12.61-1.389 14.533-4.809 6.946-4.06-8.976-13.57-14.639-22.653-13.571-12.075 1.283-18.486 13.571-17.097 32.912 1.175 17.845 9.937 25.753 25.218 22.761l3.312-.641v-8.335c0-8.869-1.496-11.755-6.197-11.755-1.283 0-2.351-.427-2.351-1.068s6.091-1.069 16.028-1.069c8.869 0 16.029.321 16.029.855 0 .428-1.603 1.496-3.526 2.351l-3.42 1.603-.32 9.19-.321 9.189-5.557 1.924c-7.266 2.564-29.492 3.312-35.048 1.282z"/><path d="m304.541 313.624c0-.961.962-1.603 2.458-1.603 1.389 0 3.42-.641 4.595-1.496 1.923-1.496 2.03-2.992 2.03-27.889 0-24.898-.107-26.394-2.03-27.89-1.175-.855-3.206-1.496-4.595-1.496s-2.458-.427-2.458-1.068 9.831-1.069 27.249-1.069h27.248v9.617c0 7.587-.32 9.617-1.496 9.617-.855 0-1.816-1.389-2.244-3.205-1.709-7.694-8.228-11.755-18.7-11.755h-6.411v11.755 11.754h2.671c3.847 0 7.801-4.381 8.656-9.51.427-2.672 1.282-4.382 2.137-4.382 1.175 0 1.496 3.313 1.496 17.098 0 13.784-.321 17.097-1.496 17.097-.855 0-1.71-1.71-2.137-4.382-.748-5.022-5.557-10.578-9.083-10.578-2.137 0-2.244.534-2.244 11.54 0 7.587.427 11.968 1.282 12.823 1.71 1.71 12.93 1.603 17.204-.214 4.061-1.603 10.045-8.121 11.006-11.861.642-2.671 3.634-3.847 3.634-1.389 0 1.282-1.924 13.678-2.779 17.738l-.427 2.351h-27.783c-23.936 0-27.783-.214-27.783-1.603z"/><path d="m391.843 313.731c-16.669-6.198-24.79-24.043-19.341-42.315 2.244-7.587 11.434-16.99 19.021-19.555 6.732-2.351 19.982-2.351 26.607-.107 6.518 2.244 14.105 8.976 17.631 15.815 3.74 7.266 4.061 20.944.535 28.531-2.885 6.411-9.19 13.357-14.64 16.242-5.556 2.885-23.508 3.74-29.813 1.389zm20.196-4.808c1.817-1.069 4.381-4.275 5.877-7.16 2.244-4.702 2.565-6.625 2.565-19.127s-.214-14.426-2.565-19.021c-6.091-12.395-19.768-12.395-25.966.107-2.137 4.488-2.458 6.518-2.458 18.914 0 12.502.214 14.425 2.565 19.02 4.274 8.656 12.609 11.755 19.982 7.267z"/><path d="m488.869 313.09c-7.587-2.992-12.716-7.587-16.242-14.746-2.565-5.129-2.992-7.373-2.992-14.64 0-13.998 6.304-24.149 18.914-30.454 5.556-2.778 7.693-3.205 14.746-3.205 5.449 0 10.258.748 14.532 2.137l6.305 2.244 1.816-2.244c3.313-4.168 4.061-2.565 4.061 9.082 0 8.976-.321 11.22-1.496 11.22-.855 0-1.817-1.389-2.244-2.992-.855-3.953-6.198-10.472-10.472-12.609-4.167-2.244-12.289-2.244-16.349-.107-7.373 3.847-11.327 11.114-11.968 22.334-.855 14.318 3.313 25.431 10.792 28.958 7.908 3.847 19.342 1.389 25.753-5.557 3.954-4.167 4.915-4.167 4.915-.214 0 3.634-4.274 7.801-11.22 10.9-5.984 2.778-21.478 2.671-28.851-.107z"/><path d="m536.42 313.838c0-1.175.855-1.817 2.458-1.817 1.389 0 3.313-.854 4.274-1.923 1.603-1.71 1.817-5.236 1.817-27.783 0-25.432 0-25.752-2.351-27.355-1.282-.962-3.206-1.71-4.274-1.71-1.069 0-1.924-.427-1.924-1.068 0-1.389 37.721-1.389 42.957 0 6.732 1.923 13.784 7.48 17.31 13.891 3.099 5.45 3.313 6.625 3.313 16.563 0 9.617-.321 11.22-2.885 16.242-3.42 6.411-8.121 10.258-16.029 13.357-4.594 1.71-9.189 2.244-25.111 2.671-17.738.642-19.555.535-19.555-1.068zm39.644-7.801c1.71-1.709 3.847-5.342 4.702-8.334 1.923-6.198 2.137-21.799.427-27.89-2.351-8.655-9.189-14.426-16.99-14.426h-3.206v25.967c0 19.341.321 26.286 1.389 27.355 2.244 2.351 10.045.748 13.678-2.672z"/><path d="m212.11 288.513c-1.175-1.282-2.03-3.847-2.03-5.877 0-5.022 2.992-8.014 8.014-8.014 5.023 0 8.442 3.205 8.442 8.014 0 1.923-.962 4.381-2.137 5.663-2.992 3.099-9.617 3.206-12.289.214z"/><path d="m150.454 202.707-36.117-35.476v-53.001-52.894l30.881-30.668c16.99-16.883 31.523-30.668 32.271-30.668.855 0 17.097 15.601 36.224 34.728l34.729 34.622 26.18-26.073 26.179-26.18h47.017l47.017.107 31.202 30.133 31.203 30.134v46.59l.106 46.482-11.968 11.754c-24.683 23.829-49.795 47.445-50.863 47.445-.535 0-11.541-10.793-24.47-24.043l-23.509-23.936-27.462 28.21-27.569 28.317h-52.467l-52.573-.107zm161.781-.962 26.394-27.034-21.692-21.799-21.799-21.799-28.103-.641-28.21-.641-.321-25.539c-.107-15.387.107-25.966.748-26.714.748-.962-7.907-10.258-30.134-32.484l-31.202-31.203-27.034 26.501-27.035 26.393v47.445l.107 47.337 33.873 33.553 33.981 33.446 47.017.107 47.016.107zm84.844-28.637 9.724-1.283 1.924-10.151c.961-5.556 2.35-10.258 3.098-10.472.642-.214 3.847-.641 7.267-1.068l5.984-.642 1.175-6.732c1.069-6.304.962-7.8-2.564-21.585-2.031-8.228-3.74-15.066-3.74-15.173 0-.855-24.898 4.488-26.501 5.663-.107.107.534 3.526 1.496 7.694 1.603 6.625 1.603 8.121.321 13.678l-1.496 6.197-10.152 4.595c-5.556 2.565-10.578 4.809-11.22 5.022-.641.214-.213 3.633.962 8.869 1.924 7.48 2.672 8.976 6.946 13.037 2.671 2.458 5.343 4.274 5.984 4.06.641-.213 5.449-.961 10.792-1.709zm-60.374-69.778c.428-.534 1.069-3.953 1.389-7.586.428-3.527 1.069-7.587 1.283-8.87.534-1.923-.535-2.885-6.305-6.09-6.625-3.74-6.946-3.847-12.716-2.672l-5.877 1.176-1.389 9.082-1.282 8.976 5.663 5.13 5.663 5.129 6.412-1.603c3.633-.962 6.839-2.137 7.159-2.672zm30.241-36.651 2.992-3.847-1.924-4.275c-1.068-2.35-2.885-4.594-4.06-5.129-6.625-2.457-6.519-2.457-8.869 3.206-3.527 8.228-.855 13.571 6.625 13.785 1.175.106 3.419-1.496 5.236-3.74z"/><path d="m210.828 199.822c-6.091-1.282-8.655-2.672-13.891-7.801-5.343-5.129-6.412-8.548-1.603-5.449 10.686 6.945 32.912 4.381 45.2-5.343 5.664-4.488 6.198-5.236 9.831-15.815 2.137-5.984 4.381-12.93 4.916-15.28 1.175-4.488 3.846-9.083 5.342-9.083 1.603 0 2.351 15.601 1.176 22.974-1.496 9.617-4.809 17.097-11.006 25.111-6.839 8.656-11.434 10.793-25.219 11.327-5.663.214-12.288-.107-14.746-.641z"/><path d="m157.934 127.801c-3.74-3.206-5.556-8.122-3.099-8.122.535 0 1.283-.854 1.603-1.923.855-2.565 6.305-4.488 10.899-3.74 2.886.534 4.382 1.603 6.412 4.702 1.389 2.244 2.564 4.381 2.564 4.701 0 .214-1.816 2.138-3.953 4.275-5.343 4.808-9.083 4.915-14.426.107z"/><path d="m198.219 103.651c-1.496-2.351-3.526-5.877-4.381-7.801-1.71-3.526-1.603-3.633 2.458-9.617 2.35-3.526 4.594-5.77 5.449-5.556.855.32 3.527.534 6.091.534 4.595 0 4.702.107 9.51 7.373l5.023 7.373-4.061 5.984-4.06 5.984h-6.626c-6.625 0-6.732 0-9.403-4.274z"/></g></svg>