<svg xmlns="http://www.w3.org/2000/svg"><g fill="#fff" fill-rule="evenodd" stroke-width=".037859"><path d="m436.694.124-45.211.124-1.515 1.5-.247.882-.138 1.376 28.649 64.086.51.744 1.376.757h17.967l1.638-.509.619-.882.386-.867-.262-1.886-9.031-15.708 22.853-.248 16.204 19.48 1.515.62 31.403-.124.509-.385 1.253-1.377.124-1.377-.757-1.514-66.716-64.32zm-30.233 9.554h17.581l24.877 29.861h-25.579z"/><path d="m409.944 65.573.124 1.886-.881 1.377-1.253.881-61.057-.248-4.515-1.129-4.902-2.01-4.143-2.395-3.153-2.382-2.506-2.643-2.271-3.263-1.377-2.643-1.005-34.294.633-4.268 2.258-5.659 2.643-3.51 6.526-4.777h35.299l1.39.509.758 1.129 2.01 3.758-.386 1.391-.743.881-1.019.619h-25.373l11.441 44.482 1.624 3.263 2.134 1.377 2.395 1.005h3.511l2.258-1.129 1.143-3.015.371-4.268-.881-4.268-1.5-4.653-2.01-3.772-2.01-2.382-5.287-.881-1.253-.51-1.005-1.005-1.762-6.525.262-1.515 1.376-1.748h26.626l.881.496z"/><path d="m129.301 69.29-19.012.179-1.873-1.514-.523-1.68.702-1.335 65.559-64.94h19.013l1.776 1.156.537 1.157v27.176l42.1-29.406h3.565 20.431l1.445.853.689 1.06.193 1.446-.138.757-30.081 65.862-35.272-.592-1.074-.22-.908-.868-.372-.826-.206-1.968 21.875-37.199-46.725 35.299-.689.316h-3.001l-.578-.371-1.143-1.446 1.515-33.426-19.853 21.49z"/><path d="m314.965 69.717h-64.692l-1.514-1.377-.372-.757-.509-1.253 26.515-64.953 1.129-1.253h39.691l1.762.619.509 1.391.124 6.526-.881 1.252-1.253.634h-24.381l-2.878 12.06 26.874.124 1.514.757.633 1.129v8.411l-.385 1.143-1.638 1.129h-30.398l-5.397 21.229h35.547l1.253 1.005.757 1.129-.248 9.293-.757.881z"/><path d="m598.238 168.964 1.762-1.5v-2.52l-86.43-88.192-37.185-.248-1.762 1.501.495 2.271 39.705 48.24-102.772-52.012-41.949-.248-2.01 1.501-.261 2.01 28.14 87.449 3.029 2.505h53.265l2.01-2.01 1.005-1.514-23.873-53.265 115.328 56.28z"/><path d="m274.366 76.504-52.013 89.693.262 1.693.743 1.074 1.198.689 44.537.826 9.293-17.085 53.017-.262 8.301 15.832 1.253.496h43.463l1.762-1.749v-2.257l-54.036-88.95zm30.907 17.581 20.348 41.219h-44.978z"/><path d="m90.615 76.49 40.145.344 3.194 2.85 1.79 34.817 58.979-38.369 42.292.358s1.707-.027 2.891 1.212 1.019 2.34 1.019 2.34l-29.861 87.05c-.165.496-.619 1.143-1.032 1.666-.537.688-1.542 1.184-1.542 1.184l-52.481-.675c-.743 0-1.376-.812-1.652-1.514-.316-.771-.151-1.735.193-2.492l24.547-53.596-78.886 49.397s-2.877.95-5.342-.716c-.867-.592-1.418-2.836-1.418-2.836l-8.177-46.561-55.785 58.635h-27.713l-1.776-1.776v-3.194z"/></g></svg>