<svg viewBox="0 0 200 40" xmlns="http://www.w3.org/2000/svg"><path d="m47.779 29.945c-1.519-.187-2.991-.734-4.261-1.578-1.969-1.309-3.402-3.224-4.074-5.45-.161-.517-.317-1.302-.375-1.829-.052-.489-.052-1.684 0-2.172.422-3.962 3.223-7.346 7.047-8.503.516-.161 1.3-.317 1.828-.375.488-.051 1.683-.051 2.171 0 2.313.246 4.458 1.297 6.107 2.993 1.129 1.169 1.93 2.52 2.395 4.055.289.95.413 1.83.413 2.916 0 .816-.038 1.265-.179 1.973-.708 3.595-3.387 6.549-6.907 7.615-.516.16-1.301.317-1.829.375-.511.055-1.831.043-2.336-.02zm-.312-4.364c0-2.149-.007-2.211-.261-2.703-.195-.376-.676-.856-1.052-1.052-.503-.261-.515-.261-2.683-.261h-1.945l.027.148c.047.269.355 1.157.531 1.531.384.817.871 1.509 1.532 2.174.836.831 1.773 1.429 2.856 1.808.347.125.855.27.948.274.036.004.047-.407.047-1.919zm3.926 1.708c1.2-.391 2.157-.981 3.051-1.871.661-.665 1.149-1.357 1.532-2.174.176-.374.484-1.262.531-1.531l.027-.148h-1.926c-2.148 0-2.16 0-2.664.266-.378.194-.89.707-1.086 1.086-.265.503-.265.515-.265 2.664v1.927l.148-.028c.078-.012.375-.102.652-.191zm-1.816-5.544c.567-.176 1.05-.677 1.215-1.255.07-.25.07-.727 0-.977-.169-.597-.677-1.105-1.273-1.274-.251-.07-.727-.07-.977 0-.598.169-1.106.677-1.274 1.274-.031.11-.055.329-.055.489s.024.382.055.488c.129.445.465.876.867 1.102.184.101.301.14.641.223.129.031.614-.012.801-.07zm-6.68-3.072c.519-.078 1.239-.238 1.699-.382.391-.126.707-.255 1.524-.626 1.426-.641 1.777-.731 2.91-.731 1.044 0 1.508.102 2.536.555.269.118.702.309.964.423 1.121.492 2.344.781 3.641.862l.437.028-.023-.132c-.207-1.165-.731-2.357-1.469-3.33-.309-.41-1.015-1.117-1.426-1.426-1.106-.836-2.395-1.36-3.762-1.531-.425-.052-1.371-.052-1.797 0-1.367.171-2.656.695-3.762 1.531-.409.309-1.116 1.016-1.425 1.426-.738.973-1.262 2.165-1.469 3.33l-.023.132.456-.028c.255-.015.7-.061.989-.101z" fill="#ccc"/><path d="m77.6 22.96 1.98 6.24h-6.27l-1.38-5.58h-1.23l-.96 5.58h-5.7l3.3-18.75h9c3.42 0 5.13 1.53 5.13 4.59 0 1.26-.19 2.46-.57 3.6-.7 2.16-1.8 3.6-3.3 4.32zm-4.29-7.71h-1.14l-.66 3.75h1.32c.68 0 1.193-.073 1.54-.22.353-.153.593-.583.72-1.29.133-.713.2-1.15.2-1.31 0-.4-.153-.657-.46-.77-.313-.107-.82-.16-1.52-.16zm14.13 10.98-1.17 2.97h-6l7.89-18.75h8.82l1.32 18.75h-6.03l-.12-2.97zm4.26-10.02h-.3l-2.1 5.25h2.4zm21.48 7.62-.48 5.04c-1.28.52-2.9.78-4.86.78-2.52 0-4.327-.49-5.42-1.47-1.087-.98-1.63-2.49-1.63-4.53 0-.86.14-2.13.42-3.81.6-3.44 1.633-5.94 3.1-7.5 1.473-1.56 3.8-2.34 6.98-2.34.74 0 1.587.077 2.54.23.947.147 1.64.33 2.08.55l-1.68 4.59c-1.18-.28-2.283-.42-3.31-.42-1.033 0-1.77.1-2.21.3-.44.2-.71.6-.81 1.2l-1.38 7.86c.72.16 1.46.24 2.22.24 1.62 0 3.1-.24 4.44-.72zm7.56 5.37h-5.7l3.3-18.75h5.7zm19.38 0h-5.37l-3.06-6.66c-.08-.14-.12-.337-.12-.59 0-.247.02-.53.06-.85h-.24l-1.41 8.1h-5.7l3.3-18.75h5.37l3.06 6.66c.06.14.09.337.09.59 0 .247-.02.53-.06.85h.24l1.44-8.1h5.7zm14.01-5.52.15-.81h-1.44l.81-4.59h6.87l-1.77 10.02c-2.44.9-4.89 1.35-7.35 1.35-2.46 0-4.237-.49-5.33-1.47-1.087-.98-1.63-2.49-1.63-4.53 0-.86.14-2.13.42-3.81.6-3.48 1.66-5.99 3.18-7.53 1.52-1.54 4.04-2.31 7.56-2.31.74 0 1.683.08 2.83.24 1.153.16 2 .34 2.54.54l-1.65 4.59c-1.5-.28-2.877-.42-4.13-.42-1.247 0-2.14.1-2.68.3-.54.2-.86.6-.96 1.2l-1.47 8.49h1.89c.68 0 1.183-.073 1.51-.22.333-.153.55-.5.65-1.04z" fill="#fff"/></svg>