<svg preserveAspectRatio="none" xmlns="http://www.w3.org/2000/svg"><g fill="#1e1e1e"><path d="m481.572 154.263c-3.825 0-6.943 3.118-6.943 6.943v243.601c0 3.823 3.118 6.923 6.943 6.923h184.35c3.824 0 6.942-3.1 6.942-6.923v-.616-242.985c0-3.824-3.115-6.942-6.942-6.942zm0 1.231h184.35c3.159 0 5.711 2.552 5.711 5.712v243.601c0 3.159-2.553 5.692-5.711 5.692h-184.35c-3.158.006-5.711-2.531-5.711-5.692v-243.601c0-3.159 2.553-5.712 5.711-5.712z" transform="matrix(.965926 -.258819 .258819 .965926 -53.694952 158.139377)"/><path d="m488.939 189.56c-6.399 0-11.597 5.199-11.597 11.596v40.309.616h.616 52.866.615v-.616-51.289-.616h-.615zm0 1.231h41.269v50.059h-51.635v-39.694c0-5.732 4.633-10.365 10.366-10.365z" transform="matrix(.965926 -.258819 .258819 .965926 -38.671766 137.899754)"/><path d="m552.114 173.92v.616 52.752h-54.405-.616v.615 151.29c0 6.397 5.199 11.596 11.596 11.596h129.776c6.399 0 11.597-5.199 11.597-11.596v-193.679c0-6.399-5.198-11.597-11.597-11.597h-85.731-.615zm1.231 1.231h85.116c5.734 0 10.366 4.632 10.366 10.365v193.679c0 5.732-4.632 10.367-10.366 10.367h-129.776c-5.732 0-10.365-4.635-10.365-10.367v-150.674h54.405.616v-.616-52.751z" transform="matrix(.965926 -.258819 .258819 .965926 -53.534122 158.073593)"/><path d="m512.087 230.157c-4.193.002-7.596 3.405-7.596 7.598v91.023c0 4.192 3.403 7.596 7.596 7.596h123.461c4.192 0 7.596-3.403 7.597-7.596v-91.023c-.001-4.193-3.405-7.596-7.597-7.598zm0 1.232h123.461c3.521 0 6.356 2.846 6.366 6.366v.019 91.004c0 3.528-2.839 6.366-6.366 6.366h-123.461c-3.528 0-6.364-2.838-6.365-6.366v-91.004-.019c.01-3.52 2.843-6.366 6.365-6.366zm0 1.442c-2.72.005-4.937 2.202-4.942 4.924v91.023c.005 2.72 2.222 4.938 4.942 4.942h123.461c2.72-.004 4.938-2.222 4.943-4.942v-91.023c-.005-2.723-2.222-4.919-4.943-4.924zm0 1.23h123.461c2.051.004 3.698 1.644 3.712 3.694v.019 91.004c-.005 2.059-1.654 3.708-3.712 3.713h-123.461c-2.058-.006-3.707-1.654-3.711-3.713v-91.004c0-.008 0-.014 0-.019.013-2.05 1.659-3.69 3.711-3.694z" transform="matrix(.965926 -.258819 .258819 .965926 -53.762132 158.167041)"/><path d="m573.264 245.349c-1.863 0-3.719.718-5.136 2.135l-3.327 3.308c-2.149 2.248-3.348 2.924-7.173 2.924h-4.577c-4.008 0-7.269 3.261-7.269 7.268v4.327c0 1.896-.096 3.054-.442 4.02-.345.963-.962 1.811-2.173 3.095l-3.631 3.631c-2.835 2.834-2.835 7.455 0 10.289l3.48 3.481h.02v.019c1.115.986 1.765 1.755 2.173 2.883.408 1.131.577 2.683.577 5.194v3.5c0 4.009 3.262 7.268 7.27 7.268h4.326c4.056 0 5.368.914 7.404 2.885l3.347 3.346c2.834 2.835 7.434 2.835 10.27 0l3.153-3.134c1.303-1.312 2.103-2.069 3.039-2.501.935-.434 2.098-.596 4.231-.596h4.655c4.009 0 7.269-3.261 7.269-7.268v-4.25c0-2.445.309-3.92.903-5.077.594-1.158 1.515-2.051 2.885-3.29l.019-.017 2.442-2.443c2.835-2.834 2.835-7.455 0-10.289l-2.654-2.655-.019-.018c-1.306-1.132-2.175-1.951-2.73-3.077-.558-1.125-.847-2.622-.847-5.155v-4.172c0-4.009-3.262-7.269-7.269-7.269h-4.654c-2.11 0-3.368-.278-4.404-.807-1.037-.53-1.892-1.349-3.115-2.539l-2.904-2.885c-1.418-1.417-3.273-2.134-5.135-2.134zm0 1.231c1.543 0 3.086.587 4.268 1.77l2.904 2.884v.02c1.223 1.19 2.176 2.111 3.423 2.75 1.248.639 2.744.942 4.962.942h4.654c3.343 0 6.039 2.695 6.039 6.039v4.173c0 2.626.306 4.327.982 5.692.668 1.354 1.673 2.308 2.98 3.442.012.01.027.01.039.02l2.616 2.615c2.364 2.363 2.364 6.192 0 8.556l-2.424 2.404-.019.019c-1.373 1.241-2.428 2.256-3.135 3.635-.711 1.387-1.039 3.088-1.039 5.635v4.249c0 3.343-2.694 6.04-6.038 6.04h-4.655c-2.194 0-3.566.162-4.75.71-1.183.549-2.076 1.434-3.384 2.752l-3.145 3.126c-2.365 2.365-6.174 2.365-8.539 0l-3.347-3.346h-.019v-.019c-2.107-2.04-3.985-3.231-8.25-3.231h-4.327c-3.343 0-6.038-2.695-6.038-6.04v-3.499c0-2.563-.163-4.253-.654-5.617-.489-1.353-1.312-2.328-2.48-3.366l-.02-.018-3.462-3.442c-2.364-2.363-2.364-6.195 0-8.557l3.655-3.635.019-.019c1.252-1.327 2.014-2.325 2.442-3.519.429-1.195.501-2.513.501-4.443v-4.326c0-3.344 2.694-6.04 6.038-6.04h4.577c3.996 0 5.814-.94 8.058-3.288l3.307-3.308c1.182-1.183 2.725-1.769 4.27-1.769z" transform="matrix(.965926 -.258819 .258819 .965926 -53.245579 157.954221)"/><path d="m573.268 249.235c-1.675 0-3.343.629-4.617 1.904l-2.961 2.961c-1.909 1.995-2.951 2.577-6.346 2.577h-4.058c-3.604 0-6.539 2.935-6.539 6.539v3.845c0 1.687-.081 2.714-.385 3.559-.303.846-.847 1.592-1.922 2.731l-3.231 3.231c-2.548 2.547-2.548 6.702 0 9.25l3.096 3.095v.02h.019c.99.875 1.546 1.546 1.905 2.538.358.993.518 2.365.518 4.597v3.115c0 3.603 2.935 6.539 6.539 6.539h3.846c3.597 0 4.733.808 6.539 2.558l2.981 2.98c2.547 2.55 6.683 2.55 9.23 0l2.809-2.807c1.157-1.167 1.853-1.833 2.672-2.211.819-.38 1.856-.52 3.751-.52h4.154c3.603 0 6.52-2.936 6.52-6.539v-3.77c0-2.17.266-3.463.789-4.48.521-1.017 1.338-1.823 2.557-2.924l.02-.018 2.173-2.174c2.547-2.548 2.547-6.702 0-9.25l-2.346-2.345-.019-.02-.019-.018c-1.161-1.008-1.916-1.723-2.404-2.713-.487-.988-.75-2.308-.75-4.556v-3.713c0-3.603-2.915-6.538-6.519-6.538h-4.154c-1.871 0-2.976-.247-3.885-.711-.907-.466-1.668-1.198-2.75-2.251h-.02l-2.557-2.577h-.02c-1.274-1.275-2.943-1.904-4.616-1.904zm0 1.21c1.356 0 2.71.518 3.75 1.558l2.577 2.597h.019c1.087 1.058 1.935 1.887 3.057 2.461s2.464.847 4.443.846h4.154c2.937 0 5.289 2.37 5.289 5.308v3.712c0 2.34.258 3.867.864 5.096.604 1.221 1.525 2.063 2.692 3.076.009.008.013.014.019.019l2.333 2.328c2.077 2.076 2.077 5.44 0 7.519l-2.154 2.135c-1.233 1.113-2.187 2.023-2.826 3.27-.64 1.247-.924 2.786-.924 5.057v3.77c0 2.939-2.35 5.307-5.288 5.307h-4.154c-1.955 0-3.184.142-4.25.635-1.067.494-1.873 1.289-3.039 2.463l-2.809 2.807c-2.078 2.079-5.422 2.079-7.499 0l-2.981-3h-.019c-1.878-1.817-3.578-2.905-7.385-2.905h-3.846c-2.938 0-5.307-2.368-5.307-5.307v-3.115c0-2.285-.155-3.794-.596-5.02-.437-1.211-1.176-2.079-2.211-2.999l-.02-.019-3.077-3.077c-2.078-2.078-2.078-5.442 0-7.521l3.251-3.23v-.018c1.116-1.184 1.806-2.079 2.192-3.155.385-1.075.461-2.261.461-3.98v-3.847c0-2.937 2.369-5.307 5.308-5.307h4.058c3.559 0 5.213-.876 7.212-2.962h.019l2.943-2.941c1.038-1.04 2.393-1.559 3.75-1.559h-.006z" transform="matrix(.965926 -.258819 .258819 .965926 -53.249101 157.954732)"/><path d="m573.266 263.387c-9.829 0-17.808 8-17.808 17.829s7.978 17.809 17.808 17.809c9.829 0 17.808-7.979 17.808-17.809 0-9.829-7.979-17.829-17.808-17.829zm0 1.232c9.163 0 16.577 7.433 16.577 16.597s-7.414 16.578-16.577 16.578-16.577-7.414-16.577-16.578 7.413-16.597 16.577-16.597z" transform="matrix(.965926 -.258819 .258819 .965926 -53.247902 157.954005)"/><path d="m573.266 269.387c-6.52 0-11.827 5.308-11.827 11.828 0 6.521 5.306 11.809 11.827 11.809 6.519 0 11.828-5.289 11.828-11.809s-5.307-11.828-11.828-11.828zm0 1.232c5.855 0 10.596 4.741 10.596 10.596 0 5.856-4.741 10.578-10.596 10.578-5.856 0-10.597-4.722-10.597-10.578 0-5.855 4.741-10.596 10.597-10.596z" transform="matrix(.965926 -.258819 .258819 .965926 -53.247754 157.954112)"/><path d="m552.958 179.075c-.34.015-.604.302-.588.642.015.341.303.604.643.589h.003 84.119c3.344 0 6.04 2.695 6.04 6.038v192.023c0 3.343-2.695 6.039-6.04 6.039h-127.117c-3.344 0-6.04-2.696-6.04-6.039v-150.428c.005-.34-.267-.62-.607-.625-.339-.005-.619.267-.623.607v.018 150.428c0 4.008 3.26 7.269 7.269 7.269h127.116c4.009 0 7.269-3.263 7.269-7.269v-192.023c0-4.008-3.26-7.269-7.269-7.269h-84.118c-.018 0-.037 0-.057 0z" transform="matrix(.965926 -.258819 .258819 .965926 -53.534886 158.073139)"/><path d="m491.011 193.881c-4.009 0-7.27 3.261-7.27 7.269v39.501c-.005.34.267.619.607.624.339.004.619-.267.624-.607 0-.006 0-.012 0-.017v-39.501c0-3.344 2.696-6.039 6.039-6.039h40.308c.34.005.62-.266.625-.607.004-.339-.267-.619-.608-.623-.005 0-.011 0-.017 0z" transform="matrix(.965926 -.258819 .258819 .965926 -39.009019 138.853083)"/></g></svg>