<svg xmlns="http://www.w3.org/2000/svg"><g fill="#fff"><path d="m.741 134.815c-.424-.318-.741-25.291-.741-55.45 0-48.36.212-54.921 1.693-56.402 1.376-1.482 6.138-1.693 35.344-1.693 29.312 0 33.968.211 35.344 1.693 1.481 1.481 1.693 7.725 1.481 56.825l-.317 55.238-36.085.318c-19.788.106-36.296-.106-36.719-.529zm45.608-10.159c.741-.846 1.27-10.053 1.482-24.233.317-26.031.635-26.984 9.1-31.005l4.445-2.011v-14.92c0-21.058 1.799-19.577-24.022-19.577-17.883 0-21.058.212-22.751 1.799-1.799 1.587-1.905 4.444-1.905 44.868v43.174l2.328 1.588c3.175 2.222 29.524 2.433 31.323.317z"/><path d="m84.656 133.545c-.635-1.376-1.058-20.529-1.058-55.026 0-51.641.106-53.122 2.116-55.133 2.011-2.01 3.492-2.116 28.889-2.116 30.053 0 31.64.423 39.048 8.042 6.984 7.302 7.196 8.889 7.196 50.582 0 36.826 0 37.143-2.54 42.54-1.376 2.857-4.55 7.09-6.984 9.206l-4.656 3.916h-30.371c-29.1 0-30.582-.106-31.64-2.011zm57.566-9.735c5.82-4.551 5.926-5.186 5.926-44.339 0-48.254.847-46.561-21.693-46.561-9.418 0-14.286.423-15.132 1.27-.953.952-1.27 12.275-1.27 44.656 0 38.836.212 43.492 1.799 45.291 1.481 1.693 3.492 1.905 14.603 1.905 11.534 0 13.228-.212 15.767-2.222z"/><path d="m191.111 133.862c-.317-.952-.635-11.216-.635-22.963v-21.269l-10.053-9.63-10.053-9.63v-22.857c0-24.656.318-26.243 5.715-26.243 4.55 0 4.867 1.481 4.867 20.952 0 11.323.424 19.259 1.164 20.635 1.482 3.069 8.572 9.418 15.556 14.18l5.503 3.81 5.608-3.81c2.963-2.011 7.725-5.926 10.582-8.466l4.974-4.761v-19.471c0-17.567.211-19.789 1.904-21.27 2.434-2.222 5.926-2.328 8.043-.106 1.481 1.376 1.693 5.185 1.693 24.656v23.175l-8.995 8.148c-4.973 4.55-9.735 9.524-10.582 11.217-1.27 2.328-1.587 7.619-1.587 24.233v21.164h-11.535c-9.523 0-11.64-.318-12.169-1.694z"/><path d="m246.138 133.862c-.318-.952-.635-8.042-.635-15.767 0-17.566-.106-17.46 12.169-17.46 11.746 0 12.169.529 12.169 12.698 0 12.381.318 12.699 13.122 12.699 6.138 0 10.159-.424 11.005-1.27.847-.847 1.27-6.773 1.27-19.577 0-16.931-.106-18.307-2.01-19.365-1.27-.635-10.053-1.058-21.27-1.058-20.741 0-24.551-.847-25.82-5.503-.318-1.375-.635-13.862-.635-27.83 0-21.376.317-25.821 1.693-27.831 1.587-2.328 1.799-2.328 31.005-2.328 26.138 0 29.63.211 30.9 1.799 1.058 1.164 1.587 5.926 1.798 16.296.318 13.545.212 14.709-1.798 16.72-3.069 3.068-6.879 2.857-9.524-.529-1.799-2.328-2.223-4.339-2.223-11.429 0-5.397-.529-9.206-1.269-9.947-.847-.847-6.561-1.27-18.519-1.27h-17.249l-1.164 2.963c-.634 1.693-.952 8.995-.74 17.989.317 13.545.529 15.344 2.328 16.72 1.693 1.164 6.666 1.481 22.963 1.481 11.534 0 21.693.318 22.645.635 4.233 1.694 4.762 5.503 4.762 32.381 0 14.18-.317 26.773-.635 28.149l-.635 2.328h-31.534c-27.725 0-31.64-.212-32.169-1.694z"/><path d="m321.27 133.862c-.318-.952-.635-8.042-.635-15.767 0-17.566-.106-17.46 12.169-17.46 11.429 0 12.17.846 12.17 13.968 0 11.217.211 11.429 13.545 11.429 13.121 0 12.91.423 12.91-20.424 0-22.328 1.693-20.846-23.81-20.846-20.423 0-24.762-.741-26.349-4.762-.318-.952-.635-13.757-.635-28.466 0-24.55.106-26.878 1.905-28.465 1.693-1.588 5.502-1.799 31.111-1.799 26.878 0 29.206.106 30.793 1.905 1.482 1.587 1.799 4.444 1.799 16.825 0 13.016-.211 15.026-1.904 16.508-2.646 2.434-6.879 2.222-9.313-.423-1.587-1.799-2.116-4.339-2.539-12.487l-.529-10.159-17.99-.317c-15.979-.212-18.095-.106-19.259 1.587-.952 1.27-1.376 6.561-1.376 17.46 0 21.376-1.904 19.894 25.82 19.894h21.482l2.857 2.752 2.751 2.857v27.302c0 14.92-.317 27.936-.635 28.888-.529 1.482-4.444 1.694-32.169 1.694s-31.64-.212-32.169-1.694z"/><path d="m396.402 133.862c-.317-.952-.635-25.82-.635-55.343 0-50.688.106-53.863 1.905-55.45 1.693-1.588 5.397-1.799 30.159-1.799 26.772 0 28.254.106 29.312 2.01 1.481 2.752 1.376 7.831-.212 9.418-.952.953-7.407 1.27-22.434 1.27-11.746 0-21.799.424-22.434.847-2.857 1.905-3.597 5.926-3.597 19.788 0 13.863.105 14.498 2.645 16.931 2.54 2.646 2.646 2.646 23.598 2.646 22.434 0 23.492.212 23.492 5.291 0 4.868-1.481 5.291-16.931 5.291-20.106 0-19.048-1.164-19.048 20.529 0 21.799-.846 20.741 16.297 20.741 8.888 0 13.227.423 15.449 1.587 3.069 1.587 4.868 4.974 3.704 6.878-.423.635-11.64 1.059-30.688 1.059-26.349 0-30.053-.212-30.582-1.694z"/><path d="m487.831 114.18c0-24.974.211-24.233-11.111-34.286-3.81-3.386-7.725-7.513-8.572-9.1-1.164-2.223-1.481-7.725-1.481-24.445 0-19.577.211-21.693 1.904-23.28 2.54-2.328 5.821-2.222 7.937.106 1.587 1.693 1.799 4.762 1.799 21.058v19.153l7.301 6.773c4.022 3.598 8.995 7.513 11.006 8.677l3.809 2.011 7.196-5.397c3.915-2.963 8.677-6.879 10.37-8.678l3.175-3.28.317-19.788c.212-12.275.741-20.212 1.482-21.164.635-.741 2.645-1.27 4.444-1.059l3.281.318.317 24.868.212 24.867-9.524 9.101-9.524 9.1v21.27c0 11.641-.317 21.905-.635 22.857-.529 1.376-2.645 1.694-12.169 1.694h-11.534z"/><path d="m546.032 58.413c0-8.995.529-17.143 1.27-19.26 3.174-9.523 9.523-13.545 21.269-13.65 4.022 0 7.09-.424 7.09-1.059 0-.634-5.608-1.058-14.814-1.058h-14.815v-5.291-5.291h16.825c15.238 0 17.037.212 19.471 2.117 3.81 3.068 5.503 8.571 3.915 13.227-1.904 5.714-5.502 7.937-12.91 7.937-13.016 0-16.719 4.127-16.719 19.047v8.466h21.693 21.693v5.291 5.291h-26.984-26.984z"/><path d="m557.672 56.508c.106-8.148 1.693-14.392 4.233-16.402 1.693-1.376 4.233-1.905 8.677-1.905 7.725 0 12.804-2.222 15.661-6.878 4.127-6.667 1.482-15.556-5.714-18.942-2.751-1.27-7.09-1.693-19.048-1.693h-15.449v-5.397-5.291l18.836.317c18.624.318 18.942.318 23.28 3.281 2.434 1.587 5.714 4.868 7.302 7.301 2.645 3.916 2.963 5.291 2.963 13.545s-.318 9.63-2.963 13.545c-4.339 6.667-10.159 10.053-17.99 10.582-12.91.847-8.571 2.328 6.984 2.328h15.556v5.291 5.291h-21.164-21.164z"/></g></svg>