<svg viewBox="0 0 200 40" xmlns="http://www.w3.org/2000/svg"><g fill="#ccc" transform="matrix(1.679275 0 0 1.66353 4.529392 9.862156)"><path d="m7.38768955.08286127c-2.90928303 0-5.33665957 2.06915442-5.89129709 4.81653006h-1.06591306c-.04712821.00000686-.0902095.02663445-.11128935.06878547-.02107984.04215103-.01654144.09259336.01172379.1303047l1.60551003 2.14068004c.02350271.03134136.06039086.04978699.09956557.04978699s.07606286-.01844563.09956557-.04978699l1.60551001-2.14068004c.02826523-.03771134.03280364-.08815367.01172379-.13030469-.02107984-.04215102-.06416113-.06877861-.11128934-.06878548h-.78820343c.52904053-2.01163104 2.35531281-3.49729661 4.53439351-3.49729661 2.59310312 0 4.69208335 2.09898027 4.69208335 4.69208339s-2.09898023 4.69208339-4.69208335 4.69208339c-1.6264633 0-3.05821098-.82683457-3.90023174-2.08280177-.02310359-.03447824-.06187431-.05517027-.10337763-.05517288h-1.23999918c-.0433309.00001229-.08353612.02256173-.10614015.05952962-.02260404.03696789-.02435247.08303175-.00461578.12160675.99575019 1.94503578 3.02029981 3.27607178 5.35436448 3.27607178 3.31840245 0 6.01131685-2.69291444 6.01131685-6.01131689 0-3.31842303-2.6929148-6.01131684-6.01131685-6.01131684z"/><path d="m6.98818588 2.68890476c-.0993597.00000013-.17990661.08054704-.17990674.17990673v3.91638191c.00000654.06370037.03369774.12264821.08858029.15498461l2.78877848 1.64346702c.08556651.05041476.19579932.02195749.24626992-.0635761l.27188907-.46077236c.0503466-.08536282.0221767-.19536681-.0630021-.24602416l-2.43753217-1.44937785v-3.49508307c-.00000014-.09935969-.08054705-.1799066-.17990674-.17990673z"/></g><path d="m45.27 24.4-.84 4.8h-11.4l3.3-18.75h5.7l-2.46 13.95zm4.47 1.83-1.17 2.97h-6l7.89-18.75h8.82l1.32 18.75h-6.03l-.12-2.97zm4.26-10.02h-.3l-2.1 5.25h2.4zm8.04 12.66 1.68-4.95c1.68.46 3.22.69 4.62.69 1.4 0 2.53-.06 3.39-.18l.24-1.5-2.49-.24c-1.9-.18-3.247-.61-4.04-1.29-.787-.68-1.18-1.64-1.18-2.88 0-.54.06-1.14.18-1.8.46-2.56 1.293-4.32 2.5-5.28 1.213-.96 3.09-1.44 5.63-1.44 2.54 0 4.78.25 6.72.75l-1.56 4.8c-1.74-.3-3.14-.45-4.2-.45-1.06 0-1.96.05-2.7.15l-.24 1.47 2.01.21c2.04.22 3.49.707 4.35 1.46.86.747 1.29 1.75 1.29 3.01 0 1.28-.28 2.6-.84 3.96-.28.7-.587 1.287-.92 1.76-.327.467-.747.863-1.26 1.19-.507.333-.97.583-1.39.75-.42.173-.95.3-1.59.38-.94.14-2.09.21-3.45.21-2.48 0-4.73-.26-6.75-.78zm33.69-18.42-.87 4.8h-4.14l-2.43 13.95h-5.7l2.43-13.95h-4.11l.87-4.8zm15.3 14.22h-3.72l-.78 4.53h-5.7l3.3-18.75h9c3.4 0 5.1 1.58 5.1 4.74 0 1.5-.21 2.853-.63 4.06-.42 1.213-.883 2.177-1.39 2.89-.513.707-1.217 1.307-2.11 1.8-.887.487-1.91.73-3.07.73zm-.75-9.42h-1.32l-.81 4.62h1.32c.68 0 1.193-.073 1.54-.22.353-.153.58-.5.68-1.04.26-1.48.39-2.29.39-2.43 0-.38-.15-.63-.45-.75-.3-.12-.75-.18-1.35-.18zm19.98 9.15-.84 4.8h-11.4l3.3-18.75h5.7l-2.46 13.95zm4.47 1.83-1.17 2.97h-6l7.89-18.75h8.82l1.32 18.75h-6.03l-.12-2.97zm4.26-10.02h-.3l-2.1 5.25h2.4zm7.89-5.76h6.3l.39 6.6h.21l2.76-6.6h6.3l-7.56 13.65-.87 5.1h-5.7l.87-5.1zm27.18 7.32-.78 4.35h-5.7l-.39 2.28h6.99l-.84 4.8h-12.69l3.3-18.75h12.54l-1.56 4.8h-6.15l-.42 2.52zm10.47 11.43h-7.98l3.3-18.75h7.98c2.58 0 4.413.457 5.5 1.37 1.093.907 1.64 2.38 1.64 4.42 0 1.04-.12 2.24-.36 3.6-.6 3.36-1.627 5.76-3.08 7.2-1.447 1.44-3.78 2.16-7 2.16zm2.52-13.95h-2.37l-1.59 9.15h2.37c.78 0 1.36-.093 1.74-.28.38-.193.63-.63.75-1.31l1.05-5.97c.02-.12.03-.28.03-.48 0-.46-.16-.76-.48-.9-.32-.14-.82-.21-1.5-.21z" fill="#fff"/></svg>