<svg xmlns="http://www.w3.org/2000/svg"><g fill="#fff"><path d="m75.693 95.449-3.339-3.003-.219-42.348-.111-42.348 2.667-2.889c2.667-2.889 2.892-2.889 20.121-2.889 22.338 0 27.228 1.332 35.007 9.222 12.558 12.894 12.558 29.346-.111 42.906-3.33 3.669-8.109 7.557-10.557 8.667-2.334 1.002-4.338 2.112-4.23 2.451 0 .33 3.786 3.444 8.34 6.777 4.668 3.333 10.449 8.004 12.894 10.227 4.002 3.666 4.446 4.554 3.78 7.779-.333 2.004-1.782 4.557-3.225 5.559-5.223 4.113-5.892 3.669-36.342-21.675l-11.673-9.672-.333 14.118c-.225 12.45-.555 14.448-2.556 16.56-3.555 3.891-6.339 4.002-10.113.558zm36.342-43.353c12.117-5.445 15.339-20.781 6.336-29.229-4.998-4.671-7.332-5.337-19.008-5.337h-11.226v18.339 18.339h9.783c7.002 0 10.893-.663 14.115-2.112z"/><path d="m182.508 96.556c-3.45-1.107-8.676-3.666-11.67-5.775-3.003-2.001-5.895-3.561-6.561-3.447-.558.222-.78 0-.333-.444s-1.002-2.781-3.333-5.334c-7.002-7.671-12.453-21.231-12.453-31.458 0-13.227 6.003-27.231 15.675-36.459 20.451-19.56 51.237-17.892 71.361 3.783 6.666 7.224 10.11 14.673 12.111 26.115 3.999 22.569-12.561 47.463-35.679 53.58-8.337 2.112-21.453 1.89-29.118-.561zm32.34-19.449c10.785-7.113 15.678-15.783 15.783-27.897 0-13.452-6.441-23.454-18.783-29.124-5.115-2.334-7.332-2.775-14.559-2.334-18.114.78-30.123 12.453-31.125 29.901-.774 13.002 6.117 24.453 18.228 30.567 4.782 2.442 6.672 2.667 15.561 2.334 9.003-.222 10.782-.669 14.895-3.447z"/><path d="m192.285 58.657c-6.555-5.223-5.445-15.891 2.115-19.452 4.557-2.109 6.558-2.109 10.449.222 6.447 3.78 7.329 11.559 2.109 17.565-2.778 3.108-4.221 3.888-7.671 3.888-2.442 0-5.334-.891-7.002-2.223z"/><path d="m292.656 96.118c-9.117-3.228-15.006-7.008-20.229-12.786-10.338-11.448-13.563-20.565-12.894-36.348.336-8.892.885-11.226 4.224-17.892 9.558-19.452 32.232-31.902 51.795-28.347 8.559 1.56 20.454 7.56 22.563 11.451 2.109 3.783.777 8.112-3.444 11.229l-3.003 2.22-6.777-3.558c-22.122-11.556-46.017.447-48.465 24.231-1.443 13.452 6.336 27.009 18.675 32.343 7.779 3.336 20.895 4.338 26.676 1.893 5.889-2.445 8.781-7.668 8.448-15.006l-.336-5.895-11.226-.219c-9.333-.219-11.781-.555-13.671-2.334-2.889-2.664-3-6.669-.111-9.558 2.001-2.001 3.669-2.223 18.789-2.223 15.669 0 16.779.111 19.56 2.559 2.775 2.334 2.889 2.886 3.111 15.78.111 10.449-.222 14.115-1.668 16.674-7.893 14.781-33.123 22.452-52.017 15.786z"/><path d="m389.574 95.89c-13.224-4.89-23.895-15.558-29.226-29.229-2.004-5.004-2.556-8.559-2.556-16.896.108-9.333.441-11.448 3.555-18.783 1.998-4.56 5.334-10.449 7.557-13.116 7.113-8.67 19.008-15.342 31.341-17.454 6.45-1.11 20.343 1.335 27.678 4.896 10.896 5.445 14.229 11.445 8.892 16.443-3.441 3.228-7.11 3.12-14.337-.663-5.226-2.67-7.113-3-16.452-3-10.446 0-10.668 0-17.223 4.446-13.122 8.781-18.009 26.118-11.229 39.903 6.777 13.893 19.785 20.673 36.237 19.005 6.333-.666 7.665-1.221 11.334-5.004 3.891-3.774 4.224-4.665 4.224-10.332v-6.117l-11.67-.444c-10.896-.33-11.778-.555-14.559-3.333-2.781-2.667-2.895-3.222-1.557-6.339.666-1.884 2.226-3.663 3.222-3.885 2.889-.891 32.679-1.221 35.124-.339 4.557 1.56 6.114 6.339 6.114 18.786 0 10.002-.333 12.336-2.556 16.56-7.674 14.565-34.788 22.011-53.913 14.895z"/><path d="m534.96 95.338c-1.221-1.221-2.442-3.333-2.775-4.665-.336-1.449-.558-20.79-.336-42.912l.336-40.455 2.775-2.223c2.562-2.001 4.002-2.226 22.785-1.779 19.674.336 20.121.447 25.344 3.447 9.894 5.892 15.783 17.112 15.006 28.788-.78 12.558-8.889 23.781-19.23 26.673-2.445.669-4.89 1.671-5.334 2.112-.552.441 1.671 2.892 5.001 5.337 22.23 17.229 23.01 18.228 20.454 23.229-3.003 5.892-7.782 6.222-14.448 1.113-5.562-4.449-22.569-18.453-25.677-21.228-1.227-1.116-4.116-3.558-6.336-5.445l-4.221-3.336v11.004c-.114 17.118-2.115 22.563-8.559 22.563-1.449 0-3.564-1.005-4.785-2.223zm39.015-43.014c5.892-3.45 9.225-9.78 9.336-17.007 0-7.002-1.776-10.557-7.671-14.895-2.553-2.004-4.998-2.442-15.225-2.67l-12.111-.441v18.447 18.45h11.22c8.673 0 12.006-.441 14.451-1.884z"/><path d="m3.219 95.113-2.778-2.559-.333-41.232c-.333-46.014-.333-46.239 6.777-48.24 6.003-1.668 46.686-.108 49.908 2.001 3.555 2.334 3.222 7.224-.552 10.227-3.003 2.331-4.002 2.442-21.45 2.112l-18.345-.447-.333 13.116-.333 13.002 12.561.114c16.449.222 19.449.447 21.45 2.112 2.337 2.001 2.115 6.003-.666 8.448-1.998 1.89-4.224 2.109-17.562 2.223l-15.117.108-.555 18.12-.552 18.006-3.12 2.667c-3.885 3.336-5.445 3.336-9 .222z"/><path d="m466.161 96.448c-7.338-1.668-7.005.108-6.894-45.462.117-22.785.669-42.567 1.224-44.013 1.89-4.89 4.224-5.226 30.012-4.89 21.894.441 24.45.666 26.559 2.553 3.342 3.003 3.006 7.782-.549 10.56-2.781 2.115-4.446 2.334-21.786 2.334h-18.786l.333 12.45.333 12.447h15.891c14.454.117 16.125.339 17.568 2.223.888 1.224 1.551 3.339 1.551 4.671 0 4.665-2.664 5.445-19.668 5.781l-15.897.444v13.785 13.779h19.896 20.004l2.226 3.222c2.667 3.78 1.776 8.004-1.998 10.116-2.562 1.332-43.905 1.332-50.019 0z"/></g></svg>