<svg xmlns="http://www.w3.org/2000/svg"><path d="m583.713 2.307v2.736c-3.051-.765-4.272 3.891-2.973 13.842l3.687 28.236 3.336-27.897c.372-3.171.54-5.619.66-6.975.381-4.335-.582-6.741-2.874-7.206v-2.736h14.451v2.967c-2.442.156-3.411 1.251-3.675 3.204l-8.295 61.554v33.888c-.159 3.807.999 5.88 3.441 6.171v2.985h-16.503v-3.216c2.127-.138 3.204-2.133 3.204-5.94v-38.007l-5.991-50.511c-.696-5.823-3.105-9.759-5.19-10.575l-.237-2.52zm-62.124 71.403 12.372-6.405c-1.524 23.802-1.11 36.303 1.257 37.53 2.364 1.218 3.711.612 4.008-1.827 1.386-9.165 1.386-18.387 0-27.705-.45-4.725-1.365-8.076-2.736-10.074-8.568-13.26-13.455-23.181-14.667-29.745l-.234-22.656c1.677-7.944 6.258-11.91 13.74-11.91 8.415.153 12.834 5.505 13.302 16.032l.684 14.649-11.457 7.326c.153-9.162.153-17.715 0-25.647 0-3.807-.885-5.76-2.64-5.838-1.764-.078-2.619 1.716-2.619 5.388l.213 22.893c7.8 12.498 13.062 22.104 15.819 28.83 2.733 6.72 3.735 16.326 2.973 28.842-.762 13.89-5.73 20.739-14.904 20.586-8.853-.453-13.887-6.561-15.111-18.36zm-34.794 39.816v-1.599c1.839-1.836 2.445-8.397 1.839-19.686h-5.727c-.924 11.289-.393 17.85 1.599 19.686v1.599h-14.901v-1.599c1.23-.156 2.253-.645 3.093-1.479.843-.846 3.399-37.419 7.68-109.746h11.913c5.652 72.33 8.784 108.9 9.402 109.746.606.834 1.527 1.323 2.739 1.479v1.599zm-3.564-31.128h4.482l-2.289-37.068zm-62.844-82.398h32.07v40.524h-3.894c-.765-16.323-2.892-26.013-6.414-29.082v93.843c0 3.678 1.683 5.967 5.049 6.876v1.605h-21.321v-1.605c3.657-.909 5.34-3.285 5.043-7.107v-93.609c-3.828 2.91-6.276 12.597-7.329 29.079h-3.204zm-49.911 8.478c.447-2.754-.78-4.416-3.675-5.04v-2.97h16.269l8.94 63.849v-56.757c0-2.286-.924-3.573-2.76-3.885v-3.207h13.983v2.967c-1.974.471-2.895 3.675-2.739 9.615v100.248h-10.776l-11.01-71.853v64.311c-.453 3.345.702 4.938 3.444 4.803v2.739h-15.588l.237-2.529c2.601-.288 3.813-2.043 3.675-5.244zm-38.7 105.048v-1.599c1.839-1.836 2.442-8.397 1.839-19.686h-5.73c-.921 11.289-.393 17.85 1.602 19.686v1.599h-14.898v-1.599c1.23-.156 2.244-.645 3.084-1.479.843-.846 3.408-37.419 7.686-109.746h11.91c5.649 72.33 8.784 108.9 9.408 109.746.609.834 1.527 1.323 2.736 1.479v1.599zm-3.555-31.128h4.473l-2.289-37.068zm-61.725-75.069c0-2.445-1.368-3.654-4.119-3.654v-2.973h35.058v37.536h-3.207c-1.074-11.91-2.757-20.034-5.046-24.387-2.289-4.341-5.733-6.582-10.305-6.741v38.901c4.125 1.368 6.255-4.35 6.414-17.166l3.21.237v46.914h-3.21c0-12.357-2.136-19.008-6.414-19.905v48.744c0 4.419 1.059 6.099 3.207 5.022l.237 3.441h-19.266l-.234-3.441c2.601.915 3.831-.678 3.675-4.803zm-71.628 2.751c-.156-3.963-1.677-6.018-4.575-6.174v-3.438h20.844v3.207c-3.048.309-4.572 2.442-4.572 6.399l.057 96.246c5.769-.387 10.248-13.398 13.455-39.018h2.991v46.224h-33.012v-3.201c3.051-.315 4.656-2.124 4.812-5.493zm-38.856 103.446v-1.599c1.839-1.836 2.448-8.397 1.839-19.686h-5.73c-.921 11.289-.39 17.85 1.605 19.686v1.599h-14.901v-1.599c1.233-.156 2.247-.645 3.084-1.479.846-.846 3.402-37.419 7.692-109.746h11.907c5.652 72.33 8.781 108.9 9.408 109.746.606.834 1.527 1.323 2.739 1.479v1.599zm-3.555-31.128h4.476l-2.289-37.068zm-62.796-73.92c.45-2.754-.783-4.416-3.678-5.04v-2.97h16.272l8.937 63.849v-56.757c0-2.286-.921-3.573-2.757-3.885v-3.207h13.983v2.967c-1.977.471-2.895 3.675-2.742 9.615v100.248h-10.77l-11.01-71.853v64.311c-.453 3.345.705 4.938 3.441 4.803v2.739h-15.588l.237-2.529c2.604-.288 3.813-2.043 3.678-5.244v-97.047zm-38.19-4.803v-3.207h17.637l-.213 3.207c-2.151.309-3.207 1.833-3.207 4.566v95.679c.057 4.497 1.29 6.639 3.654 6.405v3.201h-17.871v-3.201c2.13.318 3.207-1.833 3.207-6.405v-95.673c0-2.739-1.077-4.26-3.207-4.572zm-47.343 3.654c0-2.445-1.371-3.654-4.128-3.654v-2.973h35.061v37.536h-3.207c-1.074-11.91-2.757-20.034-5.046-24.387-2.286-4.341-5.73-6.582-10.302-6.741v38.901c4.125 1.368 6.258-4.35 6.414-17.166l3.204.237v46.914h-3.204c0-12.357-2.13-19.008-6.414-19.905v48.744c0 4.419 1.053 6.099 3.204 5.022l.237 3.441h-19.263l-.234-3.441c2.601.915 3.831-.678 3.678-4.803z" fill="#fff"/></svg>