<svg xmlns="http://www.w3.org/2000/svg"><g fill="#fff"><path d="m193.567 0v233.981h-157.32z"/><path d="m360.206 4.666h75.994v231.314h-75.994z"/><path d="m452.561 4.776c-.813-.024-1.718-.045-2.738-.061l-.466 79.245c.061.002.124-.002.185 0v-.246c1.292-.172 2.595-.258 3.922-.288l15.955-77.66c-6.225-.756-12.089-.839-16.858-.99zm29.26 2.202-22.402 76.797c1.995.275 3.951.712 5.831 1.294l36.798-73.02c-6.5-2.281-13.252-3.999-20.227-5.071zm32.527 10.225-44.005 69.858c1.47.711 2.896 1.529 4.251 2.423l56.53-62.199c-5.273-3.824-10.882-7.194-16.776-10.082zm27.351 18.769-63.245 56.448c1.511 1.312 2.927 2.752 4.209 4.292l74.417-43.328c-4.531-6.316-9.696-12.15-15.381-17.412zm21.15 26.304-77.434 38.173c.888 1.386 1.681 2.827 2.382 4.333l85.011-20.452c-2.554-7.752-5.904-15.134-9.959-22.054zm13.142 33.799-86.634 12.67c.889 2.674 1.486 5.491 1.746 8.398h87.435c-.206-7.208-1.079-14.251-2.547-21.068zm-84.888 28.009c-1.795 18.798-17.555 33.491-36.715 33.491-1.649 0-3.255-.118-4.846-.329v-1.601c-.061.001-.124-.002-.185 0v80.014c6.561-.047 9.947-.321 15.052-.321 61.87 0 112.246-49.483 114.129-111.254z"/><path d="m325.218 0v233.981h-157.321z"/><path d="m0 307.914 29.754-49.424c1.417-2.825 2.834-4.237 4.251-4.237h21.253v6.566l1.417-2.329c1.417-2.825 2.833-4.237 4.25-4.237h25.504v53.661h-17.003v-42.364l-25.504 42.364h-17.002l25.504-42.364h-8.502c-.944 0-1.888.471-2.833 1.413l-24.087 40.951zm109.099-21.182v9.886h39.671v11.296h-56.674v-35.303c0-.942.236-1.883.708-2.825l7.793-14.121c.473-.942 1.417-1.412 2.834-1.412h45.339v11.297h-34.005c-.944 0-1.653.471-2.125 1.413l-3.541 8.473h39.671l-5.668 11.296zm62.341 9.886h28.337v-9.886h-11.335l5.667-11.296h22.67v29.655c0 1.882-.944 2.823-2.834 2.823h-56.673c-1.89 0-2.834-.941-2.834-2.823v-32.48c0-.942.236-1.883.708-2.825l7.793-14.121c.472-.942 1.416-1.412 2.833-1.412h48.173v11.297h-36.838c-.944 0-1.652.471-2.125 1.413l-3.542 8.473zm121.85 11.296h-19.836l-7.793-11.296h-20.545l-5.667-10.239v21.535h-17.002v-53.661h32.588c1.417 0 2.834 1.412 4.251 4.237zm-35.492-22.594-12.682-18.357c-.944-.942-1.888-1.413-2.833-1.413h-2.834v19.77z"/><path d="m323.819 297.266h20.567c.979 0 1.714-.441 2.203-1.326l6.243-13.413.368-1.474-.368-1.474-6.243-13.265c-.489-.983-1.224-1.475-2.203-1.475h-20.567zm-17.629-44.218h49.214c1.468 0 2.693.983 3.673 2.948l11.384 23.583.368 1.474-.368 1.474-11.384 23.583c-.98 1.966-2.205 2.948-3.673 2.948h-49.214zm70.515 0h47.009c1.47 0 2.693.983 3.673 2.948l7.713 16.213.367 1.475-.367 1.473-11.386 13.266 11.753 20.635h-17.629l-16.894-28.005h8.815c.979 0 1.714-.246 2.203-.737l5.876-6.632-2.938-7.37c-.49-.983-1.224-1.475-2.204-1.475h-18.362v44.219h-17.629zm82.266 56.01h-17.628v-56.01h17.628zm23.505-37.585 17.629 25.793 17.628-25.793v-18.425h17.629v20.636c0 1.964-.245 3.439-.735 4.421l-19.832 30.953h-29.38l-19.832-30.953c-.491-.982-.735-2.457-.735-4.421v-20.636h17.628zm76.391 15.476v10.317h41.133v11.792h-58.761v-36.849c0-.982.244-1.965.734-2.947l8.079-14.74c.49-.983 1.47-1.474 2.939-1.474h47.009v11.791h-35.257c-.98 0-1.714.492-2.203 1.475l-3.673 8.843h41.133l-5.876 11.792z"/></g><path d="m126.42 359.756 4.084-6.127h22.208l5.233-8.36-5.233-6.573c-.702-.936-1.723-1.404-3.063-1.404h-8.934l4.084-6.126h12.252c1.362 0 2.511.596 3.447 1.786l2.872 3.639 3.892-6.319c1.362-2.126 3.403-3.191 6.127-3.191h8.168l-11.359 18.22 11.359 14.455h-12.253l-4.499-5.744-2.393 3.829c-.851 1.276-1.957 1.915-3.318 1.915z" fill="#ccc"/><path d="m189.726 339.334v-6.126h12.508l1.659-2.808c1.446-2.212 3.531-3.319 6.254-3.319h8.168l-3.829 6.127h9.956c1.361 0 2.552.723 3.573 2.17l7.786 10.848c.596.851.681 1.745.256 2.681l-6 8.679c-1.021 1.447-2.211 2.17-3.573 2.17h-16.337v-6.127h8.168c1.361 0 2.468-.51 3.318-1.532l2.171-3.701c.425-.595.425-1.191 0-1.786l-4.085-5.872c-.744-.936-1.893-1.404-3.446-1.404h-5.615l-12.764 20.422h-12.253l12.764-20.422zm34.716-12.253h8.168l8.552 11.998-3.446 6.382zm10.594 0h13.912l-6.51 10.211z" fill="#ccc"/><path d="m269.369 359.756v-32.675h12.252v8.169h20.421c1.362 0 2.511.724 3.447 2.17l6.764 10.083h-12.253l-2.552-4.084c-1.021-1.362-2.213-2.043-3.574-2.043h-12.253v18.38zm24.505-26.548-4.084-6.127h8.169l4.083 6.127zm10.211 0-4.085-6.127h8.169l4.084 6.127z" fill="#ccc"/><path d="m316.337 333.208v-6.127h42.886v6.127zm0 8.168v-6.126h42.886v6.126c-.001 1.362-.298 2.681-.894 3.957l-6.254 12.508c-.681 1.276-1.702 1.915-3.064 1.915h-26.547v-6.127h16.337c1.361 0 2.425-.68 3.191-2.042l4.978-10.211z" fill="#ccc"/><path d="m363.306 339.334v-6.126h29.484c1.446 0 2.552-.681 3.318-2.042l1.914-4.085h12.253l-4.084 8.169c-1.362 2.723-3.403 4.084-6.126 4.084h-8.169v20.422h-12.252v-20.422z" fill="#ccc"/><path d="m454.181 353.119-3.829 4.595c-.851 1.361-1.957 2.042-3.319 2.042h-32.673v-6.127h22.463c1.085 0 2.063-.68 2.936-2.042l1.148-1.946v-16.433h-26.547v-6.127h40.842v22.464c0 1.362-.34 2.552-1.021 3.574zm5.105-13.785 6.127-12.253h8.168l-6.126 12.253zm-2.042 0v-12.253h6.127z" fill="#ccc"/></svg>