<svg xmlns="http://www.w3.org/2000/svg"><path d="m252.975 57.348-35.643 52.706 29.197 26.921 61.806-46.259z" fill="#fff" fill-rule="evenodd"/><circle cx="293.671" cy="56.976" fill="#fff" r="44.538"/><g fill-rule="evenodd"><path d="m327.769 56.976c.03 26.249-28.366 42.688-51.112 29.59-10.582-6.093-17.098-17.38-17.084-29.59-.031-26.249 28.365-42.687 51.112-29.589 10.582 6.093 17.098 17.379 17.084 29.589z" fill="#141414"/><path d="m320.866 56.995c-.012 20.935-22.682 34.006-40.807 23.528-8.401-4.858-13.579-13.825-13.583-23.528-.013-20.936 22.642-34.034 40.778-23.577 8.427 4.86 13.618 13.849 13.612 23.577z" fill="#fff"/><path d="m249.575 131.702c.007 21.016-22.739 34.159-40.944 23.657-8.454-4.877-13.662-13.897-13.657-23.657-.008-21.017 22.738-34.16 40.942-23.657 8.455 4.877 13.662 13.896 13.659 23.657z" fill="#fff"/><path d="m242.656 131.702c0 16.167-16.985 26.272-30.574 18.188-6.306-3.752-10.191-10.684-10.191-18.188 0-16.168 16.986-26.272 30.575-18.189 6.306 3.752 10.19 10.685 10.19 18.189z" fill="#141414"/><path d="m74.76 60.381c.005 21.017-22.743 34.157-40.947 23.654-8.452-4.878-13.659-13.896-13.656-23.654-.004-21.016 22.743-34.157 40.946-23.652 8.452 4.876 13.659 13.894 13.657 23.652z" fill="#fff"/><path d="m67.955 60.381c.004 15.301-17.073 24.868-30.74 17.222-6.345-3.551-10.255-10.116-10.252-17.222-.005-15.301 17.073-24.868 30.738-17.222 6.347 3.551 10.255 10.118 10.254 17.222z" fill="#141414"/><rect fill="#fff" height="35.283" rx="13.681" transform="matrix(.925867 .377849 -.377849 .925867 .000009 0)" width="219.515" x="51.308" y="20.625"/></g><path d="m387.513 43.184v10.573c-2.48-1.227-4.901-2.154-7.26-2.778-2.361-.624-4.589-.937-6.688-.937-2.782 0-4.841.424-6.172 1.272-1.331.847-1.997 2.164-1.997 3.949 0 1.336.443 2.385 1.331 3.144.908.736 2.542 1.371 4.902 1.907l4.963 1.103c5.022 1.116 8.592 2.812 10.711 5.086 2.117 2.276 3.175 5.51 3.175 9.702 0 5.511-1.482 9.614-4.447 12.313-2.945 2.677-7.453 4.015-13.524 4.015-2.864 0-5.74-.302-8.624-.903-2.885-.602-5.769-1.495-8.654-2.677v-10.873c2.885 1.695 5.669 2.977 8.352 3.848 2.703.847 5.306 1.27 7.806 1.27 2.542 0 4.488-.468 5.84-1.405 1.351-.937 2.026-2.274 2.026-4.015 0-1.56-.463-2.765-1.391-3.613-.908-.847-2.734-1.606-5.476-2.275l-4.508-1.103c-4.519-1.071-7.828-2.778-9.925-5.12-2.078-2.341-3.116-5.498-3.116-9.469 0-4.972 1.452-8.799 4.357-11.476 2.904-2.675 7.079-4.014 12.526-4.014 2.482 0 5.033.213 7.654.636 2.623.401 5.336 1.014 8.139 1.84z" fill="#fff"/><path d="m399.471 41.612h41.633v9.736h-14.977v40.216h-11.649v-40.216h-15.007z" fill="#fff"/><path d="m451.216 41.612h31.436v9.736h-19.787v9.301h18.607v9.736h-18.607v11.442h20.454v9.737h-32.103z" fill="#fff"/><path d="m525.108 82.462h-18.215l-2.873 9.102h-11.71l16.732-49.952h13.888l16.732 49.952h-11.709zm-15.31-9.267h12.376l-6.173-19.874z" fill="#fff"/><path d="m549.743 41.612h14.827l10.286 26.732 10.348-26.732h14.796v49.952h-11.014v-36.537l-10.408 26.934h-7.383l-10.408-26.934v36.537h-11.044z" fill="#fff"/></svg>