<svg preserveAspectRatio="none" xmlns="http://www.w3.org/2000/svg"><g fill="#1e1e1e"><path d="m582.736 237.421v-19.424h28.752v-105.812c-.007-3.388-2.746-6.128-6.134-6.134h-222.357c-3.389.006-6.129 2.746-6.134 6.133l-.001 105.812h28.754v18.977h-1.534v-17.444h-28.753v-107.346c0-4.234 3.434-7.667 7.668-7.667l222.357.001c4.235 0 7.668 3.433 7.668 7.667v107.346l-28.753-.002v17.893z" transform="matrix(.965926 -.258819 .258819 .965926 -27.411279 133.727515)"/><path d="m413.923 347.338c-4.237 0-7.668-3.434-7.668-7.667v-114.246h1.532l.001 114.246c.006 3.388 2.747 6.127 6.135 6.135h222.356c3.388-.009 6.127-2.747 6.135-6.135l-.001-114.246h1.533l.001 114.246c0 4.232-3.434 7.667-7.668 7.667z" transform="matrix(.965926 -.258819 .258819 .965926 -56.228589 145.664318)"/><path d="m399.355 236.202v-.001-.768-.766l219.805.002c4.092-.01 7.402-3.318 7.409-7.413-.007-4.091-3.317-7.403-7.409-7.411h-219.805c-4.092.006-7.402 3.317-7.411 7.411.009 4.095 3.319 7.406 7.411 7.413v.764.768c-4.938 0-8.943-4.005-8.944-8.945.001-4.941 4.006-8.944 8.944-8.944h219.805c4.938 0 8.942 4.003 8.942 8.944 0 4.94-4.004 8.945-8.942 8.945h-219.805z" transform="matrix(.965926 -.258819 .258819 .965926 -41.465933 139.548838)"/><path d="m434.51 213.34c-2.12 0-3.834-1.716-3.836-3.834v-88.432c.002-2.117 1.716-3.834 3.836-3.834h116.29c2.118 0 3.831 1.716 3.831 3.834v88.432c0 2.116-1.713 3.833-3.831 3.833h-116.29zm-2.303-92.266v88.432c.005 1.269 1.032 2.297 2.303 2.3h116.29c1.269-.003 2.297-1.031 2.3-2.3v-88.432c-.003-1.27-1.031-2.297-2.3-2.3h-116.29c-1.272.003-2.298 1.03-2.303 2.3z" transform="matrix(.965926 -.258819 .258819 .965926 -25.993461 133.139788)"/><path d="m438.599 207.973c-1.271-.002-2.3-1.029-2.302-2.301l.002-80.763c0-1.271 1.029-2.301 2.3-2.301h108.111c1.27 0 2.299 1.03 2.299 2.301v80.763c0 1.27-1.029 2.301-2.299 2.301zm-.767-83.065-.001 80.764c.001.421.345.765.768.766h108.111c.425-.001.765-.342.767-.766v-80.764c-.002-.423-.342-.766-.767-.767h-108.111c-.423.001-.767.344-.767.767z" transform="matrix(.965926 -.258819 .258819 .965926 -25.993586 133.140148)"/><path d="m462.753 332.106v-91.819c0-1.694 1.372-3.065 3.067-3.065l118.462-.002c1.695.002 3.067 1.373 3.067 3.067v91.819c0 1.692-1.372 3.067-3.067 3.067l-118.462.001c-1.695-.001-3.067-1.376-3.067-3.068zm1.533-91.819v91.819c.002.848.687 1.53 1.534 1.533h118.462c.847-.003 1.531-.687 1.533-1.533h.001l-.001-91.819c-.002-.847-.686-1.532-1.533-1.533h-118.462c-.847.001-1.532.686-1.534 1.533z" transform="matrix(.965926 -.258819 .258819 .965926 -56.18255 145.645085)"/><path d="m470.132 328.655c-.846 0-1.533-.688-1.533-1.532v-81.85c0-.85.687-1.535 1.533-1.535h109.837c.847 0 1.533.685 1.533 1.535v81.85c0 .846-.686 1.532-1.533 1.532zm0-83.382v81.85h109.837v-81.85-.002h-109.837z" transform="matrix(.965926 -.258819 .258819 .965926 -56.182435 145.644943)"/><path d="m429.153 317.558c-.847 0-1.534-.687-1.534-1.534v-9.248h-9.25c-.847 0-1.532-.687-1.532-1.533v-10.16c0-.848.685-1.534 1.532-1.534h9.25v-9.249c0-.847.687-1.532 1.534-1.532h10.159c.847 0 1.533.685 1.533 1.532v9.249h9.249c.848 0 1.533.686 1.533 1.534v10.16c0 .847-.685 1.533-1.533 1.533h-9.249v9.248c0 .847-.687 1.533-1.533 1.533h-10.159zm0-1.534h10.159v-9.345c.004-.236.019-.568.271-.92.256-.359.733-.531 1.152-.516h9.36v-10.16h-9.313c-.303 0-.683-.065-1.01-.349-.329-.288-.466-.732-.46-1.135v-9.299h-10.158v9.33c-.002.287-.058.646-.32.97-.263.329-.712.494-1.118.484h-9.345v10.159h9.266c.3.011.631-.006 1.028.265.406.301.496.783.489 1.126v9.39z" transform="matrix(.965926 -.258819 .258819 .965926 -62.891801 122.615277)"/><path d="m597.456 235.009c0-4.023 3.261-7.284 7.283-7.284 4.024 0 7.285 3.261 7.285 7.284 0 4.022-3.261 7.285-7.285 7.285-4.022 0-7.283-3.261-7.283-7.285zm1.532 0c.006 3.177 2.576 5.745 5.751 5.752 3.178-.007 5.746-2.575 5.751-5.752-.005-3.177-2.573-5.744-5.751-5.751-3.175.007-5.745 2.574-5.751 5.751z" transform="matrix(.965926 -.258819 .258819 .965926 -40.218915 164.525939)"/><path d="m604.502 261.303c0-4.025 3.26-7.286 7.283-7.286 4.023 0 7.284 3.261 7.284 7.286 0 4.02-3.261 7.283-7.284 7.283-4.023 0-7.283-3.261-7.283-7.283zm1.531 0c.006 3.175 2.576 5.743 5.752 5.75 3.177-.007 5.745-2.575 5.75-5.75-.005-3.179-2.573-5.746-5.75-5.753-3.176.007-5.746 2.575-5.752 5.753z" transform="matrix(.965926 -.258819 .258819 .965926 -46.783713 167.245328)"/><path d="m587.91 251.724c0-4.023 3.263-7.285 7.285-7.285 4.022 0 7.284 3.262 7.284 7.285 0 4.021-3.262 7.284-7.284 7.284-4.022 0-7.285-3.261-7.285-7.284zm1.534 0c.007 3.176 2.575 5.744 5.751 5.751 3.176-.007 5.744-2.575 5.75-5.751-.006-3.178-2.574-5.747-5.75-5.751-3.176.004-5.746 2.575-5.751 5.751z" transform="matrix(.965926 -.258819 .258819 .965926 -44.870069 162.624879)"/><path d="m614.451 244.612c0-4.022 3.261-7.284 7.284-7.284 4.022 0 7.283 3.262 7.283 7.284 0 4.024-3.261 7.284-7.283 7.284-4.023 0-7.284-3.26-7.284-7.284zm1.533 0c.007 3.177 2.574 5.745 5.751 5.752 3.176-.007 5.745-2.575 5.75-5.752-.005-3.177-2.574-5.744-5.75-5.751-3.177.007-5.746 2.576-5.751 5.751z" transform="matrix(.965926 -.258819 .258819 .965926 -42.125148 169.251625)"/><path d="m599.676 295.071c0-2.259 1.831-4.09 4.09-4.09 2.257 0 4.088 1.831 4.088 4.09 0 2.258-1.831 4.087-4.088 4.087-2.261 0-4.09-1.828-4.09-4.087zm1.533 0c.003 1.409 1.144 2.552 2.557 2.554 1.411-.002 2.552-1.145 2.555-2.554-.003-1.412-1.144-2.555-2.555-2.556-1.413.001-2.554 1.144-2.557 2.556z" transform="matrix(.965926 -.258819 .258819 .965926 -55.796798 166.320082)"/><path d="m603.183 308.155c0-2.259 1.831-4.09 4.089-4.09 2.258 0 4.088 1.831 4.088 4.09 0 2.258-1.83 4.089-4.088 4.089-2.26 0-4.089-1.831-4.089-4.089zm1.532 0c.004 1.411 1.145 2.551 2.557 2.556 1.412-.005 2.554-1.145 2.555-2.556-.001-1.411-1.143-2.552-2.555-2.556-1.412.004-2.553 1.145-2.557 2.556z" transform="matrix(.965926 -.258819 .258819 .965926 -59.063967 167.673481)"/><g transform="matrix(.740623 -.198449 .198449 .740623 252.087708 155.030014)"><path d="m185.135 162.63c-1.657 0-2.999-1.344-2.999-3v-5.25c0-1.658 1.342-3 2.999-3h5.251c1.656 0 2.998 1.342 3 3v5.25c-.002 1.656-1.344 3-3 3zm-.999-8.252v5.252c0 .549.447.996.999.998h5.251c.55-.002.997-.449 1-.998v-5.252c-.002-.551-.45-.998-1-.998h-5.251c-.552 0-.999.447-.999.998z"/><path d="m408.803 162.628c-1.657 0-2.999-1.342-2.999-2.998v-5.252c0-1.655 1.342-2.998 2.999-2.998h5.251c1.656 0 2.997 1.34 2.999 2.998v5.252c-.002 1.658-1.343 2.998-2.999 2.998zm-1.001-8.25v5.252c.002.552.448.998 1.001.998h5.251c.549 0 .997-.447.999-.998v-5.252c-.002-.549-.45-.998-.999-1h-5.251c-.553.002-.999.449-1.001 1z"/></g><g transform="matrix(.740623 -.198449 .198449 .740623 252.087708 155.030014)"><path d="m185.136 38.629c-1.658 0-3-1.344-3-3v-5.251c0-1.656 1.342-3 3-3h5.25c1.658 0 3 1.343 3 3v5.251c0 1.656-1.341 3-3 3zm-1.001-8.251v5.251c.002.55.449.999 1 .999h5.25c.552 0 .999-.449 1-.999v-5.251c-.002-.55-.448-.999-1-1h-5.25c-.551.002-.998.451-1 1z"/><path d="m408.803 38.628c-1.657 0-2.999-1.343-2.999-2.999v-5.251c0-1.656 1.342-2.999 2.999-2.999h5.251c1.656 0 2.997 1.341 2.999 2.999v5.251c-.002 1.658-1.343 2.999-2.999 2.999zm-1.001-8.249v5.251c.002.553.448.999 1.001.999h5.251c.549 0 .997-.448.999-.999v-5.251c-.002-.551-.45-.999-.999-1.001h-5.251c-.553.002-.999.449-1.001 1.001z"/></g><path d="m609.026 205.363c0 .425-.344.767-.767.767h-.254c-.423 0-.767-.342-.767-.767v-9.201c0-.423.344-.766.767-.766h.254c.423 0 .767.343.767.766z" transform="matrix(.965926 -.258819 .258819 .965926 -31.239687 164.236923)"/><path d="m612.977 204.305c0 .424-.344.767-.767.767h-.254c-.423 0-.767-.343-.767-.767v-9.201c0-.423.344-.767.767-.767h.254c.423 0 .767.344.767.767z" transform="matrix(.965926 -.258818 .258818 .965926 -30.831083 165.223098)"/><path d="m510.387 228.448c0 .634-.515 1.15-1.15 1.15-.635 0-1.15-.516-1.15-1.15v-4.025c0-.637.515-1.15 1.15-1.15.635 0 1.15.513 1.15 1.15z" transform="matrix(.965926 -.258819 .258819 .965926 -41.253983 139.515792)"/><g transform="matrix(.740623 -.198449 .198449 .740623 252.087708 155.030014)"><circle cx="405.563" cy="90.942" r="1.563"/><circle cx="417.188" cy="90.942" r="1.563"/><circle cx="428.813" cy="90.942" r="1.563"/><circle cx="405.563" cy="102.317" r="1.563"/><circle cx="417.188" cy="102.317" r="1.563"/><circle cx="428.813" cy="102.317" r="1.563"/><circle cx="170.376" cy="90.942" r="1.563"/><circle cx="182.001" cy="90.942" r="1.563"/><circle cx="193.626" cy="90.942" r="1.563"/><circle cx="170.376" cy="102.317" r="1.563"/><circle cx="182.001" cy="102.317" r="1.563"/><circle cx="193.626" cy="102.317" r="1.563"/></g></g></svg>