<svg xmlns="http://www.w3.org/2000/svg" width="620" height="100" viewBox="0 0 620 100">
  <path fill="#FFF" d="M600.832,9.643 L600.907,22.948 L599.727768,22.7204249 C590.92019,20.9666134 582.864681,18.211 570.64,18.211 C556.954,18.211 551.119,22.585 551.119,27.049 C551.119,33.3018764 559.51128,36.4062473 574.292851,41.7052181 L577.810889,42.9688288 C598.520079,50.4743773 610,56.51836 610,69.334 C610,83.005 594.718,92.848 560.251,92.848 L558.304375,92.8420814 C545.189545,92.7611963 535.833163,91.8513023 525.484,90.115 L525.484,75.805 C533.212,78.904 549.535,81.364 562.276,81.364 C576.217,81.364 581.986,76.627 581.986,70.612 C581.986,65.2645333 576.863487,62.1829037 562.246385,56.7678762 L559.397326,55.7180095 C539.756472,48.4614679 525.547,42.40957 525.547,29.236 C525.547,15.43144 543.359337,7.1664052 570.586074,7.00248496 L571.414,7 C586.288,7 591.391,7.912 600.832,9.643 Z M390.151,52.567 C394.778309,52.567 398.552507,56.2570655 398.688221,60.8745372 L398.692,61.132 L398.692,84.28 C398.692,88.8454545 395.001935,92.7052853 390.407177,92.8441335 L390.151,92.848 L357.664,92.848 C353.045527,92.848 349.262814,89.0711775 349.126787,84.5328913 L349.123,84.28 L349.123,61.132 C349.123,56.4811273 352.821741,52.7065005 357.408296,52.5707788 L357.664,52.567 L390.151,52.567 Z M459.277,7.183 C472.69,7.183 488.038,9.553 496.168,13.198 C515.914,22.129 522.349,36.436 522.349,49.924 C522.349,63.412 515.971,77.719 496.15,86.65 C488.038,90.295 472.69,92.665 459.277,92.665 L408.004,92.665 L408.004,7.183 L459.277,7.183 Z M389.869,59.494 L357.955,59.494 C357.073947,59.494 356.357139,60.1482825 356.284126,60.9900496 L356.278,61.132 L356.278,84.19 C356.278,85.054 356.948438,85.8345319 357.809761,85.9142998 L357.955,85.921 L389.869,85.921 C390.741526,85.921 391.457886,85.1859418 391.530876,84.3331213 L391.537,84.19 L391.537,61.132 C391.537,60.2708421 390.866562,59.5712355 390.012892,59.4999781 L389.869,59.494 Z M452.122,18.757 L435.718,18.757 L435.718,80.908 L452.122,80.908 C477.301,80.908 493.186,70.063 493.186,49.924 C493.186,29.785 477.301,18.757 452.122,18.757 Z M16.369,7.456 L46.564,36.802 L46.564,7.456 L53.917,7.456 L53.917,47.737 L48.094,47.737 L17.455,17.935 L17.455,47.737 L10,47.737 L10,7.456 L16.369,7.456 Z M91.099,7.456 L121.291,36.802 L121.291,7.456 L128.656,7.456 L128.656,47.737 L122.833,47.737 L92.194,17.935 L92.194,47.737 L84.739,47.737 L84.739,7.456 L91.099,7.456 Z M245.998,7.456 L276.19,36.802 L276.19,7.456 L283.555,7.456 L283.555,47.737 L277.738,47.737 L247.09,17.935 L247.09,47.737 L239.638,47.737 L239.638,7.456 L245.998,7.456 Z M73.045,7.456 L73.045,47.737 L65.59,47.737 L65.59,7.456 L73.045,7.456 Z M180.793,7.456 L180.793,14.383 L162.82,14.383 L162.82,47.737 L155.074,47.737 L155.074,14.383 L137.104,14.383 L137.104,7.456 L180.793,7.456 Z M228.574,7.456 L228.574,14.383 L196.621,14.383 L196.621,23.404 L221.338,23.404 L221.338,30.331 L196.621,30.331 L196.621,40.81 L228.574,40.81 L228.574,47.737 L189.241,47.737 L189.241,7.456 L228.574,7.456 Z M324.79,7.456 C330.004,7.456 334.315,9.46 337.231,13.381 C339.964,16.933 341.413,21.856 341.413,27.595 C341.413,33.337 339.964,38.26 337.231,41.812 C334.391737,45.5392632 330.229929,47.6254328 325.199747,47.73265 L324.79,47.737 L294.919,47.737 L294.919,7.456 L324.79,7.456 Z M390.151,7.456 C394.778309,7.456 398.552507,11.1460654 398.688221,15.7635372 L398.692,16.021 L398.692,39.169 C398.692,43.8228182 395.001935,47.5974985 390.407177,47.7332212 L390.151,47.737 L357.664,47.737 C353.045527,47.737 349.262814,44.0469345 349.126787,39.4266235 L349.123,39.169 L349.123,16.021 C349.123,11.3701273 352.821741,7.5955005 357.408296,7.45977882 L357.664,7.456 L390.151,7.456 Z M325,14.383 L302.107,14.383 L302.107,40.81 L325,40.81 C332.164,40.81 334.708,33.61 334.708,27.595 C334.708,21.5797794 332.238273,14.5918127 325.313068,14.3875851 L325,14.383 Z M389.869,14.383 L357.955,14.383 C357.073947,14.383 356.357139,15.0372825 356.284126,15.8790496 L356.278,16.021 L356.278,39.169 C356.278,39.9477368 356.948438,40.7237812 357.809761,40.8033129 L357.955,40.81 L389.869,40.81 C390.741526,40.81 391.457886,40.0749418 391.530876,39.2986456 L391.537,39.169 L391.537,16.021 C391.537,15.1598421 390.866562,14.4602355 390.012892,14.3889781 L389.869,14.383 Z"/>
</svg>