<svg xmlns="http://www.w3.org/2000/svg"><g fill="#fff"><path d="m381.537 77.19c0 .912-.747 1.731-1.668 1.731h-31.914c-.93 0-1.677-.819-1.677-1.731v-23.058c0-.909.747-1.638 1.677-1.638h31.914c.921 0 1.668.729 1.668 1.638zm-1.386-31.623h-32.487c-4.704 0-8.541 3.828-8.541 8.565v23.148c0 4.65 3.837 8.568 8.541 8.568h32.487c4.713 0 8.541-3.918 8.541-8.568v-23.148c0-4.737-3.828-8.565-8.541-8.565"/><path d="m7.455 10.935v29.802c-.393 0-7.053 0-7.455 0 0-.456 0-39.825 0-40.281h6.369l30.195 29.346s0-28.89 0-29.346h5.967 1.386v40.281c-.402 0-5.622 0-5.823 0z"/><path d="m82.194 10.935v29.802c-.402 0-7.047 0-7.455 0 0-.456 0-39.825 0-40.281h6.36l30.192 29.346s0-28.89 0-29.346h5.979 1.386v40.281c-.411 0-5.625 0-5.823 0z"/><path d="m237.09 10.935v29.802c-.408 0-7.044 0-7.452 0 0-.456 0-39.825 0-40.281h6.36l30.192 29.346s0-28.89 0-29.346h5.979 1.386v40.281c-.411 0-5.625 0-5.817 0z"/><path d="m61.671.456h1.374v40.281c-.39 0-7.053 0-7.455 0 0-.456 0-39.825 0-40.281z"/><path d="m169.425.456h1.368v6.927c-.438 0-17.973 0-17.973 0v33.354c-.399 0-7.344 0-7.746 0 0-.456 0-33.354 0-33.354s-17.532 0-17.97 0c0-.366 0-6.561 0-6.927z"/><path d="m217.179.456h1.395v6.927c-.429 0-31.953 0-31.953 0v9.021h24.717v6.927c-.42 0-24.717 0-24.717 0v10.479h31.953v6.927c-.429 0-38.904 0-39.333 0 0-.456 0-39.825 0-40.281z"/><path d="m315 33.81h-22.893v-26.427h22.893c7.164 0 9.708 7.107 9.708 13.212 0 6.015-2.544 13.215-9.708 13.215zm12.231-27.429c-2.916-3.921-7.227-5.925-12.441-5.925 0 0-29.436 0-29.871 0v40.281h29.871c5.214 0 9.525-2.097 12.441-5.925 2.733-3.552 4.182-8.475 4.182-14.217 0-5.739-1.449-10.662-4.182-14.214"/><path d="m381.537 32.169c0 .822-.747 1.641-1.668 1.641h-31.914c-.93 0-1.677-.819-1.677-1.641v-23.148c0-.909.747-1.638 1.677-1.638h31.914c.921 0 1.668.729 1.668 1.638zm-1.386-31.713h-32.487c-4.704 0-8.541 3.828-8.541 8.565v23.148c0 4.74 3.837 8.568 8.541 8.568h32.487c4.713 0 8.541-3.828 8.541-8.568v-23.148c0-4.737-3.828-8.565-8.541-8.565"/><path d="m515.484 68.805c7.728 3.099 24.051 5.559 36.792 5.559 13.941 0 19.71-4.737 19.71-10.752 0-5.469-5.358-8.568-20.751-14.217-20.586-7.566-35.688-13.578-35.688-27.159 0-13.944 18.174-22.236 45.867-22.236 14.874 0 19.977.912 29.418 2.643l.075 13.305c-9.279-1.731-17.499-4.737-30.267-4.737-13.686 0-19.521 4.374-19.521 8.838 0 6.471 8.988 9.57 24.744 15.219 21.936 7.839 34.137 13.854 34.137 27.066 0 13.671-15.282 23.514-49.749 23.514-14.151 0-23.913-.912-34.767-2.733z"/><path d="m442.122 11.757h-16.404v62.151h16.404c25.179 0 41.064-10.845 41.064-30.984s-15.885-31.167-41.064-31.167zm44.028 67.893c-8.112 3.645-23.46 6.015-36.873 6.015h-51.273v-85.482h51.273c13.413 0 28.761 2.37 36.891 6.015 19.746 8.931 26.181 23.238 26.181 36.726s-6.378 27.795-26.199 36.726"/></g></svg>