<svg xmlns="http://www.w3.org/2000/svg"><path d="m136.074284 4.13499989.449716.23000011c6.546 3.27 16.209 13.089 16.209 16.206l.004633.2759867c.116845 3.2905316 2.423854-1.18161 4.649841-9.0026584l2.668526-9.5073283 11.532-.468 11.532-.465 7.482 12.153 7.323 12.156v-24.156h21.819v71.844l-20.571-.933-8.415-14.805-8.415-14.649-.003432 16.4777989c-.048931 13.1624857-.76214 13.7289762-10.868214 13.7522801l-12.507354.000921-.003605-26.8332754c-.046412-17.2437896-.554995-21.3509246-2.333395-21.9437246l-.239604-.1039973c-1.485646-.6091925-1.576128.1000461-.537396 3.0649973 3.582 9.351.621 24-7.014 34.128-9.195 11.844-29.61 16.677-43.635 10.287-13.56-6.078-24.156-24.936-21.663-38.181l.1561519-1.1026219c.3427902-2.5821136.4300299-4.5073781.1558481-4.5073781-.468 0-3.117 10.44-5.922 23.376l-5.301 23.376h-22.597l-2.649-12-.211918-1.024637c-2.276365-10.7860475-5.0286902-16.9139048-5.0851973-11.7639769l-.0008847.1646139c0 1.1461224-.9209913 6.4974302-2.1565013 12.0711887l-2.8324987 12.5528113h-22.44l-7.482-34.599-4.6901025-23.0886652c-1.507161-7.5073679-2.4893199-12.63554084-2.48202131-13.45775274l.00512381-.07458206c0-3.117 21.663-2.805 22.752.156l.0574081.16688627c.5063567 1.58188296 1.7004765 7.88188293 2.7475919 14.32611373l2.028 12.156 1.713-6.078.8234063-3.0538594c.9205312-3.4628906 2.0595937-7.9336406 2.7615937-11.4391406l1.869-8.262h17.766l4.1308285 15.6635711c1.8712267 7.0087026 3.5283005 11.8711063 3.8201715 11.1414289l.0382756-.1280087c.3529174-1.2761483 1.3980452-7.291897 2.2987244-13.7409913l1.869-12.156 15.851406-.60105c9.865314-.3321 9.053694.36855 5.967594 13.69305l-.1714.6782296c-1.2824646 5.1706975-1.834225 9.6252704-1.3886 10.0737704.4457143.4457143.749932.042449.7778944-.9376871l.0021056-.1513129c0-4.209 9.819-15.897 16.674-19.95 9.362955-5.37136364 23.86458-5.90667355 33.681284-1.00700011zm376.343716-4.13499989c11.844 0 18.387 2.493 25.713 9.819 17.61 17.766 13.092 48.465-8.727 59.22-10.443 5.142-19.014 6.234-26.493 3.585-10.0965-3.6717222-17.638313-9.744966-21.746154-17.3347745l-4.122846-7.7572255-.156 5.142c0 7.638-4.053 13.872-10.911 17.454l-.728543.3641655c-4.705305 2.2727891-8.996116 2.7305528-23.100014 2.7520204l-19.806443.0008141-.005608-30.6736646c-.041998-17.3062272-.371898-18.7170094-2.631348-18.1873423l-.624873.1653873c-2.320435.6075501-2.584355.1423759-1.668269-3.4751275l3.370098-12.8152529 1.716-6.702 26.589555.004521c14.185904.0375243 15.670902.38650029 19.335753 3.631977l.982692.884502c4.521 4.053 5.142 5.61 5.142 12.312 0 5.61-.933 9.195-3.426 12.468l-3.429 4.674 3.273 2.805c1.622842 1.6256842 3.525706 4.0887424 4.384723 5.8000204l.133277.2779796c1.092 2.181 1.248.624.624-4.83-.936-9.507 1.089-16.209 8.103-25.872 6.858-9.504 15.585-13.713 28.209-13.713zm-118.175895 17.05982.200895.39418c4.833 9.351 2.961 20.883-4.83 29.766l-4.365 4.986 12.156 20.262-12.933.465-1.361841.0415452c-8.221809.2207389-11.777752-.265935-12.666159-1.5985452l-.297964-.5084565c-.885681-1.4851854-2.908491-4.7371799-4.688036-7.7505435l-.460071-.7223079c-2.266211-3.5116628-3.230269-4.2666685-3.132789-2.51264l.00786.1179479c.156 1.713 0 5.454 0 8.259l-.312 4.986h-23.376l-.003706-27.7273405c-.040032-17.5014491-.430712-20.5184524-2.424423-20.5806633l-.064871-.0009962c-1.557 0-2.181-.936-1.557-2.649l.223163-.7754628c.601788-2.1353557 1.825452-6.7021526 3.046837-10.9155372l2.496-9.039h17.766c23.45112 0 29.94847 2.5992252 36.576105 15.50282zm169.289895-17.05982 2.961 7.947 3.117 7.95 3.429-7.95 3.585-7.947h11.688c6.858 0 11.688.624 11.688 1.557 0 .936-4.206 9.975-9.351 20.262l-9.351 18.699v32.727h-23.376v-32.727l-10.379469-20.7649954c-4.662707-9.4054978-8.319531-17.32324784-8.319531-18.1960046 0-.91603636 4.806339-1.53420694 11.767092-1.557zm-228.465 1.557c0 1.092-1.401 6.858-3.117 12.624l-3.273 10.755h-9.195c-5.142 0-9.348.621-9.348 1.557 0 .9186667 4.803043 1.5367819 11.317453 1.55936l2.887433.0024343c10.537371.0342798 10.212397.6678057 7.455114 11.8422057l-1.869 7.167-9.819-.624-1.134101-.0453837c-6.330554-.2288669-8.837899.1304746-8.837899 1.6053837 0 1.2238983 3.461605 1.8476691 11.872531 1.8684622l12.748469.0005378-1.245 5.145-.293135 1.0163036c-.803982 2.8345825-1.995865 7.3623502-2.823865 10.6716964l-1.716 6.543h-41.919l-.003568-26.7991309c-.045092-15.9951034-.524385-21.3961521-1.826592-21.5080861l-.04184-.001783c-1.401 0-1.869 2.493-1.401 8.883.61082 11.3429508-1.489245 18.3119162-8.378535 26.3996553l-.348465.4053447c-8.418 9.816-15.429 12.621-32.727 12.621h-14.496l-.003709-28.7592311c-.039817-18.4836085-.428622-20.8043457-2.507314-20.0698666l-.137977.0520977c-2.181.78-2.337.156-1.557-5.142l.2049-1.043205c.66501-3.300885 1.7577-8.029395 2.6001-11.112795l1.713-5.922 16.521.465 3.513797.15316727c12.124452.57328657 14.336132 1.28545626 20.486203 5.14783273 3.894 2.493 8.571 7.011 10.284 9.972l3.117 5.454 2.493-8.415.203146-.6629482c1.271336-4.20694591 2.241976-8.51439624 2.290916-9.69074603l.001938-.08630577c0-1.31976 2.340656-1.950312 7.926475-2.0212271l2.084812-.01214741c5.211475-.05337158 15.291651-.49862549 23.180713-1.08362549l2.200303-.1380927c10.054961-.5961382 12.916697-.2288034 12.916697 1.2270927zm112.83 42.078c-2.886975 0-3.697785.7414875-3.736521 3.6675825l-.001479.2294175c0 3.117.777 3.897 3.738 3.897 2.028 0 4.053-.936 4.521-1.872 1.089-3.582-.624-5.922-4.521-5.922zm-337.086-14.649c-10.287 13.092 5.454 29.766 17.61 18.546 5.298-4.83 5.61-13.713.624-19.014-4.833-5.142-14.028-4.986-18.234.468zm402.072-5.61c-2.397115 0-5.945303 1.2980769-8.294946 3.0594632l-.276054.2135368c-3.273 2.493-4.05 4.521-4.05 9.975l.004978.7228391c.069129 4.7991659.880761 6.774787 3.82571 9.0798631l.219312.1692978c5.457 4.365 13.56 4.209 17.766-.156 7.794-8.415 2.028-23.064-9.195-23.064zm-260.503959 1.5648277-.220041-.0048277c-2.429886 0-2.787805 1.3309612-2.80437 11.6431419l.002324 2.357035c.045979 10.8657418.680689 11.7879894 5.451046 9.9998231 3.897-1.56 7.482-9.663 6.234-14.496-1.373529-5.1941176-4.996194-9.338639-8.662959-9.4991723zm110.745931 3.9693108-.004972.6998615c0 4.1225.417444 4.7662963 3.744215 4.4333796l.617785-.0683796c3.273-.312 4.209-1.248 4.209-4.365s-.936-4.053-4.209-4.362l-.4265-.0488395c-3.297377-.3561583-3.874328.1476099-3.930528 3.710978zm84.928028-7.0911385c-2.805 0-3.894.777-3.894 3.117 0 2.337 1.089 3.117 3.894 3.117s3.897-.78 3.897-3.117c0-2.34-1.092-3.117-3.897-3.117z" fill="#fff"/></svg>