<svg preserveAspectRatio="none" xmlns="http://www.w3.org/2000/svg"><g fill="#1e1e1e"><path d="m365.473 231.816c-3.685 0-6.677 2.992-6.677 6.677v69.614c0 3.686 2.992 6.691 6.677 6.691h253.934c3.686 0 6.678-3.006 6.678-6.691v-69.614c0-3.685-2.992-6.677-6.678-6.677h-104.079v.947h104.079c3.174 0 5.73 2.556 5.73 5.729v69.615c0 3.173-2.557 5.744-5.73 5.744h-253.934c-3.173 0-5.73-2.571-5.73-5.744v-69.614c0-3.173 2.557-5.729 5.73-5.729h123.964v-.948z" transform="matrix(.965926 -.258819 .258819 .965926 -53.957534 136.765606)"/><path d="m358.17 222.616c-3.686 0-6.678 2.992-6.678 6.677v90.862c0 3.686 2.992 6.677 6.678 6.677h269.289c3.684 0 6.692-2.991 6.692-6.677v-90.858c0-3.687-3.004-6.679-6.69-6.679h-111.779-.371l-.088.34-.059.223-.015.059v.074 15.278c0 6.934-5.621 12.541-12.555 12.541-6.933 0-12.539-5.607-12.539-12.541v-15.278-.104l-.03-.074-.085-.223-.133-.295h-.313-131.321zm0 .947h130.937v15.027c0 7.445 6.041 13.488 13.486 13.488 7.447 0 13.503-6.042 13.503-13.488v-15.027h111.361c3.173 0 5.745 2.557 5.745 5.73v90.857c0 3.173-2.572 5.729-5.745 5.729h-269.288c-3.171.005-5.728-2.553-5.728-5.723v-90.861c0-3.173 2.557-5.729 5.73-5.729z" transform="matrix(.965926 -.258819 .258819 .965926 -54.311298 136.912509)"/><path d="m479.16 230.839v6.306c0 8.198 6.653 14.85 14.85 14.85 8.198 0 14.864-6.652 14.864-14.85v-6.262h-.948v6.262c0 7.686-6.231 13.903-13.916 13.903-7.686 0-13.902-6.217-13.902-13.903v-6.306z" transform="matrix(.965926 -.258819 .258819 .965926 -45.650062 136.086932)"/><path d="m475.961 222.252v.948h26.042v-.948z" transform="matrix(.965926 -.258819 .258819 .965926 -40.984046 134.146903)"/><path d="m422.394 275.563c-9.642 0-17.47 7.829-17.47 17.47s7.828 17.47 17.47 17.47c9.641 0 17.469-7.829 17.469-17.47s-7.828-17.47-17.469-17.47zm0 .948c9.129 0 16.522 7.393 16.522 16.523 0 9.128-7.393 16.522-16.522 16.522-9.13 0-16.523-7.394-16.523-16.522 0-9.13 7.393-16.523 16.523-16.523z" transform="matrix(.965926 -.258819 .258819 .965926 -61.449884 119.308548)"/><path d="m422.394 285.041c-4.407 0-7.995 3.587-7.995 7.995 0 4.407 3.587 7.995 7.995 7.995s7.98-3.588 7.98-7.995c0-4.408-3.572-7.995-7.98-7.995zm0 .948c3.895 0 7.033 3.151 7.033 7.047 0 3.894-3.137 7.047-7.033 7.047-3.895 0-7.047-3.153-7.047-7.047 0-3.896 3.151-7.047 7.047-7.047z" transform="matrix(.965926 -.258819 .258819 .965926 -61.450807 119.30656)"/><path d="m422.394 286.785c-3.445 0-6.249 2.803-6.249 6.248s2.804 6.248 6.249 6.248 6.248-2.803 6.248-6.248c-.001-3.444-2.803-6.248-6.248-6.248zm0 .948c2.932 0 5.3 2.368 5.3 5.301 0 2.931-2.368 5.3-5.3 5.3-2.933 0-5.301-2.368-5.301-5.3 0-2.933 2.368-5.301 5.301-5.301z" transform="matrix(.965926 -.258819 .258819 .965926 -61.449793 119.308272)"/><path d="m422.55 280.102c-7.236 0-13.102 5.882-13.102 13.117s5.867 13.103 13.102 13.103 13.117-5.868 13.117-13.103-5.882-13.117-13.117-13.117zm0 .948c6.723 0 12.17 5.447 12.17 12.17s-5.447 12.154-12.17 12.154-12.155-5.432-12.155-12.154c0-6.724 5.432-12.17 12.155-12.17z" transform="matrix(.965926 -.258819 .258819 .965926 -61.490594 119.357021)"/><path d="m483.708 264.917c-6.596 0-11.947 5.352-11.947 11.948s5.352 11.963 11.947 11.963c6.596 0 11.948-5.367 11.948-11.963s-5.352-11.948-11.948-11.948zm0 .948c6.083 0 11 4.917 11 11 0 6.084-4.917 11.015-11 11.015-6.084 0-11-4.932-11-11.015s4.916-11 11-11z" transform="matrix(.965926 -.258819 .258819 .965926 -55.177888 134.627099)"/><path d="m519.274 255.388c-6.596 0-11.948 5.352-11.948 11.948 0 6.595 5.352 11.962 11.948 11.962 6.595 0 11.947-5.367 11.947-11.962 0-6.596-5.352-11.948-11.947-11.948zm0 .947c6.082 0 11 4.917 11 11.001 0 6.083-4.918 11.014-11 11.014-6.085 0-11.001-4.931-11.001-11.014 0-6.084 4.916-11.001 11.001-11.001z" transform="matrix(.965926 -.258819 .258819 .965926 -51.499632 143.507277)"/><path d="m554.839 245.858c-6.596 0-11.948 5.352-11.948 11.948s5.352 11.963 11.948 11.963 11.947-5.367 11.947-11.963-5.351-11.948-11.947-11.948zm0 .948c6.084 0 11 4.916 11 11s-4.916 11.015-11 11.015c-6.083 0-11-4.932-11-11.015s4.917-11 11-11z" transform="matrix(.965926 -.258819 .258819 .965926 -47.821366 152.387469)"/><path d="m590.406 236.328c-6.595 0-11.949 5.352-11.949 11.95 0 6.596 5.352 11.962 11.948 11.962 6.595 0 11.947-5.366 11.947-11.962s-5.352-11.948-11.947-11.948zm0 .947c6.083 0 11 4.917 11 11.001 0 6.083-4.917 11.014-11 11.014-6.084 0-11-4.931-11-11.014s4.916-11.001 11-11.001z" transform="matrix(.965926 -.258819 .258819 .965926 -44.143067 161.26791)"/><path d="m422.292 267.309c-7.066 0-13.458 2.86-18.093 7.491-4.63 4.634-7.489 11.026-7.49 18.092.001 7.066 2.86 13.457 7.49 18.092 4.635 4.632 11.026 7.49 18.093 7.491 7.067-.001 13.457-2.86 18.092-7.491 4.631-4.634 7.49-11.025 7.491-18.092-.001-7.066-2.86-13.458-7.491-18.092-4.634-4.631-11.024-7.491-18.093-7.491zm0 .948c6.811 0 12.962 2.748 17.425 7.21 4.462 4.464 7.21 10.615 7.21 17.425 0 6.811-2.749 12.947-7.21 17.411-4.463 4.461-10.614 7.224-17.425 7.224s-12.961-2.763-17.425-7.224c-4.46-4.463-7.208-10.598-7.209-17.411.001-6.81 2.749-12.96 7.209-17.425 4.462-4.462 10.617-7.21 17.425-7.21z" transform="matrix(.965926 -.258819 .258819 .965926 -61.416749 119.277199)"/><path d="m483.708 262.8c-3.89.001-7.398 1.567-9.949 4.116-2.55 2.552-4.13 6.06-4.131 9.949.001 3.889 1.582 7.413 4.131 9.964 2.551 2.549 6.059 4.115 9.949 4.116 3.889-.001 7.397-1.567 9.949-4.116 2.548-2.551 4.13-6.074 4.13-9.964 0-3.889-1.582-7.397-4.13-9.949-2.552-2.549-6.06-4.115-9.949-4.116zm0 .948c3.634 0 6.901 1.454 9.283 3.834 2.379 2.382 3.848 5.649 3.849 9.283-.001 3.634-1.47 6.9-3.849 9.283-2.382 2.379-5.649 3.849-9.283 3.849-3.635 0-6.901-1.469-9.283-3.849-2.379-2.382-3.848-5.649-3.849-9.283 0-3.634 1.469-6.901 3.849-9.283 2.382-2.38 5.648-3.834 9.283-3.834z" transform="matrix(.965926 -.258819 .258819 .965926 -55.177922 134.626836)"/><path d="m519.274 253.271c-3.891 0-7.398 1.567-9.949 4.116-2.55 2.551-4.13 6.059-4.131 9.949.001 3.889 1.581 7.412 4.131 9.964 2.55 2.549 6.058 4.115 9.949 4.115 3.888-.001 7.396-1.567 9.949-4.115 2.548-2.552 4.129-6.075 4.13-9.964-.001-3.89-1.582-7.398-4.13-9.949-2.553-2.549-6.06-4.116-9.949-4.116zm0 .947c3.633.001 6.9 1.455 9.282 3.835 2.379 2.381 3.849 5.647 3.849 9.283 0 3.634-1.47 6.9-3.849 9.282-2.382 2.38-5.649 3.849-9.282 3.85-3.635-.001-6.902-1.47-9.283-3.85-2.379-2.381-3.849-5.648-3.849-9.282.001-3.636 1.47-6.901 3.849-9.283 2.381-2.38 5.648-3.834 9.283-3.835z" transform="matrix(.965926 -.258819 .258819 .965926 -51.499632 143.507277)"/><path d="m554.839 243.741c-3.889.001-7.396 1.567-9.949 4.116-2.548 2.552-4.13 6.059-4.131 9.949.001 3.889 1.583 7.413 4.131 9.964 2.553 2.549 6.06 4.115 9.949 4.115 3.888 0 7.397-1.566 9.949-4.115 2.548-2.551 4.13-6.075 4.131-9.964-.001-3.89-1.583-7.397-4.131-9.949-2.552-2.549-6.06-4.115-9.949-4.116zm0 .948c3.634 0 6.9 1.454 9.282 3.834 2.38 2.382 3.849 5.648 3.85 9.283-.001 3.634-1.47 6.9-3.85 9.283-2.382 2.379-5.648 3.849-9.282 3.849s-6.899-1.469-9.282-3.849c-2.38-2.383-3.849-5.649-3.85-9.283.001-3.635 1.47-6.9 3.85-9.283 2.378-2.386 5.642-3.841 9.276-3.841z" transform="matrix(.965926 -.258819 .258819 .965926 -47.821218 152.387576)"/><path d="m590.406 234.211c-3.889.001-7.398 1.567-9.949 4.116-2.549 2.552-4.131 6.06-4.131 9.949s1.582 7.413 4.131 9.964c2.551 2.549 6.06 4.115 9.949 4.115 3.888-.001 7.396-1.566 9.949-4.115 2.548-2.551 4.128-6.075 4.13-9.964-.001-3.889-1.582-7.397-4.13-9.949-2.552-2.549-6.06-4.114-9.949-4.116zm0 .948c3.634.001 6.899 1.454 9.282 3.834 2.38 2.382 3.849 5.648 3.85 9.283-.001 3.634-1.47 6.9-3.85 9.283-2.383 2.379-5.648 3.848-9.282 3.849-3.635-.001-6.901-1.469-9.283-3.849-2.38-2.383-3.849-5.649-3.849-9.283 0-3.635 1.469-6.901 3.849-9.283 2.382-2.38 5.648-3.834 9.283-3.834z" transform="matrix(.965926 -.258819 .258819 .965926 -44.142827 161.268504)"/><path d="m419.524 243.019c-15.929.002-28.853 12.927-28.855 28.855.001 15.928 12.925 28.854 28.855 28.855 15.218-.002 27.667-11.809 28.751-26.753h17.485c.849 8.786 8.228 15.662 17.233 15.663 9.002-.001 16.38-6.882 17.234-15.663h2.353c.854 8.781 8.232 15.661 17.234 15.663 9.001-.002 16.364-6.883 17.218-15.663h2.368c.852 8.783 8.231 15.662 17.234 15.663 9.003-.001 16.382-6.879 17.233-15.663h2.354c.855 8.78 8.232 15.662 17.232 15.663 9.574-.001 17.335-7.777 17.336-17.351-.001-9.574-7.762-17.337-17.336-17.337-8.71 0-15.914 6.431-17.144 14.804h-2.546c-1.232-8.377-8.419-14.807-17.13-14.809-8.712.002-15.9 6.432-17.13 14.805h-2.561c-1.231-8.374-8.419-14.805-17.13-14.805-8.71.001-15.899 6.43-17.129 14.805h-2.561c-1.235-8.368-8.423-14.803-17.13-14.805-8.709.002-15.897 6.433-17.129 14.805h-17.588c-1.083-14.945-13.532-26.736-28.751-26.738zm0 .948c14.857.002 26.984 11.598 27.847 26.235v.015l.015.03v.458h.474 18.344.178l.133-.103.044-.029.133-.119.03-.193c1-8.098 7.897-14.359 16.27-14.36 8.362.001 15.254 6.251 16.272 14.331l.014.089.045.089.044.074.148.222h.267 3.286.4l.059-.4.015-.103c1.031-8.066 7.92-14.301 16.271-14.302 8.363.001 15.257 6.246 16.271 14.332l.014.133.089.104.045.073.148.163h.222 3.272.34l.104-.325.029-.074.015-.045v-.044c1.038-8.083 7.926-14.32 16.287-14.321 8.363 0 15.251 6.238 16.269 14.316v.015l.015.074.059.4h.4 3.316.311l.118-.281.015-.045.03-.059.014-.074c1.007-8.092 7.903-14.346 16.271-14.346 9.062 0 16.388 7.326 16.389 16.388-.001 9.062-7.327 16.403-16.389 16.405-8.652-.002-15.735-6.685-16.359-15.175v-.119l-.059-.088-.03-.045-.134-.237h-.266-3.139-.414l-.059.415v.045l-.015.014v.014c-.63 8.486-7.699 15.175-16.349 15.175-8.659-.001-15.744-6.707-16.359-15.205v-.148l-.104-.119-.014-.014-.148-.178h-.222-3.11-.207l-.133.148-.044.044-.118.119-.015.177c-.624 8.49-7.692 15.173-16.346 15.175-8.648-.002-15.729-6.678-16.359-15.16v-.045-.029l-.015-.06-.088-.37h-.371-3.124-.266l-.133.237-.045.074-.059.089-.015.118c-.637 8.476-7.702 15.144-16.344 15.145-8.617-.001-15.672-6.63-16.346-15.071 0 .003-.001-.035 0-.044v-.03c0-.041.003-.089-.029-.178-.033-.088-.116-.217-.237-.281l-.118-.059h-.119-18.283-.474v.474.014.015c-.858 14.644-13.001 26.248-27.863 26.249-15.435-.014-27.923-12.502-27.924-27.918.001-15.417 12.49-27.906 27.907-27.907z" transform="matrix(.965926 -.258819 .258819 .965926 -53.303446 138.861912)"/></g></svg>