<svg xmlns="http://www.w3.org/2000/svg"><g fill="#fff"><path d="m0 2.331v45.156h9.672v77.457h-9.672v44.883h45.867v-44.502h-5.298v-31.914h16.794v31.98h-5.235v44.436h48.318v-44.943h-10.806v-77.397h9.678v-45.156h-47.166v45.156h5.247v27.852h-16.773v-27.852h5.232v-45.225z"/><path d="m108.645 2.526h46.431v44.961h-7.089v70.173c0 13.929 19.992 12.9 19.992 0v-70.173h-6.627v-44.961h40.173v44.961h-10.332v101.649c-.009 30.033-73.521 30.366-73.521 0v-101.649h-9.027z"/><path d="m490.263 47.487v-44.961h44.502l32.829 110.742v-65.859h-10.917v-44.883h43.323v44.961h-11.085v122.34h-30.969l-36.126-123.117v78.174h12.267v44.943h-45.261v-44.883h10.404v-77.457z"/><path d="m316.176 72.252c-2.844-4.128-5.094-9.957-5.094-18.831v-28.128c0-25.152 26.295-33.849 47.109-15.483v-7.284h27.666v58.887h-25.719v-6.708c0-12.408-18.699-12.378-19.374-.516-.678 11.862 10.32 16.512 18.021 20.643 7.782 4.128 32.235 12.648 32.235 41.535v30.702c0 26.076-30.882 34.446-50.256 12.126v10.632h-28.386v-63.006h26.439v9.798c0 12.681 20.646 12.351 20.646.522l-.087-5.16c-.678-6.192-2.538-10.32-10.911-15.483-8.04-4.977-23.187-14.958-27.711-19.086-1.533-1.395-3.123-3.054-4.578-5.16"/><path d="m210.867 2.448h57.309c17.433 0 33.54 14.082 33.54 27.753v110.394c0 19.836-19.407 29.172-32.961 29.172h-58.617v-44.376h9.672v-77.904h-9.027zm39.993 45.039-.087 76.875h10.332c5.034 0 8.373-6.435 8.373-9.717v-57.36c0-3.609-4.344-9.798-8.142-9.798z"/><path d="m400.41 32.7c0-43.599 79.194-42.933 79.194-.204v105.456c0 44.898-79.281 45.234-79.281 1.038zm29.442 82.515c0 14.22 20.394 14.22 20.394 0v-51.222-6.372c0-14.397-20.394-14.397-20.394 0z"/></g></svg>