<svg xmlns="http://www.w3.org/2000/svg"><g fill="#fff"><path d="m517.363 137.264-20.831-20.361-.104 15.638c-.096 14.326-.046 15.739.601 16.838.442.75 2.339 2.191 5.072 3.851l4.367 2.651-9.474.107c-5.211.059-13.731.059-18.933 0l-9.459-.107 4.327-2.604c2.379-1.432 4.698-3.113 5.152-3.735.809-1.108.828-1.624.953-25.638.07-13.479.011-25.628-.131-26.996-.346-3.344-1.298-4.635-5.554-7.526l-3.539-2.403 11.148-.107 11.148-.106 7.621 7.517c4.192 4.136 10.731 10.581 14.532 14.324l6.91 6.805v-10.452c0-12.527.25-11.852-5.791-15.675l-3.959-2.507 18.796.005 18.795.004-2.604 1.436c-1.432.789-3.468 1.982-4.524 2.652-3.519 2.23-3.262-.374-3.488 35.233l-.2 31.518z"/><path d="m355.292 156.719c-12.852-2.29-22.172-8.967-27.169-19.466-5.456-11.464-4.491-25.265 2.5-35.773 5.072-7.621 12.876-12.734 22.862-14.977 3.981-.894 14.055-.892 19.065.004 4.473.799 11.34 2.3 11.595 2.534.177.163 2.435 21.095 2.29 21.24-.041.042-1.605-.905-3.475-2.104-6.243-4.003-12.365-5.848-19.624-5.915-3.795-.035-5.107.12-7.441.877-8.445 2.742-12.628 10.736-11.38 21.752 1.2 10.598 7.009 15.721 17.82 15.715 2.203 0 4.772-.221 5.708-.491l1.702-.49-.022-6.494c-.014-3.92-.212-7.049-.501-7.896-.384-1.125-1.203-1.877-4.154-3.806-2.021-1.321-4.004-2.622-4.406-2.888-.578-.384 2.476-.468 14.572-.401 10.5.058 15.442.223 15.744.526.32.321.103.984-.798 2.433l-1.239 1.993.117 12.589.116 12.588 1.281 1.844 1.281 1.844-4.485 1.243c-2.468.684-5.609 1.526-6.981 1.871-7.037 1.768-19.635 2.599-24.977 1.647z"/><path d="m432.857 85.915c-11.335.041-19.411 3.25-26.879 10.679-3.338 3.32-4.346 4.626-5.889 7.635-1.024 1.997-2.353 5.241-2.955 7.21-1.003 3.282-1.094 4.133-1.094 10.191 0 6.06.091 6.91 1.097 10.215 4.309 14.154 16.082 23.453 31.682 25.028 3.807.384 7.999.176 12.477-.62 7.863-1.398 14.517-4.934 20.027-10.643 4.5-4.661 6.942-8.978 8.693-15.367.733-2.669.874-4.21.851-9.213-.025-5.359-.146-6.399-1.125-9.615-2.815-9.246-8.847-16.519-17.392-20.965-6.319-3.287-11.801-4.562-19.493-4.535zm.182 16.487c9.233 0 15.778 5.034 17.824 13.712 2.415 10.245-2.515 20.597-11.215 23.549-4.698 1.594-10.525 1.272-14.851-.822-5.831-2.823-9.392-9.351-9.378-17.195.021-12.014 6.64-19.244 17.62-19.244z"/><path d="m563.979 156.701c-5.345-.768-10.221-1.705-12.686-2.437-1.931-.572-2.083-.709-2.083-1.864 0-.686-.282-6.094-.627-12.018-.344-5.924-.571-11.05-.501-11.39.09-.439 1.656.541 5.41 3.388 9.177 6.956 13.388 8.881 19.424 8.877 5.758-.005 7.854-1.153 8.232-4.514.451-3.996-1.813-5.719-11.674-8.879-7.167-2.297-13.34-5.042-15.901-7.07-3.894-3.085-6.343-8.401-6.357-13.802-.028-10.451 5.95-18.131 16.216-20.834 3.791-.999 11.266-1.194 16.424-.428 5.509.819 13.039 2.51 13.581 3.052.323.323 1.299 13.389 1.417 18.955l.024 1.128-1.111-.791c-1.985-1.413-8.321-4.419-11.504-5.458-10.369-3.385-19.7-1.421-17.287 3.639.833 1.749 2.889 2.632 11.087 4.762 8.896 2.312 13.289 4.363 17.156 8.012 5.464 5.154 7.87 12.832 6.316 20.158-1.875 8.847-7.794 14.415-17.987 16.919-4.337 1.065-12.4 1.339-17.569.595z"/><path d="m119.095 83.79.102.332c.336 1.089.714 2.092 1.162 3.051.448.957.967 1.87 1.582 2.778 1.229 1.816 2.845 3.611 5.065 5.704l4.685 4.416v11.797 11.798l4.066-2.578c1.065-.676 2.127-1.245 3.065-1.678s1.75-.729 2.315-.862.882-.099.827.126c-.054.226-.48.644-1.4 1.285-.536.374-1.021.859-1.373 1.34-.354.481-.574.957-.574 1.313 0 .464.138.749.45.868.313.118.798.071 1.497-.128 1.071-.305 3.799-1.002 6.061-1.548l3.996-.965v-17.636h.118v-.278h6.002c1.652 0 3.428.105 4.958.273 1.53.167 2.814.397 3.485.651.772.292 1.505.648 2.194 1.062s1.336.887 1.938 1.415c.579.508.978 1.223 1.473 1.831.106.121.321.231.413.351.101.133.148.329.245.467.289.412.68.711.933 1.159.378.669.567 1.514.864 2.261.171.427.343.826.488 1.274.16.504.428.913.554 1.447.152.647.132 1.422.231 2.109.145.899.245 1.771.295 2.697.018.414.13.76.13 1.184 0 .759-.096 1.42-.143 2.13-.038.575-.039 1.13-.114 1.698-.018.143-.011.312-.031.454-.192 1.33-.477 2.564-.861 3.703-.046.136-.123.24-.172.373-.072.212-.077.453-.156.661-1.179 3.154-3.839 5.993-7.136 7.616-2.018.994-3.339 1.197-6.384 1.319-1.133.124-2.287.229-3.551.229h-3.495l-2.278.049v-3.976c-.041-.421-.042-.899-.157-1.232-.201-.583-.531-1.046-1.045-1.427-.513-.38-1.21-.68-2.147-.94-.935-.259-2.11-.478-3.579-.698-2.079-.078-3.827-.067-5.294.009s-2.655.217-3.61.405c-.957.188-1.682.422-2.227.682-.464.22-.739.465-.973.709.001.803-.001 1.753-.002 2.477.002.003.027.047.027.047l.038 5.9c.01 1.623-.081 3.286-.236 4.659-.075.662-.199.916-.3 1.407-.058.324-.13.681-.203.953-.044.13-.071.468-.118.555-.012.025-.086.076-.102.101-.768 2.038-2.162 2.554-4.824 4.141-2.174 1.295-3.948 2.401-4.207 2.612l19.65.009c5.623.002 11.246-.093 15.776-.247 4.529-.156 7.967-.371 9.217-.608 1.437-.272 2.844-.628 4.218-1.059 1.374-.43 2.712-.937 4.01-1.517 1.297-.579 2.554-1.231 3.762-1.948 1.209-.718 2.37-1.504 3.477-2.352 1.107-.846 2.158-1.754 3.15-2.72s1.924-1.99 2.788-3.066c.864-1.074 1.661-2.2 2.385-3.375.693-1.125 1.309-2.299 1.861-3.507.047-.103.095-.21.14-.314.456-1.025.83-2.103 1.171-3.198.096-.323.216-.643.299-.973.067-.246.105-.504.167-.752.473-2.143.732-4.46.845-7.559.09-2.449.111-3.991.019-5.333-.006-.056-.016-.111-.022-.167-.099-1.292-.296-2.407-.662-3.991-2.65-11.467-10.767-20.442-21.988-24.309-4.632-1.596-8.41-1.958-20.655-1.971-19.984-.021-26.579-.707-30.601-3.184-.767-.472-1.212-.732-1.444-.728-.231.003-.216.364-.13.937z"/><path d="m273.403 86.792 2.704 2.573c1.857 1.767 2.698 2.863 2.684 3.499-.026 1.241-20.949 51.404-21.432 51.384-.468-.018-6.798-7.706-12.483-15.157-3.854-5.052-4.172-5.596-3.479-5.961.418-.222 1.944-1.596 3.389-3.054 2.705-2.73 4.415-5.681 5.159-8.906.52-2.258.521-7.266 0-9.524-1.146-4.969-5.141-9.951-9.67-12.059-5.386-2.507-5.633-2.533-25.559-2.706-10.024-.086-19.201-.1-20.392-.03l-2.167.128 4.02 2.497c2.211 1.374 4.357 2.997 4.77 3.606.712 1.05.757 2.459.869 27.146.066 14.321.013 26.618-.116 27.328-.365 2.01-1.979 3.566-6.366 6.14v-.004l-4.052 2.376 19.83.005 19.829.004-3.406-1.913c-4.448-2.498-5.946-3.632-6.733-5.096-.906-1.683-1.279-19.428-.408-19.428 1.597 0 2.555 1.065 19.508 21.725l3.858 4.702 18.827.004 18.828.004-2.003-1.694c-4.715-3.99-4.893-4.443-3.348-8.48l.856-2.239h12.71 12.709l.889 2.439c.565 1.549.795 2.828.63 3.505-.143.587-1.461 2.284-2.928 3.771l-2.668 2.704h17.715c9.743 0 17.715-.056 17.715-.123 0-.069-1.785-1.556-3.967-3.306-2.182-1.749-4.518-3.993-5.19-4.983-.676-.997-6.415-14.972-12.83-31.246l-11.606-29.444-13.348-.094zm-53.479 13.607h3.32c2.654 0 3.675.181 5.085.901 2.618 1.338 3.415 2.661 3.4 5.639-.026 5.097-1.866 8.379-5.27 9.398-1.732.519-5.824.662-6.267.218-.148-.146-.268-3.842-.268-8.212zm70.121 9.988c.061.005.126.035.18.09.248.247 6.212 16.424 6.212 16.849 0 .172-2.975.313-6.61.313s-6.61-.135-6.61-.3c-.001-.311 6.435-16.596 6.675-16.892.038-.046.093-.066.153-.06z"/><path d="m196.357 54.622-20.946-20.48-.105 15.734c-.096 14.411-.046 15.835.604 16.945.456.778 2.351 2.2 5.294 3.973l4.585 2.76-19.287-.023c-12.685-.016-19.08-.158-18.683-.417.332-.216 2.312-1.43 4.399-2.695 6.063-3.679 5.449-.431 5.595-29.622.068-13.776.012-25.988-.127-27.14-.326-2.705-1.461-4.34-4.471-6.44l-2.435-1.699-2.992 1.917c-1.739 1.115-3.243 2.413-3.593 3.102-.503.989-.639 4.626-.821 21.93l-.218 20.745-1.088 3.254c-2.774 8.299-9.709 14.519-18.82 16.882-3.559.923-12.08 1.252-16.021.619-9.109-1.463-17.865-7.405-21.101-14.319-2.336-4.991-2.449-6.198-2.646-28.079-.212-23.546.34-21.21-5.955-25.194l-4.003-2.534 15.377.114c9.799.073 15.527.264 15.79.527.281.281.031.987-.784 2.216l-1.197 1.803v20.369c-.003 22.664.035 23.029 2.612 26.041 1.889 2.206 4.35 3.138 8.262 3.126 5.158-.015 7.942-1.598 9.718-5.527l.957-2.117v-20.947-20.945l-1.291-1.858-1.29-1.857 1.008-.459c.716-.327 7.832-.458 24.683-.458h23.676l.977 1.048c.537.577 7.094 7.033 14.571 14.348l13.595 13.3v-10.462c0-12.542.249-11.871-5.823-15.714l-3.981-2.52 18.899.004 18.9.004-2.618 1.444c-1.44.793-3.487 1.994-4.549 2.667-3.539 2.242-3.28-.376-3.508 35.424l-.201 31.69-20.946-20.48z"/><path d="m255.57 74.877c-3.015-.42-7.938-1.922-11.014-3.36-9.991-4.672-16.839-13.139-19.259-23.814-1.011-4.456-.913-12.444.209-17.023 3.492-14.258 14.769-24.374 29.863-26.79 3.698-.591 11.172-.512 15.91.17 4.222.606 12.602 2.406 12.983 2.789.123.122.638 4.168 1.146 8.993.508 4.824 1.033 9.638 1.167 10.698l.244 1.928-2.385-1.629c-3.131-2.137-9.266-4.989-12.551-5.834-3.625-.934-10.617-1.258-13.776-.639-7.466 1.463-12.047 6.315-13.486 14.286-.661 3.662-.46 8.449.513 12.211 1.287 4.972 4.688 8.835 9.328 10.593 2.9 1.099 9.693 1.521 13.092.813l2.316-.481-.003-6.316c-.001-3.474-.182-6.961-.4-7.748-.506-1.823-1.744-2.948-6.219-5.655l-3.601-2.177 13.873-.124c13.026-.116 18.105.181 18.099 1.059 0 .15-.544 1.089-1.206 2.086l-1.205 1.813-.002 12.402c-.001 11.58.052 12.506.798 13.97.44.862.984 1.682 1.209 1.82.717.444.441 1.018-.699 1.459-2.757 1.065-13.788 3.621-18.023 4.176-4.247.556-13.917.742-16.921.324z"/><path d="m479.934 54.533-20.946-20.504-.106 15.563c-.093 13.716-.027 15.728.553 16.951.516 1.086 1.678 2 5.342 4.199l4.683 2.81h-19.323c-16.304 0-19.199-.083-18.529-.541.437-.297 2.154-1.319 3.816-2.27 1.661-.951 3.452-2.112 3.979-2.58 2.084-1.853 2.063-1.559 2.053-28.934-.005-14.02-.172-26.191-.37-27.046-.462-1.987-1.849-3.442-5.861-6.145l-3.218-2.168 11.275.005 11.275.005 14.55 14.279c8.003 7.853 14.664 14.165 14.804 14.026.405-.406.286-16.602-.142-19.215-.476-2.906-1.104-3.623-5.748-6.568-1.939-1.229-3.525-2.302-3.525-2.384s8.383-.147 18.63-.146l18.629.003-3.222 1.84c-3.954 2.257-5.646 3.525-6.554 4.91-.641.977-.713 3.597-.898 32.738l-.202 31.675-20.945-20.504z"/><path d="m525.652 73.934c-6.568-.989-11.233-1.934-12.487-2.529l-1.007-.478-.687-12.467c-.379-6.855-.62-12.533-.536-12.617.083-.084 2.749 1.816 5.924 4.221 8.963 6.791 13.049 8.586 19.544 8.586 5.739 0 7.778-1.439 7.778-5.487 0-1.716-.169-2.064-1.74-3.569-1.562-1.497-2.523-1.926-9.365-4.179-13.062-4.303-18.02-7.257-20.804-12.397-2.287-4.223-2.802-8.367-1.7-13.7.864-4.182 2.338-7.092 5.079-10.021 4.144-4.431 9.554-6.522 17.892-6.919 5.922-.282 14.661.9 21.343 2.886l2.045.609.511 9.701c.281 5.336.413 9.799.295 9.917-.119.119-1.28-.43-2.578-1.219-11.864-7.207-27.493-8.437-27.493-2.165 0 2.636 2.035 3.733 11.403 6.149 9.054 2.334 14.004 4.689 17.769 8.454 8.513 8.513 8.264 23.69-.514 31.205-6.863 5.876-17.608 7.984-30.672 6.019z"/><path d="m395.786 2.824c-3.254-.017-6.578.329-9.931 1.045-13.538 2.89-23.725 12.705-27.046 26.06-.706 2.837-.877 4.673-.858 9.185.03 6.863.8 10.189 3.745 16.162 4.846 9.833 15.065 16.903 27.203 18.818.665.104 4.108.14 7.653.078 7.405-.129 10.566-.792 16.074-3.373 9.884-4.632 16.106-11.64 19.371-21.816 1.412-4.401 1.849-13.023.889-17.529-1.889-8.86-6.927-16.503-14.186-21.522-6.73-4.653-14.596-7.065-22.914-7.108zm-1.229 16.797c.57-.002 1.169.011 1.804.037 3.92.161 4.575.306 7.375 1.637 6.549 3.11 9.936 8.953 9.936 17.141 0 9.3-4.888 16.64-12.488 18.75-15.007 4.167-26.566-7.605-23.177-23.601 1.118-5.274 3.414-8.898 7.218-11.391 2.793-1.831 5.337-2.56 9.332-2.573z"/><path d="m.14.002c-.032.004-.057.013-.073.029-.406.405 1.092 4.426 2.559 6.869 1.697 2.827 2.754 4.01 6.023 6.741 4.402 3.678 4.028 1.043 4.028 28.36 0 27.892.639 24.736-5.787 28.587-2.268 1.359-4.236 2.583-4.371 2.718-.416.417 36.037.268 40.946-.166 8.912-.789 14.364-2.953 21.079-8.366 7.336-5.914 11.602-15.48 11.618-26.062.005-2.833-.246-6.021-.605-7.701-2.825-13.217-12.226-22.818-25.62-26.169-2.097-.525-6.149-.719-20.342-.981-20.662-.381-23.673-.731-27.937-3.246-.659-.389-1.288-.639-1.518-.613zm31.67 20.297 6.345.173c7.791.212 10.011.901 13.195 4.102 3.27 3.287 5.01 8.128 5.025 13.982.021 8.015-3.218 14.069-8.939 16.707-2.411 1.111-2.852 1.175-9.08 1.305l-6.546.138v-18.204z"/><path d="m296.998 70.688c3.859-2.316 4.882-3.126 5.345-4.236.48-1.148.556-5.747.464-28.322-.127-31.419.539-27.745-5.751-31.744l-3.96-2.517h27.441 27.441l.206 1.309c.395 2.522 1.911 19.234 1.778 19.602-.075.205-1.299-.505-2.722-1.579-1.424-1.073-3.361-2.146-4.308-2.384-.984-.249-5.775-.434-11.208-.434h-9.489v4.663 4.663l10.171-.131c8.821-.114 10.344-.226 11.48-.847l1.309-.714v10.561 10.563l-1.432-1.388-1.431-1.389-10.049-.119-10.048-.121v5.256 5.256h10.453c6.158 0 11.312-.184 12.544-.448 1.423-.305 3.288-1.259 5.835-2.987 2.059-1.395 3.673-2.327 3.586-2.069-.085.258-1.174 5.091-2.418 10.741-1.243 5.649-2.352 10.588-2.463 10.976-.189.663-1.91.705-28.873.704h-28.673l4.772-2.864z"/></g><path d="m138.737 208.222c-3.078-.476-6.173-1.748-8.428-3.482-3.744-2.863-6.664-7.909-7.285-12.578-.087-.708-.217-1.272-.275-1.272-.188 0-1.259 1.518-1.721 2.443-1.676 3.354-1.272 8.139.941 11.044l.505.666-.578-.203c-3.152-1.113-6.246-3.889-7.735-6.938-1.315-2.69-1.56-4.511-1.285-9.614.274-5.002.013-6.94-1.2-9.281-.275-.521-.853-1.359-1.288-1.835-1.142-1.244-6.853-6.116-12.056-10.279-2.659-2.126-3.426-2.805-4.453-3.976-1.791-2.009-2.5-3.816-2.847-7.156-.144-1.33-.348-2.515-.521-2.992-.391-1.041-1.504-2.197-3.744-3.946-2.717-2.126-3.425-2.964-3.961-4.757-.304-1.026-.304-2.789.015-3.787l.245-.78.116.751c.245 1.619 1.215 2.92 2.804 3.759 1.23.65 2.155.867 4.613 1.113 4.335.434 5.435 1.301 6.071 4.785.478 2.631 1.041 3.701 2.169 4.12.231.086 1.431.216 2.673.289 2.385.145 3.253.275 4.409.65 1.562.52 1.214.261 11.985 9.151 3.888 3.224 7.373 6.057 7.734 6.317 2.023 1.432 4.366 1.981 6.302 1.46 2.4-.636 4.323-2.616 4.844-5.015.187-.825.131-3.037-.087-3.731l-.102-.36.492.346c3.499 2.457 5.552 7.33 5.031 11.984-.304 2.674-1.215 4.713-2.848 6.318l-.912.895.839.116c1.461.203 3.919.102 5.523-.231 4.438-.896 7.562-3.296 8.586-6.578.45-1.474.419-3.527-.072-4.944-.938-2.645-3.238-4.915-6.012-5.927l-.97-.346 2.24.071c2.501.088 4.295.405 6.318 1.114 8.876 3.136 13.763 11.666 11.378 19.892-.781 2.702-2.125 4.9-4.308 7.055-2.733 2.717-5.827 4.351-9.932 5.232-.939.203-1.865.261-4.077.261h-2.862l.404.332c2.979 2.443 9.325 3.875 12.65 2.862.679-.202.694-.202.52.117-.302.577-1.952 2.066-3.296 2.964-2.428 1.619-5.652 2.933-8.89 3.627-1.647.362-6.144.521-7.662.274z" fill="#aaa"/><path d="m67.252 205.983c-.275-.03-1.055-.131-1.736-.218-5.782-.694-12.186-3.426-17.029-7.257-2.37-1.865-4.857-4.553-6.114-6.607l-.492-.794-.044 1.807c-.014 1.084.044 2.269.174 2.963.101.636.173 1.186.13 1.229-.159.173-2.747-2.775-3.715-4.236-3.166-4.769-5.233-10.509-6.26-17.376-.347-2.399-.36-9.107 0-11.391.535-3.412 1.59-7.257 2.689-9.701.247-.549.419-1.026.391-1.069-.202-.188-3.585 2.038-5.291 3.455-1.215 1.026-1.23 1.011-.332-1.243 2.211-5.638 7.429-13.402 12.575-18.707 1.692-1.749 1.764-1.807 1.981-1.533.666.883.652 2.039-.042 5.508-.247 1.2-.536 2.834-.652 3.615-.217 1.445-.462 4.684-.362 4.684.031 0 .811-.738 1.722-1.634 3.31-3.224 8.876-7.054 13.559-9.324 1.055-.507 1.952-.897 1.995-.868.03.044-.202.506-.521 1.026-1.357 2.242-2.457 5.986-2.457 8.342v.607l.839-.751c2.602-2.342 5.507-3.614 8.254-3.614 1.085 0 2.661.259 3.065.52.073.043-.476.737-1.23 1.547-5.16 5.565-8.209 11.406-9.28 17.81-.332 1.98-.332 5.753 0 7.589.723 4.018 2.199 7.156 4.554 9.715 3.152 3.382 7.271 5.074 11.853 4.842 4.221-.216 8.327-2.254 13.055-6.504 2.312-2.068 5.392-5.87 7.012-8.631.461-.781.88-1.431.924-1.446.261-.015 11.651 9.543 11.782 9.903.159.39-2.283 4.9-4.38 8.081-7.474 11.406-17 17.824-28.739 19.386-1.662.232-6.823.404-7.878.275z" fill="#aaa"/><path d="m112.788 156.975c-3.455-2.833-4.163-3.338-5.551-3.902l-.955-.391.392-.521c7.733-10.393 16.652-17.824 25.774-21.451 3.036-1.215 7.432-2.271 9.44-2.271.55 0 .694-.043.578-.159-.114-.116-.953-.144-2.891-.087-2.139.058-3.093.16-4.452.449-3.7.78-7.864 2.356-11.348 4.279-3.961 2.183-8.039 5.305-10.423 7.994-1.157 1.301-1.171 1.228-.246-1.127 2.356-6.014 8.109-13.127 13.575-16.784.534-.347 1.012-.636 1.055-.636.057 0-.187.404-.548.911-.796 1.127-1.635 2.746-1.751 3.455-.086.419-.043.578.203.823.173.174.462.305.636.305.535 0 1.967-.782 3.079-1.692 5.551-4.51 6.389-5.117 8.529-6.172 1.706-.84 4.004-1.534 5.032-1.534.085 0-.45.362-1.187.81-1.416.853-2.949 2.154-3.296 2.819-.26.52-.26 1.142.03 1.546.331.478 1.215.42 3.281-.245 4.727-1.533 5.565-1.677 9.209-1.677 3.368.014 4.64.217 7.733 1.243 4.164 1.373 9.47 4.669 12.144 7.503.535.564.549.607.217.521-1.778-.449-5.493-.449-8.501-.015-4.525.65-9.15 2.183-11.565 3.802-.723.506-.896.564-1.04.39-.304-.36-2.79-1.488-3.976-1.806-1.662-.449-5.291-.564-7.069-.232-3.629.695-6.809 2.314-9.194 4.698-2.183 2.199-5.595 6.838-8.283 11.247-1.488 2.458-5.305 9.83-5.305 10.25 0 .115-.045.203-.103.203-.072 0-1.517-1.143-3.223-2.546z" fill="#aaa"/><path d="m73.266 158.898c1.055-.737 2.716-2.587 3.224-3.6.244-.491.419-.91.389-.939-.028-.028-.405.043-.824.159-.94.26-2.789.52-3.729.52h-.694l.953-.969c1.578-1.619 2.472-3.801 2.472-6.07 0-2.068-.65-3.686-1.98-4.973-1.345-1.302-3.036-2.039-5.306-2.313-2.153-.274-4.74.173-6.404 1.098-.346.188-.621.275-.621.188 0-.376 1.127-2.356 1.965-3.469 1.548-2.082 3.775-4.005 5.841-5.045l.94-.478-.506-.202c-.564-.232-3.772-1.07-5.132-1.33l-.853-.173.347-.289c.522-.42 2.444-1.359 3.759-1.85 2.37-.883 5.247-1.534 7.417-1.692 1.633-.117 1.372-.275-.796-.492-4.77-.463-10.944 1.07-14.76 3.657-.897.608-2.747 2.285-2.645 2.386.028.043.579.13 1.2.202 1.445.188 4.712.838 4.857.983.057.058-.347.217-.896.347-3.802.911-10.509 4.64-14.428 8.023l-1.142.998.39-1.417c.781-2.775.911-5.436.333-6.968-.606-1.575-1.981-2.732-3.817-3.238-1.574-.434-5.825-.333-8.023.187-.187.044-.043-.158.419-.591 1.475-1.388 3.889-2.921 8.544-5.408 6.115-3.296 6.867-4.018 6.289-6.099-.463-1.649-3.542-4.988-5.798-6.275l-.636-.361h1.447c2.934 0 6.562.39 8.571.925.419.116.752.159.724.116-.03-.058-.261-.507-.507-.998-1.098-2.081-1.604-5.334-1.214-7.633.289-1.676.275-1.662.896-.506 1.793 3.296 4.25 5.334 11.407 9.47 1.632.924 3.642 2.167 4.48 2.731 1.822 1.229 3.775 3.151 4.525 4.424.665 1.156.724.737.116-.824-.911-2.327-3.369-5.233-5.753-6.838-1.085-.722-1.215-.853-1.417-1.518-.998-3.209-.795-9.035.448-12.967.376-1.2 1.243-3.064 1.476-3.209.071-.044.172.593.216 1.403.259 4.292 2.414 8.269 7.097 13.082.637.665 3.065 2.92 5.364 5.016 6.027 5.45 8.11 7.691 9.555 10.279.289.505.536.925.563.925.131 0-.534-1.663-1.083-2.775-1.706-3.398-3.962-5.971-10.163-11.609-1.749-1.575-3.47-3.239-3.845-3.686-.912-1.084-1.099-1.952-1.084-4.771.014-1.764.073-2.328.39-3.513.216-.781.549-1.793.766-2.241l.391-.824.187 1.518c.332 2.617 1.2 4.901 2.877 7.445 1.705 2.602 3.672 4.742 8.138 8.861 5.018 4.598 6.679 6.391 8.313 8.92 1.952 3.065 2.934 6.462 2.617 9.108l-.13 1.012.651.303c1.358.636 2.123 1.619 2.297 2.978l.088.694.866-.405c1.084-.52 2.198-1.517 2.951-2.631l.563-.853.101.868c.115 1.012 0 2.63-.304 4.148-.737 3.658-2.935 7.518-5.392 9.484-.926.752-1.59 1.171-1.677 1.069-.014-.028.028-.491.116-1.04.274-1.764-.246-3.556-1.345-4.698-1.3-1.33-4.423-2.169-8.138-2.183-.623 0-1.114-.044-1.085-.101.03-.073.246-.506.492-.984.853-1.619 1.143-3.194.751-4.047-.433-.94-2.038-1.302-5.753-1.287-3.729.015-7.764.564-10.769 1.475l-.868.26 1.779.115c2.486.131 5.348.651 5.203.927-1.401 2.659-2.095 5.94-1.503 7.097.52.983 1.619 1.04 2.733.145.447-.362.549-.404.491-.189-.276.925-.536 2.168-.681 3.195-.374 2.776.377 3.644 2.964 3.484l1.23-.087-.392.739c-1.531 2.803-6.576 5.637-10.884 6.099l-.94.102zm17.188-26.151c-.434-1.417-1.996-3.571-3.427-4.727-.983-.795-2.905-1.82-2.977-1.605-.087.232.535 1.995 1.098 3.167.881 1.821 2.37 3.036 4.106 3.324 1.257.203 1.3.203 1.2-.159z" fill="#aaa"/><path d="m93.635 117.728c-.32-.333-2.068-1.981-3.905-3.673-3.989-3.701-5.767-5.55-6.982-7.257-.332-.477-.332-.477-.057-.867.549-.781 1.445-2.732 1.894-4.12 2.182-6.852.187-14.138-4.554-16.625-2.125-1.128-5.074-1.489-7.286-.91-2.125.535-4.236 1.951-5.565 3.701-.824 1.098-1.822 3.151-2.169 4.466-.361 1.388-.448 4.265-.174 5.827.217 1.242.217 1.329-.115 2.774-.536 2.372-.694 4.395-.608 7.345.045 1.445.13 2.818.189 3.05l.1.433-.853-.491c-2.602-1.446-5.318-3.744-6.909-5.826-1.518-1.995-2.111-3.137-3.831-7.402-.102-.26-.145-.231-.419.289-.506.998-1.317 3.499-1.634 5.046-.536 2.631-.491 6.201.101 8.472.101.361.101.361-.375-.072-.811-.767-2.097-2.574-2.849-4.063-1.749-3.426-2.5-6.781-2.5-11.204 0-4.481.954-8.413 2.644-11.001l.594-.911.187 1.591c.202 1.705.68 3.657.983 4.062.16.231.203.115.362-.824.781-4.67 4.582-11.248 8.515-14.702 1.199-1.056 2.472-1.995 2.472-1.807 0 .057-.131.491-.29.969-.332.982-.664 3.281-.52 3.642.072.203.333.015 1.286-.91 6.477-6.317 19.141-7.504 28.292-2.617 1.965 1.042 3.469 2.14 5.116 3.73 4.598 4.423 7.2 10.148 7.749 17 .348 4.438-.664 9.353-3.035 14.731-1.286 2.935-3.527 6.737-4.872 8.284l-.406.462z" fill="#aaa"/></svg>