<svg xmlns="http://www.w3.org/2000/svg"><g fill="#fff"><path d="m543.971 1.03c16.191-1.419 31.605-.768 46.059 1.23 0 0 4.11 1.59 2.391 1.197-4.332 14.694-9.306 29.367-13.158 44.862-21.87-28.92-74.883 23.832-44.268 40.077 9.219 4.875 22.47 4.056 29.91-1.794 4.188-3.312 8.133-7.722 11.367-11.964 5.814 17.232 10.932 34.316 16.149 52.04-17.889 2.412-39.573 8.547-59.814 4.188-73.632-15.87-65.109-123.164 11.364-129.836z"/><path d="m51.111 1.063c13.383-.99 27.123.825 37.683 2.394 6.114.897 18.657 3.924 17.349 3.588-2.919 9.888-5.703 19.794-8.376 29.907-8.67-1.287-44.283-5.193-48.45 1.197-1.44 2.169-1.008 4.806-.6 7.776 1.929 6.498 35.367 4.32 46.659 12.564 6.279 4.578 10.932 11.382 12.561 20.934 5.274 30.941-15.813 51.239-42.468 53.243-14.955 1.101-29.703-.171-43.668-1.197-5.664-.435-12.393-1.65-17.943-2.4 0-.036.075-1.773 0-1.794 2.598-9.57 5.457-20.619 8.373-30.506 9.888 1.461 41.517 4.263 46.656-2.391 1.161-1.533 2.976-5.4.6-7.776-4.269-4.272-10.911-3.48-17.148-4.272-22.848-2.907-39.696-5.541-42.072-32.217-1.176-13.14 1.59-23.388 7.179-31.107 8.823-12.243 23.91-16.5 43.665-17.943z"/><path d="m266.775.835h55.112s35.289 65.421 35.289 65.421v-65.421h41.274v132.011s-57.273-.039-57.273-.039-32.448-66.551-32.448-66.551v66.59s-41.954-.039-41.954-.039.065-119.228 0-131.972z"/><path d="m420.017.835h48.51s-.054 131.552-.054 131.552h-48.456z"/><path d="m214.53 65.038c-2.058 11.775-17.223 26.61-29.163 28.581-9.915 1.62-16.698-.987-21.582-5.835-17.388-17.241 10.482-45.366 26.832-47.829 14.82-2.244 26.502 10.131 23.913 25.083zm37.329-23.334c-9.456-26.085-33.336-44.238-71.742-41.415-23.586 1.716-43.707 15.279-53.079 31.497-7.656 13.218-12.486 33.909-7.581 53.082 16.53 64.718 118.422 63.86 134.154-2.334 3.006-12.702 2.424-29.31-1.752-40.83z"/><path d="m597.728 174.726c4.194-30.345 5.64-33.138-23.829-37.842-32.319-5.16-35.079 2.97-45.957 49.536-7.392 31.632-6.276 49.929 17.598 54.66 23.094 4.575 28.482 4.38 32.313 4.62 4.593.291 5.958.783 7.239-6.594.33-1.908 9.792-48.036 9.792-48.036s-31.911-5.094-31.911-5.094-3.327 15.969-3.327 15.969 10.728 1.713 10.728 1.713-.684 3.279-.684 3.279c-5.349 23.325-3.258 22.197-14.913 19.722-9.012-1.914-8.775-10.692-2.79-38.463 7.866-36.51 8.808-36.9 18.18-35.406 8.421 1.347 10.182 1.716 7.653 18.321 0 0 19.908 3.615 19.908 3.615zm-117.711 8.037c5.52-27.543 8.559-36.357 16.911-36.102 8.607.261 8.094 9.156 2.574 36.699-5.523 27.546-8.559 36.357-17.169 36.09-8.349-.252-7.839-9.144-2.316-36.687zm41.505 1.269c5.574-27.822 8.805-52.185-21.309-53.103-27.966-.858-35.82 19.26-42.213 51.162-6.399 31.896-6.657 52.248 21.306 53.103 30.12.924 36.636-23.34 42.216-51.162zm-132.213 46.404s19.302-2.25 19.302-2.25 6.489-37.455 6.489-37.455 15.264-1.233 15.264-1.233-6.435 37.581-6.435 37.581 19.941-.681 19.941-.681 14.823-90.297 14.823-90.297-19.647 1.494-19.647 1.494-5.652 33.783-5.652 33.783-15.261 1.212-15.261 1.212 5.844-34.266 5.844-34.266-19.506 2.328-19.506 2.328-15.162 89.784-15.162 89.784zm-48.027 5.25s43.953-5.337 43.953-5.337 2.421-16.959 2.421-16.959-26.553 3.705-26.553 3.705 2.859-19.443 2.859-19.443 23.883-4.131 23.883-4.131 2.397-16.17 2.397-16.17-23.91 3.984-23.91 3.984 2.487-17.208 2.487-17.208 25.947-5.121 25.947-5.121 2.4-17.073 2.4-17.073-43.509 7.842-43.509 7.842-12.375 85.911-12.375 85.911zm3.057-59.292c1.443-9.507 3.183-26.961-19.308-23.373-24.669 3.936-29.034 22.041-33.198 49.503-3.969 26.172-3.231 41.283 15.321 38.322 6.738-1.071 13.587-4.227 17.421-12.168 0 0 .207-.033.207-.033s-.798 7.914-.798 7.914 11.919-1.902 11.919-1.902 6.822-44.949 6.822-44.949-24.354 3.888-24.354 3.888-1.998 13.143-1.998 13.143 8.187-1.308 8.187-1.308-.408 2.7-.408 2.7c-1.743 11.502-4.743 17.937-10.65 18.879-6.945 1.107-6.858-6.12-3.384-29.007 3.381-22.299 5.454-30.645 12.609-31.788 6.423-1.023 5.643 7.458 4.824 12.858 0 0 16.788-2.679 16.788-2.679zm-86.021 6.681s4.872-1.35 4.872-1.35c9.224-2.559 9.839 2.253 6.74 21.546-3.81 23.733-7.161 27.945-15.246 30.186 0 0-4.664 1.293-4.664 1.293s8.298-51.675 8.298-51.675zm-27.915 70.251s24.042-6.663 24.042-6.663c22.907-6.351 28.481-20.715 33.092-49.437 4.416-27.501-1.413-34.998-18.615-30.228 0 0-25.808 7.152-25.808 7.152s-12.711 79.176-12.711 79.176zm-46.893 10.386s39.555-9.453 39.555-9.453 2.769-14.868 2.769-14.868-19.635 4.692-19.635 4.692 3.318-17.82 3.318-17.82 16.554-3.957 16.554-3.957 2.772-14.868 2.772-14.868-16.557 3.957-16.557 3.957 2.913-15.636 2.913-15.636 18.336-4.38 18.336-4.38 2.769-14.868 2.769-14.868-38.25 9.138-38.25 9.138-14.544 78.063-14.544 78.063zm-56.949 12.894s16.968-4.074 16.968-4.074 6.336-32.565 6.336-32.565 13.53-3.246 13.53-3.246-6.333 32.562-6.333 32.562 16.971-4.074 16.971-4.074 14.826-76.23 14.826-76.23-16.968 4.074-16.968 4.074-5.544 28.506-5.544 28.506-13.536 3.246-13.536 3.246 5.547-28.506 5.547-28.506-16.968 4.074-16.968 4.074-14.829 76.233-14.829 76.233zm2.226-130.626s-39.081 7.047-39.081 7.047-3.276 13.23-3.276 13.23 14.586-2.757 14.586-2.757-8.712 35.928-8.712 35.928 12.78-3.123 12.78-3.123 8.424-35.301 8.424-35.301 12-2.196 12-2.196 3.279-12.828 3.279-12.828zm23.958-4.272s-3.927 17.295-3.927 17.295-8.409 1.803-8.409 1.803 3.903-17.679 3.903-17.679-11.919 2.007-11.919 2.007-10.551 47.592-10.551 47.592 12.18-2.814 12.18-2.814 3.546-16.176 3.546-16.176 8.358-1.929 8.358-1.929-3.507 16.182-3.507 16.182 11.814-2.673 11.814-2.673 10.395-45.555 10.395-45.555-11.883 1.947-11.883 1.947zm38.91 9.372s-1.632 7.851-1.632 7.851-11.904 2.085-11.904 2.085-1.734 8.214-1.734 8.214 11.472-2.205 11.472-2.205-1.953 11.31-1.953 11.31-24.861 5.457-24.861 5.457 8.511-44.826 8.511-44.826 24.861-3.912 24.861-3.912-1.809 8.457-1.809 8.457-10.845 1.998-10.845 1.998-1.734 7.17-1.734 7.17 11.628-1.599 11.628-1.599z"/></g></svg>