<svg xmlns="http://www.w3.org/2000/svg"><g fill="none"><path d="m0 2.493h28.011v8.244h-8.199v111.882h-9.909v-111.882h-9.903z"/><path d="m53.385 114.432h10.935v-78.39h9.561v78.39c0 5.07-4.611 8.667-9.336 8.667h-11.16c-4.995 0-9.45-4.065-9.45-8.769v-78.285h9.45z"/><path d="m259.029 55.191h14.604v67.983h-20.58c-4.401 0-9.822-3.369-9.822-8.478v-102.768c0-4.317 4.524-8.916 9.606-8.916h11.232c4.98 0 9.498 4.554 9.498 8.814v24.345h-9.843v-24.006h-11.184v102.606h11.442v-51.264h-4.956v-8.316z"/><path d="m400.257 81.45v41.208h-9.222v-78.921c0-3.564 3.546-7.449 8.028-7.449h15.201v7.605h-14.007v29.157h11.532v8.436z"/><path d="m432.966 36.309h9.678v31.434l5.466 5.496 5.349-5.343v-31.587h9.561v29.904c0 3.654-9.444 13.275-9.444 13.275s9.564 9.618 9.564 13.512v29.832h-8.997v-31.059l-5.805-5.871-5.808 5.796v31.137h-9.564v-29.76c0-3.66 10.128-13.662 10.128-13.662s-10.128-9.516-10.128-13.347z"/><path d="m115.329 81.645c3.246 0 7.56-3.879 7.56-9.069v-28.368c0-4.08-4.659-7.881-9.951-7.881h-19.641v86.679h9.054v-40.722h3.414l10.077 40.569h8.88zm-1.791-8.472h-10.848v-28.449h10.848z"/><path d="m315.669 81.42c3.246 0 7.563-3.888 7.563-9.075v-28.365c0-4.08-4.659-7.884-9.951-7.884h-19.641v86.682h9.045v-40.728h3.423l10.077 40.569h8.88zm-1.923-8.574h-10.839v-28.44h10.839z"/><path d="m171.285 83.688c-.042-3.882-4.098-6.339-4.098-6.339s4.098-2.652 4.098-6.339v-26.46c0-4.995-4.398-8.247-8.88-8.247h-20.667v86.529h20.667c4.185 0 8.88-2.616 8.88-8.241 0 0 .045-27.021 0-30.903zm-9.309 30.666h-10.842v-32.25h10.842zm0-41.205h-10.842v-28.443h10.842z"/><path d="m210.867 35.667h-5.466-5.295c-5.424 0-9.372 4.635-9.372 8.163v70.272c0 4.542 5.058 8.661 9.33 8.661h11.7c4.569 0 9.135-4.719 9.135-8.481v-70.692c0-3.168-4.314-7.923-10.032-7.923zm.339 78.162h-10.476v-69.603h10.476z"/><path d="m362.787 36.285h-11.952c-5.379 0-8.541 4.437-8.541 7.923v78.45h9.051v-41.208h11.442v41.208h9.054v-77.976c0-5.175-3.582-8.397-9.054-8.397zm-.258 36.609h-10.842v-27.891h10.842z"/><path d="m553.266 93.69h21.996v-41.241h-21.996zm-10.998-76.977c-30.366 0-54.984 24.615-54.984 54.981 0 30.369 24.621 54.987 54.984 54.987 30.369 0 54.984-24.621 54.984-54.987.003-30.366-24.615-54.981-54.984-54.981zm-2.745 41.238h-5.502v-2.751l-2.748-2.751h-21.993v41.241h21.993l2.748-2.751v-2.748h5.502v5.499l-5.502 5.496h-27.492l-2.748-2.748v-46.737l2.748-2.748h27.492l5.502 5.496zm41.235 35.739-5.496 5.496h-30.243v-5.496h2.748v-41.241h-2.748v-5.496h30.243l5.496 5.496z"/></g><path d="m56.379 111.936h10.932v-78.384h9.564v78.384c0 5.073-4.611 8.667-9.336 8.667h-11.16c-4.995 0-9.453-4.062-9.453-8.766v-78.285h9.453z" fill="#fff"/><path d="m262.02 52.695h14.607v67.986h-20.58c-4.401 0-9.822-3.372-9.822-8.481v-102.768c0-4.317 4.524-8.916 9.606-8.916h11.229c4.98 0 9.501 4.557 9.501 8.817v24.345h-9.843v-24.006h-11.184v102.603h11.442v-51.261h-4.956z" fill="#fff"/><path d="m403.248 78.957v41.208h-9.219v-78.924c0-3.564 3.543-7.449 8.025-7.449h15.204v7.608h-14.01v29.157h11.532v8.436z" fill="#fff"/><path d="m435.957 33.813h9.681v31.434l5.463 5.496 5.352-5.34v-31.59h9.561v29.91c0 3.651-9.444 13.272-9.444 13.272s9.561 9.618 9.561 13.515v29.829h-8.994v-31.056l-5.808-5.874-5.808 5.796v31.137h-9.564v-29.76c0-3.66 10.131-13.662 10.131-13.662s-10.131-9.516-10.131-13.347z" fill="#fff"/><path d="m118.323 79.152c3.243 0 7.557-3.879 7.557-9.069v-28.368c0-4.08-4.653-7.881-9.951-7.881h-19.641v86.679h9.054v-40.722h3.417l10.077 40.569h8.88zm-1.794-8.475h-10.848v-28.446h10.848z" fill="#fff"/><path d="m318.663 78.927c3.246 0 7.56-3.888 7.56-9.078v-28.362c0-4.083-4.656-7.884-9.948-7.884h-19.641v86.682h9.045v-40.728h3.42l10.08 40.569h8.88zm-1.923-8.577h-10.842v-28.443h10.842z" fill="#fff"/><path d="m174.279 81.195c-.045-3.885-4.098-6.342-4.098-6.342s4.098-2.652 4.098-6.339v-26.46c0-4.995-4.398-8.241-8.88-8.241h-20.667v86.526h20.667c4.185 0 8.88-2.613 8.88-8.241 0 0 .045-27.024 0-30.903zm-9.309 30.666h-10.845v-32.25h10.845zm0-41.205h-10.845v-28.443h10.845z" fill="#fff"/><path d="m213.858 33.171h-5.463-5.298c-5.424 0-9.372 4.638-9.372 8.163v70.272c0 4.542 5.061 8.664 9.333 8.664h11.697c4.569 0 9.138-4.719 9.138-8.478v-70.695c0-3.168-4.314-7.926-10.035-7.926zm.342 78.165h-10.476v-69.603h10.476z" fill="#fff"/><path d="m365.781 33.792h-11.949c-5.385 0-8.544 4.437-8.544 7.923v78.45h9.051v-41.208h11.442v41.208h9.051v-77.976c0-5.175-3.579-8.397-9.051-8.397zm-.261 36.609h-10.839v-27.891h10.839z" fill="#fff"/><path d="m2.991 0h28.011v8.241h-8.199v111.885h-9.909v-111.885h-9.903z" fill="#fff"/><path d="m545.016 13.962c-30.369 0-54.984 24.618-54.984 54.984 0 30.369 24.618 54.987 54.984 54.987s54.984-24.618 54.984-54.987c0-30.366-24.618-54.984-54.984-54.984zm-2.751 41.241h-5.499v-2.751l-2.748-2.748h-21.996v41.235h21.996l2.748-2.748v-2.748h5.499v5.496l-5.499 5.502h-27.492l-2.748-2.751v-46.737l2.748-2.748h27.492l5.499 5.499zm41.238 35.736-5.496 5.502h-30.243v-5.502h2.751v-41.235h-2.751v-5.502h30.243l5.496 5.502zm-27.489 0h21.993v-41.235h-21.993z" fill="#fff"/></svg>