<svg xmlns="http://www.w3.org/2000/svg"><g fill="#fff"><path d="m510.75 0c-11.679 0-21.423 9.744-21.423 21.423v37.425c0 11.679 9.744 21.423 21.423 21.423h67.827c11.679 0 21.423-9.744 21.423-21.423v-37.425c0-11.679-9.744-21.423-21.423-21.423zm4.854 22.758h57.618v34.755h-57.618z"/><path d="m0 1.599v78.762h26.277v-56.004h49.608v56.004h25.773v-57.336c0-11.679-9.744-21.426-21.423-21.426z"/><path d="m119.439 1.599v20.715h71.382v5.598h-55.737c-11.679 0-21.423 9.834-21.423 21.513v9.513c0 11.676 9.744 21.423 21.423 21.423h55.737 11.643 14.136v-57.336c0-11.679-9.744-21.426-21.423-21.426zm21.066 47.292h50.316v11.202h-50.316z"/><path d="m232.779 1.599v78.762h26.313v-56.004h27.024v56.004h26.313v-56.004h27.555v56.004h25.779v-57.336c0-11.679-9.744-21.426-21.423-21.426z"/><path d="m402.477 0c-11.679 0-21.423 9.744-21.423 21.423v37.425c0 11.679 9.744 21.423 21.423 21.423h72.006v-22.758h-66.648v-34.755h66.648v-22.758z"/></g></svg>