<svg xmlns="http://www.w3.org/2000/svg"><g fill="#fff"><path d="m256.164 207.216h-18.288c-.645 0-1.11-.726-1.11-1.422 0-.246 9.735-31.623 9.735-31.623.345-1.173.378-1.206.51-1.206h.018c.147 0 .165.033.51 1.206 0 0 9.732 31.377 9.732 31.623 0 .696-.495 1.422-1.107 1.422m24.669-71.79c-.183-.627-.744-1.092-1.404-1.14h-67.164c-.678.066-1.224.513-1.407 1.122 0 0-37.125 122.565-37.125 122.796 0 .612.48 1.107 1.107 1.107h44.397c.345-.132.612-.462.693-.843l5.172-16.521c.165-.414.546-.696 1.008-.711l40.959-.033c.447.033.843.348 1.008.744l5.289 16.521c.081.381.345.729.693.861 0 0 43.653-.018 43.686-.018.612 0 1.122-.462 1.122-1.074 0-.213-38.034-122.811-38.034-122.811"/><path d="m407.397 185.466-27.279.018s-.726-.216-.726-1.041l-.018-13.764c0-.825.726-1.041.726-1.041h25.017c2.907 0 8.79 1.455 8.79 8.178 0 6.726-6.51 7.65-6.51 7.65m130.791-10.656h61.812v-40.53h-79.473c-7.437 0-17.895 3.834-23.892 8.277-5.997 4.446-14.673 14.574-14.673 28.536s8.478 24.816 8.478 24.816c4.344 5.388 15.282 16.605 15.282 16.605.249.264.396.612.396 1.008 0 .843-.678 1.521-1.518 1.521h-61.218c-7.452-.033-7.965-2.991-7.965-3.42 0-.762.927-1.239.927-1.239 2.793-1.338 8.493-5.784 8.493-5.784 12.093-9.417 13.548-22.338 13.548-29.262 0-6.939-1.041-19.215-13.449-29.97-12.408-10.758-28.122-11.055-28.122-11.055h-87.357v124.284c0 .396.366.711.762.711h48.627v-34.863c0-.612.942 0 .942 0l25.329 25.443c9.003 9.105 23.892 9.42 23.892 9.42l95.763-.018c16.341 0 25.428-8.889 27.924-11.367 2.478-2.496 10.755-11.799 10.755-27.213 0-15.399-7.038-23.28-10.044-26.898-2.676-3.24-13.35-14.541-15.582-16.887-.264-.216-.429-.546-.429-.909 0-.546.312-1.059.792-1.206"/><path d="m151.542 259.302c.33 0 .561-.231.66-.594 0 0 37.623-123.573 37.623-123.687 0-.33-.201-.696-.513-.729 0 0-46.347 0-46.38 0-.231 0-.381.183-.429.432 0 .015-9.6 32.136-9.6 32.151-.066.267-.198.432-.429.432s-.432-.231-.465-.432l-10.044-32.169c-.033-.213-.198-.414-.429-.414-.018 0-51.219-.015-51.219-.015-.15.033-.282.165-.333.297 0 0-9.003 32.286-9.003 32.286-.051.282-.198.447-.447.447-.216 0-.396-.165-.429-.381l-9.552-32.253c-.015-.198-.18-.363-.378-.396h-49.437c-.396 0-.726.33-.726.744 0 .066.015.198.015.198s38.169 123.438 38.184 123.489c.099.363.33.594.663.594.048 0 41.058.018 41.058.018.246-.033.495-.315.561-.612.015 0 14.292-45.948 14.292-45.948.081-.282.198-.447.429-.447.249 0 .381.198.447.429l13.929 46.164c.081.231.297.396.561.396z"/><path d="m115.824.006c-7.452 0-17.895 3.834-23.892 8.277-6 4.446-14.673 14.574-14.673 28.533 0 13.962 8.475 24.819 8.475 24.819 4.347 5.385 15.285 16.689 15.285 16.689.249.264.396.609.396.99 0 .843-.678 1.536-1.518 1.536-.132 0-99.897 0-99.897 0v44.181h120.069c16.326 0 25.428-8.889 27.924-11.382 2.478-2.481 10.74-11.781 10.74-27.198 0-15.399-7.023-23.361-10.029-26.982-2.679-3.237-13.35-14.472-15.582-16.803-.264-.231-.429-.561-.429-.924 0-.546.315-1.041.792-1.206h57.831v84.495h44.46v-84.282h53.982v-40.743z"/><path d="m503.619 51.192-27.279.018s-.726-.216-.726-1.041l-.015-13.764c0-.825.726-1.041.726-1.041h25.017c2.907 0 8.79 1.455 8.79 8.178 0 6.726-6.513 7.65-6.513 7.65m35.988 29.577c-7.434-.033-7.965-2.991-7.965-3.42 0-.762.924-1.242.924-1.242 2.793-1.335 8.493-5.781 8.493-5.781 12.096-9.417 13.551-22.338 13.551-29.262 0-6.939-1.041-19.215-13.452-29.973-12.408-10.755-28.119-11.085-28.119-11.085h-87.357v124.317c0 .396.366.711.762.711h48.624v-34.848c0-.627.942 0 .942 0l25.332 25.428c9.003 9.105 23.889 9.42 23.889 9.42h74.766v-44.265z"/><path d="m354.759 72.93h-18.291c-.678 0-1.107-.726-1.107-1.422 0-.264 9.732-31.623 9.732-31.623.348-1.173.447-1.206.513-1.206h.015c.066 0 .165.033.513 1.206 0 0 9.732 31.359 9.732 31.623 0 .696-.447 1.422-1.107 1.422m24.618-71.823c-.183-.627-.726-1.074-1.404-1.107h-67.164c-.66.033-1.224.48-1.404 1.089 0 0-37.095 122.598-37.095 122.829 0 .612.498 1.107 1.107 1.107h44.397c.363-.114.627-.462.711-.843l5.172-16.539c.165-.396.543-.675 1.008-.693h40.941c.462.033.843.315 1.026.711l5.286 16.521c.084.381.348.729.693.861 0 0 43.653-.018 43.686-.018.612 0 1.107-.462 1.107-1.089 0-.198-38.067-122.829-38.067-122.829"/></g></svg>