<svg xmlns="http://www.w3.org/2000/svg"><g fill="#fff"><path d="m456.996 266.346c-8.079-2.127-15.567-6.345-20.178-11.349-2.679-2.916-5.751-8.001-7.014-11.664-.747-2.208-.786-3.27-.786-34.482 0-27.621.078-32.469.591-33.888 2.364-6.66 8.826-14.934 14.226-18.246 2.994-1.812 7.722-3.663 11.742-4.608 3.033-.75 4.926-.789 37.791-.789h34.557v19.701 19.704h-17.73-17.733v-3.744-3.744h-9.261c-10.995 0-12.414.318-15.252 3.51-3.072 3.426-3.072 3.468-3.072 22.698v16.944l1.143 1.968c1.734 3.036 3.978 5.124 6.501 6.069 2.049.75 3.036.828 11.862.828h9.654v-3.939-3.942h-8.472-8.472v-13.791-13.794h26.598 26.598v33.495 33.495l-35.937-.039c-20.766 0-36.567-.195-37.356-.393z"/><path d="m92.487 246.327v-20.136h17.772 17.775l-.159 4.335-.117 4.332h11.31c6.186 0 11.547-.117 11.901-.234.945-.354.747-1.458-.435-2.601-.63-.552-6.936-4.809-14.106-9.456-33.258-21.636-32.826-21.321-36.807-26.718-4.02-5.439-5.163-8.748-5.163-15.369 0-6.894 1.617-11.94 5.361-16.668 3.468-4.335 10.521-8.67 17.889-10.917l4.533-1.38 32.628-.117 32.589-.12v19.548 19.506h-18.129-18.126v-3.942-3.939l-6.579.078c-5.676.12-6.621.198-6.738.747-.081.435 1.851 1.854 6.423 4.731 9.024 5.634 29.712 19.347 33.417 22.146 7.644 5.793 12.687 13.833 13.632 21.753.552 4.491.552 9.258 0 12.255-.198 1.26-1.26 4.098-2.322 6.303-1.617 3.312-2.367 4.377-4.614 6.504-4.806 4.452-9.573 6.66-18.282 8.313-4.374.828-5.559.828-39.051.987l-34.602.156z"/><path d="m197.703 250.227v-16.155h5.121 5.124l-.078-25.101-.117-25.14-5.007-.12-5.043-.12v-16.116-16.155h28.371 28.374v16.155 16.116l-4.806.12-4.848.12-.117 24.942-.081 24.903 10.914-.078 10.956-.117v-5.319-5.319h18.72 18.717l.117 3.939c.078 2.169 0 11.979-.117 21.792l-.276 17.811h-52.962-52.962z"/><path d="m341.85 265.953c-4.845-.711-11.268-3.429-15.96-6.741-5.436-3.783-8.313-7.485-10.086-12.807l-1.026-3.111-.276-30.225-.276-30.225h-4.491-4.452v-15.762-15.762h26.007 26.007v15.762 15.723l-3.426.117-3.471.12v24.588 24.588l1.104.831c1.065.786 1.578.828 11.31.828 9.735 0 10.248-.042 11.31-.828l1.104-.831.117-24.705.081-24.669h-3.549-3.546v-15.762-15.762l26.127.078 26.088.117.117 15.684.078 15.645h-4.728-4.689l-.12 31.446-.117 31.407-1.458 2.955c-3.903 7.92-11.901 14.067-21.633 16.629-3.192.828-4.059.867-23.604.948-11.154.039-21.318-.081-22.542-.276z"/><path d="m.003 140.208c.117-.279 3.624-6.621 7.842-14.109l7.686-13.596 7.683-.117 7.683-.078 9.774-17.457c5.397-9.576 15.21-27.072 21.87-38.895 6.618-11.82 12.807-22.857 13.752-24.51l1.656-3.072-7.488-.081-7.488-.117 7.923-14.109 7.959-14.067 24.825.078 24.867.12.195 13.911.198 13.908 2.364-4.137c1.299-2.247 4.926-8.55 8.079-13.989l5.712-9.852 21.399-.039h21.357v6.228c0 3.387-.117 9.771-.273 14.145l-.24 8.001h-4.491-4.455v41.964 41.97h4.731 4.728v6.225c0 3.39-.117 9.774-.273 14.187l-.24 7.959h-29.121-29.079v-14.184-14.187h4.137 4.137v-8.748c0-4.848-.159-8.592-.354-8.355-.159.198-1.812 2.916-3.666 6.069-1.851 3.153-5.28 8.985-7.644 13.002-2.364 3.984-6.777 11.508-9.852 16.749l-5.517 9.459-11.901.117-11.898.078-.081-22.815-.117-22.815-5.241 9.102c-2.88 5.043-8.748 15.249-13.044 22.737l-7.842 13.596-30.225.117c-24.156.078-30.186 0-30.027-.393z"/><path d="m197.583 132.918c-.156-4.257-.273-10.641-.273-14.187v-6.423h4.137 4.137v-21.87-21.87h-4.137-4.137v-14.385-14.382h45.12 45.12v16.746 16.749l-16.434-.078-16.47-.12-.12-2.244-.117-2.286h-7.644-7.686v3.546 3.546h10.836 10.839v13.203 13.2h-10.839-10.836v5.121 5.124h7.686 7.644l.117-3.429.12-3.468 16.47-.117 16.434-.081v17.733 17.733h-44.844-44.886z"/><path d="m318.678 126.297v-14.382h5.52 5.514v-21.477-21.477h-1.143c-1.143 0-1.182.078-1.299 2.088l-.117 2.049h-14.778-14.778l-.117-16.668-.078-16.629h49.059 49.062l-.081 16.629-.117 16.668-14.856.12-14.895.078v-2.562-2.559h-1.578-1.575v21.867 21.873h5.91 5.913v14.382 14.382h-27.783-27.783z"/><path d="m384.093 126.495v-14.148l5.952-.117 5.952-.12 2.679-4.728c1.458-2.601 6.933-12.333 12.174-21.633 5.202-9.261 9.498-17.025 9.498-17.22 0-.198-2.127-.396-4.728-.435l-4.692-.117 7.962-13.992 7.998-13.986h33.498 33.453l.12 14.106.078 14.07h-4.335-4.335v22.065 22.068h4.335 4.335v14.187 14.184h-37.2-37.239l2.484-4.413c1.338-2.442 3.39-6.147 4.491-8.196 1.104-2.049 3.468-6.384 5.283-9.654l3.309-5.913 8.748-.117 8.748-.078v-17.22c0-9.459-.078-17.103-.156-17.025-.12.078-3.075 5.202-6.621 11.388-3.588 6.189-11.706 20.217-18.048 31.251l-11.628 19.977h-16.035-16.08z"/><path d="m504.675 126.495v-14.187h4.533 4.533v-22.068-22.065h-4.533-4.533v-14.19-14.184l25.341.078 25.299.12.117 14.106.078 14.07h-4.332-4.338v21.867 21.873h9.774 9.735l-.12-4.731-.12-4.728 16.866.078 16.869.12.117 1.968c.078 1.104.039 9.654-.117 19.035l-.279 17.022h-47.445-47.445z"/></g></svg>