<svg preserveAspectRatio="none" xmlns="http://www.w3.org/2000/svg"><g fill="#1e1e1e"><path d="m559.202 273.755v-33.333l33.335-.002v32.495.84zm32.493-.84v-.843zm-30.811-30.809v29.967h29.971v-29.968z" transform="matrix(.965926 -.258819 .258819 .965926 -46.916834 157.805879)"/><path d="m564.651 268.309v-22.439h22.437v21.597.842zm21.596-.842v-.841zm-19.914-.841h19.073v-19.074h-19.073z" transform="matrix(.965926 -.25882 .25882 .965926 -46.91742 157.806414)"/><path d="m622.486 394.919c-.043 0-.09 0-.143-.003l-63.674-.002s-.004 0-.048.002c-1.285.021-2.148-1.141-2.178-2.341l-7.204-160.238c-.128-1.236-.751-1.749-2.336-1.822v-.838l.594.593-1.188-1.19c.026.026.014-.175.594-.248 2.102-.074 3.933 1.257 4.016 3.416l7.203 160.23c.101.684.254.735.499.756.004 0 .041-.001.074-.001h63.666l.039.003c.021 0 .051.003.087.003.282-.023.228-.04.302-.112.064-.084.145-.345.166-.634l7.202-160.261c.08-2.145 1.916-3.473 4.015-3.399v1.68c-1.584.074-2.209.588-2.336 1.809l-7.204 160.282c-.044.448-.122.962-.445 1.458-.305.493-.949.858-1.637.858-.022.001-.043.001-.064-.001z" transform="matrix(.965926 -.258819 .258819 .965926 -60.607198 163.392346)"/><path d="m494.915 235.228v-118.455h118.452l.002 117.613v.842zm117.613-.842v-.841zm-115.933-.841h115.092l-.002-115.09h-115.088z" transform="matrix(.965926 -.258819 .258819 .965926 -26.670344 149.419428)"/><path d="m515.425 218.326c-1.994-.002-3.607-1.617-3.609-3.607v-77.437c.002-1.993 1.615-3.607 3.609-3.607h77.436c1.991.002 3.606 1.614 3.608 3.607v77.438c-.002 1.992-1.617 3.605-3.608 3.607h-77.436zm-1.926-81.044v77.438c.002 1.061.861 1.922 1.927 1.925h77.435c1.062-.002 1.923-.863 1.925-1.925v-77.438c0-1.062-.863-1.923-1.925-1.924h-77.436c-1.065.001-1.924.862-1.926 1.924z" transform="matrix(.965926 -.258819 .258819 .965926 -26.670462 149.419711)"/><path d="m572.414 198.286h.027c-.007 0-.011 0-.017 0-.003 0-.007 0-.01 0zm-.004 0h-36.61c-2.136-.002-3.865-1.73-3.865-3.863v-36.616s0 0 0-.002c0-2.135 1.732-3.861 3.865-3.863l36.612.002c2.133 0 3.864 1.729 3.864 3.861l.002 36.616h-.002c0 2.124-1.712 3.847-3.835 3.864.047-.001.121-.013.252-.05.126-.014.554-.304.556-.772-.02-.439-.189-.529-.231-.6-.065-.068-.099-.087-.125-.107l-.181.258-.302 1.272h.004c-.002 0-.002 0-.004 0zm0-1.683c1.208-.001 2.183-.977 2.185-2.18v-36.616c-.004-1.206-.977-2.181-2.183-2.182h-36.612c-1.179.001-2.138.933-2.182 2.1l-.002 36.696c.004 1.205.979 2.179 2.184 2.181h36.608.002z" transform="matrix(.965926 -.258819 .258819 .965926 -26.700927 149.4141)"/><path d="m513.751 148.434h22.019l-6.973 6.544 6.21 6.209-1.189 1.189-7.438-7.439 5.139-4.82-16.085-.002v16.084l4.746-5.062 7.752 7.753h.002l-1.191 1.189-6.523-6.526-6.469 6.899z" transform="matrix(.965926 -.258819 .258819 .965926 -23.386103 141.250897)"/><path d="m575.849 151.083-6.523 6.524-1.191-1.189 7.752-7.754 4.746 5.062v-16.082h-16.085l5.141 4.824-7.439 7.437-1.189-1.191 6.21-6.207-6.97-6.544 22.015-.004v22.025z" transform="matrix(.965926 -.258819 .258819 .965926 -18.572158 152.873296)"/><path d="m572.512 203.569 6.975-6.547-6.21-6.206 1.186-1.191 7.44 7.436-5.14 4.825h16.085l-.002-16.084-4.743 5.063-7.753-7.753 1.189-1.191 6.525 6.522 6.464-6.898.003 22.024z" transform="matrix(.965926 -.258819 .258819 .965926 -29.954407 157.587686)"/><path d="m525.969 216.039v-22.019l6.466 6.896 6.524-6.523h.002l1.187 1.189-7.751 7.751-4.746-5.061v16.085h16.084l-5.14-4.824 7.439-7.436 1.188 1.19-6.211 6.205 6.975 6.547z" transform="matrix(.965926 -.258819 .258819 .965926 -34.768478 145.966222)"/><path d="m541.697 192.054c-1.994-.002-3.607-1.616-3.607-3.606v-24.893c0-1.992 1.613-3.606 3.607-3.606l24.89-.001c1.992.001 3.607 1.614 3.608 3.607l-.001 24.891c0 1.991-1.615 3.605-3.608 3.607h-24.889zm-1.926-28.499v24.893c.002 1.06.863 1.921 1.926 1.922h24.89c1.063-.001 1.922-.861 1.924-1.924l.002-24.891c-.002-1.062-.863-1.922-1.926-1.924h-24.89c-1.064.002-1.924.863-1.926 1.924z" transform="matrix(.965926 -.258819 .258819 .965926 -26.670462 149.419711)"/><path d="m544.198 176.06c-.003-.028-.003-.064 0-.109.029-5.469 4.468-9.892 9.943-9.895 5.494.001 9.944 4.452 9.944 9.944h.002c-.002 5.493-4.452 9.944-9.946 9.945-5.472-.001-9.911-4.419-9.943-9.885zm9.943 8.202c4.563-.007 8.255-3.699 8.263-8.263-.009-4.561-3.7-8.254-8.263-8.26-4.563.006-8.254 3.699-8.262 8.26.008 4.566 3.699 8.257 8.262 8.263zm-8.262-8.304c-.003-.066-.009-.084-.012-.09.003.018.009.047.012.09z" transform="matrix(.965926 -.258819 .258819 .965926 -26.670366 149.419257)"/><path d="m565.435 350.24v-1.683h69.909v1.683z" transform="matrix(.965926 -.258819 .258819 .965926 -69.973209 167.297703)"/><path d="m577.872 390.049c-.989-.042-1.616-.058-2.229-.533-.611-.558-.573-1.211-.602-1.7l-1.829-37.064h66.038l-1.828 37.05c-.03.504.008 1.16-.603 1.717-.615.474-1.244.491-2.229.529l-.017-.838v.841zm-.934-1.758c.194.038.517.066.949.075h56.669c.649-.005 1.032-.08 1.144-.121.018-.074.032-.253.04-.513l1.742-35.298h-62.506l1.743 35.308c.005.249.025.425.039.501.035.014.095.033.18.048z" transform="matrix(.965926 -.258819 .258819 .965926 -75.210086 169.525066)"/><path d="m529.609 181.914c0-4.37 1.106-8.489 3.049-12.082l1.479.8c-1.815 3.357-2.844 7.196-2.844 11.282 0 4.463 1.227 8.633 3.365 12.199l-1.443.866c-2.288-3.82-3.606-8.291-3.606-13.065z" transform="matrix(.965926 -.258819 .258819 .965926 -29.078015 143.941747)"/><path d="m547.527 197.293.83-1.462c3.457 1.962 7.447 3.081 11.708 3.081 4.46 0 8.627-1.228 12.191-3.363h.001l.863 1.441c-3.815 2.286-8.286 3.604-13.055 3.604-4.556.001-8.839-1.2-12.538-3.301z" transform="matrix(.965926 -.258819 .258819 .965926 -32.172118 151.771511)"/><path d="m573.679 182.482c2.215-3.612 3.49-7.856 3.49-12.403 0-4.405-1.197-8.524-3.284-12.06h.001l1.447-.856c2.235 3.785 3.52 8.203 3.52 12.915 0 4.865-1.369 9.416-3.74 13.281z" transform="matrix(.965926 -.258819 .258819 .965926 -24.430999 154.950106)"/><path d="m536.052 156.398s.001 0 0 0zm-.861-1.444c3.808-2.273 8.267-3.581 13.021-3.581 4.656 0 9.025 1.252 12.781 3.439l-.851 1.453c-3.505-2.041-7.58-3.21-11.932-3.21-4.446 0-8.601 1.22-12.159 3.343z" transform="matrix(.965926 -.258819 .258819 .965926 -21.152719 147.100294)"/></g></svg>