<svg xmlns="http://www.w3.org/2000/svg"><g fill="#1e1e1e"><path d="m25.101 160.672c-2.185-8.576-8.843-27.173-8.84-59.049l.001-5.508c-.006-34.875 9.227-56.961 12.174-65.737 2.953-9.002 11.245-15.58 21.145-15.997 9.866-.157 52.692-1.087 98.374-1.087h42.299c6.141 0 12.141-.002 17.961-.001 39.664.001 70.853.077 80.743 1.375 8.686 1.428 15.749 7.655 18.38 15.87.374 1.173.659 2.388.846 3.63.397 2.499 1.115 9.779 1.973 19.587 2.483 28.45 6.102 77.966 6.104 91.766-.001 8.151-4.652 15.218-11.412 18.669-6.473 3.878-34.837 15.801-68.743 15.811-22.764-.002-46.234-.887-61.756-3.385-.002 0-.004 0-.007-.001-.342-.005-.696-.008-1.057-.008-17.702-.002-58.153 5.716-70.978 6.413-13.163.712-30.763 1.245-45.526 1.246-14.959 0-27.599-9.936-31.681-23.594zm24.512-145.225c-9.433.396-17.347 6.677-20.165 15.267-2.968 8.839-12.116 30.696-12.121 65.401v5.509c.005 31.75 6.599 50.122 8.801 58.764 3.945 13.194 16.177 22.813 30.655 22.813 14.738 0 32.329-.533 45.468-1.242 11.673-.632 46.676-5.501 66.167-6.304-12.578-2.038-31.248-4.936-43.925-4.934-4.523-.004-8.284.375-10.653 1.252l-.369-1.002c2.606-.953 6.437-1.313 11.022-1.316 15.003.002 38.064 3.986 49.942 5.898.124.002.248.004.369.007h.001l-.001.052c15.406 2.444 38.71 3.325 61.304 3.324 33.63.011 61.958-11.905 68.225-15.675 6.45-3.296 10.863-10 10.862-17.737.003-13.692-3.617-63.257-6.099-91.675-.855-9.792-1.579-17.099-1.966-19.518-.177-1.189-.449-2.346-.807-3.465-2.508-7.836-9.253-13.783-17.518-15.14-9.689-1.279-40.952-1.366-80.588-1.365-5.819 0-11.82.002-17.961.002h-42.299c-45.671-.003-88.486.926-98.344 1.084z" transform="matrix(.965926 -.258819 .258819 .965926 -19.900777 46.39736)"/><path d="m92.614 155.603c-.891-2.634-10.169-34.023-10.173-68.999-.007-36.329 9.593-60.369 10.498-63.607.737-3.357 3.531-5.938 7.027-6.361 3.504-.211 17.479-.589 48.012-.589 64.308.005 103.873 7.712 105.446 8.143l.021.006.019.007c1.565.571 2.8 1.815 3.359 3.385.331.738 1.156 3.564 2.297 7.909 1.152 4.406 2.589 10.292 3.995 16.765 2.809 12.947 5.492 28.215 5.494 38.696-.005 14.06-2.318 46.287-3.404 51.583-.072.317-.108.52-.209.728-.474 2.193-1.98 4.224-4.222 4.8-.729.218-4.053.84-9.098 1.707-5.118.876-11.932 1.977-19.242 3.058-14.624 2.16-31.215 4.234-40.269 4.236-1.521 0-2.758-1.211-2.798-2.721l-.143-.529c-.791-2.591-3.203-4.48-6.057-4.479h-11.862c-2.256 0-4.233 1.178-5.357 2.954-.228.47-.354 1.1-.814 1.682l-.015.018-.015.017c-.555.57-1.336.925-2.196.925-.775 0-1.488-.289-2.027-.766l-.039-.033-1.407-1.789-.013-.022c-1.119-1.794-3.108-2.988-5.377-2.988h-38.722c-3.497.007-6.325 2.834-6.332 6.332v1.289c0 1.877-1.521 3.398-3.399 3.398l-6.265.001c-3.101 0-5.739-1.983-6.713-4.756zm7.448-137.905c-3.009.362-5.443 2.612-6.089 5.557-.953 3.398-10.459 27.165-10.465 63.349-.005 34.778 9.261 66.143 10.115 68.651.827 2.352 3.067 4.04 5.703 4.039h6.264c1.288-.003 2.331-1.044 2.333-2.333v-1.289c0-4.086 3.311-7.398 7.398-7.398h38.721c2.641 0 4.963 1.387 6.27 3.468l1.308 1.662c.349.292.795.468 1.286.468.556 0 1.053-.224 1.417-.588.257-.316.392-.864.681-1.486l.013-.03.016-.023c1.306-2.084 3.629-3.472 6.272-3.472h11.862c3.334 0 6.153 2.204 7.081 5.252l.183.674v.073c.002.958.775 1.731 1.734 1.733 13.385.003 44.009-4.656 59.331-7.28 5.088-.869 8.574-1.537 8.98-1.679l.024-.009.014-.003c1.75-.431 3.063-2.137 3.451-4.048l.02-.1.055-.083h-.002c.007-.018.018-.053.033-.097.026-.088.057-.218.091-.382.067-.326.144-.785.224-1.35.16-1.134.342-2.703.53-4.593.381-3.781.799-8.849 1.188-14.339.779-10.979 1.439-23.648 1.439-31.085.005-15.479-6.008-42.025-9.454-55.192-1.139-4.368-2.034-7.35-2.241-7.75l-.013-.026-.01-.031c-.447-1.27-1.447-2.283-2.707-2.748-1.717-.449-41.264-8.103-105.139-8.099-30.518.001-44.506.38-47.917.587z" transform="matrix(.965926 -.258819 .258819 .965926 -16.847747 48.43466)"/><path d="m103.216 134.734c-1.347-.001-2.529-.714-3.183-1.783l-.015-.026-.012-.025c-.195-.426-.632-1.856-1.248-4.273-.608-2.399-1.362-5.711-2.097-9.697-1.469-7.971-2.865-18.633-2.865-30.051v-6.931c.001-17.128 3.138-32.555 4.962-39.749.616-2.416 1.053-3.846 1.248-4.272l.012-.027.015-.024c.654-1.068 1.836-1.782 3.183-1.782h144.135c1.345 0 2.527.714 3.183 1.782l.014.025.012.026c.194.426.633 1.856 1.248 4.271.609 2.4 1.362 5.712 2.098 9.698 1.469 7.97 2.863 18.634 2.863 30.051v6.932h.001c-.001 17.126-3.138 32.553-4.962 39.747-.615 2.416-1.054 3.847-1.248 4.273l-.012.025-.014.026c-.655 1.069-1.837 1.782-3.183 1.783h-144.135zm0-1.067h144.135c.952 0 1.784-.497 2.257-1.248.125-.285.592-1.775 1.167-4.053.603-2.376 1.352-5.667 2.082-9.628 1.46-7.923 2.847-18.528 2.846-29.858h.001l-.001-6.932c.001-16.997-3.12-32.358-4.928-39.487-.574-2.277-1.042-3.768-1.167-4.053-.474-.751-1.305-1.247-2.257-1.247h-144.135c-.952 0-1.785.496-2.259 1.247-.124.285-.592 1.776-1.166 4.053-.603 2.375-1.351 5.667-2.081 9.628-1.462 7.923-2.847 18.527-2.847 29.859v6.931c-.001 16.996 3.12 32.358 4.928 39.486.574 2.277 1.043 3.767 1.167 4.054.473.751 1.306 1.248 2.258 1.248z" transform="matrix(.965926 -.258819 .258819 .965926 -16.134149 48.276989)"/><path d="m103.914 129.664c-.588 0-1.065-.477-1.066-1.065l.001-86.552c0-.589.476-1.066 1.065-1.067h143.425c.589 0 1.066.478 1.067 1.067v86.552h-.001c0 .589-.477 1.065-1.066 1.065zm0-1.065h143.425v-86.553h-143.425z" transform="matrix(.965926 -.258819 .258819 .965926 -16.098613 48.362885)"/><path d="m45.881 164.122c-8.422-.683-15.416-6.413-17.949-14.159-2.679-7.826-6.617-27.397-6.621-57.306.008-26.415 7.603-52.38 10.325-58.772 2.709-6.628 8.757-11.533 16.054-12.623 7.28-1.114 40.503-6.094 92.52-6.094 65.619 0 115.359 7.995 124.762 9.332l-.075.527.085-.525c9.824 1.598 17.317 10.119 17.317 20.392-.002 10.219.992 21.913 1.616 24.951.611 2.921 2.183 5.491 4.386 7.376 4.629 4.274 10.117 9.429 13.057 12.569 3.014 3.149 4.993 7.251 5.586 11.792.749 5.744 1.413 19.851 1.482 24.888-.001 9.033-5.798 16.713-13.886 19.523-7.989 2.643-51.587 13.655-97.505 17.397-4.968.406-6.988 1.059-8.255 1.625-1.246.559-1.983 1.175-4.014 1.307-1.675.114-26.281.533-78.946.535-23.089-.002-51.723-2.269-59.939-2.735zm1.969-141.807c-6.919 1.033-12.659 5.688-15.229 11.981-2.654 6.199-10.25 32.168-10.242 58.36-.003 29.806 3.94 49.32 6.565 56.969 2.403 7.35 9.039 12.789 17.011 13.433 8.229.468 36.836 2.732 59.866 2.732 52.637.001 77.312-.423 78.873-.531 1.833-.135 2.232-.577 3.652-1.216 1.399-.63 3.578-1.308 8.605-1.717 45.789-3.724 89.406-14.743 97.249-17.343 7.661-2.662 13.163-9.945 13.163-18.507-.065-4.969-.735-19.12-1.474-24.757-.564-4.319-2.442-8.209-5.302-11.197-2.897-3.094-8.386-8.253-12.99-12.504-2.362-2.022-4.061-4.798-4.723-7.959-.655-3.223-1.634-14.859-1.636-25.166.001-9.743-7.112-17.826-16.424-19.34-9.436-1.342-59.084-9.32-124.602-9.32-51.954 0-85.11 4.974-92.362 6.082z" transform="matrix(.965926 -.258819 .258819 .965926 -17.938016 45.772304)"/><path d="m285.423 4.491v-1.067h2.332v1.067z" transform="matrix(.965926 -.258819 .258819 .965926 8.741001 74.309521)"/><path d="m281.891 2.13v-1.066h4.865v1.066z" transform="matrix(.965926 -.258819 .258819 .965926 9.27475 73.642736)"/><path d="m288.059 8.311v-1.066h1.155v1.066z" transform="matrix(.965926 -.258819 .258819 .965926 7.82195 74.969626)"/><path d="m286.47 5.69v-1.067h1.756v1.067z" transform="matrix(.965926 -.258819 .258819 .965926 8.456543 74.546826)"/><path d="m288.664 12.4v-1.066h2.044v1.066z" transform="matrix(.965926 -.258819 .258819 .965926 6.799404 75.3806)"/><path d="m288.45 9.589v-1.067h1.311v1.067z" transform="matrix(.965926 -.258819 .258819 .965926 7.507297 75.13457)"/><path d="m287.041 16.785v-1.067h5.178v1.067z" transform="matrix(.965926 -.258819 .258819 .965926 5.662706 75.515521)"/><path d="m288.466 13.757v-1.066h2.777v1.066z" transform="matrix(.965926 -.258819 .258819 .965926 6.453925 75.470441)"/><path d="m268.355 11.569c0-5.71 4.674-10.321 10.43-10.331 5.756.011 10.429 4.621 10.43 10.331-.001 5.709-4.674 10.319-10.43 10.329-5.757-.01-10.43-4.621-10.43-10.329zm1.065 0c.011 5.111 4.188 9.263 9.365 9.263 5.175 0 9.354-4.152 9.364-9.263-.01-5.114-4.188-9.265-9.364-9.265-5.177 0-9.356 4.152-9.365 9.265z" transform="matrix(.965926 -.258819 .258819 .965926 6.505352 72.549042)"/><path d="m291.946 19.128c-.433-.209-1.129-.313-1.952-.311-2.459-.006-5.928.859-8.016.95l-.045-1.065c1.889-.069 5.403-.947 8.061-.952.904.003 1.726.096 2.408.413.681.303 1.215.941 1.281 1.776l-1.062.101c-.06-.474-.242-.688-.675-.912zm-9.97.639h.002z" transform="matrix(.965926 -.258819 .258819 .965926 4.916434 75.134034)"/><path d="m286.037 2.441c-.484-.025-.828-.254-1.37-.584-.411-.277-1.662-.616-3.771-.608-1.874 0-4.436.242-7.789.904l-.207-1.045c3.406-.674 6.032-.924 7.996-.924 2.223.008 3.575.297 4.345.776.189.122.356.219.489.287-.003-.013-.006-.026-.008-.04l1.042-.218c.041.201.068.377.068.556-.001.182-.021.382-.167.589-.139.204-.407.308-.602.308-.009-.001-.017-.001-.026-.001zm-12.932-.287h.001z" transform="matrix(.965926 -.258819 .258819 .965926 9.196383 72.479428)"/><path d="m298.607 98.062-.027-.021-7.445-7.694c-.592-.495-.97-1.244-.97-2.077 0-.747.304-1.428.788-1.911l7.527-7.775.025-.022c.961-.817 2.209-1.311 3.568-1.311 2.268.001 4.217 1.37 5.055 3.316.887 1.946.957 4.812.965 8.292.007 4.371-.364 5.97-1.265 7.704-.955 1.63-2.729 2.725-4.755 2.725-1.311.001-2.522-.459-3.466-1.226zm3.466.16c1.636 0 3.062-.882 3.821-2.174.793-1.55 1.126-2.83 1.133-7.188.009-3.452-.121-6.262-.872-7.856-.682-1.581-2.254-2.687-4.082-2.686-1.091 0-2.085.392-2.859 1.043l-7.5 7.746c-.298.3-.481.708-.481 1.165 0 .515.234.97.606 1.275l-.337.413-.383.37.383-.37.337-.413.025.019 7.443 7.69c.758.605 1.716.966 2.766.966z" transform="matrix(.965926 -.258819 .258819 .965926 -12.653252 80.427978)"/><g transform="matrix(.515008 -.137996 .137996 .515008 -10.962375 50.42643)"><path d="m91.567 222.712c-1.401-.012-2.673-.596-3.567-1.512l-14.456-14.271-.029-.035c-1.494-1.792-2.396-4.104-2.394-6.615 0-.021-.002-.066 0-.102.043-4.252 2.648-7.883 6.313-9.42 3.226-1.438 7.77-1.658 13.264-1.672.75 0 1.519.006 2.305.018 8.199.066 11.19.793 14.425 2.514 3.013 1.805 5.024 5.105 5.024 8.867v.104c-.025 2.459-.909 4.719-2.368 6.478l-.033.041-14.561 13.814c-.921 1.088-2.3 1.781-3.829 1.791l-.017.002h-.077zm-2.151-2.92c.544.551 1.281.896 2.112.922.048-.004.073-.004.083-.004.006.002.011.002.011.002.954 0 1.798-.43 2.367-1.109l.037-.046 14.551-13.808c1.157-1.414 1.856-3.209 1.877-5.144-.002-.06-.002-.104-.002-.122 0-3.035-1.621-5.691-4.004-7.124-2.895-1.515-5.289-2.165-13.468-2.258-.778-.011-1.54-.015-2.281-.015-5.421-.012-9.822.291-12.465 1.504-2.976 1.252-5.078 4.176-5.113 7.647v.039c.002 2.021.716 3.863 1.911 5.308z"/><path d="m77.459 276.929c-3.689-1.545-6.295-5.176-6.337-9.398-.002-.068-.002-.117-.002-.136 0-2.509.9-4.823 2.396-6.612l.023-.027 14.45-14.268c.894-.914 2.142-1.494 3.519-1.521.058-.006.084-.004.096-.004h.013c1.542 0 2.936.692 3.867 1.787l14.57 13.824.034.04c1.458 1.759 2.343 4.019 2.366 6.522v.057c0 3.758-2.012 7.063-5.073 8.896-3.187 1.695-6.179 2.42-14.38 2.486-.779.004-1.542.012-2.29.014-5.502-.014-10.047-.233-13.252-1.66zm-4.339-9.534c0 .039 0 .052.002.083.031 3.434 2.135 6.357 5.135 7.619 2.621 1.199 7.024 1.502 12.452 1.49.737 0 1.496-.006 2.272-.01 8.177-.095 10.571-.744 13.417-2.232 2.433-1.461 4.054-4.119 4.054-7.152 0-.021 0-.061 0-.081-.021-1.968-.716-3.761-1.868-5.175l-14.515-13.773.687-.725.769-.641-.769.641-.687.725-.048-.045-.033-.041c-.571-.685-1.418-1.115-2.373-1.115h-.021-.008c-.854.012-1.615.361-2.183.938l-14.374 14.192c-1.193 1.441-1.909 3.287-1.909 5.302z"/><path d="m125.04 254.503c-2.459-.021-4.719-.908-6.479-2.364l-.046-.04-13.811-14.557c-1.098-.932-1.795-2.326-1.793-3.873.001-.002-.004-.015 0-.09.024-1.386.604-2.642 1.512-3.531l14.26-14.443.048-.038c1.788-1.495 4.098-2.396 6.607-2.396.009 0 .052-.002.124.002 4.247.051 7.869 2.654 9.404 6.313 1.438 3.231 1.658 7.783 1.668 13.288 0 .741-.004 1.5-.01 2.277-.069 8.199-.794 11.193-2.516 14.428-1.807 3.01-5.108 5.021-8.87 5.021-.025-.002-.025 0-.025 0l-.038.002h-.035zm-.011-2c.036-.002.063-.002.082-.002h.029c3.037.002 5.693-1.619 7.127-4.002 1.514-2.896 2.167-5.289 2.258-13.465.006-.775.012-1.527.012-2.261.011-5.435-.291-9.842-1.504-12.487-1.25-2.978-4.175-5.082-7.606-5.113l-.052-.002-.035-.004v.002.002c-2.01 0-3.848.711-5.288 1.898l-14.215 14.396c-.565.557-.916 1.315-.924 2.172l-.002.058c.008.94.438 1.78 1.115 2.345l-.64.77-.725.688.725-.688.64-.77.042.035 13.808 14.553c1.408 1.151 3.192 1.848 5.153 1.875z"/><path d="m58.492 254.503-.027-.002c-.002.002 0 0-.033.002-3.76-.002-7.061-2.015-8.895-5.071-1.695-3.187-2.42-6.181-2.488-14.378-.008-.781-.013-1.545-.013-2.285.011-5.503.231-10.053 1.66-13.258 1.541-3.678 5.155-6.278 9.393-6.338.087-.006.132-.002.144-.002 2.509-.002 4.821.899 6.612 2.396l.033.028 14.26 14.443c.926.907 1.51 2.18 1.522 3.582l.002.067-.002.019c-.01 1.525-.699 2.905-1.783 3.828l-13.817 14.561-.05.044c-1.757 1.456-4.018 2.343-6.477 2.364zm-.295-39.332-.052.002c-3.432.031-6.356 2.137-7.615 5.138-1.203 2.62-1.506 7.03-1.494 12.458 0 .734.002 1.488.013 2.264.091 8.178.741 10.571 2.231 13.418 1.46 2.432 4.117 4.055 7.152 4.055.007 0 .044-.004.107 0 1.961-.026 3.749-.725 5.158-1.877l13.766-14.506.042-.047.044-.035c.683-.568 1.111-1.414 1.111-2.367.001 0-.001-.014.001-.067-.017-.843-.366-1.59-.934-2.149l-14.213-14.395c-1.44-1.184-3.276-1.891-5.281-1.893-.005 0-.01 0-.014 0z"/></g><path d="m281.949 113.665c-1.669-.882-2.841-2.608-2.929-4.628-.004-.081-.006-.164-.006-.247-.001-1.219.399-2.357 1.08-3.274l.023-.031 7.358-7.765c.468-.615 1.202-1.026 2.033-1.062.032-.002.072-.004.122-.004.7 0 1.346.27 1.823.707l8.098 7.187.019.02c.858.923 1.407 2.149 1.466 3.509.003.081.004.163.005.24-.001 2.166-1.261 4.063-3.099 4.952-1.905.972-4.766 1.167-8.242 1.325-.87.038-1.628.056-2.296.056-.023 0-.045 0-.068 0-2.656.001-3.985-.33-5.387-.985zm-1.87-4.875c0 .062.002.127.005.197.072 1.633 1.015 3.021 2.337 3.722 1.28.585 2.34.869 4.984.875.65 0 1.392-.016 2.25-.056 3.449-.141 6.251-.391 7.809-1.212 1.493-.722 2.512-2.254 2.511-3.998 0-.068-.002-.133-.004-.196-.047-1.089-.483-2.067-1.167-2.812l-8.065-7.157c-.297-.27-.683-.431-1.109-.433-.015 0-.037.002-.073.004-.516.023-.96.277-1.248.66l-.019.026-7.359 7.768c-.537.735-.851 1.638-.852 2.612z" transform="matrix(.965926 -.258819 .258819 .965926 -17.462299 78.664609)"/><path d="m52.797 173.315 10.752-14.007.023-.024c.144-.126.311-.575.303-1.059.002-.446-.123-.91-.302-1.16l-10.865-13.905.745-.75 13.964 10.719c.401.263.806.384 1.196.384.377 0 .749-.109 1.11-.342l13.885-10.852.751.744-10.751 14.006c-.207.234-.378.684-.375 1.149 0 .389.109.779.349 1.097l10.865 13.904-.744.752-13.969-10.723c-.203-.159-.732-.292-1.232-.284-.493-.014-.981.145-1.05.231l-13.905 10.866zm3.4-2.678 10.581-8.267c.467-.374 1.072-.459 1.725-.474.649.007 1.325.116 1.868.497l10.654 8.178-8.289-10.607c-.402-.535-.568-1.16-.568-1.746.003-.702.223-1.363.614-1.821l8.177-10.653-10.613 8.294-.022.015c-.522.344-1.112.527-1.71.525-.62.002-1.241-.195-1.801-.571l.296-.443-.323.423-10.655-8.178 8.299 10.62c.365.528.509 1.175.51 1.795-.007.656-.15 1.3-.573 1.77z" transform="matrix(.965926 -.258819 .258819 .965926 -38.60588 23.13937)"/><path d="m39.853 158.19c.001-15.866 12.861-28.725 28.725-28.726 15.865.001 28.725 12.86 28.725 28.726 0 15.864-12.86 28.723-28.725 28.724-15.864-.001-28.724-12.86-28.725-28.724zm9.167-19.557c-5.005 5.006-8.1 11.917-8.101 19.557 0 7.639 3.096 14.551 8.101 19.558 5.007 5.007 11.919 8.1 19.558 8.1 7.64 0 14.551-3.095 19.558-8.1 5.006-5.007 8.1-11.919 8.1-19.558 0-7.64-3.094-14.551-8.1-19.557-5.008-5.007-11.918-8.101-19.558-8.101-7.64-.001-14.551 3.095-19.558 8.101z" transform="matrix(.965926 -.258819 .258819 .965926 -38.605562 23.139436)"/><g transform="matrix(.515008 -.137996 .137996 .515008 -10.962375 50.42643)"><path d="m94.825 74.864c-1.364-.01-2.603-.579-3.473-1.469l-13.979-13.803-.028-.035c-1.449-1.737-2.325-3.981-2.323-6.415 0-.021-.002-.067 0-.102.042-4.125 2.571-7.646 6.125-9.136 3.129-1.394 7.521-1.607 12.833-1.618.728 0 1.471.004 2.233.012 7.928.065 10.83.768 13.965 2.437 2.922 1.75 4.873 4.955 4.873 8.602v.1c-.021 2.386-.882 4.579-2.294 6.283l-.041.049-14.072 13.352c-.905 1.068-2.263 1.744-3.768 1.744 0-.001-.006-.001-.051-.001zm.051-2c.913 0 1.719-.411 2.264-1.063l.039-.046 14.076-13.356c1.109-1.361 1.777-3.086 1.799-4.939-.002-.063-.002-.104-.002-.122 0-2.922-1.561-5.48-3.854-6.858-2.794-1.463-5.099-2.091-13.005-2.181-.754-.008-1.492-.012-2.211-.012-5.239-.01-9.488.285-12.035 1.451-2.865 1.205-4.891 4.02-4.924 7.362v.043c0 1.933.682 3.698 1.82 5.087l13.925 13.753c.532.541 1.26.874 2.03.882.021 0 .037-.001.048-.001.023-.001.03 0 .03 0z"/><path d="m81.171 127.284c-3.58-1.5-6.106-5.021-6.147-9.113-.004-.071-.002-.119-.002-.137 0-2.436.874-4.68 2.324-6.414l.029-.035 13.966-13.791c.87-.89 2.085-1.455 3.426-1.482.053-.004.081-.004.093-.002h.01c1.507 0 2.868.678 3.774 1.747l14.072 13.354.041.047c1.414 1.705 2.271 3.898 2.295 6.328v.055c0 3.646-1.954 6.849-4.922 8.627-3.087 1.644-5.99 2.346-13.919 2.41-.757.006-1.497.013-2.221.013-5.315-.011-9.711-.224-12.819-1.607zm-4.151-9.25c0 .041 0 .045.002.082.031 3.305 2.058 6.121 4.947 7.336 2.524 1.156 6.777 1.451 12.021 1.438.714 0 1.45-.005 2.203-.011 7.904-.09 10.21-.717 12.955-2.151 2.342-1.407 3.903-3.968 3.903-6.888 0-.021 0-.061 0-.078-.02-1.9-.691-3.629-1.805-4.992l-14.025-13.307.688-.724.769-.641-.769.641-.688.724-.047-.045-.035-.041c-.546-.655-1.356-1.066-2.271-1.066h-.024c-.818.01-1.544.344-2.089.896l-13.906 13.732c-1.143 1.388-1.827 3.16-1.829 5.095z"/><path d="m120.905 103.308-.049-.041-13.351-14.071c-1.067-.906-1.746-2.265-1.746-3.77.001 0-.004-.023.003-.108.027-1.34.591-2.556 1.47-3.417l13.806-13.979.031-.026c1.736-1.448 3.978-2.321 6.409-2.321.021 0 .069-.002.106.002 4.126.039 7.647 2.568 9.139 6.124 1.395 3.133 1.605 7.535 1.615 12.857 0 .72-.004 1.454-.01 2.205-.065 7.929-.769 10.833-2.438 13.967-1.752 2.921-4.955 4.873-8.602 4.873-.041 0-.055 0-.1.002-2.385-.022-4.578-.884-6.283-2.297zm6.258.297c.065-.002.104-.002.125-.002 2.921 0 5.481-1.561 6.86-3.855 1.462-2.795 2.091-5.1 2.18-13.002.006-.749.01-1.479.01-2.188.012-5.25-.281-9.51-1.45-12.06-1.204-2.864-4.021-4.892-7.36-4.924 0 .002-.008 0-.051.002-1.94 0-3.712.687-5.1 1.834l-13.734 13.907c-.541.534-.875 1.261-.883 2.081v.057l-.001.011c.014.894.421 1.69 1.064 2.227l-.638.769-.724.688.724-.688.638-.769.045.035 13.358 14.078c1.363 1.109 3.087 1.778 4.937 1.799z"/><path d="m54.157 100.683c-1.642-3.086-2.344-5.991-2.409-13.918-.01-.755-.015-1.493-.015-2.213.013-5.32.223-9.72 1.61-12.827 1.499-3.58 5.021-6.109 9.108-6.148.075-.004.12-.002.143-.002 2.434 0 4.675.873 6.414 2.321l.039.033 13.784 13.963c.902.883 1.469 2.121 1.481 3.533s0 .004.002.004c0 1.504-.68 2.861-1.746 3.767l-13.349 14.071-.051.041c-1.706 1.414-3.898 2.274-6.324 2.294s-.019 0-.059.002c-3.647-.001-6.849-1.955-8.628-4.921zm8.353-33.107c-3.305.031-6.122 2.058-7.335 4.947-1.159 2.523-1.452 6.782-1.44 12.029 0 .714.004 1.442.012 2.193.09 7.905.716 10.209 2.152 12.957 1.406 2.342 3.965 3.902 6.887 3.902h.082c1.892-.018 3.618-.688 4.98-1.798l13.315-14.033.035-.037.051-.043c.655-.545 1.065-1.354 1.065-2.264s-.002-.015 0-.033c-.008-.818-.343-1.544-.896-2.089l-13.729-13.907c-1.39-1.142-3.158-1.826-5.095-1.828-.041.002-.045.002-.084.004z"/></g><path d="m34.521 96.005 10.398-13.547.023-.023c.133-.115.294-.545.286-1.011.003-.429-.117-.875-.286-1.111l-10.507-13.444.745-.751 13.51 10.369c.383.251.767.363 1.139.363.36 0 .717-.105 1.064-.329l13.422-10.489.751.743-10.396 13.544c-.196.225-.361.655-.357 1.1 0 .373.104.746.333 1.049l10.507 13.445-.745.751-13.505-10.367c-.19-.15-.701-.279-1.182-.272-.474-.015-.944.14-1.003.218l-13.446 10.507zm3.401-2.679 10.119-7.907c.461-.366 1.047-.446 1.68-.46.631.006 1.285.112 1.818.483l10.191 7.822-7.93-10.147c-.392-.521-.554-1.129-.554-1.699.004-.683.219-1.324.599-1.771l7.823-10.194-10.156 7.937-.02.014c-.508.335-1.082.513-1.663.513-.603 0-1.207-.191-1.752-.556l.298-.444-.326.423-10.191-7.822 7.94 10.16c.356.514.494 1.142.497 1.745-.008.644-.149 1.274-.571 1.736z" transform="matrix(.965926 -.258819 .258819 .965926 -19.368851 15.660963)"/><path d="m22.002 81.392c.001-15.35 12.443-27.792 27.791-27.792 15.35 0 27.792 12.442 27.792 27.792-.001 15.349-12.443 27.79-27.792 27.791-15.349 0-27.79-12.442-27.791-27.791zm8.894-18.898c-4.837 4.838-7.827 11.516-7.827 18.898 0 7.382 2.99 14.06 7.827 18.898 4.839 4.837 11.516 7.827 18.897 7.827 7.382 0 14.06-2.989 18.898-7.827 4.837-4.838 7.828-11.516 7.828-18.898 0-7.382-2.991-14.06-7.828-18.898-4.838-4.837-11.517-7.827-18.898-7.828-7.382 0-14.059 2.99-18.897 7.828z" transform="matrix(.965926 -.258819 .258819 .965926 -19.368996 15.660854)"/><path d="m189.865 159.284v-.498-.497h9.527c2.767-.006 5.007-2.244 5.012-5.012-.006-2.768-2.245-5.008-5.012-5.013h-9.527c-2.768.006-5.008 2.245-5.012 5.013.005 2.768 2.244 5.007 5.012 5.012v.497.498c-3.318 0-6.007-2.69-6.007-6.007 0-3.319 2.689-6.007 6.007-6.007h9.527c3.318 0 6.006 2.688 6.006 6.007 0 3.317-2.688 6.007-6.006 6.007z" transform="matrix(.965926 -.258819 .258819 .965926 -33.039209 55.596189)"/><path d="m161.772 165.809v-.534-.533h9.42c1.939-.003 3.507-1.57 3.511-3.509-.004-1.939-1.572-3.508-3.511-3.511h-9.42c-1.937.003-3.506 1.572-3.509 3.511.003 1.939 1.572 3.506 3.509 3.509v.533.534c-2.527-.001-4.575-2.049-4.575-4.576 0-2.528 2.048-4.577 4.575-4.577h9.42c2.528 0 4.576 2.049 4.576 4.577 0 2.527-2.049 4.575-4.576 4.576z" transform="matrix(.965926 -.258819 .258819 .965926 -36.057276 48.582677)"/><path d="m135.937 172.732v-.534-.533h9.419c1.938-.003 3.506-1.57 3.51-3.509-.004-1.939-1.572-3.508-3.51-3.511h-9.419c-1.939.003-3.508 1.572-3.511 3.511.003 1.939 1.572 3.506 3.511 3.509v.533.534c-2.528-.001-4.577-2.049-4.577-4.576 0-2.528 2.048-4.577 4.577-4.577h9.419c2.528 0 4.576 2.049 4.576 4.577 0 2.527-2.048 4.575-4.576 4.576z" transform="matrix(.965926 -.258819 .258819 .965926 -38.729422 42.131585)"/></g></svg>