<svg xmlns="http://www.w3.org/2000/svg"><g fill="#fff"><path d="m263.378 293.303c-11.202-7.351-28.175-25.727-35.001-37.451-3.849-6.826-6.126-9.099-8.75-8.751-3.151.526-3.499 2.102-4.376 17.85l-.874 17.151-7.877 3.15-7.874 3.15-.873-15.225c-.877-14.175-1.052-15.049-4.727-14.874-3.673.174-4.024-.7-4.024-9.976 0-8.574.525-10.325 3.498-11.199 3.328-1.051 3.502-2.624 3.502-22.751 0-20.474-.174-21.874-4.376-26.775-2.45-2.976-4.375-5.952-4.375-6.826 0-.699 2.45-4.549 5.601-8.225 15.399-18.901 50.225-20.475 64.925-2.976 5.427 6.478 7.352 14.877 5.949 26.427-1.399 10.85-6.123 20.126-14.874 28.526-6.649 6.474-6.826 7.174-5.249 13.123 2.799 10.501 10.324 26.252 12.949 27.3 2.802 1.051 5.949-5.249 5.949-12.249 0-2.976-.874-4.198-3.499-4.198-4.201 0-4.201-.703-.699-11.027 2.273-6.826 3.498-8.226 7-8.226 3.324 0 4.901-1.573 7.174-7.348 1.576-4.201 6.3-14.177 10.502-22.226l7.699-14.699-4.726-3.85-4.724-3.85 6.474-10.676c3.676-5.952 7.174-10.85 8.051-10.85 2.451 0 17.151 17.325 23.274 27.649 8.577 14.352 25.727 60.727 25.727 69.652 0 4.724 8.399 21 12.949 25.025 2.45 2.45 4.549 4.901 4.549 5.774 0 .7-10.324 1.4-22.75 1.4h-22.748l3.498-7.174 3.676-7.001-3.676-11.375-3.85-11.198h-15.573-15.4l-3.15 5.775c-2.451 4.372-3.15 9.798-3.15 25.372 0 18.553-.178 19.601-3.502 19.601-1.925 0-7.525-2.625-12.249-5.949zm45.676-66.325c1.225-3.502-5.775-18.727-8.577-18.727-2.976 0-8.925 14.7-7.525 18.376 1.225 3.324 14.699 3.675 16.102.351zm-80.677-8.402c8.052-7.175 11.199-17.148 7.175-23.448-2.799-4.376-6.826-5.427-12.424-3.327-4.727 1.924-7.877 10.501-7.877 21.702 0 9.274.352 10.499 3.502 10.499 1.747 0 6.123-2.45 9.624-5.426z"/><path d="m537.954 295.576c-6.649-3.324-7.7-9.099-7.7-40.072 0-18.553-.7-29.928-1.748-30.628-3.675-2.273-6.477 2.802-7.525 12.601-1.403 12.6-9.976 30.276-18.202 37.099-22.574 18.727-51.099 5.252-61.775-29.222-6.826-22.052-3.15-55.653 7.874-72.452 10.501-15.75 30.802-21.525 46.376-13.3 14 7.526 26.252 29.048 26.252 45.85 0 8.574 4.198 14.349 7.174 9.625.874-1.399 1.574-16.625 1.574-33.949v-31.502l5.601 9.625c5.075 8.75 35.351 40.252 38.676 40.252.874 0 1.225-7.877.874-17.327-.349-13.649-1.226-18.024-3.676-20.823-3.15-3.502-2.973-3.676 8.751-10.15 6.474-3.502 13.826-7.526 15.925-8.925 4.027-2.451 4.201-2.451 2.802 1.573-3.502 11.024-4.202 19.25-4.202 56.526 0 22.226-.525 47.95-1.225 57.4l-1.051 17.15-6.649 3.325-6.648 3.501-1.051-8.399c-2.451-17.85-7.874-29.577-18.025-39.553-11.375-10.85-12.6-8.925-12.6 19.075 0 23.802 1.399 30.628 6.123 30.628 6.652 0-.349 11.55-7.874 12.949-2.451.526-6.126 0-8.051-.877zm-51.448-42.7c2.973-1.573 7-5.949 9.099-10.15 3.499-6.475 4.024-9.973 4.024-28.349 0-19.949-.174-21.525-4.901-29.399-2.973-5.075-7.348-9.451-10.85-11.202-5.423-2.624-6.3-2.624-10.498.175-6.826 4.552-10.85 12.6-13.127 25.901-4.723 27.3 4.55 52.15 20.652 55.475.349.177 2.799-1.048 5.601-2.451z"/><path d="m105.001 290.153c0-.352 1.925-5.949 4.375-12.775 4.024-11.727 4.376-14.174 4.376-53.025 0-44.802-.177-45.15-10.325-39.901-9.102 4.724-10.675 3.85-10.675-5.949 0-9.976.348-10.15 19.775-16.802 15.75-5.249 31.85-5.601 41.3-.7 14.526 7.352 25.024 25.724 28.349 49.352 2.102 14-1.4 37.274-7 48.475-4.376 8.4-13.823 18.198-21.526 22.226-5.598 2.973-48.649 10.85-48.649 9.099zm43.574-40.775c7.703-6.652 11.553-18.376 11.553-35.001-.178-17.676-5.427-29.399-15.403-34.652-11.724-5.949-11.724-5.949-11.724 36.403v37.625h5.075c2.976 0 7.352-1.925 10.499-4.375z"/><path d="m378.703 280.876c-14.174-5.949-25.024-20.823-29.4-39.898-3.501-14.877-3.501-25.55-.174-41.475 3.15-14.703 5.949-20.652 14.349-29.928 16.099-17.85 34.474-18.372 55.301-1.748 3.675 2.799 8.399 5.775 10.324 6.475 3.15.874 2.45 2.099-6.649 11.375-5.6 5.601-10.85 10.325-11.549 10.325-.7 0-2.625-2.976-4.027-6.475-3.85-9.099-9.448-14.525-14.875-14.525-18.024 0-28.351 38.324-17.15 63.174 2.451 5.427 6.301 11.202 8.577 12.775 5.423 3.85 18.724 3.85 20.297 0 1.051-2.799-1.399-21.7-4.024-29.925-1.051-3.85-.699-4.024 11.024-4.024 17.85 0 17.676-.351 18.553 31.502.348 14.874 1.225 28.7 1.925 30.625 1.225 3.324.348 3.498-23.102 3.672-16.1.178-25.898-.348-29.4-1.925z"/><path d="m16.625 140.701c4.201-9.625 5.075-26.424 3.501-65.977-1.402-38.324-1.225-37.973-12.775-30.973-3.15 1.925-6.126 3.499-6.477 3.499-.523 0-.874-4.724-.874-10.676v-10.499l10.15-4.723c21.349-9.802 45.151-6.652 59.676 8.222 12.25 12.426 16.451 24.502 17.325 50.051.525 18.55.174 22.226-3.15 31.325-8.4 22.051-26.25 33.775-54.427 35.526l-15.925 1.051zm37.451-31.325c7.874-6.651 11.201-18.727 10.324-38.15-.348-12.075-1.399-17.85-4.198-23.099-3.676-7.001-13.826-15.403-17.151-14.352-1.925.7-3.849 73.151-2.102 77.7 1.403 3.676 7.352 2.625 13.127-2.099z"/><path d="m126.875 140.175c-15.4-7.174-25.724-24.672-29.048-49-3.328-24.673 3.498-50.925 16.799-64.226 9.099-9.099 22.225-12.598 34.126-9.447 34.124 9.099 46.025 74.898 20.123 110.424-10.324 14.352-27.123 19.249-42 12.249zm19.952-27.3c8.048-4.024 12.775-16.099 13.649-34.823.7-13.301.351-17.502-2.799-25.727-7-18.724-19.075-24.676-28.526-14-15.399 17.15-12.6 63.352 4.55 73.85 6.474 4.027 6.826 4.027 13.126.7z"/><path d="m208.077 139.476c-3.324-2.099-7.874-7.7-10.15-12.25-3.676-7.699-4.202-11.375-5.427-43.751-1.222-34.826-2.447-42.526-8.222-48.826-2.276-2.625-1.225-3.85 13.297-13.475 8.751-5.949 15.925-10.15 15.925-9.45 0 .877-1.222 5.252-2.624 9.976-1.925 6.474-2.625 17.676-2.625 43.751 0 31.85.351 35.7 3.502 40.775 1.925 3.15 5.423 6.126 8.048 6.826 6.126 1.574 16.102-3.327 17.327-8.577.523-2.099.874-21.874.523-43.574-.523-37.976-.7-39.901-4.373-44.976-2.276-2.976-4.027-6.126-4.027-7.174 0-3.676 7.178-8.751 12.25-8.751 8.051 0 12.252 5.426 12.252 15.574 0 4.901.7 9.276 1.748 9.802.877.525 5.075-.874 9.102-3.325 9.273-5.252 24.499-9.802 32.724-9.802 13.475.178 28 10.85 31.325 23.451 1.576 5.426.702 13.3-2.448 23.451-.877 3.15 0 5.423 4.198 9.624 8.577 9.1 11.55 16.625 11.901 30.799.349 7.001.874 13.127 1.4 13.652 1.399 1.4 11.024-4.549 12.249-7.351.526-1.574 1.051-15.4 1.051-30.799 0-30.1-1.573-37.277-8.925-42.352-2.099-1.574-3.676-3.15-3.15-3.499 1.399-1.225 36.751-22.225 37.277-22.225.348 0-.7 3.324-2.277 7.351-2.276 6.298-2.799 15.223-2.799 51.274v43.751l8.4-.351c4.55-.174 9.625-1.225 11.024-2.45 3.502-2.799 4.727-1.049 8.4 12.252 2.624 9.973 2.624 11.55.177 15.225-3.676 5.598-8.925 6.649-29.925 5.424-9.977-.526-23.103-.174-28.878.699-5.949.877-11.198 1.4-11.549.877-.526-.351.174-2.45 1.225-4.549 3.15-5.952-.351-8.403-6.3-4.202-14 9.977-12.076 9.451-40.601 9.1-14.526-.349-26.424-.874-26.076-1.4.352-.525 2.625-5.426 5.253-11.024 4.723-9.976 4.723-10.501 4.723-48.475 0-25.553-.699-38.676-1.925-39.553-1.399-.874-10.15 2.451-15.576 5.952-.523.349-1.222 17.673-1.748 38.499-1.051 42.352-1.925 46.028-14 54.076-8.051 5.6-23.451 5.6-31.676 0zm105.352-34.301c11.373-11.375 1.925-28.174-15.751-28.174h-5.426v16.624 16.625h8.051c6.474 0 8.925-.874 13.126-5.075zm-8.402-50.4c6.651-7.525 4.375-19.423-4.024-21.525-8.051-2.1-10.502.699-10.502 12.075 0 5.6.526 10.676 1.225 11.201 2.277 2.273 10.502 1.225 13.301-1.751z"/><path d="m426.13 136.677c-8.577-4.027-10.327-6.826-14.877-23.976-6.123-23.976-4.198-65.8 4.201-84.001 6.649-14.526 10.15-15.925 38.325-16.625l24.15-.7-1.051 4.199c-.522 2.276-1.573 6.3-2.099 9.102l-.874 5.075h-17.502c-15.925 0-17.675.348-21.525 4.198-4.198 4.201-7.523 18.202-5.25 21.877.7 1.226 8.226 1.925 19.25 1.925h18.027l-2.102 8.4-2.099 8.225-16.274.526c-15.576.525-16.102.699-17.853 5.075-3.324 8.925 2.628 23.45 11.027 26.949 3.325 1.399 10.499 1.751 20.827 1.051 8.747-.526 15.573-.351 15.573.525 0 .874-.874 7.523-1.925 14.7l-1.925 12.949-10.85 1.925c-15.75 2.799-27.126 2.277-35.174-1.399z"/></g></svg>