<svg xmlns="http://www.w3.org/2000/svg"><g fill="#fff"><path d="m98.393 31.43c6.568-7.206 9.99-17.325 10.462-30.936l.011-.494-.484.099c-23.069 4.718-34.981 19.175-35.409 42.967l-.008.463.458-.071c10.986-1.721 19.151-5.656 24.96-12.028z"/><path d="m19.016 153.809.424.61c3.813 5.499 8.185 10.849 12.994 15.906 3.662 3.85 9.497 5.969 16.426 5.969 5.079 0 10.345-1.195 13.744-3.117 7.031-3.974 10.758-3.983 13.478-3.987.546 0 1.056-.002 1.547-.031l.444-.029c.589-.037 1.196-.078 1.882-.078 2.412 0 6.013.473 12.562 4.174 4.57 1.916 9.002 2.886 13.171 2.886h.002c11.355 0 21.31-7.106 30.435-21.707l.373-.596h-117.482l.003-.011z"/><path d="m137.846 62.691c1.517-1.512 3.154-3.005 4.912-4.471l.294-.245-.242-.299c-8.559-10.557-20.279-16.25-33.891-16.465l-.624-.003c-6.899 0-13 1.294-17.642 3.74-6.021 3.17-10.497 3.873-10.541 3.879-.078.011-.572.03-1.923.03-1.641 0-3.058-.027-3.228-.051l-.108-.014c-1.93-.249-6.851-1.059-10.839-3.185-5.421-2.89-11.46-4.419-17.464-4.419l-.396.002c-15.876.177-29.148 7.914-37.394 21.501h129.095z"/><path d="m124.532 85.261c1.562-7.554 5.78-14.889 12.656-21.907l.648-.663h-129.074l-.114.188c-3.956 6.564-6.576 14.157-7.821 22.381l123.708.001z"/><path d="m127.56 107.558c-3.121-6.413-4.654-13.821-3.101-21.827l.089-.464h-123.708l-.045.329c-1.046 7.13-1.046 14.512-.078 21.96h126.852z"/><path d="m6.788 130.944h141.378l.827-1.791-.34-.167c-6.766-3.35-15.836-10.684-21.001-21.216l-.107-.217h-126.832l.059.439c.863 6.471 2.626 14.302 6.023 22.961z"/><path d="m19.019 153.809h117.471c4.484-7.269 8.182-15.272 11.43-22.304l.255-.553h-141.367l.214.534c3.094 7.713 7.107 15.172 11.999 22.323z"/><path d="m397.279 40.935v82.995h19.715v-82.996h-19.71zm130.359 0v11.149h11.584c1.436 0 2.599 1.197 2.599 2.674v55.369c0 1.478-1.172 2.673-2.599 2.673h-11.584v11.172h31.2v-83.039h-31.195zm40.928 0v83.037h31.202v-11.172h-11.582c-1.439 0-2.601-1.195-2.601-2.673v-55.372c0-1.476 1.163-2.673 2.601-2.673h11.582v-11.149h-31.206zm-401.586 19.945c-9.394 0-17.033 3.089-23.422 9.434-6.432 6.393-9.469 13.462-9.469 21.704 0 8.124 3.204 15.295 10.012 21.999 6.792 6.693 14.336 9.913 23.111 9.913h12.71v-14.599h-5.239c-5.03 0-9.54-1.644-13.059-4.848-3.52-3.203-5.434-7.5-5.434-12.245 0-4.794 1.875-9.11 5.357-12.188 3.461-3.064 7.906-4.567 12.904-4.567h13.758c1.436 0 2.599 1.195 2.599 2.671v45.776h19.715v-63.051h-43.563zm56.483 0v82.996h19.734v-65.721c0-1.476 1.164-2.671 2.6-2.671h12.806c5.381 0 10.209 1.865 13.99 5.485 3.496 3.348 5.452 7.573 5.452 12.147 0 4.73-2.1 8.978-5.88 11.906-3.731 2.894-8.37 4.312-13.563 4.312h-4.522v14.598h13.293c9.252 0 16.859-2.981 23.286-9.054 6.422-6.07 9.488-13.145 9.488-21.862 0-9.031-3.074-16.418-9.47-22.738-6.404-6.328-13.843-9.395-22.82-9.395l-44.402-.003zm86.913 0v82.996h19.714v-65.721c0-1.476 1.17-2.671 2.6-2.671h12.826c5.38 0 10.207 1.865 13.99 5.485 3.497 3.348 5.452 7.573 5.452 12.147 0 4.736-2.123 8.982-5.9 11.906-3.726 2.89-8.348 4.312-13.542 4.312h-4.522v14.598h13.292c9.251 0 16.838-2.979 23.265-9.054 6.423-6.07 9.495-13.145 9.495-21.862 0-9.031-3.076-16.418-9.47-22.738-6.399-6.33-13.824-9.395-22.799-9.395l-44.413-.003zm155.806 0c-10.55 0-19.516 3.212-27.301 9.716-7.804 6.519-11.39 13.5-11.39 21.521 0 9.682 3.696 17.166 11.543 23.256 7.355 5.693 16.256 8.557 27.031 8.557h39.507v-14.599h-37.489c-4.97 0-9.454-1.681-12.998-4.907-3.568-3.249-5.513-7.637-5.513-12.522 0-4.662 1.874-8.86 5.298-11.888 3.453-3.053 8.002-4.527 13.213-4.527h12.809c.996.002 1.902.588 2.335 1.508.433.921.317 2.014-.298 2.819l-14.224 18.406h21.579l15.291-20.94v-16.401h-39.388z"/><path d="m397.044 40.822v83.477h20.181v-83.482h-20.177zm130.36 0v11.629h11.819c.628-.001 1.233.254 1.677.709.443.457.692 1.079.69 1.725v55.37c.002.642-.247 1.263-.69 1.723-.444.457-1.049.712-1.677.709h-11.816v11.651h31.67v-83.513h-31.673zm40.928 0v83.517h31.668v-11.649h-11.815c-.63.002-1.233-.253-1.677-.71-.444-.46-.694-1.079-.685-1.722v-55.371c-.01-.646.243-1.268.685-1.725.444-.456 1.047-.711 1.677-.709h11.815v-11.63h-31.663zm-401.352 19.947c-9.447 0-17.147 3.106-23.577 9.494-6.471 6.429-9.546 13.574-9.546 21.879 0 8.195 3.224 15.435 10.071 22.184 6.828 6.728 14.451 9.973 23.285 9.973h12.943v-15.075h-5.471c-4.981 0-9.428-1.618-12.904-4.788-3.476-3.165-5.356-7.383-5.356-12.063 0-4.737 1.843-8.953 5.278-11.992 3.415-3.024 7.796-4.529 12.748-4.529h13.758c.628-.001 1.232.254 1.675.71.444.457.694 1.079.692 1.722v46.02h20.18v-63.534h-43.775zm56.249 0v83.475h20.2v-65.967c-.002-.642.247-1.264.691-1.721s1.048-.712 1.675-.711h12.807c5.33 0 10.095 1.849 13.835 5.425 3.459 3.314 5.376 7.461 5.376 11.968 0 4.663-2.072 8.822-5.801 11.71-3.688 2.856-8.256 4.273-13.409 4.273h-4.755v15.076h13.525c9.303 0 16.99-3.001 23.46-9.119 6.465-6.104 9.546-13.259 9.546-22.035 0-9.094-3.091-16.557-9.528-22.918-6.444-6.369-13.963-9.455-22.994-9.455l-44.625-.01zm86.913 0v83.475h20.18v-65.967c-.001-.642.246-1.264.69-1.721.446-.457 1.044-.712 1.678-.711h12.821c5.334 0 10.095 1.849 13.835 5.425 3.457 3.314 5.376 7.461 5.377 11.968-.001 4.671-2.096 8.824-5.822 11.71-3.685 2.855-8.238 4.273-13.391 4.273h-4.759v15.076h13.524c9.305 0 16.974-2.999 23.441-9.119 6.467-6.104 9.546-13.259 9.546-22.035 0-9.094-3.087-16.557-9.528-22.918-6.442-6.371-13.944-9.455-22.974-9.455l-44.615-.01zm156.04 0c-10.596 0-19.632 3.217-27.457 9.754-7.842 6.551-11.468 13.624-11.468 21.72 0 9.752 3.726 17.328 11.622 23.458 7.399 5.724 16.365 8.598 27.187 8.598h39.736v-15.08h-37.73c-4.922 0-9.344-1.659-12.845-4.846-3.522-3.211-5.433-7.525-5.433-12.35 0-4.599 1.842-8.7 5.22-11.687 3.405-3.012 7.892-4.49 13.058-4.49h12.81c.908-.002 1.742.535 2.134 1.377.395.844.282 1.845-.29 2.573l-14.515 18.791h22.18l15.408-21.104v-16.711h-39.632z"/></g></svg>