<svg preserveAspectRatio="none" xmlns="http://www.w3.org/2000/svg"><g fill="#1e1e1e"><path d="m361.814 217.284c-2.513 0-4.554 2.041-4.554 4.554v15.787 73.077c0 2.514 2.041 4.569 4.554 4.569h253.403c2.514 0 4.555-2.056 4.555-4.569v-47.995c0-2.513-2.041-4.555-4.555-4.555h-151.202c-1.617 0-2.58-.405-3.169-1.046-.587-.642-.848-1.595-.848-2.83v-32.436c0-2.513-2.042-4.554-4.555-4.554h-20.539c-2.513 0-4.57 2.041-4.57 4.554v8.544c0 .742-.116 1.387-.395 1.796-.28.41-.714.666-1.642.666h-39.451c-.663 0-1.098-.126-1.401-.453-.302-.327-.523-.934-.523-2.009v-8.543c-.004-2.52-2.059-4.561-4.573-4.561h-20.539zm0 .905h20.54c2.024 0 3.663 1.625 3.663 3.65v8.544c0 1.196.242 2.052.764 2.616.522.566 1.268.75 2.065.75h39.452c1.127 0 1.941-.403 2.39-1.06.45-.659.553-1.481.553-2.306v-8.545c0-2.024 1.639-3.65 3.663-3.65h20.54c2.023 0 3.649 1.626 3.649 3.65v32.435c0 1.361.29 2.566 1.089 3.438s2.063 1.344 3.833 1.344h151.201c2.025 0 3.65 1.626 3.65 3.65v47.995c0 2.025-1.625 3.663-3.65 3.663h-253.401c-2.025 0-3.65-1.639-3.65-3.663v-73.077-15.786c0-2.024 1.625-3.65 3.65-3.65z" transform="matrix(.965926 -.258819 .258819 .965926 -52.271374 135.510289)"/><path d="m457.469 220.785c-2.514 0-4.555 2.042-4.555 4.555v28.546c0 2.513 2.042 4.554 4.555 4.554h47.248c2.514 0 4.555-2.041 4.555-4.554v-28.546c0-2.515-2.041-4.556-4.554-4.556h-47.248zm0 .906h47.248c2.025 0 3.65 1.625 3.65 3.649v28.546c0 2.024-1.625 3.649-3.65 3.649h-47.248c-2.025 0-3.65-1.625-3.65-3.649v-28.546c.001-2.024 1.625-3.649 3.65-3.649z" transform="matrix(.965926 -.258819 .258819 .965926 -45.623269 132.680455)"/><path d="m455.695 229.925c-1.558 0-2.829 1.285-2.829 2.843s1.271 2.829 2.829 2.829 2.843-1.271 2.843-2.829-1.285-2.843-2.843-2.843zm0 .905c1.069 0 1.938.869 1.938 1.938s-.869 1.923-1.938 1.923c-1.068 0-1.924-.854-1.924-1.923s.856-1.938 1.924-1.938z" transform="matrix(.965926 -.258819 .258819 .965926 -44.715292 125.875427)"/><path d="m466.351 227.072c-1.558 0-2.83 1.285-2.83 2.843 0 1.559 1.272 2.83 2.83 2.83 1.557 0 2.829-1.271 2.829-2.83 0-1.558-1.271-2.843-2.829-2.843zm0 .905c1.069 0 1.923.869 1.923 1.938s-.855 1.924-1.923 1.924c-1.069 0-1.923-.855-1.923-1.924s.854-1.938 1.923-1.938z" transform="matrix(.965926 -.258819 .258819 .965926 -43.614218 128.534477)"/><path d="m476.997 224.217c-1.558 0-2.829 1.285-2.829 2.844 0 1.558 1.271 2.829 2.829 2.829s2.843-1.271 2.843-2.829c0-1.559-1.285-2.844-2.843-2.844zm0 .906c1.069 0 1.938.868 1.938 1.938 0 1.068-.869 1.923-1.938 1.923s-1.923-.855-1.923-1.923c0-1.07.854-1.938 1.923-1.938z" transform="matrix(.965926 -.258819 .258819 .965926 -42.512221 131.19423)"/><path d="m487.652 221.364c-1.558 0-2.829 1.285-2.829 2.843 0 1.559 1.271 2.83 2.829 2.83 1.559 0 2.829-1.271 2.829-2.83 0-1.558-1.27-2.843-2.829-2.843zm0 .905c1.068 0 1.924.869 1.924 1.938s-.856 1.923-1.924 1.923-1.924-.854-1.924-1.923.856-1.938 1.924-1.938z" transform="matrix(.965926 -.258819 .258819 .965926 -41.410992 133.852905)"/><path d="m462.553 234.593c-1.558 0-2.843 1.271-2.843 2.829s1.285 2.829 2.843 2.829 2.829-1.271 2.829-2.829c-.001-1.558-1.271-2.829-2.829-2.829zm0 .905c1.069 0 1.924.855 1.924 1.924s-.855 1.924-1.924 1.924-1.938-.855-1.938-1.924.869-1.924 1.938-1.924z" transform="matrix(.965926 -.258819 .258819 .965926 -45.688433 127.805516)"/><path d="m473.194 231.739c-1.557 0-2.828 1.271-2.828 2.829s1.271 2.829 2.828 2.829c1.558 0 2.83-1.271 2.83-2.829s-1.271-2.829-2.83-2.829zm0 .905c1.07 0 1.924.855 1.924 1.924s-.854 1.924-1.924 1.924c-1.068 0-1.923-.855-1.923-1.924s.855-1.924 1.923-1.924z" transform="matrix(.965926 -.258819 .258819 .965926 -44.586919 130.464516)"/><path d="m483.855 228.885c-1.559 0-2.844 1.271-2.844 2.829s1.285 2.829 2.844 2.829c1.558 0 2.83-1.271 2.83-2.829s-1.272-2.829-2.83-2.829zm0 .905c1.068 0 1.924.855 1.924 1.924s-.856 1.924-1.924 1.924c-1.069 0-1.938-.855-1.938-1.924s.869-1.924 1.938-1.924z" transform="matrix(.965926 -.258819 .258819 .965926 -43.485262 133.124461)"/><path d="m494.497 226.031c-1.559 0-2.83 1.271-2.83 2.83 0 1.557 1.271 2.828 2.83 2.828 1.558 0 2.829-1.271 2.829-2.828-.001-1.559-1.271-2.83-2.829-2.83zm0 .905c1.068 0 1.923.855 1.923 1.925 0 1.068-.855 1.923-1.923 1.923-1.07 0-1.924-.855-1.924-1.923 0-1.069.854-1.925 1.924-1.925z" transform="matrix(.965926 -.258819 .258819 .965926 -42.383729 135.783077)"/><path d="m465.796 246.699c-1.557 0-2.843 1.271-2.843 2.829s1.285 2.829 2.843 2.829c1.559 0 2.83-1.271 2.83-2.829-.001-1.558-1.272-2.829-2.83-2.829zm0 .905c1.07 0 1.925.855 1.925 1.923 0 1.069-.855 1.923-1.925 1.923-1.068 0-1.937-.854-1.937-1.923 0-1.068.869-1.923 1.937-1.923z" transform="matrix(.965926 -.258819 .258819 .965926 -48.711171 129.057497)"/><path d="m476.438 243.845c-1.557 0-2.828 1.271-2.828 2.83 0 1.558 1.271 2.829 2.828 2.829 1.558 0 2.83-1.271 2.83-2.829 0-1.559-1.271-2.83-2.83-2.83zm0 .906c1.07 0 1.924.854 1.924 1.923s-.854 1.923-1.924 1.923c-1.068 0-1.923-.854-1.923-1.923s.855-1.923 1.923-1.923z" transform="matrix(.965926 -.258819 .258819 .965926 -47.609841 131.716944)"/><path d="m487.099 240.991c-1.558 0-2.844 1.271-2.844 2.829s1.286 2.829 2.844 2.829 2.83-1.271 2.83-2.829-1.272-2.829-2.83-2.829zm0 .905c1.068 0 1.924.855 1.924 1.923 0 1.069-.856 1.923-1.924 1.923-1.069 0-1.938-.854-1.938-1.923 0-1.068.869-1.923 1.938-1.923z" transform="matrix(.965926 -.258819 .258819 .965926 -46.508039 134.376795)"/><path d="m497.741 238.137c-1.559 0-2.83 1.271-2.83 2.83 0 1.558 1.271 2.829 2.83 2.829 1.558 0 2.829-1.271 2.829-2.829 0-1.559-1.271-2.83-2.829-2.83zm0 .905c1.068 0 1.923.855 1.923 1.924s-.855 1.923-1.923 1.923c-1.07 0-1.924-.854-1.924-1.923s.854-1.924 1.924-1.924z" transform="matrix(.965926 -.258819 .258819 .965926 -45.406603 137.035381)"/><path d="m498.299 218.509c-1.559 0-2.829 1.285-2.829 2.844 0 1.558 1.27 2.829 2.829 2.829 1.558 0 2.843-1.271 2.843-2.829.001-1.559-1.285-2.844-2.843-2.844zm0 .906c1.069 0 1.938.868 1.938 1.938 0 1.068-.869 1.923-1.938 1.923s-1.924-.855-1.924-1.923c0-1.07.855-1.938 1.924-1.938z" transform="matrix(.965926 -.258819 .258819 .965926 -40.309105 136.513491)"/><path d="m458.899 241.88c-1.558 0-2.829 1.285-2.829 2.844 0 1.557 1.271 2.829 2.829 2.829s2.843-1.271 2.843-2.829c0-1.559-1.285-2.844-2.843-2.844zm0 .905c1.069 0 1.938.869 1.938 1.938s-.87 1.924-1.938 1.924c-1.069 0-1.924-.855-1.924-1.924-.001-1.068.855-1.938 1.924-1.938z" transform="matrix(.965926 -.258819 .258819 .965926 -47.700425 127.112062)"/><path d="m469.554 239.028c-1.558 0-2.829 1.285-2.829 2.843s1.271 2.829 2.829 2.829 2.829-1.271 2.829-2.829-1.271-2.843-2.829-2.843zm0 .904c1.069 0 1.924.869 1.924 1.938s-.856 1.924-1.924 1.924c-1.069 0-1.923-.855-1.923-1.924 0-1.068.854-1.938 1.923-1.938z" transform="matrix(.965926 -.258819 .258819 .965926 -46.599325 129.770772)"/><path d="m480.2 236.173c-1.557 0-2.828 1.285-2.828 2.843s1.271 2.829 2.828 2.829c1.558 0 2.844-1.271 2.844-2.829s-1.286-2.843-2.844-2.843zm0 .904c1.069 0 1.938.869 1.938 1.939 0 1.068-.869 1.923-1.938 1.923-1.068 0-1.923-.855-1.923-1.923-.001-1.069.855-1.939 1.923-1.939z" transform="matrix(.965926 -.258819 .258819 .965926 -45.497377 132.430947)"/><path d="m490.856 233.319c-1.558 0-2.829 1.286-2.829 2.844 0 1.557 1.271 2.829 2.829 2.829s2.829-1.271 2.829-2.829-1.271-2.844-2.829-2.844zm0 .905c1.068 0 1.923.869 1.923 1.938s-.855 1.924-1.923 1.924-1.924-.855-1.924-1.924c0-1.068.856-1.938 1.924-1.938z" transform="matrix(.965926 -.258819 .258819 .965926 -44.395997 135.089538)"/><path d="m501.503 230.465c-1.559 0-2.83 1.285-2.83 2.843s1.271 2.829 2.83 2.829c1.557 0 2.843-1.271 2.843-2.829.001-1.558-1.286-2.843-2.843-2.843zm0 .904c1.069 0 1.938.869 1.938 1.938s-.869 1.924-1.938 1.924c-1.07 0-1.924-.855-1.924-1.924 0-1.068.854-1.938 1.924-1.938z" transform="matrix(.965926 -.258819 .258819 .965926 -43.294178 137.749504)"/><path d="m462.104 253.85c-1.558 0-2.829 1.271-2.829 2.829s1.271 2.829 2.829 2.829 2.843-1.271 2.843-2.829-1.285-2.829-2.843-2.829zm0 .905c1.069 0 1.938.855 1.938 1.924s-.87 1.924-1.938 1.924c-1.069 0-1.924-.856-1.924-1.924 0-1.069.855-1.924 1.924-1.924z" transform="matrix(.965926 -.258819 .258819 .965926 -50.687402 128.349403)"/><path d="m472.759 250.996c-1.558 0-2.829 1.272-2.829 2.83 0 1.557 1.271 2.829 2.829 2.829s2.829-1.272 2.829-2.829c0-1.558-1.271-2.83-2.829-2.83zm0 .906c1.069 0 1.924.855 1.924 1.924 0 1.068-.856 1.923-1.924 1.923-1.069 0-1.923-.855-1.923-1.923 0-1.069.854-1.924 1.923-1.924z" transform="matrix(.965926 -.258819 .258819 .965926 -49.586055 131.008163)"/><path d="m483.406 248.142c-1.558 0-2.829 1.271-2.829 2.829s1.271 2.829 2.829 2.829c1.557 0 2.843-1.271 2.843-2.829s-1.286-2.829-2.843-2.829zm0 .905c1.068 0 1.938.855 1.938 1.924s-.87 1.924-1.938 1.924c-1.069 0-1.924-.856-1.924-1.924-.001-1.069.855-1.924 1.924-1.924z" transform="matrix(.965926 -.258819 .258819 .965926 -48.484228 133.66836)"/><path d="m494.061 245.289c-1.558 0-2.829 1.271-2.829 2.829s1.271 2.829 2.829 2.829c1.559 0 2.829-1.271 2.829-2.829s-1.27-2.829-2.829-2.829zm0 .905c1.068 0 1.923.855 1.923 1.924s-.855 1.924-1.923 1.924-1.924-.856-1.924-1.924c0-1.069.856-1.924 1.924-1.924z" transform="matrix(.965926 -.258819 .258819 .965926 -47.382893 136.326575)"/><path d="m504.708 242.434c-1.559 0-2.829 1.271-2.829 2.829s1.27 2.829 2.829 2.829c1.558 0 2.843-1.271 2.843-2.829.001-1.558-1.285-2.829-2.843-2.829zm0 .905c1.069 0 1.938.856 1.938 1.924 0 1.069-.869 1.924-1.938 1.924s-1.924-.855-1.924-1.924c0-1.068.855-1.924 1.924-1.924z" transform="matrix(.965926 -.258819 .258819 .965926 -46.281034 138.987237)"/><path d="m383.049 245.859c-.961 0-1.755.793-1.755 1.754v3.777c0 .961.794 1.754 1.755 1.754h36.65c.962 0 1.74-.793 1.74-1.754v-3.777c0-.961-.778-1.754-1.74-1.754zm0 .905h36.65c.473 0 .835.377.835.849v3.777c0 .472-.362.849-.835.849h-36.65c-.472 0-.849-.378-.849-.849v-3.777c0-.472.377-.849.849-.849z" transform="matrix(.965926 -.258819 .258819 .965926 -50.899485 112.382793)"/><path d="m388.625 247.372c-.962 0-1.755.794-1.755 1.755v3.564c0 .962.793 1.754 1.755 1.754h14.159c.962 0 1.754-.792 1.754-1.754v-3.564c0-.962-.793-1.755-1.754-1.755zm0 .906h14.159c.472 0 .85.377.85.849v3.564c0 .472-.378.849-.85.849h-14.159c-.473 0-.849-.377-.849-.849v-3.564c0-.472.376-.849.849-.849z" transform="matrix(.965926 -.258819 .258819 .965926 -51.456575 110.965095)"/><path d="m551.606 258.84c-8.932 0-16.183 7.251-16.183 16.182 0 8.932 7.251 16.183 16.183 16.183s16.182-7.251 16.182-16.183c0-8.931-7.25-16.182-16.182-16.182zm0 .905c8.443 0 15.277 6.835 15.277 15.277 0 8.443-6.834 15.278-15.277 15.278-8.442 0-15.277-6.835-15.277-15.278 0-8.442 6.834-15.277 15.277-15.277z" transform="matrix(.965926 -.258819 .258819 .965926 -52.385537 152.137084)"/><path d="m551.607 261.823c-7.289 0-13.213 5.907-13.213 13.198 0 7.289 5.924 13.212 13.213 13.212 7.29 0 13.212-5.923 13.212-13.212 0-7.291-5.922-13.198-13.212-13.198zm0 .905c6.802 0 12.307 5.492 12.307 12.293s-5.506 12.307-12.307 12.307-12.307-5.507-12.307-12.307c0-6.801 5.506-12.293 12.307-12.293z" transform="matrix(.965926 -.258819 .258819 .965926 -52.38701 152.137872)"/><path d="m587.638 249.185c-8.931 0-16.182 7.251-16.182 16.182 0 8.932 7.251 16.183 16.182 16.183 8.932 0 16.183-7.251 16.183-16.183 0-8.931-7.251-16.182-16.183-16.182zm0 .905c8.443 0 15.277 6.835 15.277 15.277 0 8.443-6.834 15.278-15.277 15.278-8.442 0-15.277-6.835-15.277-15.278 0-8.442 6.835-15.277 15.277-15.277z" transform="matrix(.965926 -.258819 .258819 .965926 -48.658848 161.13412)"/><path d="m587.64 252.17c-7.29 0-13.212 5.907-13.212 13.198 0 7.289 5.922 13.212 13.212 13.212 7.289 0 13.197-5.923 13.197-13.212 0-7.291-5.908-13.198-13.197-13.198zm0 .905c6.801 0 12.292 5.492 12.292 12.293s-5.492 12.307-12.292 12.307c-6.801 0-12.307-5.507-12.307-12.307 0-6.801 5.506-12.293 12.307-12.293z" transform="matrix(.965926 -.258819 .258819 .965926 -48.661 161.13281)"/><path d="m391.69 272.278c-2.156 0-3.919 1.749-3.919 3.905v11.217c0 .731-.074 1.066-.113 1.118-.02.025-.024.043-.142.07-.117.028-.332.043-.622.043h-11.571c-2.155 0-3.904 1.763-3.904 3.919v18.021c0 2.154 1.749 3.904 3.904 3.904h11.458c.369 0 .641.009.806.029.165.019.206.061.183.041-.021-.018-.011-.057 0 .042.013.101 0 .294 0 .553v11.782c0 2.155 1.764 3.919 3.919 3.919h18.021c2.155 0 3.904-1.764 3.904-3.919v-11.741c0-.204.012-.372.028-.467.017-.094.03-.1.043-.112.025-.027.244-.138.876-.128h.015 11.486c2.155 0 3.918-1.749 3.918-3.904v-18.021c0-2.155-1.763-3.918-3.918-3.918h-11.528c-.277 0-.474-.012-.594-.043s-.155-.063-.183-.099c-.059-.072-.142-.39-.142-1.061v-11.247c0-2.154-1.749-3.904-3.904-3.904zm0 .905h18.021c1.665 0 2.998 1.333 2.998 2.999v11.246c0 .712.008 1.216.34 1.626.165.206.417.347.665.411s.508.071.82.071h11.529c1.666 0 3.013 1.347 3.013 3.013v18.021c0 1.666-1.347 2.999-3.013 2.999h-11.486c-.71-.013-1.201.049-1.543.397-.17.172-.246.389-.283.593s-.042.407-.042.622v11.742c0 1.666-1.333 3.013-2.998 3.013h-18.021c-1.667 0-3.014-1.348-3.014-3.013v-11.783c0-.252.011-.446-.014-.651-.024-.205-.102-.452-.297-.622-.195-.171-.419-.224-.665-.255-.244-.03-.54-.043-.919-.043h-11.457c-1.667 0-2.999-1.332-2.999-2.998v-18.021c0-1.667 1.332-3.014 2.999-3.014h11.57c.316 0 .574.002.821-.056.246-.058.502-.198.664-.41.325-.424.298-.914.298-1.67v-11.217c0-1.666 1.347-2.999 3.013-2.999z" transform="matrix(.965926 -.258819 .258819 .965926 -64.395793 113.984246)"/><path d="m391.618 274.978c-.59 0-1.076.485-1.076 1.075v15.15c0 .1-.019.127-.056.127h-15.222c-.589 0-1.074.499-1.074 1.089v18.164c0 .589.485 1.075 1.074 1.075h15.193.014c.055.004.092.019.085.014-.008-.007-.014-.031-.014.014v15.475c0 .589.485 1.074 1.075 1.074h18.177c.59 0 1.075-.485 1.075-1.074v-15.475c0-.018-.045-.029.085-.029h15.207c.59 0 1.075-.485 1.075-1.075v-18.163c0-.59-.485-1.09-1.075-1.09h-15.221c-.031 0-.07-.025-.07-.113v-15.163c0-.59-.486-1.076-1.075-1.076h-18.177zm0 .905h18.177c.1 0 .17.07.17.17v15.164c0 .524.408 1.019.976 1.019h15.22c.101 0 .17.083.17.183v18.164c0 .1-.069.169-.17.169h-15.206c-.548 0-.99.456-.99.934v15.475c0 .101-.07.17-.17.17h-18.177c-.1 0-.17-.069-.17-.17v-15.475c0-.256-.104-.524-.298-.694-.193-.17-.434-.241-.678-.241h-15.207c-.101 0-.169-.069-.169-.169l-.001-18.163c0-.102.069-.184.17-.184h15.221c.576 0 .962-.521.962-1.033v-15.149c0-.1.07-.17.17-.17z" transform="matrix(.965926 -.258819 .258819 .965926 -64.407352 113.988993)"/><path d="m359.1 207.983c-5.296 0-9.591 4.419-9.591 9.845v97.634c0 5.427 4.295 9.845 9.591 9.845h259.978c5.297 0 9.577-4.418 9.577-9.845v-97.634c0-5.426-4.282-9.845-9.578-9.845h-259.979zm0 .905h259.978c4.794 0 8.672 3.99 8.672 8.94v97.634c0 4.951-3.878 8.94-8.672 8.94h-259.978c-4.794 0-8.687-3.988-8.687-8.94v-97.634c0-4.95 3.893-8.94 8.687-8.94z" transform="matrix(.965926 -.258819 .258819 .965926 -52.347702 135.669299)"/><path d="m489.444 264.474c-3.096 0-5.616 2.52-5.616 5.616v.452h.453 10.326.453v-.452c0-3.096-2.52-5.616-5.616-5.616zm0 .905c2.446 0 4.39 1.876 4.626 4.258h-9.251c.236-2.382 2.178-4.258 4.625-4.258z" transform="matrix(.965926 -.258819 .258819 .965926 -52.558743 135.792462)"/><path d="m489.178 262.909c-3.975 0-7.2 3.238-7.2 7.214h.906c0-3.486 2.809-6.309 6.294-6.309 3.488 0 6.31 2.823 6.31 6.309h.905c-.001-3.976-3.238-7.214-7.215-7.214z" transform="matrix(.965926 -.258819 .258819 .965926 -52.310806 135.691751)"/></g></svg>