<svg xmlns="http://www.w3.org/2000/svg"><g fill="#fff"><path d="m0 0h31.857v11.103h-20.697v13.47h20.697v11.454h-20.697v23.937h-11.16z"/><path d="m68.085 59.964h-10.851v-9.333h-21.024l-6.228 9.333h-12.777l42.042-59.964h8.838zm-10.851-20.664v-17.496l-12.84 17.496z"/><path d="m72.336 0h12.588l17.748 40.308 17.874-40.308h12.714v59.964h-11.202v-30.231l-13.848 30.231h-11.328l-13.341-30.231v30.231h-11.205z"/><path d="m342.15 0h12.588l17.748 40.308 17.874-40.308h12.714v59.964h-11.202v-30.231l-13.848 30.231h-11.328l-13.344-30.231v30.231h-11.202z"/><path d="m136.794 0h11.595v59.964h-11.595z"/><path d="m151.584 0h11.592v49.035h15.108v10.929h-26.7z"/><path d="m165.402 0h12.882l12.183 24.573 11.829-24.573h12.765l-19.209 38.142v21.822h-11.241v-21.822z"/><path d="m278.082 16.539c-5.091-9.702-15.264-16.32-26.979-16.32-16.818 0-30.45 13.635-30.45 30.453 0 16.815 13.632 30.45 30.45 30.45 11.799 0 22.032-6.711 27.087-16.527l-13.797.114c-3.402 3.135-7.947 5.052-12.939 5.052-10.542 0-19.089-8.547-19.089-19.092s8.547-19.089 19.089-19.089c4.92 0 9.408 1.863 12.795 4.92z"/><path d="m308.214 61.281c-16.905 0-30.609-13.704-30.609-30.609 0-16.908 13.704-30.612 30.609-30.612s30.612 13.704 30.612 30.612c0 16.905-13.707 30.609-30.612 30.609zm19.485-30.609c0-10.698-8.673-19.368-19.368-19.368s-19.368 8.67-19.368 19.368c0 10.695 8.673 19.365 19.368 19.365s19.368-8.67 19.368-19.365z"/><path d="m426.957.006c10.146.816 18.126 9.312 18.126 19.668s-7.98 18.852-18.126 19.665l-8.766-.039v20.664h-11.241v-59.964h11.241zm-8.766 11.535v16.266l8.766-.009c3.837-.714 6.738-4.08 6.738-8.124s-2.901-7.407-6.738-8.124z"/><path d="m568.611 60.744h-11.124v-60.228l15.459-.021 8.763.006c10.146.816 18.129 9.309 18.129 19.668 0 8.463-5.328 15.681-12.813 18.483l12.975 22.092h-12.18l-18.183-31.065h-1.026zm13.101-32.451c3.834-.717 6.738-4.08 6.738-8.124s-2.904-7.41-6.738-8.127h-13.101v16.26z"/><path d="m459.738 34.65.006 8.766c.717 3.834 4.083 6.735 8.124 6.735 4.044 0 7.41-2.901 8.127-6.735l.009-8.766.027-34.134h11.514v34.134l-.009 8.766c-.816 10.146-9.309 18.126-19.668 18.126-10.356 0-18.849-7.98-19.665-18.126l.042-8.766-.021-34.134h11.553z"/><path d="m499.044 60.744h11.361v-48.876h10.188v-11.352h-31.386v11.352h9.837z"/><path d="m554.559 60.744h-31.212v-60.228h31.212v11.025h-20.028v14.301h20.028v11.244h-20.028v12.534h20.028z"/></g></svg>