<svg xmlns="http://www.w3.org/2000/svg"><g fill="#fff"><path d="m522.213 114.594h77.787v19.11h-26.079v58.173h-25.629v-58.173h-26.079z"/><path d="m439.806 166.311 24.429-1.413c.525 3.672 1.611 6.474 3.24 8.394 2.649 3.12 6.432 4.674 11.361 4.674 3.672 0 6.498-.798 8.487-2.4 1.992-1.593 2.988-3.447 2.988-5.553 0-2.004-.951-3.795-2.853-5.379-1.908-1.578-6.294-3.075-13.164-4.479-11.25-2.34-19.278-5.472-24.069-9.363-4.833-3.894-7.251-8.859-7.251-14.892 0-3.96 1.233-7.701 3.711-11.232 2.472-3.525 6.195-6.3 11.163-8.322 4.962-2.007 11.763-3.015 20.412-3.015 10.608 0 18.705 1.836 24.276 5.496 5.562 3.672 8.883 9.495 9.939 17.493l-24.12 1.32c-.654-3.48-2.01-6.018-4.083-7.608-2.067-1.584-4.92-2.373-8.568-2.373-3.003 0-5.262.588-6.777 1.773-1.521 1.173-2.283 2.604-2.283 4.29 0 1.23.63 2.334 1.902 3.324 1.224 1.014 4.107 1.962 8.634 2.844 11.217 2.244 19.248 4.512 24.096 6.81 4.854 2.301 8.388 5.157 10.59 8.565 2.217 3.408 3.318 7.218 3.318 11.433 0 4.956-1.473 9.513-4.416 13.692-2.952 4.182-7.065 7.35-12.36 9.513-5.289 2.157-11.958 3.237-20.004 3.237-14.139 0-23.916-2.526-29.361-7.566-5.439-5.061-8.52-11.472-9.237-19.263z"/><path d="m405.312 179.091h-28.995l-4.182 12.786h-26.148l31.062-77.283h28.107l31.125 77.283h-26.811zm-5.424-16.719-9.051-27.762-9.069 27.762z"/><path d="m270.672 114.594h68.733v16.443h-43.11v12.363h39.948v15.738h-39.948v15.177h44.319v17.562h-69.942z"/><path d="m564.624 71.055h-29.004l-4.188 12.789h-26.139l31.065-77.283h28.101l31.131 77.283h-26.814zm-5.436-16.722-9.048-27.762-9.066 27.762z"/><path d="m432.102 6.561h77.787v19.107h-26.076v58.176h-25.629v-58.176h-26.082z"/><path d="m406.785 71.055h-29.001l-4.182 12.789h-26.145l31.065-77.283h28.107l31.125 77.283h-26.814zm-5.427-16.722-9.054-27.762-9.066 27.762z"/><path d="m271.119 6.561h37.98c7.485 0 13.539.942 18.144 2.844 4.611 1.899 8.424 4.629 11.424 8.172 3.012 3.555 5.196 7.68 6.546 12.393 1.356 4.707 2.037 9.702 2.037 14.967 0 8.253-1.008 14.667-3.021 19.215-2.016 4.551-4.809 8.376-8.382 11.445s-7.416 5.118-11.514 6.141c-5.607 1.401-10.683 2.106-15.234 2.106h-37.98zm25.629 17.562v42.156h6.225c5.304 0 9.078-.558 11.322-1.659s3.999-3.03 5.268-5.79c1.272-2.751 1.905-7.218 1.905-13.395 0-8.172-1.416-13.767-4.257-16.779-2.841-3.021-7.554-4.533-14.13-4.533z"/><path d="m16.086 0c-.288 0-.573.036-.858.036h-15.228v27.369l11.808-.024c39.744 0 71.958 32.217 71.958 71.964 0 39.633-32.052 71.781-71.655 71.946l-12.111.015v27.381h16.506v-.021c54.666-.225 98.916-44.601 98.916-99.321 0-54.864-44.475-99.345-99.336-99.345z"/><path d="m71.886 99.345c0-34.152-27.687-61.842-61.833-61.842-.186 0-10.014.027-10.014.027v123.648l10.275-.012c34.026-.144 61.572-27.765 61.572-61.821z"/><path d="m157.287 103.611c2.199 32.064 28.77 57.42 61.356 57.555l10.275.012v-57.567z"/><path d="m228.918 95.013v-57.483s-9.828-.021-10.014-.021c-32.685 0-59.385 25.386-61.614 57.504z"/><path d="m212.871 0c.291 0 .573.036.864.036h15.222v27.369l-11.808-.024c-39.741 0-71.964 32.217-71.964 71.964 0 39.633 32.058 71.781 71.661 71.946l12.111.015v27.381h-16.503v-.021c-54.669-.225-98.922-44.601-98.922-99.321 0-54.864 44.478-99.345 99.339-99.345z"/></g></svg>