<svg xmlns="http://www.w3.org/2000/svg"><path d="m365.088.013c-9.76.119-19.422 1.137-28.353 5.448-9.825 5.039-13.257 16.83-13.406 27.135-16.229-10.464-34.82-18.956-54.52-18.389-17.254 1.577-34.442 3.704-51.688 5.377-9.046.515-17.955 4.908-23.621 12.008-4.439 5.523-4.818 12.835-6.381 19.464-7.265-3.386-14.736-7.149-22.94-7.241-7.006-.575-14.404 1.212-19.607 6.129-7.245 6.084-8.87 16.41-7.85 25.343 1.724 18.392 10.352 35.076 14.839 52.799 5.996 22.048 12.939 43.861 18.317 66.061-17.52-18.771-34.586-37.983-52.047-56.813-1.023-1.408-2.91-2.864-2.258-4.839 3.173-14.433 6.67-28.804 9.893-43.229 3.195-12.982 6.018-26.521 3.728-39.895-.665-5.305-2.487-10.736-6.559-14.41-9.108-9.101-23.099-11.229-35.343-8.925-8.322 2.3-15.31 9.168-17.743 17.456-2.31 9.253-2.571 19.008-5.771 28.031-3.18-6.584-5.42-13.68-9.499-19.786-5.851-6.719-14.597-10.973-23.514-11.291-8.042.02-16.206 2.9-22.26 8.244-7.339 7.256-10.363 18.739-7.348 28.64 15.657 56.634 31.422 113.234 46.957 169.903 3.22 8.689 8.929 17.923 18.531 20.324 9.462 2.277 19.848 1.179 28.569-3.19 9.212-4.676 13.427-15.903 11.792-25.772-1.689-11.717-6.268-22.79-8.782-34.339 7.733 7.042 14.634 14.957 22.009 22.367 6.801 7.011 12.484 15.411 21.077 20.431 9.972 5.995 23.058 4.524 32.726-1.362 7.385-4.339 11.37-12.354 12.546-20.611 10.493 7.83 25.848 8.504 36.74 1.112 5.416-3.335 8.117-9.389 9.786-15.27 5.82 2.158 10.53 7.232 17.026 7.42 10.464.689 21.196-4.018 28.353-11.542 7.495-11.438 2.773-25.789 3.62-38.533 6.617 8.609 9.855 19.181 16.059 28.03 6.924 9.317 17.403 17.074 29.357 17.564 11.952.852 24.307-6.342 28.532-17.743 7.741 6.121 17.475 9.254 27.314 9.176 12.492.217 24.982-.778 37.457-1.326 13.757-.384 27.519-4.604 38.892-12.402 20.871-15.156 28.305-45.017 19.499-68.822-5.114-9.528-12.338-17.742-19.141-26.095 6.441-6.046 10.11-14.086 14.732-21.435 5.09 16.59 8.339 33.665 13.37 50.254-1.631 22.247-7.485 44.232-6.022 66.671.831 6.997 5.027 13.455 11.292 16.775 8.769 5.634 20.045 6.151 29.786 3.011 8.468-2.952 13.852-10.928 16.776-19.033 7.397-19.412 4.747-40.887 11.076-60.506 6.721-14.293 16.237-27.113 23.299-41.257 7.55-13.855 15.72-27.384 23.299-41.221 5.381-10.011.727-22.517-7.205-29.716-5.569-6.374-14.094-8.969-22.26-9.749-10.774-.69-21.544 5.21-27.098 14.409-3.759 6.297-6.363 13.319-11.004 19.07-2.302-11.52-4.65-23.687-11.829-33.3-8.751-9.379-23.451-11.103-35.343-7.85-9.572 2.467-14.235 11.949-18.89 19.75-6.39-5.44-12.824-11.046-20.647-14.338-17.406-7.832-36.965-7.202-55.631-7.921-7.444.113-15.097-.344-22.689-.251zm44.125 51.329c3.821 2.233 7.024 6.193 6.846 10.825.021 4.389-3.154 7.822-6.273 10.503-.437-7.103-.959-14.209-.573-21.328zm-74.593 3.083c4.079 1.791 8.766 3.104 11.793 6.56.334 32.204.41 64.465-.072 96.673-8.54-12.137-15.244-25.529-23.084-38.139 9.063-12.936 14.914-28.444 14.661-44.376-.144-7.041-1.966-13.846-3.298-20.718zm-134.525 18.245c4.836 1.784 9.867 3.074 15.019 3.477 1.034 21.257 2.354 42.532 2.903 63.803-6.238-22.345-11.89-44.871-17.922-67.28zm75.811 1.971c3.31 3.325 2.953 9.003.323 12.618-.576-4.187-.668-8.408-.323-12.618zm133.307 42.763c6.482 3.607 12.188 10.283 11.936 18.066-.591 7.701-5.925 13.864-11.506 18.711.112-12.264-.955-24.518-.43-36.777z" fill="#141414"/><path d="m158.909 49.99c7.901-2.667 17.207.075 22.37 6.617 4.432 5.652 7.092 12.461 9.103 19.295 9.502 35.678 19.887 71.114 29.803 106.679 2.595 8.857 5.568 18.656 1.8 27.636-3.839 10.205-16.271 14.235-26.276 12.308-9.199-1.503-16.635-9.176-19.077-17.997-11.116-40.05-21.893-80.194-33.076-120.227-1.915-5.972-2.577-12.38-1.509-18.579 2.176-7.79 8.723-14.426 16.862-15.732zm-71.079-17.998c9.365-2.164 20.05-.519 27.36 6.073 2.564 2.735 4.197 6.42 4.09 10.208.093 6.098.268 12.269-.894 18.288-5.22 22.344-8.647 45.069-13.709 67.443 21.721 23.867 44.096 47.165 65.707 71.125 8.515 10.584 4.139 27.387-7.094 34.141-8.716 4.971-20.491 3.235-27.704-3.622-4.101-4.034-7.565-8.667-11.735-12.636-14.13-13.917-27.316-28.748-41.262-42.838 4.119 13.553 7.219 27.395 11.489 40.907 2.538 8.154 5.279 16.82 3.365 25.407-7.512 11.215-24.414 16.06-36.323 9.142-6.326-3.767-9.079-10.998-10.603-17.835-13.72-51.016-27.224-102.087-40.899-153.114-2.22-8.976-4.806-19.17-.033-27.787 3.993-6.766 11.652-11.964 19.746-11.264 7.421-.483 13.637 4.755 17.775 10.382 3.963 6.435 5.323 14.007 7.642 21.106 2.889 8.999 4.746 18.277 7.033 27.432.344.053 1.03.156 1.373.208 3.299-19.058 7.092-38.04 10.571-57.07 1.254-7.373 7.397-13.032 14.105-15.696zm186.893-13.304c-.556.011-1.126.04-1.684.072-15.759 1.623-31.548 2.453-47.315 3.871-8.221-.164-16.276 2.261-23.622 5.807-5.87 2.72-10.049 8.859-10.215 15.341-.227 6.679-.626 14.203 4.193 19.535 5.37 7.099 14.834 9.015 23.264 8.245-.54 7.929 1.451 15.737 1.218 23.657-.232 12.379 1.894 24.646 1.577 37.028 1.654 20.63 1.623 41.384 3.657 61.975 3.418 19.072 33.283 23.43 43.085 7.241 4.872-8.805 2.492-19.202 2.473-28.748.171-12.581-2.148-24.998-2.33-37.565 5.241 6.567 8.88 14.196 12.94 21.507 5.758 10.821 12.319 21.175 18.245 31.902 3.57 6.186 7.84 12.458 14.374 15.807 11.282 7.707 28.258-.073 31.651-12.832 2.599-10.144-1.051-20.82-6.847-29.178-6.759-9.317-12.082-19.554-18.137-29.321-3.142-5.296-6.71-10.359-9.033-16.094 14.907-12.501 15.281-33.766 14.696-51.652-1.408-8.401-4.129-16.701-8.208-24.195-10.062-13.876-26.737-22.762-43.982-22.403zm-9.785 43.766c6.992.437 14.167 4.694 15.951 11.829 2.591 5.944.051 12.957-4.23 17.42-2.857 3.203-7.169 4.168-10.968 5.771-1.216-11.633-.075-23.356-.753-35.02zm92.121-56.993c-10.347.128-21.817 3.692-26.74 13.478-3.583 9.45-1.231 20.765 4.588 28.855 3.673 5.421 10.161 7.554 16.381 8.28.463 2.513.996 5.032 1.075 7.599-.099 39.965.442 79.962.43 119.9 1.894 9.334 12.51 12.458 20.826 12.725 21.224.449 42.915 2.208 63.696-3.154 24.707-7.687 39.096-35.742 34.662-60.578-1.677-15.938-12.15-29.814-26.024-37.421 9.102-9.598 17.566-20.842 19.607-34.268 2.915-20.335-9.364-41.217-27.958-49.573-11.951-5.863-25.546-4.144-38.39-4.588-13.31-1.579-26.706-.828-40.074-1.219-.677-.021-1.39-.044-2.079-.036zm43.658 38.927c4.928.029 10.063.77 14.016 3.908 8.402 7.227 6.657 22.921-3.656 27.528-3.773 2.263-8.315 1.364-12.474 1.649-.026-11.014-.038-22.036.035-33.049.693-.02 1.375-.04 2.079-.036zm-1.899 66.026c11.109 1.043 21.617 8.441 24.983 19.285 3.545 14.624-9.48 31.265-25.019 28.998-.744-8.709.102-17.413-.036-26.131-.112-7.381-.315-14.775.072-22.152zm75.157-95.223c8.319-12.453 29.133-13.475 38.047-1.166 4.145 4.742 4.492 11.211 5.394 17.137 1.389 11.492 4.055 22.796 5.12 34.332 1.597-1.414 3.015-3.047 4.009-4.952 6.109-11.111 12.186-22.244 18.427-33.279 3.923-5.514 9.06-11.61 16.285-12.201 9.623-1.055 19.299 2.958 25.752 10.088 3.827 4.795 2.627 11.473 2.181 17.134-2.339 6.478-6.395 12.122-9.8 18.055-13.406 23.328-27.364 46.333-40.725 69.685-2.426 3.844-2.506 8.455-3.071 12.82-1.598 14.663-3.542 29.29-5.086 43.957-1.689 11.751-13.429 20.762-25.229 19.247-9.083-.762-17.359-7.674-19.302-16.634-1.634-7.97.479-15.988 1.342-23.905 1.172-10.498 2.634-20.959 3.992-31.433.324-5.653 1.139-11.49-.556-17.009-6.922-26.542-13.489-53.182-20.387-79.724-.888-7.453-1.531-15.977 3.607-22.152z" fill="#fff"/></svg>