<svg xmlns="http://www.w3.org/2000/svg"><g fill="#fff"><path d="m72.276 64.549v13.272h-54.921v33.894h40.017v-9.393h-23.073v-14.19h38.997v25.881c-.168 4.338-8.838 13.011-13.68 13.011-8.985 0-33.27 0-44.685 0-6.294 0-14.931-8.634-14.931-12.99 0-13.245 0-26.151 0-37.44 0-7.29 4.755-12.045 10.95-12.045z"/><path d="m114.825 111.358v14.7h-45.249l36.75-62.247h14.547l28.176 47.544v-47.544h16.002l25.188 42.645 25.113-42.645h15.849v62.247h-15.849l-.078-31.623-18.375 31.623h-13.473l-18.3-31.701-.075 31.701h-27.027l-24.96-42.648-16.539 27.945z"/><path d="m237.096 63.811v62.247h63.852v-14.703h-46.551v-10.719h26.952v-13.626h-26.952v-9.801h46.551v-13.398z"/><path d="m364.752 88.285h15.924v-13.476s1.734-11.073-9.801-11.073c0 0-37.056 0-50.22 0-4.95 0-7.299 2.349-7.299 6.123v44.1c0 6.18 5.922 12.099 9.699 12.099h49.155s8.559 1.17 8.559-8.424c0-9.597 0-18.324 0-18.324h-15.963v12.147h-35.526v-33.024h34.251v9.849z"/><path d="m386.85 63.733h17.151v47.775h35.487v-47.775h17.169v51.489s1.092 11.025-14.679 11.025c-15.774 0-41.649 0-41.649 0s-13.476 1.227-13.476-11.025c-.003-8.535-.003-51.489-.003-51.489z"/><path d="m530.151 100.435v16.011c0 5.67-4.164 9.837-17.163 9.837-11.526 0-50.211 0-50.211 0v-62.547h58.824c5.415 0 8.553 3.135 8.553 8.574v17.127c0 1.359-1.851 3.699-6.102 3.699.027.291 0 0 0 1.188 2.853 0 6.099 3.246 6.099 6.111zm-15.924 9.864c0-1.446 0-5.28 0-7.314 0-2.022-.477-2.499-1.227-2.499-1.533 0-33.051 0-33.051 0v11.025h31.851c1.764 0 2.427-.663 2.427-1.212zm0-24.501c0-1.446 0-5.28 0-7.314 0-2.019-.477-2.496-1.227-2.496-1.533 0-33.051 0-33.051 0v11.022h31.851c1.764 0 2.427-.663 2.427-1.212z"/><path d="m536.226 126.28h63.774v-14.847h-47.85v-10.872h26.949v-13.551h-26.949v-9.801h46.626v-13.551h-62.55z"/><path d="m234.369.652v7.35h14.697v39.123h9.903v-39.123h14.598v-7.35z"/><path d="m13.227.034v46.473h8.574v-34.146l18.375 34.146h9.723v-46.473h-9.798v28.02l-14.7-28.02z"/><path d="m160.212.034v46.473h8.574v-34.146l18.375 34.146h9.726v-46.473h-9.801v28.02l-14.697-28.02z"/><path d="m100.182.034h9.78v46.473h-9.78z"/><path d="m321.927 17.158v1.251h26.949v7.35h-26.949v9.801c0 1.053 2.586 3.636 3.636 3.636h23.313v7.416s-19.806 0-26.949 0c-5.04 0-8.601-4.332-8.601-8.601 0-1.02 0-22.05 0-29.424 0-5.346 3.201-8.553 8.55-8.553h27v7.35s-16.284 0-22.05 0c-2.349 0-4.899 2.553-4.899 3.753"/><path d="m509.424 8.611v29.472c0 2.229-6.294 8.526-9.945 8.526-7.353 0-26.877 0-26.877 0v-46.575h24.426c7.593 0 12.396 4.803 12.396 8.577zm-8.673 26.973c0-3.186 0-17.676 0-24.45 0-.858-2.889-3.75-4.911-3.75-3.714 0-14.664 0-14.664 0v33.075h14.7c1.506 0 4.875-3.369 4.875-4.875z"/><path d="m588.999 11.059v24.429c0 7.041-5.292 12.324-13.401 12.324-.036 0-.06 0-.099 0-6.969 0-4.971 0-12.222 0h-.099c-7.839 0-13.032-4.914-13.389-11.589-.012-.246-.012-.489-.012-.735 0-4.656 0-19.818 0-24.426 0-.846 0-1.335 0-1.335 0-4.68 5.046-9.726 10.989-9.726h17.148c7.191-.003 11.085 3.882 11.085 11.058zm-9.861 23.313c0-1.152 0-20.016 0-22.086 0-1.8-3.135-4.938-4.899-4.938s-9.726 0-9.726 0c-2.523 0-4.974 2.451-4.974 4.74v22.284c0 3.489 1.335 4.827 3.711 4.827h11.064c2.376 0 4.824-2.451 4.824-4.827z"/><path d="m389.904.652v46.473h8.574v-34.146l18.375 34.146h9.723v-46.473h-9.798v28.02l-14.7-28.02z"/></g></svg>