<svg xmlns="http://www.w3.org/2000/svg"><g fill="#fff"><path d="m24.027 165.009c-16.149-18.492-24.03-43.389-24.027-70.23.006-17.919 3.489-36.828 10.512-55.803 2.754-7.449 11.031-11.253 18.477-8.496 7.446 2.754 11.253 11.028 8.493 18.477-5.937 16.041-8.724 31.653-8.718 45.822.003 21.336 6.24 39.129 16.905 51.294 10.737 12.105 25.818 19.59 47.709 19.716 7.134 0 14.964-.849 23.496-2.739 7.755-1.71 15.432 3.189 17.142 10.944 1.71 7.758-3.183 15.432-10.938 17.142-10.368 2.289-20.274 3.414-29.697 3.414-.162 0-.318.006-.477.006-28.653-.006-52.893-11.1-68.877-29.547z"/><path d="m123.552 114.24c.012-45.048 36.513-81.555 81.57-81.561 45.045.006 81.552 36.513 81.564 81.561h-.003c-.009 45.06-36.516 81.558-81.561 81.57-45.057-.012-81.558-36.513-81.57-81.57zm28.764 0c.051 29.163 23.643 52.752 52.806 52.809 29.151-.054 52.749-23.646 52.8-52.809h-.003c-.048-29.151-23.646-52.743-52.797-52.8-29.157.057-52.755 23.649-52.806 52.8z"/><path d="m350.358 188.766c-4.908-2.775-9.096-6.399-12.984-10.569-7.722-8.367-14.427-19.056-21.264-31.782-13.566-25.401-27.324-59.091-43.38-96.117v.006c-3.159-7.287.189-15.756 7.476-18.918 7.29-3.159 15.756.189 18.918 7.476 10.605 24.483 20.154 47.286 29.01 66.663 8.826 19.362 17.079 35.352 24.417 45.699 4.833 6.936 9.33 11.109 11.901 12.465 1.287.708 1.947.84 2.397.87.033-.012.072-.027.126-.048.36-.135 1.119-.504 2.13-1.227 2.043-1.422 4.992-4.23 8.163-8.124 6.417-7.8 13.767-19.743 20.913-33.201 14.376-27.006 28.215-59.994 38.097-82.029 3.255-7.245 11.763-10.479 19.011-7.227 7.245 3.252 10.485 11.76 7.23 19.008-6.33 14.085-14.583 33.45-23.784 53.139-9.225 19.713-19.329 39.732-29.913 55.776-7.149 10.71-14.22 19.728-23.082 26.121-5.064 3.573-11.226 6.54-18.699 6.585-.024 0-.048 0-.066 0-6.033.003-11.769-1.818-16.617-4.566z"/><path d="m470.097 168.258c-13.758-15.777-18.978-35.856-18.984-54.942.036-22.776 10.335-42.387 23.859-56.361 13.683-13.947 30.525-23.187 47.961-24.255 1.242-.069 2.472-.096 3.681-.099 11.382.03 23.541 2.448 35.028 7.188 11.424 4.788 22.365 11.898 30.012 22.716 5.067 7.167 8.382 16.233 8.346 26.043.018 8.469-1.383 16.443-4.794 23.571-3.378 7.143-8.694 12.966-14.73 17.397-12.198 8.844-26.961 13.689-45.903 20.31h.006c-7.515 2.583-15.699-1.407-18.288-8.913-2.583-7.509 1.41-15.705 8.922-18.285 14.106-4.839 25.044-8.778 32.214-12.582 7.305-3.909 10.143-6.888 11.82-10.317 1.134-2.391 1.98-5.721 1.989-11.181-.036-3.588-1.008-6.414-3.15-9.549-2.142-3.087-5.64-6.252-10.149-8.961-8.943-5.502-21.81-8.751-31.323-8.67-.768 0-1.497.021-2.196.057-7.281.162-19.548 5.781-28.773 15.528-9.381 9.702-15.804 22.599-15.765 36.363-.009 13.983 3.903 26.979 11.859 35.997 7.995 8.955 20.229 15.615 42.333 15.756 4.605 0 9.618-.318 15.063-1.005 7.881-.999 15.078 4.575 16.08 12.453.999 7.878-4.578 15.078-12.453 16.077-6.546.828-12.765 1.239-18.69 1.239-.21 0-.417 0-.627 0-27.909.009-49.737-9.837-63.348-25.575z"/><circle cx="93.587" cy="146.41" r="6.411" transform="matrix(2.559629 0 0 2.559626 -53.006214 -358.345123)"/><circle cx="109.312" cy="146.41" r="6.411" transform="matrix(2.559623 0 0 2.559626 -53.005581 -358.345123)"/></g></svg>