<svg preserveAspectRatio="none" xmlns="http://www.w3.org/2000/svg"><g fill="#1e1e1e"><path d="m405.494 239.729c-9.862 0-19.1 2.733-26.979 7.472l.474.775c7.74-4.657 16.812-7.329 26.505-7.329 28.434 0 51.477 23.042 51.477 51.477 0 20.993-12.563 39.046-30.578 47.057l.373.833c18.338-8.157 31.123-26.531 31.123-47.888 0-28.93-23.465-52.395-52.395-52.395z" transform="matrix(.965926 -.25882 .25882 .965926 -60.774529 118.116189)"/><path d="m464.008 265.073c-2.441 0-4.432 1.991-4.432 4.432 0 2.442 1.991 4.431 4.432 4.431h9.638c2.442 0 4.432-1.989 4.432-4.431 0-2.441-1.99-4.432-4.432-4.432zm0 .917h9.638c1.946 0 3.515 1.57 3.515 3.515 0 1.946-1.569 3.514-3.515 3.514h-9.638c-1.945 0-3.515-1.568-3.515-3.514 0-1.945 1.569-3.515 3.515-3.515z" transform="matrix(.965926 -.258819 .258819 .965926 -53.778044 130.52464)"/><path d="m486.624 208.423c-25.646 0-49.439 2.129-69.073 5.766-19.622 3.634-35.087 8.75-44.132 14.829-.005.004-.009.011-.014.015l-.172.1v.015c-14.249 9.363-23.663 25.492-23.663 43.814 0 28.929 23.464 52.395 52.395 52.395 8.063 0 15.707-1.822 22.532-5.077l.042-.029.029-.028.029-.014c17.435-8.46 38.494-13.812 63.938-13.812h1.32c25.445 0 46.506 5.352 63.937 13.812.015.007.028.021.043.029l.029.014c.004.002.011-.002.014 0l.015.028c6.824 3.256 14.468 5.077 22.532 5.077 28.929 0 52.395-23.464 52.395-52.395 0-18.323-9.414-34.453-23.665-43.816v-.014l-.172-.101c-.006-.003-.009-.01-.014-.014-9.038-6.078-24.5-11.194-44.125-14.828-19.634-3.636-43.426-5.766-69.073-5.766h-5.136zm0 .918h5.135c25.596 0 49.334 2.128 68.9 5.751 19.566 3.624 34.964 8.754 43.802 14.701l.015.014.172.101c.005.004.008.01.013.014 13.992 9.201 23.235 25.04 23.235 43.042 0 28.434-23.042 51.477-51.477 51.477-7.902 0-15.383-1.782-22.073-4.963l-.015-.013c-.009-.005-.019-.01-.029-.015h-.014l-.032-.013c-17.574-8.546-38.796-13.957-64.41-13.957h-1.319c-25.617 0-46.851 5.411-64.429 13.955l-.015.014h-.014l-.043.029-.029.015c-6.682 3.171-14.153 4.947-22.044 4.947-28.435 0-51.478-23.04-51.478-51.477 0-18 9.243-33.838 23.235-43.04.006-.003.009-.01.014-.014l.172-.1.014-.015c8.839-5.947 24.238-11.077 43.803-14.701s43.308-5.751 68.899-5.751z" transform="matrix(.965926 -.258819 .258819 .965926 -52.40734 135.70718)"/><path d="m574.875 201.154c-28.93 0-52.395 23.464-52.395 52.395 0 21.358 12.785 39.733 31.123 47.887l.372-.832c-18.01-8.014-30.575-26.069-30.575-47.061 0-28.434 23.041-51.478 51.477-51.478 9.692 0 18.765 2.673 26.504 7.33l.474-.771c-7.876-4.739-17.116-7.473-26.979-7.473z" transform="matrix(.965926 -.258819 .258819 .965926 -45.88418 154.062423)"/><path d="m503.322 254.538c-2.441 0-4.432 1.992-4.432 4.433 0 2.442 1.991 4.431 4.432 4.431h9.638c2.441 0 4.431-1.99 4.431-4.431 0-2.44-1.99-4.433-4.431-4.433zm0 .918h9.638c1.946 0 3.514 1.57 3.514 3.515s-1.568 3.514-3.514 3.514h-9.638c-1.945 0-3.515-1.569-3.515-3.514s1.57-3.515 3.515-3.515z" transform="matrix(.965926 -.25882 .25882 .965926 -49.712003 140.341094)"/><path d="m390.468 282.332c0-12.6 10.214-22.814 22.815-22.814v.459.459c-6.048 0-11.519 2.45-15.483 6.413-3.963 3.964-6.413 9.435-6.413 15.483 0 6.048 2.45 11.518 6.413 15.482 3.964 3.964 9.435 6.414 15.483 6.414 6.048 0 11.519-2.45 15.482-6.414 3.964-3.964 6.414-9.434 6.414-15.482 0-6.048-2.45-11.519-6.414-15.483-3.963-3.963-9.434-6.413-15.482-6.413v-.459-.459c12.6 0 22.813 10.214 22.814 22.814-.001 12.599-10.214 22.813-22.814 22.814-12.6-.001-22.815-10.215-22.815-22.814z" transform="matrix(.965926 -.258819 .258819 .965926 -58.990585 116.585454)"/><path d="m411.035 306.972v-14.287c0-.451-.104-.732-.245-.887-.14-.153-.357-.262-.793-.266h-14.336v-.918h14.336c.595-.003 1.127.178 1.478.573.349.392.478.919.478 1.498v14.287z" transform="matrix(.965926 -.258819 .258819 .965926 -63.573863 114.693917)"/><path d="m388.676 280.997v-.918h14.235c.526.001.805-.11.939-.236.132-.123.227-.333.23-.77v-14.385h.917v14.385c.003.562-.135 1.084-.526 1.444-.392.357-.926.479-1.56.48z" transform="matrix(.965926 -.25882 .25882 .965926 -57.095093 112.006124)"/><path d="m415.128 273.494c-.373-.374-.514-.888-.513-1.412v-14.383h.001.918v14.384c.001.376.094.612.243.761.151.15.417.276.926.278h14.287v.918h-14.287c-.004 0-.007 0-.011 0-.65 0-1.193-.174-1.564-.546z" transform="matrix(.965926 -.258819 .258819 .965926 -54.405401 118.488468)"/><path d="m421.575 300.023v-14.27c-.002-.626.157-1.174.54-1.557.383-.382.923-.532 1.515-.532l14.271.002v.917h-14.271c-.454.001-.713.109-.866.263-.153.153-.269.418-.271.907v14.27z" transform="matrix(.965926 -.258819 .258819 .965926 -60.891636 121.168541)"/><path d="m413.283 277.389c-2.725 0-4.949 2.224-4.949 4.948s2.224 4.933 4.949 4.933c2.724 0 4.947-2.209 4.947-4.933 0-2.725-2.223-4.948-4.947-4.948zm0 .918c2.228 0 4.03 1.802 4.03 4.03s-1.802 4.016-4.03 4.016c-2.229 0-4.03-1.788-4.03-4.016 0-2.229 1.802-4.03 4.03-4.03z" transform="matrix(.965926 -.258819 .258819 .965926 -58.990053 116.585527)"/><path d="m413.283 249.996c-17.854 0-32.343 14.488-32.343 32.342s14.489 32.329 32.343 32.329c17.855 0 32.342-14.474 32.342-32.329.001-17.854-14.488-32.342-32.342-32.342zm0 .917c17.359 0 31.425 14.066 31.425 31.425 0 17.358-14.066 31.41-31.425 31.41-17.358 0-31.425-14.051-31.425-31.41.001-17.359 14.067-31.425 31.425-31.425z" transform="matrix(.965926 -.258819 .258819 .965926 -58.990523 116.585645)"/><path d="m551.139 252.636c-6.539 0-11.862 5.309-11.862 11.847 0 6.539 5.323 11.862 11.862 11.862 6.538 0 11.846-5.323 11.846-11.862 0-6.538-5.308-11.847-11.846-11.847zm0 .919c6.042 0 10.928 4.886 10.928 10.928 0 6.043-4.886 10.944-10.928 10.944-6.043 0-10.944-4.901-10.944-10.944 0-6.042 4.901-10.928 10.944-10.928z" transform="matrix(.965926 -.258819 .258819 .965926 -49.675881 151.655649)"/><path d="m566.707 229.352c-6.538 0-11.847 5.308-11.847 11.847 0 6.538 5.309 11.846 11.847 11.846s11.847-5.308 11.847-11.846c0-6.539-5.309-11.847-11.847-11.847zm0 .918c6.043 0 10.929 4.886 10.929 10.929 0 6.042-4.887 10.929-10.929 10.929-6.043 0-10.929-4.887-10.929-10.929 0-6.043 4.887-10.929 10.929-10.929z" transform="matrix(.965926 -.258819 .258819 .965926 -43.116661 154.89302)"/><path d="m587.448 210.104c-6.539 0-11.847 5.308-11.847 11.847 0 6.538 5.308 11.861 11.847 11.861 6.538 0 11.845-5.322 11.845-11.861s-5.307-11.847-11.845-11.847zm0 .918c6.041 0 10.928 4.887 10.928 10.929 0 6.043-4.887 10.943-10.928 10.943-6.044 0-10.93-4.9-10.93-10.943.001-6.043 4.887-10.929 10.93-10.929z" transform="matrix(.965926 -.258819 .258819 .965926 -37.430188 159.60548)"/></g></svg>