<svg xmlns="http://www.w3.org/2000/svg"><g fill="#fff"><path d="m101.055 66.72-36.89-22.155 16.398-.009c11.021 0 19.956-8.935 19.956-19.957v-4.406c0-11.021-8.935-19.956-19.956-19.956h-80.533v66.577h12.837v-55.078h47.884l17.965-.014c5.309 0 9.612 4.305 9.612 9.612v2.123c0 5.308-4.304 9.612-9.612 9.612h-55.999l56.028 33.651z"/><path d="m12.867 11.736h47.884l17.965-.014"/><path d="m80.563.237h-80.533"/><path d="m220.056 11.736 43.076-.014v-11.485h-103.799v66.577h60.723l43.076-.014v-11.487h-90.964v-43.577z"/><path d="m496.212.237v66.577h60.713l43.075-.014v-11.487h-90.952v-55.076z"/><path d="m180.848 27.776h65.224v11.485l-65.224.014z"/><path d="m378.677 0-70.17 66.496h16.704l53.711-50.91 25.627 22.765h-36.34l-12.136 11.487h61.412l18.749 16.658h17.292z"/><path d="m121.591 21.567h21.12v21.12h-21.12z"/><path d="m284.214 21.567h21.12v21.12h-21.12z"/><path d="m451.07 21.567h21.121v21.12h-21.121z"/><path d="m0 78.698h599.967v4.224h-599.967z"/><path d="m357.084 91.715h7.934l5.84 10.844 5.84-10.844h7.934v16.846h-5.026v-12.098h-.046l-6.771 12.099h-3.863l-6.77-12.099h-.047v12.099h-5.025z"/><path d="m389.057 91.715h5.166v9.727c0 2.14.767 2.978 2.885 2.978h5.119c2.117 0 2.885-.838 2.885-2.978v-9.727h5.165v10.844c0 4.188-2.164 6.189-6.911 6.189h-7.398c-4.747 0-6.912-2.002-6.912-6.189v-10.844z"/><path d="m414.696 91.715h5.165v12.518h11.612v4.329h-16.778v-16.847z"/><path d="m430.766 91.715h19.685v4.189h-7.259v12.658h-5.166v-12.658h-7.259v-4.189z"/><path d="m453.915 91.715h5.165v16.846h-5.165z"/><path d="m463.784 91.715h14.077c4.91 0 6.096 2.467 6.096 5.77v1.443c0 2.514-1.094 5.398-4.747 5.398h-10.261v4.235h-5.165zm5.167 8.423h8.027c1.211 0 1.676-.791 1.676-1.791v-.652c0-1.139-.559-1.791-2.117-1.791h-7.585v4.234z"/><path d="m487.677 91.715h5.166v12.518h11.61v4.329h-16.777v-16.847z"/><path d="m515.039 91.715h6.724l9.261 16.846h-5.748l-1.605-2.978h-10.471l-1.511 2.978h-5.771l9.113-16.846zm.099 10.238h6.609l-3.351-6.328-3.256 6.328z"/><path d="m538.543 102.698-9.33-10.983h6.235l5.677 6.887 5.677-6.887h6.235l-9.33 10.983v5.863h-5.166v-5.863z"/><path d="m555.869 91.715h18.428v3.91h-13.262v2.699h12.564v3.49h-12.564v2.701h13.563v4.048h-18.73v-16.848z"/><path d="m578.651 91.715h15.59c3.979 0 5.049 1.977 5.049 5.004v1.07c0 2.256-.512 3.583-2.886 4.142v.046c1.536.279 2.815.954 2.815 3.723v2.862h-5.164v-2.024c0-1.769-.513-2.35-2.117-2.35h-8.121v4.375h-5.166zm5.168 8.283h8.54c1.396 0 1.908-.558 1.908-1.768v-.559c0-1.489-.745-1.768-2.374-1.768h-8.074z"/><path d="m101.1 91.715h5.165v16.846h-5.165z"/><path d="m110.965 91.715h8.004l9.702 12.239h.046v-12.239h5.165v16.846h-8.004l-9.702-12.239h-.047v12.239h-5.165v-16.846z"/><path d="m137.072 91.715h19.684v4.189h-7.259v12.658h-5.165v-12.658h-7.26z"/><path d="m159.944 91.715h18.426v3.91h-13.263v2.699h12.565v3.49h-12.565v2.701h13.565v4.048h-18.73v-16.848z"/><path d="m182.715 91.715h15.59c3.979 0 5.049 1.977 5.049 5.004v1.07c0 2.256-.513 3.583-2.885 4.142v.046c1.536.279 2.815.954 2.815 3.723v2.862h-5.166v-2.024c0-1.769-.512-2.35-2.117-2.35h-8.12v4.375h-5.166zm5.168 8.283h8.538c1.397 0 1.908-.558 1.908-1.768v-.559c0-1.489-.744-1.768-2.372-1.768h-8.074z"/><path d="m215.244 91.715h6.725l9.26 16.846h-5.746l-1.606-2.978h-10.471l-1.512 2.978h-5.771l9.124-16.846zm.089 10.238h6.608l-3.351-6.328-3.267 6.328z"/><path d="m233.625 97.625c0-4.932 2.769-6.095 7.423-6.095h6.074c7.352 0 8.306 1.582 8.26 6.353h-5.165v-.465c0-1.211-.884-1.56-2.42-1.56h-5.631c-2.722 0-3.234 1.281-3.234 3.374v1.815c0 2.443.512 3.374 2.955 3.374h5.515c2.327 0 3.025-.233 3.025-2.327h5.164v1.583c0 2.839-1.023 5.072-6.212 5.072h-8.331c-4.654 0-7.423-1.164-7.423-6.096z"/><path d="m258.408 91.715h19.684v4.189h-7.259v12.658h-5.165v-12.658h-7.26z"/><path d="m281.557 91.715h5.166v16.846h-5.166z"/><path d="m289.793 91.715h5.654l6.585 12.518 6.584-12.518h5.655l-9.052 16.846h-6.376l-9.046-16.846z"/><path d="m317.065 91.715h18.429v3.91h-13.263v2.699h12.565v3.49h-12.565v2.701h13.566v4.048h-18.731v-16.848z"/><path d="m.03 102.582h4.885v.745c0 1.419.443 1.791 2.234 1.791h6.166c1.606 0 1.793-.441 1.793-1.582 0-1.117-.281-1.629-1.862-1.629h-5.304v-3.491h4.816c1.675 0 1.977-.418 1.977-1.629 0-1.303-.813-1.629-2.349-1.629h-5.119c-1.675 0-2.187.349-2.187 1.605v.721h-4.887v-.93c0-4.538 2.211-5.026 8.54-5.026h3.466c6.004 0 7.423.931 7.423 4.654 0 2.839-.488 3.188-2.792 3.886v.07c2.723.466 3.165 1.326 3.165 4.003 0 3.326-1.163 4.608-5.84 4.608h-8.587c-3.002 0-5.538-.86-5.538-4.376z"/><path d="m24.367 91.715h15.59c5.166 0 6.98 1.698 6.98 5.864v5.117c0 4.166-1.814 5.864-6.98 5.864h-15.59zm5.166 12.518h9.168c2.211 0 3.071-.627 3.071-3.025v-2.28c0-2.396-.86-3.025-3.071-3.025h-9.168z"/><path d="m50.613 97.625c0-4.932 2.768-6.095 7.422-6.095h8.284c4.654 0 7.423 1.164 7.423 6.095v5.027c0 4.932-2.769 6.096-7.423 6.096h-8.285c-4.654 0-7.423-1.164-7.423-6.096v-5.027zm5.304 3.421c0 2.443.512 3.374 2.955 3.374h6.608c2.443 0 2.955-.931 2.955-3.374v-1.815c0-2.093-.511-3.374-3.234-3.374h-6.05c-2.722 0-3.234 1.281-3.234 3.374z"/></g></svg>