<svg xmlns="http://www.w3.org/2000/svg"><g fill="none" stroke="#1e1e1e"><path d="m387.723 341.373c-26.183-37.733-27.723-44.664-27.723-44.664l1.54-11.552s32.343-39.274 78.548-73.157c37.227-27.3 69.455-40.103 95.477-43.242 6.274-.757 12.189-.952 17.725-.652 28.493 1.54 64.687 10.78 85.479 30.033 20.792 19.252 22.332 37.733 20.792 51.595-1.54 13.861-20.792 40.044-20.792 40.044s-167.878 83.938-174.038 83.938c-6.161 0-22.332-5.39-22.332-5.39s-16.172-4.621-26.953-7.701-26.953-17.712-27.723-19.252z" stroke-width="6"/><g stroke-width="4"><path d="m360 295.168c20.792 24.643 28.493 37.734 33.883 42.355 5.391 4.62 26.183 7.701 40.044 13.861 13.862 6.161 20.792 9.241 26.183 9.241s30.034-16.172 50.826-31.573c20.792-15.402 52.365-37.734 70.076-45.435 17.712-7.701 23.103-11.551 35.424-11.551s20.793 7.701 20.793 7.701l15.401-12.804 3.889-6.984"/><path d="m554.06 297.479c0-10.012-2.31-14.631-6.931-19.252s-58.544-41.856-57.774-42.627c.77-.77 3.099-6.658 4.639-10.509 1.54-3.85 0-4.62-4.621-4.62-4.62 0-14.631 6.16-14.631 6.16s-11.551-6.93-19.252-10.011c-7.701-3.08-11.551-4.62-11.551-4.62l-3.851-.77"/><path d="m423.791 270.343c-10.411 12.241-25.287 34.066-25.287 38.687 0 4.62.77 5.39 6.161 5.39 5.39 0 25.412-14.631 42.354-28.493 16.942-13.861 40.606-45.517 42.146-50.137 1.541-4.621 5.599-13.009 3.289-15.319s-17.542 4.549-30.803 14.632c-17.159 13.045-26.455 22.811-37.86 35.24z"/><path d="m400.814 311.34c-3.08 3.851-6.16 10.011-6.16 10.011v15.402"/></g><path d="m363.08 285.157s5.391 5.391 11.551 13.092c6.161 7.701 20.792 24.643 20.792 24.643s10.782 3.85 24.643 9.24c13.861 5.391 33.884 16.172 37.734 16.942 3.851.77 6.931-1.54 13.091-5.39 6.161-3.851 75.468-54.676 94.72-64.687s30.803-16.942 38.504-18.482 10.011-1.54 10.011-1.54"/></g></svg>