<svg viewBox="0 0 200 40" xmlns="http://www.w3.org/2000/svg"><path d="m.342 29.495c0-.004.053-.325.117-.714.065-.386.157-.948.205-1.245l.087-.54 3.598-3.661 3.595-3.661-1.672-1.702-1.672-1.701-.367.372-.366.37-.377.129c-.205.071-.751.257-1.21.418-.899.309-1.015.349-1.03.349-.004 0 .655-.676 1.467-1.503l1.478-1.502-.499-.507c-.275-.281-.506-.507-.513-.501-.007.004-.011 0-.01-.013.004-.012-.004-.019-.015-.016-.01.002-.017-.007-.015-.016.002-.011-.006-.018-.016-.016-.009.002-.017-.006-.016-.016.003-.011-.004-.019-.015-.015-.01.001-.018-.006-.016-.016.003-.011-.005-.02-.016-.017-.01.003-.016-.005-.015-.015.003-.011-.005-.019-.016-.016-.009.002-.017-.007-.015-.017.002-.011-.005-.017-.016-.015-.009.001-.018-.006-.016-.016.004-.011-.004-.019-.016-.015-.009.001-.016-.007-.015-.017.003-.01-.005-.019-.016-.016-.009.003-.017-.006-.015-.015.003-.011-.005-.019-.015-.016-.01.001-.018-.006-.017-.016.004-.011-.004-.019-.015-.016-.01.001-.017-.007-.015-.017.003-.01-.006-.019-.017-.015-.008.002-.016-.007-.015-.016.003-.011-.004-.019-.015-.015-.01.001-.018-.007-.017-.016.004-.012-.004-.019-.015-.017-.01.001-.017-.005-.015-.015.002-.011-.005-.019-.017-.017-.008.002-.016-.005-.015-.015.003-.012-.004-.019-.015-.016-.01.001-.018-.007-.016-.016.004-.011-.005-.019-.016-.015-.009.001-.016-.007-.015-.017.003-.011-.005-.019-.016-.015-.01.001-.017-.007-.016-.017.003-.01-.004-.019-.015-.016-.009.002-.018-.006-.016-.015.004-.011-.005-.019-.015-.016-.01.001-.017-.007-.016-.015.003-.013-.005-.02-.016-.017-.01.001-.017-.006-.016-.016.003-.011-.003-.02-.015-.016-.009.002-.017-.006-.016-.016.004-.011-.004-.019-.015-.016-.009.003-.018-.006-.015-.015.003-.012-.006-.019-.017-.016-.008.001-.016-.006-.015-.016.003-.012-.004-.019-.015-.016-.01.001-.018-.007-.017-.017.004-.01-.004-.019-.015-.015-.009.002-.018-.007-.015-.016.003-.011-.006-.019-.017-.015-.009.001-.016-.007-.015-.016.003-.012-.004-.02-.015-.017-.01.001-.018-.006-.017-.016.003-.01-.004-.019-.015-.016-.009.002-.018-.005-.015-.016s-.006-.018-.016-.015c-.01.001-.017-.007-.016-.016.003-.012-.005-.02-.015-.016-.01.002-.018-.006-.016-.016.004-.011-.004-.019-.015-.017-.01.003-.018-.005-.016-.015.003-.011-.005-.019-.016-.016-.009.001-.017-.005-.015-.015.003-.011-.006-.019-.016-.016-.009.001-.017-.007-.016-.017.003-.011-.004-.019-.015-.015-.01.002-.018-.007-.015-.017.002-.01-.006-.018-.017-.015-.009.002-.016-.006-.015-.016.003-.011-.006-.019-.019-.016-.013.004-.017 0-.011-.006.007-.008-.177-.205-.406-.439l-.419-.426h-.11c-.175 0-.44-.088-.588-.192-.052-.039-.071-.039-.043-.002.02.024.019.025-.004.005-.016-.012-.025-.028-.021-.034.011-.017-.034-.053-.051-.04-.008.004-.027-.006-.043-.024-.015-.017-.022-.031-.015-.031.005 0 0-.014-.015-.032-.017-.018-.034-.028-.04-.024-.006.003-.028-.011-.049-.035-.02-.021-.027-.037-.015-.028.014.008.018.004.014-.01-.004-.013-.015-.02-.024-.019s-.027-.008-.039-.023c-.037-.04-.152-.263-.152-.29 0-.013.018.016.04.063.05.109.133.243.144.231.005-.003-.003-.021-.017-.035-.044-.052-.135-.255-.17-.38-.027-.103-.03-.155-.026-.33.006-.175.013-.23.05-.336.056-.171.147-.32.273-.459.057-.063.089-.102.073-.09-.024.018-.022.011.007-.021.038-.043.066-.06.032-.019-.013.015-.014.025-.003.025.016 0 .042-.032.042-.055 0-.008.017-.023.039-.038l.039-.022-.039.033c-.058.048-.03.042.074-.021.168-.101.313-.141.544-.149.169-.004.223 0 .325.027.12.033.274.103.357.162.052.038.07.038.043.001-.021-.023-.019-.025.004-.004.015.011.025.027.02.033-.011.018.035.053.051.042.009-.005.029.006.045.027l.03.035-.04-.031-.039-.033.038.043c.02.024.043.04.052.035.007-.005.01 0 .008.013-.003.011.004.018.013.017s.035.016.055.04c.035.039.035.042.003.013-.02-.017-.036-.024-.036-.015 0 .021.055.072.066.061.004-.005.017.005.029.019.021.026.019.027-.006.007-.034-.029-.034-.01.003.042.104.149.189.427.189.611v.1l1.485 1.51 1.484 1.511 1.477-1.502c.813-.828 1.477-1.498 1.477-1.493s-.056.181-.126.389c-.069.209-.14.42-.155.467-.232.704-.596 1.786-.608 1.808-.008.016-.044.057-.079.091-.034.035-.059.069-.055.076.006.008 0 .011-.012.01-.011-.003-.018.005-.015.016.001.009-.007.018-.015.015-.012-.003-.02.006-.017.016.002.01-.005.018-.015.017-.011-.004-.019.004-.015.015.001.01-.007.017-.017.016-.01-.002-.018.004-.015.015.002.01-.006.019-.015.017-.011-.003-.019.005-.016.016.001.01-.006.018-.015.015-.012-.003-.02.006-.016.017.002.01-.007.017-.016.016-.011-.004-.018.004-.016.015.002.01-.006.018-.015.016-.011-.002-.019.005-.016.016.001.009-.006.018-.016.016-.01-.003-.019.004-.015.016.002.01-.007.017-.016.016-.011-.003-.018.005-.015.016.001.01-.007.018-.016.015-.011-.003-.019.006-.016.016.001.01-.005.018-.015.017-.011-.004-.019.004-.017.015.003.01-.005.018-.015.016-.011-.002-.018.005-.015.017.002.008-.007.016-.015.015-.012-.003-.019.005-.017.016.002.01-.005.017-.015.015-.011-.002-.019.006-.015.017.001.009-.007.018-.016.016-.011-.004-.019.004-.016.016.002.009-.006.017-.015.016-.011-.004-.019.004-.016.015.001.013-.003.018-.011.013-.007-.005-.022 0-.029.012-.014.015.373.417 1.653 1.72l1.671 1.701 1.673-1.701c.92-.936 1.672-1.707 1.672-1.712 0-.008-.009-.014-.017-.014s-.014.007-.008.014c.004.007-.739.772-1.652 1.701l-1.659 1.689-1.665-1.697-1.664-1.698 1.664 1.689 1.665 1.689 1.653-1.682 1.651-1.68-.362-.373c-.2-.204-.355-.365-.344-.36.01.005.02.007.02.004s-.049-.145-.104-.315c-.056-.17-.237-.705-.397-1.19-.161-.485-.315-.951-.344-1.032-.037-.113-.044-.153-.031-.168.014-.012.017-.011.013.007-.003.013.002.022.012.02.007-.001.669.665 1.468 1.48l1.453 1.482-1.461-1.48-1.461-1.479 1.461 1.492 1.461 1.49 1.479-1.505 1.482-1.508v-.103c0-.175.091-.466.186-.603.036-.05.042-.073.014-.056-.011.009-.012.006-.007-.008.009-.011.018-.015.022-.011.011.013.066-.038.066-.059 0-.009-.016-.002-.034.015-.021.016-.011.003.016-.03.06-.064.089-.082.04-.023-.016.019-.004.01.03-.019.06-.056.078-.084.031-.047-.015.011-.008-.003.017-.03.027-.029.05-.052.053-.052.005 0-.004.015-.02.033-.016.016-.023.031-.013.031.021 0 .071-.056.059-.067-.004-.004.006-.017.019-.03.026-.021.027-.019.006.007-.027.034-.008.034.043-.004.083-.059.237-.129.357-.162.102-.027.156-.031.325-.027.23.008.375.048.545.149.103.063.117.066.087.028-.02-.026-.018-.028.007-.007.013.013.023.026.018.03-.01.012.023.052.043.052.009 0 .006-.014-.005-.029s-.001-.01.022.011c.047.042.057.064.015.032-.015-.013.019.028.077.091.125.139.216.288.272.459.037.106.044.161.05.336.004.175.001.227-.027.33-.034.125-.125.328-.168.38-.015.014-.023.032-.018.035.012.012.094-.122.144-.231.022-.047.041-.076.041-.063 0 .027-.116.25-.151.29-.014.015-.032.024-.04.023-.01-.001-.021.006-.025.019-.005.014 0 .018.014.01.012-.009.005.007-.016.028-.02.024-.042.038-.048.035-.007-.004-.023.006-.04.024-.015.018-.021.032-.015.032.007 0 0 .014-.015.031-.016.018-.035.028-.043.024-.017-.013-.062.023-.051.04.007.012-.036.05-.098.086-.045.027-.015-.006.037-.039.03-.018.052-.039.047-.042-.005-.005-.027.007-.052.024-.15.106-.416.194-.597.194h-.103l-1.481 1.508-1.48 1.505 1.456 1.479 1.458 1.478-1.445-1.478-1.446-1.479 1.459 1.479c.799.812 1.456 1.48 1.456 1.483s-.006 0-.016-.005c-.008-.004-.015-.001-.015.006 0 .017.022.024.051.02.007-.002.004.012-.004.03-.021.038-.039.038-.102.006-.025-.013-.035-.019-.019-.014.074.02.112.027.103.017-.004-.004-.196-.072-.422-.15-.64-.222-2.061-.711-2.139-.74-.083-.028-.104-.021-.029.013.036.017.039.021.013.016-.023-.007-.188-.163-.403-.377l-.363-.369-1.653 1.683-1.651 1.68 3.59 3.653c1.974 2.009 3.59 3.656 3.59 3.661 0 .004-1.619-1.64-3.597-3.653l-3.6-3.661 1.657-1.686c1.005-1.021 1.664-1.682 1.676-1.677.013.005.019 0 .017-.011-.004-.01-.013-.021-.022-.024-.008-.004-.768.76-1.686 1.696l-1.672 1.702 3.597 3.661 3.597 3.661.055.326c.029.179.122.737.205 1.24.082.502.154.917.159.923.005.004.005-.036 0-.088l-.01-.096.018.076c.023.114.012.13-.086.118-.044-.006-.602-.099-1.237-.207l-1.154-.198-2.278-2.318c-1.253-1.276-2.282-2.315-2.287-2.311-.004.005 1.021 1.054 2.277 2.333 1.256 1.278 2.282 2.324 2.277 2.324s-1.624-1.644-3.597-3.652l-3.592-3.654-3.592 3.656c-2.291 2.331-3.599 3.652-3.613 3.646-.018-.007-.018-.01.002-.01.012-.001 1.639-1.646 3.612-3.654l3.591-3.654.157.16c.086.086.156.154.156.149s-.071-.082-.159-.171l-.159-.163-3.597 3.657-3.593 3.657-.563.095c-.31.053-.836.143-1.173.201-.725.126-.726.126-.726.114zm11.135-6.219c-.632-.644-1.154-1.169-1.16-1.169-.009 0 .508.528 1.144 1.176.634.645 1.158 1.173 1.161 1.169.004-.003-.511-.532-1.145-1.176zm4.632-6.282c0-.012-.655-.675-.667-.675-.006 0 .139.154.324.342s.338.341.339.341c.003 0 .004-.002.004-.008zm-3.131-3.194c-.186-.189-.343-.344-.348-.344-.007 0 .142.158.331.351.187.19.346.346.349.341.002-.003-.145-.16-.332-.348zm-12.573-2.194c0-.003-.013-.015-.027-.027-.025-.021-.027-.018-.006.006.02.026.033.035.033.021zm19.222-.021c.021-.024.019-.027-.004-.006-.017.012-.029.024-.029.027 0 .014.012.005.033-.021zm-19.332-.09c0-.003-.013-.016-.026-.027-.025-.021-.026-.019-.007.006.02.025.033.034.033.021zm19.442-.021c.02-.025.018-.027-.005-.006-.016.011-.028.024-.028.027 0 .013.012.004.033-.021z" fill="#ccc"/><path d="m36.56 22.96 1.98 6.24h-6.27l-1.38-5.58h-1.23l-.96 5.58h-5.7l3.3-18.75h9c3.42 0 5.13 1.53 5.13 4.59 0 1.26-.19 2.46-.57 3.6-.7 2.16-1.8 3.6-3.3 4.32zm-4.29-7.71h-1.14l-.66 3.75h1.32c.68 0 1.193-.073 1.54-.22.353-.153.593-.583.72-1.29.133-.713.2-1.15.2-1.31 0-.4-.153-.657-.46-.77-.313-.107-.82-.16-1.52-.16zm16.17 1.47-1.38 7.8h2.37c.78 0 1.36-.093 1.74-.28.38-.193.63-.63.75-1.31l1.38-7.8h-2.4c-.76 0-1.33.093-1.71.28-.38.193-.63.63-.75 1.31zm3.45-6.72c2.54 0 4.35.497 5.43 1.49 1.08.987 1.62 2.51 1.62 4.57 0 2.06-.327 4.217-.98 6.47-.647 2.247-1.677 3.993-3.09 5.24-1.407 1.253-3.467 1.88-6.18 1.88-2.707 0-4.6-.493-5.68-1.48-1.08-.993-1.62-2.52-1.62-4.58 0-.98.14-2.273.42-3.88.28-1.613.65-3.003 1.11-4.17.46-1.173 1.08-2.19 1.86-3.05 1.5-1.66 3.87-2.49 7.11-2.49zm20.22 14.4-.84 4.8h-11.4l3.3-18.75h5.7l-2.46 13.95zm13.95-6.63-.78 4.35h-5.7l-.39 2.28h6.99l-.84 4.8h-12.69l3.3-18.75h12.54l-1.56 4.8h-6.15l-.42 2.52zm18.69 6.9h-3.72l-.78 4.53h-5.7l3.3-18.75h9c3.4 0 5.1 1.58 5.1 4.74 0 1.5-.21 2.853-.63 4.06-.42 1.213-.883 2.177-1.39 2.89-.513.707-1.217 1.307-2.11 1.8-.887.487-1.91.73-3.07.73zm-.75-9.42h-1.32l-.81 4.62h1.32c.68 0 1.193-.073 1.54-.22.353-.153.58-.5.68-1.04.26-1.48.39-2.29.39-2.43 0-.38-.15-.63-.45-.75-.3-.12-.75-.18-1.35-.18zm19.98 9.15-.84 4.8h-11.4l3.3-18.75h5.7l-2.46 13.95zm4.47 1.83-1.17 2.97h-6l7.89-18.75h8.82l1.32 18.75h-6.03l-.12-2.97zm4.26-10.02h-.3l-2.1 5.25h2.4zm7.89-5.76h6.3l.39 6.6h.21l2.76-6.6h6.3l-7.56 13.65-.87 5.1h-5.7l.87-5.1zm19.23 18.75h-5.7l3.3-18.75h5.7zm19.38 0h-5.37l-3.06-6.66c-.08-.14-.12-.337-.12-.59 0-.247.02-.53.06-.85h-.24l-1.41 8.1h-5.7l3.3-18.75h5.37l3.06 6.66c.06.14.09.337.09.59 0 .247-.02.53-.06.85h.24l1.44-8.1h5.7zm14.01-5.52.15-.81h-1.44l.81-4.59h6.87l-1.77 10.02c-2.44.9-4.89 1.35-7.35 1.35-2.46 0-4.237-.49-5.33-1.47-1.087-.98-1.63-2.49-1.63-4.53 0-.86.14-2.13.42-3.81.6-3.48 1.66-5.99 3.18-7.53 1.52-1.54 4.04-2.31 7.56-2.31.74 0 1.683.08 2.83.24 1.153.16 2 .34 2.54.54l-1.65 4.59c-1.5-.28-2.877-.42-4.13-.42-1.247 0-2.14.1-2.68.3-.54.2-.86.6-.96 1.2l-1.47 8.49h1.89c.68 0 1.183-.073 1.51-.22.333-.153.55-.5.65-1.04z" fill="#fff"/></svg>