<svg xmlns="http://www.w3.org/2000/svg"><g fill="#fff"><path d="m147.503 2.294c1.297-2.166 3.32-2.166 3.32-2.166h60.328v13.423h-47.916l-2.6 3.609v9.092h50.516l-9.526 14.432h-40.99v12.989h50.516v13.278h-76.06c0-14.432 0-31.173 0-45.607z"/><path d="m351.436.128c1.589 0 1.589.146 2.743 1.443 15.155 20.784 31.462 43.876 47.048 65.669-8.371.145-13.711-.144-22.081 0l-9.958-13.567h-28.432l-9.092-12.123v25.69h-21.504c-.723 0-1.445-.721-1.445-1.443l.145-65.669m22.804 40.556h27.567l-19.773-27.133h-7.649z"/><path d="m235.541.128h60.041v13.423h-48.061c-2.166 0-2.743 0-3.175.721l-2.022 2.454-.289 33.339c0 3.32.289 3.608 2.023 3.608h32.906v-12.989h-16.165l9.671-14.432h29.298v41.276c-21.506-.143-54.556 0-76.062-.143-1.443 0-4.906-1.443-4.906-5.197l-.146-40.844 12.846-19.196c1.3-2.163 4.041-2.02 4.041-2.02z"/><path d="m529.535 5.757c14-3.32 28.866-5.052 42.866-1.443 10.824 2.597 20.782 10.103 24.679 20.638 6.063 16.309 1.732 34.207-4.329 49.793-9.958 23.958-25.401 45.462-43.153 64.226.286-24.247 0-48.35.143-72.597-.143-4.186.289-8.37-.577-12.412-1.589-9.237-10.537-16.309-19.773-16.309-22.949-.144-45.752 0-68.699 0 21.215-13.998 44.162-25.69 68.843-31.896z"/><path d="m406.567 83.26c16.021-16.741 33.63-32.041 52.968-44.741.146 37.238 0 74.617.146 111.998.288.288.722 1.011 1.011 1.3h69.42c2.311 0 4.62-.434 6.928-.866-5.051 5.772-10.969 10.535-16.741 15.441-25.98 21.361-55.421 39.401-87.751 48.927-19.341 5.341-41.424 8.804-59.753-1.154-1.73-1.3-6.636-3.32-3.607-5.774 26.556-24.967 55.997-49.359 82.844-74.038v-7.94c-31.753 22.372-64.66 48.062-93.956 68.557l-2.743 1.154 1.589-2.02c28.862-27.133 59.028-52.679 87.892-79.814l7.218-6.206v-6.495c-32.187 22.372-66.537 48.639-95.687 68.412 2.308-3.898 5.917-6.784 9.38-9.815 28.142-25.69 57.874-50.657 86.307-76.203v-6.063c-28.721 18.906-58.886 42.867-84.575 60.474 1.299-3.032 2.886-6.061 5.626-8.083 26.413-22.804 53.114-45.896 78.949-69.277v-5.772c-11.981 6.783-21.361 16.309-32.764 23.958-7.649 4.906-13.998 11.834-22.37 15.443 2.743-4.186 6.349-7.649 9.669-11.403z"/><path d="m490.422 67.096c0-1.877.145-3.751.577-5.485 8.228-.143 16.598 0 24.826-.143.577 1.586 1.009 3.174 1.009 4.906-.143 19.195 0 38.535 0 57.876.145 1.443-.866 2.741-1.586 3.897-7.217-.288-14.578 0-21.795-.145-1.731 0-3.32-1.155-3.031-3.032-.143-19.34 0-38.535 0-57.874z"/><path d="m307.129 86.437c14.288-4.908 29.298-8.372 44.453-7.94 10.246.289 20.781 2.888 29.007 9.526-26.987 25.835-55.997 51.093-83.42 76.783v6.494c27.712-19.629 57.876-41.998 81.977-59.751 4.04-2.888 7.938-5.917 12.267-8.371-2.164 3.752-5.772 6.063-8.804 8.949-25.687 23.812-51.811 47.193-77.646 70.863-2.743 2.597-5.34 5.051-7.794 8.083v3.752c31.463-21.793 63.505-44.597 95.109-66.101-2.02 2.452-4.474 4.618-6.783 6.784-29.007 26.555-59.317 52.39-88.326 79.091v5.772c25.114-18.041 52.39-37.813 74.328-53.545 3.318-2.309 6.495-4.763 10.101-6.64-.866 1.3-1.731 2.6-2.741 3.754-27.275 25.112-54.41 49.359-81.688 74.472v4.331c19.34-12.557 38.969-28.723 56.287-40.413-3.751 5.34-8.369 9.958-12.843 14.866-26.124 26.99-56.722 50.082-91.217 65.525-18.907 8.227-39.402 14.576-60.329 13.71-11.4-.432-23.669-3.897-31.461-12.7-8.083-8.949-9.96-21.938-8.517-33.628 2.02-16.743 8.949-32.475 17.32-46.907 9.381-16.02 20.781-31.03 33.916-44.308-.72 23.525-.143 47.194-.289 70.72 0 7.504-.72 15.875 3.898 22.515 3.463 4.763 8.948 8.515 15.154 8.515h69.277c0-14.289.146-28.432 0-42.576-9.237-.434-18.763-1.011-27.855.289-.145 5.772.289 11.546-.145 17.318-2.598 1.877-6.206.577-9.092 1.011-6.495-.434-13.133.866-19.341-.866.145-21.506 0-42.866 0-64.37 8.806-2.021 18.186-.289 27.135-.866.432.434 1.009.866 1.443 1.443v16.166c8.66 1.297 17.752.286 26.555.577.289-.289 1.012-.866 1.3-1.155 0-13.423 0-26.846 0-40.267-17.609-1.154-35.504-.145-53.256-.434-7.938-.288-16.021 0-23.815 1.3 2.309-2.597 4.763-5.197 7.506-7.506 25.835-23.092 55.565-42.576 88.329-54.265z"/><path d="m40.844 5.757c2.455-3.463 6.063-5.772 10.681-5.629 8.803-.288 17.607 0 26.555 0-.143 2.743-.143 4.475-.288 7.217 3.608-3.754 7.505-7.505 13.423-7.217 12.269-.288 24.392 0 36.658 0v67.257c-8.226 0-16.597 0-24.823 0 0-16.309 0-32.618 0-48.927-4.618-.432-6.929 3.751-8.949 6.928-9.092 14-18.473 27.71-26.99 41.999-8.803.145-17.463.145-26.121 0 10.392-16.886 21.649-33.195 32.327-49.793-5.483.288-12.555-1.443-16.597 3.031-10.247 15.443-20.35 31.175-30.596 46.762-8.66 0-17.464 0-26.124 0 13.566-20.638 27.278-41.133 40.844-61.628z"/></g></svg>