<svg xmlns="http://www.w3.org/2000/svg"><g fill="#fff"><path d="m.033 181.398 79.281-.081c32.436 0 58.722-26.205 58.722-58.497 0-32.352-26.286-58.56-58.722-58.56l-20.592.111c-1.623 0-2.937-1.329-2.937-2.967s1.314-2.97 2.937-2.97l79.137.015.033-24.825h-79.185c-15.312 0-27.765 12.435-27.765 27.717 0 15.294 12.453 27.681 27.765 27.681l20.685.273c18.585 0 33.624 14.988 33.624 33.48 0 18.504-15.036 33.525-33.624 33.525h-79.329z"/><path d="m.063 150.471h79.329c15.36 0 27.78-12.387 27.78-27.699 0-15.294-12.42-27.669-27.78-27.669l-20.685-.222c-18.555 0-33.606-15.006-33.606-33.543 0-18.486 15.051-33.495 33.606-33.495l79.185-.015-.033-24.924h-79.137c-32.403 0-58.722 26.178-58.722 58.5s26.319 58.512 58.722 58.512l20.478.033c1.557 0 2.874 1.269 2.874 2.871 0 1.575-1.317 2.841-2.874 2.841l-79.167.066z"/><path d="m199.503 156.459c-13.755 0-25.023-10.962-25.023-24.957v-79.2c0-13.464 11.268-24.54 25.023-24.54l84.624.015v-24.873h-84.624c-27.54 0-49.848 22.227-49.848 49.671v78.927c0 27.447 22.308 49.707 49.848 49.707l84.27.033-.015-24.813z"/><path d="m180.549 52.575c0-10.494 8.442-19.002 18.954-19.002h84.624v24.909h-72.909c-5.841 0-5.922 5.793-5.922 5.793h60.825v24.795h-85.602z"/><path d="m199.503 150.426c-10.482 0-18.987-8.457-18.987-18.924v-36.528h85.605v24.846h-60.828c.081 5.841 5.922 5.871 5.922 5.871h72.555l-.015 24.702z"/><path d="m343.428 156.396c-13.704 0-24.906-11.169-24.906-24.894v-78.93c0-13.737 11.121-24.81 24.843-24.81h81.963v-24.858h-82.155c-27.525 0-49.833 22.227-49.833 49.671v78.927c0 27.447 22.5 49.707 50.025 49.707l81.963.033v-116.967h-70.44v24.795h45.546v67.326z"/><path d="m324.363 131.502c0 10.515 8.505 19.068 19.002 19.068h51.195v-55.626h-39.609v24.876h14.7l.045 5.841h-14.634c-3.195 0-5.808-2.646-5.808-5.841l-.132-55.56s-.018-5.778 5.874-5.922h70.359l-.033-24.78-81.963.015c-10.494 0-19.002 8.508-19.002 19.002v78.927"/><path d="m502.344 33.204c1.104-3.159 4.107-5.439 7.653-5.439 3.552 0 6.582 2.28 7.656 5.439l39.789 117.54h-58.26l.063-27.651h19.47l-8.766-26.046-28.551 84.174h-29.367z"/><path d="m565.464 156.396h-66.186v24.825h100.722l-52.383-154.983c-4.59-15.117-19.722-26.238-37.635-26.238-17.943 0-33.027 11.073-37.653 26.178l-52.863 155.046h26.37l51.324-150.714c2.085-4.992 6.999-8.508 12.777-8.508 5.745 0 10.686 3.516 12.789 8.475z"/></g></svg>