<svg xmlns="http://www.w3.org/2000/svg"><g fill="#fff" stroke-width=".5"><path d="m403.811 36.832-.12-.183-.126-.183-.18-.123-.183-.12-.123-.183-.12-.183-.183-.123-.183-.12-.123-.186-.12-.18-.186-.12-.183-.126-.12-.18-.123-.183-.183-.123-.18-.12-.123-.183-.123-.186-.18-.12-.183-.123-.123-.183-.12-.183-.186-.12-.183-.123-.12-.183h2.436l1.221.306 1.218.303 20.718 5.79c13.809 3.858 26.808 8.226 38.997 13.101 12.186 4.875 22.707 9.687 31.563 14.442 8.817 4.791 16.818 9.669 24.009 14.625 7.23 4.995 13.731 10.074 19.497 15.234 5.811 5.199 11.052 10.845 15.723 16.938s8.328 11.781 10.968 17.061c2.64 5.283 4.569 10.563 5.787 15.843 1.221 5.283 1.728 10.563 1.527 15.846-.204 5.277-1.119 10.761-2.745 16.449s-3.858 11.373-6.702 17.061c-2.841 5.688-6.399 11.376-10.662 17.064-4.269 5.688-8.775 10.926-13.527 15.72-4.797 4.752-11.154 9.975-19.074 15.66-7.92 5.688-16.248 10.866-24.984 15.537-8.733 4.671-18.483 9.042-29.247 13.101-10.767 4.065-17.061 6.399-18.891 7.008-1.827.609-3.15 1.017-3.96 1.221l-1.218.303-.915.306-.915.303-.915.303-.912.306-.609.183-.609.123v-1.218l.609-.123.609-.183.123-.183.183-.12.18-.123.123-.183.12-.183.183-.123.186-.12.12-.183.123-.186.183-.12.183-.123.12-.183.123-.18.183-.123.183-.123c.081-.12.366-.447.852-.975.531-.486 3.372-3.816 8.532-9.99 5.199-6.216 9.465-12.513 12.795-18.891 3.372-6.417 5.667-12.471 6.885-18.159 1.221-5.685 1.626-10.563 1.221-14.625-.408-4.062-1.323-7.617-2.742-10.665-1.425-3.042-3.213-5.544-5.364-7.491-2.112-1.911-4.692-3.474-7.737-4.695-3.048-1.215-7.008-1.827-11.883-1.827s-10.359 1.014-16.452 3.048c-6.093 2.031-12.288 4.977-18.585 8.835-6.297 3.861-12.087 8.022-17.367 12.489l-7.92 6.705-.123.183-.183.123-.183.12-.12.183-.915.183-.912.12-.126-.606c-.12-.408-1.602-2.643-4.446-6.705s-5.628-7.068-8.349-9.018c-2.763-1.908-5.463-2.964-8.103-3.168s-5.586.507-8.838 2.133c-3.249 1.623-6.09 3.657-8.529 6.093-2.436 2.439-5.889 6.804-10.359 13.101s-10.803 17.022-19.011 32.175l-12.369 22.665-.305.612-.306.609-.303.606-.306.612-.304.609-.302.609-.307-.609-.305-.609-.303-.612-.306-.606-.184-.123-.122-.183-.12-.183-.184-.12-.303-.612c-.207-.405-3.251-6.195-9.14-17.364-5.892-11.172-11.274-20.718-16.149-28.641s-9.282-14.076-13.224-18.462c-3.978-4.347-7.392-7.335-10.233-8.958-2.844-1.623-5.487-2.538-7.923-2.742s-4.266-.102-5.484.306c-1.221.405-3.15 1.623-5.79 3.654-2.64 2.034-5.28 5.139-7.923 9.324l-3.957 6.213-.915-.12-.915-.183-.123-.183-.18-.12-.183-.123-.123-.183-7.92-6.705c-5.283-4.467-11.073-8.628-17.367-12.489-6.297-3.858-11.985-6.702-17.064-8.529-5.076-1.83-9.75-2.946-14.013-3.354-4.266-.405-8.226-.204-11.883.612-3.657.813-6.6 1.887-8.835 3.228-2.235 1.302-3.351 2.154-3.351 2.559s-.204.609-.609.609-1.464 1.524-3.168 4.569c-1.749 3.048-2.925 5.994-3.537 8.838-.606 2.844-.708 6.702-.303 11.574.405 4.875 1.626 10.158 3.657 15.846s4.974 11.475 8.835 17.364c3.858 5.892 7.758 11.031 11.7 15.417 3.981 4.347 6.012 6.582 6.093 6.702l.183.123.18.123.123.18.123.183.183.123.183.12.12.186.123.183.183.12.183.123.123.183.12.183.183.123.183.12.123.183.606.183.612.123v1.218l-.612-.123-.606-.183-.915-.306-.915-.303-.912-.303-.915-.306-.915-.303c-.609-.204-2.946-.915-7.008-2.133-4.059-1.221-11.271-3.963-21.63-8.226-10.359-4.266-19.602-8.634-27.723-13.104-8.127-4.467-15.54-9.138-22.245-14.013-6.702-4.875-12.45-9.69-17.244-14.442-4.764-4.806-9.24-9.894-13.404-15.234-4.125-5.373-7.794-11.076-10.968-17.061-3.129-6.012-5.505-11.964-7.131-17.853-1.623-5.892-2.538-11.58-2.739-17.061-.207-5.484.303-10.767 1.521-15.843 1.218-5.079 3.252-10.461 6.096-16.149 2.841-5.685 6.639-11.538 11.391-17.55 4.794-5.97 10.341-11.697 16.638-17.181 6.294-5.484 12.693-10.461 19.194-14.931 6.498-4.467 14.319-9.141 23.46-14.016 9.138-4.872 19.905-9.747 32.295-14.622 12.387-4.875 25.185-9.138 38.388-12.798l19.803-5.484 1.218-.303 1.218-.306h2.439l-.123.183-.183.123-.183.12-.12.183-.123.183-.18.123-.186.12-.12.186-.123.183-.183.12-.183.123-.12.183-.123.18-.183.126-.183.12-.123.18-.12.186-.183.12-.186.123-.12.183-.123.183-.18.12-.183.123-.123.183-6.216 7.494c-4.185 4.959-7.392 9.669-9.627 14.136-2.232 4.47-3.759 8.328-4.569 11.58-.813 3.249-1.119 6.6-.915 10.053s1.056 6.846 2.559 10.176c1.545 3.372 3.231 6.174 5.058 8.409s4.773 4.671 8.838 7.314c4.059 2.64 8.832 4.875 14.316 6.702 5.487 1.827 11.883 2.742 19.194 2.742 7.314 0 12.393-.711 15.237-2.133 2.841-1.422 5.442-3.087 7.797-4.995 2.316-1.953 4.896-5.058 7.74-9.324s5.28-9.039 7.314-14.322c2.031-5.28 3.552-15.639 4.569-31.077 1.014-15.432 1.866-24.942 2.559-28.515.732-3.534 2.679-2.316 5.847 3.654 3.129 6.015 5.04 10.137 5.73 12.372.729 2.232 3.027 2.985 6.885 2.256 3.858-.693 8.631-.936 14.319-.732 5.687.204 9.749.567 12.185 1.095 2.439.489 4.632-1.704 6.582-6.579 1.908-4.875 3.879-9.042 5.91-12.492 2.031-3.453 3.657.507 4.875 11.88 1.221 11.376 2.031 20.922 2.439 28.641.405 7.719 1.623 14.217 3.657 19.497 2.028 5.283 4.326 9.792 6.885 13.53 2.517 3.777 4.893 6.783 7.128 9.015 2.232 2.238 4.977 4.167 8.226 5.79 3.252 1.626 8.532 2.439 15.843 2.439s13.71-.915 19.194-2.742 9.951-3.858 13.407-6.093c3.453-2.235 6.438-4.713 8.958-7.437 2.559-2.76 4.548-5.868 5.97-9.321s2.133-7.311 2.133-11.577-.711-8.43-2.133-12.492-3.555-8.328-6.396-12.795c-2.844-4.47-5.589-8.226-8.229-11.274s-4.02-4.611-4.143-4.692z"/><path d="m569.309 90.271.123.306v1.095c0 .693.039 1.098.12 1.221l.183.12v1.827l-.183-.12c-.081-.123-.327-.243-.729-.366-.408-.081-.651.081-.732.486-.123.408-.732.714-1.827.915l-1.71.306.306.732c.204.525.468.648.792.363.285-.324.486-.183.612.426l.12.915h-1.218l-.123.609-.183.609-.183-.12-.123-.183-.12-.183-.183-.123-.303-.609c-.204-.405-.447-.444-.732-.12l-.489.426-.12.18-.183.123-.186.123-.12.183v.303l-.303-.12c-.207-.123-2.541-2.418-7.008-6.885-4.47-4.47-9.711-9.081-15.723-13.833-5.97-4.794-13.161-9.789-21.57-14.991-8.448-5.157-17.955-10.176-28.518-15.051-10.56-4.875-22.137-9.444-34.731-13.707-12.591-4.269-26.1-8.025-40.521-11.274-14.421-3.252-29.352-5.892-44.787-7.923-15.438-2.031-32.295-3.351-50.577-3.96-18.278-.609-34.628-.507-49.052.306-14.418.81-28.941 2.232-43.566 4.263s-29.247 4.773-43.872 8.229c-14.625 3.45-28.029 7.311-40.215 11.574-12.189 4.266-23.361 8.838-33.516 13.713s-19.398 9.849-27.723 14.928c-8.331 5.079-15.945 10.461-22.851 16.146-6.909 5.688-12.699 11.172-17.37 16.452-4.671 5.283-8.73 10.503-12.186 15.66l-5.178 7.803h-.123c-.12 0-.243.099-.363.303l-.123.306-1.218.12-1.221.183-.606.183-.612.12v-1.215l.915-.123c.609-.123.201-.324-1.218-.609-1.425-.327-2.175-1.098-2.256-2.316-.12-1.221-.528-2.439-1.218-3.657l-1.098-1.827.306-.123c.204-.12.306-.243.306-.363v-.126l4.752-7.005c3.126-4.671 7.677-10.218 13.65-16.635 6.009-6.378 12.672-12.411 19.986-18.099 7.311-5.685 15.738-11.373 25.287-17.061 9.546-5.685 19.5-10.866 29.859-15.537 10.359-4.674 21.12-8.937 32.292-12.795 11.172-3.861 23.97-7.515 38.391-10.971 14.418-3.453 29.448-6.297 45.09-8.532 15.639-2.232 30.873-3.756 45.699-4.569 14.832-.813 31.281-.915 49.358-.303 18.078.609 34.935 1.929 50.574 3.96 15.642 2.031 30.672 4.671 45.093 7.923 14.421 3.249 28.638 7.209 42.654 11.88 14.013 4.671 26.709 9.648 38.085 14.928 11.373 5.283 21.426 10.665 30.162 16.149 8.733 5.484 15.375 9.993 19.923 13.53 4.59 3.57 9.222 7.491 13.896 11.757 4.671 4.266 7.515 6.906 8.529 7.923 1.017 1.014 1.584 1.623 1.707 1.827z"/><path d="m44.664 235.294.732-.915 9.75 8.043c6.501 5.403 13.812 10.746 21.936 16.029 8.127 5.28 17.367 10.461 27.726 15.537 10.359 5.079 22.137 9.954 35.34 14.625s27.117 8.733 41.742 12.186 29.247 6.195 43.872 8.226 29.148 3.453 43.566 4.266c14.424.813 30.774.915 49.052.303 18.282-.609 35.139-1.929 50.577-3.957 15.435-2.031 30.366-4.674 44.787-7.923 14.421-3.252 27.93-7.008 40.521-11.274 12.594-4.266 24.414-8.979 35.463-14.136 11.091-5.199 20.961-10.479 29.616-15.843 8.61-5.403 14.337-9.222 17.181-11.454 2.844-2.238 4.47-3.453 4.878-3.657l.606-.306.306-.183.306-.123.609.123.609.183.12.183.183.123.183.12.123.183.915.186.915.12v1.827h1.215l.306 2.559c.204 1.749.345 2.679.426 2.805.123.081.243.324.366.732l.123.606v.123c0 .123-.204.243-.609.366l-.612.12-.12-.303c-.123-.204-.447-.408-.978-.612-.486-.198-.69-.099-.606.306l.183.609-.183.489c-.084.285-.123.486-.123.612v.12l-.303.123c-.204.12-.306.243-.306.363v.123l-.123.303c-.12.204-3.636 2.64-10.542 7.311-6.903 4.674-14.763 9.405-23.58 14.202-8.856 4.752-19.275 9.564-31.26 14.439s-24.981 9.342-38.997 13.407c-14.013 4.062-28.743 7.515-44.178 10.359-15.33 2.829-30.786 4.962-46.308 6.396-15.438 1.422-32.196 2.133-50.273 2.133-18.078 0-33.312-.507-45.699-1.524-12.39-1.014-25.998-2.742-40.827-5.178-14.826-2.439-29.247-5.484-43.263-9.138-14.013-3.66-26.811-7.617-38.388-11.886-11.577-4.263-22.848-9.138-33.819-14.622-10.968-5.484-20.412-10.767-28.335-15.843-7.92-5.079-14.826-10.116-20.718-15.114l-8.832-7.434-.306-.12-.306-.183v-.426c0-.123.162-.327.486-.609l.426-.489-.18-.12-.12-.183.12-.186.18-.12.306-1.218c.204-.813.366-1.524.489-2.133l.12-.915 1.221-.12c.81-.123 1.257-.447 1.338-.978.123-.486.447-1.032.975-1.644zm524.768-143.622v-1.095l6.822 8.529c4.59 5.688 8.511 11.58 11.76 17.67 3.252 6.096 5.892 12.597 7.923 19.5 2.031 6.906 3.249 11.985 3.657 15.234.405 3.249.507 8.025.306 14.319-.207 6.297-1.119 12.696-2.742 19.197-1.629 6.498-3.963 12.894-7.011 19.191-3.045 6.3-4.671 9.648-4.875 10.056l-.303.609-.186.123-.117.183-.126.183-.18.12-.303.912-.306.915-.183.123-.123.183-.12.183-.183.123-.186.12-.12.183-.123.183-.183.12h-.303l.12-1.218.183-1.218v-.609l-.183-.12-.12-.183-.123-.183-.18-.123-.183-.12-.123-.186.123-.183.183-.12v-.306c0-.204-.144-1.218-.426-3.048-.327-1.827-.897-2.739-1.71-2.739-.81 0-1.176-.207-1.095-.609.12-.408.243-1.119.366-2.133.081-1.017-.285-1.422-1.098-1.221l-1.218.306.123-.609c.12-.405.993-2.235 2.619-5.484s3.249-7.92 4.875-14.016c1.623-6.093 2.439-13.305 2.439-21.633 0-8.325-.714-15.231-2.133-20.715-1.425-5.484-3.555-11.172-6.399-17.064-2.844-5.889-6.156-11.313-9.933-16.269l-5.607-7.494-.12-.183-.183-.12-.186-.609-.12-.612v-.303l.12-.183.186-.123.183-.123.12-.18.489-.426c.285-.324.528-.285.732.12l.303.609.183.123.12.183.123.183.183.12v-.912c0-.609-.063-1.221-.183-1.83l-.123-.912 1.341-.306c.936-.201 1.344-.507 1.218-.915-.078-.405.285-.567 1.098-.486.813.123 1.26.243 1.341.366l.183.12v-1.827l-.183-.12c-.081-.123-.12-.528-.12-1.221zm-3.537 5.484c-.081-.108-.081-.258 0-.363.123-.081.186-.024.186.18s-.063.267-.186.183z"/><path d="m14.196 111.901h.126l.606 1.71c.408 1.095.711 2.394.915 3.897.204 1.545 1.014 2.478 2.439 2.805 1.419.285 1.827.486 1.218.609l-.915.123v1.215l.612-.12.606-.183.915-.303c.609-.204 1.119-.366 1.524-.489l.609-.12-3.777 9.138c-2.562 6.093-4.35 11.883-5.364 17.367s-1.422 11.475-1.218 17.973c.204 6.501 1.119 12.798 2.742 18.891 1.623 6.096 4.002 12.147 7.131 18.159 3.168 5.973 6.885 11.7 11.148 17.184 4.266 5.484 7.251 9.18 8.958 11.091 1.746 1.947 2.682 3.027 2.802 3.228l.123.303-.732.915c-.528.612-.852 1.158-.975 1.644-.081.528-.528.855-1.338.978l-1.221.12-.12.915c-.123.609-.285 1.32-.489 2.133l-.306 1.218-.18.12-.12.186.12.183.18.12v1.827h-.3l-.306-.12-.306-.183v-.306l-.303-.12-.306-.183-.123-.183-.183-.12-.183-.123-.12-.183-.123-.183-.183-.123-.18-.12-.123-.183-.123-.186-.183-.12-.183-.12-.12-.186-.123-.18c-.123-.081-.792-.732-2.01-1.95-1.221-1.218-4.572-5.181-10.053-11.883-5.484-6.705-10.158-13.914-14.016-21.633-3.861-7.719-6.6-14.826-8.229-21.324-1.623-6.501-2.436-14.016-2.436-22.545 0-8.532.813-15.948 2.436-22.245 1.629-6.294 3.921-12.492 6.888-18.582l4.386-9.141.123-.306c.12-.204.243-.306.363-.306z"/><path d="m577.229 204.217.123-.303h.915c.609 0 .873.507.792 1.524-.123 1.014-.246 1.725-.366 2.133-.081.402.285.609 1.095.609.813 0 1.383.912 1.71 2.739.282 1.83.426 2.844.426 3.048v.306l-.183.12-.123.183.123.186.183.12.18.123.123.183.609.183c.405.078.609.324.609.729v.609l-.303.123c-.204.123-.306.243-.306.366v.12h-.123c-.12 0-.243.204-.366.612l-.12.606-.123.612c-.12.405-2.619 3.555-7.494 9.444s-10.419 11.679-16.635 17.367l-9.261 8.529-.123-.606c-.123-.408-.243-.408-.366 0l-.12.606-.123.306-.183.303h-.306l-.12.306-.183.306-.183.12-.123.183-.12.186-.186.12-.183.123-.117.183-.612.18-.609.123v-1.218l.609-.123.612-.183-.126-.183-.18-.123-.183-.609c-.084-.405.081-.606.489-.606.402 0 .648-.204.729-.612.12-.405.243-1.422.366-3.045l.12-2.439-.609-.12c-.405-.123-1.014-.243-1.827-.369-.813-.081-1.179-.426-1.098-1.032l.183-.915-.183-.123-.12-.183-.609-.183-.609-.123v-.303l.12-.183.183-.123.183-.12.123-.183.12-.183.183-.12 7.314-6.705c4.875-4.467 9.546-9.546 14.013-15.234s7.515-9.852 9.141-12.492 2.496-4.062 2.619-4.263l.123-.306h.123c.12 0 .243-.102.363-.306z"/></g></svg>